<svg width="62" height="62" viewBox="0 0 62 62" fill="none" xmlns="http://www.w3.org/2000/svg">
<g filter="url(#filter0_d_4472_9114)">
<rect y="10.0001" width="48" height="48" fill="#CDD5DE" shape-rendering="crispEdges"/>
<rect x="1" y="11.0001" width="46" height="46" stroke="#0E1114" stroke-width="2" shape-rendering="crispEdges"/>
<path fill-rule="evenodd" clip-rule="evenodd" d="M8.39999 22.6001C7.76347 22.6001 7.15302 22.853 6.70294 23.303C6.25286 23.7531 6 24.3636 6 25.0001V39.4C6 40.9913 6.63214 42.5174 7.75735 43.6426C8.88256 44.7678 10.4087 45.4 12 45.4H31.1999C31.8364 45.4 32.4468 45.1471 32.8969 44.697C33.347 44.2469 33.5998 43.6365 33.5998 43V38.4677L40.2046 42.2419C40.576 42.4541 41.0323 42.4526 41.4023 42.2379C41.7723 42.0232 42 41.6278 42 41.2V26.8001C42 26.3723 41.7723 25.9769 41.4023 25.7622C41.0323 25.5475 40.576 25.546 40.2046 25.7582L33.5998 29.5324V28.6001C33.5998 27.0088 32.9677 25.4827 31.8425 24.3574C30.7173 23.2322 29.1912 22.6001 27.5999 22.6001H8.39999ZM8.39999 25.0001V39.4C8.39999 40.3548 8.77927 41.2704 9.4544 41.9456C10.1295 42.6207 11.0452 43 12 43H31.1999V28.6001C31.1999 27.6453 30.8206 26.7296 30.1454 26.0545C29.4703 25.3794 28.5546 25.0001 27.5999 25.0001L8.39999 25.0001ZM39.6 39.1322V28.8679L33.5998 32.2965V35.7035L39.6 39.1322Z" fill="#CDD5DE"/>
<path d="M8.39999 39.4V25.0001L27.5999 25.0001C28.5546 25.0001 29.4703 25.3794 30.1454 26.0545C30.8206 26.7296 31.1999 27.6453 31.1999 28.6001V43H12C11.0452 43 10.1295 42.6207 9.4544 41.9456C8.77927 41.2704 8.39999 40.3548 8.39999 39.4Z" fill="#0E1114"/>
<path d="M39.6 28.8679V39.1322L33.5998 35.7035V32.2965L39.6 28.8679Z" fill="#0E1114"/>
<path d="M44 1C51.1797 1 57 6.8203 57 14C57 21.1797 51.1797 27 44 27C36.8203 27 31 21.1797 31 14C31 6.8203 36.8203 1 44 1Z" fill="#1D9745"/>
<path d="M44 1C51.1797 1 57 6.8203 57 14C57 21.1797 51.1797 27 44 27C36.8203 27 31 21.1797 31 14C31 6.8203 36.8203 1 44 1Z" stroke="#0E1114" stroke-width="2" stroke-linecap="round" stroke-linejoin="round"/>
<path fill-rule="evenodd" clip-rule="evenodd" d="M47.8897 11.6932C48.128 11.9429 48.1187 12.3386 47.8689 12.5768L43.283 16.9518C43.0414 17.1823 42.6612 17.1822 42.4198 16.9515L40.1307 14.764C39.8811 14.5255 39.8722 14.1299 40.1106 13.8803C40.3491 13.6307 40.7448 13.6218 40.9943 13.8603L42.8519 15.6355L47.0061 11.6724C47.2558 11.4341 47.6515 11.4434 47.8897 11.6932Z" fill="white"/>
<path fill-rule="evenodd" clip-rule="evenodd" d="M44 7.1246C40.203 7.1246 37.125 10.2026 37.125 13.9996C37.125 17.7966 40.203 20.8746 44 20.8746C47.797 20.8746 50.875 17.7966 50.875 13.9996C50.875 10.2026 47.797 7.1246 44 7.1246ZM35.875 13.9996C35.875 9.51229 39.5127 5.8746 44 5.8746C48.4873 5.8746 52.125 9.51229 52.125 13.9996C52.125 18.4869 48.4873 22.1246 44 22.1246C39.5127 22.1246 35.875 18.4869 35.875 13.9996Z" fill="white"/>
</g>
<defs>
<filter id="filter0_d_4472_9114" x="0" y="0" width="62" height="62.0001" filterUnits="userSpaceOnUse" color-interpolation-filters="sRGB">
<feFlood flood-opacity="0" result="BackgroundImageFix"/>
<feColorMatrix in="SourceAlpha" type="matrix" values="0 0 0 0 0 0 0 0 0 0 0 0 0 0 0 0 0 0 127 0" result="hardAlpha"/>
<feOffset dx="4" dy="4"/>
<feComposite in2="hardAlpha" operator="out"/>
<feColorMatrix type="matrix" values="0 0 0 0 0.054902 0 0 0 0 0.0666667 0 0 0 0 0.0784314 0 0 0 1 0"/>
<feBlend mode="normal" in2="BackgroundImageFix" result="effect1_dropShadow_4472_9114"/>
<feBlend mode="normal" in="SourceGraphic" in2="effect1_dropShadow_4472_9114" result="shape"/>
</filter>
</defs>
</svg>
