<svg width="62" height="62" viewBox="0 0 62 62" fill="none" xmlns="http://www.w3.org/2000/svg">
<g filter="url(#filter0_d_4472_9211)">
<rect y="10" width="48" height="48" fill="#6DE5FA" shape-rendering="crispEdges"/>
<rect x="1" y="11" width="46" height="46" stroke="#0E1114" stroke-width="2" shape-rendering="crispEdges"/>
<path fill-rule="evenodd" clip-rule="evenodd" d="M6 19C6 17.3431 7.34315 16 9 16H39C40.6569 16 42 17.3431 42 19V49C42 50.6569 40.6569 52 39 52H9C7.34315 52 6 50.6569 6 49V19ZM39 19H9V39.3787V43.6213V49H39V40.6213V36.3787V19Z" fill="#6DE5FA"/>
<path fill-rule="evenodd" clip-rule="evenodd" d="M30.3413 30.3541C30.7083 30.2004 31.1022 30.1213 31.5 30.1213C31.8978 30.1213 32.2917 30.2004 32.6587 30.3541C33.0235 30.5068 33.3545 30.7302 33.6326 31.0113L39 36.3787L41.5607 38.9394C42.1464 39.5251 42.1464 40.4749 41.5607 41.0607C40.9749 41.6465 40.0251 41.6465 39.4393 41.0607L39 40.6213L31.5 33.1213L31.4919 33.1295L23.1328 41.4886C22.8546 41.7698 22.5235 41.9932 22.1587 42.146C21.7917 42.2996 21.3978 42.3788 21 42.3788C20.6022 42.3788 20.2083 42.2996 19.8413 42.146C19.4764 41.9932 19.1454 41.7697 18.8672 41.4885L15 37.6213L14.9919 37.6295L9 43.6213L8.56066 44.0607C7.97487 44.6465 7.02513 44.6465 6.43934 44.0607C5.85355 43.4749 5.85355 42.5251 6.43934 41.9394L9 39.3787L12.8672 35.5115C13.1454 35.2303 13.4765 35.0068 13.8413 34.8541C14.2083 34.7004 14.6022 34.6213 15 34.6213C15.3978 34.6213 15.7917 34.7004 16.1587 34.8541C16.5236 35.0068 16.8546 35.2303 17.1328 35.5115L21 39.3787L21.0081 39.3706L25.1877 35.191L29.3673 31.0114C29.6454 30.7303 29.9765 30.5068 30.3413 30.3541Z" fill="#6DE5FA"/>
<path d="M18.75 29.5C19.9926 29.5 21 28.4926 21 27.25C21 26.0074 19.9926 25 18.75 25C17.5074 25 16.5 26.0074 16.5 27.25C16.5 28.4926 17.5074 29.5 18.75 29.5Z" fill="#6DE5FA"/>
<path fill-rule="evenodd" clip-rule="evenodd" d="M39 19H9V39.3787L12.8672 35.5115C13.1454 35.2303 13.4765 35.0068 13.8413 34.8541C14.2083 34.7004 14.6022 34.6213 15 34.6213C15.3978 34.6213 15.7917 34.7004 16.1587 34.8541C16.5236 35.0068 16.8546 35.2303 17.1328 35.5115L21 39.3787L21.0081 39.3706L25.1877 35.191L29.3673 31.0114C29.6454 30.7303 29.9765 30.5068 30.3413 30.3541C30.7083 30.2004 31.1022 30.1213 31.5 30.1213C31.8978 30.1213 32.2917 30.2004 32.6587 30.3541C33.0235 30.5068 33.3545 30.7302 33.6326 31.0113L39 36.3787V19ZM21 27.25C21 28.4926 19.9926 29.5 18.75 29.5C17.5074 29.5 16.5 28.4926 16.5 27.25C16.5 26.0074 17.5074 25 18.75 25C19.9926 25 21 26.0074 21 27.25Z" fill="#0E1114"/>
<path d="M9 49H39V40.6213L31.5 33.1213L31.4919 33.1295L23.1328 41.4886C22.8546 41.7698 22.5235 41.9932 22.1587 42.146C21.7917 42.2996 21.3978 42.3788 21 42.3788C20.6022 42.3788 20.2083 42.2996 19.8413 42.146C19.4764 41.9932 19.1454 41.7697 18.8672 41.4885L15 37.6213L14.9919 37.6295L9 43.6213V49Z" fill="#0E1114"/>
<path d="M44 1C51.1797 1 57 6.8203 57 14C57 21.1797 51.1797 27 44 27C36.8203 27 31 21.1797 31 14C31 6.8203 36.8203 1 44 1Z" fill="#8B2CFF"/>
<path d="M44 1C51.1797 1 57 6.8203 57 14C57 21.1797 51.1797 27 44 27C36.8203 27 31 21.1797 31 14C31 6.8203 36.8203 1 44 1Z" stroke="#0E1114" stroke-width="2" stroke-linecap="round" stroke-linejoin="round"/>
<path d="M51.5154 11.8087C51.9993 11.317 51.993 10.5236 51.5053 10.0437L48.008 6.54717C47.7704 6.31266 47.4538 6.1829 47.1216 6.18759C46.7878 6.18994 46.4743 6.32282 46.2429 6.55733L36.8619 15.9391C36.6274 16.1744 36.4992 16.4871 36.5 16.8178V20.3119C36.5 21.0013 37.0613 21.5626 37.7507 21.5626H50.883C51.2285 21.5626 51.5084 21.2827 51.5084 20.9372C51.5084 20.5917 51.2285 20.3119 50.883 20.3119H43.0122L51.5154 11.8087ZM47.1349 7.44142L50.6212 10.9348L49.0078 12.5482L45.5175 9.05795L47.1349 7.44142ZM37.7476 16.8224L44.6319 9.94203L48.1221 13.4323L41.2441 20.3119H37.7507L37.7476 16.8224Z" fill="white"/>
</g>
<defs>
<filter id="filter0_d_4472_9211" x="0" y="0" width="62" height="62" filterUnits="userSpaceOnUse" color-interpolation-filters="sRGB">
<feFlood flood-opacity="0" result="BackgroundImageFix"/>
<feColorMatrix in="SourceAlpha" type="matrix" values="0 0 0 0 0 0 0 0 0 0 0 0 0 0 0 0 0 0 127 0" result="hardAlpha"/>
<feOffset dx="4" dy="4"/>
<feComposite in2="hardAlpha" operator="out"/>
<feColorMatrix type="matrix" values="0 0 0 0 0.054902 0 0 0 0 0.0666667 0 0 0 0 0.0784314 0 0 0 1 0"/>
<feBlend mode="normal" in2="BackgroundImageFix" result="effect1_dropShadow_4472_9211"/>
<feBlend mode="normal" in="SourceGraphic" in2="effect1_dropShadow_4472_9211" result="shape"/>
</filter>
</defs>
</svg>
