<svg width="52" height="52" viewBox="0 0 52 52" fill="none" xmlns="http://www.w3.org/2000/svg">
<g filter="url(#filter0_d_4439_343)">
<rect width="48" height="48" fill="#C6ABFF" shape-rendering="crispEdges"/>
<rect x="1" y="1" width="46" height="46" stroke="#0E1114" stroke-width="2" shape-rendering="crispEdges"/>
<path fill-rule="evenodd" clip-rule="evenodd" d="M6 11.5385C6 10.0091 7.23983 8.76929 8.76923 8.76929H39.2308C40.7602 8.76929 42 10.0091 42 11.5385V36.4616C42 37.991 40.7602 39.2308 39.2308 39.2308H8.76923C7.23983 39.2308 6 37.991 6 36.4616V11.5385ZM39.2308 11.5385H33.6923H30.9231H25.3846H22.6154H17.0769H14.3077H8.76923V14.3077V17.077V30.9231V33.6924V36.4616H14.3077H17.0769H22.6154H25.3846H30.9231H33.6923H39.2308V33.6924V30.9231V17.077V14.3077V11.5385Z" fill="#C6ABFF"/>
<path fill-rule="evenodd" clip-rule="evenodd" d="M24 8.76929C24.7647 8.76929 25.3846 9.3892 25.3846 10.1539V11.5385V14.3077V17.077V30.9231V33.6924V36.4616V37.8462C25.3846 38.6109 24.7647 39.2308 24 39.2308C23.2353 39.2308 22.6154 38.6109 22.6154 37.8462V36.4616V33.6924V30.9231V17.077V14.3077V11.5385V10.1539C22.6154 9.3892 23.2353 8.76929 24 8.76929Z" fill="#C6ABFF"/>
<path fill-rule="evenodd" clip-rule="evenodd" d="M6 15.6924C6 14.9277 6.61991 14.3077 7.38462 14.3077H8.76923H14.3077H17.0769H22.6154H25.3846H30.9231H33.6923H39.2308H40.6154C41.3801 14.3077 42 14.9277 42 15.6924C42 16.4571 41.3801 17.077 40.6154 17.077H39.2308H25.3846H22.6154H8.76923H7.38462C6.61991 17.077 6 16.4571 6 15.6924Z" fill="#C6ABFF"/>
<path fill-rule="evenodd" clip-rule="evenodd" d="M6 32.3077C6 31.543 6.61991 30.9231 7.38462 30.9231H8.76923H22.6154H25.3846H39.2308H40.6154C41.3801 30.9231 42 31.543 42 32.3077C42 33.0724 41.3801 33.6924 40.6154 33.6924H39.2308H33.6923H30.9231H25.3846H22.6154H17.0769H14.3077H8.76923H7.38462C6.61991 33.6924 6 33.0724 6 32.3077Z" fill="#C6ABFF"/>
<path fill-rule="evenodd" clip-rule="evenodd" d="M15.6923 8.76929C16.457 8.76929 17.0769 9.3892 17.0769 10.1539V11.5385V14.3077V15.6924C17.0769 16.4571 16.457 17.077 15.6923 17.077C14.9276 17.077 14.3077 16.4571 14.3077 15.6924V14.3077V11.5385V10.1539C14.3077 9.3892 14.9276 8.76929 15.6923 8.76929Z" fill="#C6ABFF"/>
<path fill-rule="evenodd" clip-rule="evenodd" d="M32.3077 8.76929C33.0724 8.76929 33.6923 9.3892 33.6923 10.1539V11.5385V14.3077V15.6924C33.6923 16.4571 33.0724 17.077 32.3077 17.077C31.543 17.077 30.9231 16.4571 30.9231 15.6924V14.3077V11.5385V10.1539C30.9231 9.3892 31.543 8.76929 32.3077 8.76929Z" fill="#C6ABFF"/>
<path fill-rule="evenodd" clip-rule="evenodd" d="M15.6923 30.9231C16.457 30.9231 17.0769 31.543 17.0769 32.3077V33.6924V36.4616V37.8462C17.0769 38.6109 16.457 39.2308 15.6923 39.2308C14.9276 39.2308 14.3077 38.6109 14.3077 37.8462V36.4616V33.6924V32.3077C14.3077 31.543 14.9276 30.9231 15.6923 30.9231Z" fill="#C6ABFF"/>
<path fill-rule="evenodd" clip-rule="evenodd" d="M32.3077 30.9231C33.0724 30.9231 33.6923 31.543 33.6923 32.3077V33.6924V36.4616V37.8462C33.6923 38.6109 33.0724 39.2308 32.3077 39.2308C31.543 39.2308 30.9231 38.6109 30.9231 37.8462V36.4616V33.6924V32.3077C30.9231 31.543 31.543 30.9231 32.3077 30.9231Z" fill="#C6ABFF"/>
<path d="M8.76923 17.077V30.9231H15.6923H22.6154V17.077H15.6923H8.76923Z" fill="#0E1114"/>
<path d="M39.2308 30.9231V17.077H32.3077H25.3846V30.9231H32.3077H39.2308Z" fill="#0E1114"/>
<path d="M39.2308 11.5385H33.6923V14.3077H39.2308V11.5385Z" fill="#0E1114"/>
<path d="M30.9231 14.3077V11.5385H25.3846V14.3077H30.9231Z" fill="#0E1114"/>
<path d="M17.0769 11.5385V14.3077H22.6154V11.5385H17.0769Z" fill="#0E1114"/>
<path d="M14.3077 14.3077V11.5385H8.76923V14.3077H14.3077Z" fill="#0E1114"/>
<path d="M8.76923 36.4616H14.3077V33.6924H8.76923V36.4616Z" fill="#0E1114"/>
<path d="M17.0769 33.6924V36.4616H22.6154V33.6924H17.0769Z" fill="#0E1114"/>
<path d="M30.9231 36.4616V33.6924H25.3846V36.4616H30.9231Z" fill="#0E1114"/>
<path d="M33.6923 33.6924V36.4616H39.2308V33.6924H33.6923Z" fill="#0E1114"/>
</g>
<defs>
<filter id="filter0_d_4439_343" x="0" y="0" width="52" height="52" filterUnits="userSpaceOnUse" color-interpolation-filters="sRGB">
<feFlood flood-opacity="0" result="BackgroundImageFix"/>
<feColorMatrix in="SourceAlpha" type="matrix" values="0 0 0 0 0 0 0 0 0 0 0 0 0 0 0 0 0 0 127 0" result="hardAlpha"/>
<feOffset dx="4" dy="4"/>
<feComposite in2="hardAlpha" operator="out"/>
<feColorMatrix type="matrix" values="0 0 0 0 0.054902 0 0 0 0 0.0666667 0 0 0 0 0.0784314 0 0 0 1 0"/>
<feBlend mode="normal" in2="BackgroundImageFix" result="effect1_dropShadow_4439_343"/>
<feBlend mode="normal" in="SourceGraphic" in2="effect1_dropShadow_4439_343" result="shape"/>
</filter>
</defs>
</svg>
