<svg width="62" height="62" viewBox="0 0 62 62" fill="none" xmlns="http://www.w3.org/2000/svg">
<g filter="url(#filter0_d_4472_9154)">
<rect y="10.0001" width="48" height="48" fill="#CDD5DE" shape-rendering="crispEdges"/>
<rect x="1" y="11.0001" width="46" height="46" stroke="#0E1114" stroke-width="2" shape-rendering="crispEdges"/>
<path fill-rule="evenodd" clip-rule="evenodd" d="M8.39999 22.6001C7.76347 22.6001 7.15302 22.853 6.70294 23.303C6.25286 23.7531 6 24.3636 6 25.0001V39.4C6 40.9913 6.63214 42.5174 7.75735 43.6426C8.88256 44.7678 10.4087 45.4 12 45.4H31.1999C31.8364 45.4 32.4468 45.1471 32.8969 44.697C33.347 44.2469 33.5998 43.6365 33.5998 43V38.4677L40.2046 42.2419C40.576 42.4541 41.0323 42.4526 41.4023 42.2379C41.7723 42.0232 42 41.6278 42 41.2V26.8001C42 26.3723 41.7723 25.9769 41.4023 25.7622C41.0323 25.5475 40.576 25.546 40.2046 25.7582L33.5998 29.5324V28.6001C33.5998 27.0088 32.9677 25.4827 31.8425 24.3574C30.7173 23.2322 29.1912 22.6001 27.5999 22.6001H8.39999ZM8.39999 25.0001V39.4C8.39999 40.3548 8.77927 41.2704 9.4544 41.9456C10.1295 42.6207 11.0452 43 12 43H31.1999V28.6001C31.1999 27.6453 30.8206 26.7296 30.1454 26.0545C29.4703 25.3794 28.5546 25.0001 27.5999 25.0001L8.39999 25.0001ZM39.6 39.1322V28.8679L33.5998 32.2965V35.7035L39.6 39.1322Z" fill="#CDD5DE"/>
<path d="M8.39999 39.4V25.0001L27.5999 25.0001C28.5546 25.0001 29.4703 25.3794 30.1454 26.0545C30.8206 26.7296 31.1999 27.6453 31.1999 28.6001V43H12C11.0452 43 10.1295 42.6207 9.4544 41.9456C8.77927 41.2704 8.39999 40.3548 8.39999 39.4Z" fill="#0E1114"/>
<path d="M39.6 28.8679V39.1322L33.5998 35.7035V32.2965L39.6 28.8679Z" fill="#0E1114"/>
<path d="M44 1C51.1797 1 57 6.8203 57 14C57 21.1797 51.1797 27 44 27C36.8203 27 31 21.1797 31 14C31 6.8203 36.8203 1 44 1Z" fill="#C89600"/>
<path d="M44 1C51.1797 1 57 6.8203 57 14C57 21.1797 51.1797 27 44 27C36.8203 27 31 21.1797 31 14C31 6.8203 36.8203 1 44 1Z" stroke="#0E1114" stroke-width="2" stroke-linecap="round" stroke-linejoin="round"/>
<path d="M51.5154 11.8087C51.9993 11.317 51.993 10.5236 51.5053 10.0437L48.008 6.54717C47.7704 6.31266 47.4538 6.1829 47.1216 6.18759C46.7878 6.18994 46.4743 6.32282 46.2429 6.55733L36.8619 15.9391C36.6274 16.1744 36.4992 16.4871 36.5 16.8178V20.3119C36.5 21.0013 37.0613 21.5626 37.7507 21.5626H50.883C51.2285 21.5626 51.5084 21.2827 51.5084 20.9372C51.5084 20.5917 51.2285 20.3119 50.883 20.3119H43.0122L51.5154 11.8087ZM47.1349 7.44142L50.6212 10.9348L49.0078 12.5482L45.5175 9.05795L47.1349 7.44142ZM37.7476 16.8224L44.6319 9.94203L48.1221 13.4323L41.2441 20.3119H37.7507L37.7476 16.8224Z" fill="white"/>
</g>
<defs>
<filter id="filter0_d_4472_9154" x="0" y="0" width="62" height="62.0001" filterUnits="userSpaceOnUse" color-interpolation-filters="sRGB">
<feFlood flood-opacity="0" result="BackgroundImageFix"/>
<feColorMatrix in="SourceAlpha" type="matrix" values="0 0 0 0 0 0 0 0 0 0 0 0 0 0 0 0 0 0 127 0" result="hardAlpha"/>
<feOffset dx="4" dy="4"/>
<feComposite in2="hardAlpha" operator="out"/>
<feColorMatrix type="matrix" values="0 0 0 0 0.054902 0 0 0 0 0.0666667 0 0 0 0 0.0784314 0 0 0 1 0"/>
<feBlend mode="normal" in2="BackgroundImageFix" result="effect1_dropShadow_4472_9154"/>
<feBlend mode="normal" in="SourceGraphic" in2="effect1_dropShadow_4472_9154" result="shape"/>
</filter>
</defs>
</svg>
