<svg width="32" height="32" viewBox="0 0 32 32" fill="none" xmlns="http://www.w3.org/2000/svg">
<path d="M21.3675 25.9839H3.22249C2.66554 25.9839 2.21444 26.435 2.21444 26.9919C2.21444 27.5489 2.66554 28 3.22249 28H21.3675C21.9244 28 22.3755 27.5489 22.3755 26.9919C22.3755 26.435 21.9244 25.9839 21.3675 25.9839Z" fill="#1100FF"/>
<path d="M31.7253 10.7295L29.3803 7.85527C27.7951 5.91855 25.0784 5.43468 22.9237 6.70483L17.7234 9.76176L10.5977 7.38653C10.3633 7.3084 10.1075 7.31974 9.8807 7.41677L7.80284 8.31142C7.30764 8.52311 6.92457 8.91625 6.72548 9.41524C6.52513 9.91549 6.53269 10.4636 6.74438 10.9588C6.85905 11.226 7.03294 11.4692 7.24967 11.6632L10.081 14.2085L8.19976 15.2834L5.13276 13.9691C4.87948 13.8608 4.59219 13.8608 4.33891 13.9691L2.22074 14.8764C1.19882 15.3149 0.725033 16.5031 1.16354 17.525C1.27442 17.7834 1.43445 18.0102 1.63984 18.203L6.3903 22.651C7.34292 23.5444 8.59165 24.0068 9.84794 24.0068C10.7186 24.0068 11.5931 23.7838 12.3744 23.3289L31.4506 12.2391C31.7051 12.0904 31.8828 11.8384 31.9357 11.5485C31.9886 11.2587 31.9117 10.9601 31.7253 10.7307V10.7295ZM11.3588 21.585C10.2121 22.2528 8.73529 22.0865 7.76756 21.178L3.0171 16.7299H3.01458L4.73457 15.9915L7.86585 17.3335C8.15692 17.4583 8.48832 17.4394 8.76302 17.2818L12.2912 15.2657C12.5722 15.1057 12.7587 14.8197 12.794 14.4984C12.828 14.177 12.7058 13.8582 12.4651 13.6415L8.59795 10.1637L10.3242 9.42028L17.5205 11.8194C17.7965 11.9114 18.0989 11.8799 18.3496 11.7325L23.9456 8.44372C25.2397 7.68138 26.869 7.97246 27.819 9.13172L29.4156 11.0899L11.3588 21.585Z" fill="#1100FF"/>
</svg>
