<svg width="32" height="32" viewBox="0 0 32 32" fill="none" xmlns="http://www.w3.org/2000/svg">
<path d="M30 25.6125H12C11.4475 25.6125 11 26.06 11 26.6125C11 27.165 11.4475 27.6125 12 27.6125H30C30.5525 27.6125 31 27.165 31 26.6125C31 26.06 30.5525 25.6125 30 25.6125Z" fill="#1100FF"/>
<path d="M28 23.6125C28.2162 23.6125 28.4287 23.5425 28.6037 23.41C28.8525 23.2212 29 22.9262 29 22.6125V18.1512C29.0037 15.9125 27.5 13.9325 25.3425 13.3362L19.6637 11.7587L15.8687 5.11625C15.7462 4.9025 15.55 4.74125 15.3162 4.66375L13.625 4.1C13.4225 4.03375 13.2125 4 13 4C12.4662 4 11.9637 4.20875 11.5862 4.58625C11.2087 4.96375 11 5.46625 11 6V9.25249L8.69 8.52999L6.8825 5.14125C6.7625 4.915 6.56 4.74375 6.31625 4.66375L4.625 4.1C4.4225 4.03375 4.2125 4 4 4C3.465 4 2.96376 4.20875 2.58626 4.58625C2.20751 4.96375 2.00001 5.46625 2.00001 6V12.5737C1.99626 14.8125 3.50125 16.7925 5.655 17.3887L27.73 23.5762C27.8187 23.6012 27.91 23.6137 28 23.6137V23.6125ZM27 21.2937L6.19125 15.4612C4.89875 15.1037 3.9975 13.9175 4 12.5762L3.99625 5.99875L5.305 6.435L7.1175 9.83249C7.24125 10.0637 7.45125 10.2375 7.70125 10.3162L11.7012 11.5662C12.005 11.6612 12.335 11.6062 12.5912 11.4175C12.8475 11.2287 12.9987 10.93 12.9987 10.6112L12.995 5.9975L14.32 6.43875L18.13 13.1075C18.2612 13.3362 18.4762 13.5037 18.73 13.575L24.8062 15.2625C26.0987 15.62 27 16.8062 26.9975 18.1487V21.2925L27 21.2937Z" fill="#1100FF"/>
</svg>
