<svg width="32" height="32" viewBox="0 0 32 32" fill="none" xmlns="http://www.w3.org/2000/svg">
<path d="M27.1567 26H9.15669C8.60419 26 8.15669 26.4475 8.15669 27C8.15669 27.5525 8.60419 28 9.15669 28H27.1567C27.7092 28 28.1567 27.5525 28.1567 27C28.1567 26.4475 27.7092 26 27.1567 26Z" fill="#1100FF"/>
<path d="M26.1567 12H19.5967L14.3929 6.32375C14.2029 6.1175 13.9367 6 13.6554 6H11.5429C11.3304 6 11.1192 6.03375 10.9179 6.1C10.4104 6.2675 9.99794 6.62125 9.75794 7.09875C9.51669 7.57625 9.47669 8.1175 9.64419 8.62875L10.7679 12H8.62419L6.42419 9.36C6.23419 9.1325 5.95294 9 5.65544 9H3.50794C3.31544 9.0025 3.11544 9.0275 2.92669 9.085C2.41544 9.23875 1.99419 9.5825 1.74044 10.0525C1.48669 10.5225 1.43169 11.0637 1.58544 11.575L3.34794 17.4375C3.98669 19.565 5.90794 20.9963 8.13044 21H30.1567C30.7092 21 31.1567 20.5525 31.1567 20V17C31.1567 14.2425 28.9142 12 26.1567 12ZM29.1567 19H8.13294C6.80044 18.9975 5.64794 18.1388 5.26419 16.8625L3.50169 11H5.18794L7.38794 13.64C7.57794 13.8675 7.85919 14 8.15669 14H12.1567C12.4779 14 12.7804 13.845 12.9679 13.585C13.1554 13.3238 13.2067 12.9887 13.1054 12.6838L11.5442 8H13.2167L18.4192 13.6762C18.6092 13.8825 18.8767 14 19.1567 14H26.1567C27.8104 14 29.1567 15.3463 29.1567 17V19Z" fill="#1100FF"/>
</svg>
