<svg width="32" height="32" viewBox="0 0 32 32" fill="none" xmlns="http://www.w3.org/2000/svg">
<path fill-rule="evenodd" clip-rule="evenodd" d="M22.7304 6.43759C22.7133 6.45888 22.6952 6.47963 22.6762 6.49978L18.7137 10.6873C18.4398 10.9767 18.0201 11.0759 17.6456 10.9397L7.2441 7.15739L5.55696 8.84453L13.542 14.1679C13.7913 14.3341 13.9529 14.6033 13.9825 14.9014C14.012 15.1996 13.9063 15.4952 13.6944 15.7071L10.6944 18.7071C10.5069 18.8946 10.2525 19 9.98732 19H7.40154L5.83398 20.5675L9.53195 21.8149C9.82733 21.9146 10.0594 22.1462 10.1594 22.4415L11.418 26.1551L12.9873 24.5857V22C12.9873 21.7182 13.1062 21.4495 13.3147 21.26L16.3397 18.51C16.5537 18.3154 16.8416 18.223 17.129 18.2568C17.4163 18.2905 17.675 18.4471 17.8382 18.686L23.133 26.44L24.8299 24.7432L21.0475 14.3417C20.911 13.9661 21.0111 13.5453 21.3022 13.2715L25.4575 9.36359C25.8008 8.9935 25.9925 8.50661 25.9925 7.99995C25.9925 7.46814 25.7813 6.95811 25.4052 6.58206C25.0292 6.20601 24.5191 5.99475 23.9873 5.99475C23.528 5.99475 23.0849 6.15234 22.7304 6.43759ZM26.9662 10.6773C27.6253 9.94404 27.9925 8.99093 27.9925 7.99995C27.9925 6.93771 27.5706 5.91897 26.8194 5.16785C26.0683 4.41673 25.0496 3.99475 23.9873 3.99475C22.9251 3.99475 21.9063 4.41673 21.1552 5.16785C21.0994 5.22366 21.0515 5.28455 21.0116 5.34907L17.7122 8.83583L7.32907 5.06016C6.96393 4.92739 6.55495 5.01812 6.28022 5.29285L3.28022 8.29285C3.06837 8.50469 2.96267 8.80036 2.99219 9.09849C3.02171 9.39663 3.18335 9.66582 3.43262 9.83201L11.4177 15.1554L9.57311 17H6.98732C6.72211 17 6.46775 17.1053 6.28022 17.2928L3.28022 20.2928C3.0356 20.5375 2.93479 20.8911 3.01367 21.228C3.09254 21.5648 3.33991 21.8369 3.6677 21.9475L8.424 23.5519L10.0402 28.3209C10.1512 28.6483 10.4234 28.8952 10.76 28.9738C11.0966 29.0524 11.45 28.9515 11.6944 28.7071L14.6944 25.7071C14.882 25.5195 14.9873 25.2652 14.9873 25V22.4423L16.8346 20.763L22.1615 28.5639C22.3293 28.8097 22.598 28.9679 22.8943 28.9956C23.1907 29.0233 23.484 28.9175 23.6944 28.7071L26.6944 25.7071C26.9692 25.4323 27.0599 25.0233 26.9271 24.6582L23.1522 14.2772L26.7357 10.907C26.7646 10.8839 26.7926 10.8589 26.8194 10.8321L26.8944 10.7571C26.92 10.7315 26.9439 10.7049 26.9662 10.6773Z" fill="#1100FF"/>
</svg>
