<svg width="32" height="32" viewBox="0 0 32 32" fill="none" xmlns="http://www.w3.org/2000/svg">
<path d="M19.65 20.5C20.3956 20.5 21 19.8956 21 19.15C21 18.4044 20.3956 17.8 19.65 17.8C18.9044 17.8 18.3 18.4044 18.3 19.15C18.3 19.8956 18.9044 20.5 19.65 20.5Z" fill="#1100FF"/>
<path d="M11.55 20.5C12.2956 20.5 12.9 19.8956 12.9 19.15C12.9 18.4044 12.2956 17.8 11.55 17.8C10.8044 17.8 10.2 18.4044 10.2 19.15C10.2 19.8956 10.8044 20.5 11.55 20.5Z" fill="#1100FF"/>
<path d="M28.2 20.4516C28.1865 17.0856 26.8646 13.9266 24.4751 11.5563C24.3986 11.4798 24.321 11.4044 24.2423 11.3312L27.0368 8.53675C27.3878 8.18575 27.3878 7.61537 27.0368 7.26437C26.6858 6.91337 26.1154 6.91337 25.7644 7.26437L22.8428 10.186C20.7233 8.692 18.1999 7.89212 15.5528 7.9C12.8876 7.909 10.4138 8.76175 8.37975 10.2062L5.43675 7.26325C5.08575 6.91225 4.51538 6.91225 4.16438 7.26325C3.81338 7.61425 3.81338 8.18462 4.16438 8.53562L6.9825 11.3537C4.53338 13.6791 3 16.9765 3 20.6237V23.2C3 24.1922 3.80775 25 4.8 25H26.4C27.3923 25 28.2 24.1922 28.2 23.2V20.4516ZM4.8 23.2011V20.6237C4.8 17.2071 6.36375 14.1482 8.805 12.1424C8.84662 12.1143 8.88713 12.0816 8.92425 12.0445C10.7535 10.5842 13.0575 9.709 15.5573 9.7C15.5719 9.7 15.5854 9.7 15.6 9.7C18.0795 9.7 20.4319 10.5314 22.341 12.0625C22.3534 12.0726 22.3669 12.0827 22.3792 12.0929C22.665 12.3246 22.9417 12.571 23.2061 12.8342C25.2536 14.866 26.3876 17.5739 26.3989 20.4618V23.2H4.8V23.2011Z" fill="#1100FF"/>
</svg>
