<svg width="32" height="32" viewBox="0 0 32 32" fill="none" xmlns="http://www.w3.org/2000/svg">
<path fill-rule="evenodd" clip-rule="evenodd" d="M15.6154 3.07692C15.8616 2.97436 16.1385 2.97436 16.3847 3.07692L28.3847 8.07692C28.8023 8.25094 29.0511 8.68369 28.9913 9.13216L26.9913 24.1322C26.9475 24.4607 26.7437 24.7462 26.4473 24.8944L16.4473 29.8944C16.1657 30.0352 15.8344 30.0352 15.5528 29.8944L5.55284 24.8944C5.25638 24.7462 5.05263 24.4607 5.00882 24.1322L3.00882 9.13216C2.94903 8.68369 3.1978 8.25094 3.61543 8.07692L15.6154 3.07692ZM5.09264 9.62809L6.92124 23.3426L16.0001 27.882L25.0789 23.3426L26.9075 9.62809L16.0001 5.08333L5.09264 9.62809ZM16.0001 10C16.3788 10 16.7251 10.214 16.8945 10.5528L21.3945 19.5528C21.6415 20.0468 21.4412 20.6474 20.9473 20.8944C20.4533 21.1414 19.8526 20.9412 19.6056 20.4472L18.5508 18.3375H13.4493L12.3945 20.4472C12.1475 20.9412 11.5468 21.1414 11.0528 20.8944C10.5589 20.6474 10.3586 20.0468 10.6056 19.5528L15.1056 10.5528C15.275 10.214 15.6213 10 16.0001 10ZM14.4493 16.3375H17.5508L16.0001 13.2361L14.4493 16.3375Z" fill="#1100FF"/>
</svg>
