<svg width="32" height="32" viewBox="0 0 32 32" fill="none" xmlns="http://www.w3.org/2000/svg">
<path fill-rule="evenodd" clip-rule="evenodd" d="M16 5C9.92487 5 5 9.92487 5 16C5 22.0751 9.92487 27 16 27C22.0751 27 27 22.0751 27 16C27 9.92487 22.0751 5 16 5ZM3 16C3 8.8203 8.8203 3 16 3C23.1797 3 29 8.8203 29 16C29 23.1797 23.1797 29 16 29C8.8203 29 3 23.1797 3 16Z" fill="#1100FF"/>
<path fill-rule="evenodd" clip-rule="evenodd" d="M15.6633 3.05835C16.1833 2.8725 16.7556 3.14344 16.9415 3.66352L21.529 16.501C21.7148 17.0211 21.4439 17.5934 20.9238 17.7792C20.4037 17.9651 19.8315 17.6941 19.6456 17.174L15.0581 4.33654C14.8723 3.81646 15.1432 3.2442 15.6633 3.05835Z" fill="#1100FF"/>
<path fill-rule="evenodd" clip-rule="evenodd" d="M4.62879 9.82014C4.72812 9.27686 5.24905 8.91697 5.79233 9.0163L19.1923 11.4663C19.7356 11.5656 20.0955 12.0866 19.9962 12.6298C19.8968 13.1731 19.3759 13.533 18.8326 13.4337L5.43262 10.9837C4.88935 10.8844 4.52946 10.3634 4.62879 9.82014Z" fill="#1100FF"/>
<path fill-rule="evenodd" clip-rule="evenodd" d="M15.0848 10.8504C15.5057 11.208 15.557 11.8391 15.1994 12.26L6.37442 22.6475C6.01684 23.0684 5.38576 23.1197 4.96486 22.7621C4.54397 22.4045 4.49264 21.7734 4.85023 21.3525L13.6752 10.965C14.0328 10.5442 14.6639 10.4928 15.0848 10.8504Z" fill="#1100FF"/>
<path fill-rule="evenodd" clip-rule="evenodd" d="M11.0759 14.2208C11.5959 14.035 12.1682 14.3059 12.3541 14.826L16.9416 27.6635C17.1274 28.1836 16.8565 28.7558 16.3364 28.9417C15.8163 29.1275 15.2441 28.8566 15.0582 28.3365L10.4707 15.499C10.2849 14.9789 10.5558 14.4067 11.0759 14.2208Z" fill="#1100FF"/>
<path fill-rule="evenodd" clip-rule="evenodd" d="M12.0038 19.3701C12.1031 18.8268 12.6241 18.467 13.1673 18.5663L26.5673 21.0163C27.1106 21.1156 27.4705 21.6366 27.3712 22.1798C27.2718 22.7231 26.7509 23.083 26.2076 22.9837L12.8076 20.5337C12.2643 20.4343 11.9045 19.9134 12.0038 19.3701Z" fill="#1100FF"/>
<path fill-rule="evenodd" clip-rule="evenodd" d="M27.035 9.23792C27.4559 9.59551 27.5072 10.2266 27.1496 10.6475L18.3246 21.035C17.967 21.4559 17.336 21.5072 16.9151 21.1496C16.4942 20.792 16.4428 20.161 16.8004 19.7401L25.6254 9.35256C25.983 8.93166 26.6141 8.88034 27.035 9.23792Z" fill="#1100FF"/>
</svg>
