<svg width="32" height="32" viewBox="0 0 32 32" fill="none" xmlns="http://www.w3.org/2000/svg">
<path d="M17.6569 5.57909C17.5378 5.57909 17.4174 5.55776 17.3007 5.51135C16.7894 5.31187 16.5337 4.73102 16.7311 4.21415C17.4633 2.29093 19.3249 1 21.3627 1H21.3689C21.9174 1 22.3617 1.45038 22.3605 2.00489C22.3605 2.5594 21.915 3.00727 21.3677 3.00727C21.3677 3.00727 21.3652 3.00727 21.3627 3.00727C20.139 3.00727 19.0233 3.78258 18.5827 4.93676C18.4313 5.33571 18.0553 5.58035 17.6557 5.58035L17.6569 5.57909Z" fill="#1100FF"/>
<path d="M20.8712 28.6H11.9356C9.90401 28.6 7.62542 27.0042 5.8383 24.332C4.03504 21.6335 3 18.25 3 15.0509C3.00124 10.3476 6.78771 6.52251 11.4392 6.52251H11.4417C13.2338 6.52251 14.9663 7.09709 16.4022 8.15342C19.8573 5.60544 24.7433 6.06836 27.6573 9.35653C27.7777 9.49327 27.8956 9.63378 28.0061 9.77555C28.1823 10.0014 28.253 10.2937 28.2022 10.5759C28.1513 10.8582 27.9825 11.1066 27.7392 11.2547C25.3961 12.6848 24.6403 15.776 26.0551 18.1446C26.5404 18.9576 27.2403 19.6112 28.0805 20.0365C28.5447 20.2711 28.7507 20.8281 28.5546 21.3136C26.8184 25.6029 23.6599 28.5987 20.8725 28.5987L20.8712 28.6ZM11.4392 8.52978C7.88108 8.52978 4.98693 11.4541 4.98569 15.0509C4.98569 21.3098 9.25493 26.5927 11.9356 26.5927H20.8712C22.6596 26.5927 24.9345 24.386 26.3704 21.3437C25.5562 20.7792 24.8699 20.0453 24.3549 19.1834C22.5851 16.2189 23.2417 12.4477 25.7436 10.2498C23.3298 7.99911 19.5607 7.93136 17.0661 10.1908C16.6889 10.532 16.1192 10.532 15.7419 10.1908C14.558 9.12067 13.0302 8.52978 11.4417 8.52978H11.4392Z" fill="#1100FF"/>
</svg>
