<svg width="32" height="32" viewBox="0 0 32 32" fill="none" xmlns="http://www.w3.org/2000/svg">
<path fill-rule="evenodd" clip-rule="evenodd" d="M16 4.99329C13.6198 4.99329 11.3038 5.76532 9.39974 7.19348C7.49564 8.62165 6.10613 10.6289 5.43982 12.9139C4.7735 15.1989 4.86632 17.6384 5.70435 19.8662C6.54237 22.094 8.08038 23.9898 10.0875 25.2692C10.5532 25.566 10.6901 26.1842 10.3933 26.65C10.0964 27.1157 9.47822 27.2526 9.0125 26.9557C6.64045 25.4438 4.8228 23.2032 3.83241 20.5704C2.84202 17.9375 2.73232 15.0545 3.51979 12.354C4.30725 9.65355 5.94939 7.28135 8.19969 5.59352C10.45 3.90568 13.1871 2.99329 16 2.99329C18.8129 2.99329 21.55 3.90568 23.8003 5.59352C26.0506 7.28135 27.6928 9.65355 28.4802 12.354C29.2677 15.0545 29.158 17.9375 28.1676 20.5704C27.1772 23.2032 25.3596 25.4438 22.9875 26.9557C22.5218 27.2526 21.9036 27.1157 21.6067 26.65C21.3099 26.1842 21.4468 25.566 21.9125 25.2692C23.9196 23.9898 25.4576 22.094 26.2957 19.8662C27.1337 17.6384 27.2265 15.1989 26.5602 12.9139C25.8939 10.6289 24.5044 8.62165 22.6003 7.19348C20.6962 5.76532 18.3802 4.99329 16 4.99329ZM16 9.01709C14.8631 9.01709 13.7433 9.29401 12.7374 9.82392C11.7315 10.3538 10.8698 11.1208 10.2269 12.0584C9.58393 12.9961 9.17903 14.0762 9.04721 15.2055C8.91539 16.3347 9.06061 17.4791 9.47031 18.5396C9.66934 19.0548 9.41304 19.6338 8.89786 19.8328C8.38269 20.0318 7.80371 19.7755 7.60469 19.2603C7.07793 17.8968 6.89122 16.4255 7.0607 14.9736C7.23019 13.5217 7.75076 12.1329 8.57742 10.9274C9.40408 9.72181 10.5119 8.73575 11.8052 8.05444C13.0985 7.37314 14.5382 7.01709 16 7.01709C17.4618 7.01709 18.9015 7.37313 20.1948 8.05444C21.4881 8.73575 22.5959 9.72181 23.4226 10.9274C24.2492 12.1329 24.7698 13.5217 24.9393 14.9736C25.1088 16.4255 24.9221 17.8968 24.3953 19.2603C24.1963 19.7755 23.6173 20.0318 23.1021 19.8328C22.587 19.6338 22.3307 19.0548 22.5297 18.5396C22.9394 17.4791 23.0846 16.3347 22.9528 15.2055C22.821 14.0762 22.4161 12.9961 21.7731 12.0584C21.1302 11.1208 20.2685 10.3538 19.2626 9.82392C18.2567 9.29401 17.1369 9.01709 16 9.01709ZM16 13C14.8954 13 14 13.8954 14 15C14 16.1046 14.8954 17 16 17C17.1046 17 18 16.1046 18 15C18 13.8954 17.1046 13 16 13ZM19.1559 17.458C19.6849 16.7798 20 15.9267 20 15C20 12.7909 18.2091 11 16 11C13.7909 11 12 12.7909 12 15C12 15.9267 12.3151 16.7797 12.844 17.4579C12.5704 17.6294 12.3255 17.8443 12.1195 18.095C11.838 18.4375 11.6359 18.838 11.5277 19.2679C11.4195 19.6978 11.408 20.1464 11.4939 20.5813L11.4943 20.5836L12.6939 26.5813L12.6941 26.5825C12.8289 27.2637 13.1959 27.8771 13.7325 28.3179C14.2693 28.759 14.9426 29.0001 15.6374 29H16.3622M17.5624 19C17.7102 19 17.8563 19.0327 17.9899 19.0958C18.1235 19.1589 18.2415 19.2509 18.3353 19.365C18.4292 19.4792 18.4965 19.6127 18.5326 19.756C18.5686 19.899 18.5725 20.0481 18.544 20.1928L17.3443 26.1914L17.3439 26.1938C17.299 26.421 17.1766 26.6256 16.9977 26.7726C16.8187 26.9197 16.5942 27 16.3626 27H15.6374C15.4058 27 15.1811 26.9197 15.0022 26.7726C14.8232 26.6256 14.7008 26.421 14.656 26.1938L13.456 20.1938C13.4275 20.0491 13.4313 19.899 13.4672 19.756C13.5033 19.6127 13.5707 19.4792 13.6645 19.365C13.7583 19.2509 13.8763 19.1589 14.0099 19.0958C14.1435 19.0327 14.2894 19 14.4372 19H17.5624ZM19.1559 17.458C19.4295 17.6294 19.6743 17.8444 19.8804 18.095C20.1618 18.4375 20.3639 18.838 20.4721 19.2679C20.5803 19.6978 20.5918 20.1464 20.506 20.5813L20.5055 20.5836L19.306 26.5813L19.3057 26.5825C19.1709 27.2637 18.8039 27.8771 18.2673 28.3179C17.7305 28.759 17.057 29.0001 16.3622 29" fill="#1100FF"/>
</svg>
