<svg width="32" height="32" viewBox="0 0 32 32" fill="none" xmlns="http://www.w3.org/2000/svg">
<path fill-rule="evenodd" clip-rule="evenodd" d="M19.5086 4.139C19.9841 4.41987 20.1419 5.03305 19.8611 5.50858L11.3021 20H17.8125C18.3648 20 18.8125 20.4478 18.8125 21C18.8125 21.5523 18.3648 22 17.8125 22H9.56687C9.55504 22.0002 9.54319 22.0002 9.53134 22H3C2.44772 22 2 21.5523 2 21C2 20.4478 2.44772 20 3 20H8.97928L14.8398 10.0775L12.1392 5.50891C11.8581 5.03348 12.0157 4.42024 12.4911 4.13919C12.9666 3.85815 13.5798 4.01573 13.8608 4.49116L16.0009 8.1115L18.139 4.49149C18.4199 4.01595 19.0331 3.85814 19.5086 4.139ZM17.8162 13.1516C18.2917 12.8706 18.9049 13.0283 19.1859 13.5037L23.0249 20H29C29.5522 20 30 20.4478 30 21C30 21.5523 29.5522 22 29 22H24.2068L26.8609 26.4912C27.1418 26.9667 26.9842 27.5799 26.5087 27.8609C26.0332 28.1419 25.42 27.9842 25.139 27.5087L21.6365 21.5818C21.6025 21.5343 21.5725 21.4837 21.5471 21.4305L17.464 14.5212C17.1831 14.0458 17.3407 13.4326 17.8162 13.1516ZM7.69804 24.1402C8.17292 24.4221 8.32932 25.0357 8.04735 25.5106L6.85985 27.5106C6.57789 27.9855 5.96435 28.1419 5.48946 27.8599C5.01458 27.5779 4.85818 26.9644 5.14015 26.4895L6.32765 24.4895C6.60961 24.0146 7.22315 23.8582 7.69804 24.1402Z" fill="#1100FF"/>
</svg>
