<svg width="32" height="32" viewBox="0 0 32 32" fill="none" xmlns="http://www.w3.org/2000/svg">
<path d="M26 4H6C4.8975 4 4 4.8975 4 6V26C4 27.1025 4.8975 28 6 28H26C27.1025 28 28 27.1025 28 26V6C28 4.8975 27.1025 4 26 4ZM6 6H26V19H22.4088C21.88 19 21.3825 19.205 21.005 19.58L18.5875 22L13.42 22.005L10.9938 19.5787C10.6238 19.2112 10.1137 19 9.595 19H6V6ZM6 26V20.9988L9.58 20.995L12.0063 23.4212C12.3763 23.7887 12.8862 24 13.405 24H18.5913C19.12 24 19.6175 23.795 19.995 23.42L22.4125 21H26V26H6Z" fill="#1100FF"/>
<path d="M15.2925 19.7075C15.2925 19.7075 15.2975 19.7125 15.3 19.715C15.3212 19.735 15.3425 19.755 15.365 19.7738C15.3775 19.7838 15.39 19.7925 15.4025 19.8013C15.4163 19.8113 15.43 19.8225 15.4438 19.8313C15.4588 19.8413 15.4738 19.8488 15.4888 19.8588C15.5025 19.8663 15.515 19.875 15.5288 19.8825C15.5438 19.89 15.56 19.8975 15.575 19.905C15.5887 19.9113 15.6025 19.9187 15.6175 19.925C15.6325 19.9313 15.6475 19.9362 15.6625 19.9412C15.6788 19.9475 15.6938 19.9525 15.71 19.9575C15.725 19.9625 15.74 19.965 15.755 19.9688C15.7712 19.9725 15.7875 19.9775 15.805 19.9812C15.8225 19.985 15.84 19.9863 15.8575 19.9888C15.8725 19.9913 15.8862 19.9937 15.9012 19.995C15.9338 19.9987 15.9675 20 16 20C16.0325 20 16.0662 19.9987 16.0988 19.995C16.1138 19.9937 16.1287 19.9913 16.1438 19.9888C16.1613 19.9863 16.1788 19.9837 16.1962 19.9812C16.2137 19.9775 16.23 19.9738 16.2463 19.9688C16.2613 19.965 16.2762 19.9613 16.2913 19.9575C16.3075 19.9525 16.3225 19.9462 16.3387 19.9412C16.3538 19.9362 16.3687 19.9313 16.3837 19.925C16.3988 19.9187 16.4125 19.9113 16.4263 19.905C16.4413 19.8975 16.4575 19.8912 16.4725 19.8825C16.4862 19.875 16.4987 19.8675 16.5112 19.86C16.5262 19.8512 16.5425 19.8425 16.5575 19.8325C16.57 19.8238 16.5825 19.8138 16.595 19.805C16.6088 19.795 16.6225 19.785 16.6362 19.775C16.6537 19.76 16.6713 19.7438 16.6875 19.7288C16.695 19.7225 16.7013 19.7163 16.7087 19.71L20.9463 15.4725C21.3363 15.0825 21.3363 14.4488 20.9463 14.0588C20.5563 13.6687 19.9225 13.6687 19.5325 14.0588L17.0025 16.5887V9C17.0025 8.4475 16.555 8 16.0025 8C15.45 8 15.0025 8.4475 15.0025 9V16.5863L12.4725 14.0562C12.0825 13.6662 11.4488 13.6662 11.0588 14.0562C10.6688 14.4462 10.6688 15.08 11.0588 15.47L15.2963 19.7075H15.2925Z" fill="#1100FF"/>
</svg>
