<svg width="32" height="32" viewBox="0 0 32 32" fill="none" xmlns="http://www.w3.org/2000/svg">
<path fill-rule="evenodd" clip-rule="evenodd" d="M3.9751 5.46252C4.52738 5.46252 4.9751 5.91024 4.9751 6.46252V11.4625H9.9751C10.5274 11.4625 10.9751 11.9102 10.9751 12.4625C10.9751 13.0148 10.5274 13.4625 9.9751 13.4625H3.9751C3.42281 13.4625 2.9751 13.0148 2.9751 12.4625V6.46252C2.9751 5.91024 3.42281 5.46252 3.9751 5.46252Z" fill="#1100FF"/>
<path fill-rule="evenodd" clip-rule="evenodd" d="M11.4086 4.91539C12.8642 4.31187 14.4244 4.00122 16.0001 4.00122C17.5758 4.00122 19.136 4.31187 20.5916 4.91539C22.0471 5.51891 23.3693 6.40347 24.4827 7.51846C24.873 7.90927 24.8725 8.54244 24.4817 8.93268C24.0909 9.32292 23.4577 9.32245 23.0675 8.93164C22.1399 8.00268 21.0382 7.2657 19.8255 6.76287C18.6128 6.26004 17.3129 6.00122 16.0001 6.00122C14.6873 6.00122 13.3874 6.26004 12.1747 6.76287C10.962 7.2657 9.86034 8.00268 8.93272 8.93164L8.93116 8.9332L4.68116 13.1707C4.29006 13.5606 3.6569 13.5597 3.26695 13.1686C2.877 12.7775 2.87793 12.1444 3.26903 11.7544L7.51748 7.51846L7.51826 7.51767C8.63147 6.40305 9.95345 5.51877 11.4086 4.91539Z" fill="#1100FF"/>
<path fill-rule="evenodd" clip-rule="evenodd" d="M21.0249 19.5375C21.0249 18.9852 21.4726 18.5375 22.0249 18.5375H28.0249C28.5772 18.5375 29.0249 18.9852 29.0249 19.5375V25.5375C29.0249 26.0898 28.5772 26.5375 28.0249 26.5375C27.4726 26.5375 27.0249 26.0898 27.0249 25.5375V20.5375H22.0249C21.4726 20.5375 21.0249 20.0898 21.0249 19.5375Z" fill="#1100FF"/>
<path fill-rule="evenodd" clip-rule="evenodd" d="M28.7332 18.8314C29.1232 19.2225 29.1223 19.8557 28.7312 20.2456L24.4827 24.4816L24.482 24.4823C23.3688 25.5969 22.0468 26.4813 20.5916 27.0846C19.136 27.6882 17.5758 27.9988 16.0001 27.9988C14.4244 27.9988 12.8642 27.6882 11.4086 27.0846C9.95311 26.4811 8.63084 25.5966 7.51748 24.4816C7.12724 24.0908 7.1277 23.4576 7.51851 23.0674C7.90932 22.6771 8.54248 22.6776 8.93272 23.0684C9.86033 23.9974 10.962 24.7343 12.1747 25.2372C13.3874 25.74 14.6873 25.9988 16.0001 25.9988C17.3129 25.9988 18.6128 25.74 19.8255 25.2372C21.0382 24.7343 22.1399 23.9974 23.0675 23.0684L27.319 18.8293C27.7101 18.4394 28.3433 18.4403 28.7332 18.8314Z" fill="#1100FF"/>
</svg>
