<svg width="32" height="32" viewBox="0 0 32 32" fill="none" xmlns="http://www.w3.org/2000/svg">
<path fill-rule="evenodd" clip-rule="evenodd" d="M15.2929 19.2929C15.6834 18.9024 16.3166 18.9024 16.7071 19.2929L20.2446 22.8304C20.6351 23.2209 20.6351 23.8541 20.2446 24.2446C19.8541 24.6351 19.2209 24.6351 18.8304 24.2446L16 21.4142L13.1696 24.2446C12.7791 24.6351 12.1459 24.6351 11.7554 24.2446C11.3649 23.8541 11.3649 23.2209 11.7554 22.8304L15.2929 19.2929Z" fill="#1100FF"/>
<path fill-rule="evenodd" clip-rule="evenodd" d="M16 19C16.5523 19 17 19.4477 17 20V29C17 29.5523 16.5523 30 16 30C15.4477 30 15 29.5523 15 29V20C15 19.4477 15.4477 19 16 19Z" fill="#1100FF"/>
<path fill-rule="evenodd" clip-rule="evenodd" d="M11.7554 7.75539C12.1459 7.36487 12.7791 7.36487 13.1696 7.75539L16 10.5858L18.8304 7.75539C19.2209 7.36487 19.8541 7.36487 20.2446 7.75539C20.6351 8.14592 20.6351 8.77908 20.2446 9.16961L16.7071 12.7071C16.3166 13.0976 15.6834 13.0976 15.2929 12.7071L11.7554 9.16961C11.3649 8.77908 11.3649 8.14592 11.7554 7.75539Z" fill="#1100FF"/>
<path fill-rule="evenodd" clip-rule="evenodd" d="M16 2C16.5523 2 17 2.44772 17 3V12C17 12.5523 16.5523 13 16 13C15.4477 13 15 12.5523 15 12V3C15 2.44772 15.4477 2 16 2Z" fill="#1100FF"/>
<path fill-rule="evenodd" clip-rule="evenodd" d="M7.75539 11.7554C8.14592 11.3649 8.77908 11.3649 9.16961 11.7554L12.7071 15.2929C13.0976 15.6834 13.0976 16.3166 12.7071 16.7071L9.16961 20.2446C8.77908 20.6351 8.14592 20.6351 7.75539 20.2446C7.36487 19.8541 7.36487 19.2209 7.75539 18.8304L10.5858 16L7.75539 13.1696C7.36487 12.7791 7.36487 12.1459 7.75539 11.7554Z" fill="#1100FF"/>
<path fill-rule="evenodd" clip-rule="evenodd" d="M2 16C2 15.4477 2.44772 15 3 15H12C12.5523 15 13 15.4477 13 16C13 16.5523 12.5523 17 12 17H3C2.44772 17 2 16.5523 2 16Z" fill="#1100FF"/>
<path fill-rule="evenodd" clip-rule="evenodd" d="M24.2446 11.7554C24.6351 12.1459 24.6351 12.7791 24.2446 13.1696L21.4142 16L24.2446 18.8304C24.6351 19.2209 24.6351 19.8541 24.2446 20.2446C23.8541 20.6351 23.2209 20.6351 22.8304 20.2446L19.2929 16.7071C18.9024 16.3166 18.9024 15.6834 19.2929 15.2929L22.8304 11.7554C23.2209 11.3649 23.8541 11.3649 24.2446 11.7554Z" fill="#1100FF"/>
<path fill-rule="evenodd" clip-rule="evenodd" d="M19 16C19 15.4477 19.4477 15 20 15H29C29.5523 15 30 15.4477 30 16C30 16.5523 29.5523 17 29 17H20C19.4477 17 19 16.5523 19 16Z" fill="#1100FF"/>
</svg>
