<svg width="32" height="32" viewBox="0 0 32 32" fill="none" xmlns="http://www.w3.org/2000/svg">
<path fill-rule="evenodd" clip-rule="evenodd" d="M16 5C9.92487 5 5 9.92487 5 16C5 22.0751 9.92487 27 16 27C22.0751 27 27 22.0751 27 16C27 9.92487 22.0751 5 16 5ZM3 16C3 8.8203 8.8203 3 16 3C23.1797 3 29 8.8203 29 16C29 23.1797 23.1797 29 16 29C8.8203 29 3 23.1797 3 16Z" fill="#1100FF"/>
<path fill-rule="evenodd" clip-rule="evenodd" d="M11.0553 16.0554C11.4459 15.6649 12.079 15.6649 12.4696 16.0554L16 19.5858L19.5303 16.0554C19.9209 15.6649 20.554 15.6649 20.9446 16.0554C21.3351 16.4459 21.3351 17.0791 20.9446 17.4696L16.7071 21.7071C16.3165 22.0976 15.6834 22.0976 15.2928 21.7071L11.0553 17.4696C10.6648 17.0791 10.6648 16.4459 11.0553 16.0554Z" fill="#1100FF"/>
<path fill-rule="evenodd" clip-rule="evenodd" d="M16 10C16.5523 10 17 10.4477 17 11V21C17 21.5523 16.5523 22 16 22C15.4477 22 15 21.5523 15 21V11C15 10.4477 15.4477 10 16 10Z" fill="#1100FF"/>
</svg>
