<svg width="32" height="32" viewBox="0 0 32 32" fill="none" xmlns="http://www.w3.org/2000/svg">
<path fill-rule="evenodd" clip-rule="evenodd" d="M11.7553 24.7554C12.1458 24.3649 12.779 24.3649 13.1695 24.7554L15.9999 27.5858L18.8303 24.7554C19.2208 24.3649 19.854 24.3649 20.2445 24.7554C20.635 25.1459 20.635 25.7791 20.2445 26.1696L16.707 29.7071C16.3165 30.0977 15.6833 30.0977 15.2928 29.7071L11.7553 26.1696C11.3648 25.7791 11.3648 25.1459 11.7553 24.7554Z" fill="#1100FF"/>
<path fill-rule="evenodd" clip-rule="evenodd" d="M16 19C16.5523 19 17 19.4477 17 20V29C17 29.5523 16.5523 30 16 30C15.4477 30 15 29.5523 15 29V20C15 19.4477 15.4477 19 16 19Z" fill="#1100FF"/>
<path fill-rule="evenodd" clip-rule="evenodd" d="M15.2928 2.29289C15.6833 1.90237 16.3165 1.90237 16.707 2.29289L20.2445 5.83039C20.635 6.22092 20.635 6.85408 20.2445 7.24461C19.854 7.63513 19.2208 7.63513 18.8303 7.24461L15.9999 4.41421L13.1695 7.24461C12.779 7.63513 12.1458 7.63513 11.7553 7.24461C11.3648 6.85408 11.3648 6.22092 11.7553 5.83039L15.2928 2.29289Z" fill="#1100FF"/>
<path fill-rule="evenodd" clip-rule="evenodd" d="M16 2C16.5523 2 17 2.44772 17 3V12C17 12.5523 16.5523 13 16 13C15.4477 13 15 12.5523 15 12V3C15 2.44772 15.4477 2 16 2Z" fill="#1100FF"/>
<path fill-rule="evenodd" clip-rule="evenodd" d="M7.24461 11.7554C7.63513 12.1459 7.63513 12.7791 7.24461 13.1696L4.41421 16L7.24461 18.8304C7.63513 19.2209 7.63513 19.8541 7.24461 20.2446C6.85408 20.6352 6.22092 20.6352 5.83039 20.2446L2.29289 16.7071C1.90237 16.3166 1.90237 15.6834 2.29289 15.2929L5.83039 11.7554C6.22092 11.3649 6.85408 11.3649 7.24461 11.7554Z" fill="#1100FF"/>
<path fill-rule="evenodd" clip-rule="evenodd" d="M2 16C2 15.4477 2.44772 15 3 15H12C12.5523 15 13 15.4477 13 16C13 16.5523 12.5523 17 12 17H3C2.44772 17 2 16.5523 2 16Z" fill="#1100FF"/>
<path fill-rule="evenodd" clip-rule="evenodd" d="M24.7553 11.7554C25.1458 11.3649 25.779 11.3649 26.1695 11.7554L29.707 15.2929C30.0975 15.6834 30.0975 16.3166 29.707 16.7071L26.1695 20.2446C25.779 20.6352 25.1458 20.6352 24.7553 20.2446C24.3648 19.8541 24.3648 19.2209 24.7553 18.8304L27.5857 16L24.7553 13.1696C24.3648 12.7791 24.3648 12.1459 24.7553 11.7554Z" fill="#1100FF"/>
<path fill-rule="evenodd" clip-rule="evenodd" d="M19 16C19 15.4477 19.4477 15 20 15H29C29.5523 15 30 15.4477 30 16C30 16.5523 29.5523 17 29 17H20C19.4477 17 19 16.5523 19 16Z" fill="#1100FF"/>
</svg>
