<svg width="32" height="32" viewBox="0 0 32 32" fill="none" xmlns="http://www.w3.org/2000/svg">
<path fill-rule="evenodd" clip-rule="evenodd" d="M19 13C19 12.4477 19.4477 12 20 12H30C30.5523 12 31 12.4477 31 13C31 13.5523 30.5523 14 30 14H20C19.4477 14 19 13.5523 19 13Z" fill="#1100FF"/>
<path fill-rule="evenodd" clip-rule="evenodd" d="M19 17C19 16.4477 19.4477 16 20 16H30C30.5523 16 31 16.4477 31 17C31 17.5523 30.5523 18 30 18H20C19.4477 18 19 17.5523 19 17Z" fill="#1100FF"/>
<path fill-rule="evenodd" clip-rule="evenodd" d="M19 21C19 20.4477 19.4477 20 20 20H30C30.5523 20 31 20.4477 31 21C31 21.5523 30.5523 22 30 22H20C19.4477 22 19 21.5523 19 21Z" fill="#1100FF"/>
<path fill-rule="evenodd" clip-rule="evenodd" d="M8 25C8 24.4477 8.44772 24 9 24H30C30.5523 24 31 24.4477 31 25C31 25.5523 30.5523 26 30 26H9C8.44772 26 8 25.5523 8 25Z" fill="#1100FF"/>
<path fill-rule="evenodd" clip-rule="evenodd" d="M10.9874 8.99953C10.9877 9.55181 10.5402 9.99974 9.98787 10C9.05097 10.0004 8.13305 10.2641 7.33874 10.7609C6.54444 11.2578 5.9057 11.9678 5.49534 12.81C5.08499 13.6523 4.91954 14.5929 5.01784 15.5246C5.11614 16.4563 5.47424 17.3417 6.05132 18.0798C6.6284 18.8178 7.40124 19.3789 8.28174 19.699C9.16225 20.0192 10.115 20.0855 11.0313 19.8904C11.9477 19.6953 12.7908 19.2467 13.4646 18.5957C14.1383 17.9447 14.6156 17.1175 14.842 16.2083C14.9755 15.6724 15.5181 15.3462 16.0541 15.4796C16.59 15.6131 16.9162 16.1558 16.7828 16.6917C16.4658 17.9644 15.7976 19.1225 14.8543 20.034C13.911 20.9454 12.7307 21.5735 11.4478 21.8466C10.1649 22.1197 8.83105 22.0269 7.59835 21.5787C6.36564 21.1305 5.28367 20.345 4.47575 19.3117C3.66784 18.2784 3.16649 17.0389 3.02887 15.7344C2.89125 14.43 3.12289 13.1132 3.69739 11.9341C4.27188 10.7549 5.16611 9.76089 6.27815 9.06532C7.39018 8.36976 8.67527 8.00062 9.98692 8C10.5392 7.99974 10.9871 8.44724 10.9874 8.99953Z" fill="#1100FF"/>
<path fill-rule="evenodd" clip-rule="evenodd" d="M9.9873 13.3125C10.5396 13.3125 10.9873 13.7602 10.9873 14.3125V20.9875C10.9873 21.5398 10.5396 21.9875 9.9873 21.9875C9.43502 21.9875 8.9873 21.5398 8.9873 20.9875V14.3125C8.9873 13.7602 9.43502 13.3125 9.9873 13.3125Z" fill="#1100FF"/>
<path fill-rule="evenodd" clip-rule="evenodd" d="M5.98532 5.5C6.17351 5.49958 6.35799 5.55227 6.51757 5.652L14.2401 10.4786C14.5442 10.4267 14.8272 10.2817 15.0482 10.0607C15.3295 9.77936 15.4876 9.39783 15.4876 9C15.4876 8.60217 15.3295 8.22064 15.0482 7.93934C14.7669 7.65804 14.3854 7.5 13.9876 7.5C13.4353 7.5 12.9876 7.05228 12.9876 6.5C12.9876 5.94772 13.4353 5.5 13.9876 5.5C14.9158 5.5 15.8061 5.86875 16.4624 6.52513C17.1188 7.1815 17.4876 8.07174 17.4876 9C17.4876 9.92826 17.1188 10.8185 16.4624 11.4749C15.8061 12.1313 14.9158 12.5 13.9876 12.5C13.8001 12.5 13.6165 12.4473 13.4576 12.348L5.73623 7.52216C5.47235 7.56804 5.22392 7.68407 5.01805 7.8602C4.74721 8.0919 4.56773 8.41248 4.51177 8.76449C4.45581 9.1165 4.52703 9.47693 4.71266 9.7812C4.89829 10.0855 5.1862 10.3137 5.52481 10.425C6.04948 10.5974 6.33502 11.1626 6.16257 11.6872C5.99012 12.2119 5.425 12.4974 4.90032 12.325C4.11024 12.0653 3.43844 11.5328 3.00531 10.8228C2.57217 10.1128 2.406 9.27183 2.53658 8.45048C2.66715 7.62913 3.08593 6.88112 3.71789 6.34047C4.34984 5.79982 5.15366 5.50187 5.98532 5.5Z" fill="#1100FF"/>
</svg>
