<svg width="32" height="32" viewBox="0 0 32 32" fill="none" xmlns="http://www.w3.org/2000/svg">
<path fill-rule="evenodd" clip-rule="evenodd" d="M2.0127 7.00006C2.0127 6.44778 2.46041 6.00006 3.0127 6.00006H5.0127C5.56498 6.00006 6.0127 6.44778 6.0127 7.00006C6.0127 7.55235 5.56498 8.00006 5.0127 8.00006H3.0127C2.46041 8.00006 2.0127 7.55235 2.0127 7.00006Z" fill="#1100FF"/>
<path fill-rule="evenodd" clip-rule="evenodd" d="M14.0127 7.00006C14.0127 6.44778 14.4604 6.00006 15.0127 6.00006H17.0127C17.565 6.00006 18.0127 6.44778 18.0127 7.00006C18.0127 7.55235 17.565 8.00006 17.0127 8.00006H15.0127C14.4604 8.00006 14.0127 7.55235 14.0127 7.00006Z" fill="#1100FF"/>
<path fill-rule="evenodd" clip-rule="evenodd" d="M2.0127 17.0001C2.0127 16.4478 2.46041 16.0001 3.0127 16.0001H6.0127C6.56498 16.0001 7.0127 16.4478 7.0127 17.0001C7.0127 17.5523 6.56498 18.0001 6.0127 18.0001H3.0127C2.46041 18.0001 2.0127 17.5523 2.0127 17.0001Z" fill="#1100FF"/>
<path fill-rule="evenodd" clip-rule="evenodd" d="M13.0127 17.0001C13.0127 16.4478 13.4604 16.0001 14.0127 16.0001H17.0127C17.565 16.0001 18.0127 16.4478 18.0127 17.0001C18.0127 17.5523 17.565 18.0001 17.0127 18.0001H14.0127C13.4604 18.0001 13.0127 17.5523 13.0127 17.0001Z" fill="#1100FF"/>
<path fill-rule="evenodd" clip-rule="evenodd" d="M20 13.0001C20 12.4478 20.4477 12.0001 21 12.0001H30C30.5523 12.0001 31 12.4478 31 13.0001C31 13.5523 30.5523 14.0001 30 14.0001H21C20.4477 14.0001 20 13.5523 20 13.0001Z" fill="#1100FF"/>
<path fill-rule="evenodd" clip-rule="evenodd" d="M20.0127 17.0001C20.0127 16.4478 20.4604 16.0001 21.0127 16.0001H30.0127C30.565 16.0001 31.0127 16.4478 31.0127 17.0001C31.0127 17.5523 30.565 18.0001 30.0127 18.0001H21.0127C20.4604 18.0001 20.0127 17.5523 20.0127 17.0001Z" fill="#1100FF"/>
<path fill-rule="evenodd" clip-rule="evenodd" d="M8 21.0001C8 20.4478 8.44772 20.0001 9 20.0001H30C30.5523 20.0001 31 20.4478 31 21.0001C31 21.5523 30.5523 22.0001 30 22.0001H9C8.44772 22.0001 8 21.5523 8 21.0001Z" fill="#1100FF"/>
<path fill-rule="evenodd" clip-rule="evenodd" d="M8 25.0001C8 24.4478 8.44772 24.0001 9 24.0001H30C30.5523 24.0001 31 24.4478 31 25.0001C31 25.5523 30.5523 26.0001 30 26.0001H9C8.44772 26.0001 8 25.5523 8 25.0001Z" fill="#1100FF"/>
<path fill-rule="evenodd" clip-rule="evenodd" d="M4.73701 6.03884C5.16584 5.91585 5.62426 6.09178 5.86069 6.47009L10.0127 13.1133L14.1647 6.47009C14.4011 6.09178 14.8596 5.91585 15.2884 6.03884C15.7172 6.16182 16.0127 6.55397 16.0127 7.00008V17.0001C16.0127 17.5524 15.565 18.0001 15.0127 18.0001C14.4604 18.0001 14.0127 17.5524 14.0127 17.0001V10.4869L10.8607 15.5301C10.678 15.8225 10.3575 16.0001 10.0127 16.0001C9.66791 16.0001 9.34744 15.8225 9.1647 15.5301L6.0127 10.4869V17.0001C6.0127 17.5524 5.56498 18.0001 5.0127 18.0001C4.46041 18.0001 4.0127 17.5524 4.0127 17.0001V7.00008C4.0127 6.55397 4.30819 6.16182 4.73701 6.03884Z" fill="#1100FF"/>
<path fill-rule="evenodd" clip-rule="evenodd" d="M2 7.00006C2 6.44778 2.44772 6.00006 3 6.00006H5C5.55228 6.00006 6 6.44778 6 7.00006C6 7.55235 5.55228 8.00006 5 8.00006H3C2.44772 8.00006 2 7.55235 2 7.00006Z" fill="#1100FF"/>
<path fill-rule="evenodd" clip-rule="evenodd" d="M14 7.00006C14 6.44778 14.4477 6.00006 15 6.00006H17C17.5523 6.00006 18 6.44778 18 7.00006C18 7.55235 17.5523 8.00006 17 8.00006H15C14.4477 8.00006 14 7.55235 14 7.00006Z" fill="#1100FF"/>
<path fill-rule="evenodd" clip-rule="evenodd" d="M2 17.0001C2 16.4478 2.44772 16.0001 3 16.0001H6C6.55228 16.0001 7 16.4478 7 17.0001C7 17.5523 6.55228 18.0001 6 18.0001H3C2.44772 18.0001 2 17.5523 2 17.0001Z" fill="#1100FF"/>
<path fill-rule="evenodd" clip-rule="evenodd" d="M13 17.0001C13 16.4478 13.4477 16.0001 14 16.0001H17C17.5523 16.0001 18 16.4478 18 17.0001C18 17.5523 17.5523 18.0001 17 18.0001H14C13.4477 18.0001 13 17.5523 13 17.0001Z" fill="#1100FF"/>
<path fill-rule="evenodd" clip-rule="evenodd" d="M20 13.0001C20 12.4478 20.4477 12.0001 21 12.0001H30C30.5523 12.0001 31 12.4478 31 13.0001C31 13.5523 30.5523 14.0001 30 14.0001H21C20.4477 14.0001 20 13.5523 20 13.0001Z" fill="#1100FF"/>
<path fill-rule="evenodd" clip-rule="evenodd" d="M20 17.0001C20 16.4478 20.4477 16.0001 21 16.0001H30C30.5523 16.0001 31 16.4478 31 17.0001C31 17.5523 30.5523 18.0001 30 18.0001H21C20.4477 18.0001 20 17.5523 20 17.0001Z" fill="#1100FF"/>
<path fill-rule="evenodd" clip-rule="evenodd" d="M8 21.0001C8 20.4478 8.44772 20.0001 9 20.0001H30C30.5523 20.0001 31 20.4478 31 21.0001C31 21.5523 30.5523 22.0001 30 22.0001H9C8.44772 22.0001 8 21.5523 8 21.0001Z" fill="#1100FF"/>
<path fill-rule="evenodd" clip-rule="evenodd" d="M8 25.0001C8 24.4478 8.44772 24.0001 9 24.0001H30C30.5523 24.0001 31 24.4478 31 25.0001C31 25.5523 30.5523 26.0001 30 26.0001H9C8.44772 26.0001 8 25.5523 8 25.0001Z" fill="#1100FF"/>
<path fill-rule="evenodd" clip-rule="evenodd" d="M4.72432 6.03884C5.15314 5.91585 5.61156 6.09178 5.848 6.47009L10 13.1133L14.152 6.47009C14.3884 6.09178 14.8469 5.91585 15.2757 6.03884C15.7045 6.16182 16 6.55397 16 7.00008V17.0001C16 17.5524 15.5523 18.0001 15 18.0001C14.4477 18.0001 14 17.5524 14 17.0001V10.4869L10.848 15.5301C10.6653 15.8225 10.3448 16.0001 10 16.0001C9.65521 16.0001 9.33474 15.8225 9.152 15.5301L6 10.4869V17.0001C6 17.5524 5.55228 18.0001 5 18.0001C4.44772 18.0001 4 17.5524 4 17.0001V7.00008C4 6.55397 4.2955 6.16182 4.72432 6.03884Z" fill="#1100FF"/>
</svg>
