<svg width="32" height="32" viewBox="0 0 32 32" fill="none" xmlns="http://www.w3.org/2000/svg">
<path fill-rule="evenodd" clip-rule="evenodd" d="M16 4C16.5523 4 17 4.44772 17 5V27C17 27.5523 16.5523 28 16 28C15.4477 28 15 27.5523 15 27V5C15 4.44772 15.4477 4 16 4Z" fill="#1100FF"/>
<path fill-rule="evenodd" clip-rule="evenodd" d="M5.60902 9.99993C5.88519 9.52166 6.49679 9.35782 6.97507 9.63399L26.0251 20.634C26.5033 20.9102 26.6672 21.5218 26.391 22C26.1148 22.4783 25.5032 22.6422 25.025 22.366L5.97497 11.366C5.49669 11.0898 5.33285 10.4782 5.60902 9.99993Z" fill="#1100FF"/>
<path fill-rule="evenodd" clip-rule="evenodd" d="M26.391 9.99993C26.6672 10.4782 26.5033 11.0898 26.0251 11.366L6.97507 22.366C6.49679 22.6422 5.88519 22.4783 5.60902 22C5.33285 21.5218 5.49669 20.9102 5.97497 20.634L25.025 9.63399C25.5032 9.35782 26.1148 9.52166 26.391 9.99993Z" fill="#1100FF"/>
</svg>
