<svg width="32" height="32" viewBox="0 0 32 32" fill="none" xmlns="http://www.w3.org/2000/svg">
<path fill-rule="evenodd" clip-rule="evenodd" d="M16 4C16.5523 4 17 4.44772 17 5V16C17 16.5523 16.5523 17 16 17C15.4477 17 15 16.5523 15 16V5C15 4.44772 15.4477 4 16 4Z" fill="#1100FF"/>
<path fill-rule="evenodd" clip-rule="evenodd" d="M4.58634 12.2909C4.75703 11.7657 5.32119 11.4783 5.84644 11.649L16.3089 15.049C16.8342 15.2196 17.1216 15.7838 16.9509 16.3091C16.7802 16.8343 16.2161 17.1217 15.6908 16.951L5.22832 13.551C4.70307 13.3804 4.41565 12.8162 4.58634 12.2909Z" fill="#1100FF"/>
<path fill-rule="evenodd" clip-rule="evenodd" d="M16.5875 15.1908C17.0344 15.5153 17.1336 16.1407 16.8091 16.5876L10.3466 25.4876C10.0221 25.9345 9.39676 26.0337 8.94986 25.7092C8.50296 25.3847 8.40374 24.7593 8.72825 24.3124L15.1907 15.4124C15.5152 14.9656 16.1406 14.8663 16.5875 15.1908Z" fill="#1100FF"/>
<path fill-rule="evenodd" clip-rule="evenodd" d="M15.4125 15.1908C15.8594 14.8663 16.4847 14.9656 16.8092 15.4124L23.2717 24.3124C23.5963 24.7593 23.497 25.3847 23.0501 25.7092C22.6032 26.0337 21.9779 25.9345 21.6534 25.4876L15.1909 16.5876C14.8664 16.1407 14.9656 15.5153 15.4125 15.1908Z" fill="#1100FF"/>
<path fill-rule="evenodd" clip-rule="evenodd" d="M27.4136 12.2909C27.5843 12.8162 27.2968 13.3804 26.7716 13.551L16.3091 16.951C15.7838 17.1217 15.2197 16.8343 15.049 16.3091C14.8783 15.7838 15.1657 15.2196 15.691 15.049L26.1535 11.649C26.6787 11.4783 27.2429 11.7657 27.4136 12.2909Z" fill="#1100FF"/>
</svg>
