<svg width="32" height="32" viewBox="0 0 32 32" fill="none" xmlns="http://www.w3.org/2000/svg">
<path fill-rule="evenodd" clip-rule="evenodd" d="M6.91457 11.0896C8.00489 13.5125 10.0525 16.4138 12.8207 19.1819C15.5888 21.9501 18.4901 23.9977 20.913 25.088C22.1279 25.6348 23.1725 25.9181 23.9905 25.9626C24.8091 26.0071 25.2832 25.8112 25.5486 25.5459C25.8139 25.2806 26.0098 24.8064 25.9652 23.9878C25.9207 23.1698 25.6374 22.1252 25.0907 20.9103C24.0004 18.4874 21.9528 15.5862 19.1846 12.818C16.4165 10.0498 13.5152 8.00221 11.0923 6.91188C9.87737 6.36517 8.83277 6.08187 8.01481 6.03736C7.1962 5.99282 6.72205 6.18868 6.45671 6.45402C6.19136 6.71936 5.99551 7.19352 6.04005 8.01212C6.08456 8.83009 6.36786 9.87468 6.91457 11.0896ZM4.043 8.12079C3.98045 6.97116 4.23389 5.8484 5.04249 5.03981C5.85109 4.23121 6.97385 3.97776 8.12347 4.04032C9.27375 4.10291 10.5687 4.4831 11.913 5.08804C14.6085 6.30102 17.7044 8.50934 20.5988 11.4038C23.4933 14.2982 25.7016 17.3941 26.9146 20.0896C27.5195 21.4339 27.8997 22.7289 27.9623 23.8791C28.0248 25.0288 27.7714 26.1515 26.9628 26.9601C26.1542 27.7687 25.0314 28.0222 23.8818 27.9596C22.7315 27.897 21.4366 27.5168 20.0923 26.9119C17.3968 25.6989 14.3009 23.4906 11.4065 20.5962C8.51202 17.7017 6.3037 14.6058 5.09073 11.9103C4.48579 10.566 4.10559 9.27106 4.043 8.12079Z" fill="#1100FF"/>
<path fill-rule="evenodd" clip-rule="evenodd" d="M6.04005 23.9879C5.99551 24.8065 6.19136 25.2807 6.45671 25.546C6.72205 25.8114 7.1962 26.0072 8.01481 25.9627C8.83277 25.9182 9.87737 25.6349 11.0923 25.0881C13.5152 23.9978 16.4165 21.9502 19.1846 19.182C21.9528 16.4139 24.0004 13.5126 25.0907 11.0897C25.6374 9.87479 25.9207 8.83019 25.9652 8.01223C26.0098 7.19362 25.8139 6.71947 25.5486 6.45413C25.2832 6.18878 24.8091 5.99293 23.9905 6.03747C23.1725 6.08198 22.1279 6.36528 20.913 6.91199C18.4901 8.00231 15.5888 10.0499 12.8207 12.8181C10.0525 15.5863 8.00489 18.4875 6.91457 20.9104C6.36786 22.1253 6.08456 23.1699 6.04005 23.9879ZM5.09073 20.0897C6.3037 17.3942 8.51202 14.2983 11.4065 11.4039C14.3009 8.50944 17.3968 6.30112 20.0923 5.08815C21.4366 4.48321 22.7315 4.10301 23.8818 4.04042C25.0314 3.97787 26.1542 4.23131 26.9628 5.03991C27.7714 5.84851 28.0248 6.97127 27.9623 8.1209C27.8997 9.27117 27.5195 10.5661 26.9146 11.9104C25.7016 14.6059 23.4933 17.7018 20.5988 20.5963C17.7044 23.4907 14.6085 25.699 11.913 26.912C10.5687 27.5169 9.27375 27.8971 8.12347 27.9597C6.97385 28.0223 5.85109 27.7688 5.04249 26.9602C4.23389 26.1516 3.98045 25.0289 4.043 23.8792C4.10559 22.729 4.48579 21.434 5.09073 20.0897Z" fill="#1100FF"/>
<path d="M16 17.5C16.8284 17.5 17.5 16.8284 17.5 16C17.5 15.1716 16.8284 14.5 16 14.5C15.1716 14.5 14.5 15.1716 14.5 16C14.5 16.8284 15.1716 17.5 16 17.5Z" fill="#1100FF"/>
</svg>
