<svg width="32" height="32" viewBox="0 0 32 32" fill="none" xmlns="http://www.w3.org/2000/svg">
<path fill-rule="evenodd" clip-rule="evenodd" d="M11.1365 6.90074C10.568 6.39347 9.82756 6.1213 9.06532 6.14007C8.29546 6.15903 7.56238 6.47331 7.01784 7.01784C6.47331 7.56238 6.15903 8.29546 6.14007 9.06532C6.1213 9.82756 6.39347 10.568 6.90074 11.1365L20.8634 25.0992C21.4319 25.6065 22.1724 25.8786 22.9346 25.8599C23.7045 25.8409 24.4376 25.5266 24.9821 24.9821C25.5266 24.4376 25.8409 23.7045 25.8599 22.9346C25.8786 22.1724 25.6065 21.4319 25.0992 20.8634L11.1365 6.90074ZM9.01609 4.14068C10.2992 4.10909 11.5453 4.57212 12.4964 5.43392C12.5086 5.44494 12.5205 5.45626 12.5321 5.46786L26.5321 19.4679C26.5437 19.4795 26.555 19.4914 26.566 19.5035C27.4278 20.4546 27.8909 21.7007 27.8593 22.9838C27.8277 24.2669 27.3039 25.4887 26.3963 26.3963C25.4887 27.3039 24.2669 27.8277 22.9838 27.8593C21.7007 27.8909 20.4546 27.4278 19.5035 26.566C19.4914 26.555 19.4795 26.5437 19.4679 26.5321L5.46786 12.5321C5.45626 12.5205 5.44494 12.5086 5.43392 12.4964C4.57212 11.5453 4.10909 10.2992 4.14068 9.01609C4.17227 7.733 4.69607 6.51119 5.60363 5.60363C6.51119 4.69607 7.733 4.17227 9.01609 4.14068Z" fill="#1100FF"/>
<path fill-rule="evenodd" clip-rule="evenodd" d="M20.8634 6.90074L6.90074 20.8634C6.39347 21.4319 6.1213 22.1724 6.14007 22.9346C6.15903 23.7045 6.47331 24.4376 7.01784 24.9821C7.56238 25.5266 8.29546 25.8409 9.06532 25.8599C9.82756 25.8786 10.568 25.6065 11.1365 25.0992L25.0992 11.1365C25.6065 10.568 25.8786 9.82756 25.8599 9.06532C25.8409 8.29546 25.5266 7.56238 24.9821 7.01784C24.4376 6.47331 23.7045 6.15903 22.9346 6.14007C22.1724 6.1213 21.4319 6.39347 20.8634 6.90074ZM19.5035 5.43392C20.4546 4.57212 21.7007 4.10909 22.9838 4.14068C24.2669 4.17227 25.4887 4.69607 26.3963 5.60363C27.3039 6.51119 27.8277 7.733 27.8593 9.01609C27.8909 10.2992 27.4278 11.5453 26.566 12.4964C26.555 12.5086 26.5437 12.5205 26.5321 12.5321L12.5321 26.5321C12.5205 26.5437 12.5086 26.555 12.4964 26.566C11.5453 27.4278 10.2992 27.8909 9.01609 27.8593C7.733 27.8277 6.51119 27.3039 5.60363 26.3963C4.69607 25.4887 4.17227 24.2669 4.14068 22.9838C4.10909 21.7007 4.57212 20.4546 5.43392 19.5035C5.44494 19.4914 5.45626 19.4795 5.46786 19.4679L19.4679 5.46786C19.4795 5.45626 19.4914 5.44494 19.5035 5.43392Z" fill="#1100FF"/>
<path fill-rule="evenodd" clip-rule="evenodd" d="M16 16.5C16.2761 16.5 16.5 16.2761 16.5 16C16.5 15.7239 16.2761 15.5 16 15.5C15.7239 15.5 15.5 15.7239 15.5 16C15.5 16.2761 15.7239 16.5 16 16.5ZM14.5 16C14.5 15.1716 15.1716 14.5 16 14.5C16.8284 14.5 17.5 15.1716 17.5 16C17.5 16.8284 16.8284 17.5 16 17.5C15.1716 17.5 14.5 16.8284 14.5 16Z" fill="#1100FF"/>
<path d="M16 17.5C16.8284 17.5 17.5 16.8284 17.5 16C17.5 15.1716 16.8284 14.5 16 14.5C15.1716 14.5 14.5 15.1716 14.5 16C14.5 16.8284 15.1716 17.5 16 17.5Z" fill="#1100FF"/>
</svg>
