<svg width="32" height="32" viewBox="0 0 32 32" fill="none" xmlns="http://www.w3.org/2000/svg">
<path fill-rule="evenodd" clip-rule="evenodd" d="M16 5C9.92487 5 5 9.92487 5 16C5 22.0751 9.92487 27 16 27C22.0751 27 27 22.0751 27 16C27 9.92487 22.0751 5 16 5ZM3 16C3 8.8203 8.8203 3 16 3C23.1797 3 29 8.8203 29 16C29 23.1797 23.1797 29 16 29C8.8203 29 3 23.1797 3 16Z" fill="#1100FF"/>
<path fill-rule="evenodd" clip-rule="evenodd" d="M21.9441 11.2398C22.4676 11.416 22.749 11.9832 22.5728 12.5066C22.3782 13.0846 22.2327 13.678 22.1379 14.2805C22.0521 14.826 21.5402 15.1987 20.9946 15.1129C20.449 15.027 20.0764 14.5152 20.1622 13.9696C20.2745 13.256 20.4468 12.5531 20.6773 11.8684C20.8536 11.345 21.4207 11.0636 21.9441 11.2398Z" fill="#1100FF"/>
<path fill-rule="evenodd" clip-rule="evenodd" d="M20.9946 16.8872C21.5402 16.8013 22.0521 17.174 22.1379 17.7196C22.2327 18.3221 22.3782 18.9154 22.5728 19.4934C22.749 20.0168 22.4676 20.584 21.9441 20.7602C21.4207 20.9365 20.8536 20.655 20.6773 20.1316C20.4468 19.447 20.2745 18.7441 20.1622 18.0304C20.0764 17.4849 20.449 16.973 20.9946 16.8872Z" fill="#1100FF"/>
<path fill-rule="evenodd" clip-rule="evenodd" d="M10.0557 11.2398C10.5791 11.0636 11.1463 11.345 11.3225 11.8684C11.553 12.5531 11.7253 13.256 11.8376 13.9696C11.9235 14.5152 11.5508 15.027 11.0052 15.1129C10.4596 15.1987 9.94778 14.826 9.86194 14.2805C9.76715 13.678 9.62167 13.0846 9.42706 12.5066C9.25083 11.9832 9.53227 11.416 10.0557 11.2398Z" fill="#1100FF"/>
<path fill-rule="evenodd" clip-rule="evenodd" d="M11.0052 16.8872C11.5508 16.973 11.9235 17.4849 11.8376 18.0304C11.7253 18.7441 11.553 19.447 11.3225 20.1316C11.1463 20.655 10.5791 20.9365 10.0557 20.7602C9.53227 20.584 9.25083 20.0168 9.42706 19.4934C9.62167 18.9154 9.76715 18.3221 9.86194 17.7196C9.94778 17.174 10.4596 16.8013 11.0052 16.8872Z" fill="#1100FF"/>
<path fill-rule="evenodd" clip-rule="evenodd" d="M25.2021 6.81284C25.5955 7.20054 25.6 7.83369 25.2123 8.22702C24.831 8.61394 24.4764 9.02636 24.151 9.46143C23.8202 9.90371 23.1935 9.99411 22.7512 9.66334C22.309 9.33257 22.2186 8.7059 22.5493 8.26362C22.9291 7.75588 23.3429 7.27457 23.788 6.82303C24.1757 6.4297 24.8088 6.42514 25.2021 6.81284Z" fill="#1100FF"/>
<path fill-rule="evenodd" clip-rule="evenodd" d="M22.7457 22.3409C23.1857 22.007 23.813 22.0931 24.1468 22.533C24.4779 22.9694 24.8354 23.3852 25.2172 23.778C25.6022 24.174 25.5932 24.8071 25.1972 25.1921C24.8012 25.577 24.1681 25.568 23.7831 25.172C23.3445 24.7208 22.9339 24.2432 22.5535 23.742C22.2197 23.302 22.3057 22.6747 22.7457 22.3409Z" fill="#1100FF"/>
<path fill-rule="evenodd" clip-rule="evenodd" d="M9.25446 22.3409C9.69443 22.6747 9.78047 23.302 9.44663 23.742C9.06628 24.2432 8.65565 24.7208 8.21705 25.172C7.83209 25.568 7.19899 25.577 6.80298 25.1921C6.40696 24.8071 6.398 24.174 6.78295 23.778C7.16478 23.3852 7.52225 22.9694 7.85337 22.533C8.1872 22.0931 8.81449 22.007 9.25446 22.3409Z" fill="#1100FF"/>
<path fill-rule="evenodd" clip-rule="evenodd" d="M6.79801 6.81284C7.19134 6.42514 7.82449 6.4297 8.21219 6.82303C8.65726 7.27457 9.0711 7.75588 9.45082 8.26362C9.78159 8.7059 9.69119 9.33257 9.24891 9.66334C8.80663 9.99411 8.17995 9.90371 7.84918 9.46143C7.5238 9.02636 7.1692 8.61394 6.78781 8.22702C6.40012 7.83369 6.40468 7.20054 6.79801 6.81284Z" fill="#1100FF"/>
</svg>
