<svg width="32" height="32" viewBox="0 0 32 32" fill="none" xmlns="http://www.w3.org/2000/svg">
<path fill-rule="evenodd" clip-rule="evenodd" d="M31 11C31.5523 11 32 11.4477 32 12V20C32 20.5523 31.5523 21 31 21C30.4477 21 30 20.5523 30 20V12C30 11.4477 30.4477 11 31 11Z" fill="#1100FF"/>
<path fill-rule="evenodd" clip-rule="evenodd" d="M26 9C26 8.44772 25.5523 8 25 8H6C5.44772 8 5 8.44772 5 9V23C5 23.5523 5.44772 24 6 24H25C25.5523 24 26 23.5523 26 23V9ZM25 6C26.6569 6 28 7.34315 28 9V23C28 24.6569 26.6569 26 25 26H6C4.34315 26 3 24.6569 3 23V9C3 7.34315 4.34315 6 6 6H25Z" fill="#1100FF"/>
<path fill-rule="evenodd" clip-rule="evenodd" d="M8.6001 10C9.15238 10 9.6001 10.4477 9.6001 11V21C9.6001 21.5523 9.15238 22 8.6001 22C8.04781 22 7.6001 21.5523 7.6001 21V11C7.6001 10.4477 8.04781 10 8.6001 10Z" fill="#1100FF"/>
</svg>
