<svg width="32" height="32" viewBox="0 0 32 32" fill="none" xmlns="http://www.w3.org/2000/svg">
<path fill-rule="evenodd" clip-rule="evenodd" d="M25.2929 1.29289C25.6834 0.902369 26.3166 0.902369 26.7071 1.29289L30.7071 5.29289C31.0976 5.68342 31.0976 6.31658 30.7071 6.70711C30.3166 7.09763 29.6834 7.09763 29.2929 6.70711L25.2929 2.70711C24.9024 2.31658 24.9024 1.68342 25.2929 1.29289Z" fill="#1100FF"/>
<path fill-rule="evenodd" clip-rule="evenodd" d="M27.8 2.40006C28.1313 2.84189 28.0418 3.46869 27.6 3.80006L19.6 9.80006C19.4805 9.88965 19.3425 9.95135 19.1961 9.98064L14.493 10.9213L4.12478 21.2894L4.12264 21.2916C3.93733 21.4808 3.8335 21.7351 3.8335 22.0001C3.8335 22.265 3.93733 22.5193 4.12264 22.7085L4.12478 22.7107L9.28933 27.8752L9.29159 27.8775C9.48079 28.0627 9.73508 28.1665 9.99997 28.1665C10.2649 28.1665 10.5191 28.0627 10.7083 27.8775L10.7106 27.8752L21.0788 17.507L22.0194 12.8039C22.0487 12.6575 22.1104 12.5195 22.2 12.4001L28.2 4.40006C28.5313 3.95823 29.1581 3.86869 29.6 4.20006C30.0418 4.53143 30.1313 5.15823 29.8 5.60006L23.9361 13.4186L22.9806 18.1962C22.9418 18.3898 22.8467 18.5676 22.7071 18.7072L12.1144 29.2999C11.5507 29.8552 10.7912 30.1665 9.99997 30.1665C9.20871 30.1665 8.44922 29.8552 7.88561 29.2999L7.88034 29.2947L2.70014 24.1144C2.14478 23.5508 1.8335 22.7913 1.8335 22.0001C1.8335 21.2088 2.1448 20.4493 2.70016 19.8857L2.70534 19.8804L13.2929 9.29295C13.4325 9.15335 13.6103 9.0582 13.8039 9.01948L18.5814 8.06396L26.4 2.20006C26.8418 1.86869 27.4686 1.95823 27.8 2.40006Z" fill="#1100FF"/>
<path fill-rule="evenodd" clip-rule="evenodd" d="M11.2929 11.2929C11.6834 10.9024 12.3166 10.9024 12.7071 11.2929L20.7071 19.2929C21.0976 19.6834 21.0976 20.3166 20.7071 20.7071C20.3166 21.0976 19.6834 21.0976 19.2929 20.7071L11.2929 12.7071C10.9024 12.3166 10.9024 11.6834 11.2929 11.2929Z" fill="#1100FF"/>
<path fill-rule="evenodd" clip-rule="evenodd" d="M4.29289 18.2929C4.68342 17.9024 5.31658 17.9024 5.70711 18.2929L13.7071 26.2929C14.0976 26.6834 14.0976 27.3166 13.7071 27.7071C13.3166 28.0976 12.6834 28.0976 12.2929 27.7071L4.29289 19.7071C3.90237 19.3166 3.90237 18.6834 4.29289 18.2929Z" fill="#1100FF"/>
</svg>
