<svg width="32" height="32" viewBox="0 0 32 32" fill="none" xmlns="http://www.w3.org/2000/svg">
<path d="M23.9283 23.3689C23.9058 23.3414 23.8821 23.3151 23.8571 23.2901L6.61871 4.32803C6.24746 3.91929 5.61498 3.88929 5.20624 4.26053C4.79749 4.63177 4.7675 5.26426 5.13874 5.673L7.24119 7.98545C6.36371 9.50917 5.90247 11.2266 5.90372 13.0003V14.0003C5.90372 18.2977 5.01999 20.7139 4.28251 21.9751C4.09626 22.2876 3.99876 22.6451 4.00001 23.0076C4.00251 23.5414 4.21251 24.0439 4.59125 24.4201C4.96874 24.7951 5.46873 25.0001 5.99622 25.0001H22.7084L25.1383 27.6725C25.3358 27.89 25.607 28 25.8783 28C26.1183 28 26.3595 27.9138 26.5508 27.74C26.9595 27.3688 26.9895 26.7363 26.6183 26.3276L23.9283 23.3676V23.3689ZM6.00497 22.9926C6.8712 21.5089 7.90368 18.7452 7.90368 14.0016V13.0016C7.90368 11.8016 8.16742 10.6329 8.67366 9.56292L20.8896 23.0014L6.00497 22.9939V22.9926Z" fill="#1100FF"/>
<path d="M19.8784 27H11.8786C11.3261 27 10.8786 27.4475 10.8786 28C10.8786 28.5525 11.3261 29 11.8786 29H19.8784C20.4309 29 20.8784 28.5525 20.8784 28C20.8784 27.4475 20.4309 27 19.8784 27Z" fill="#1100FF"/>
<path d="M11.9386 6.04299C13.1511 5.34676 14.5323 4.98677 15.9335 5.00052C20.3009 5.03302 23.8533 8.67294 23.8533 13.1128V14.0003C23.8533 16.9653 24.2546 19.4965 25.0471 21.5264C25.2008 21.9214 25.5783 22.1626 25.9795 22.1626C26.1008 22.1626 26.2233 22.1401 26.3433 22.0939C26.8583 21.8927 27.112 21.3127 26.9108 20.7989C26.2095 19.0027 25.8545 16.7153 25.8545 14.0003V13.1128C25.8533 7.57921 21.4096 3.04306 15.951 3.00056C14.1923 2.98181 12.4648 3.4343 10.9424 4.30803C10.4636 4.58303 10.2986 5.19426 10.5736 5.673C10.8486 6.15174 11.4599 6.31674 11.9386 6.04174V6.04299Z" fill="#1100FF"/>
</svg>
