<svg width="32" height="32" viewBox="0 0 32 32" fill="none" xmlns="http://www.w3.org/2000/svg">
<path d="M19.8713 27H11.8713C11.3188 27 10.8713 27.4475 10.8713 28C10.8713 28.5525 11.3188 29 11.8713 29H19.8713C20.4238 29 20.8713 28.5525 20.8713 28C20.8713 27.4475 20.4238 27 19.8713 27Z" fill="#1100FF"/>
<path d="M27.475 21.9988C26.7325 20.7163 25.8475 18.2875 25.8475 14V13.1125C25.8463 7.5775 21.4025 3.04125 15.94 3H15.87C13.2025 3.00375 10.695 4.04625 8.81252 5.935C6.92877 7.82375 5.89377 10.3325 5.89752 13V14C5.89752 18.2875 5.01252 20.7162 4.26877 22C4.09377 22.3013 4.00002 22.645 4.00002 22.9925C3.99752 23.5263 4.20377 24.03 4.58127 24.4088C4.95877 24.7875 5.45877 24.9975 5.99752 25H25.75C26.0988 25 26.4425 24.9062 26.7425 24.7325C27.205 24.465 27.5363 24.0337 27.675 23.5187C27.8138 23.0025 27.7425 22.4638 27.475 22V21.9988ZM6.00002 23.0012C6.86502 21.5062 7.89752 18.7312 7.89752 14V13C7.89502 10.865 8.72252 8.8575 10.2288 7.3475C11.735 5.83625 13.74 5.0025 15.875 5H15.9275C20.295 5.03375 23.8475 8.6725 23.8475 13.1125V14C23.8475 18.7312 24.8788 21.5063 25.7475 23H6.00002V23.0012Z" fill="#1100FF"/>
</svg>
