<svg width="32" height="32" viewBox="0 0 32 32" fill="none" xmlns="http://www.w3.org/2000/svg">
<path fill-rule="evenodd" clip-rule="evenodd" d="M5.32733 4.26007C5.73599 3.88856 6.36844 3.91868 6.73995 4.32733L26.7399 26.3273C27.1115 26.736 27.0813 27.3684 26.6727 27.7399C26.264 28.1115 25.6316 28.0813 25.2601 27.6727L5.26007 5.67268C4.88856 5.26402 4.91868 4.63157 5.32733 4.26007Z" fill="#1100FF"/>
<path fill-rule="evenodd" clip-rule="evenodd" d="M12 23C12.5523 23 13 23.4477 13 24V25C13 25.7956 13.3161 26.5587 13.8787 27.1213C14.4413 27.6839 15.2044 28 16 28C16.7956 28 17.5587 27.6839 18.1213 27.1213C18.6839 26.5587 19 25.7956 19 25V24C19 23.4477 19.4477 23 20 23C20.5523 23 21 23.4477 21 24V25C21 26.3261 20.4732 27.5979 19.5355 28.5355C18.5979 29.4732 17.3261 30 16 30C14.6739 30 13.4021 29.4732 12.4645 28.5355C11.5268 27.5979 11 26.3261 11 25V24C11 23.4477 11.4477 23 12 23Z" fill="#1100FF"/>
<path fill-rule="evenodd" clip-rule="evenodd" d="M9.17813 7.05039C9.63354 7.36283 9.74943 7.9853 9.43698 8.44071C8.51632 9.78261 8.02398 11.372 8.0249 12.9994L8.0249 14C8.0249 18.6156 7.05712 21.3954 6.12842 23H23.2749C23.8272 23 24.2749 23.4477 24.2749 24C24.2749 24.5523 23.8272 25 23.2749 25H6.1249L6.12137 25C5.7709 24.9987 5.4269 24.9054 5.12384 24.7294C4.82078 24.5533 4.56931 24.3008 4.39461 23.9969C4.2199 23.6931 4.12811 23.3487 4.12842 22.9982C4.12873 22.6477 4.22113 22.3035 4.39637 22L4.39697 21.9989C5.11809 20.7534 6.0249 18.3333 6.0249 14V13.0002C6.02387 10.9687 6.63852 8.98438 7.78781 7.30923C8.10026 6.85383 8.72273 6.73794 9.17813 7.05039Z" fill="#1100FF"/>
<path fill-rule="evenodd" clip-rule="evenodd" d="M16.0522 4.99994C14.6526 4.98528 13.2745 5.34512 12.0607 6.04217C11.5817 6.31721 10.9705 6.15193 10.6955 5.673C10.4205 5.19407 10.5857 4.58286 11.0647 4.30782C12.5873 3.43341 14.316 2.9819 16.0717 3.00004C21.5883 3.04263 25.9752 7.61931 25.9752 13.1125V14C25.9752 17.2316 26.4832 19.3934 27.0317 20.799C27.2325 21.3135 26.9782 21.8933 26.4637 22.0941C25.9492 22.2949 25.3694 22.0405 25.1686 21.526C24.5171 19.8566 23.9752 17.4434 23.9752 14V13.1125C23.9752 8.68116 20.4378 5.03317 16.0551 4.99997L16.0522 4.99994Z" fill="#1100FF"/>
</svg>
