<svg width="32" height="32" viewBox="0 0 32 32" fill="none" xmlns="http://www.w3.org/2000/svg">
<path fill-rule="evenodd" clip-rule="evenodd" d="M12 11.5C12 10.9477 12.4477 10.5 13 10.5H19C19.5523 10.5 20 10.9477 20 11.5C20 12.0523 19.5523 12.5 19 12.5H13C12.4477 12.5 12 12.0523 12 11.5Z" fill="#1100FF"/>
<path fill-rule="evenodd" clip-rule="evenodd" d="M18.2967 6.16403C19.0479 5.42079 20.062 5.00391 21.1187 5.00391C22.1755 5.00391 23.1896 5.42079 23.9408 6.16403C24.0302 6.25247 24.1021 6.35699 24.1528 6.4721L29.6153 18.8846C29.8377 19.3901 29.6083 19.9802 29.1028 20.2027C28.5973 20.4251 28.0072 20.1957 27.7847 19.6902L22.4069 7.47019C22.0467 7.17005 21.5912 7.00391 21.1187 7.00391C20.7176 7.00391 20.3287 7.12367 20 7.34351V20.9999C20 21.5522 19.5523 21.9999 19 21.9999C18.4477 21.9999 18 21.5522 18 20.9999V6.8749C18 6.60783 18.1068 6.35186 18.2967 6.16403Z" fill="#1100FF"/>
<path fill-rule="evenodd" clip-rule="evenodd" d="M8.05924 6.16403C8.81046 5.42079 9.82455 5.00391 10.8813 5.00391C11.9381 5.00391 12.9522 5.42079 13.7034 6.16403C13.8932 6.35186 14.0001 6.60783 14.0001 6.8749V20.9999C14.0001 21.5522 13.5523 21.9999 13.0001 21.9999C12.4478 21.9999 12.0001 21.5522 12.0001 20.9999V7.34351C11.6713 7.12367 11.2824 7.00391 10.8813 7.00391C10.4088 7.00391 9.95336 7.17005 9.59313 7.47019L4.21534 19.6902C3.99288 20.1957 3.40276 20.4251 2.89726 20.2027C2.39176 19.9802 2.16231 19.3901 2.38477 18.8846L7.84727 6.4721C7.89792 6.35699 7.96984 6.25247 8.05924 6.16403Z" fill="#1100FF"/>
<path fill-rule="evenodd" clip-rule="evenodd" d="M8 17C5.79086 17 4 18.7909 4 21C4 23.2091 5.79086 25 8 25C10.2091 25 12.0001 23.209 12.0001 20.9999C12.0001 18.7908 10.2091 17 8 17ZM2 21C2 17.6863 4.68629 15 8 15C11.3137 15 14.0001 17.6862 14.0001 20.9999C14.0001 24.3136 11.3137 27 8 27C4.68629 27 2 24.3137 2 21Z" fill="#1100FF"/>
<path fill-rule="evenodd" clip-rule="evenodd" d="M24 17C21.7909 17 20 18.7908 20 20.9999C20 23.209 21.7909 25 24 25C26.2091 25 28 23.2091 28 21C28 18.7909 26.2091 17 24 17ZM18 20.9999C18 17.6862 20.6863 15 24 15C27.3137 15 30 17.6863 30 21C30 24.3137 27.3137 27 24 27C20.6863 27 18 24.3136 18 20.9999Z" fill="#1100FF"/>
</svg>
