<svg width="32" height="32" viewBox="0 0 32 32" fill="none" xmlns="http://www.w3.org/2000/svg">
<path d="M20.5 10C21.3284 10 22 9.32843 22 8.5C22 7.67157 21.3284 7 20.5 7C19.6716 7 19 7.67157 19 8.5C19 9.32843 19.6716 10 20.5 10Z" fill="#1100FF"/>
<path fill-rule="evenodd" clip-rule="evenodd" d="M15.6402 16.2318C16.0645 16.5854 16.1218 17.2159 15.7682 17.6402L10.7682 23.6402C10.4147 24.0645 9.78412 24.1218 9.35984 23.7682C8.93556 23.4147 8.87824 22.7841 9.2318 22.3598L14.2318 16.3598C14.5854 15.9356 15.2159 15.8782 15.6402 16.2318Z" fill="#1100FF"/>
<path fill-rule="evenodd" clip-rule="evenodd" d="M22.576 4.95162C21.4684 4.20436 20.1267 3.88584 18.8014 4.05555C17.4761 4.22526 16.2579 4.87159 15.3744 5.87383C14.4909 6.87593 14.0024 8.16532 14 9.50123V12.0001C14 12.2272 13.9227 12.4475 13.7809 12.6248L3.08063 26.0001H14C16.9174 26.0001 19.7153 24.8412 21.7782 22.7783C23.8411 20.7154 25 17.9175 25 15.0001V12.0001C25 11.6657 25.1671 11.3535 25.4453 11.1681L27.196 10.0009L25.2336 8.69515C25.0295 8.55936 24.8824 8.35333 24.8202 8.1162C24.4814 6.82377 23.6836 5.69888 22.576 4.95162ZM18.5474 2.07175C20.3546 1.84033 22.1842 2.27468 23.6946 3.29366C25.0963 4.23935 26.1341 5.62858 26.6455 7.23233L29.554 9.16755C29.8325 9.35286 29.9999 9.66514 30 9.99965C30.0002 10.3342 29.833 10.6466 29.5547 10.8322L27 12.5353V15.0001C27 18.4479 25.6304 21.7545 23.1924 24.1925C20.7544 26.6305 17.4478 28.0001 14 28.0001H1.00001C0.615604 28.0001 0.265226 27.7798 0.0987061 27.4333C-0.0678138 27.0868 -0.0209954 26.6756 0.219141 26.3754L12 11.6493L12 9.49843C12.0031 7.67646 12.6692 5.91791 13.8741 4.55122C15.079 3.18454 16.7402 2.30317 18.5474 2.07175Z" fill="#1100FF"/>
</svg>
