<svg width="32" height="32" viewBox="0 0 32 32" fill="none" xmlns="http://www.w3.org/2000/svg">
<path fill-rule="evenodd" clip-rule="evenodd" d="M7.58579 4.58579C7.96086 4.21071 8.46957 4 9 4H23C23.5304 4 24.0391 4.21071 24.4142 4.58579C24.7893 4.96086 25 5.46957 25 6V28C25 28.3635 24.8027 28.6984 24.4848 28.8746C24.1668 29.0509 23.7783 29.0407 23.47 28.848L16 24.1792L8.53 28.848C8.22173 29.0407 7.83319 29.0509 7.51523 28.8746C7.19728 28.6984 7 28.3635 7 28V6C7 5.46957 7.21071 4.96086 7.58579 4.58579ZM23 6H9L9 26.1958L15.47 22.152C15.7943 21.9493 16.2057 21.9493 16.53 22.152L23 26.1958V6Z" fill="#1100FF"/>
<path fill-rule="evenodd" clip-rule="evenodd" d="M15.4699 16.152C15.7942 15.9493 16.2056 15.9493 16.5299 16.152L24.5299 21.152C24.9982 21.4447 25.1406 22.0617 24.8479 22.53C24.5552 22.9983 23.9382 23.1407 23.4699 22.848L15.9999 18.1792L8.52989 22.848C8.06155 23.1407 7.4446 22.9983 7.15189 22.53C6.85918 22.0617 7.00155 21.4447 7.46989 21.152L15.4699 16.152Z" fill="#1100FF"/>
</svg>
