<svg width="32" height="32" viewBox="0 0 32 32" fill="none" xmlns="http://www.w3.org/2000/svg">
<path d="M26 3H8.9875C6.79625 3 5.00875 4.7775 5 6.9675V26.9725C5 26.9813 5 26.9912 5 27V28C5 28.5525 5.4475 29 6 29H24C24.5525 29 25 28.5525 25 28C25 27.4475 24.5525 27 24 27H7V26.9775C7.005 25.89 7.89 25.005 8.975 25H26C26.5525 25 27 24.5525 27 24V4C27 3.4475 26.5525 3 26 3ZM15 5H21V14L18.6 12.2C18.245 11.9338 17.755 11.9338 17.4 12.2L15 14V5ZM25 23H8.97125C8.25375 23.0025 7.58125 23.1963 7 23.5312V6.97875C7.0025 6.4475 7.21125 5.95 7.5875 5.57625C7.9625 5.205 8.45875 5 8.99125 5H13V16C13 16.3787 13.2137 16.725 13.5525 16.895C13.8912 17.065 14.2963 17.0275 14.6 16.8013L18 14.2513L21.4 16.8013C21.5763 16.9338 21.7875 17.0013 22 17.0013C22.1525 17.0013 22.305 16.9662 22.4475 16.8962C22.7863 16.7262 23 16.3813 23 16.0013V5H25V23Z" fill="#1100FF"/>
</svg>
