<svg width="32" height="32" viewBox="0 0 32 32" fill="none" xmlns="http://www.w3.org/2000/svg">
<path d="M9.51856 5.85565C9.98854 5.57066 10.141 4.95818 9.8573 4.48569C9.57356 4.01196 8.95857 3.85821 8.48484 4.1432C8.26109 4.2782 3 7.53186 3 16.0004C3 24.4689 8.26109 27.7238 8.48484 27.8575C8.64608 27.9538 8.82233 28 8.99607 28C9.33356 28 9.66355 27.8275 9.85105 27.5175C10.136 27.0475 9.98604 26.4325 9.51731 26.1451C9.33231 26.0313 4.99869 23.2864 4.99869 16.0004C4.99869 8.71432 9.32481 5.9744 9.51856 5.85565Z" fill="#1100FF"/>
<path d="M23.5144 4.1432C23.0419 3.86071 22.4332 4.01321 22.1469 4.48319C21.8607 4.95318 22.0119 5.56816 22.4807 5.85565C22.6657 5.9694 26.9993 8.71432 26.9993 16.0004C26.9993 23.2864 22.6657 26.0313 22.4844 26.1426C22.0107 26.4263 21.8569 27.0413 22.1419 27.515C22.3294 27.8275 22.6607 28 23.0007 28C23.1757 28 23.3531 27.9538 23.5144 27.8575C23.7381 27.7225 28.9992 24.4689 28.9992 16.0004C28.9992 7.53186 23.7381 4.2782 23.5144 4.1432Z" fill="#1100FF"/>
</svg>
