<svg width="32" height="32" viewBox="0 0 32 32" fill="none" xmlns="http://www.w3.org/2000/svg">
<path fill-rule="evenodd" clip-rule="evenodd" d="M10.5369 4.15622C11.0028 4.45273 11.1402 5.07082 10.8437 5.53676L4.18531 15.9999L10.8437 26.463C11.1402 26.9289 11.0028 27.547 10.5369 27.8435C10.0709 28.1401 9.45285 28.0027 9.15634 27.5368L2.15634 16.5368C1.94789 16.2092 1.94789 15.7906 2.15634 15.463L9.15634 4.46301C9.45285 3.99707 10.0709 3.85971 10.5369 4.15622Z" fill="#1100FF"/>
<path fill-rule="evenodd" clip-rule="evenodd" d="M21.463 4.15622C21.9289 3.85971 22.547 3.99707 22.8435 4.46301L29.8435 15.463C30.052 15.7906 30.052 16.2092 29.8435 16.5368L22.8435 27.5368C22.547 28.0027 21.9289 28.1401 21.463 27.8435C20.9971 27.547 20.8597 26.9289 21.1562 26.463L27.8146 15.9999L21.1562 5.53676C20.8597 5.07082 20.9971 4.45273 21.463 4.15622Z" fill="#1100FF"/>
</svg>
