<svg width="32" height="32" viewBox="0 0 32 32" fill="none" xmlns="http://www.w3.org/2000/svg">
<path d="M31 16.5041C31.0075 13.7721 29.4217 11.306 26.9881 10.1597V8.9935C26.9881 5.68833 24.2997 3 20.9946 3C18.9118 3 17.0751 4.06884 16 5.68584C14.9249 4.06884 13.0882 3 11.0054 3C7.70026 3 5.01192 5.68833 5.01192 8.9935V10.1597C2.57831 11.306 0.992535 13.7721 1.00003 16.5041C1.00502 18.3721 1.73673 20.1252 3.06154 21.4425C3.63841 22.0169 4.2977 22.4776 5.01192 22.8147V22.9783C5.01192 26.2835 7.70026 28.9718 11.0054 28.9718C13.0882 28.9718 14.9249 27.903 16 26.286C17.0751 27.903 18.9118 28.9718 20.9946 28.9718C24.2997 28.9718 26.9881 26.2835 26.9881 22.9783V22.8147C27.7023 22.4776 28.3616 22.0169 28.9385 21.4425C30.2633 20.1252 30.995 18.3708 31 16.5041ZM11.0054 26.974C8.9489 26.974 7.25074 25.4119 7.03348 23.4116C7.34814 23.4541 7.66654 23.4778 7.98869 23.4778H9.00634C9.55824 23.4778 10.0053 23.0308 10.0053 22.4789C10.0053 21.927 9.55824 21.4799 9.00634 21.4799H7.99119C7.4318 21.4799 6.88739 21.3875 6.3742 21.2127C6.34672 21.2015 6.31801 21.1915 6.28929 21.184C5.61377 20.9393 4.99444 20.5497 4.47001 20.0278C3.52354 19.0863 3.0016 17.8339 2.99786 16.5004C2.99162 14.3752 4.33516 12.476 6.34048 11.773C6.7413 11.6331 7.00851 11.2548 7.00851 10.8303V8.99474C7.00851 6.79089 8.80031 4.99908 11.0042 4.99908C13.208 4.99908 14.9998 6.79089 14.9998 8.99474V18.5157C13.9385 17.5642 12.5375 16.9848 11.0042 16.9848C10.4523 16.9848 10.0053 17.4318 10.0053 17.9837C10.0053 18.5356 10.4523 18.9827 11.0042 18.9827C13.208 18.9827 14.9998 20.7757 14.9998 22.9783C14.9998 25.1809 13.208 26.974 11.0042 26.974H11.0054ZM25.7082 21.184C25.682 21.1915 25.6558 21.2015 25.6296 21.2115C25.1139 21.3876 24.567 21.4812 24.0051 21.4812H22.9924C22.4405 21.4812 21.9935 21.9282 21.9935 22.4801C21.9935 23.032 22.4405 23.479 22.9924 23.479H24.0076C24.331 23.479 24.6506 23.4553 24.9653 23.4128C24.748 25.4132 23.0499 26.9752 20.9933 26.9752C18.7907 26.9752 16.9977 25.1822 16.9977 22.9796C16.9977 20.777 18.7907 18.9839 20.9933 18.9839C21.5452 18.9839 21.9922 18.5369 21.9922 17.985C21.9922 17.4331 21.5452 16.9861 20.9933 16.9861C19.46 16.9861 18.059 17.5654 16.9977 18.5169V8.9935C16.9977 6.78964 18.7907 4.99783 20.9933 4.99783C23.1959 4.99783 24.989 6.78964 24.989 8.9935V10.829C24.989 11.2535 25.2575 11.6319 25.657 11.7717C27.6623 12.4747 29.0059 14.3739 28.9996 16.4991C28.9959 17.8327 28.4727 19.0863 27.5275 20.0265C27.0031 20.5485 26.3825 20.9393 25.7057 21.184H25.7082Z" fill="#1100FF"/>
<path d="M12.0043 11.4908V10.4919C12.0043 9.93997 11.5573 9.49295 11.0054 9.49295C10.4535 9.49295 10.0065 9.93997 10.0065 10.4919V11.4908C10.0065 12.868 8.88647 13.9881 7.50921 13.9881C6.95731 13.9881 6.5103 14.4351 6.5103 14.987C6.5103 15.5389 6.95731 15.9859 7.50921 15.9859C9.98777 15.9859 12.0043 13.9693 12.0043 11.4908Z" fill="#1100FF"/>
<path d="M24.4908 13.9881C23.1135 13.9881 21.9935 12.868 21.9935 11.4908V10.4919C21.9935 9.93997 21.5465 9.49295 20.9946 9.49295C20.4427 9.49295 19.9957 9.93997 19.9957 10.4919V11.4908C19.9957 13.9693 22.0122 15.9859 24.4908 15.9859C25.0427 15.9859 25.4897 15.5389 25.4897 14.987C25.4897 14.4351 25.0427 13.9881 24.4908 13.9881Z" fill="#1100FF"/>
</svg>
