<svg width="32" height="32" viewBox="0 0 32 32" fill="none" xmlns="http://www.w3.org/2000/svg">
<path fill-rule="evenodd" clip-rule="evenodd" d="M3 10C3 8.89543 3.89543 8 5 8H27C28.1046 8 29 8.89543 29 10V26C29 27.1046 28.1046 28 27 28H5C3.89543 28 3 27.1046 3 26V10ZM27 10H5V26H27V10Z" fill="#1100FF"/>
<path fill-rule="evenodd" clip-rule="evenodd" d="M10.8787 4.87868C11.4413 4.31607 12.2044 4 13 4H19C19.7957 4 20.5587 4.31607 21.1213 4.87868C21.6839 5.44129 22 6.20435 22 7V9C22 9.55228 21.5523 10 21 10C20.4477 10 20 9.55228 20 9V7C20 6.73478 19.8946 6.48043 19.7071 6.29289C19.5196 6.10536 19.2652 6 19 6H13C12.7348 6 12.4804 6.10536 12.2929 6.29289C12.1054 6.48043 12 6.73478 12 7V9C12 9.55228 11.5523 10 11 10C10.4477 10 10 9.55228 10 9V7C10 6.20435 10.3161 5.44129 10.8787 4.87868Z" fill="#1100FF"/>
<path fill-rule="evenodd" clip-rule="evenodd" d="M28.8658 15.2869C29.1423 15.765 28.9789 16.3767 28.5008 16.6532C24.7017 18.8504 20.3895 20.0049 16.0008 20C11.6104 20.0111 7.29581 18.8559 3.4983 16.6525C3.0206 16.3753 2.85805 15.7634 3.13522 15.2857C3.41239 14.808 4.02433 14.6454 4.50203 14.9226C7.99365 16.9485 11.9608 18.0105 15.9976 18L16.0014 18C20.0383 18.0048 24.0049 16.9429 27.4995 14.9219C27.9776 14.6454 28.5893 14.8088 28.8658 15.2869Z" fill="#1100FF"/>
<path fill-rule="evenodd" clip-rule="evenodd" d="M13.5 15C13.5 14.4477 13.9477 14 14.5 14H17.5C18.0523 14 18.5 14.4477 18.5 15C18.5 15.5523 18.0523 16 17.5 16H14.5C13.9477 16 13.5 15.5523 13.5 15Z" fill="#1100FF"/>
</svg>
