<svg width="32" height="32" viewBox="0 0 32 32" fill="none" xmlns="http://www.w3.org/2000/svg">
<path fill-rule="evenodd" clip-rule="evenodd" d="M16 13C14.3431 13 13 14.3431 13 16C13 17.6569 14.3431 19 16 19C17.6569 19 19 17.6569 19 16C19 14.3431 17.6569 13 16 13ZM11 16C11 13.2386 13.2386 11 16 11C18.7614 11 21 13.2386 21 16C21 18.7614 18.7614 21 16 21C13.2386 21 11 18.7614 11 16Z" fill="#1100FF"/>
<path fill-rule="evenodd" clip-rule="evenodd" d="M10.345 8.9308C10.7353 9.32153 10.7349 9.9547 10.3442 10.345C9.61475 11.0737 9.03399 11.9373 8.63429 12.8877L8.63286 12.8911C8.21508 13.8743 7.99976 14.9317 7.99976 16C7.99976 17.0683 8.21508 18.1257 8.63286 19.109L8.6343 19.1123C9.03399 20.0628 9.61475 20.9264 10.3442 21.655C10.7349 22.0453 10.7353 22.6785 10.345 23.0692C9.95468 23.46 9.32152 23.4603 8.93078 23.07C8.01824 22.1585 7.29164 21.0782 6.79141 19.8894C6.269 18.6593 5.99976 17.3365 5.99976 16C5.99976 14.6635 6.269 13.3408 6.79141 12.1107C7.29164 10.9218 8.01824 9.84155 8.93078 8.93002C9.32152 8.53971 9.95468 8.54006 10.345 8.9308Z" fill="#1100FF"/>
<path fill-rule="evenodd" clip-rule="evenodd" d="M21.6551 8.9308C22.0454 8.54006 22.6785 8.53971 23.0693 8.93002C23.9818 9.84155 24.7084 10.9218 25.2086 12.1106C25.731 13.3408 26.0003 14.6635 26.0003 16C26.0003 17.3365 25.731 18.6593 25.2086 19.8894C24.7084 21.0782 23.9818 22.1585 23.0693 23.07C22.6785 23.4603 22.0454 23.46 21.6551 23.0692C21.2647 22.6785 21.2651 22.0453 21.6558 21.655C22.3853 20.9264 22.9661 20.0628 23.3657 19.1123L23.3672 19.109C23.785 18.1257 24.0003 17.0683 24.0003 16C24.0003 14.9317 23.785 13.8743 23.3672 12.8911L23.3657 12.8877C22.966 11.9373 22.3853 11.0737 21.6558 10.345C21.2651 9.9547 21.2647 9.32153 21.6551 8.9308Z" fill="#1100FF"/>
<path fill-rule="evenodd" clip-rule="evenodd" d="M6.80655 5.39222C7.19744 5.78238 7.19802 6.41555 6.80785 6.80643C5.62321 7.99326 4.67721 9.39629 4.02112 10.9395C3.34717 12.5415 3 14.262 3 16C3 17.738 3.34716 19.4584 4.0211 21.0604C4.67719 22.6036 5.6232 24.0067 6.80785 25.1935C7.19802 25.5844 7.19744 26.2176 6.80655 26.6077C6.41567 26.9979 5.78251 26.9973 5.39234 26.6064C4.02653 25.2381 2.93595 23.6204 2.17976 21.8411L2.17839 21.8379C1.40064 19.9898 1 18.005 1 16C1 13.9949 1.40064 12.0101 2.1784 10.1621L2.17976 10.1588C2.93595 8.37953 4.02653 6.76185 5.39234 5.39352C5.78251 5.00264 6.41567 5.00205 6.80655 5.39222Z" fill="#1100FF"/>
<path fill-rule="evenodd" clip-rule="evenodd" d="M25.1934 5.39222C25.5843 5.00205 26.2175 5.00264 26.6077 5.39352C27.9735 6.76185 29.064 8.37953 29.8202 10.1588L29.8216 10.1621C30.5994 12.0101 31 13.9949 31 16C31 18.005 30.5994 19.9898 29.8216 21.8379L29.8202 21.8411C29.064 23.6204 27.9735 25.2381 26.6077 26.6064C26.2175 26.9973 25.5843 26.9979 25.1934 26.6077C24.8026 26.2176 24.802 25.5844 25.1921 25.1935C26.3768 24.0067 27.3228 22.6036 27.9789 21.0604C28.6528 19.4584 29 17.738 29 16C29 14.262 28.6528 12.5415 27.9789 10.9395C27.3228 9.39629 26.3768 7.99326 25.1921 6.80643C24.802 6.41555 24.8026 5.78238 25.1934 5.39222Z" fill="#1100FF"/>
</svg>
