<svg width="32" height="32" viewBox="0 0 32 32" fill="none" xmlns="http://www.w3.org/2000/svg">
<path fill-rule="evenodd" clip-rule="evenodd" d="M16 5C11.5817 5 8 8.58172 8 13V19C8 23.4183 11.5817 27 16 27C20.4183 27 24 23.4183 24 19V13C24 8.58172 20.4183 5 16 5ZM6 13C6 7.47715 10.4772 3 16 3C21.5228 3 26 7.47715 26 13V19C26 24.5228 21.5228 29 16 29C10.4772 29 6 24.5228 6 19V13Z" fill="#1100FF"/>
<path fill-rule="evenodd" clip-rule="evenodd" d="M24 17C24 16.4477 24.4477 16 25 16H28C28.5523 16 29 16.4477 29 17C29 17.5523 28.5523 18 28 18H25C24.4477 18 24 17.5523 24 17Z" fill="#1100FF"/>
<path fill-rule="evenodd" clip-rule="evenodd" d="M3 17C3 16.4477 3.44772 16 4 16H7C7.55228 16 8 16.4477 8 17C8 17.5523 7.55228 18 7 18H4C3.44772 18 3 17.5523 3 17Z" fill="#1100FF"/>
<path fill-rule="evenodd" clip-rule="evenodd" d="M3 21C3 20.4477 3.44772 20 4 20H7.225C7.77728 20 8.225 20.4477 8.225 21C8.225 21.5523 7.77728 22 7.225 22H4C3.44772 22 3 21.5523 3 21Z" fill="#1100FF"/>
<path fill-rule="evenodd" clip-rule="evenodd" d="M3 13C3 12.4477 3.44772 12 4 12H28C28.5523 12 29 12.4477 29 13C29 13.5523 28.5523 14 28 14H4C3.44772 14 3 13.5523 3 13Z" fill="#1100FF"/>
<path fill-rule="evenodd" clip-rule="evenodd" d="M16 16C16.5523 16 17 16.4477 17 17V28C17 28.5523 16.5523 29 16 29C15.4477 29 15 28.5523 15 28V17C15 16.4477 15.4477 16 16 16Z" fill="#1100FF"/>
<path fill-rule="evenodd" clip-rule="evenodd" d="M23.7749 21C23.7749 20.4477 24.2226 20 24.7749 20H27.9999C28.5522 20 28.9999 20.4477 28.9999 21C28.9999 21.5523 28.5522 22 27.9999 22H24.7749C24.2226 22 23.7749 21.5523 23.7749 21Z" fill="#1100FF"/>
<path fill-rule="evenodd" clip-rule="evenodd" d="M6.2624 2.81141C6.6427 2.41092 7.27565 2.39455 7.67614 2.77485L10.6511 5.59985C11.0516 5.98015 11.068 6.6131 10.6877 7.01359C10.3074 7.41408 9.67445 7.43045 9.27396 7.05015L6.29896 4.22515C5.89847 3.84486 5.8821 3.2119 6.2624 2.81141Z" fill="#1100FF"/>
<path fill-rule="evenodd" clip-rule="evenodd" d="M25.7126 2.81149C26.0929 3.21203 26.0764 3.84498 25.6759 4.22523L22.7134 7.03773C22.3129 7.41798 21.6799 7.40154 21.2997 7.00101C20.9194 6.60048 20.9359 5.96753 21.3364 5.58727L24.2989 2.77477C24.6994 2.39452 25.3324 2.41096 25.7126 2.81149Z" fill="#1100FF"/>
</svg>
