<svg width="32" height="32" viewBox="0 0 32 32" fill="none" xmlns="http://www.w3.org/2000/svg">
<path d="M23.5 4.00004H7.97127C5.77253 4.00879 3.99128 5.80504 4.00003 8.00004V27C4.00003 28.1025 4.89753 29 6.00003 29H9.00002C10.1025 29 11 28.1025 11 27V25H20.5V27C20.5 28.1025 21.3975 29 22.5 29H25.5C26.6025 29 27.5 28.1025 27.5 27V7.97129C27.4912 5.77254 25.6887 3.99004 23.5 4.00004ZM6.00003 23V16H25.5V23H6.00003ZM6.00003 10H25.5V14H6.00003V10ZM7.97878 6.00004H23.5112C24.6037 6.00004 25.4937 6.88629 25.4987 7.97503V8.00004H6.00003V7.99628C5.99503 6.90004 6.88378 6.00504 7.97878 6.00004ZM9.00002 27H6.00003V25H9.00002V27ZM22.5 27V25H25.5V27H22.5Z" fill="#1100FF"/>
<path d="M10.25 21C11.0784 21 11.75 20.3284 11.75 19.5C11.75 18.6716 11.0784 18 10.25 18C9.4216 18 8.75003 18.6716 8.75003 19.5C8.75003 20.3284 9.4216 21 10.25 21Z" fill="#1100FF"/>
<path d="M21.25 21C22.0784 21 22.75 20.3284 22.75 19.5C22.75 18.6716 22.0784 18 21.25 18C20.4216 18 19.75 18.6716 19.75 19.5C19.75 20.3284 20.4216 21 21.25 21Z" fill="#1100FF"/>
</svg>
