<svg width="32" height="32" viewBox="0 0 32 32" fill="none" xmlns="http://www.w3.org/2000/svg">
<path d="M25.5175 10.0002C25.5175 10.0002 25.5063 10.0002 25.5013 10.0002H16.75V8.68021C18.1863 8.03896 19.0288 7.11521 19.2575 5.92646C19.7725 3.25021 16.7513 0.543958 16.405 0.243958C16.035 -0.0760417 15.4863 -0.0822918 15.11 0.231458C14.7525 0.528958 11.6338 3.21896 12.1388 5.90021C12.3663 7.10896 13.2438 8.04521 14.75 8.69021V10.0002H5.97128C3.77253 10.009 1.99128 11.8052 2.00003 14.0002V15.6627C2.00003 17.0965 2.59003 18.4977 3.61878 19.504C3.66128 19.5465 3.70628 19.5865 3.75003 19.6265V25.999C3.75003 27.1015 4.64753 27.999 5.75003 27.999H25.75C26.8525 27.999 27.75 27.1015 27.75 25.999V19.6265C27.7938 19.5865 27.8388 19.5465 27.8813 19.504C28.91 18.4965 29.5 17.0965 29.5 15.6615V13.9702C29.4913 11.7777 27.7038 9.99896 25.5163 9.99896L25.5175 10.0002ZM14.105 5.53146C13.9938 4.94521 14.3288 4.11146 15.0488 3.18271C15.2813 2.88271 15.5238 2.61271 15.7363 2.39146C15.94 2.61271 16.17 2.88021 16.3913 3.17771C17.0875 4.11396 17.4075 4.95646 17.2925 5.55146C17.1863 6.10021 16.665 6.56521 15.7425 6.93646C15.0063 6.65146 14.23 6.19771 14.1038 5.53146H14.105ZM4.00003 13.9965C3.99753 13.4652 4.20253 12.9652 4.57628 12.589C4.95003 12.2115 5.44878 12.0027 5.97878 12.0015H25.5125C26.605 12.0015 27.495 12.8877 27.5 13.9765V15.664C27.5 16.564 27.1288 17.444 26.4825 18.0765C25.855 18.6902 25.0363 19.019 24.1838 19.0015C22.4288 18.9652 21 17.5077 21.0013 15.7515C21.0013 15.7377 21 15.724 20.9988 15.709C20.9988 15.689 20.9988 15.669 20.9963 15.649C20.9963 15.6402 20.9938 15.6315 20.9925 15.6227C20.9888 15.599 20.9863 15.574 20.9813 15.5502C20.9813 15.5452 20.9788 15.5402 20.9775 15.5352C20.9713 15.5077 20.965 15.4802 20.9563 15.454C20.955 15.449 20.9525 15.4452 20.9513 15.4402C20.9425 15.414 20.9338 15.3877 20.9225 15.3627C20.91 15.3327 20.8963 15.3027 20.8813 15.2752C20.8813 15.2727 20.8788 15.2715 20.8775 15.269C20.8625 15.2427 20.8475 15.2165 20.8313 15.1927C20.8263 15.1865 20.8213 15.1802 20.8163 15.174C20.8025 15.154 20.7888 15.1352 20.7738 15.1165C20.7688 15.1102 20.7638 15.1052 20.7588 15.1002C20.7425 15.0815 20.7263 15.0627 20.71 15.0465C20.7038 15.0402 20.6975 15.0352 20.6913 15.029C20.6738 15.0127 20.6575 14.9965 20.6388 14.9815C20.6313 14.9752 20.6238 14.9702 20.6163 14.964C20.5988 14.9502 20.5813 14.9365 20.5625 14.924C20.555 14.919 20.5463 14.9152 20.5388 14.9102C20.5188 14.8977 20.5 14.8852 20.48 14.874C20.4763 14.8715 20.4713 14.8702 20.4675 14.8677C20.4425 14.8552 20.4188 14.8427 20.3925 14.8315C20.3875 14.829 20.3825 14.8277 20.3775 14.8265C20.3525 14.8165 20.3263 14.8065 20.3 14.7977C20.2875 14.794 20.275 14.7915 20.2625 14.7877C20.2438 14.7827 20.2238 14.7765 20.205 14.7727C20.1913 14.7702 20.1775 14.769 20.1638 14.7665C20.145 14.764 20.1263 14.7602 20.1063 14.7577C20.09 14.7565 20.0738 14.7565 20.0588 14.7552C20.0413 14.7552 20.0225 14.7527 20.005 14.7527C19.9475 14.7527 19.8925 14.759 19.8375 14.7677C19.8263 14.7702 19.815 14.7702 19.8038 14.7727C19.3838 14.859 19.06 15.2077 19.0113 15.6415C19.0113 15.644 19.0113 15.6477 19.01 15.6502C19.0075 15.6715 19.0075 15.6915 19.0063 15.7127C19.0063 15.7265 19.0038 15.739 19.0038 15.7515C19.0038 17.544 17.5463 19.0015 15.7538 19.0015C13.9613 19.0015 12.5038 17.544 12.5038 15.7515C12.5038 15.7315 12.5025 15.7115 12.5013 15.6927C12.5013 15.679 12.5013 15.664 12.4988 15.649C12.4975 15.634 12.4938 15.6202 12.4925 15.6065C12.49 15.5877 12.4875 15.569 12.4838 15.5502C12.4838 15.5465 12.4813 15.5427 12.4813 15.539C12.3975 15.154 12.0925 14.8515 11.7063 14.7715C11.6413 14.7577 11.5738 14.7515 11.505 14.7515C11.4913 14.7515 11.4775 14.7527 11.4638 14.754C11.4438 14.754 11.4225 14.754 11.4025 14.7565C11.395 14.7565 11.3875 14.759 11.38 14.7602C11.3538 14.764 11.3275 14.7665 11.3025 14.7715L11.2975 14.7727C11.2338 14.7865 11.1725 14.8052 11.115 14.8302H11.1125C10.9038 14.9202 10.7325 15.0777 10.625 15.2752C10.6175 15.289 10.6113 15.3027 10.605 15.3177C10.5975 15.3327 10.59 15.3477 10.5838 15.3627C10.5763 15.379 10.5713 15.3965 10.565 15.4127C10.56 15.4265 10.5538 15.4402 10.55 15.454C10.5425 15.4777 10.5375 15.5015 10.5313 15.5265C10.53 15.534 10.5275 15.5415 10.525 15.5502C10.52 15.574 10.5175 15.599 10.5138 15.6227C10.5138 15.6315 10.51 15.6402 10.51 15.649C10.5075 15.669 10.5075 15.689 10.5075 15.709C10.5075 15.7227 10.505 15.7365 10.505 15.7502C10.505 17.5065 9.07753 18.964 7.32128 19.0002C6.46753 19.019 5.65003 18.6902 5.02253 18.0752C4.37503 17.4415 4.00503 16.5627 4.00503 15.6627V13.9965H4.00003ZM25.75 26.0002H5.75003V20.7777C6.23128 20.9252 6.73503 21.0015 7.24878 21.0015C7.28503 21.0015 7.32128 21.0015 7.35878 21.0015C9.05378 20.9665 10.5588 20.1102 11.4963 18.8227C12.4513 20.1415 14.0013 21.0015 15.75 21.0015C17.4988 21.0015 19.05 20.1415 20.0038 18.8227C20.9413 20.1115 22.4463 20.9665 24.1413 21.0015C24.695 21.014 25.235 20.9377 25.75 20.7802V26.0015V26.0002Z" fill="#1100FF"/>
</svg>
