<svg width="32" height="32" viewBox="0 0 32 32" fill="none" xmlns="http://www.w3.org/2000/svg">
<path fill-rule="evenodd" clip-rule="evenodd" d="M11.1679 4.4453C11.3534 4.1671 11.6656 4 12 4H20C20.3344 4 20.6466 4.1671 20.8321 4.4453L22.5352 7H26C26.7957 7 27.5587 7.31607 28.1213 7.87868C28.6839 8.44129 29 9.20435 29 10V24C29 24.7957 28.6839 25.5587 28.1213 26.1213C27.5587 26.6839 26.7957 27 26 27H6C5.20435 27 4.44129 26.6839 3.87868 26.1213C3.31607 25.5587 3 24.7957 3 24V10C3 9.20435 3.31607 8.44129 3.87868 7.87868C4.44129 7.31607 5.20435 7 6 7H9.46482L11.1679 4.4453ZM12.5352 6L10.8321 8.5547C10.6466 8.8329 10.3344 9 10 9H6C5.73478 9 5.48043 9.10536 5.29289 9.29289C5.10536 9.48043 5 9.73478 5 10V24C5 24.2652 5.10536 24.5196 5.29289 24.7071C5.48043 24.8946 5.73478 25 6 25H26C26.2652 25 26.5196 24.8946 26.7071 24.7071C26.8946 24.5196 27 24.2652 27 24V10C27 9.73478 26.8946 9.48043 26.7071 9.29289C26.5196 9.10536 26.2652 9 26 9H22C21.6656 9 21.3534 8.8329 21.1679 8.5547L19.4648 6H12.5352Z" fill="#1100FF"/>
<path fill-rule="evenodd" clip-rule="evenodd" d="M11.7567 12.254C12.8836 11.1315 14.4093 10.5012 15.9999 10.5012C17.5905 10.5012 19.1163 11.1315 20.2431 12.254L20.2576 12.2688L22.2201 14.3063C22.6033 14.704 22.5914 15.3371 22.1936 15.7202C21.7959 16.1034 21.1628 16.0915 20.7797 15.6937L18.8247 13.6641C18.0734 12.9193 17.0581 12.5012 15.9999 12.5012C14.9384 12.5012 13.9202 12.9218 13.1681 13.671C12.7769 14.0607 12.1437 14.0595 11.7539 13.6682C11.3642 13.2769 11.3654 12.6438 11.7567 12.254Z" fill="#1100FF"/>
<path fill-rule="evenodd" clip-rule="evenodd" d="M9.80627 17.2798C10.2041 16.8966 10.8371 16.9085 11.2202 17.3063L13.1752 19.3359C13.9265 20.0807 14.9418 20.4988 16 20.4988C17.0615 20.4988 18.0797 20.0782 18.8318 19.329C19.223 18.9393 19.8562 18.9405 20.246 19.3318C20.6357 19.723 20.6345 20.3562 20.2432 20.746C19.1164 21.8685 17.5906 22.4988 16 22.4988C14.4094 22.4988 12.8837 21.8685 11.7568 20.746L11.7423 20.7312L9.77976 18.6937C9.39663 18.296 9.4085 17.6629 9.80627 17.2798Z" fill="#1100FF"/>
<path fill-rule="evenodd" clip-rule="evenodd" d="M22.1646 11.0136C22.7093 11.1044 23.0773 11.6196 22.9865 12.1644L22.4865 15.1644C22.4163 15.5858 22.086 15.9161 21.6646 15.9864L18.6646 16.4864C18.1198 16.5772 17.6046 16.2091 17.5138 15.6644C17.423 15.1196 17.791 14.6044 18.3358 14.5136L20.6312 14.131L21.0138 11.8356C21.1046 11.2908 21.6198 10.9228 22.1646 11.0136Z" fill="#1100FF"/>
<path fill-rule="evenodd" clip-rule="evenodd" d="M14.4865 17.3356C14.5773 17.8803 14.2093 18.3956 13.6646 18.4864L11.3691 18.8689L10.9865 21.1644C10.8958 21.7091 10.3805 22.0772 9.83576 21.9864C9.29099 21.8956 8.92297 21.3803 9.01376 20.8356L9.51376 17.8356C9.58401 17.4141 9.91428 17.0838 10.3358 17.0136L13.3358 16.5136C13.8805 16.4228 14.3958 16.7908 14.4865 17.3356Z" fill="#1100FF"/>
</svg>
