<svg width="32" height="32" viewBox="0 0 32 32" fill="none" xmlns="http://www.w3.org/2000/svg">
<path fill-rule="evenodd" clip-rule="evenodd" d="M3.51501 2.25991C3.92376 1.8885 4.5562 1.91876 4.92761 2.32751L28.5526 28.3275C28.924 28.7363 28.8937 29.3687 28.485 29.7401C28.0763 30.1115 27.4438 30.0812 27.0724 29.6725L3.44741 3.6725C3.076 3.26376 3.10626 2.63132 3.51501 2.25991Z" fill="#1100FF"/>
<path fill-rule="evenodd" clip-rule="evenodd" d="M11.1681 4.4453C11.3535 4.1671 11.6658 4 12.0001 4H20.0001C20.3345 4 20.6467 4.1671 20.8322 4.4453L22.5353 7H26.0001C26.7958 7 27.5588 7.31607 28.1214 7.87868C28.684 8.44129 29.0001 9.20435 29.0001 10V23.25C29.0001 23.8023 28.5524 24.25 28.0001 24.25C27.4478 24.25 27.0001 23.8023 27.0001 23.25V10C27.0001 9.73478 26.8947 9.48043 26.7072 9.29289C26.5197 9.10536 26.2653 9 26.0001 9H22.0001C21.6658 9 21.3535 8.8329 21.1681 8.5547L19.4649 6H12.5308C12.2104 6.40119 11.6306 6.49715 11.1954 6.20705C10.7359 5.9007 10.6117 5.27983 10.9181 4.8203L11.1681 4.4453Z" fill="#1100FF"/>
<path fill-rule="evenodd" clip-rule="evenodd" d="M6 9C5.73478 9 5.48043 9.10536 5.29289 9.29289C5.10536 9.48043 5 9.73478 5 10V24C5 24.2652 5.10536 24.5196 5.29289 24.7071C5.48043 24.8946 5.73478 25 6 25H25.0875C25.6398 25 26.0875 25.4477 26.0875 26C26.0875 26.5523 25.6398 27 25.0875 27H6C5.20435 27 4.44129 26.6839 3.87868 26.1213C3.31607 25.5587 3 24.7957 3 24V10C3 9.20435 3.31607 8.44129 3.87868 7.87868C4.44129 7.31607 5.20435 7 6 7H8.725C9.27729 7 9.725 7.44772 9.725 8C9.725 8.55228 9.27729 9 8.725 9H6Z" fill="#1100FF"/>
<path fill-rule="evenodd" clip-rule="evenodd" d="M14.0064 12.3261C14.351 12.7578 14.2804 13.387 13.8487 13.7315C13.4749 14.0299 13.1662 14.4018 12.9417 14.8242C12.7172 15.2466 12.5816 15.7105 12.5434 16.1873C12.5052 16.6641 12.5651 17.1436 12.7195 17.5964C12.8738 18.0491 13.1194 18.4654 13.4409 18.8196C13.7624 19.1737 14.1531 19.4582 14.5889 19.6555C15.0247 19.8527 15.4962 19.9585 15.9745 19.9664C16.4528 19.9743 16.9276 19.8841 17.3696 19.7013C17.8117 19.5185 18.2115 19.2471 18.5446 18.9038C18.9291 18.5073 19.5622 18.4977 19.9586 18.8822C20.355 19.2667 20.3647 19.8998 19.9802 20.2962C19.4568 20.8358 18.8285 21.2623 18.1338 21.5496C17.4392 21.8368 16.6931 21.9786 15.9415 21.9662C15.19 21.9538 14.4489 21.7875 13.7641 21.4775C13.0794 21.1675 12.4654 20.7205 11.9601 20.1639C11.4549 19.6074 11.069 18.9532 10.8265 18.2418C10.5839 17.5304 10.4898 16.7767 10.5498 16.0275C10.6099 15.2782 10.8229 14.5492 11.1757 13.8855C11.5285 13.2217 12.0136 12.6374 12.601 12.1684C13.0326 11.8239 13.6619 11.8945 14.0064 12.3261Z" fill="#1100FF"/>
</svg>
