<svg width="32" height="32" viewBox="0 0 32 32" fill="none" xmlns="http://www.w3.org/2000/svg">
<path d="M25.2308 7H6.76923C5.24269 7 4 8.24269 4 9.76923V22.6923C4 24.2188 5.24269 25.4615 6.76923 25.4615H25.2308C26.7573 25.4615 28 24.2188 28 22.6923V9.76923C28 8.24269 26.7573 7 25.2308 7ZM5.84615 12.5385H26.1538V14.3846H20.5185C19.6438 14.3846 18.8904 15.0031 18.7196 15.8604C18.49 16.9312 17.65 17.7688 16.5781 17.9973C15.8512 18.1508 15.1081 18.0135 14.485 17.6085C13.8642 17.2046 13.4362 16.5838 13.2815 15.8604C13.1096 14.9996 12.3492 14.3823 11.4769 14.3846H5.84615V12.5385ZM6.76923 8.84615H25.2308C25.7396 8.84615 26.1538 9.26038 26.1538 9.76923V10.6923H5.84615V9.76923C5.84615 9.26038 6.26038 8.84615 6.76923 8.84615ZM25.2308 23.6154H6.76923C6.26038 23.6154 5.84615 23.2012 5.84615 22.6923V16.2308H11.4723V16.2377C11.7308 17.4469 12.4427 18.4831 13.4788 19.1569C14.2381 19.6508 15.1058 19.9058 15.9908 19.9058C16.3138 19.9058 16.6381 19.8723 16.9612 19.8031C18.7473 19.4235 20.1469 18.025 20.5265 16.2377V16.2308H26.1538V22.6923C26.1538 23.2012 25.7396 23.6154 25.2308 23.6154Z" fill="#1100FF"/>
</svg>
