<svg width="32" height="32" viewBox="0 0 32 32" fill="none" xmlns="http://www.w3.org/2000/svg">
<path fill-rule="evenodd" clip-rule="evenodd" d="M16 23C16.5523 23 17 23.4477 17 24V28C17 28.5523 16.5523 29 16 29C15.4477 29 15 28.5523 15 28V24C15 23.4477 15.4477 23 16 23Z" fill="#1100FF"/>
<path d="M10.5 19C11.3284 19 12 18.3284 12 17.5C12 16.6716 11.3284 16 10.5 16C9.67157 16 9 16.6716 9 17.5C9 18.3284 9.67157 19 10.5 19Z" fill="#1100FF"/>
<path d="M21.5 19C22.3284 19 23 18.3284 23 17.5C23 16.6716 22.3284 16 21.5 16C20.6716 16 20 16.6716 20 17.5C20 18.3284 20.6716 19 21.5 19Z" fill="#1100FF"/>
<path fill-rule="evenodd" clip-rule="evenodd" d="M16 5C16.5523 5 17 5.44772 17 6V11C17 11.5523 16.5523 12 16 12C15.4477 12 15 11.5523 15 11V6C15 5.44772 15.4477 5 16 5Z" fill="#1100FF"/>
<path fill-rule="evenodd" clip-rule="evenodd" d="M13.2929 21.2929C13.6834 20.9024 14.3166 20.9024 14.7071 21.2929L16 22.5858L17.2929 21.2929C17.6834 20.9024 18.3166 20.9024 18.7071 21.2929C19.0976 21.6834 19.0976 22.3166 18.7071 22.7071L16.7071 24.7071C16.3166 25.0976 15.6834 25.0976 15.2929 24.7071L13.2929 22.7071C12.9024 22.3166 12.9024 21.6834 13.2929 21.2929Z" fill="#1100FF"/>
<path fill-rule="evenodd" clip-rule="evenodd" d="M12 5.625C12.5523 5.625 13 6.07272 13 6.625V11C13 11.5523 12.5523 12 12 12C11.4477 12 11 11.5523 11 11V6.625C11 6.07272 11.4477 5.625 12 5.625Z" fill="#1100FF"/>
<path fill-rule="evenodd" clip-rule="evenodd" d="M20 5.625C20.5523 5.625 21 6.07272 21 6.625V11C21 11.5523 20.5523 12 20 12C19.4477 12 19 11.5523 19 11V6.625C19 6.07272 19.4477 5.625 20 5.625Z" fill="#1100FF"/>
<path fill-rule="evenodd" clip-rule="evenodd" d="M5.7125 5.71239L5 6.41406L5.7125 5.71239ZM4.24326 4.56275C4.61036 4.4127 5.01378 4.37517 5.40226 4.45493C5.78928 4.5344 6.14405 4.7267 6.42186 5.00754L8.56918 7.15486C10.78 5.73557 13.3606 4.98372 16 5C18.6394 4.98372 21.22 5.73557 23.4308 7.15486L25.5782 5.00745C25.856 4.72666 26.2108 4.53439 26.5977 4.45493C26.9862 4.37517 27.3896 4.4127 27.7567 4.56275C28.1238 4.71281 28.438 4.96861 28.6594 5.29766C28.8808 5.62671 28.9993 6.01414 29 6.41072L29 6.41239L29 16.9999C29 23.7074 23.0935 29 16 29C8.90653 29 3 23.7074 3 16.9999V6.41072C3.00066 6.01414 3.11921 5.62671 3.34059 5.29766C3.56196 4.96861 3.87616 4.71281 4.24326 4.56275ZM23.55 8.44989L22.9574 9.25543C20.944 7.77436 18.5061 6.98323 16.0067 6.99987L15.9933 6.99996C13.4939 6.98332 11.056 7.77436 9.04255 9.25543C8.64451 9.54822 8.0923 9.5064 7.74289 9.157L5 6.41406L5 16.9999C5 22.4424 9.84347 26.9999 16 26.9999C22.1565 26.9999 27 22.4424 27 16.9999L27 6.41406L26.9946 6.41952L24.2571 9.157L23.55 8.44989Z" fill="#1100FF"/>
</svg>
