<svg width="32" height="32" viewBox="0 0 32 32" fill="none" xmlns="http://www.w3.org/2000/svg">
<path fill-rule="evenodd" clip-rule="evenodd" d="M5.32733 4.25994C5.73599 3.88844 6.36844 3.91855 6.73995 4.32721L26.7399 26.3272C27.1115 26.7359 27.0813 27.3683 26.6727 27.7398C26.264 28.1113 25.6316 28.0812 25.2601 27.6726L5.26007 5.67256C4.88856 5.2639 4.91868 4.63145 5.32733 4.25994Z" fill="#1100FF"/>
<path fill-rule="evenodd" clip-rule="evenodd" d="M23.5975 3.45493C23.986 3.37517 24.3894 3.4127 24.7565 3.56275C25.1236 3.71281 25.4378 3.96861 25.6592 4.29766C25.8806 4.62671 25.9991 5.01414 25.9998 5.41072L25.9998 5.41239L25.9998 19.9499C25.9998 20.5022 25.5521 20.9499 24.9998 20.9499C24.4475 20.9499 23.9998 20.5022 23.9998 19.9499L23.9998 5.41406L23.9944 5.41952L17.6319 11.782C17.2414 12.1725 16.6082 12.1725 16.2177 11.782C15.8272 11.3915 15.8272 10.7583 16.2177 10.3678L22.5779 4.00755C22.8557 3.72671 23.2105 3.5344 23.5975 3.45493Z" fill="#1100FF"/>
<path fill-rule="evenodd" clip-rule="evenodd" d="M14.807 13.1928C15.1975 13.5833 15.1975 14.2165 14.807 14.607L3.41411 25.9999H25.9999C26.5522 25.9999 26.9999 26.4476 26.9999 26.9999C26.9999 27.5522 26.5522 27.9999 25.9999 27.9999H3.41072C3.01414 27.9992 2.62671 27.8807 2.29766 27.6593C1.96861 27.4379 1.71281 27.1237 1.56275 26.7566C1.4127 26.3895 1.37517 25.9861 1.45493 25.5976C1.5344 25.2106 1.72671 24.8558 2.00756 24.578L13.3928 13.1928C13.7833 12.8023 14.4165 12.8023 14.807 13.1928Z" fill="#1100FF"/>
</svg>
