<svg width="32" height="32" viewBox="0 0 32 32" fill="none" xmlns="http://www.w3.org/2000/svg">
<path fill-rule="evenodd" clip-rule="evenodd" d="M16 3C16.5523 3 17 3.44772 17 4V16C17 16.5523 16.5523 17 16 17C15.4477 17 15 16.5523 15 16V4C15 3.44772 15.4477 3 16 3Z" fill="#1100FF"/>
<path fill-rule="evenodd" clip-rule="evenodd" d="M27.2534 9.49975C27.5296 9.97799 27.3659 10.5896 26.8876 10.8658L6.11264 22.8658C5.63441 23.1421 5.02278 22.9783 4.74655 22.5001C4.47031 22.0219 4.63406 21.4102 5.1123 21.134L25.8873 9.134C26.3655 8.85776 26.9772 9.02151 27.2534 9.49975Z" fill="#1100FF"/>
<path fill-rule="evenodd" clip-rule="evenodd" d="M12.5778 3.87122C12.8427 4.05867 13.0001 4.363 13.0001 4.68751V13.6875C13.0001 14.0445 12.8099 14.3743 12.5009 14.5531L4.70089 19.0656C4.42008 19.228 4.07792 19.2442 3.78307 19.1089C3.48822 18.9736 3.27732 18.7037 3.21736 18.3849C3.06934 17.5979 2.9966 16.7987 3.00012 15.998C2.99895 13.3102 3.83177 10.6881 5.38375 8.4935C6.93623 6.29819 9.13181 4.63885 11.6675 3.74445C11.9735 3.63651 12.3129 3.68377 12.5778 3.87122ZM11.0001 6.20206C9.41895 7.00756 8.04958 8.18771 7.01668 9.64829C5.70327 11.5055 4.99867 13.7246 5.00012 15.9994L5.00011 16.0046C4.99924 16.1948 5.00347 16.3848 5.0128 16.5746L11.0001 13.1107V6.20206Z" fill="#1100FF"/>
<path fill-rule="evenodd" clip-rule="evenodd" d="M15 4C15 3.44772 15.4477 3 16 3C18.2779 3.00026 20.516 3.59907 22.4896 4.73644C24.4633 5.87382 26.1035 7.50983 27.2458 9.48061C28.3882 11.4514 28.9926 13.6877 28.9987 15.9657C29.0047 18.2436 28.412 20.4831 27.2801 22.4599C26.1482 24.4367 24.5167 26.0813 22.549 27.2291C20.5814 28.3769 18.3467 28.9875 16.0688 28.9998C13.791 29.0121 11.5498 28.4256 9.56992 27.2991C7.59002 26.1727 5.94088 24.5457 4.78768 22.5813C4.50808 22.105 4.66753 21.4922 5.14381 21.2126C5.6201 20.933 6.23286 21.0925 6.51245 21.5688C7.48824 23.231 8.88366 24.6076 10.559 25.5608C12.2343 26.514 14.1306 27.0102 16.0581 26.9998C17.9855 26.9894 19.8764 26.4728 21.5413 25.5016C23.2062 24.5304 24.5867 23.1387 25.5445 21.4661C26.5023 19.7934 27.0038 17.8984 26.9987 15.9709C26.9936 14.0435 26.4821 12.1512 25.5155 10.4836C24.5489 8.81601 23.1611 7.43169 21.491 6.4693C19.821 5.5069 17.9274 5.00022 15.9999 5C15.4477 4.99994 14.9999 4.55228 15 4Z" fill="#1100FF"/>
</svg>
