<svg width="32" height="32" viewBox="0 0 32 32" fill="none" xmlns="http://www.w3.org/2000/svg">
<path d="M21.195 9.0725C19.6663 5.505 16.12 3 12 3C6.48625 3 2 7.48625 2 13V21.25C2 22.215 2.785 23 3.75 23H10.8337C12.4125 26.6162 16.0087 29 19.9975 29H28.25C29.215 29 30 28.215 30 27.25V19.0012C30.0075 13.9025 26.19 9.66375 21.195 9.0725ZM4 13C4 8.58875 7.58875 5 12 5C15.4725 5 18.4338 7.22375 19.5375 10.3212C19.5425 10.3362 19.5462 10.35 19.5525 10.365C19.8412 11.1912 20 12.0775 20 13C20 17.4113 16.4113 21 12 21H4V13ZM28 27H19.9975C17.09 27 14.4438 25.4163 13.04 22.9463C18.0662 22.4238 22 18.1625 22 13C22 12.39 21.9425 11.7925 21.8363 11.2125C25.3913 12.0425 28.005 15.2262 28 19V27Z" fill="#1100FF"/>
</svg>
