<svg width="32" height="32" viewBox="0 0 32 32" fill="none" xmlns="http://www.w3.org/2000/svg">
<path fill-rule="evenodd" clip-rule="evenodd" d="M12.5124 4.99048C10.564 4.86867 8.63816 5.46241 7.09656 6.66017C5.55495 7.85793 4.50367 9.57731 4.14016 11.4954C3.77664 13.4135 4.1259 15.3983 5.12234 17.0771C5.26268 17.3135 5.29948 17.5973 5.22409 17.8617L4.46059 20.5393L7.13821 19.7758C7.40261 19.7004 7.6864 19.7372 7.92283 19.8775C9.6016 20.874 11.5864 21.2232 13.5045 20.8597C15.4226 20.4962 17.142 19.4449 18.3397 17.9033C19.5375 16.3617 20.1312 14.4359 20.0094 12.4874C19.8876 10.539 19.0586 8.7021 17.6782 7.32167C16.2978 5.94124 14.4609 5.11228 12.5124 4.99048ZM5.86948 5.08084C7.79589 3.5841 10.2025 2.84217 12.6372 2.99437C15.072 3.14658 17.3674 4.18246 19.0924 5.90746C20.8174 7.63246 21.8533 9.9279 22.0055 12.3627C22.1577 14.7974 21.4158 17.204 19.9191 19.1304C18.4223 21.0568 16.2738 22.3705 13.8769 22.8248C11.6244 23.2516 9.29834 22.8919 7.28519 21.8136L4.57413 22.5866L4.57057 22.5876C4.27135 22.6718 3.95511 22.6747 3.65437 22.5961C3.35364 22.5175 3.07927 22.3602 2.85949 22.1404C2.6397 21.9206 2.48241 21.6462 2.4038 21.3455C2.3252 21.0448 2.32811 20.7285 2.41224 20.4293L2.41325 20.4258L3.18628 17.7147C2.10797 15.7016 1.74825 13.3754 2.17513 11.123C2.62939 8.72613 3.94308 6.57757 5.86948 5.08084Z" fill="#1100FF"/>
<path fill-rule="evenodd" clip-rule="evenodd" d="M19.4889 9.96005C19.5178 9.40853 19.9884 8.9849 20.5399 9.01385C22.2579 9.10404 23.9235 9.63647 25.3752 10.5596C26.827 11.4826 28.0157 12.7651 28.8261 14.2826C29.6366 15.8001 30.0413 17.5012 30.0011 19.2211C29.9643 20.7938 29.5566 22.3335 28.8139 23.7155L29.5877 26.4293C29.6718 26.7285 29.6747 27.0448 29.5961 27.3455C29.5175 27.6463 29.3602 27.9206 29.1404 28.1404C28.9206 28.3602 28.6463 28.5175 28.3455 28.5961C28.0448 28.6747 27.7285 28.6718 27.4293 28.5877L27.4258 28.5866L24.7151 27.8137C23.5438 28.4421 22.2575 28.8311 20.9312 28.9562C19.4586 29.0951 17.9735 28.9052 16.5832 28.4001C15.1929 27.895 13.9321 27.0874 12.892 26.0357C11.8519 24.9839 11.0584 23.7143 10.5688 22.3184C10.386 21.7973 10.6603 21.2266 11.1815 21.0438C11.7027 20.861 12.2733 21.1353 12.4561 21.6565C12.8477 22.7728 13.4823 23.7882 14.3141 24.6293C15.1459 25.4705 16.1542 26.1163 17.2661 26.5203C18.378 26.9242 19.5657 27.0761 20.7434 26.9651C21.9212 26.854 23.0596 26.4827 24.0763 25.878L24.5875 26.7375L24.8617 25.7758L27.5393 26.5393L26.7758 23.8617C26.7003 23.5967 26.7374 23.3124 26.8784 23.0757C27.5826 21.8937 27.9695 20.5498 28.0016 19.1743C28.0338 17.7988 27.7101 16.4384 27.0619 15.2248C26.4138 14.0111 25.4631 12.9855 24.3021 12.2473C23.1411 11.509 21.809 11.0832 20.4351 11.0111C19.8835 10.9821 19.4599 10.5116 19.4889 9.96005Z" fill="#1100FF"/>
</svg>
