<svg width="32" height="32" viewBox="0 0 32 32" fill="none" xmlns="http://www.w3.org/2000/svg">
<path fill-rule="evenodd" clip-rule="evenodd" d="M11.9091 4.67086C12.1392 5.17292 11.9187 5.76646 11.4167 5.99658C9.13502 7.04238 7.27962 8.83702 6.15846 11.0826C5.0373 13.3282 4.7178 15.8897 5.25301 18.3419C5.78822 20.794 7.14594 22.9894 9.1008 24.5637C11.0557 26.1379 13.4901 26.9962 16 26.9962C18.5099 26.9962 20.9444 26.1379 22.8992 24.5637C24.8541 22.9894 26.2118 20.794 26.747 18.3419C27.2822 15.8897 26.9627 13.3282 25.8416 11.0826C24.7204 8.83702 22.865 7.04238 20.5834 5.99658C20.0813 5.76646 19.8608 5.17292 20.091 4.67086C20.3211 4.1688 20.9146 3.94835 21.4167 4.17846C24.1132 5.41441 26.3059 7.53534 27.6309 10.1892C28.956 12.8431 29.3335 15.8703 28.701 18.7683C28.0685 21.6664 26.4639 24.2609 24.1536 26.1214C21.8433 27.9818 18.9663 28.9962 16 28.9962C13.0338 28.9962 10.1567 27.9818 7.8464 26.1214C5.53611 24.2609 3.93153 21.6664 3.29901 18.7683C2.66649 15.8703 3.04408 12.8431 4.36909 10.1892C5.6941 7.53534 7.88684 5.41441 10.5833 4.17846C11.0854 3.94835 11.679 4.1688 11.9091 4.67086Z" fill="#1100FF"/>
</svg>
