<svg width="32" height="32" viewBox="0 0 32 32" fill="none" xmlns="http://www.w3.org/2000/svg">
<path fill-rule="evenodd" clip-rule="evenodd" d="M8.21839 6.80403C8.60964 7.19383 8.61082 7.82699 8.22102 8.21824C6.85943 9.5849 5.87935 11.2842 5.37828 13.1472C5.23484 13.6805 4.6862 13.9966 4.15287 13.8531C3.61954 13.7097 3.30347 13.161 3.44692 12.6277C4.03869 10.4276 5.19615 8.42068 6.80418 6.80666C7.19398 6.41541 7.82715 6.41423 8.21839 6.80403Z" fill="#1100FF"/>
<path fill-rule="evenodd" clip-rule="evenodd" d="M4.15617 18.1334C4.68999 17.9918 5.23754 18.3097 5.37916 18.8436C5.87455 20.7108 6.85458 22.414 8.22002 23.7807C8.61037 24.1714 8.61009 24.8045 8.21939 25.1949C7.8287 25.5852 7.19553 25.585 6.80518 25.1943C5.19063 23.5783 4.0318 21.5644 3.44604 19.3564C3.30442 18.8226 3.62235 18.275 4.15617 18.1334Z" fill="#1100FF"/>
<path fill-rule="evenodd" clip-rule="evenodd" d="M11.9353 27.3237C12.081 26.791 12.631 26.4773 13.1637 26.623C15.0245 27.1319 16.9878 27.1319 18.8486 26.623C19.3813 26.4773 19.9313 26.791 20.077 27.3237C20.2227 27.8565 19.9089 28.4064 19.3762 28.5521C17.17 29.1555 14.8423 29.1555 12.6361 28.5521C12.1034 28.4064 11.7896 27.8565 11.9353 27.3237Z" fill="#1100FF"/>
<path fill-rule="evenodd" clip-rule="evenodd" d="M27.8473 18.1469C28.3806 18.2903 28.6967 18.839 28.5532 19.3723C27.9615 21.5724 26.804 23.5793 25.196 25.1933C24.8062 25.5846 24.173 25.5858 23.7818 25.196C23.3905 24.8062 23.3893 24.173 23.7791 23.7818C25.1407 22.4151 26.1208 20.7158 26.6219 18.8528C26.7653 18.3195 27.314 18.0034 27.8473 18.1469Z" fill="#1100FF"/>
<path fill-rule="evenodd" clip-rule="evenodd" d="M23.7808 6.80503C24.1715 6.41468 24.8046 6.41496 25.195 6.80566C26.8095 8.42164 27.9683 10.4356 28.5541 12.6435C28.6957 13.1773 28.3778 13.7249 27.844 13.8665C27.3102 14.0081 26.7626 13.6902 26.621 13.1564C26.1256 11.2891 25.1456 9.58589 23.7801 8.21924C23.3898 7.82855 23.3901 7.19538 23.7808 6.80503Z" fill="#1100FF"/>
<path fill-rule="evenodd" clip-rule="evenodd" d="M18.8362 5.37704C16.9754 4.86813 15.0121 4.86813 13.1513 5.37704C12.6185 5.52273 12.0686 5.20899 11.9229 4.67626C11.7772 4.14354 12.0909 3.59358 12.6237 3.44789C14.8298 2.84452 17.1576 2.84452 19.3638 3.44789C19.8965 3.59358 20.2102 4.14354 20.0645 4.67626C19.9188 5.20899 19.3689 5.52273 18.8362 5.37704Z" fill="#1100FF"/>
</svg>
