<svg width="32" height="32" viewBox="0 0 32 32" fill="none" xmlns="http://www.w3.org/2000/svg">
<path fill-rule="evenodd" clip-rule="evenodd" d="M16 9C16.5523 9 17 9.44772 17 10V16C17 16.5523 16.5523 17 16 17C15.4477 17 15 16.5523 15 16V10C15 9.44772 15.4477 9 16 9Z" fill="#1100FF"/>
<path fill-rule="evenodd" clip-rule="evenodd" d="M15.134 15.5002C15.41 15.0218 16.0215 14.8577 16.4999 15.1337L21.6999 18.1337C22.1783 18.4097 22.3423 19.0213 22.0664 19.4996C21.7904 19.978 21.1788 20.1421 20.7004 19.8661L15.5004 16.8661C15.0221 16.5901 14.858 15.9786 15.134 15.5002Z" fill="#1100FF"/>
<path fill-rule="evenodd" clip-rule="evenodd" d="M3.9751 6.4624C4.52738 6.4624 4.9751 6.91012 4.9751 7.4624V11.4624H8.9751C9.52738 11.4624 9.9751 11.9101 9.9751 12.4624C9.9751 13.0147 9.52738 13.4624 8.9751 13.4624H3.9751C3.42281 13.4624 2.9751 13.0147 2.9751 12.4624V7.4624C2.9751 6.91012 3.42281 6.4624 3.9751 6.4624Z" fill="#1100FF"/>
<path fill-rule="evenodd" clip-rule="evenodd" d="M13.6618 4.2313C15.9898 3.76748 18.4031 4.00455 20.5964 4.91251C22.7897 5.82048 24.6644 7.35854 25.9834 9.33215C27.3024 11.3057 28.0064 13.6262 28.0064 16C28.0064 18.3738 27.3024 20.6943 25.9834 22.6679C24.6644 24.6415 22.7897 26.1795 20.5964 27.0875C18.4031 27.9955 15.9898 28.2325 13.6618 27.7687C11.3337 27.3049 9.19554 26.161 7.5177 24.4818C7.12734 24.0911 7.1276 23.458 7.51828 23.0676C7.90896 22.6772 8.54213 22.6775 8.93249 23.0682C10.3307 24.4675 12.1125 25.4207 14.0525 25.8073C15.9926 26.1938 18.0037 25.9962 19.8314 25.2396C21.6591 24.4829 23.2214 23.2012 24.3206 21.5566C25.4197 19.9119 26.0064 17.9782 26.0064 16C26.0064 14.0218 25.4197 12.0881 24.3206 10.4435C23.2214 8.79879 21.6591 7.51707 19.8314 6.76043C18.0037 6.00379 15.9926 5.80624 14.0525 6.19275C12.1125 6.57926 10.3307 7.53248 8.93249 8.93182L8.93116 8.93315L4.68116 13.1707C4.29006 13.5606 3.6569 13.5597 3.26695 13.1686C2.877 12.7775 2.87793 12.1443 3.26903 11.7544L7.5177 7.51819C7.51748 7.51841 7.51793 7.51796 7.5177 7.51819C9.19544 5.83935 11.334 4.69505 13.6618 4.2313Z" fill="#1100FF"/>
</svg>
