<svg width="32" height="32" viewBox="0 0 32 32" fill="none" xmlns="http://www.w3.org/2000/svg">
<path d="M19.4328 8.85489C18.9042 8.85489 18.3856 8.89894 17.8796 8.98202C17.5134 5.12041 14.7481 1.91583 10.899 1.02595C10.5617 0.94791 10.2093 1.0486 9.96384 1.29153C9.7184 1.53445 9.61519 1.88688 9.68945 2.2242C9.80525 2.74907 9.8644 3.28652 9.86692 3.81894C9.86063 7.70069 6.69758 10.8625 2.82339 10.8688C2.28594 10.8662 1.74722 10.8071 1.22362 10.6913C0.886293 10.617 0.533864 10.7202 0.290941 10.9669C0.0480168 11.2136 -0.052677 11.5661 0.0266194 11.9034C0.575401 14.2672 2.05938 16.305 4.09465 17.5674C3.29413 18.6537 2.81961 19.9941 2.81961 21.4429C2.81961 25.0515 5.7561 27.988 9.36471 27.988H19.4341C24.7092 27.988 29 23.6972 29 18.4221C29 13.147 24.7092 8.85615 19.4341 8.85615L19.4328 8.85489ZM2.48607 12.8751C2.59683 12.8789 2.70759 12.8814 2.81961 12.8826C7.80773 12.8751 11.8732 8.80958 11.8808 3.81517C11.8808 3.70314 11.8783 3.59238 11.8732 3.48036C14.2131 4.57666 15.7814 6.87877 15.8997 9.5308C13.4264 10.5176 11.4579 12.505 10.5013 14.9934C10.1262 14.9267 9.74735 14.894 9.36345 14.8965C7.95751 14.8965 6.65479 15.3433 5.58743 16.1011C4.22933 15.3874 3.14057 14.2483 2.48732 12.8751H2.48607ZM19.4328 25.9728H9.36345C6.86499 25.9728 4.83223 23.9401 4.83223 21.4416C4.83223 18.9431 6.86499 16.9104 9.36849 16.9104C9.37604 16.9104 9.38359 16.9104 9.39114 16.9104C9.58875 16.9104 9.78511 16.9242 9.9802 16.9507C9.90594 17.4302 9.86692 17.9211 9.86692 18.4208C9.86692 18.9771 10.3175 19.4277 10.8739 19.4277C11.4302 19.4277 11.8808 18.9771 11.8808 18.4208C11.8808 14.2571 15.2691 10.8688 19.4328 10.8688C23.5965 10.8688 26.9849 14.2571 26.9849 18.4208C26.9849 22.5845 23.5965 25.9728 19.4328 25.9728Z" fill="#1100FF"/>
</svg>
