<svg width="32" height="32" viewBox="0 0 32 32" fill="none" xmlns="http://www.w3.org/2000/svg">
<path fill-rule="evenodd" clip-rule="evenodd" d="M20.9632 11.1441C19.5083 10.8547 18.0003 11.0033 16.6299 11.5709C15.2594 12.1386 14.0881 13.0999 13.264 14.3332C12.4399 15.5666 12 17.0166 12 18.5C12 19.0523 11.5523 19.5 11 19.5C10.4477 19.5 10 19.0523 10 18.5C10 18.009 10.038 17.5209 10.1129 17.0399C9.91185 17.0123 9.70877 16.9989 9.50514 17L9.5 17C8.30653 17 7.16193 17.4741 6.31802 18.318C5.47411 19.1619 5 20.3065 5 21.5C5 22.6935 5.47411 23.8381 6.31802 24.682C7.16193 25.5259 8.30653 26 9.5 26H19.5C20.9834 26 22.4334 25.5601 23.6668 24.736C24.9001 23.9119 25.8614 22.7406 26.4291 21.3701C26.9968 19.9997 27.1453 18.4917 26.8559 17.0368C26.5665 15.582 25.8522 14.2456 24.8033 13.1967C23.7544 12.1478 22.418 11.4335 20.9632 11.1441ZM10.6304 15.0971C10.882 14.4413 11.2068 13.8121 11.601 13.2221C12.6449 11.6598 14.1286 10.4422 15.8645 9.72315C17.6004 9.00412 19.5105 8.81598 21.3534 9.18254C23.1962 9.5491 24.8889 10.4539 26.2175 11.7825C27.5461 13.1111 28.4509 14.8038 28.8175 16.6466C29.184 18.4895 28.9959 20.3996 28.2769 22.1355C27.5578 23.8714 26.3402 25.3551 24.7779 26.399C23.2157 27.4428 21.3789 28 19.5 28H9.5C7.77609 28 6.12279 27.3152 4.90381 26.0962C3.68482 24.8772 3 23.2239 3 21.5C3 19.7761 3.68482 18.1228 4.90381 16.9038C6.12219 15.6854 7.77447 15.0007 9.49746 15" fill="#1100FF"/>
<path fill-rule="evenodd" clip-rule="evenodd" d="M9.26246 3.15309C9.8062 3.05632 10.3254 3.41867 10.4222 3.96241L10.9472 6.91241C11.044 7.45615 10.6816 7.97538 10.1379 8.07215C9.59414 8.16892 9.07491 7.80657 8.97814 7.26283L8.45314 4.31283C8.35637 3.76909 8.71871 3.24986 9.26246 3.15309Z" fill="#1100FF"/>
<path fill-rule="evenodd" clip-rule="evenodd" d="M2.80605 7.26375C3.12292 6.81141 3.74649 6.70158 4.19883 7.01845L6.66133 8.74345C7.11367 9.06032 7.22349 9.68389 6.90662 10.1362C6.58975 10.5886 5.96619 10.6984 5.51384 10.3815L3.05134 8.65652C2.599 8.33966 2.48918 7.71609 2.80605 7.26375Z" fill="#1100FF"/>
<path fill-rule="evenodd" clip-rule="evenodd" d="M6.07191 13.8623C6.16867 14.4061 5.80633 14.9253 5.26259 15.0221L2.31259 15.5471C1.76885 15.6438 1.24961 15.2815 1.15285 14.7377C1.05608 14.194 1.41842 13.6748 1.96216 13.578L4.91216 13.053C5.4559 12.9562 5.97514 13.3186 6.07191 13.8623Z" fill="#1100FF"/>
<path fill-rule="evenodd" clip-rule="evenodd" d="M16.7363 4.80605C17.1887 5.12292 17.2985 5.74649 16.9816 6.19883L15.2566 8.66133C14.9398 9.11367 14.3162 9.22349 13.8638 8.90662C13.4115 8.58975 13.3017 7.96619 13.6185 7.51384L15.3435 5.05134C15.6604 4.599 16.284 4.48918 16.7363 4.80605Z" fill="#1100FF"/>
<path fill-rule="evenodd" clip-rule="evenodd" d="M13.0663 8.44533C11.9558 7.94032 10.6989 7.85876 9.53244 8.21601C8.36594 8.57326 7.37031 9.34466 6.73302 10.385C6.09603 11.4248 5.86081 12.6614 6.07191 13.8623C6.23238 14.7539 6.62593 15.5873 7.2123 16.2778C7.56979 16.6988 7.51832 17.3299 7.09734 17.6873C6.67636 18.0448 6.04529 17.9934 5.68781 17.5724C4.87265 16.6124 4.32598 15.4539 4.10331 14.2144L4.10271 14.2111C3.80644 12.529 4.13539 10.7966 5.02759 9.34021C5.91979 7.88379 7.31368 6.80383 8.94678 6.30368C10.5799 5.80353 12.3395 5.91772 13.8942 6.62473C15.449 7.33174 16.6916 8.5828 17.3881 10.1423C17.6133 10.6466 17.3871 11.238 16.8828 11.4632C16.3786 11.6884 15.7872 11.4622 15.562 10.9579C15.0645 9.84395 14.1769 8.95034 13.0663 8.44533Z" fill="#1100FF"/>
</svg>
