<svg width="32" height="32" viewBox="0 0 32 32" fill="none" xmlns="http://www.w3.org/2000/svg">
<path fill-rule="evenodd" clip-rule="evenodd" d="M16 4.5C14.674 4.5 13.4022 5.02678 12.4645 5.96447C11.5268 6.90215 11 8.17392 11 9.5V9.50452C10.9958 10.4335 11.2551 11.3446 11.7478 12.1321L10.9 12.6625L10.6761 13.6371C10.2895 13.5483 9.8943 13.5023 9.49765 13.5C8.66002 13.5009 7.83602 13.7122 7.10132 14.1145C6.36577 14.5173 5.74336 15.0987 5.29136 15.8051C4.83936 16.5114 4.57229 17.3202 4.51472 18.1568C4.45716 18.9934 4.61096 19.8311 4.96196 20.5927C5.31296 21.3544 5.84989 22.0155 6.52334 22.5152C7.19678 23.015 7.98511 23.3373 8.81577 23.4526C9.64643 23.5678 10.4927 23.4723 11.2768 23.1748C12.0609 22.8772 12.7575 22.3873 13.3026 21.75C13.6112 21.3892 14.1311 21.2951 14.5465 21.5249C14.962 21.7548 15.1586 22.2451 15.017 22.6983L13.3602 28H18.6398L16.9831 22.6983C16.8414 22.2451 17.038 21.7548 17.4535 21.5249C17.869 21.2951 18.3888 21.3892 18.6975 21.75C19.2426 22.3873 19.9392 22.8772 20.7233 23.1748C21.5073 23.4723 22.3536 23.5678 23.1843 23.4526C24.015 23.3373 24.8033 23.015 25.4767 22.5152C26.1502 22.0155 26.6871 21.3544 27.0381 20.5927C27.3891 19.8311 27.5429 18.9934 27.4853 18.1568C27.4278 17.3202 27.1607 16.5114 26.7087 15.8051C26.2567 15.0987 25.6343 14.5173 24.8988 14.1145C24.164 13.7122 23.34 13.5009 22.5024 13.5C22.1058 13.5023 21.7106 13.5483 21.324 13.6371L21.1 12.6625L20.2523 12.1321C20.745 11.3446 21.0042 10.4335 21 9.50452L21 9.5C21 8.17392 20.4733 6.90215 19.5356 5.96447C18.5979 5.02678 17.3261 4.5 16 4.5ZM22.7115 11.5033C23.8126 11.537 24.8914 11.8302 25.8594 12.3604C26.8892 12.9243 27.7605 13.7382 28.3933 14.7271C29.0261 15.716 29.4 16.8482 29.4806 18.0195C29.5612 19.1908 29.3459 20.3636 28.8545 21.4298C28.3631 22.4961 27.6114 23.4217 26.6686 24.1213C25.7257 24.821 24.6221 25.2722 23.4592 25.4336C22.2962 25.5949 21.1114 25.4612 20.0137 25.0447C19.9361 25.0152 19.8592 24.9844 19.7828 24.9523L20.9545 28.7017C21.0494 29.0054 20.9942 29.336 20.8057 29.5923C20.6173 29.8486 20.3182 30 20 30H12C11.6819 30 11.3828 29.8486 11.1943 29.5923C11.0059 29.336 10.9507 29.0054 11.0456 28.7017L12.2172 24.9523C12.1409 24.9844 12.0639 25.0152 11.9863 25.0447C10.8887 25.4612 9.70382 25.5949 8.5409 25.4336C7.37798 25.2722 6.27433 24.821 5.3315 24.1213C4.38868 23.4217 3.63697 22.4961 3.14557 21.4298C2.65417 20.3636 2.43885 19.1908 2.51944 18.0195C2.60003 16.8482 2.97393 15.716 3.60673 14.7271C4.23953 13.7382 5.11091 12.9243 6.14067 12.3604C7.10869 11.8302 8.18743 11.537 9.28859 11.5033C9.09536 10.8557 8.99717 10.1801 9.00004 9.49769C9.00065 7.64201 9.73808 5.86246 11.0503 4.55025C12.363 3.2375 14.1435 2.5 16 2.5C17.8566 2.5 19.637 3.2375 20.9498 4.55025C22.262 5.86247 22.9994 7.64204 23 9.49774C23.0029 10.1802 22.9047 10.8558 22.7115 11.5033Z" fill="#1100FF"/>
</svg>
