<svg width="32" height="32" viewBox="0 0 32 32" fill="none" xmlns="http://www.w3.org/2000/svg">
<path fill-rule="evenodd" clip-rule="evenodd" d="M15.885 4.40657C15.5909 4.4232 15.3034 4.50343 15.0426 4.64226C15.0347 4.64648 15.0268 4.65081 15.019 4.65525L2.50648 11.7553C2.19343 11.9329 2 12.2651 2 12.625V20.625C2 20.9849 2.19343 21.3171 2.50648 21.4947L15.019 28.5947C15.023 28.597 15.027 28.5993 15.0311 28.6015C15.0349 28.6036 15.0388 28.6057 15.0426 28.6077C15.3032 28.7465 15.5905 28.8267 15.8843 28.8434C15.9223 28.8478 15.9609 28.85 16 28.85C16.0391 28.85 16.0777 28.8478 16.1157 28.8434C16.4095 28.8267 16.6968 28.7465 16.9574 28.6077C16.9612 28.6057 16.965 28.6037 16.9688 28.6016C16.9729 28.5993 16.9769 28.597 16.981 28.5947L29.4935 21.4947C29.8066 21.3171 30 20.9849 30 20.625V12.625C30 12.2651 29.8066 11.9329 29.4935 11.7553L16.981 4.65525C16.9732 4.65081 16.9653 4.64648 16.9574 4.64226C16.6966 4.50343 16.4091 4.4232 16.115 4.40657C16.0773 4.40225 16.0389 4.40002 16 4.40002C15.9611 4.40002 15.9227 4.40225 15.885 4.40657ZM17 26.2844L26.9736 20.6251L21.9491 17.7747L17 20.5824V26.2844ZM16 18.8503L19.9225 16.625L16 14.3997L12.0775 16.625L16 18.8503ZM10.0509 15.4753L15 12.6676V6.96557L5.02644 12.6249L10.0509 15.4753ZM4 14.342L8.02425 16.625L4 18.908V14.342ZM5.02644 20.6251L10.0509 17.7747L15 20.5824V26.2844L5.02644 20.6251ZM17 12.6676V6.96557L26.9736 12.6249L21.9491 15.4753L17 12.6676ZM23.9758 16.625L28 18.908V14.342L23.9758 16.625Z" fill="#1100FF"/>
</svg>
