<svg width="32" height="32" viewBox="0 0 32 32" fill="none" xmlns="http://www.w3.org/2000/svg">
<path fill-rule="evenodd" clip-rule="evenodd" d="M15.0181 1.90573C15.317 1.73452 15.6554 1.64441 15.9999 1.64441C16.3444 1.64441 16.6829 1.73452 16.9817 1.90573L22.5045 5.0123C22.5806 5.04345 22.653 5.08402 22.7199 5.13348L27.9812 8.09296C28.2478 8.24433 28.4757 8.45425 28.6481 8.70617C28.6787 8.74506 28.7067 8.7867 28.7319 8.83101C28.7509 8.86442 28.7677 8.89847 28.7825 8.93299C28.9235 9.21126 28.9982 9.51906 28.9999 9.83216L28.9999 9.83753L28.9999 15.8428C29.0002 15.8554 29.0002 15.8679 28.9999 15.8805V22.1679C28.998 22.5218 28.9028 22.8689 28.724 23.1742C28.5452 23.4796 28.289 23.7324 27.9812 23.9071L27.9777 23.9091L22.5254 26.976C22.5018 26.9906 22.4776 27.0043 22.4527 27.0169L16.9817 30.0944C16.6829 30.2656 16.3444 30.3557 15.9999 30.3557C15.6555 30.3557 15.317 30.2656 15.0182 30.0944L9.54713 27.0169C9.52229 27.0043 9.49806 26.9906 9.47447 26.976L4.02217 23.9091L4.01862 23.9071C3.71091 23.7324 3.45471 23.4796 3.27587 23.1742C3.09702 22.8689 3.00185 22.5218 2.99995 22.1679L2.99993 22.1625V15.8805C2.9997 15.8679 2.9997 15.8554 2.99993 15.8428V9.83216C3.00161 9.51947 3.07614 9.21206 3.21685 8.93407C3.23068 8.90162 3.24636 8.86957 3.26392 8.83807C3.29031 8.79072 3.31998 8.74635 3.35249 8.70508C3.52485 8.45365 3.75246 8.24411 4.01862 8.09297L4.02217 8.09095L9.27992 5.13348C9.34682 5.08402 9.41927 5.04345 9.49533 5.0123L15.0181 1.90573ZM9.88226 7.08935L6.04893 9.2456L16.1077 14.8525L25.9643 9.25312L22.1176 7.08935L16.4907 10.2588C16.186 10.4304 15.8138 10.4304 15.5092 10.2588L9.88226 7.08935ZM20.0786 5.94241L15.9999 3.64816L11.9213 5.94241L15.9999 8.23978L20.0786 5.94241ZM26.9999 10.965L17.1075 16.5847L17.0132 27.782L20.9999 25.5394V19.2375C20.9999 18.8763 21.1948 18.5431 21.5097 18.366L26.9999 15.2777V10.965ZM26.9999 17.5724L22.9999 19.8224V24.4144L26.9936 22.168C26.9954 22.1669 26.9972 22.1652 26.9982 22.1634C26.9993 22.1617 26.9998 22.1597 26.9999 22.1577V17.5724ZM15.013 27.7967L10.9999 25.5394V19.2375C10.9999 18.8763 10.8051 18.5431 10.4902 18.366L4.99993 15.2777V10.9506L15.1074 16.5846L15.013 27.7967ZM4.99993 17.5724V22.1577C5.00003 22.1597 5.00061 22.1617 5.00163 22.1634C5.00267 22.1652 5.00413 22.1667 5.00587 22.1677L8.99993 24.4144V19.8224L4.99993 17.5724Z" fill="#1100FF"/>
</svg>
