<svg width="32" height="32" viewBox="0 0 32 32" fill="none" xmlns="http://www.w3.org/2000/svg">
<path fill-rule="evenodd" clip-rule="evenodd" d="M8.76822 10.3598C9.12179 10.7841 9.06446 11.4147 8.64018 11.7682L3.56205 16L8.64018 20.2318C9.06446 20.5854 9.12179 21.2159 8.76822 21.6402C8.41466 22.0645 7.78409 22.1218 7.35982 21.7682L1.35982 16.7682C1.13182 16.5783 1 16.2968 1 16C1 15.7032 1.13182 15.4218 1.35982 15.2318L7.35982 10.2318C7.78409 9.87824 8.41466 9.93556 8.76822 10.3598Z" fill="#1100FF"/>
<path fill-rule="evenodd" clip-rule="evenodd" d="M23.2318 10.3598C23.5854 9.93556 24.2159 9.87824 24.6402 10.2318L30.6402 15.2318C30.8682 15.4218 31 15.7032 31 16C31 16.2968 30.8682 16.5783 30.6402 16.7682L24.6402 21.7682C24.2159 22.1218 23.5854 22.0645 23.2318 21.6402C22.8782 21.2159 22.9356 20.5854 23.3598 20.2318L28.438 16L23.3598 11.7682C22.9356 11.4147 22.8782 10.7841 23.2318 10.3598Z" fill="#1100FF"/>
<path fill-rule="evenodd" clip-rule="evenodd" d="M20.3418 4.06023C20.8608 4.24897 21.1286 4.82274 20.9398 5.34177L12.9398 27.3418C12.7511 27.8608 12.1773 28.1286 11.6583 27.9398C11.1393 27.7511 10.8715 27.1773 11.0602 26.6583L19.0602 4.65828C19.249 4.13925 19.8227 3.8715 20.3418 4.06023Z" fill="#1100FF"/>
</svg>
