<svg width="32" height="32" viewBox="0 0 32 32" fill="none" xmlns="http://www.w3.org/2000/svg">
<path fill-rule="evenodd" clip-rule="evenodd" d="M16 5C9.92487 5 5 9.92487 5 16C5 22.0751 9.92487 27 16 27C22.0751 27 27 22.0751 27 16C27 9.92487 22.0751 5 16 5ZM3 16C3 8.8203 8.8203 3 16 3C23.1797 3 29 8.8203 29 16C29 23.1797 23.1797 29 16 29C8.8203 29 3 23.1797 3 16Z" fill="#1100FF"/>
<path fill-rule="evenodd" clip-rule="evenodd" d="M22.3441 9.64221C22.6388 9.93633 22.7205 10.3823 22.549 10.7617L19.0365 18.5367C18.9335 18.7649 18.7486 18.946 18.5184 19.0445L11.0934 22.2195C10.7177 22.3801 10.282 22.296 9.99312 22.0071C9.70419 21.7182 9.62011 21.2825 9.78076 20.9068L12.9558 13.4818C13.0539 13.2523 13.2344 13.0677 13.4618 12.9645L21.2243 9.43949C21.6034 9.26734 22.0495 9.34809 22.3441 9.64221ZM14.6421 14.625L12.6003 19.3999L17.3742 17.3586L19.633 12.3587L14.6421 14.625Z" fill="#1100FF"/>
</svg>
