<svg width="32" height="32" viewBox="0 0 32 32" fill="none" xmlns="http://www.w3.org/2000/svg">
<path fill-rule="evenodd" clip-rule="evenodd" d="M11.9732 5.86318C12.3024 5.79084 12.6446 5.8029 12.9679 5.89824C13.2905 5.99334 13.5838 6.16823 13.8209 6.40673L13.8226 6.40847L25.5915 18.1774L25.5935 18.1794C25.8319 18.4164 26.0067 18.7096 26.1017 19.0321C26.1971 19.3554 26.2091 19.6976 26.1368 20.0268C26.0645 20.3561 25.9101 20.6617 25.688 20.9153C25.4659 21.1689 25.1833 21.3622 24.8665 21.4774L6.36027 28.2001C6.00434 28.3341 5.61736 28.3633 5.24527 28.2839C4.86996 28.2038 4.52584 28.0168 4.25449 27.7455C3.98313 27.4741 3.79614 27.13 3.71609 26.7547C3.63671 26.3826 3.66584 25.9956 3.79991 25.6396L10.5226 7.13359C10.6377 6.81677 10.8311 6.53406 11.0847 6.31198C11.3383 6.08989 11.6439 5.93551 11.9732 5.86318ZM4.73746 25.9875L5.67154 26.3446C5.6724 26.3423 5.67259 26.3399 5.67209 26.3375C5.67159 26.3352 5.67041 26.333 5.6687 26.3313C5.667 26.3296 5.66484 26.3284 5.66247 26.3279C5.66018 26.3274 5.6578 26.3276 5.65559 26.3284L5.66554 26.3247L4.73746 25.9875ZM5.68098 26.319L24.1834 19.5977L24.1803 19.5946L12.4054 7.81964L12.4023 7.81659L5.68098 26.319Z" fill="#1100FF"/>
<path fill-rule="evenodd" clip-rule="evenodd" d="M27 2C27.5523 2 28 2.44772 28 3H27C28 3 28 3.00101 28 3.00101L28 3.0021L28 3.00448L28 3.01011L27.9998 3.02473C27.9996 3.03595 27.9993 3.05011 27.9987 3.06701C27.9976 3.10077 27.9955 3.14568 27.9916 3.20015C27.9838 3.30877 27.9688 3.45741 27.9395 3.63315C27.8817 3.97989 27.7643 4.4575 27.5194 4.94721C27.2726 5.44084 26.8867 5.96489 26.2891 6.3633C25.6852 6.76588 24.925 7 24 7C23.425 7 23.0602 7.14088 22.8203 7.3008C22.5742 7.46489 22.3976 7.69084 22.2694 7.94721C22.1393 8.2075 22.0692 8.47989 22.0333 8.69565C22.0157 8.80116 22.0073 8.88689 22.0033 8.94234C22.0014 8.96989 22.0005 8.98944 22.0002 8.99962L22 9.00699C21.9962 9.55606 21.55 10 21 10C20.4477 10 20 9.55228 20 9H21C20 9 20 8.99899 20 8.99899L20 8.9979L20 8.99552L20 8.98989L20.0002 8.97527C20.0004 8.96405 20.0007 8.94989 20.0013 8.93299C20.0024 8.89923 20.0045 8.85432 20.0084 8.79985C20.0162 8.69123 20.0312 8.54259 20.0605 8.36685C20.1183 8.02011 20.2357 7.5425 20.4806 7.05279C20.7274 6.55916 21.1133 6.03511 21.7109 5.6367C22.3148 5.23412 23.075 5 24 5C24.575 5 24.9398 4.85912 25.1797 4.6992C25.4258 4.53511 25.6024 4.30916 25.7306 4.05279C25.8607 3.7925 25.9308 3.52011 25.9667 3.30435C25.9843 3.19884 25.9927 3.11311 25.9967 3.05766C25.9986 3.03011 25.9995 3.01056 25.9998 3.00038L26 2.99302C26.0038 2.44395 26.45 2 27 2Z" fill="#1100FF"/>
<path fill-rule="evenodd" clip-rule="evenodd" d="M6.49309 18.4929C6.88361 18.1024 7.51678 18.1024 7.9073 18.4929L13.5073 24.0929C13.8978 24.4834 13.8978 25.1166 13.5073 25.5071C13.1168 25.8976 12.4836 25.8976 12.0931 25.5071L6.49309 19.9071C6.10256 19.5166 6.10256 18.8834 6.49309 18.4929Z" fill="#1100FF"/>
<path fill-rule="evenodd" clip-rule="evenodd" d="M18 1C18.5523 1 19 1.44772 19 2V5C19 5.55228 18.5523 6 18 6C17.4477 6 17 5.55228 17 5V2C17 1.44772 17.4477 1 18 1Z" fill="#1100FF"/>
<path fill-rule="evenodd" clip-rule="evenodd" d="M26.2929 13.2929C26.6834 12.9024 27.3166 12.9024 27.7071 13.2929L29.7071 15.2929C30.0976 15.6834 30.0976 16.3166 29.7071 16.7071C29.3166 17.0976 28.6834 17.0976 28.2929 16.7071L26.2929 14.7071C25.9024 14.3166 25.9024 13.6834 26.2929 13.2929Z" fill="#1100FF"/>
<path fill-rule="evenodd" clip-rule="evenodd" d="M30.9485 8.6838C31.1231 9.20774 30.84 9.77406 30.316 9.94871L27.316 10.9487C26.7921 11.1234 26.2257 10.8402 26.0511 10.3163C25.8765 9.79231 26.1596 9.22599 26.6836 9.05134L29.6836 8.05134C30.2075 7.8767 30.7738 8.15986 30.9485 8.6838Z" fill="#1100FF"/>
<path fill-rule="evenodd" clip-rule="evenodd" d="M8.89299 11.8929C9.28352 11.5023 9.91668 11.5023 10.3072 11.8929L20.1072 21.6929C20.4977 22.0834 20.4977 22.7166 20.1072 23.1071C19.7167 23.4976 19.0835 23.4976 18.693 23.1071L8.89299 13.3071C8.50247 12.9166 8.50247 12.2834 8.89299 11.8929Z" fill="#1100FF"/>
</svg>
