<svg width="32" height="32" viewBox="0 0 32 32" fill="none" xmlns="http://www.w3.org/2000/svg">
<path d="M28.0001 15.9272C27.9978 15.806 27.9851 15.6836 27.9586 15.5646C27.7439 14.5622 26.7525 13.9224 25.7438 14.1395C25.5568 14.1811 25.3653 14.2042 25.1737 14.2065C24.4362 14.2158 23.7345 13.9374 23.2047 13.4212C22.6761 12.9062 22.3784 12.2156 22.368 11.4765C22.3634 10.4637 21.5416 9.64027 20.5295 9.6368C20.3402 9.63449 20.1498 9.61139 19.9651 9.56982C19.2438 9.40814 18.6275 8.97392 18.2316 8.34915C17.8358 7.72322 17.7065 6.98181 17.8704 6.25079C17.8958 6.13184 17.9096 6.00943 17.9119 5.88817C17.9258 4.86151 17.104 4.01501 16.0723 4C16.0492 4 16.0272 4 16.0053 4C12.7818 4 9.64955 5.3223 7.40132 7.6343C5.16463 9.9336 3.95742 12.9662 4.00012 16.1744C4.04398 19.3825 5.33313 22.3805 7.63099 24.6186C9.94847 26.8752 12.9723 28.0012 15.9949 28.0012C19.0176 28.0012 22.1464 26.8348 24.472 24.5077C26.7364 22.2546 28.0221 19.1308 27.999 15.9353V15.9284L28.0001 15.9272ZM23.169 23.1982C19.2669 27.1027 12.8753 27.1454 8.92015 23.2928C6.97545 21.4001 5.8848 18.8629 5.84787 16.1478C5.81094 13.4339 6.83234 10.8679 8.72395 8.92195C10.6271 6.96564 13.277 5.8466 15.9961 5.8466C16.0145 5.8466 16.0342 5.8466 16.0526 5.8466C16.0596 5.8466 16.0653 5.85237 16.0653 5.85237C15.7953 7.05688 16.0099 8.29372 16.6701 9.33539C17.3302 10.3771 18.3563 11.1 19.56 11.3702C19.8705 11.4395 20.1902 11.4776 20.5087 11.4822H20.5214C20.5214 11.4822 20.5214 11.4903 20.5214 11.4949C20.5376 12.7283 21.0327 13.882 21.9167 14.7435C22.7996 15.6039 23.9676 16.0647 25.1991 16.0531C25.5176 16.0485 25.8373 16.0115 26.1397 15.9434C26.1466 15.9423 26.1524 15.9457 26.1535 15.9515V15.9538C26.172 18.6538 25.0848 21.2927 23.169 23.1982Z" fill="#1100FF"/>
<path d="M19.2288 22.4775C19.9937 22.4775 20.6137 21.8571 20.6137 21.0917C20.6137 20.3263 19.9937 19.7059 19.2288 19.7059C18.4639 19.7059 17.8438 20.3263 17.8438 21.0917C17.8438 21.8571 18.4639 22.4775 19.2288 22.4775Z" fill="#1100FF"/>
<path d="M11.8424 21.5537C12.6073 21.5537 13.2273 20.9332 13.2273 20.1678C13.2273 19.4025 12.6073 18.782 11.8424 18.782C11.0775 18.782 10.4574 19.4025 10.4574 20.1678C10.4574 20.9332 11.0775 21.5537 11.8424 21.5537Z" fill="#1100FF"/>
<path d="M10.9191 15.0865C11.684 15.0865 12.304 14.4661 12.304 13.7007C12.304 12.9353 11.684 12.3149 10.9191 12.3149C10.1542 12.3149 9.53414 12.9353 9.53414 13.7007C9.53414 14.4661 10.1542 15.0865 10.9191 15.0865Z" fill="#1100FF"/>
<path d="M16.9205 16.9343C17.6854 16.9343 18.3055 16.3138 18.3055 15.5485C18.3055 14.7831 17.6854 14.1626 16.9205 14.1626C16.1556 14.1626 15.5356 14.7831 15.5356 15.5485C15.5356 16.3138 16.1556 16.9343 16.9205 16.9343Z" fill="#1100FF"/>
</svg>
