<svg width="32" height="32" viewBox="0 0 32 32" fill="none" xmlns="http://www.w3.org/2000/svg">
<path d="M11.9998 7C12.5523 7 12.9998 6.5525 12.9998 6V2C12.9998 1.4475 12.5523 1 11.9998 1C11.4473 1 10.9998 1.4475 10.9998 2V6C10.9998 6.5525 11.4473 7 11.9998 7Z" fill="#1100FF"/>
<path d="M15.9998 7C16.5523 7 16.9998 6.5525 16.9998 6V2C16.9998 1.4475 16.5523 1 15.9998 1C15.4473 1 14.9998 1.4475 14.9998 2V6C14.9998 6.5525 15.4473 7 15.9998 7Z" fill="#1100FF"/>
<path d="M19.9998 7C20.5523 7 20.9998 6.5525 20.9998 6V2C20.9998 1.4475 20.5523 1 19.9998 1C19.4473 1 18.9998 1.4475 18.9998 2V6C18.9998 6.5525 19.4473 7 19.9998 7Z" fill="#1100FF"/>
<path d="M31.7998 11.4C31.4685 10.9575 30.841 10.8687 30.3998 11.2L27.9998 13V11C27.9998 9.8975 27.1023 9 25.9998 9H5.99983C4.89733 9 3.99983 9.8975 3.99983 11V13L1.59983 11.2C1.15859 10.8687 0.531086 10.9575 0.199836 11.4C-0.131413 11.8412 -0.0414133 12.4688 0.399836 12.8L3.99983 15.5V23.0287C4.00483 24.0938 4.42358 25.0938 5.17983 25.8438C5.93233 26.59 6.92858 27 7.98233 27H24.0286C25.0936 26.995 26.0936 26.5763 26.8436 25.82C27.5936 25.0637 28.0035 24.0613 27.9998 23V15.5L31.5998 12.8C32.0423 12.4688 32.131 11.8412 31.7998 11.4ZM25.9998 23.0037C26.0023 23.535 25.7973 24.035 25.4236 24.4112C25.0498 24.7875 24.5511 24.9975 24.0248 24.9988H7.98733C7.45983 24.9988 6.96358 24.7938 6.58858 24.4225C6.21108 24.0487 6.00233 23.55 6.00108 23.02V11H25.9998V23.0037Z" fill="#1100FF"/>
</svg>
