<svg width="120" height="56" viewBox="0 0 120 56" fill="none" xmlns="http://www.w3.org/2000/svg">
<rect x="0.5" y="0.5" width="119" height="55" rx="4.5" stroke="#9747FF" stroke-dasharray="10 5"/>
<path fill-rule="evenodd" clip-rule="evenodd" d="M32 17C32.5523 17 33 17.4477 33 18V23H38C38.5523 23 39 23.4477 39 24C39 24.5523 38.5523 25 38 25H32C31.4477 25 31 24.5523 31 24V18C31 17.4477 31.4477 17 32 17Z" fill="#1100FF"/>
<path fill-rule="evenodd" clip-rule="evenodd" d="M17 32C17 31.4477 17.4477 31 18 31H24C24.5523 31 25 31.4477 25 32V38C25 38.5523 24.5523 39 24 39C23.4477 39 23 38.5523 23 38V33H18C17.4477 33 17 32.5523 17 32Z" fill="#1100FF"/>
<path fill-rule="evenodd" clip-rule="evenodd" d="M31 32C31 31.4477 31.4477 31 32 31H38C38.5523 31 39 31.4477 39 32C39 32.5523 38.5523 33 38 33H33V38C33 38.5523 32.5523 39 32 39C31.4477 39 31 38.5523 31 38V32Z" fill="#1100FF"/>
<path fill-rule="evenodd" clip-rule="evenodd" d="M24 17C24.5523 17 25 17.4477 25 18V24C25 24.5523 24.5523 25 24 25H18C17.4477 25 17 24.5523 17 24C17 23.4477 17.4477 23 18 23H23V18C23 17.4477 23.4477 17 24 17Z" fill="#1100FF"/>
<path fill-rule="evenodd" clip-rule="evenodd" d="M96 18C96 17.4477 96.4477 17 97 17H102C102.552 17 103 17.4477 103 18V23C103 23.5523 102.552 24 102 24C101.448 24 101 23.5523 101 23V19H97C96.4477 19 96 18.5523 96 18Z" fill="#1100FF"/>
<path fill-rule="evenodd" clip-rule="evenodd" d="M82 32C82.5523 32 83 32.4477 83 33V37H87C87.5523 37 88 37.4477 88 38C88 38.5523 87.5523 39 87 39H82C81.4477 39 81 38.5523 81 38V33C81 32.4477 81.4477 32 82 32Z" fill="#1100FF"/>
<path fill-rule="evenodd" clip-rule="evenodd" d="M102 32C102.552 32 103 32.4477 103 33V38C103 38.5523 102.552 39 102 39H97C96.4477 39 96 38.5523 96 38C96 37.4477 96.4477 37 97 37H101V33C101 32.4477 101.448 32 102 32Z" fill="#1100FF"/>
<path fill-rule="evenodd" clip-rule="evenodd" d="M81 18C81 17.4477 81.4477 17 82 17H87C87.5523 17 88 17.4477 88 18C88 18.5523 87.5523 19 87 19H83V23C83 23.5523 82.5523 24 82 24C81.4477 24 81 23.5523 81 23V18Z" fill="#1100FF"/>
</svg>
