<svg width="32" height="32" viewBox="0 0 32 32" fill="none" xmlns="http://www.w3.org/2000/svg">
<path fill-rule="evenodd" clip-rule="evenodd" d="M15.0182 1.90573C15.317 1.73452 15.6555 1.64441 16 1.64441C16.3445 1.64441 16.683 1.73452 16.9818 1.90573L27.9813 8.09296C28.289 8.26771 28.5452 8.5205 28.7241 8.82585C28.9029 9.13119 28.9981 9.4783 29 9.83216L29 9.83753L29 22.1625H28L29 22.1679C28.9981 22.5218 28.9029 22.8689 28.7241 23.1742C28.5452 23.4796 28.289 23.7324 27.9813 23.9071L27.9778 23.9091L16.9818 30.0944C16.6829 30.2656 16.3445 30.3557 16 30.3557C15.6555 30.3557 15.3171 30.2656 15.0182 30.0944L4.02224 23.9091L4.01869 23.9071C3.71097 23.7324 3.45478 23.4796 3.27593 23.1742C3.09709 22.8689 3.00191 22.5218 3.00001 22.1679L3 22.1625V9.83216C3.0019 9.4783 3.09709 9.1312 3.27593 8.82585C3.45478 8.5205 3.71097 8.26771 4.01869 8.09297L4.02223 8.09095L15.0182 1.90573ZM27 22.1577V9.84236C26.9999 9.84035 26.9993 9.8384 26.9983 9.83665C26.9973 9.83487 26.9958 9.83338 26.994 9.83231L16 3.64816L5.00631 9.8321C5.00455 9.83318 5.00274 9.83487 5.0017 9.83665C5.00068 9.8384 5.0001 9.84036 5 9.84237V22.1577C5.0001 22.1597 5.00068 22.1617 5.0017 22.1634C5.00274 22.1652 5.00419 22.1667 5.00594 22.1677L16 28.3519L26.9937 22.168C26.9954 22.1669 26.9973 22.1652 26.9983 22.1634C26.9993 22.1617 26.9999 22.1597 27 22.1577Z" fill="#1100FF"/>
<path fill-rule="evenodd" clip-rule="evenodd" d="M3.26392 8.83813C3.53282 8.35573 4.14187 8.18264 4.62427 8.45154L16.1077 14.8526L27.3684 8.45552C27.8486 8.18272 28.4591 8.35086 28.7319 8.83106C29.0047 9.31127 28.8365 9.9217 28.3563 10.1945L16.6063 16.8695C16.3025 17.0421 15.9307 17.0436 15.6255 16.8735L3.65051 10.1985C3.1681 9.92958 2.99502 9.32053 3.26392 8.83813Z" fill="#1100FF"/>
<path fill-rule="evenodd" clip-rule="evenodd" d="M16.1209 15C16.6732 15.0047 17.1171 15.4562 17.1125 16.0084L17 29.3584C16.9953 29.9107 16.5438 30.3546 15.9916 30.35C15.4393 30.3453 14.9954 29.8938 15 29.3416L15.1125 15.9916C15.1172 15.4393 15.5687 14.9954 16.1209 15Z" fill="#1100FF"/>
</svg>
