<svg width="32" height="32" viewBox="0 0 32 32" fill="none" xmlns="http://www.w3.org/2000/svg">
<path fill-rule="evenodd" clip-rule="evenodd" d="M17.2033 5.62866C15.9014 4.93428 14.0983 4.87008 12.1611 6.41985C11.7298 6.76485 11.1005 6.69492 10.7555 6.26365C10.4105 5.83238 10.4804 5.20309 10.9117 4.85809C13.4381 2.83705 16.0987 2.77287 18.1445 3.86396C20.1189 4.91698 21.4637 7.02734 21.4637 9.20997C21.4637 11.36 20.4151 12.9818 19.1306 14.3703C17.6215 16.0016 15.8453 17.3582 14.3376 18.9879C13.2025 20.2148 12.5364 21.3691 12.5364 22.79C12.5364 24.1783 13.4235 25.6389 14.7968 26.3713C16.0988 27.0657 17.9018 27.1299 19.8391 25.5801C20.2703 25.2351 20.8996 25.3051 21.2446 25.7363C21.5896 26.1676 21.5197 26.7969 21.0884 27.1419C18.562 29.1629 15.9014 29.2271 13.8556 28.136C11.8812 27.083 10.5364 24.9726 10.5364 22.79C10.5364 20.64 11.585 19.0182 12.8695 17.6297C14.3779 15.9992 16.1549 14.6418 17.6625 13.0121C18.7976 11.7851 19.4637 10.6309 19.4637 9.20997C19.4637 7.82164 18.5766 6.3611 17.2033 5.62866Z" fill="#1100FF"/>
<path fill-rule="evenodd" clip-rule="evenodd" d="M24 19.1597C24 18.6074 23.5523 18.1597 23 18.1597H9C8.44772 18.1597 8 18.6074 8 19.1597C8 19.712 8.44772 20.1597 9 20.1597H23C23.5523 20.1597 24 19.712 24 19.1597Z" fill="#1100FF"/>
<path fill-rule="evenodd" clip-rule="evenodd" d="M24 14.1597C24 13.6074 23.5523 13.1597 23 13.1597H9C8.44772 13.1597 8 13.6074 8 14.1597C8 14.712 8.44772 15.1597 9 15.1597H23C23.5523 15.1597 24 14.712 24 14.1597Z" fill="#1100FF"/>
</svg>
