<svg width="32" height="32" viewBox="0 0 32 32" fill="none" xmlns="http://www.w3.org/2000/svg">
<path d="M8 9H24C24.5525 9 25 8.5525 25 8C25 7.4475 24.5525 7 24 7H8C7.4475 7 7 7.4475 7 8C7 8.5525 7.4475 9 8 9Z" fill="#1100FF"/>
<path d="M27 21C26.4475 21 26 21.4475 26 22V24H21.9788C21.4475 23.9975 20.95 23.7887 20.5763 23.4125C20.2025 23.0363 19.9975 22.535 20 22V16H26C26.5525 16 27 15.5525 27 15C27 14.4475 26.5525 14 26 14H6C5.4475 14 5 14.4475 5 15C5 15.5525 5.4475 16 6 16H12V16.9987C11.9938 20.8538 8.8525 23.9937 4.99875 24C4.44625 24.0012 4 24.4487 4 25.0012C4 25.5525 4.44875 26 5 26H5.00125C9.955 25.9925 13.9925 21.9563 14 17V16H18V21.9963C17.995 23.0613 18.4062 24.065 19.1562 24.8213C19.9062 25.5775 20.9062 25.9963 21.975 26.0012H27C27.5525 26.0012 28 25.5537 28 25.0012V22.0013C28 21.4488 27.5525 21.0013 27 21.0013V21Z" fill="#1100FF"/>
</svg>
