<svg width="32" height="32" viewBox="0 0 32 32" fill="none" xmlns="http://www.w3.org/2000/svg">
<path fill-rule="evenodd" clip-rule="evenodd" d="M9.5 20.0001C8.11929 20.0001 7 21.1194 7 22.5001C7 23.8808 8.11929 25.0001 9.5 25.0001C10.8807 25.0001 12 23.8808 12 22.5001C12 21.1194 10.8807 20.0001 9.5 20.0001ZM5 22.5001C5 20.0148 7.01472 18.0001 9.5 18.0001C11.9853 18.0001 14 20.0148 14 22.5001C14 24.9854 11.9853 27.0001 9.5 27.0001C7.01472 27.0001 5 24.9854 5 22.5001Z" fill="#1100FF"/>
<path fill-rule="evenodd" clip-rule="evenodd" d="M22.5 20.0001C21.1193 20.0001 20 21.1194 20 22.5001C20 23.8808 21.1193 25.0001 22.5 25.0001C23.8807 25.0001 25 23.8808 25 22.5001C25 21.1194 23.8807 20.0001 22.5 20.0001ZM18 22.5001C18 20.0148 20.0147 18.0001 22.5 18.0001C24.9853 18.0001 27 20.0148 27 22.5001C27 24.9854 24.9853 27.0001 22.5 27.0001C20.0147 27.0001 18 24.9854 18 22.5001Z" fill="#1100FF"/>
<path fill-rule="evenodd" clip-rule="evenodd" d="M12 22.5001C12 21.9478 12.4477 21.5001 13 21.5001H19C19.5523 21.5001 20 21.9478 20 22.5001C20 23.0524 19.5523 23.5001 19 23.5001H13C12.4477 23.5001 12 23.0524 12 22.5001Z" fill="#1100FF"/>
<path fill-rule="evenodd" clip-rule="evenodd" d="M0 15.0001C0 14.4478 0.447715 14.0001 1 14.0001H31C31.5523 14.0001 32 14.4478 32 15.0001C32 15.5524 31.5523 16.0001 31 16.0001H1C0.447715 16.0001 0 15.5524 0 15.0001Z" fill="#1100FF"/>
<path fill-rule="evenodd" clip-rule="evenodd" d="M11.0641 4.99523C11.3528 4.84586 11.6735 4.76908 11.9985 4.77154C12.3235 4.774 12.643 4.85563 12.9293 5.00936C13.2157 5.1631 13.4602 5.3843 13.6419 5.65382L13.6456 5.6593L16.0001 9.2037L16.0046 9.19679L18.3583 5.65381C18.5399 5.38428 18.7845 5.16309 19.0709 5.00936C19.3572 4.85563 19.6767 4.774 20.0017 4.77154C20.3267 4.76908 20.6474 4.84586 20.9361 4.99523C21.2242 5.14436 21.4718 5.36134 21.6574 5.62746C21.6577 5.62792 21.658 5.62837 21.6583 5.62882L27.8192 14.4265C28.136 14.8789 28.0261 15.5025 27.5737 15.8193C27.1213 16.1361 26.4978 16.0262 26.181 15.5738L20.0169 6.77151L17.6724 10.3006C17.4909 10.5774 17.2436 10.8047 16.9525 10.9624C16.66 11.1208 16.3327 11.2037 16.0001 11.2037C15.6675 11.2037 15.3401 11.1208 15.0477 10.9624C14.7566 10.8047 14.5092 10.5774 14.3277 10.3006L11.9833 6.7715L11.9817 6.77377L5.81921 15.5738C5.50241 16.0262 4.87886 16.1361 4.42647 15.8193C3.97408 15.5025 3.86416 14.8789 4.18096 14.4265L10.3419 5.62882C10.3422 5.62837 10.3425 5.62791 10.3428 5.62746C10.5284 5.36134 10.7759 5.14436 11.0641 4.99523Z" fill="#1100FF"/>
</svg>
