<svg width="32" height="32" viewBox="0 0 32 32" fill="none" xmlns="http://www.w3.org/2000/svg">
<path fill-rule="evenodd" clip-rule="evenodd" d="M10.9928 9.41977C10.2117 8.63872 10.2117 7.37239 10.9928 6.59135L14.5813 3.00278C15.3624 2.22173 16.6287 2.22173 17.4098 3.00278L20.9957 6.58869C21.7767 7.36974 21.7767 8.63607 20.9957 9.41712L17.4071 13.0057C16.6261 13.7867 15.3597 13.7867 14.5787 13.0057L10.9928 9.41977ZM15.9956 4.41699L12.407 8.00556L15.9929 11.5915L19.5815 8.00291L15.9956 4.41699Z" fill="#1100FF"/>
<path fill-rule="evenodd" clip-rule="evenodd" d="M18.994 17.4198C18.2129 16.6387 18.2129 15.3724 18.994 14.5913L22.5826 11.0028C23.3636 10.2217 24.6299 10.2217 25.411 11.0028L28.9969 14.5887C29.7779 15.3697 29.7779 16.6361 28.9969 17.4171L25.4083 21.0057C24.6273 21.7867 23.361 21.7867 22.5799 21.0057L18.994 17.4198ZM23.9968 12.417L20.4082 16.0056L23.9941 19.5915L27.5827 16.0029L23.9968 12.417Z" fill="#1100FF"/>
<path fill-rule="evenodd" clip-rule="evenodd" d="M2.99277 17.4085C2.21172 16.6275 2.21172 15.3612 2.99277 14.5801L6.58134 10.9915C7.36238 10.2105 8.62871 10.2105 9.40976 10.9915L12.9957 14.5775C13.7767 15.3585 13.7767 16.6248 12.9957 17.4059L9.40711 20.9945C8.62606 21.7755 7.35973 21.7755 6.57868 20.9945L2.99277 17.4085ZM7.99555 12.4058L4.40698 15.9943L7.9929 19.5802L11.5815 15.9917L7.99555 12.4058Z" fill="#1100FF"/>
<path fill-rule="evenodd" clip-rule="evenodd" d="M10.994 25.4085C10.2129 24.6275 10.2129 23.3612 10.994 22.5801L14.5826 18.9915C15.3636 18.2105 16.6299 18.2105 17.411 18.9915L20.9969 22.5775C21.7779 23.3585 21.7779 24.6248 20.9969 25.4059L17.4083 28.9945C16.6273 29.7755 15.361 29.7755 14.5799 28.9945L10.994 25.4085ZM15.9968 20.4058L12.4082 23.9943L15.9941 27.5802L19.5827 23.9917L15.9968 20.4058Z" fill="#1100FF"/>
</svg>
