<svg width="32" height="32" viewBox="0 0 32 32" fill="none" xmlns="http://www.w3.org/2000/svg">
<path fill-rule="evenodd" clip-rule="evenodd" d="M5.06504 14.7969C5.02206 15.192 5 15.5934 5 16C5 19.2457 6.40568 22.163 8.64146 24.1764C10.4564 21.5142 12.8625 19.3005 15.6776 17.7121C16.6167 17.1822 17.5919 16.7273 18.594 16.3497C18.4518 15.9322 18.2948 15.5189 18.1231 15.1103C17.8102 14.3658 17.4517 13.6451 17.0508 12.9518C17.0372 12.9583 17.0236 12.9647 17.01 12.9712C14.1945 14.3085 11.1164 15.0016 7.99952 15C7.0177 14.9988 6.03687 14.9309 5.06504 14.7969ZM5.46291 12.8324C6.30393 12.943 7.15159 12.999 8.00057 13C10.7454 13.0014 13.457 12.4073 15.9486 11.2597C14.5316 9.31782 12.753 7.6517 10.6985 6.3595C8.20216 7.73522 6.29746 10.0524 5.46291 12.8324ZM12.9085 5.44037C14.7778 6.79495 16.4071 8.44438 17.7351 10.3186C19.3328 9.36505 20.7828 8.18094 22.0376 6.80354C20.3044 5.66338 18.2297 5 16 5C14.9267 5 13.8892 5.15373 12.9085 5.44037ZM23.6049 8.05229C22.2114 9.60149 20.596 10.933 18.8131 12.0043C19.2436 12.7538 19.6293 13.5321 19.9669 14.3354C20.1607 14.7965 20.3374 15.263 20.4972 15.7342C22.2835 15.2492 24.1335 15.0003 25.9998 15C26.3222 15 26.6411 15.0081 26.9572 15.023C26.7167 12.29 25.4766 9.8438 23.6049 8.05229ZM28.9998 16.0751C28.9999 16.0501 29 16.0251 29 16C29 8.8203 23.1797 3 16 3C8.8203 3 3 8.8203 3 16C3 20.2542 5.04345 24.0311 8.20235 26.4027C8.24946 26.4454 8.30135 26.4843 8.35782 26.5184C8.35972 26.5195 8.36162 26.5207 8.36352 26.5218C10.5076 28.0806 13.1464 29 16 29C17.4966 29 18.9342 28.7471 20.2723 28.2817C20.3314 28.2665 20.3888 28.2461 20.4438 28.2207C25.394 26.4202 28.9411 21.6976 28.9993 16.1388C29.0001 16.1174 29.0003 16.0962 28.9998 16.0751ZM26.0002 17C26.3189 17 26.6359 17.0089 26.9529 17.0252L26.0002 17ZM26.9529 17.0252C26.6122 20.7104 24.4538 23.8688 21.3826 25.5954C21.7765 22.9478 21.6614 20.2534 21.0486 17.6569C22.6564 17.223 24.3211 17.0003 26.0002 17M19.1404 18.2819C18.2894 18.6112 17.4604 19.0025 16.6604 19.454C14.0876 20.9056 11.8923 22.9346 10.2445 25.3759C11.9188 26.4059 13.89 27 16 27C17.1054 27 18.1728 26.8369 19.1793 26.5336C19.7713 23.8024 19.7532 20.9857 19.1404 18.2819Z" fill="#1100FF"/>
</svg>
