<svg width="32" height="32" viewBox="0 0 32 32" fill="none" xmlns="http://www.w3.org/2000/svg">
<path fill-rule="evenodd" clip-rule="evenodd" d="M16.5735 1.18077L16 2L15.4265 1.18077C15.7709 0.939744 16.2291 0.939744 16.5735 1.18077ZM16 3.25C15.7562 3.44014 15.4449 3.69053 15.0851 3.99631C14.1755 4.76952 12.9638 5.89064 11.7546 7.28118C9.31185 10.0904 7 13.8601 7 18C7 20.3869 7.94821 22.6761 9.63604 24.364C11.3239 26.0518 13.6131 27 16 27C18.3869 27 20.6761 26.0518 22.364 24.364C24.0518 22.6761 25 20.3869 25 18C25 13.8601 22.6882 10.0904 20.2454 7.28118C19.0362 5.89064 17.8245 4.76952 16.9149 3.99631C16.5551 3.69053 16.2438 3.44014 16 3.25ZM15.4265 1.18077C15.4269 1.18055 15.4265 1.18077 16 2C16.5735 1.18077 16.5731 1.18055 16.5735 1.18077L16.5749 1.18177L16.5772 1.18341L16.5846 1.18863L16.61 1.20671C16.6317 1.22215 16.6625 1.24434 16.7019 1.27312C16.7808 1.33068 16.8941 1.41466 17.0369 1.52384C17.3225 1.74212 17.7268 2.06157 18.2101 2.47244C19.1755 3.29298 20.4638 4.48436 21.7546 5.96882C24.3118 8.90965 27 13.1399 27 18C27 20.9174 25.8411 23.7153 23.7782 25.7782C21.7153 27.8411 18.9174 29 16 29C13.0826 29 10.2847 27.8411 8.22183 25.7782C6.15893 23.7153 5 20.9174 5 18C5 13.1399 7.68815 8.90965 10.2454 5.96882C11.5362 4.48436 12.8245 3.29298 13.7899 2.47244C14.2732 2.06157 14.6775 1.74212 14.9631 1.52384C15.1059 1.41466 15.2192 1.33068 15.2981 1.27312C15.3375 1.24434 15.3683 1.22215 15.39 1.20671L15.4154 1.18863L15.4228 1.18341L15.4251 1.18177L15.4265 1.18077Z" fill="#1100FF"/>
<path fill-rule="evenodd" clip-rule="evenodd" d="M22.082 18.0271C22.6263 18.1208 22.9916 18.638 22.8979 19.1823C22.6524 20.608 21.9705 21.9224 20.9463 22.944C19.922 23.9657 18.6058 24.6443 17.1795 24.886C16.635 24.9784 16.1187 24.6118 16.0264 24.0672C15.9341 23.5227 16.3007 23.0065 16.8452 22.9142C17.8633 22.7416 18.8027 22.2573 19.5338 21.528C20.2649 20.7988 20.7517 19.8606 20.9269 18.843C21.0206 18.2987 21.5377 17.9334 22.082 18.0271Z" fill="#1100FF"/>
</svg>
