<svg width="32" height="32" viewBox="0 0 32 32" fill="none" xmlns="http://www.w3.org/2000/svg">
<path d="M18.4992 17.2684C18.4617 17.2184 18.4205 17.1734 18.3742 17.1309L6.74023 4.33299C6.36893 3.92419 5.73635 3.89418 5.32755 4.26548C4.91875 4.63678 4.88874 5.26936 5.26004 5.67816L6.64897 7.20585C5.56633 8.94858 4.99751 10.9376 5.00001 13.0066C5.00001 17.1934 6.55771 18.6948 7.80786 19.9012C8.79049 20.8488 9.50058 21.5327 9.50058 23.5092C9.50308 25.4507 10.3619 27.2734 11.8571 28.5111C13.0673 29.5124 14.535 30 15.9952 30C17.8666 30 19.7256 29.1974 21.0095 27.646C21.3621 27.2209 21.3021 26.5896 20.877 26.2383C20.452 25.8857 19.8206 25.9457 19.4693 26.3708C17.8866 28.2823 15.045 28.5511 13.1323 26.9696C12.0972 26.1133 11.5021 24.8506 11.5008 23.5079C11.5008 20.6826 10.2769 19.5024 9.19679 18.461C8.0679 17.3721 7.00026 16.3433 7.00026 13.0053C6.99901 11.5064 7.36406 10.06 8.06165 8.7598L10.2769 11.1964C10.0919 11.7814 9.99814 12.389 10.0006 13.0103C10.0031 13.5617 10.4507 14.0067 11.0008 14.0067H11.0045C11.5271 14.0042 11.9546 13.6004 11.9959 13.0891L16.5865 18.1385C16.5277 18.426 16.4977 18.7186 16.5002 19.0124C16.5027 19.4112 16.5727 19.805 16.7077 20.1813C17.0253 21.0639 17.6679 21.7702 18.5167 22.1703C18.993 22.394 19.5006 22.5065 20.0119 22.5065C20.1819 22.5065 20.3532 22.4915 20.522 22.4665L25.2613 27.681C25.4589 27.8985 25.7301 28.0085 26.0014 28.0085C26.2415 28.0085 26.4827 27.9222 26.674 27.7485C27.0828 27.3772 27.1128 26.7446 26.7415 26.3358L18.4992 17.2684Z" fill="#1100FF"/>
<path d="M11.3883 5.27686C13.4536 4.0442 15.8739 3.69041 18.2042 4.27923C20.5357 4.86806 22.4972 6.32949 23.7299 8.39351C24.5625 9.78743 25.0013 11.3826 25.0013 13.0066C25.0013 13.5592 25.4489 14.0067 26.0014 14.0067C26.554 14.0067 27.0016 13.5592 27.0016 13.0066C27.0016 11.0213 26.464 9.07234 25.4464 7.36713C23.9399 4.84431 21.5421 3.05783 18.693 2.33899C15.8451 1.62015 12.886 2.0527 10.3632 3.55914C9.88938 3.84168 9.73436 4.45676 10.0169 4.93057C10.2994 5.40438 10.9133 5.5594 11.3883 5.27686Z" fill="#1100FF"/>
<path d="M19.7831 15.6782C19.9644 15.8157 20.1769 15.8832 20.3882 15.8832C20.6895 15.8832 20.9883 15.7469 21.1846 15.4894C21.7259 14.7781 22.0159 13.8942 22.0022 13.0003C22.0059 9.70367 19.3293 7.01583 16.0302 7.00583C15.3513 7.00333 14.6862 7.11584 14.0474 7.33837C13.5261 7.51964 13.2498 8.08972 13.4311 8.61103C13.6124 9.13235 14.1824 9.40864 14.7037 9.22736C15.1263 9.08109 15.5664 9.00608 16.0127 9.00608H16.0239C18.2229 9.01233 20.0069 10.8063 20.0007 13.0053C20.0007 13.0128 20.0007 13.0203 20.0007 13.0278C20.0094 13.4767 19.8644 13.9205 19.5919 14.278C19.2568 14.7181 19.3418 15.3456 19.7819 15.6794L19.7831 15.6782Z" fill="#1100FF"/>
</svg>
