<svg width="32" height="32" viewBox="0 0 32 32" fill="none" xmlns="http://www.w3.org/2000/svg">
<path fill-rule="evenodd" clip-rule="evenodd" d="M10.3321 8.5547C8.41914 11.4241 7 15.2343 7 19C7 21.3869 7.94821 23.6761 9.63604 25.364C11.3239 27.0518 13.6131 28 16 28C18.3869 28 20.6761 27.0518 22.364 25.364C24.0518 23.6761 25 21.3869 25 19C25 15.2343 23.5809 11.4241 21.6679 8.5547C20.7138 7.12343 19.6586 5.95965 18.6361 5.16435C17.595 4.3546 16.6842 4 16 4C15.3158 4 14.405 4.3546 13.3639 5.16435C12.3414 5.95965 11.2862 7.12343 10.3321 8.5547ZM12.1361 3.58565C13.345 2.6454 14.6842 2 16 2C17.3158 2 18.655 2.6454 19.8639 3.58565C21.0914 4.54035 22.2862 5.87657 23.3321 7.4453C25.4191 10.5759 27 14.7657 27 19C27 21.9174 25.8411 24.7153 23.7782 26.7782C21.7153 28.8411 18.9174 30 16 30C13.0826 30 10.2847 28.8411 8.22183 26.7782C6.15893 24.7153 5 21.9174 5 19C5 14.7657 6.58086 10.5759 8.66795 7.4453C9.71377 5.87657 10.9086 4.54035 12.1361 3.58565Z" fill="#1100FF"/>
<path fill-rule="evenodd" clip-rule="evenodd" d="M22.2555 5.99334C22.6666 6.36222 22.7007 6.99447 22.3318 7.40549L17.935 12.3046L20.1876 13.1806C20.6382 13.3558 20.8989 13.8284 20.8068 14.3031L19.9068 18.9406C19.8016 19.4827 19.2768 19.837 18.7346 19.7317C18.1924 19.6265 17.8382 19.1017 17.9434 18.5595L18.6843 14.7419L15.8627 13.6446C15.5567 13.5256 15.3286 13.264 15.2524 12.9447C15.1762 12.6253 15.2616 12.2889 15.4809 12.0446L20.8434 6.06963C21.2123 5.6586 21.8445 5.62445 22.2555 5.99334Z" fill="#1100FF"/>
</svg>
