<svg width="32" height="32" viewBox="0 0 32 32" fill="none" xmlns="http://www.w3.org/2000/svg">
<path fill-rule="evenodd" clip-rule="evenodd" d="M15.1864 3.64331C15.4422 3.52856 15.7194 3.46924 15.9998 3.46924C16.2802 3.46924 16.5574 3.52856 16.8132 3.64331C17.0659 3.75664 17.292 3.92151 17.4772 4.1273L27.1876 14.65C27.4495 14.9363 27.6224 15.2925 27.6854 15.6753C27.7484 16.0581 27.6987 16.4509 27.5424 16.806C27.3861 17.161 27.1298 17.463 26.805 17.675C26.4801 17.887 26.1005 17.9999 25.7126 18H6.28728C5.89934 17.9999 5.51949 17.887 5.1946 17.675C4.86971 17.4629 4.6135 17.161 4.45717 16.806C4.30084 16.4509 4.25115 16.0581 4.31414 15.6753C4.37714 15.2925 4.5501 14.9363 4.81196 14.65L4.81487 14.6469L14.5224 4.12726C14.7076 3.92149 14.9337 3.75663 15.1864 3.64331ZM15.2623 4.80004L15.9972 5.47821L6.2876 16H25.712L16.0024 5.47821L15.9906 5.46521L15.9947 5.46814L15.9998 5.46924L16.0049 5.46814L16.0091 5.46505L15.2623 4.80004Z" fill="#1100FF"/>
<path fill-rule="evenodd" clip-rule="evenodd" d="M6 27.0001C4.89543 27.0001 4 26.1046 4 25.0001V22.0001C4 20.8955 4.89543 20.0001 6 20.0001H26C27.1046 20.0001 28 20.8955 28 22.0001V25.0001C28 26.1046 27.1046 27.0001 26 27.0001H6ZM6 22.0001V25.0001H26V22.0001H6Z" fill="#1100FF"/>
</svg>
