<svg width="32" height="32" viewBox="0 0 32 32" fill="none" xmlns="http://www.w3.org/2000/svg">
<path d="M25.0125 5H24.995C24.4425 5.0025 23.9963 5.4525 23.9988 6.00375C24.0013 6.555 24.4488 7 24.9988 7C25.0038 7 25.0075 7 25.0113 7C26.1038 7 26.9938 7.88624 26.9988 8.97499V16.26C26.0475 15.4725 24.8275 15 23.4988 15C20.9863 15 18.8625 16.6937 18.2088 19H13.79C13.135 16.6937 11.0125 15 8.50004 15C7.17129 15 5.95129 15.4737 5.00004 16.26V8.99624C4.99754 8.46499 5.20254 7.96499 5.57629 7.58875C5.95004 7.21125 6.44879 7.0025 6.97879 7.00125H7.00004C7.54879 7.00125 7.99629 6.55875 8.00004 6.00875C8.00379 5.45625 7.56004 5.005 7.00754 5.00125H6.97129C5.90629 5.005 4.90629 5.42375 4.15629 6.18C3.40629 6.93625 2.99505 7.93875 3.00005 8.99999V20.5C3.00005 23.5325 5.46754 26 8.50004 26C11.3638 26 13.7225 23.7987 13.9763 21H18.0238C18.2775 23.7987 20.6363 26 23.5 26C26.5325 26 29 23.5325 29 20.5V8.97124C28.9912 6.77875 27.2038 5 25.0125 5ZM8.50004 24C6.57004 24 5.00004 22.43 5.00004 20.5C5.00004 18.57 6.57004 17 8.50004 17C10.43 17 12 18.57 12 20.5C12 22.43 10.43 24 8.50004 24ZM23.5 24C21.57 24 20 22.43 20 20.5C20 18.57 21.57 17 23.5 17C25.43 17 27 18.57 27 20.5C27 22.43 25.43 24 23.5 24Z" fill="#1100FF"/>
</svg>
