<svg width="32" height="32" viewBox="0 0 32 32" fill="none" xmlns="http://www.w3.org/2000/svg">
<path d="M20.9992 12.9315H10.9996C10.4471 12.9315 9.99962 13.379 9.99962 13.9315C9.99962 14.4839 10.4471 14.9314 10.9996 14.9314H20.9992C21.5516 14.9314 21.9991 14.4839 21.9991 13.9315C21.9991 13.379 21.5516 12.9315 20.9992 12.9315Z" fill="#1100FF"/>
<path d="M20.9992 16.9313H10.9996C10.4471 16.9313 9.99962 17.3788 9.99962 17.9313C9.99962 18.4838 10.4471 18.9313 10.9996 18.9313H20.9992C21.5516 18.9313 21.9991 18.4838 21.9991 17.9313C21.9991 17.3788 21.5516 16.9313 20.9992 16.9313Z" fill="#1100FF"/>
<path d="M30.8425 10.1104C30.0925 9.35415 29.0926 8.93542 28.0314 8.93042H27.8726C27.6701 8.39044 27.2389 7.95171 26.6739 7.75172L16.6781 4.11687C16.6781 4.11687 16.6668 4.11312 16.6618 4.11062C16.2344 3.96313 15.7631 3.96313 15.3356 4.11062C15.3306 4.11312 15.3244 4.11437 15.3194 4.11687L5.32606 7.75172C4.75983 7.95171 4.3286 8.39169 4.12611 8.93042H3.97112C1.77246 8.94042 -0.00871754 10.7366 3.2098e-05 12.9315V15.9601C0.00503189 17.0251 0.423764 18.025 1.17998 18.775C1.93245 19.5212 2.92866 19.9312 3.98237 19.9312H4.64859C5.46855 21.7286 7.05474 23.3061 9.35089 24.5835C11.9895 26.0497 14.7969 26.7072 15.5956 26.8734C15.6019 26.8734 15.6081 26.8759 15.6131 26.8772C15.7406 26.9009 15.8706 26.9134 15.9994 26.9134C16.1281 26.9134 16.2569 26.9009 16.3856 26.8772C16.3919 26.8772 16.3969 26.8747 16.4031 26.8734C17.2006 26.7072 20.0092 26.051 22.6478 24.5835C24.944 23.3073 26.5302 21.7299 27.3501 19.9312H28.0126C29.0713 19.9312 30.0675 19.5212 30.82 18.775C31.5762 18.025 31.995 17.0251 32 15.9564V12.9353C32.005 11.8703 31.5937 10.8666 30.8438 10.1104H30.8425ZM3.99612 17.9313H3.98737C3.45989 17.9313 2.96366 17.7263 2.58867 17.3551C2.21119 16.9813 2.00245 16.4826 2.0012 15.9526V12.9278C1.9987 12.3965 2.20369 11.8965 2.57743 11.5203C2.95116 11.1428 3.44989 10.9341 3.97987 10.9328H3.99987V16.9326C3.99987 17.2713 4.02361 17.6051 4.06861 17.9325H3.99487L3.99612 17.9313ZM16.0094 24.911C16.0031 24.911 15.9956 24.911 15.9894 24.911C14.9007 24.6823 5.99978 22.6386 5.99978 16.9313V9.63539H6.00353L15.9894 6.00054C15.9894 6.00054 16.0019 5.99929 16.0081 6.00054L25.994 9.63289H25.9977V16.9301C25.9977 22.6386 17.0968 24.6823 16.0081 24.9098L16.0094 24.911ZM29.9988 15.9514C29.9963 16.4826 29.7875 16.9801 29.4113 17.3538C29.0363 17.7251 28.5401 17.93 28.0076 17.93H27.9301C27.9751 17.6026 27.9989 17.2688 27.9989 16.9301V10.9316C27.9989 10.9316 28.0176 10.9316 28.0201 10.9316C28.5513 10.9341 29.0488 11.1428 29.4226 11.5191C29.7963 11.8953 30.0013 12.3965 29.9988 12.9315V15.9526V15.9514Z" fill="#1100FF"/>
</svg>
