<svg width="32" height="32" viewBox="0 0 32 32" fill="none" xmlns="http://www.w3.org/2000/svg">
<path d="M16 3C8.83 3 3 8.83 3 16C3 23.17 8.83 29 16 29C23.17 29 29 23.17 29 16C29 8.83 23.17 3 16 3ZM17 26.95V19H20C20.55 19 21 18.55 21 18C21 17.45 20.55 17 20 17H17V13.98C17 13.45 17.21 12.95 17.59 12.58C17.96 12.21 18.46 12 18.99 12H21C21.55 12 22 11.55 22 11C22 10.45 21.55 10 21 10H18.99C17.93 10 16.93 10.41 16.18 11.16C15.42 11.91 15 12.91 15 13.97V17H12C11.45 17 11 17.45 11 18C11 18.55 11.45 19 12 19H15V26.95C9.4 26.44 5 21.72 5 16C5 9.93 9.93 5 16 5C22.07 5 27 9.93 27 16C27 21.73 22.6 26.45 17 26.95Z" fill="#1100FF"/>
</svg>
