<svg width="32" height="32" viewBox="0 0 32 32" fill="none" xmlns="http://www.w3.org/2000/svg">
<path fill-rule="evenodd" clip-rule="evenodd" d="M17.5323 7.08049C17.8471 6.90647 18.203 6.82055 18.5625 6.83179C18.922 6.84302 19.2718 6.95099 19.575 7.14431L19.5787 7.14662L30.724 14.3186C31.007 14.497 31.2404 14.7438 31.4026 15.0364C31.566 15.3313 31.6518 15.6629 31.6518 16.0001C31.6518 16.3372 31.566 16.6688 31.4026 16.9637C31.2404 17.2563 31.007 17.5032 30.724 17.6815L19.5787 24.8535L19.575 24.8558C19.2718 25.0491 18.9219 25.1571 18.5625 25.1683C18.203 25.1796 17.8471 25.0937 17.5323 24.9196C17.2176 24.7456 16.9556 24.49 16.7739 24.1795C16.5929 23.8703 16.4983 23.5181 16.5 23.1598L16.5 23.1558L17.5 23.1626H16.5V23.1598V8.84035L16.5 8.84431L17.5 8.83756H16.5V8.84035M30.1875 15.1626L29.6539 15.9918L29.6576 15.9894C29.6558 15.9905 29.6544 15.9921 29.6534 15.994C29.6524 15.9959 29.6518 15.9979 29.6518 16.0001C29.6518 16.0022 29.6524 16.0043 29.6534 16.0061C29.6544 16.008 29.6559 16.0095 29.6577 16.0107L30.1875 15.1626ZM29.641 16.0001L18.5 8.83081L18.5 8.83756L18.5 23.1626L18.5 23.1693L29.641 16.0001Z" fill="#1100FF"/>
<path fill-rule="evenodd" clip-rule="evenodd" d="M3.53234 7.08049C3.84711 6.90647 4.20297 6.82055 4.56246 6.83179C4.92195 6.84302 5.27176 6.95099 5.57505 7.14431L5.57867 7.14662L16.724 14.3186C17.007 14.497 17.2404 14.7438 17.4026 15.0364C17.566 15.3313 17.6518 15.6629 17.6518 16.0001C17.6518 16.3372 17.566 16.6688 17.4026 16.9637C17.2404 17.2563 17.007 17.5032 16.724 17.6815L5.57866 24.8535L5.57505 24.8558C5.27175 25.0491 4.92195 25.1571 4.56246 25.1683C4.20297 25.1796 3.84711 25.0937 3.53234 24.9196C3.21758 24.7456 2.95556 24.49 2.77389 24.1795C2.59289 23.8703 2.49831 23.5181 2.50002 23.1598L2.50005 23.1558L3.50002 23.1626H2.50002V23.1598V8.84035L2.50005 8.84431L3.50002 8.83756H2.50002V8.84035M16.1875 15.1626L15.6539 15.9918L15.6576 15.9894C15.6558 15.9905 15.6544 15.9921 15.6534 15.994C15.6524 15.9959 15.6518 15.9979 15.6518 16.0001C15.6518 16.0022 15.6524 16.0043 15.6534 16.0061C15.6544 16.008 15.6559 16.0095 15.6577 16.0107L16.1875 15.1626ZM15.641 16.0001L4.5 8.83081L4.50005 8.83756L4.50002 23.1626L4.5 23.1693L15.641 16.0001Z" fill="#1100FF"/>
</svg>
