<svg width="32" height="32" viewBox="0 0 32 32" fill="none" xmlns="http://www.w3.org/2000/svg">
<path fill-rule="evenodd" clip-rule="evenodd" d="M8.03769 3.78769C9.02226 2.80312 10.3576 2.25 11.75 2.25H20.25C21.6424 2.25 22.9777 2.80312 23.9623 3.78769C24.9469 4.77226 25.5 6.10761 25.5 7.5C25.5 8.89239 24.9469 10.2277 23.9623 11.2123C23.7656 11.409 23.5549 11.5885 23.3325 11.7498C24.646 12.704 25.5 14.2523 25.5 16C25.5 18.8995 23.1495 21.25 20.25 21.25C19.0228 21.25 17.8939 20.8289 17 20.1234L17 24.5C17 25.5384 16.6921 26.5534 16.1152 27.4167C15.5383 28.2801 14.7184 28.953 13.7591 29.3504C12.7998 29.7477 11.7442 29.8517 10.7258 29.6491C9.70738 29.4466 8.77192 28.9465 8.03769 28.2123C7.30347 27.4781 6.80345 26.5426 6.60088 25.5242C6.39831 24.5058 6.50227 23.4502 6.89963 22.4909C7.27123 21.5938 7.88381 20.8186 8.66778 20.25C8.4453 20.0887 8.23449 19.9091 8.03769 19.7123C7.05312 18.7277 6.5 17.3924 6.5 16C6.5 14.6076 7.05312 13.2723 8.03769 12.2877C8.23448 12.0909 8.44528 11.9113 8.66776 11.75C8.44528 11.5887 8.23448 11.4091 8.03769 11.2123C7.05312 10.2277 6.5 8.89239 6.5 7.5C6.5 6.10761 7.05312 4.77226 8.03769 3.78769ZM11.75 10.75C10.888 10.75 10.0614 10.4076 9.4519 9.7981C8.84241 9.1886 8.5 8.36195 8.5 7.5C8.5 6.63805 8.84241 5.8114 9.4519 5.2019C10.0614 4.59241 10.888 4.25 11.75 4.25H15V10.75H11.75ZM15 12.75H11.75C10.888 12.75 10.0614 13.0924 9.4519 13.7019C8.84241 14.3114 8.5 15.138 8.5 16C8.5 16.862 8.84241 17.6886 9.4519 18.2981C10.0614 18.9076 10.888 19.25 11.75 19.25H15V12.75ZM15 21.25H11.75C11.1072 21.25 10.4789 21.4406 9.9444 21.7977C9.40994 22.1548 8.99338 22.6624 8.74739 23.2563C8.50141 23.8501 8.43705 24.5036 8.56245 25.134C8.68785 25.7645 8.99738 26.3436 9.4519 26.7981C9.90643 27.2526 10.4855 27.5621 11.116 27.6876C11.7464 27.813 12.3999 27.7486 12.9937 27.5026C13.5876 27.2566 14.0952 26.8401 14.4523 26.3056C14.8094 25.7711 15 25.1428 15 24.5L15 21.25ZM20.25 12.75C18.4551 12.75 17 14.2051 17 16C17 17.7949 18.4551 19.25 20.25 19.25C22.0449 19.25 23.5 17.7949 23.5 16C23.5 14.2051 22.0449 12.75 20.25 12.75ZM17 10.75V4.25H20.25C21.112 4.25 21.9386 4.59241 22.5481 5.2019C23.1576 5.8114 23.5 6.63805 23.5 7.5C23.5 8.36195 23.1576 9.1886 22.5481 9.7981C21.9386 10.4076 21.112 10.75 20.25 10.75H17Z" fill="#1100FF"/>
</svg>
