<svg width="32" height="32" viewBox="0 0 32 32" fill="none" xmlns="http://www.w3.org/2000/svg">
<path fill-rule="evenodd" clip-rule="evenodd" d="M15 20C15.5523 20 16 20.4477 16 21V26H18.5C19.0523 26 19.5 26.4477 19.5 27C19.5 27.5523 19.0523 28 18.5 28H15C14.4477 28 14 27.5523 14 27V21C14 20.4477 14.4477 20 15 20Z" fill="#1100FF"/>
<path fill-rule="evenodd" clip-rule="evenodd" d="M5.90006 20.2001C6.34189 19.8687 6.96869 19.9582 7.30006 20.4001L11.8001 26.4001C12.1314 26.8419 12.0419 27.4687 11.6001 27.8001C11.1582 28.1314 10.5314 28.0419 10.2001 27.6001L5.70006 21.6001C5.36869 21.1582 5.45823 20.5314 5.90006 20.2001Z" fill="#1100FF"/>
<path fill-rule="evenodd" clip-rule="evenodd" d="M11.6001 20.2001C12.0419 20.5314 12.1314 21.1582 11.8001 21.6001L7.30006 27.6001C6.96869 28.0419 6.34189 28.1314 5.90006 27.8001C5.45823 27.4687 5.36869 26.8419 5.70006 26.4001L10.2001 20.4001C10.5314 19.9582 11.1582 19.8687 11.6001 20.2001Z" fill="#1100FF"/>
<path fill-rule="evenodd" clip-rule="evenodd" d="M23.1665 22.0718C23.0771 22.1484 23.0001 22.2687 23.0001 22.5C23.0001 22.5118 23.0006 22.5198 23.0012 22.5248C23.0121 22.5366 23.0442 22.5666 23.1188 22.6089C23.3563 22.7438 23.7107 22.8416 24.2568 22.9866C24.2669 22.9893 24.2771 22.992 24.2874 22.9948C24.751 23.1178 25.3848 23.2861 25.8954 23.5972C26.4903 23.9597 27.0001 24.5686 27.0001 25.5C27.0001 26.4427 26.5954 27.1775 25.8985 27.6235C25.2741 28.0231 24.5182 28.125 23.8751 28.125L23.8724 28.125C22.982 28.1226 22.1159 27.834 21.4022 27.3016C20.9595 26.9714 20.8683 26.3448 21.1985 25.9021C21.5287 25.4594 22.1552 25.3682 22.5979 25.6984C22.9674 25.974 23.4156 26.1235 23.8765 26.125C24.3575 26.1248 24.6637 26.0393 24.8204 25.939C24.8857 25.8972 24.9195 25.8569 24.9418 25.8145C24.9654 25.7698 25.0001 25.6772 25.0001 25.5C25.0001 25.496 25.0001 25.4922 25.0001 25.4885C25.0006 25.4275 25.0009 25.3942 24.8547 25.3051C24.6267 25.1662 24.2774 25.0615 23.7433 24.9196C23.7146 24.912 23.6852 24.9042 23.655 24.8962C23.2083 24.7783 22.6114 24.6207 22.1314 24.3481C21.8578 24.1928 21.5681 23.9727 21.3473 23.6509C21.1178 23.3164 21.0001 22.9257 21.0001 22.5C21.0001 21.7313 21.298 21.0391 21.8649 20.5532C22.4154 20.0814 23.1342 19.875 23.8751 19.875H23.8777C24.7681 19.8774 25.6342 20.166 26.3479 20.6984C26.7906 21.0286 26.8818 21.6552 26.5516 22.0979C26.2214 22.5406 25.5949 22.6318 25.1522 22.3016C24.7828 22.026 24.3346 21.8765 23.8737 21.875C23.4904 21.8752 23.2721 21.9812 23.1665 22.0718ZM23.0024 22.532C23.0024 22.5321 23.0022 22.5314 23.0019 22.5299L23.0024 22.532Z" fill="#1100FF"/>
<path fill-rule="evenodd" clip-rule="evenodd" d="M5.58579 3.58579C5.96086 3.21071 6.46957 3 7 3H19C19.2652 3 19.5196 3.10536 19.7071 3.29289L26.7071 10.2929C26.8946 10.4804 27 10.7348 27 11V16C27 16.5523 26.5523 17 26 17C25.4477 17 25 16.5523 25 16V11.4142L18.5858 5L7 5L7 16C7 16.5523 6.55228 17 6 17C5.44772 17 5 16.5523 5 16V5C5 4.46957 5.21071 3.96086 5.58579 3.58579Z" fill="#1100FF"/>
<path fill-rule="evenodd" clip-rule="evenodd" d="M19 3C19.5523 3 20 3.44772 20 4V10H26C26.5523 10 27 10.4477 27 11C27 11.5523 26.5523 12 26 12H19C18.4477 12 18 11.5523 18 11V4C18 3.44772 18.4477 3 19 3Z" fill="#1100FF"/>
</svg>
