<svg width="32" height="32" viewBox="0 0 32 32" fill="none" xmlns="http://www.w3.org/2000/svg">
<path d="M12.3403 10.5514C12.7715 10.2042 12.8404 9.57365 12.4944 9.14117C12.1472 8.70869 11.5167 8.63975 11.0842 8.98698C8.93685 10.7119 7.70335 13.2817 7.70085 16.0382C7.70461 18.3448 7.16433 20.6563 6.13892 22.7234C5.89197 23.2199 6.09504 23.8216 6.59145 24.0673C6.73436 24.1387 6.88729 24.1726 7.03646 24.1726C7.40501 24.1726 7.75976 23.9682 7.93526 23.616C9.09856 21.2731 9.71155 18.6519 9.70654 16.0382C9.70904 13.8947 10.668 11.894 12.3403 10.5514Z" fill="#1100FF"/>
<path d="M16.7252 15.0341C16.1711 15.0341 15.7223 15.4842 15.7236 16.0382C15.7286 19.9368 14.732 23.799 12.8404 27.2087C12.5722 27.6925 12.7464 28.303 13.2315 28.5725C13.3857 28.6578 13.5524 28.6979 13.7167 28.6979C14.0689 28.6979 14.4111 28.5111 14.5941 28.1814C16.65 24.4747 17.7343 20.274 17.728 16.0357C17.728 15.4829 17.278 15.0341 16.7252 15.0341Z" fill="#1100FF"/>
<path d="M16.7264 11.0228C13.9611 11.0228 11.7122 13.2716 11.7122 16.037C11.7122 16.5911 12.161 17.0398 12.7151 17.0398C13.2691 17.0398 13.7179 16.5911 13.7179 16.037C13.7179 14.3785 15.068 13.0284 16.7264 13.0284C18.3849 13.0284 19.735 14.3785 19.735 16.0395C19.7425 20.0007 18.8525 23.987 17.1614 27.5684C16.9245 28.0699 17.1389 28.6666 17.6403 28.9035C17.7782 28.9687 17.9248 29 18.0678 29C18.4438 29 18.8036 28.7881 18.9753 28.4259C20.793 24.5775 21.7494 20.2928 21.7419 16.0382C21.7419 13.2729 19.493 11.024 16.7277 11.024L16.7264 11.0228Z" fill="#1100FF"/>
<path d="M16.7264 3C9.53856 3 3.68947 8.84784 3.68947 16.0395C3.69323 17.2943 3.48013 18.529 3.05893 19.7112C2.87215 20.2326 3.14417 20.8068 3.66565 20.9935C4.18713 21.1791 4.76126 20.9083 4.94679 20.3868C5.44695 18.9866 5.69892 17.5224 5.69516 16.0382C5.69516 9.95598 10.6442 5.00694 16.7264 5.00694C22.8087 5.00694 27.7577 9.95598 27.7577 16.0382C27.7577 18.326 27.5346 20.6237 27.0996 22.8676C26.9943 23.4116 27.3491 23.9381 27.8931 24.0434C27.9583 24.056 28.0222 24.0622 28.0849 24.0622C28.555 24.0622 28.9749 23.7288 29.0677 23.2499C29.5278 20.8807 29.7622 18.4538 29.7634 16.0382C29.7634 8.84784 23.9156 3 16.7264 3Z" fill="#1100FF"/>
<path d="M12.5158 19.0656C11.973 18.954 11.4427 19.3037 11.3311 19.8465C10.9187 21.8547 10.1929 23.7752 9.17377 25.554C8.89799 26.0341 9.06472 26.6471 9.54608 26.9229C9.70278 27.0131 9.87451 27.0557 10.0437 27.0557C10.391 27.0557 10.7294 26.874 10.915 26.5506C12.0394 24.5862 12.8404 22.4665 13.2955 20.2489C13.407 19.7061 13.0573 19.1759 12.5145 19.0643L12.5158 19.0656Z" fill="#1100FF"/>
<path d="M16.7214 7.01138C16.3491 7.01389 15.9731 7.03645 15.6045 7.08158C15.0542 7.14802 14.6631 7.64693 14.7283 8.19724C14.7947 8.74755 15.2936 9.13866 15.8439 9.07348C16.1373 9.03838 16.4356 9.01957 16.7264 9.01832C20.5974 9.01832 23.7464 12.1673 23.7464 16.037C23.7464 17.3319 23.6636 18.6406 23.5032 19.9255C23.4342 20.4746 23.8241 20.976 24.3744 21.0449C24.417 21.0499 24.4584 21.0525 24.4997 21.0525C24.9987 21.0525 25.4299 20.6814 25.4938 20.1737C25.6643 18.8073 25.7508 17.4159 25.752 16.0382C25.752 11.0616 21.7031 7.01263 16.7214 7.01263V7.01138Z" fill="#1100FF"/>
<path d="M23.9808 23.0882C23.4443 22.9503 22.8977 23.2763 22.7623 23.8128C22.5718 24.5599 22.3637 25.2744 22.1431 25.9363C21.9676 26.4615 22.2521 27.0294 22.7774 27.2049C22.8827 27.24 22.9892 27.2563 23.0945 27.2563C23.5145 27.2563 23.9056 26.9905 24.046 26.5706C24.2816 25.8623 24.5035 25.1014 24.7053 24.3067C24.842 23.7702 24.5173 23.2236 23.9808 23.0882Z" fill="#1100FF"/>
</svg>
