<svg width="32" height="32" viewBox="0 0 32 32" fill="none" xmlns="http://www.w3.org/2000/svg">
<path d="M21.9895 14.9415C21.4397 14.9415 20.9944 15.388 20.9956 15.9378C20.9981 19.7168 20.2741 23.4062 18.8436 26.9041C18.6359 27.4128 18.8797 27.9937 19.3872 28.2015C19.5104 28.2525 19.6385 28.2761 19.7641 28.2761C20.156 28.2761 20.5279 28.0422 20.6859 27.6579C22.2159 23.9187 22.9896 19.9755 22.9871 15.9353C22.9871 15.3855 22.5418 14.9415 21.992 14.9415H21.9895Z" fill="#1100FF"/>
<path d="M12.705 12.2223C14.7512 10.395 17.9032 10.5729 19.7305 12.6191C20.0963 13.0296 20.7257 13.0644 21.1362 12.6987C21.5454 12.333 21.5815 11.7036 21.2158 11.2931C18.6571 8.42839 14.2449 8.17961 11.3802 10.7383C9.90123 12.0593 9.05289 13.9538 9.05413 15.9391C9.06159 18.7963 8.33018 21.6262 6.94074 24.1227C6.6733 24.6029 6.8462 25.2086 7.32635 25.4761C7.47935 25.5619 7.64603 25.6017 7.80898 25.6017C8.15852 25.6017 8.49686 25.4176 8.67971 25.0905C10.2346 22.2967 11.0518 19.1309 11.0444 15.9353C11.0444 14.5185 11.6489 13.1652 12.705 12.2223Z" fill="#1100FF"/>
<path d="M16.0212 3C14.5509 3 13.0931 3.24629 11.7036 3.74261C11.1862 3.92795 10.9163 4.49641 11.1016 5.01388C11.2869 5.53134 11.8554 5.80127 12.3729 5.61593C13.5359 5.20046 14.7524 4.99024 15.9901 4.99024C16.0001 4.99024 16.0088 4.99024 16.0187 4.99024C22.0542 4.99024 26.9651 9.90117 26.9651 15.9366C26.9638 18.5376 26.6753 21.1423 26.1055 23.6799C25.9849 24.216 26.3232 24.7484 26.8594 24.869C26.9327 24.8852 27.0061 24.8939 27.0783 24.8939C27.5335 24.8939 27.944 24.5792 28.0485 24.1165C28.6493 21.4371 28.9541 18.6844 28.9553 15.9378C28.9553 8.80281 23.1525 3 16.0212 3Z" fill="#1100FF"/>
<path d="M8.72076 7.78529C9.13125 7.41959 9.16732 6.79017 8.80162 6.37968C8.43591 5.9692 7.80649 5.93312 7.39601 6.29883C4.65196 8.74807 3.07967 12.2609 3.08215 15.9378C3.08464 17.5002 2.74257 19.0762 2.09076 20.4967C1.86188 20.9968 2.08081 21.5864 2.57962 21.8165C2.71396 21.8787 2.85452 21.9073 2.99384 21.9073C3.37074 21.9073 3.73147 21.6921 3.8994 21.3264C4.67062 19.6471 5.07613 17.7825 5.0724 15.9353C5.06991 12.8256 6.39964 9.85515 8.72076 7.78529Z" fill="#1100FF"/>
<path d="M14.2661 24.9822C13.766 24.7546 13.1752 24.976 12.9488 25.4761C12.6963 26.0333 12.4338 26.5496 12.1701 27.011C11.8977 27.4887 12.0631 28.0957 12.5408 28.3694C12.6963 28.4577 12.8667 28.5 13.0334 28.5C13.3792 28.5 13.715 28.3196 13.8979 27.9987C14.1927 27.4837 14.4825 26.9115 14.7612 26.2995C14.9888 25.7995 14.7674 25.2086 14.2673 24.9822H14.2661Z" fill="#1100FF"/>
<path d="M16.0175 14.9415C15.4677 14.9415 15.0236 15.388 15.0236 15.9378C15.0261 17.8659 14.7823 19.7902 14.2972 21.6573C14.1591 22.1897 14.4775 22.732 15.0099 22.8701C15.0945 22.8925 15.1779 22.9024 15.2612 22.9024C15.704 22.9024 16.1071 22.6051 16.224 22.1573C16.7514 20.1273 17.0176 18.0326 17.0151 15.9353C17.0151 15.3868 16.5685 14.9415 16.02 14.9415H16.0175Z" fill="#1100FF"/>
</svg>
