<svg width="32" height="32" viewBox="0 0 32 32" fill="none" xmlns="http://www.w3.org/2000/svg">
<path fill-rule="evenodd" clip-rule="evenodd" d="M22.5814 17.5122C23.1269 17.5985 23.4992 18.1107 23.4129 18.6562C23.1644 20.2262 22.4253 21.6771 21.3013 22.8011C20.1774 23.925 18.7264 24.6642 17.1564 24.9126C16.6109 24.9989 16.0988 24.6267 16.0124 24.0812C15.9261 23.5357 16.2984 23.0235 16.8439 22.9372C17.9965 22.7548 19.0619 22.2121 19.8871 21.3869C20.7123 20.5616 21.255 19.4963 21.4374 18.3436C21.5238 17.7981 22.0359 17.4259 22.5814 17.5122Z" fill="#1100FF"/>
<path fill-rule="evenodd" clip-rule="evenodd" d="M18.1794 1.37722C18.4992 1.32186 18.826 1.42514 19.0559 1.65424C22.6895 5.27537 27.5 10.5424 27.5 17.5001C27.5 20.55 26.2884 23.4751 24.1317 25.6318C21.9751 27.7885 19.05 29.0001 16 29.0001C12.95 29.0001 10.0249 27.7885 7.86827 25.6318C5.7116 23.4751 4.5 20.55 4.5 17.5001C4.5 14.0983 6.21113 10.5683 8.16685 7.62202C8.3136 7.40093 8.54222 7.24724 8.80234 7.19479C9.06247 7.14234 9.33278 7.19543 9.55374 7.34237L13.593 10.0285L17.4471 1.93272C17.5866 1.63968 17.8596 1.43257 18.1794 1.37722ZM18.6398 4.08021L14.9029 11.9299C14.7783 12.1917 14.5461 12.3866 14.2666 12.4639C13.987 12.5412 13.6877 12.4933 13.4463 12.3328L9.29256 9.57054C7.67177 12.1877 6.5 14.9749 6.5 17.5001C6.5 20.0196 7.50089 22.436 9.28249 24.2176C11.0641 25.9992 13.4804 27.0001 16 27.0001C18.5196 27.0001 20.9359 25.9992 22.7175 24.2176C24.4991 22.436 25.5 20.0196 25.5 17.5001C25.5 11.9997 22.0283 7.58427 18.6398 4.08021Z" fill="#1100FF"/>
</svg>
