<svg width="32" height="32" viewBox="0 0 32 32" fill="none" xmlns="http://www.w3.org/2000/svg">
<path fill-rule="evenodd" clip-rule="evenodd" d="M18.1667 1.37722C18.4865 1.32186 18.8133 1.42514 19.0432 1.65424C22.6768 5.27537 27.4873 10.5424 27.4873 17.5001C27.4873 20.55 26.2757 23.4751 24.119 25.6318C21.9624 27.7885 19.0373 29.0001 15.9873 29.0001C12.9373 29.0001 10.0122 27.7885 7.85558 25.6318C5.69891 23.4751 4.4873 20.55 4.4873 17.5001C4.4873 14.0983 6.19843 10.5683 8.15415 7.62202C8.30091 7.40093 8.52952 7.24724 8.78965 7.19479C9.04977 7.14234 9.32008 7.19543 9.54104 7.34237L13.5803 10.0285L17.4344 1.93272C17.5739 1.63968 17.8469 1.43257 18.1667 1.37722ZM18.6271 4.08021L14.8902 11.9299C14.7656 12.1917 14.5334 12.3866 14.2539 12.4639C13.9743 12.5412 13.675 12.4933 13.4336 12.3328L9.27986 9.57054C7.65907 12.1877 6.4873 14.9749 6.4873 17.5001C6.4873 20.0196 7.48819 22.436 9.26979 24.2176C11.0514 25.9992 13.4677 27.0001 15.9873 27.0001C18.5069 27.0001 20.9232 25.9992 22.7048 24.2176C24.4864 22.436 25.4873 20.0196 25.4873 17.5001C25.4873 11.9997 22.0156 7.58427 18.6271 4.08021Z" fill="#1100FF"/>
</svg>
