<svg width="32" height="32" viewBox="0 0 32 32" fill="none" xmlns="http://www.w3.org/2000/svg">
<path d="M19.5 11C20.3284 11 21 10.3284 21 9.5C21 8.67157 20.3284 8 19.5 8C18.6716 8 18 8.67157 18 9.5C18 10.3284 18.6716 11 19.5 11Z" fill="#1100FF"/>
<path fill-rule="evenodd" clip-rule="evenodd" d="M21.1367 3.35736C23.5447 3.29936 25.5868 3.65629 26.5867 3.87266L26.5947 3.8744C26.9687 3.95854 27.3111 4.14711 27.5821 4.41815C27.8531 4.68918 28.0417 5.03158 28.1258 5.40553L28.1276 5.41353C28.344 6.41343 28.7009 8.45556 28.6429 10.8636C28.585 13.2657 28.1126 16.1007 26.6099 18.6296C25.0898 21.1877 22.5575 23.359 18.5336 24.4595C16.0133 25.1489 12.923 25.4148 9.14135 25.1135C9.33675 26.5626 9.61216 28.1178 9.97712 29.7864C10.0951 30.3259 9.75341 30.8589 9.21388 30.9769C8.67435 31.095 8.14131 30.7532 8.02331 30.2137C7.6088 28.3186 7.30338 26.5511 7.0972 24.903C5.44912 24.6969 3.68168 24.3915 1.78654 23.9769C1.24701 23.8589 0.905298 23.3259 1.02331 22.7864C1.14131 22.2468 1.67435 21.9051 2.21388 22.0231C3.88246 22.3881 5.43762 22.6635 6.88679 22.8589C6.58546 19.0773 6.85139 15.987 7.54072 13.4667C8.6413 9.44273 10.8126 6.91044 13.3706 5.39037C15.8995 3.88761 18.7346 3.41522 21.1367 3.35736ZM8.91316 23.0871C12.6949 23.4245 15.6713 23.1689 18.0059 22.5304C21.5429 21.563 23.6419 19.7093 24.8905 17.6079C26.1565 15.4775 26.5904 13.0188 26.6435 10.8154C26.6963 8.62371 26.3707 6.75271 26.1744 5.84367C26.1733 5.8394 26.171 5.83549 26.1679 5.83236C26.1648 5.82928 26.161 5.82707 26.1568 5.82592C25.2478 5.62963 23.3767 5.30398 21.1848 5.35678C18.9815 5.40986 16.5228 5.84372 14.3923 7.10971C12.291 8.35839 10.4373 10.4573 9.46986 13.9943C8.83133 16.3289 8.5757 19.3053 8.91316 23.0871Z" fill="#1100FF"/>
<path fill-rule="evenodd" clip-rule="evenodd" d="M13.0145 5.82506C13.5667 5.83317 14.0078 6.2874 13.9997 6.83963C13.9781 8.31024 14.2517 9.77024 14.8042 11.1333C15.3567 12.4963 16.1769 13.7347 17.2164 14.7753C18.2558 15.8158 19.4934 16.6373 20.8559 17.1912C22.2183 17.7451 23.6781 18.0201 25.1487 18C25.7009 17.9925 26.1547 18.4341 26.1622 18.9863C26.1698 19.5385 25.7282 19.9923 25.176 19.9999C23.438 20.0236 21.7128 19.6985 20.1026 19.0439C18.4924 18.3893 17.0299 17.4184 15.8014 16.1887C14.573 14.959 13.6036 13.4955 12.9507 11.8846C12.2977 10.2737 11.9744 8.54826 11.9999 6.81028C12.008 6.25805 12.4623 5.81696 13.0145 5.82506Z" fill="#1100FF"/>
</svg>
