<svg width="32" height="32" viewBox="0 0 32 32" fill="none" xmlns="http://www.w3.org/2000/svg">
<path fill-rule="evenodd" clip-rule="evenodd" d="M5 5C5.55228 5 6 5.44772 6 6V27C6 27.5523 5.55228 28 5 28C4.44772 28 4 27.5523 4 27V6C4 5.44772 4.44772 5 5 5Z" fill="#1100FF"/>
<path fill-rule="evenodd" clip-rule="evenodd" d="M21.4155 6.69286C22.9832 6.85504 24.606 6.54559 26.4001 5.20005C26.7031 4.97279 27.1085 4.93623 27.4473 5.10562C27.7861 5.27502 28.0001 5.62128 28.0001 6.00005V21.0001C28.0001 21.3148 27.8519 21.6112 27.6001 21.8001C25.3941 23.4545 23.2669 23.8951 21.2097 23.6822C19.2452 23.479 17.3766 22.6781 15.6742 21.9484L15.6061 21.9192C13.8268 21.1566 12.219 20.4763 10.5847 20.3072C9.01695 20.1451 7.39411 20.4545 5.60006 21.8001C5.15823 22.1314 4.53143 22.0419 4.20006 21.6001C3.86869 21.1582 3.95823 20.5314 4.40006 20.2001C6.606 18.5456 8.73317 18.105 10.7905 18.3179C12.755 18.5211 14.6235 19.322 16.326 20.0518L16.394 20.0809C18.1734 20.8435 19.7811 21.5238 21.4155 21.6929C22.8658 21.8429 24.3634 21.5893 26.0001 20.485V7.80204C24.3607 8.63053 22.7652 8.84316 21.2097 8.68224C19.2452 8.47902 17.3766 7.67807 15.6742 6.94835L15.6061 6.9192C13.8268 6.15661 12.219 5.47631 10.5847 5.30724C9.01695 5.14507 7.39411 5.45451 5.60006 6.80005C5.15823 7.13142 4.53143 7.04188 4.20006 6.60005C3.86869 6.15822 3.95823 5.53142 4.40006 5.20005C6.606 3.54559 8.73317 3.10504 10.7905 3.31786C12.755 3.52108 14.6235 4.32203 16.326 5.05176L16.394 5.08091C18.1734 5.8435 19.7811 6.52379 21.4155 6.69286Z" fill="#1100FF"/>
<path fill-rule="evenodd" clip-rule="evenodd" d="M21.4155 13.9553C22.9832 14.1175 24.606 13.808 26.4001 12.4625C26.8419 12.1311 27.4687 12.2207 27.8001 12.6625C28.1314 13.1043 28.0419 13.7311 27.6001 14.0625C25.3941 15.717 23.2669 16.1575 21.2097 15.9447C19.2452 15.7415 17.3766 14.9405 15.6742 14.2108L15.6061 14.1816C13.8268 13.4191 12.219 12.7388 10.5847 12.5697C9.01695 12.4075 7.39411 12.717 5.60006 14.0625C5.15823 14.3939 4.53143 14.3043 4.20006 13.8625C3.86869 13.4207 3.95823 12.7939 4.40006 12.4625C6.606 10.808 8.73317 10.3675 10.7905 10.5803C12.755 10.7835 14.6235 11.5845 16.326 12.3142L16.394 12.3434C18.1734 13.1059 19.7811 13.7862 21.4155 13.9553Z" fill="#1100FF"/>
<path fill-rule="evenodd" clip-rule="evenodd" d="M12.5 3.67505C13.0523 3.67505 13.5 4.12276 13.5 4.67505V19.675C13.5 20.2273 13.0523 20.675 12.5 20.675C11.9477 20.675 11.5 20.2273 11.5 19.675V4.67505C11.5 4.12276 11.9477 3.67505 12.5 3.67505Z" fill="#1100FF"/>
<path fill-rule="evenodd" clip-rule="evenodd" d="M19.5 6.32495C20.0523 6.32495 20.5 6.77267 20.5 7.32495V22.325C20.5 22.8772 20.0523 23.325 19.5 23.325C18.9477 23.325 18.5 22.8772 18.5 22.325V7.32495C18.5 6.77267 18.9477 6.32495 19.5 6.32495Z" fill="#1100FF"/>
</svg>
