<svg width="32" height="32" viewBox="0 0 32 32" fill="none" xmlns="http://www.w3.org/2000/svg">
<path fill-rule="evenodd" clip-rule="evenodd" d="M12.9998 3C13.5521 3 13.9998 3.44772 13.9998 4V11.7317C13.9975 12.0827 13.905 12.4272 13.7314 12.7323L13.7198 12.752L5.77102 26H26.2286L18.2798 12.752L18.2683 12.7323C18.0946 12.4272 18.0022 12.0827 17.9999 11.7317L17.9998 11.725L17.9998 4C17.9998 3.44772 18.4475 3 18.9998 3C19.5521 3 19.9998 3.44772 19.9998 4V11.7195C20 11.7263 20.0016 11.733 20.0045 11.7391L27.946 24.975C28.1264 25.2773 28.2239 25.6219 28.2285 25.9739C28.2331 26.3259 28.1447 26.673 27.9722 26.9799C27.7997 27.2868 27.5493 27.5427 27.2462 27.7219C26.9431 27.901 26.598 27.9969 26.246 28L26.2373 28L5.75367 28C5.40161 27.997 5.0566 27.901 4.7535 27.7219C4.45039 27.5427 4.19994 27.2868 4.02746 26.9799C3.85497 26.673 3.76657 26.3259 3.77117 25.9739C3.77577 25.6219 3.87322 25.2773 4.05367 24.975L4.05484 24.973L11.9952 11.7391C11.998 11.733 11.9996 11.7263 11.9998 11.7195V4C11.9998 3.44772 12.4475 3 12.9998 3Z" fill="#1100FF"/>
<path fill-rule="evenodd" clip-rule="evenodd" d="M10 4C10 3.44772 10.4477 3 11 3H21C21.5523 3 22 3.44772 22 4C22 4.55228 21.5523 5 21 5H11C10.4477 5 10 4.55228 10 4Z" fill="#1100FF"/>
<path fill-rule="evenodd" clip-rule="evenodd" d="M15.5527 21.8944C11.6322 19.9404 9.51442 20.6216 8.4182 21.4298C7.97368 21.7576 7.34763 21.6629 7.01989 21.2184C6.69214 20.7738 6.78682 20.1478 7.23134 19.8201C9.08503 18.4534 12.042 17.9096 16.4459 20.105L16.448 20.106C18.5655 21.1677 20.1522 21.4434 21.3151 21.3647C22.4651 21.2869 23.2722 20.8583 23.8392 20.3758C24.2599 20.0179 24.891 20.0688 25.2489 20.4894C25.6068 20.91 25.5559 21.5412 25.1353 21.8991C24.2773 22.6291 23.0719 23.2505 21.4501 23.3602C19.8413 23.469 17.8972 23.0698 15.5527 21.8944Z" fill="#1100FF"/>
</svg>
