<svg width="32" height="32" viewBox="0 0 32 32" fill="none" xmlns="http://www.w3.org/2000/svg">
<path fill-rule="evenodd" clip-rule="evenodd" d="M30.0723 14.2311C30.3282 14.2956 30.5687 14.4104 30.7798 14.5688C30.9925 14.7285 31.171 14.9292 31.3047 15.1591C31.4384 15.389 31.5247 15.6435 31.5583 15.9073C31.5917 16.1701 31.5723 16.4369 31.5012 16.692C31.053 18.3237 29.6683 21.293 25.6135 23.6405C21.5773 25.9773 18.0433 26.0001 16 26.0001C15.4477 26.0001 15 25.5524 15 25.0001C15 24.4478 15.4477 24.0001 16 24.0001C17.9567 24.0001 21.0477 23.9729 24.6115 21.9096C28.148 19.8622 29.2415 17.3639 29.5712 16.1673C28.792 15.9648 27.3603 15.7666 25.4939 16.2104C24.9566 16.3382 24.4174 16.0062 24.2896 15.4689C24.1619 14.9316 24.4938 14.3925 25.0311 14.2647C27.26 13.7347 29.0256 13.9594 30.0723 14.2311Z" fill="#1100FF"/>
<path fill-rule="evenodd" clip-rule="evenodd" d="M1.92763 14.2311C2.97375 13.9595 4.73715 13.7351 6.9632 14.2509C7.50123 14.3755 7.83633 14.9128 7.71166 15.4508C7.587 15.9888 7.04978 16.3239 6.51175 16.1993C4.64251 15.7661 3.20859 15.9646 2.42872 16.1673C2.75905 17.3658 3.85317 19.8745 7.38637 21.9084C10.9525 23.9613 14.0464 24.0001 16 24.0001C16.5523 24.0001 17 24.4478 17 25.0001C17 25.5524 16.5523 26.0001 16 26.0001C13.9536 26.0001 10.4225 25.9639 6.38857 23.6417C2.33049 21.3057 0.946404 18.3217 0.498758 16.692C0.427642 16.4369 0.408241 16.1701 0.441706 15.9073C0.475308 15.6434 0.561526 15.389 0.69525 15.1591C0.828975 14.9292 1.00749 14.7285 1.22021 14.5688C1.43128 14.4104 1.67177 14.2956 1.92763 14.2311Z" fill="#1100FF"/>
<path fill-rule="evenodd" clip-rule="evenodd" d="M14.8074 4.59455C15.153 4.34027 15.5709 4.20312 16 4.20312C16.4291 4.20312 16.847 4.34027 17.1926 4.59455L17.2025 4.60181C18.6796 5.71661 22 8.88088 22 15.0001C22 18.8869 20.6583 21.6002 19.2863 23.3461C18.6044 24.2137 17.9202 24.8365 17.3999 25.2462C17.1395 25.4513 16.9192 25.6038 16.7592 25.7076C16.6792 25.7595 16.6141 25.7994 16.5665 25.8276C16.5427 25.8417 16.5233 25.853 16.5085 25.8614L16.4899 25.8718L16.4833 25.8755L16.4807 25.8769L16.4796 25.8776C16.479 25.8778 16.4785 25.8781 16 25.0001C15.5215 25.8781 15.521 25.8778 15.5204 25.8776L15.5193 25.8769L15.5167 25.8755L15.5101 25.8718L15.4915 25.8614C15.4767 25.853 15.4573 25.8417 15.4335 25.8276C15.3859 25.7994 15.3208 25.7595 15.2408 25.7076C15.0808 25.6038 14.8605 25.4513 14.6001 25.2462C14.0798 24.8365 13.3956 24.2137 12.7137 23.3461C11.3417 21.6002 10 18.8869 10 15.0001C10 8.88088 13.3205 5.71667 14.7976 4.60186L14.8074 4.59455ZM16 25.0001L15.5215 25.8781C15.8198 26.0407 16.1802 26.0407 16.4785 25.8781L16 25.0001ZM16.4799 24.1227C16.4815 24.1236 16.4825 24.1241 16.4827 24.1243L16.4815 24.1236L16.4799 24.1227ZM16 23.7995C15.9489 23.7615 15.8946 23.72 15.8374 23.675C15.4202 23.3464 14.8544 22.8333 14.2863 22.1103C13.1583 20.6749 12 18.3882 12 15.0001C12 9.7323 14.8155 7.09649 15.9937 6.20485C15.9956 6.20372 15.9978 6.20312 16 6.20312C16.0022 6.20312 16.0044 6.20372 16.0063 6.20485C17.1845 7.09649 20 9.7323 20 15.0001C20 18.3882 18.8417 20.6749 17.7137 22.1103C17.1456 22.8333 16.5798 23.3464 16.1626 23.675C16.1054 23.72 16.0511 23.7615 16 23.7995ZM15.5201 24.1227C15.5185 24.1236 15.5175 24.1241 15.5173 24.1243L15.5185 24.1236L15.5201 24.1227Z" fill="#1100FF"/>
<path fill-rule="evenodd" clip-rule="evenodd" d="M23.9418 7.56217C24.4269 7.45152 24.9359 7.52798 25.367 7.77636C25.7967 8.02391 26.1175 8.42398 26.2657 8.89699C26.8069 10.5675 27.4229 14.207 24.8287 18.7C23.5368 20.9375 21.8223 22.6524 20.2378 23.8507C18.6786 25.0298 17.16 25.7719 16.212 25.9773C15.6722 26.0942 15.1398 25.7515 15.0229 25.2117C14.9059 24.672 15.2487 24.1396 15.7885 24.0227C16.3404 23.9031 17.5906 23.3451 19.0314 22.2555C20.4469 21.1851 21.9636 19.6624 23.0967 17.7C25.3445 13.8068 24.7724 10.7793 24.3643 9.51713C23.0844 9.80648 21.8871 10.3837 20.8635 11.205C20.4327 11.5506 19.8034 11.4816 19.4577 11.0508C19.1121 10.62 19.1811 9.99063 19.6119 9.645C20.8775 8.62958 22.3586 7.91713 23.9418 7.56217Z" fill="#1100FF"/>
<path fill-rule="evenodd" clip-rule="evenodd" d="M8.05828 7.56219C9.64152 7.91715 11.1226 8.62959 12.3881 9.645C12.8189 9.99063 12.8879 10.62 12.5423 11.0508C12.1967 11.4816 11.5673 11.5506 11.1365 11.205C10.1129 10.3837 8.91568 9.80648 7.63576 9.51713C7.2274 10.78 6.65595 13.8191 8.90271 17.6988C10.0359 19.6557 11.5531 21.1788 12.9692 22.2512C14.411 23.3431 15.6608 23.9033 16.2116 24.0227C16.7514 24.1396 17.0941 24.672 16.9772 25.2117C16.8602 25.7515 16.3278 26.0942 15.7881 25.9773C14.8388 25.7716 13.3199 25.0256 11.7618 23.8456C10.1778 22.6461 8.46376 20.9318 7.17197 18.7011C4.57669 14.2196 5.19332 10.5669 5.73433 8.89698C5.88259 8.42397 6.20335 8.0239 6.63304 7.77636C7.06422 7.52797 7.57322 7.45151 8.05828 7.56219Z" fill="#1100FF"/>
</svg>
