<svg width="32" height="32" viewBox="0 0 32 32" fill="none" xmlns="http://www.w3.org/2000/svg">
<path fill-rule="evenodd" clip-rule="evenodd" d="M16 13.5C14.6193 13.5 13.5 14.6193 13.5 16C13.5 17.3807 14.6193 18.5 16 18.5C17.3807 18.5 18.5 17.3807 18.5 16C18.5 14.6193 17.3807 13.5 16 13.5ZM11.5 16C11.5 13.5147 13.5147 11.5 16 11.5C18.4853 11.5 20.5 13.5147 20.5 16C20.5 18.4853 18.4853 20.5 16 20.5C13.5147 20.5 11.5 18.4853 11.5 16Z" fill="#1100FF"/>
<path fill-rule="evenodd" clip-rule="evenodd" d="M16 4.5C15.337 4.5 14.7011 4.76339 14.2322 5.23223C13.7634 5.70107 13.5 6.33696 13.5 7C13.5 7.61899 13.6967 8.48646 14.0415 9.49526C14.3795 10.4838 14.8312 11.5278 15.2786 12.4717C15.5152 12.9707 15.3024 13.5671 14.8033 13.8036C14.3043 14.0402 13.7079 13.8274 13.4714 13.3283C13.0063 12.3472 12.5205 11.2287 12.1491 10.1422C11.7846 9.07604 11.5 7.95601 11.5 7C11.5 5.80653 11.9741 4.66193 12.818 3.81802C13.6619 2.97411 14.8065 2.5 16 2.5C17.1935 2.5 18.3381 2.97411 19.182 3.81802C20.0259 4.66193 20.5 5.80653 20.5 7C20.5 7.95601 20.2154 9.07604 19.8509 10.1422C19.4795 11.2287 18.9937 12.3472 18.5286 13.3283C18.2921 13.8274 17.6957 14.0402 17.1967 13.8036C16.6976 13.5671 16.4848 12.9707 16.7214 12.4717C17.1688 11.5278 17.6205 10.4838 17.9585 9.49526C18.3033 8.48646 18.5 7.61899 18.5 7C18.5 6.33696 18.2366 5.70107 17.7678 5.23223C17.2989 4.76339 16.663 4.5 16 4.5Z" fill="#1100FF"/>
<path fill-rule="evenodd" clip-rule="evenodd" d="M9.47641 9.35622C8.91118 9.07607 8.26059 9.01985 7.65524 9.19943C7.04234 9.38124 6.52238 9.79094 6.20225 10.3443C5.88212 10.8977 5.78614 11.5527 5.93406 12.1746C6.07986 12.7877 6.45172 13.3228 6.9747 13.6731C7.51187 13.9769 8.35259 14.2375 9.38272 14.4408C10.4077 14.6432 11.5375 14.7735 12.5763 14.8529C13.1269 14.8951 13.5392 15.3756 13.4971 15.9263C13.455 16.477 12.9744 16.8892 12.4238 16.8471C11.3375 16.7641 10.1236 16.6257 8.99542 16.403C7.88808 16.1844 6.77615 15.8686 5.94959 15.3908C5.93364 15.3816 5.91794 15.3719 5.90251 15.3618C4.93957 14.7318 4.25456 13.7569 3.98832 12.6373C3.72208 11.5178 3.89483 10.3389 4.47107 9.3428C5.0473 8.34674 5.98323 7.60928 7.08645 7.28201C8.18966 6.95475 9.37634 7.06256 10.4025 7.58328C10.4167 7.59046 10.4306 7.59797 10.4444 7.60581C11.2752 8.07839 12.1051 8.88501 12.8469 9.73443C13.6033 10.6005 14.3306 11.5845 14.9489 12.4833C15.2619 12.9383 15.1468 13.5609 14.6918 13.8739C14.2368 14.1869 13.6142 14.0718 13.3011 13.6168C12.7069 12.7531 12.0279 11.8371 11.3406 11.05C10.6478 10.2568 10.0042 9.66233 9.47641 9.35622Z" fill="#1100FF"/>
<path fill-rule="evenodd" clip-rule="evenodd" d="M13.497 16.0737C13.5391 16.6244 13.1268 17.1049 12.5762 17.147C11.5374 17.2265 10.4076 17.3568 9.38262 17.5591C8.33683 17.7656 7.48626 18.031 6.95032 18.3407C6.93459 18.3498 6.91862 18.3585 6.90242 18.3667C6.59935 18.5205 6.33082 18.7345 6.11323 18.9955C5.89565 19.2566 5.73358 19.5593 5.63692 19.8851C5.54027 20.2109 5.51106 20.5531 5.55109 20.8905C5.59112 21.228 5.69953 21.5538 5.86972 21.848C6.0399 22.1422 6.26828 22.3986 6.5409 22.6015C6.81351 22.8044 7.12464 22.9496 7.45528 23.0283C7.78591 23.1069 8.12911 23.1173 8.46389 23.0588C8.79868 23.0003 9.11802 22.8742 9.40242 22.6881C9.41977 22.6768 9.43747 22.666 9.45549 22.6557C9.98716 22.3533 10.6385 21.7537 11.3405 20.95C12.0278 20.1629 12.7068 19.2469 13.301 18.3832C13.6141 17.9282 14.2367 17.8131 14.6917 18.1261C15.1467 18.4391 15.2618 19.0617 14.9488 19.5167C14.3305 20.4155 13.6033 21.3995 12.8469 22.2656C12.113 23.1058 11.2931 23.9042 10.4712 24.3788C9.96593 24.7044 9.40042 24.9255 8.80805 25.029C8.20544 25.1343 7.58768 25.1155 6.99254 24.974C6.3974 24.8325 5.83737 24.5711 5.34666 24.2058C4.85595 23.8405 4.44487 23.379 4.13854 22.8495C3.83221 22.32 3.63706 21.7336 3.56501 21.1261C3.49296 20.5186 3.54553 19.9028 3.71951 19.3163C3.89348 18.7299 4.18521 18.185 4.57687 17.7151C4.96267 17.2522 5.43746 16.8715 5.97301 16.5957C6.79708 16.1255 7.89845 15.8135 8.99532 15.597C10.1235 15.3743 11.3374 15.2359 12.4237 15.1529C12.9743 15.1108 13.4549 15.523 13.497 16.0737Z" fill="#1100FF"/>
<path fill-rule="evenodd" clip-rule="evenodd" d="M14.8033 18.1965C15.3024 18.433 15.5152 19.0294 15.2786 19.5284C14.8312 20.4723 14.3795 21.5162 14.0415 22.5048C13.6967 23.5136 13.5 24.3811 13.5 25.0001C13.5 25.6631 13.7634 26.299 14.2322 26.7679C14.7011 27.2367 15.337 27.5001 16 27.5001C16.663 27.5001 17.2989 27.2367 17.7678 26.7679C18.2366 26.299 18.5 25.6631 18.5 25.0001C18.5 24.3811 18.3033 23.5136 17.9585 22.5048C17.6205 21.5162 17.1688 20.4723 16.7214 19.5284C16.4848 19.0294 16.6976 18.433 17.1967 18.1965C17.6957 17.9599 18.2921 18.1727 18.5286 18.6717C18.9937 19.6529 19.4795 20.7714 19.8509 21.8579C20.2154 22.924 20.5 24.0441 20.5 25.0001C20.5 26.1936 20.0259 27.3382 19.182 28.1821C18.3381 29.026 17.1935 29.5001 16 29.5001C14.8065 29.5001 13.6619 29.026 12.818 28.1821C11.9741 27.3382 11.5 26.1936 11.5 25.0001C11.5 24.0441 11.7846 22.924 12.1491 21.8579C12.5205 20.7714 13.0063 19.6529 13.4714 18.6717C13.7079 18.1727 14.3043 17.9599 14.8033 18.1965Z" fill="#1100FF"/>
<path fill-rule="evenodd" clip-rule="evenodd" d="M18.503 16.0737C18.5451 15.523 19.0257 15.1108 19.5763 15.1529C20.6626 15.2359 21.8765 15.3743 23.0047 15.597C24.112 15.8156 25.2239 16.1314 26.0505 16.6092C26.0665 16.6184 26.0822 16.628 26.0976 16.6381C27.0605 17.2682 27.7455 18.2431 28.0118 19.3626C28.278 20.4822 28.1053 21.6611 27.529 22.6572C26.9528 23.6532 26.0169 24.3907 24.9136 24.718C23.8104 25.0452 22.6238 24.9374 21.5976 24.4167C21.5834 24.4095 21.5695 24.402 21.5557 24.3942C20.7248 23.9216 19.895 23.115 19.1531 22.2656C18.3967 21.3995 17.6695 20.4155 17.0512 19.5167C16.7382 19.0617 16.8533 18.4391 17.3083 18.1261C17.7633 17.8131 18.3859 17.9282 18.699 18.3832C19.2932 19.2469 19.9722 20.1629 20.6595 20.95C21.3523 21.7432 21.9959 22.3377 22.5237 22.6438C23.0889 22.9239 23.7395 22.9801 24.3449 22.8006C24.9578 22.6187 25.4777 22.209 25.7978 21.6557C26.118 21.1023 26.214 20.4473 26.066 19.8254C25.9202 19.2123 25.5484 18.6772 25.0254 18.3269C24.4882 18.023 23.6475 17.7625 22.6174 17.5591C21.5924 17.3568 20.4626 17.2265 19.4238 17.147C18.8732 17.1049 18.4609 16.6244 18.503 16.0737Z" fill="#1100FF"/>
<path fill-rule="evenodd" clip-rule="evenodd" d="M22.5237 9.35622C21.9959 9.66233 21.3523 10.2568 20.6595 11.05C19.9722 11.8371 19.2932 12.7531 18.699 13.6168C18.3859 14.0718 17.7633 14.1869 17.3083 13.8739C16.8533 13.5609 16.7382 12.9383 17.0512 12.4833C17.6695 11.5845 18.3967 10.6005 19.1531 9.73443C19.895 8.88501 20.7248 8.07839 21.5557 7.60581C21.5695 7.59797 21.5834 7.59046 21.5976 7.58328C22.6238 7.06256 23.8104 6.95475 24.9136 7.28201C26.0169 7.60928 26.9528 8.34674 27.529 9.3428C28.1053 10.3389 28.278 11.5178 28.0118 12.6373C27.7455 13.7569 27.0605 14.7318 26.0976 15.3618C26.0822 15.3719 26.0665 15.3816 26.0505 15.3908C25.2239 15.8686 24.112 16.1844 23.0047 16.403C21.8765 16.6257 20.6626 16.7641 19.5763 16.8471C19.0257 16.8892 18.5451 16.477 18.503 15.9263C18.4609 15.3756 18.8732 14.8951 19.4238 14.8529C20.4626 14.7735 21.5924 14.6432 22.6174 14.4408C23.6475 14.2375 24.4882 13.9769 25.0254 13.6731C25.5484 13.3228 25.9202 12.7877 26.066 12.1746C26.214 11.5527 26.118 10.8977 25.7978 10.3443C25.4777 9.79094 24.9578 9.38124 24.3449 9.19943C23.7395 9.01985 23.0889 9.07607 22.5237 9.35622Z" fill="#1100FF"/>
</svg>
