<svg width="32" height="32" viewBox="0 0 32 32" fill="none" xmlns="http://www.w3.org/2000/svg">
<path d="M22.0863 23.425C21.9963 22.88 21.4813 22.5112 20.9363 22.6012C20.3913 22.6912 20.0225 23.2062 20.1125 23.7512L20.6 26.7013C20.6812 27.1913 21.105 27.5387 21.585 27.5387C21.6387 27.5387 21.6938 27.5338 21.7488 27.525C22.2938 27.435 22.6625 26.92 22.5725 26.375L22.085 23.425H22.0863Z" fill="#1100FF"/>
<path d="M16 23C15.4475 23 15 23.4475 15 24V28C15 28.5525 15.4475 29 16 29C16.5525 29 17 28.5525 17 28V24C17 23.4475 16.5525 23 16 23Z" fill="#1100FF"/>
<path d="M11.0625 22.6012C10.5175 22.5112 10.0025 22.88 9.9125 23.425L9.425 26.375C9.335 26.92 9.70375 27.435 10.2487 27.525C10.3038 27.5338 10.3588 27.5387 10.4125 27.5387C10.8925 27.5387 11.3175 27.1913 11.3975 26.7013L11.885 23.7512C11.975 23.2062 11.6062 22.6912 11.0612 22.6012H11.0625Z" fill="#1100FF"/>
<path d="M22.75 7.71375C21.3288 5.48375 18.835 4 16 4C15.9663 4 15.9325 4 15.8988 4C13.135 4.03625 10.6988 5.51375 9.2875 7.71375C4.16375 8.86 1 11.2475 1 14C1 16.0275 2.67125 17.86 5.705 19.1613C8.47 20.3475 12.1275 21 16 21C19.8725 21 23.53 20.3475 26.2962 19.1613C29.33 17.86 31 16.0275 31 14C31 11.2162 27.925 8.88125 22.75 7.7125V7.71375ZM15.925 6H16C19.3088 6 22 8.69125 22 12V12.4925C22.0025 12.9488 21.68 13.3512 21.2313 13.45C19.52 13.8325 17.7638 14.0175 16.0087 14.0013C16.005 14.0013 16.0025 14.0013 15.9987 14.0013C15.995 14.0013 15.9925 14.0013 15.9888 14.0013C14.235 14.0175 12.4775 13.8325 10.7638 13.45C10.3188 13.3512 9.99625 12.95 9.99875 12.4937V12.1012C9.99875 11.0425 10.27 10.0437 10.7437 9.17125C10.78 9.11875 10.8112 9.0625 10.8375 9.005C11.8737 7.23375 13.765 6.02875 15.9237 6.00125L15.925 6ZM16 19C8.33875 19 3 16.365 3 14C3 12.53 5.08875 11.005 8.26375 10.0475C8.0925 10.7038 8 11.3913 8 12.1V12.4862C7.995 13.8763 8.97625 15.1025 10.3313 15.4012C12.1888 15.8162 14.0963 16.0175 16 16C16.0763 16 16.1537 16 16.23 16C18.0575 16 19.885 15.7987 21.665 15.4C23.0238 15.1 24.0063 13.8737 24 12.4862V11.9988C24 11.3238 23.915 10.6687 23.7575 10.0425C26.9575 11.005 29 12.5087 29 13.9987C29 16.3637 23.6613 18.9987 16 18.9987V19Z" fill="#1100FF"/>
</svg>
