<svg width="32" height="32" viewBox="0 0 32 32" fill="none" xmlns="http://www.w3.org/2000/svg">
<path d="M28 19.5H27V19C27 17.07 25.43 15.5 23.5 15.5C21.57 15.5 20 17.07 20 19V19.5H19C18.4475 19.5 18 19.9475 18 20.5V26C18 26.5525 18.4475 27 19 27H28C28.5525 27 29 26.5525 29 26V20.5C29 19.9475 28.5525 19.5 28 19.5ZM22 19C22 18.1725 22.6725 17.5 23.5 17.5C24.3275 17.5 25 18.1725 25 19V19.5H22V19ZM27 25H20V21.5H27V25Z" fill="#1100FF"/>
<path d="M27 9H16.4137L12.9925 5.57875C12.6225 5.21125 12.1125 5 11.5938 5H5C3.8975 5 3 5.8975 3 7V25.075C3 26.1363 3.86375 27 4.925 27H14.075C14.6275 27 15.075 26.5525 15.075 26C15.075 25.4475 14.6275 25 14.075 25H5V11H27V13C27 13.5525 27.4475 14 28 14C28.5525 14 29 13.5525 29 13V11C29 9.8975 28.1025 9 27 9ZM11.58 6.995L13.585 9H5V7L11.58 6.995Z" fill="#1100FF"/>
</svg>
