<svg width="32" height="32" viewBox="0 0 32 32" fill="none" xmlns="http://www.w3.org/2000/svg">
<path d="M27 9H16.4137L12.9925 5.57875C12.6225 5.21125 12.1125 5 11.5938 5H5C3.8975 5 3 5.8975 3 7V25.075C3 26.1363 3.86375 27 4.925 27H27.1125C28.1537 27 29 26.1537 29 25.1125V11C29 9.8975 28.1025 9 27 9ZM5 7L11.58 6.995L13.585 9H5V7ZM27 25H5V11H27V25Z" fill="#1100FF"/>
<path d="M13 19H19C19.5525 19 20 18.5525 20 18C20 17.4475 19.5525 17 19 17H13C12.4475 17 12 17.4475 12 18C12 18.5525 12.4475 19 13 19Z" fill="#1100FF"/>
</svg>
