<svg width="32" height="32" viewBox="0 0 32 32" fill="none" xmlns="http://www.w3.org/2000/svg">
<path d="M30.0214 13.5849C29.644 13.2075 29.1416 12.9988 28.6079 12.9988H26.9957V10.9991C26.9957 9.8968 26.0984 8.99946 24.9961 8.99946H16.3339L12.857 6.39743C12.5096 6.13873 12.0971 6.00125 11.661 6H4.99964C3.89734 6 3 6.89734 3 7.99964V25.9964C3 26.0027 3 26.0089 3 26.0152C3 26.0289 3.00125 26.0439 3.0025 26.0577C3.00375 26.0814 3.00625 26.1052 3.00875 26.1277C3.01 26.1402 3.0125 26.1527 3.015 26.1651C3.02 26.1914 3.025 26.2164 3.03124 26.2414C3.03374 26.2514 3.03624 26.2614 3.03874 26.2726C3.04749 26.3026 3.05749 26.3314 3.06874 26.3601C3.07124 26.3651 3.07249 26.3714 3.07499 26.3764C3.08998 26.4114 3.10498 26.4451 3.12373 26.4788C3.12498 26.4826 3.12748 26.4851 3.12998 26.4888C3.14622 26.5176 3.16372 26.5451 3.18247 26.5713C3.18497 26.5751 3.18622 26.5788 3.18872 26.5813C3.19372 26.5876 3.19871 26.5926 3.20246 26.5988C3.21746 26.6188 3.23371 26.6388 3.24996 26.6576C3.2587 26.6676 3.26745 26.6776 3.2762 26.6863C3.2937 26.7051 3.31244 26.7226 3.33119 26.7388C3.33994 26.7463 3.34744 26.7538 3.35619 26.7613C3.38368 26.785 3.41243 26.8063 3.44242 26.8275L3.44492 26.83C3.47367 26.85 3.50491 26.8675 3.53615 26.8838C3.5449 26.8875 3.5524 26.8913 3.56115 26.8963C3.58615 26.9088 3.61114 26.92 3.63739 26.93C3.64738 26.9338 3.65738 26.9375 3.66738 26.9413C3.69238 26.95 3.71737 26.9575 3.74362 26.965C3.75362 26.9675 3.76486 26.9713 3.77486 26.9738C3.80111 26.98 3.8286 26.985 3.8561 26.9888C3.8661 26.99 3.87609 26.9925 3.88609 26.9938C3.92359 26.9975 3.96108 27 3.99857 27H25.9959C26.4258 27 26.8082 26.725 26.9445 26.3164L30.5076 15.627C30.5738 15.4246 30.6076 15.2146 30.6076 15.0021C30.6076 14.4685 30.4001 13.9661 30.0214 13.5886V13.5849ZM11.6622 8.00089L15.1391 10.6017C15.4865 10.8604 15.8989 10.9979 16.3351 10.9991H24.9961V12.9988H8.72398C7.85788 12.9988 7.09552 13.5512 6.82557 14.3698L4.99964 19.8425V7.99964H11.6622V8.00089ZM25.276 24.9979H5.38707L8.72398 14.9996L25.9322 14.9959C25.9534 14.9971 25.9746 14.9996 25.9959 14.9996C26.0171 14.9996 26.0384 14.9971 26.0596 14.9959H28.6092L25.2748 24.9979H25.276Z" fill="#1100FF"/>
</svg>
