<svg width="32" height="32" viewBox="0 0 32 32" fill="none" xmlns="http://www.w3.org/2000/svg">
<path d="M15.075 25H5V11H27V15C27 15.5525 27.4475 16 28 16C28.5525 16 29 15.5525 29 15V11C29 9.8975 28.1025 9 27 9H16.4137L12.9925 5.57875C12.6225 5.21125 12.1125 5 11.5938 5H5C3.8975 5 3 5.8975 3 7V25.075C3 26.1363 3.86375 27 4.925 27H15.075C15.6275 27 16.075 26.5525 16.075 26C16.075 25.4475 15.6275 25 15.075 25ZM11.58 6.995L13.585 9H5V7L11.58 6.995Z" fill="#1100FF"/>
<path d="M30.4538 19.8988C30.3313 19.51 29.9837 19.235 29.5775 19.2037L25.8425 18.9125L24.4188 15.605C24.2613 15.2375 23.9 15 23.5 15C23.1 15 22.74 15.2375 22.5812 15.605L21.1575 18.9125L17.4225 19.2037C17.0162 19.235 16.67 19.51 16.5463 19.8988C16.4225 20.2875 16.5487 20.7112 16.8625 20.9712L19.6775 23.295L18.8162 26.7588C18.7188 27.15 18.8662 27.5613 19.1887 27.8013C19.5112 28.0425 19.9475 28.0662 20.2938 27.8612L23.4988 25.9725L26.7038 27.8612C26.8612 27.9538 27.0363 28 27.2113 28C27.4225 28 27.6325 27.9338 27.8088 27.8013C28.1313 27.56 28.2787 27.15 28.1812 26.7588L27.32 23.295L30.135 20.9712C30.4487 20.7112 30.575 20.2875 30.4513 19.8988H30.4538ZM25.5637 22.1537C25.2675 22.3988 25.1375 22.7925 25.23 23.1663L25.6675 24.9287L24.0075 23.9513C23.8512 23.8587 23.675 23.8125 23.5 23.8125C23.325 23.8125 23.1488 23.8587 22.9925 23.9513L21.3325 24.9287L21.77 23.1663C21.8625 22.7925 21.7325 22.3988 21.4363 22.1537L20.045 21.005L21.915 20.86C22.285 20.8312 22.6088 20.6 22.7563 20.2587L23.5 18.53L24.2437 20.2587C24.39 20.6 24.715 20.8312 25.085 20.86L26.955 21.005L25.5637 22.1537Z" fill="#1100FF"/>
</svg>
