<svg width="32" height="32" viewBox="0 0 32 32" fill="none" xmlns="http://www.w3.org/2000/svg">
<path fill-rule="evenodd" clip-rule="evenodd" d="M24.6332 5.72359C21.2283 5.14794 14.4575 4.79508 9.63287 9.63133C4.80614 14.4697 5.14823 21.2311 5.72342 24.6334L5.72365 24.6347C5.79247 25.0451 5.98762 25.4238 6.28189 25.7181C6.57615 26.0124 6.95489 26.2075 7.36531 26.2764L7.36662 26.2766C10.7687 26.8517 17.5295 27.1938 22.3678 22.368C27.1937 17.5297 26.8516 10.7688 26.2764 7.36678L26.2762 7.36547C26.2074 6.95505 26.0122 6.57632 25.7179 6.28205C25.4237 5.98778 25.0449 5.79264 24.6345 5.72381L24.6332 5.72359ZM24.9666 3.75157C21.4215 3.15222 13.7673 2.65508 8.21696 8.21882C2.66904 13.7801 3.15155 21.4181 3.7513 24.9661C3.88906 25.7867 4.27929 26.5439 4.86767 27.1323C5.4559 27.7205 6.21287 28.1107 7.03322 28.2486C10.581 28.8484 18.2195 29.3313 23.7812 23.783L23.7829 23.7813C29.3308 18.22 28.8483 10.5821 28.2485 7.03403C28.1108 6.21343 27.7205 5.45621 27.1322 4.86783C26.5439 4.27961 25.787 3.88943 24.9666 3.75157Z" fill="#1100FF"/>
<path fill-rule="evenodd" clip-rule="evenodd" d="M20.7071 11.293C21.0976 11.6835 21.0976 12.3166 20.7071 12.7072L12.7071 20.7072C12.3166 21.0977 11.6834 21.0977 11.2929 20.7072C10.9024 20.3166 10.9024 19.6835 11.2929 19.293L19.2929 11.293C19.6834 10.9024 20.3166 10.9024 20.7071 11.293Z" fill="#1100FF"/>
<path fill-rule="evenodd" clip-rule="evenodd" d="M14.8803 12.0555C15.2708 11.6649 15.904 11.6649 16.2945 12.0555L19.9445 15.7055C20.335 16.096 20.335 16.7292 19.9445 17.1197C19.554 17.5102 18.9208 17.5102 18.5303 17.1197L14.8803 13.4697C14.4898 13.0792 14.4898 12.446 14.8803 12.0555Z" fill="#1100FF"/>
<path fill-rule="evenodd" clip-rule="evenodd" d="M12.0556 14.8805C12.4461 14.49 13.0793 14.49 13.4698 14.8805L17.1198 18.5305C17.5103 18.921 17.5103 19.5542 17.1198 19.9447C16.7293 20.3352 16.0961 20.3352 15.7056 19.9447L12.0556 16.2947C11.6651 15.9042 11.6651 15.271 12.0556 14.8805Z" fill="#1100FF"/>
<path fill-rule="evenodd" clip-rule="evenodd" d="M17.8178 3.81798C18.2083 3.42745 18.8415 3.42745 19.232 3.81798L28.182 12.768C28.5725 13.1585 28.5725 13.7917 28.182 14.1822C27.7915 14.5727 27.1583 14.5727 26.7678 14.1822L17.8178 5.23219C17.4273 4.84167 17.4273 4.2085 17.8178 3.81798Z" fill="#1100FF"/>
<path fill-rule="evenodd" clip-rule="evenodd" d="M3.8178 17.818C4.20832 17.4275 4.84148 17.4275 5.23201 17.818L14.182 26.768C14.5725 27.1585 14.5725 27.7917 14.182 28.1822C13.7915 28.5727 13.1583 28.5727 12.7678 28.1822L3.8178 19.2322C3.42727 18.8417 3.42727 18.2085 3.8178 17.818Z" fill="#1100FF"/>
</svg>
