<svg width="32" height="32" viewBox="0 0 32 32" fill="none" xmlns="http://www.w3.org/2000/svg">
<path fill-rule="evenodd" clip-rule="evenodd" d="M18 13.5C18 12.9477 18.4477 12.5 19 12.5H23C23.5523 12.5 24 12.9477 24 13.5C24 14.0523 23.5523 14.5 23 14.5H19C18.4477 14.5 18 14.0523 18 13.5Z" fill="#1100FF"/>
<path fill-rule="evenodd" clip-rule="evenodd" d="M8 13.5C8 12.9477 8.44772 12.5 9 12.5H13C13.5523 12.5 14 12.9477 14 13.5C14 14.0523 13.5523 14.5 13 14.5H9C8.44772 14.5 8 14.0523 8 13.5Z" fill="#1100FF"/>
<path fill-rule="evenodd" clip-rule="evenodd" d="M11 10.5C11.5523 10.5 12 10.9477 12 11.5V15.5C12 16.0523 11.5523 16.5 11 16.5C10.4477 16.5 10 16.0523 10 15.5V11.5C10 10.9477 10.4477 10.5 11 10.5Z" fill="#1100FF"/>
<path fill-rule="evenodd" clip-rule="evenodd" d="M21.5001 5.96252C23.4892 5.96252 25.3968 6.7527 26.8034 8.15922C28.2099 9.56575 29.0001 11.4734 29.0001 13.4625C29.0001 15.4516 28.2099 17.3593 26.8034 18.7658C25.3974 20.1718 23.4907 20.9619 21.5025 20.9625H21.5001L13.821 20.998L8.71696 26.6455L7.97506 25.975L8.68362 26.6807C8.00695 27.3601 7.13094 27.8056 6.18331 27.9523C5.23567 28.0989 4.26597 27.939 3.41559 27.4959C2.56521 27.0528 1.87861 26.3496 1.45592 25.4889C1.03322 24.6281 0.896523 23.6549 1.06576 22.711L1.06855 22.6961L3.11698 12.1917C3.42629 10.4598 4.33365 8.89128 5.681 7.75971C7.0304 6.62643 8.73523 6.00357 10.4974 6.00003M21.5001 7.96252L10.502 8.00002C9.20874 8.00248 7.95755 8.45954 6.96724 9.29124C5.97694 10.1229 5.31057 11.2763 5.08469 12.5497L4.10006 12.375L5.08157 12.5664L3.03315 23.0709C2.94101 23.5931 3.01731 24.1311 3.25112 24.6072C3.48595 25.0854 3.86739 25.4761 4.33983 25.7223C4.81226 25.9685 5.35098 26.0573 5.87745 25.9758C6.39659 25.8955 6.87704 25.6537 7.25076 25.285L12.6332 19.3295C12.8217 19.1209 13.0893 19.0013 13.3704 19L21.4954 18.9625L21.5001 18.9625C22.9588 18.9625 24.3577 18.3831 25.3891 17.3516C26.4206 16.3202 27.0001 14.9212 27.0001 13.4625C27.0001 12.0038 26.4206 10.6049 25.3891 9.57344C24.3581 8.54237 22.9598 7.96296 21.5017 7.96252L21.5001 7.96252Z" fill="#1100FF"/>
<path fill-rule="evenodd" clip-rule="evenodd" d="M27.7093 11.3559C28.2514 11.2505 28.7763 11.6046 28.8816 12.1468L30.9317 22.6968L30.9343 22.711C31.1035 23.6549 30.9669 24.6281 30.5442 25.4889C30.1215 26.3496 29.4349 27.0528 28.5845 27.4959C27.7341 27.939 26.7644 28.0989 25.8168 27.9523C24.8691 27.8057 23.9931 27.3601 23.3165 26.6807L24.025 25.975L23.2817 26.644L17.8817 20.644C17.5123 20.2335 17.5455 19.6012 17.956 19.2317C18.3666 18.8623 18.9988 18.8956 19.3683 19.3061L24.75 25.2857C25.1236 25.654 25.6038 25.8955 26.1226 25.9758C26.6491 26.0573 27.1878 25.9685 27.6602 25.7223C28.1327 25.4761 28.5141 25.0854 28.749 24.6073C28.9828 24.1311 29.0591 23.5929 28.9669 23.0706L26.9184 12.5283C26.813 11.9861 27.1671 11.4612 27.7093 11.3559Z" fill="#1100FF"/>
</svg>
