<svg width="32" height="32" viewBox="0 0 32 32" fill="none" xmlns="http://www.w3.org/2000/svg">
<path fill-rule="evenodd" clip-rule="evenodd" d="M20.5602 8.90025C19.099 8.29992 17.5336 7.99401 15.9538 8.00009C9.34325 8.02312 4 13.4874 4 20.1376V23.0001H28V20.0001C28 18.4203 27.6881 16.8561 27.0822 15.3972C26.4762 13.9383 25.5882 12.6134 24.469 11.4984C23.3498 10.3835 22.0215 9.50059 20.5602 8.90025ZM15.9465 6.0001C17.7894 5.99306 19.6156 6.34995 21.3203 7.0503C23.025 7.75069 24.5747 8.7808 25.8805 10.0815C27.1862 11.3822 28.2223 12.928 28.9292 14.6301C29.6361 16.3321 30 18.1571 30 20.0001V23.0001C30 23.5305 29.7893 24.0392 29.4142 24.4143C29.0391 24.7894 28.5304 25.0001 28 25.0001H4C3.46957 25.0001 2.96086 24.7894 2.58579 24.4143C2.21071 24.0392 2 23.5305 2 23.0001V20.1376C2 12.4129 8.20728 6.02727 15.9465 6.0001Z" fill="#1100FF"/>
<path fill-rule="evenodd" clip-rule="evenodd" d="M16 6.00012C16.5523 6.00012 17 6.44784 17 7.00012V11.0001C17 11.5524 16.5523 12.0001 16 12.0001C15.4477 12.0001 15 11.5524 15 11.0001V7.00012C15 6.44784 15.4477 6.00012 16 6.00012Z" fill="#1100FF"/>
<path fill-rule="evenodd" clip-rule="evenodd" d="M2.47128 16.3789C2.61412 15.8455 3.1624 15.5288 3.69589 15.6716L7.57089 16.7091C8.10439 16.8519 8.42107 17.4002 8.27824 17.9337C8.1354 18.4672 7.58712 18.7839 7.05363 18.6411L3.17863 17.6036C2.64513 17.4607 2.32845 16.9124 2.47128 16.3789Z" fill="#1100FF"/>
<path fill-rule="evenodd" clip-rule="evenodd" d="M29.5282 16.3789C29.6711 16.9124 29.3544 17.4607 28.8209 17.6036L24.9459 18.6411C24.4124 18.7839 23.8641 18.4672 23.7213 17.9337C23.5784 17.4002 23.8951 16.8519 24.4286 16.7091L28.3036 15.6716C28.8371 15.5288 29.3854 15.8455 29.5282 16.3789Z" fill="#1100FF"/>
<path fill-rule="evenodd" clip-rule="evenodd" d="M22.0838 12.0694C22.5219 12.4057 22.6044 13.0335 22.2681 13.4715L13.7181 24.609C13.3818 25.0471 12.754 25.1296 12.3159 24.7933C11.8778 24.457 11.7953 23.8292 12.1316 23.3912L20.6816 12.2537C21.0179 11.8156 21.6457 11.7331 22.0838 12.0694Z" fill="#1100FF"/>
</svg>
