<svg width="32" height="32" viewBox="0 0 32 32" fill="none" xmlns="http://www.w3.org/2000/svg">
<path fill-rule="evenodd" clip-rule="evenodd" d="M16 13C11.8579 13 8.5 16.3579 8.5 20.5C8.5 24.6421 11.8579 28 16 28C20.1421 28 23.5 24.6421 23.5 20.5C23.5 16.3579 20.1421 13 16 13ZM6.5 20.5C6.5 15.2533 10.7533 11 16 11C21.2467 11 25.5 15.2533 25.5 20.5C25.5 25.7467 21.2467 30 16 30C10.7533 30 6.5 25.7467 6.5 20.5Z" fill="#1100FF"/>
<path fill-rule="evenodd" clip-rule="evenodd" d="M10.7078 1.94219C11.0159 1.48385 11.6373 1.36208 12.0956 1.6702L21.0206 7.6702C21.479 7.97833 21.6007 8.59968 21.2926 9.05802C20.9845 9.51636 20.3631 9.63813 19.9048 9.33L10.9798 3.33C10.5214 3.02187 10.3997 2.40053 10.7078 1.94219Z" fill="#1100FF"/>
<path fill-rule="evenodd" clip-rule="evenodd" d="M21.2926 1.94219C21.6007 2.40053 21.479 3.02187 21.0206 3.33L12.0956 9.33C11.6373 9.63813 11.0159 9.51636 10.7078 9.05802C10.3997 8.59968 10.5214 7.97833 10.9798 7.6702L19.9048 1.6702C20.3631 1.36208 20.9845 1.48385 21.2926 1.94219Z" fill="#1100FF"/>
<path fill-rule="evenodd" clip-rule="evenodd" d="M16 4.5C16.5523 4.5 17 4.94772 17 5.5V12C17 12.5523 16.5523 13 16 13C15.4477 13 15 12.5523 15 12V5.5C15 4.94772 15.4477 4.5 16 4.5Z" fill="#1100FF"/>
</svg>
