<svg width="32" height="32" viewBox="0 0 32 32" fill="none" xmlns="http://www.w3.org/2000/svg">
<path fill-rule="evenodd" clip-rule="evenodd" d="M13 11C8.58172 11 5 14.5817 5 19C5 23.4183 8.58172 27 13 27C17.4183 27 21 23.4183 21 19C21 14.5817 17.4183 11 13 11ZM3 19C3 13.4772 7.47715 9 13 9C18.5228 9 23 13.4772 23 19C23 24.5228 18.5228 29 13 29C7.47715 29 3 24.5228 3 19Z" fill="#1100FF"/>
<path fill-rule="evenodd" clip-rule="evenodd" d="M27.7069 4.29289C28.0974 4.68342 28.0974 5.31658 27.7069 5.70711L20.0694 13.3446C19.6789 13.7351 19.0457 13.7351 18.6552 13.3446C18.2647 12.9541 18.2647 12.3209 18.6552 11.9304L26.2927 4.29289C26.6832 3.90237 27.3164 3.90237 27.7069 4.29289Z" fill="#1100FF"/>
<path fill-rule="evenodd" clip-rule="evenodd" d="M20 5C20 4.44772 20.4477 4 21 4H27C27.5523 4 28 4.44772 28 5V11C28 11.5523 27.5523 12 27 12C26.4477 12 26 11.5523 26 11V6H21C20.4477 6 20 5.55228 20 5Z" fill="#1100FF"/>
</svg>
