<svg width="32" height="32" viewBox="0 0 32 32" fill="none" xmlns="http://www.w3.org/2000/svg">
<path d="M16.9935 8.0075C16.4413 8.0075 15.994 8.45479 15.994 9.00703V23.0005C15.994 23.5527 16.4413 24 16.9935 24C17.5458 24 17.993 23.5527 17.993 23.0005V9.00703C17.993 8.45479 17.5458 8.0075 16.9935 8.0075Z" fill="#1100FF"/>
<path d="M28.4881 8.0075H22.4909C21.9387 8.0075 21.4914 8.45479 21.4914 9.00703V23.0005C21.4914 23.5527 21.9387 24 22.4909 24C23.0432 24 23.4905 23.5527 23.4905 23.0005V17.0033H26.9888C27.5411 17.0033 27.9884 16.556 27.9884 16.0037C27.9884 15.4515 27.5411 15.0042 26.9888 15.0042H23.4905V10.0066H28.4881C29.0404 10.0066 29.4877 9.55927 29.4877 9.00703C29.4877 8.45479 29.0404 8.0075 28.4881 8.0075Z" fill="#1100FF"/>
<path d="M11.9958 15.0042H8.9972C8.44496 15.0042 7.99767 15.4515 7.99767 16.0037C7.99767 16.556 8.44496 17.0033 8.9972 17.0033H10.9963V19.0023C10.9963 20.6553 9.65064 22.0009 7.99767 22.0009C6.34469 22.0009 4.99907 20.6553 4.99907 19.0023V13.0039C4.99782 12.203 5.30768 11.4496 5.87366 10.8824C6.43965 10.3152 7.19179 10.0016 7.99267 10.0003H7.99892C9.36952 10.0003 10.564 10.9274 10.9038 12.2555C11.0412 12.7903 11.586 13.1126 12.1195 12.9764C12.6542 12.839 12.9766 12.2955 12.8404 11.7607C12.2719 9.54428 10.2828 8 7.99767 8H7.98767C6.6533 8.0025 5.39888 8.52475 4.45683 9.47056C3.51477 10.4164 2.99751 11.672 3.00001 13.0052V19.0023C3.00001 21.7586 5.24146 24 7.99767 24C10.7539 24 12.9953 21.7586 12.9953 19.0023V16.0037C12.9953 15.4515 12.548 15.0042 11.9958 15.0042Z" fill="#1100FF"/>
</svg>
