<svg width="32" height="32" viewBox="0 0 32 32" fill="none" xmlns="http://www.w3.org/2000/svg">
<path d="M28 8.5C28 6.01875 25.9813 4 23.5 4C21.0187 4 19 6.01875 19 8.5C19 10.6375 20.4988 12.43 22.5 12.8862V13.02C22.495 14.1125 21.605 14.9987 20.5088 14.9987H11.4713C10.7675 15.0012 10.0938 15.1863 9.5 15.5288V12.885C11.5013 12.4288 13 10.6363 13 8.49875C13 6.01875 10.9812 4 8.5 4C6.01875 4 4 6.01875 4 8.5C4 10.6375 5.49875 12.43 7.5 12.8862V19.1125C5.49875 19.57 4 21.3625 4 23.5C4 25.9813 6.01875 28 8.5 28C10.9812 28 13 25.9813 13 23.5C13 21.3625 11.5013 19.57 9.5 19.1138V18.9963C9.4975 18.465 9.7025 17.965 10.0763 17.5887C10.45 17.2125 10.9488 17.0025 11.4788 17.0013H20.5112C22.7025 17.0013 24.4888 15.2238 24.4988 13.0262V12.8875C26.5 12.4312 27.9988 10.6388 27.9988 8.50125L28 8.5ZM6 8.5C6 7.12125 7.12125 6 8.5 6C9.87875 6 11 7.12125 11 8.5C11 9.87875 9.87875 11 8.5 11C7.12125 11 6 9.87875 6 8.5ZM11 23.5C11 24.8787 9.87875 26 8.5 26C7.12125 26 6 24.8787 6 23.5C6 22.1213 7.12125 21 8.5 21C9.87875 21 11 22.1213 11 23.5ZM23.5 11C22.1213 11 21 9.87875 21 8.5C21 7.12125 22.1213 6 23.5 6C24.8787 6 26 7.12125 26 8.5C26 9.87875 24.8787 11 23.5 11Z" fill="#1100FF"/>
</svg>
