<svg width="32" height="32" viewBox="0 0 32 32" fill="none" xmlns="http://www.w3.org/2000/svg">
<path d="M28 8.5C28 6.01875 25.9813 4 23.5 4C21.0187 4 19 6.01875 19 8.5C19 10.6375 20.4988 12.43 22.5 12.8862V13.02C22.495 14.1125 21.605 14.9987 20.5088 14.9987H11.5C11.5 14.9987 11.4813 14.9987 11.4788 14.9987C10.3825 14.9937 9.495 14.0988 9.5 12.9987V12.885C11.5013 12.4288 13 10.6363 13 8.49875C13 6.01875 10.9812 4 8.5 4C6.01875 4 4 6.01875 4 8.5C4 10.6375 5.49875 12.43 7.5 12.8862V12.995C7.495 14.06 7.90625 15.0637 8.65625 15.82C9.40625 16.5763 10.4062 16.995 11.4675 17H15V19.1138C12.9987 19.57 11.5 21.3625 11.5 23.5C11.5 25.9813 13.5188 28 16 28C18.4812 28 20.5 25.9813 20.5 23.5C20.5 21.3625 19.0013 19.57 17 19.1138V17H20.5125C22.7038 17 24.49 15.2225 24.5 13.025V12.8862C26.5012 12.43 28 10.6375 28 8.5ZM6 8.5C6 7.12125 7.12125 6 8.5 6C9.87875 6 11 7.12125 11 8.5C11 9.87875 9.87875 11 8.5 11C7.12125 11 6 9.87875 6 8.5ZM18.5 23.5C18.5 24.8787 17.3787 26 16 26C14.6213 26 13.5 24.8787 13.5 23.5C13.5 22.1213 14.6213 21 16 21C17.3787 21 18.5 22.1213 18.5 23.5ZM23.5 11C22.1213 11 21 9.87875 21 8.5C21 7.12125 22.1213 6 23.5 6C24.8787 6 26 7.12125 26 8.5C26 9.87875 24.8787 11 23.5 11Z" fill="#1100FF"/>
</svg>
