<svg width="32" height="32" viewBox="0 0 32 32" fill="none" xmlns="http://www.w3.org/2000/svg">
<path fill-rule="evenodd" clip-rule="evenodd" d="M7.16292 8.27898L4.14639 19.5635C4.14597 19.5673 4.14644 19.5712 4.14781 19.5749C4.1493 19.5789 4.1518 19.5825 4.15505 19.5852L15.9929 27.7769C15.995 27.7783 15.9975 27.7791 16 27.7791C16.0025 27.7791 16.005 27.7783 16.0071 27.7769L27.845 19.5853C27.8483 19.5825 27.8508 19.5789 27.8523 19.5749C27.8536 19.5712 27.8541 19.5673 27.8537 19.5635L24.8371 8.27898L22.5614 14.3509C22.4151 14.7413 22.0419 15 21.625 15H10.375C9.95812 15 9.58496 14.7413 9.43864 14.3509L7.16292 8.27898ZM7.00429 5.14343C7.32084 5.12677 7.63452 5.21082 7.90034 5.38351C8.16615 5.55621 8.37042 5.80867 8.48383 6.10467L8.48645 6.1115L11.0682 13H20.9319L23.5162 6.10466C23.6296 5.80866 23.8339 5.55621 24.0997 5.38351C24.3655 5.21082 24.6792 5.12677 24.9958 5.14343C25.3123 5.16009 25.6154 5.2766 25.8617 5.47625C26.1079 5.67589 26.2845 5.9484 26.3662 6.25467L29.7911 19.0667L29.7969 19.0896C29.892 19.4821 29.8675 19.8939 29.7267 20.2724C29.5859 20.6508 29.3351 20.9785 29.0067 21.2134L28.9941 21.2223L17.1429 29.4231C16.8069 29.6549 16.4083 29.7791 16 29.7791C15.5918 29.7791 15.1932 29.6549 14.8571 29.4231L3.006 21.2223L2.99337 21.2134C2.66492 20.9785 2.41418 20.6508 2.27337 20.2724C2.13255 19.8939 2.10809 19.4821 2.20312 19.0896L2.20895 19.0667L5.63383 6.25467C5.7156 5.94858 5.89231 5.67579 6.1384 5.47625C6.38462 5.2766 6.68775 5.16009 7.00429 5.14343Z" fill="#1100FF"/>
</svg>
