<svg width="32" height="32" viewBox="0 0 32 32" fill="none" xmlns="http://www.w3.org/2000/svg">
<path d="M23.5 13C21.1875 13 19.2775 14.7537 19.0288 17H16.3013C14.815 17 13.4187 16.3438 12.4688 15.1975L10.3162 12.6163C11.895 11.9163 13 10.3362 13 8.5C13 6.01875 10.9812 4 8.5 4C6.01875 4 4 6.01875 4 8.5C4 10.6375 5.49875 12.43 7.5 12.8862V19.1125C5.49875 19.57 4 21.3625 4 23.5C4 25.9813 6.01875 28 8.5 28C10.9812 28 13 25.9813 13 23.5C13 21.3625 11.5013 19.57 9.5 19.1138V14.7612L10.93 16.4762C12.2625 18.085 14.2288 19.0063 16.3125 19.0013H19.2575C19.8762 20.7475 21.5438 22.0012 23.5 22.0012C25.9813 22.0012 28 19.9825 28 17.5013C28 15.02 25.9813 13.0013 23.5 13.0013V13ZM6 8.5C6 7.12125 7.12125 6 8.5 6C9.87875 6 11 7.12125 11 8.5C11 9.87875 9.87875 11 8.5 11C7.12125 11 6 9.87875 6 8.5ZM11 23.5C11 24.8787 9.87875 26 8.5 26C7.12125 26 6 24.8787 6 23.5C6 22.1213 7.12125 21 8.5 21C9.87875 21 11 22.1213 11 23.5ZM23.5 20C22.1213 20 21 18.8787 21 17.5C21 16.1213 22.1213 15 23.5 15C24.8787 15 26 16.1213 26 17.5C26 18.8787 24.8787 20 23.5 20Z" fill="#1100FF"/>
</svg>
