<svg width="32" height="32" viewBox="0 0 32 32" fill="none" xmlns="http://www.w3.org/2000/svg">
<path d="M27.9338 21.1525C27.96 21.1038 27.9813 21.0525 27.9988 21.0012C28.6438 19.4613 29 17.7712 29 16C29 11.62 26.8225 7.73875 23.4937 5.3825C23.4387 5.335 23.3787 5.29375 23.315 5.25875C21.23 3.83375 18.71 3 16 3C8.83125 3 3 8.83125 3 16C3 18.7575 3.86375 21.3162 5.33375 23.4225C5.3375 23.43 5.34125 23.4363 5.345 23.4438C5.37375 23.49 5.405 23.5325 5.44 23.5725C7.80125 26.8563 11.655 29 16 29C18.9613 29 21.6925 28.005 23.8813 26.3312C23.9575 26.2875 24.03 26.235 24.095 26.17C24.1012 26.1637 24.1062 26.1575 24.1125 26.1513C25.7625 24.83 27.0837 23.1162 27.935 21.1537L27.9338 21.1525ZM23.4363 24.0975L22.7437 23.405C22.4975 23.1588 22.19 22.98 21.855 22.8862L21.8388 22.8813L19.1625 22.1838L19.4487 20.1725C19.4513 20.1663 19.455 20.16 19.46 20.1588L23.2612 18.5737L25.8312 20.9275C25.2287 22.125 24.4138 23.1975 23.4363 24.0963V24.0975ZM16 5C18.1525 5 20.1637 5.6225 21.8612 6.69625L21.9737 9.23125L19.2075 12.4213L19.205 12.425L15.3038 12.9575C15.29 12.955 15.275 12.9537 15.2638 12.9462L12.8188 11.175C12.795 11.1575 12.7712 11.1412 12.745 11.125C11.8125 10.5225 10.565 10.79 9.95875 11.7288L7.48875 15.6088C7.28125 15.9237 7.16875 16.29 7.165 16.6737L7.14625 21.1863L6.5175 21.5675C5.555 19.9338 5.0025 18.0325 5.0025 16.0037C5.0025 9.93875 9.9375 5.00375 16.0025 5.00375L16 5ZM7.685 23.1938L8.1875 22.8888C8.78125 22.5225 9.1375 21.8862 9.1375 21.1925L9.1625 16.6962C9.1625 16.6962 9.16625 16.69 9.16875 16.6862L11.64 12.805L11.6512 12.7963L14.1012 14.5712C14.1012 14.5712 14.1112 14.5788 14.1163 14.5813C14.5238 14.865 15.0212 14.9938 15.5162 14.9438C15.5275 14.9438 15.5375 14.9412 15.5487 14.94L19.4875 14.4025C19.97 14.3363 20.4088 14.0963 20.7225 13.725L23.4937 10.53C23.4937 10.53 23.5 10.5225 23.5025 10.52C23.83 10.1312 23.9988 9.63625 23.975 9.13L23.9412 8.39625C25.835 10.3725 27 13.0538 27 16C27 17.0125 26.8625 17.9925 26.605 18.9237L24.615 17.1025C24.0425 16.575 23.2075 16.4275 22.49 16.7275L18.6875 18.3162C18.045 18.5875 17.5925 19.16 17.4775 19.8475C17.4762 19.8563 17.475 19.8637 17.4738 19.8725L17.1875 21.89C17.0375 22.8912 17.6613 23.8475 18.6375 24.115L18.65 24.1187L21.3237 24.815C21.3237 24.815 21.33 24.8188 21.3325 24.82L21.835 25.3225C20.1425 26.385 18.1437 27 16.0025 27C12.685 27 9.70625 25.5238 7.6875 23.1938H7.685Z" fill="#1100FF"/>
</svg>
