<svg width="32" height="32" viewBox="0 0 32 32" fill="none" xmlns="http://www.w3.org/2000/svg">
<path fill-rule="evenodd" clip-rule="evenodd" d="M16 4C11.5817 4 8 7.58172 8 12C8 16.4183 11.5817 20 16 20C20.4183 20 24 16.4183 24 12C24 7.58172 20.4183 4 16 4ZM6 12C6 6.47715 10.4772 2 16 2C21.5228 2 26 6.47715 26 12C26 17.5228 21.5228 22 16 22C10.4772 22 6 17.5228 6 12Z" fill="#1100FF"/>
<path fill-rule="evenodd" clip-rule="evenodd" d="M7.51953 2.10539C7.91005 2.49592 7.91005 3.12908 7.51953 3.51961C5.27039 5.76875 4.00684 8.81924 4.00684 12C4.00684 15.1808 5.27039 18.2313 7.51953 20.4804C9.76867 22.7295 12.8192 23.9931 15.9999 23.9931C19.1807 23.9931 22.2312 22.7295 24.4803 20.4804C24.8708 20.0899 25.504 20.0899 25.8945 20.4804C26.2851 20.8709 26.2851 21.5041 25.8945 21.8946C23.2703 24.5188 19.7111 25.9931 15.9999 25.9931C12.2887 25.9931 8.72953 24.5188 6.10532 21.8946C3.4811 19.2704 2.00684 15.7112 2.00684 12C2.00684 8.2888 3.4811 4.72961 6.10532 2.10539C6.49584 1.71487 7.12901 1.71487 7.51953 2.10539Z" fill="#1100FF"/>
<path fill-rule="evenodd" clip-rule="evenodd" d="M11 29C11 28.4477 11.4477 28 12 28H20C20.5523 28 21 28.4477 21 29C21 29.5523 20.5523 30 20 30H12C11.4477 30 11 29.5523 11 29Z" fill="#1100FF"/>
<path fill-rule="evenodd" clip-rule="evenodd" d="M16 24C16.5523 24 17 24.4477 17 25V29C17 29.5523 16.5523 30 16 30C15.4477 30 15 29.5523 15 29V25C15 24.4477 15.4477 24 16 24Z" fill="#1100FF"/>
</svg>
