<svg width="32" height="32" viewBox="0 0 32 32" fill="none" xmlns="http://www.w3.org/2000/svg">
<path fill-rule="evenodd" clip-rule="evenodd" d="M16 5C9.92487 5 5 9.92487 5 16C5 22.0751 9.92487 27 16 27C22.0751 27 27 22.0751 27 16C27 9.92487 22.0751 5 16 5ZM3 16C3 8.8203 8.8203 3 16 3C23.1797 3 29 8.8203 29 16C29 23.1797 23.1797 29 16 29C8.8203 29 3 23.1797 3 16Z" fill="#1100FF"/>
<path fill-rule="evenodd" clip-rule="evenodd" d="M3.6875 12C3.6875 11.4477 4.13522 11 4.6875 11H27.3125C27.8648 11 28.3125 11.4477 28.3125 12C28.3125 12.5523 27.8648 13 27.3125 13H4.6875C4.13522 13 3.6875 12.5523 3.6875 12Z" fill="#1100FF"/>
<path fill-rule="evenodd" clip-rule="evenodd" d="M3.6875 20C3.6875 19.4477 4.13522 19 4.6875 19H27.3125C27.8648 19 28.3125 19.4477 28.3125 20C28.3125 20.5523 27.8648 21 27.3125 21H4.6875C4.13522 21 3.6875 20.5523 3.6875 20Z" fill="#1100FF"/>
<path fill-rule="evenodd" clip-rule="evenodd" d="M13.3837 8.13816C12.5439 10.0992 12 12.8781 12 16C12 19.1218 12.5439 21.9007 13.3837 23.8617C13.8044 24.8441 14.2797 25.5751 14.7565 26.046C15.229 26.5126 15.6481 26.6749 16 26.6749C16.3519 26.6749 16.771 26.5126 17.2435 26.046C17.7203 25.5751 18.1956 24.8441 18.6163 23.8617C19.4561 21.9007 20 19.1218 20 16C20 12.8781 19.4561 10.0992 18.6163 8.13816C18.1956 7.15584 17.7203 6.42482 17.2435 5.95393C16.771 5.48726 16.3519 5.32495 16 5.32495C15.6481 5.32495 15.229 5.48726 14.7565 5.95393C14.2797 6.42482 13.8044 7.15584 13.3837 8.13816ZM13.3511 4.53093C14.075 3.81603 14.9712 3.32495 16 3.32495C17.0288 3.32495 17.9251 3.81603 18.6489 4.53093C19.3685 5.24161 19.9707 6.22036 20.4548 7.3508C21.4246 9.61526 22 12.6739 22 16C22 19.326 21.4246 22.3846 20.4548 24.6491C19.9707 25.7795 19.3685 26.7583 18.6489 27.469C17.925 28.1839 17.0288 28.6749 16 28.6749C14.9712 28.6749 14.0749 28.1839 13.3511 27.469C12.6315 26.7583 12.0293 25.7795 11.5452 24.6491C10.5754 22.3846 10 19.326 10 16C10 12.6739 10.5754 9.61526 11.5452 7.3508C12.0293 6.22036 12.6315 5.24161 13.3511 4.53093Z" fill="#1100FF"/>
</svg>
