<svg width="32" height="32" viewBox="0 0 32 32" fill="none" xmlns="http://www.w3.org/2000/svg">
<path fill-rule="evenodd" clip-rule="evenodd" d="M16 5C9.92487 5 5 9.92487 5 16C5 22.0751 9.92487 27 16 27C22.0751 27 27 22.0751 27 16C27 9.92487 22.0751 5 16 5ZM3 16C3 8.8203 8.8203 3 16 3C23.1797 3 29 8.8203 29 16C29 23.1797 23.1797 29 16 29C8.8203 29 3 23.1797 3 16Z" fill="#1100FF"/>
<path fill-rule="evenodd" clip-rule="evenodd" d="M16.8748 15.6095L19.7243 15.9952C20.0067 16.0287 20.278 16.1252 20.5182 16.2775L27.2988 20.4482C27.7692 20.7376 27.916 21.3535 27.6266 21.8239C27.3373 22.2943 26.7213 22.4411 26.2509 22.1518L19.4663 17.9785L16.6142 17.5924L16.6131 17.595L14.9006 21.4325L14.8989 21.4361L17.252 23.977C17.4619 24.2076 17.6156 24.4837 17.7013 24.7835C17.787 25.0833 17.8022 25.3989 17.7459 25.7057L17.7436 25.7183L17.256 28.1932C17.1493 28.7351 16.6235 29.0879 16.0816 28.9811C15.5397 28.8744 15.187 28.3486 15.2937 27.8067L15.7791 25.3426C15.7794 25.3394 15.7792 25.3361 15.7783 25.3329C15.7773 25.3296 15.7757 25.3265 15.7735 25.3239L13.4258 22.7889C13.1609 22.5004 12.9865 22.1405 12.9243 21.7539C12.8622 21.368 12.9146 20.9724 13.0748 20.6159L14.7829 16.7883C14.9531 16.3907 15.249 16.0597 15.6256 15.8465C16.0045 15.6319 16.4437 15.5486 16.8748 15.6095Z" fill="#1100FF"/>
<path fill-rule="evenodd" clip-rule="evenodd" d="M8.51599 6.02948C9.02436 6.2453 9.26152 6.83237 9.0457 7.34074L7.92335 9.9845L7.92379 9.98567L9.36129 13.8107L9.36596 13.8235L12.0304 14.3962C12.3286 14.4577 12.6085 14.5872 12.8484 14.7747C13.0893 14.9631 13.2832 15.2048 13.4148 15.4808C13.4152 15.4818 13.4156 15.4827 13.4161 15.4836L13.8815 16.4512C13.8835 16.4542 13.8861 16.4568 13.8892 16.4588C13.8926 16.4608 13.8963 16.4621 13.9002 16.4625H15.5752C16.1275 16.4625 16.5752 16.9102 16.5752 17.4625C16.5752 18.0148 16.1275 18.4625 15.5752 18.4625H13.8877L13.8733 18.4624C13.5037 18.457 13.1427 18.3507 12.8292 18.1548C12.5158 17.9589 12.262 17.6809 12.0953 17.3511L12.0865 17.3334L11.6147 16.3526L8.94124 15.7779C8.94105 15.7778 8.94143 15.7779 8.94124 15.7779C8.60875 15.7067 8.29951 15.5513 8.04416 15.3268C7.79171 15.1048 7.59974 14.8225 7.48613 14.5062L6.05209 10.6905C6.052 10.6902 6.05218 10.6907 6.05209 10.6905C5.87245 10.2138 5.88121 9.68575 6.07709 9.21546L6.07971 9.20918L7.20473 6.55919C7.42055 6.05082 8.00762 5.81366 8.51599 6.02948Z" fill="#1100FF"/>
<path fill-rule="evenodd" clip-rule="evenodd" d="M18.5782 3.51262C19.0613 3.24514 19.6699 3.42001 19.9374 3.9032L21.1036 6.00987C21.3169 6.4023 21.3936 6.85456 21.3216 7.29539C21.2496 7.73621 21.0331 8.14057 20.706 8.44477L20.6953 8.45457L17.3412 11.4845C17.2256 11.593 17.0969 11.6865 16.9581 11.763C16.9578 11.7632 16.9575 11.7634 16.9572 11.7635L15.4213 12.6127L15.4062 12.6209C15.1233 12.771 14.8094 12.8536 14.4893 12.8622C14.4804 12.8624 14.4714 12.8625 14.4625 12.8625H11.792C11.7898 12.8626 11.7876 12.8633 11.7857 12.8646C11.7839 12.8658 11.7824 12.8674 11.7814 12.8694L10.7465 15.3258C10.5321 15.8347 9.94566 16.0735 9.4367 15.8591C8.92774 15.6446 8.68899 15.0582 8.90342 14.5492L9.94378 12.08C10.0985 11.7201 10.3549 11.4133 10.6815 11.197C11.0081 10.9808 11.3907 10.8645 11.7824 10.8625L11.7875 10.8625L14.4412 10.8625C14.4497 10.8617 14.4579 10.8594 14.4656 10.8558L15.9816 10.0176C15.9851 10.0144 15.9886 10.0112 15.9921 10.008L19.3449 6.97921C19.3464 6.97748 19.3474 6.97538 19.3478 6.97312C19.3482 6.97063 19.3478 6.96809 19.3467 6.96582L18.1876 4.87183C17.9201 4.38864 18.095 3.7801 18.5782 3.51262Z" fill="#1100FF"/>
</svg>
