<svg width="32" height="32" viewBox="0 0 32 32" fill="none" xmlns="http://www.w3.org/2000/svg">
<path fill-rule="evenodd" clip-rule="evenodd" d="M16.9682 6.04718C14.6624 5.82026 12.3493 6.40002 10.4232 7.68765C8.49699 8.97528 7.07699 10.8911 6.40521 13.1085C5.73343 15.3259 5.85144 17.7076 6.73915 19.8477C7.62685 21.9878 9.22929 23.7539 11.2733 24.8448C13.3173 25.9357 15.6764 26.2839 17.9485 25.8301C20.2206 25.3764 22.2649 24.1487 23.7331 22.3564C24.9892 20.8231 25.757 18.9577 25.9512 17H16.0001C15.4478 17 15.0001 16.5523 15.0001 16C15.0001 15.4477 15.4478 15 16.0001 15H27.0001C27.552 15 27.9995 15.4471 28.0001 15.999C28.003 18.7787 27.0418 21.4734 25.2803 23.6238C23.5188 25.7741 21.0661 27.247 18.3402 27.7914C15.6143 28.3358 12.784 27.918 10.3316 26.6092C7.87931 25.3004 5.95679 23.1816 4.89176 20.614C3.82674 18.0464 3.68515 15.1889 4.49112 12.5286C5.29709 9.86825 7.00074 7.56978 9.31166 6.02495C11.6226 4.48012 14.3977 3.78455 17.1641 4.0568C19.9305 4.32904 22.5168 5.55226 24.4822 7.51795C24.8727 7.9085 24.8727 8.54166 24.4822 8.93216C24.0916 9.32266 23.4584 9.32262 23.0679 8.93207C21.4297 7.29366 19.274 6.2741 16.9682 6.04718Z" fill="#1100FF"/>
</svg>
