<svg width="32" height="32" viewBox="0 0 32 32" fill="none" xmlns="http://www.w3.org/2000/svg">
<path fill-rule="evenodd" clip-rule="evenodd" d="M4.99502 2.25268C5.30194 2.0802 5.64895 1.99179 6.00099 1.99639C6.34951 2.00094 6.69072 2.0965 6.99084 2.27349L27.948 14.2758C28.2553 14.4428 28.5125 14.689 28.6928 14.989C28.8764 15.2943 28.9733 15.6438 28.9733 16.0001C28.9733 16.3563 28.8764 16.7058 28.6928 17.0111C28.5125 17.3111 28.2553 17.5573 27.948 17.7243L6.99088 29.7266C6.69076 29.9036 6.34953 29.9992 6.00099 30.0037C5.64895 30.0083 5.30194 29.9199 4.99502 29.7474C4.68809 29.5749 4.43214 29.3245 4.25302 29.0214C4.07391 28.7183 3.97798 28.3733 3.97493 28.0212L3.97485 28.0126L3.97489 3.97889C3.97794 3.62683 4.07391 3.28182 4.25302 2.97872C4.43214 2.67561 4.68809 2.42517 4.99502 2.25268ZM26.9344 16.0001L5.99042 4.00532L5.97489 3.99624V28.0039L5.99042 27.9948L26.9344 16.0001Z" fill="#1100FF"/>
<path fill-rule="evenodd" clip-rule="evenodd" d="M4.5678 2.56792C4.95832 2.17739 5.59148 2.17739 5.98201 2.56792L22.6945 19.2804C23.085 19.6709 23.085 20.3041 22.6945 20.6946C22.304 21.0852 21.6708 21.0852 21.2803 20.6946L4.5678 3.98213C4.17727 3.59161 4.17727 2.95844 4.5678 2.56792Z" fill="#1100FF"/>
<path fill-rule="evenodd" clip-rule="evenodd" d="M22.6945 11.3053C23.085 11.6959 23.085 12.329 22.6945 12.7196L5.98201 29.4321C5.59148 29.8226 4.95832 29.8226 4.5678 29.4321C4.17727 29.0415 4.17727 28.4084 4.5678 28.0178L21.2803 11.3053C21.6708 10.9148 22.304 10.9148 22.6945 11.3053Z" fill="#1100FF"/>
</svg>
