<svg width="32" height="32" viewBox="0 0 32 32" fill="none" xmlns="http://www.w3.org/2000/svg">
<path fill-rule="evenodd" clip-rule="evenodd" d="M15.9999 5C10.7387 5 6.76856 7.79264 6.10398 10.9909L6.1021 11L25.8977 11L25.8958 10.991C25.2312 7.79265 21.2611 5 15.9999 5ZM4.14662 10.5801C5.08422 6.08057 10.2377 3 15.9999 3C21.762 3 26.9154 6.0805 27.8531 10.58C27.9154 10.87 27.9124 11.1702 27.8443 11.459C27.7759 11.7494 27.6433 12.0208 27.4563 12.2533C27.2694 12.4858 27.0327 12.6736 26.7638 12.8028C26.4949 12.932 26.2004 12.9994 25.9021 13H6.09773C5.79937 12.9994 5.50493 12.932 5.23599 12.8028C4.96705 12.6736 4.73042 12.4858 4.54345 12.2533C4.35648 12.0208 4.2239 11.7494 4.15543 11.459C4.08736 11.1703 4.08436 10.8701 4.14662 10.5801Z" fill="#1100FF"/>
<path fill-rule="evenodd" clip-rule="evenodd" d="M6 20C6.55228 20 7 20.4477 7 21V23C7 23.7957 7.31607 24.5587 7.87868 25.1213C8.44129 25.6839 9.20435 26 10 26H22C22.7956 26 23.5587 25.6839 24.1213 25.1213C24.6839 24.5587 25 23.7956 25 23V21C25 20.4477 25.4477 20 26 20C26.5523 20 27 20.4477 27 21V23C27 24.3261 26.4732 25.5979 25.5355 26.5355C24.5979 27.4732 23.3261 28 22 28H10C8.67392 28 7.40215 27.4732 6.46447 26.5355C5.52678 25.5979 5 24.3261 5 23V21C5 20.4477 5.44772 20 6 20Z" fill="#1100FF"/>
<path fill-rule="evenodd" clip-rule="evenodd" d="M29.4285 19.6286C29.6336 20.1414 29.3842 20.7234 28.8714 20.9285L23.8714 22.9285C23.633 23.0239 23.367 23.0239 23.1286 22.9285L18.5 21.0771L13.8714 22.9285C13.633 23.0239 13.367 23.0239 13.1286 22.9285L8.50002 21.0771L3.87141 22.9285C3.35863 23.1336 2.77666 22.8842 2.57155 22.3714C2.36643 21.8586 2.61585 21.2767 3.12863 21.0715L8.12863 19.0715C8.36704 18.9762 8.633 18.9762 8.87141 19.0715L13.5 20.923L18.1286 19.0715C18.367 18.9762 18.633 18.9762 18.8714 19.0715L23.5 20.923L28.1286 19.0715C28.6414 18.8664 29.2234 19.1158 29.4285 19.6286Z" fill="#1100FF"/>
<path fill-rule="evenodd" clip-rule="evenodd" d="M2 16C2 15.4477 2.44772 15 3 15H29C29.5523 15 30 15.4477 30 16C30 16.5523 29.5523 17 29 17H3C2.44772 17 2 16.5523 2 16Z" fill="#1100FF"/>
</svg>
