<svg width="32" height="32" viewBox="0 0 32 32" fill="none" xmlns="http://www.w3.org/2000/svg">
<path fill-rule="evenodd" clip-rule="evenodd" d="M26.5681 8.44659L29.6386 14.3255L29.6411 14.3303L27.4319 15.4304L24.358 9.55162L26.5681 8.44659ZM30.5333 16.1202L27.4458 17.6577C26.9583 17.9005 26.3662 17.7085 26.1138 17.2259L22.1138 9.57595C21.9895 9.33814 21.9659 9.06032 22.0485 8.80498C22.131 8.54963 22.3128 8.33818 22.5528 8.21816L25.6749 6.6571C26.1414 6.42065 26.6824 6.37758 27.1805 6.53736C27.6796 6.69744 28.0952 7.04817 28.3369 7.51318C28.3372 7.51363 28.3374 7.51409 28.3376 7.51454L31.4089 13.3949C31.4094 13.3958 31.4099 13.3968 31.4104 13.3977C31.5342 13.6326 31.61 13.8899 31.6334 14.1545C31.6568 14.4202 31.6269 14.6878 31.5453 14.9417C31.4638 15.1956 31.3323 15.4306 31.1586 15.633C30.9849 15.8353 30.7719 16.0012 30.5333 16.1202Z" fill="#1100FF"/>
<path fill-rule="evenodd" clip-rule="evenodd" d="M5.43688 8.31157L2.36388 14.1953L4.56879 15.3022L7.64239 9.41433L5.43688 8.31157ZM4.80983 6.41237C5.30481 6.24894 5.84403 6.28521 6.31266 6.51346L6.32203 6.51801L9.447 8.08056C9.68692 8.20053 9.8686 8.41185 9.9512 8.66706C10.0338 8.92227 10.0104 9.19996 9.88627 9.43775L5.88627 17.1003C5.63355 17.5844 5.03918 17.7762 4.55113 17.5312L1.46722 15.983C1.22998 15.8659 1.01848 15.7026 0.845146 15.5027C0.670604 15.3013 0.538327 15.067 0.456181 14.8135C0.374035 14.56 0.343697 14.2926 0.366971 14.0272C0.390127 13.7631 0.465878 13.5063 0.589749 13.272L3.66267 7.38846C3.66283 7.38813 3.663 7.38781 3.66317 7.38749C3.90382 6.92555 4.3152 6.5757 4.80983 6.41237Z" fill="#1100FF"/>
<path fill-rule="evenodd" clip-rule="evenodd" d="M4.21178 16.0222C4.55162 15.5868 5.18003 15.5094 5.61538 15.8492L12.4529 21.1867L12.4679 21.1987L19.6674 22.9986C19.6753 22.9994 19.6833 22.9988 19.691 22.9967C19.6986 22.9946 19.7057 22.9911 19.712 22.9863L24.2645 18.4338L26.2385 16.1144C26.5965 15.6938 27.2276 15.643 27.6482 16.001C28.0687 16.3589 28.1195 16.99 27.7616 17.4106L25.7616 19.7606C25.7442 19.781 25.7261 19.8007 25.7072 19.8196L21.1072 24.4196C21.1028 24.4239 21.0985 24.4282 21.0941 24.4324C21.0905 24.4359 21.0868 24.4394 21.0831 24.4429C20.8397 24.6705 20.5448 24.8357 20.2237 24.9244C19.9025 25.0132 19.5646 25.0228 19.2389 24.9525C19.2284 24.9502 19.2179 24.9477 19.2075 24.9451L11.9575 23.1326C11.9488 23.1305 11.9402 23.1282 11.9315 23.1258C11.6704 23.053 11.4269 22.9279 11.2157 22.7582L4.38471 17.4258C3.94936 17.0859 3.87194 16.4575 4.21178 16.0222Z" fill="#1100FF"/>
<path fill-rule="evenodd" clip-rule="evenodd" d="M17.9143 10.1126L13.028 14.9864C13.0272 14.9874 13.0266 14.9886 13.0261 14.9898C13.0255 14.9914 13.0253 14.9932 13.0254 14.995C13.0256 14.9967 13.0261 14.9985 13.0269 15C13.0278 15.0016 13.0289 15.0029 13.0303 15.004L13.7013 15.5134C14.2212 15.9004 14.852 16.1094 15.5001 16.1094C16.1491 16.1094 16.7808 15.8998 17.301 15.5119C17.3013 15.5116 17.3017 15.5114 17.302 15.5112L18.9001 14.3126C19.2513 14.0492 19.7332 14.0456 20.0883 14.3038L25.5883 18.3038C26.0349 18.6287 26.1337 19.2541 25.8088 19.7007C25.484 20.1474 24.8586 20.2461 24.4119 19.9213L19.5093 16.3557L18.4982 17.114C17.6323 17.7603 16.5807 18.1094 15.5001 18.1094C14.4196 18.1094 13.3679 17.7603 12.502 17.114L12.4954 17.109L11.8204 16.5965C11.5935 16.424 11.4054 16.2049 11.2694 15.9545C11.1333 15.704 11.0521 15.4275 11.0309 15.1433C11.0098 14.8591 11.0493 14.5736 11.1467 14.3058C11.2442 14.038 11.3974 13.7939 11.5963 13.5898L11.6064 13.5795L16.5073 8.6912C16.6925 8.50686 16.9123 8.36086 17.1541 8.26157C17.3952 8.16254 17.6534 8.11191 17.9141 8.11255C17.9147 8.11256 17.9154 8.11256 17.9161 8.11256L17.9126 9.11255V8.11255H17.9141H23.0001C23.5524 8.11255 24.0001 8.56027 24.0001 9.11255C24.0001 9.66484 23.5524 10.1126 23.0001 10.1126H17.9143Z" fill="#1100FF"/>
<path fill-rule="evenodd" clip-rule="evenodd" d="M15.7631 8.06129L20.0868 10.0232C20.5897 10.2514 21.1824 10.0287 21.4106 9.52573C21.6388 9.0228 21.4161 8.4301 20.9132 8.20189L16.5882 6.23939L16.5868 6.23877C16.1548 6.04353 15.6675 6.00809 15.2118 6.13877L8.79432 8.01521C8.26423 8.17021 7.96016 8.72558 8.11516 9.25567C8.27015 9.78576 8.82552 10.0898 9.35561 9.93484L15.7631 8.06129Z" fill="#1100FF"/>
<path fill-rule="evenodd" clip-rule="evenodd" d="M6.24455 22.3448C6.6064 21.9276 7.23797 21.8827 7.6552 22.2445L10.4767 24.6916C10.4786 24.692 10.4805 24.6925 10.4823 24.6929L14.2448 25.6429C14.7803 25.7781 15.1048 26.3218 14.9696 26.8573C14.8344 27.3928 14.2907 27.7173 13.7552 27.5821L10.0027 26.6346C9.692 26.5619 9.40421 26.4131 9.16526 26.2015L6.34483 23.7555C5.9276 23.3936 5.8827 22.7621 6.24455 22.3448Z" fill="#1100FF"/>
</svg>
