<svg width="32" height="32" viewBox="0 0 32 32" fill="none" xmlns="http://www.w3.org/2000/svg">
<path d="M23 12.1V10.97C22.9912 8.7775 21.2038 6.99875 19.0162 6.99875C19.0112 6.99875 19.005 6.99875 19 6.99875H17V4H21C21.5513 4 22 4.44875 22 5C22 5.55125 22.4475 6 23 6C23.5525 6 24 5.5525 24 5C24 3.34625 22.6537 2 21 2H13C12.4475 2 12 2.4475 12 3C12 3.5525 12.4475 4 13 4H15V7H12.9713C11.9062 7.005 10.9062 7.42375 10.1562 8.18C9.40625 8.93625 8.99625 9.94 9 11V12.1C6.72 12.565 5 14.585 5 17V27C5 28.1025 5.8975 29 7 29H25C26.1025 29 27 28.1025 27 27V17C27 14.585 25.28 12.565 23 12.1ZM11.5763 9.5875C11.95 9.21 12.4488 9.00125 12.9788 9H19.0112C20.1037 9 20.9937 9.88625 20.9987 10.975V12H11V10.9962C10.9975 10.465 11.2025 9.965 11.5763 9.58875V9.5875ZM25 27H7V17C7 15.3462 8.34625 14 10 14H22C23.6537 14 25 15.3462 25 17V27Z" fill="#1100FF"/>
</svg>
