<svg width="32" height="32" viewBox="0 0 32 32" fill="none" xmlns="http://www.w3.org/2000/svg">
<path fill-rule="evenodd" clip-rule="evenodd" d="M11.0249 2.02513C11.6813 1.36875 12.5715 1 13.4998 1C14.428 1 15.3183 1.36875 15.9747 2.02513C16.631 2.6815 16.9998 3.57174 16.9998 4.5V9.33772C17.4642 9.11743 17.9759 9 18.4998 9C19.428 9 20.3183 9.36875 20.9747 10.0251C21.265 10.3155 21.4991 10.6516 21.6698 11.0165C22.216 10.6815 22.8485 10.5 23.4998 10.5C24.428 10.5 25.3183 10.8687 25.9747 11.5251C26.631 12.1815 26.9998 13.0717 26.9998 14V19C26.9998 20.4445 26.7153 21.8749 26.1625 23.2095C25.6097 24.5441 24.7994 25.7567 23.778 26.7782C22.7565 27.7996 21.5439 28.6099 20.2093 29.1627C18.8747 29.7155 17.4443 30 15.9998 30C13.007 30 10.7405 29.168 8.71052 27.1328C6.76081 25.178 5.06426 22.1436 3.03705 17.8743C2.59064 17.0773 2.47299 16.1367 2.71038 15.2533C2.95151 14.356 3.5392 13.5913 4.34417 13.1274C5.14914 12.6634 6.10545 12.5382 7.00272 12.7793C7.89999 13.0205 8.66472 13.6082 9.12868 14.4131L9.99978 15.9246V4.5C9.99978 3.57174 10.3685 2.6815 11.0249 2.02513ZM21.9998 14H19.9998V12.5C19.9998 12.1022 19.8418 11.7206 19.5604 11.4393C19.2791 11.158 18.8976 11 18.4998 11C18.102 11 17.7204 11.158 17.4391 11.4393C17.1578 11.7206 16.9998 12.1022 16.9998 12.5C16.9998 13.0523 16.5521 13.5 15.9998 13.5C15.4475 13.5 14.9998 13.0523 14.9998 12.5V4.5C14.9998 4.10218 14.8417 3.72064 14.5604 3.43934C14.2791 3.15804 13.8976 3 13.4998 3C13.102 3 12.7204 3.15804 12.4391 3.43934C12.1578 3.72064 11.9998 4.10218 11.9998 4.5V19.6625C11.9998 20.1152 11.6956 20.5115 11.2582 20.6285C10.8209 20.7455 10.3594 20.5541 10.1334 20.1618L7.39589 15.4119C7.39588 15.4119 7.3959 15.4119 7.39589 15.4119C7.19681 15.0665 6.86866 14.8143 6.48366 14.7108C6.09865 14.6073 5.6883 14.6611 5.3429 14.8601C4.99749 15.0592 4.74532 15.3874 4.64185 15.7724C4.53838 16.1574 4.5921 16.5677 4.79118 16.9131C4.80446 16.9362 4.81682 16.9598 4.82823 16.9838C6.86907 21.2846 8.44379 24.0333 10.1266 25.7204C11.7341 27.332 13.4675 28 15.9998 28C17.1817 28 18.352 27.7672 19.4439 27.3149C20.5359 26.8626 21.528 26.1997 22.3637 25.364C23.1995 24.5282 23.8624 23.5361 24.3147 22.4442C24.767 21.3522 24.9998 20.1819 24.9998 19V14C24.9998 13.6022 24.8417 13.2206 24.5604 12.9393C24.2791 12.658 23.8976 12.5 23.4998 12.5C23.102 12.5 22.7204 12.658 22.4391 12.9393C22.1578 13.2206 21.9998 13.6022 21.9998 14Z" fill="#1100FF"/>
</svg>
