<svg width="32" height="32" viewBox="0 0 32 32" fill="none" xmlns="http://www.w3.org/2000/svg">
<path d="M27.5365 13.0275L25.0606 8.73179C24.5976 7.92835 23.8499 7.35393 22.9548 7.11377C22.0598 6.8736 21.1251 6.99616 20.3217 7.45792C19.8587 7.72409 19.4811 8.0831 19.1976 8.49658L17.0497 4.78144C17.0423 4.76906 17.0361 4.75791 17.0287 4.74554C16.0705 3.23893 14.0798 2.7066 12.4965 3.5348C11.9332 3.82944 11.4727 4.26149 11.1496 4.7901C10.0973 3.84801 8.52258 3.61032 7.22272 4.28996C5.52918 5.17635 4.87181 7.2747 5.7582 8.96825C5.76439 8.98062 5.77182 8.993 5.77801 9.00415L6.18901 9.71598C5.68268 9.75683 5.18873 9.9091 4.73564 10.1703C3.07924 11.126 2.5073 13.2516 3.46301 14.9093L8.66247 23.9217C10.1171 26.4422 12.4667 28.2459 15.2782 28.9986C16.2178 29.2499 17.1698 29.3749 18.1168 29.3749C20.0047 29.3749 21.8679 28.8797 23.5466 27.9104C26.0671 26.4558 27.8708 24.1061 28.6235 21.2947C29.3774 18.4833 28.9911 15.5468 27.5365 13.0263V13.0275ZM26.7108 20.7822C26.0943 23.0823 24.6186 25.0049 22.5562 26.1946C20.4937 27.3855 18.0908 27.7012 15.7907 27.0847C13.4905 26.4682 11.568 24.9925 10.3783 22.9301L5.17883 13.9201C4.76906 13.2083 5.01418 12.2971 5.72478 11.8874C6.06893 11.6893 6.47003 11.6361 6.85504 11.7401C7.23881 11.8428 7.55944 12.0904 7.75876 12.4346L10.4823 17.1512C10.7559 17.6254 11.3612 17.7875 11.8354 17.5139C12.3095 17.2403 12.4717 16.635 12.1981 16.1608L7.50497 8.03606C7.1373 7.31308 7.42079 6.42422 8.14129 6.04664C8.81474 5.69506 9.65904 5.91665 10.0738 6.55049L11.0208 8.19204C11.0245 8.19947 11.0282 8.20689 11.0319 8.21432C11.0493 8.24651 11.0678 8.27746 11.0877 8.30717L14.2705 13.8211C14.4537 14.1392 14.7867 14.3163 15.1296 14.3163C15.298 14.3163 15.4676 14.2729 15.6236 14.1838C16.0977 13.9102 16.2599 13.3048 15.9863 12.8307L12.7713 7.26109C12.6029 6.91817 12.5707 6.52945 12.6859 6.16301C12.8047 5.78419 13.0634 5.4747 13.415 5.29024C14.0885 4.93742 14.9328 5.16025 15.3475 5.79409L19.0466 12.1932V12.1956L19.8339 13.5636C17.6365 15.376 17.0051 18.5699 18.4808 21.1127C18.7556 21.5856 19.361 21.7466 19.8339 21.473C20.3068 21.1981 20.4677 20.5928 20.1941 20.1199C19.101 18.2369 19.7448 15.8154 21.6277 14.7223L21.6413 14.7149C22.113 14.4413 22.2752 13.8372 22.0041 13.3643L20.7661 11.209C20.568 10.8648 20.5148 10.4637 20.6188 10.0787C20.7215 9.69493 20.9691 9.3743 21.3133 9.17499C21.6574 8.97691 22.0585 8.92368 22.4435 9.02767C22.8273 9.13042 23.1479 9.37801 23.3473 9.72217L25.8232 14.0179C27.0141 16.0804 27.3298 18.4833 26.7133 20.7834L26.7108 20.7822Z" fill="#1100FF"/>
<path d="M10.8747 29.0481C9.32479 27.9785 8.01006 26.5499 7.07416 24.9145C6.80181 24.4404 6.19768 24.2757 5.7223 24.5468C5.24816 24.818 5.08351 25.4233 5.35462 25.8987C6.43661 27.7891 7.95683 29.4418 9.74941 30.6785C9.92149 30.7973 10.1171 30.8543 10.3102 30.8543C10.6247 30.8543 10.9341 30.7045 11.126 30.4259C11.4368 29.9753 11.3229 29.3588 10.8735 29.0481H10.8747Z" fill="#1100FF"/>
<path d="M22.061 4.98075C22.061 4.98075 22.0721 4.98075 22.0783 4.98075C24.0133 4.98075 25.8108 6.02188 26.7727 7.7018C26.9559 8.0212 27.2889 8.19947 27.6331 8.19947C27.8002 8.19947 27.9686 8.15738 28.1246 8.06824C28.5987 7.79589 28.7634 7.19176 28.491 6.71638C27.1763 4.42243 24.7214 3 22.0783 3H22.0585C21.5113 3.00124 21.0694 3.44567 21.0706 3.99285C21.0719 4.53879 21.5151 4.98075 22.061 4.98075Z" fill="#1100FF"/>
</svg>
