<svg width="32" height="32" viewBox="0 0 32 32" fill="none" xmlns="http://www.w3.org/2000/svg">
<path d="M25.0163 10C25.0163 10 25.005 10 25 10H23V8C23 5.79375 21.205 4 19 4C17.8062 4 16.7338 4.52625 16 5.35875C15.2662 4.52625 14.1938 4 13 4C10.945 4 9.24875 5.5575 9.02625 7.5525C8.43125 7.20125 7.74 7 7 7C4.79375 7 3 8.79375 3 11V16C3 23.1688 8.83125 29 16 29C23.1688 29 29 23.1688 29 16V13.9712C28.9912 11.7787 27.2038 10 25.0163 10ZM19 6C20.1025 6 21 6.8975 21 8V10H17V8C17 6.8975 17.8975 6 19 6ZM11 8C11 6.8975 11.8975 6 13 6C14.1025 6 15 6.8975 15 8V13C15 14.1025 14.1025 15 13 15C11.8975 15 11 14.1025 11 13V8ZM5 11C5 9.8975 5.8975 9 7 9C8.1025 9 9 9.8975 9 11V13C9 14.1025 8.1025 15 7 15C5.8975 15 5 14.1025 5 13V11ZM27 16C27 22.065 22.065 27 16 27C9.935 27 5.25625 22.3175 5.01 16.4688C5.59625 16.8062 6.27625 17 7 17C8.19375 17 9.26625 16.4737 10 15.6412C10.7337 16.4737 11.8062 17 13 17C13.9762 17 14.8713 16.6475 15.5675 16.065C15.7362 16.3462 15.9412 16.6075 16.18 16.8438C16.44 17.1025 16.73 17.32 17.0413 17.495C15.79 18.595 15 20.2075 15 22C15 22.5525 15.4475 23 16 23C16.5525 23 17 22.5525 17 22C17 19.795 18.795 18 21 18C21.5525 18 22 17.5525 22 17C22 16.4475 21.5525 16 21 16H18.9875C18.46 16 17.9637 15.795 17.5887 15.4237C17.2113 15.05 17.0025 14.5512 17.0013 14.0212V12H25.0138C26.1063 12 26.9963 12.8863 27.0012 13.975V16H27Z" fill="#1100FF"/>
</svg>
