<svg width="32" height="32" viewBox="0 0 32 32" fill="none" xmlns="http://www.w3.org/2000/svg">
<path fill-rule="evenodd" clip-rule="evenodd" d="M17.1594 11.2431C17.8758 10.8284 18.7235 10.7028 19.5294 10.8917C20.3353 11.0807 21.0387 11.57 21.4961 12.2599C21.5077 12.2773 21.5187 12.2951 21.5291 12.3132L23.6585 16.0083C24.9543 18.3033 25.2918 21.017 24.5975 23.5595C23.9033 26.1019 22.2334 28.2675 19.951 29.5853C17.6686 30.9032 14.9582 31.2667 12.4092 30.5969C9.86019 29.927 7.67868 28.278 6.339 26.0083L6.33406 26L1.7091 17.9874C1.49574 17.6176 1.3572 17.2092 1.30161 16.7859C1.24601 16.3625 1.27434 15.9324 1.38498 15.52C1.49562 15.1077 1.6864 14.7211 1.94642 14.3825C2.20645 14.0438 2.53063 13.7597 2.90045 13.5463C3.27028 13.333 3.67851 13.1946 4.10184 13.139C4.52516 13.0834 4.95529 13.1117 5.36767 13.2223C5.78004 13.333 6.16659 13.5237 6.50524 13.7838C6.84388 14.0438 7.128 14.368 7.34136 14.7378C7.61735 15.2162 7.45328 15.8277 6.9749 16.1037C6.49652 16.3797 5.88498 16.2156 5.60899 15.7373C5.52688 15.5949 5.41753 15.4702 5.28721 15.3701C5.15688 15.27 5.00811 15.1966 4.84941 15.154C4.69071 15.1114 4.52517 15.1005 4.36225 15.1219C4.19934 15.1433 4.04223 15.1966 3.8999 15.2787C3.75757 15.3608 3.63281 15.4702 3.53274 15.6005C3.43266 15.7308 3.35924 15.8796 3.31666 16.0383C3.27409 16.197 3.26318 16.3625 3.28458 16.5254C3.30596 16.6883 3.3592 16.8453 3.44125 16.9876L8.06375 24.9958C9.1357 26.8094 10.8798 28.1271 12.9175 28.6625C14.9567 29.1984 17.125 28.9076 18.9509 27.8533C20.7768 26.7991 22.1128 25.0666 22.6682 23.0326C23.2232 21 22.954 18.8306 21.919 16.9954L19.8142 13.343C19.6381 13.0893 19.3741 12.9096 19.0728 12.8389C18.7628 12.7662 18.4368 12.8146 18.1613 12.9741C17.8857 13.1335 17.6814 13.3921 17.5901 13.6971C17.4987 14.0021 17.5271 14.3304 17.6695 14.6151C17.9166 15.1091 17.7165 15.7098 17.2226 15.9569C16.7286 16.204 16.1279 16.0038 15.8808 15.5099C15.5105 14.7696 15.4366 13.9159 15.6742 13.123C15.9118 12.3301 16.443 11.6577 17.1594 11.2431Z" fill="#1100FF"/>
<path fill-rule="evenodd" clip-rule="evenodd" d="M6.25174 7.86386C6.67506 7.80827 7.10519 7.8366 7.51757 7.94724C7.92995 8.05787 8.31649 8.24865 8.65514 8.50868C8.99367 8.76861 9.27771 9.09266 9.49104 9.46233L14.241 17.6873C14.5172 18.1656 14.3534 18.7772 13.8752 19.0534C13.3969 19.3296 12.7853 19.1658 12.5091 18.6875L7.75911 10.4625C7.677 10.3202 7.56744 10.1951 7.43711 10.095C7.30678 9.99492 7.15802 9.9215 6.99931 9.87892C6.84061 9.83634 6.67507 9.82544 6.51215 9.84683C6.34924 9.86823 6.19213 9.9215 6.0498 10.0036C5.90747 10.0857 5.78271 10.1951 5.68264 10.3254C5.58257 10.4557 5.50915 10.6045 5.46657 10.7632C5.42399 10.9219 5.41309 11.0874 5.43448 11.2504C5.45586 11.4131 5.50906 11.5701 5.59104 11.7123L10.341 19.9373C10.6172 20.4156 10.4534 21.0272 9.97518 21.3034C9.49692 21.5796 8.88531 21.4158 8.60911 20.9375L3.85911 12.7125C3.64575 12.3427 3.5071 11.9341 3.45151 11.5108C3.39591 11.0874 3.42424 10.6573 3.53488 10.2449C3.64552 9.83256 3.8363 9.44602 4.09632 9.10737C4.35635 8.76872 4.68053 8.48461 5.05036 8.27125C5.42018 8.05788 5.82841 7.91945 6.25174 7.86386Z" fill="#1100FF"/>
<path fill-rule="evenodd" clip-rule="evenodd" d="M9.95027 7.74635C10.6972 7.31545 11.5846 7.1989 12.4175 7.42234C13.2503 7.64578 13.9603 8.19092 14.3912 8.93781L19.6412 18.0378C19.9172 18.5162 19.7531 19.1277 19.2747 19.4037C18.7963 19.6797 18.1848 19.5156 17.9088 19.0373L12.6588 9.93726C12.493 9.64981 12.2197 9.44002 11.8992 9.35403C11.5787 9.26803 11.2372 9.31289 10.9497 9.47872C10.6623 9.64456 10.4525 9.91779 10.3665 10.2383C10.2805 10.5588 10.3253 10.9004 10.4912 11.1878C10.7672 11.6662 10.6031 12.2777 10.1247 12.5537C9.64633 12.8297 9.03479 12.6656 8.7588 12.1873C8.3279 11.4404 8.21135 10.5529 8.43479 9.72005C8.65824 8.88721 9.20337 8.17725 9.95027 7.74635Z" fill="#1100FF"/>
<path fill-rule="evenodd" clip-rule="evenodd" d="M7.51277 4.53371C8.25967 4.1028 9.14715 3.98625 9.97998 4.20969C10.8128 4.43314 11.5228 4.97827 11.9537 5.72517L13.2417 7.96365C13.5172 8.44234 13.3524 9.05369 12.8737 9.32914C12.395 9.60459 11.7837 9.43983 11.5082 8.96113L10.2213 6.72461C10.0554 6.43738 9.78209 6.22733 9.46173 6.14138C9.14121 6.05539 8.79966 6.10024 8.51222 6.26608C8.22477 6.43191 8.01497 6.70514 7.92898 7.02566C7.84322 7.3453 7.8876 7.68587 8.05233 7.97283L8.35051 8.48221C8.62951 8.95884 8.4693 9.5714 7.99267 9.8504C7.51604 10.1294 6.90348 9.9692 6.62448 9.49257L6.32129 8.97462C5.89039 8.22772 5.77385 7.34023 5.9973 6.5074C6.22074 5.67457 6.76587 4.96461 7.51277 4.53371Z" fill="#1100FF"/>
<path fill-rule="evenodd" clip-rule="evenodd" d="M20.7639 6.98886C21.1873 6.93327 21.6174 6.9616 22.0298 7.07224C22.4422 7.18287 22.8287 7.37365 23.1673 7.63368C23.5059 7.8936 23.7899 8.21762 24.0032 8.58727L26.1291 12.2637C27.2693 14.2456 27.6969 16.5581 27.3407 18.8167C26.9844 21.0753 25.8659 23.1439 24.171 24.6787C23.7616 25.0494 23.1292 25.018 22.7585 24.6087C22.3878 24.1993 22.4192 23.5669 22.8286 23.1962C24.1849 21.968 25.08 20.3126 25.3651 18.5051C25.6501 16.698 25.3081 14.8479 24.396 13.262L24.3955 13.2611L22.2716 9.588C22.1895 9.44568 22.0796 9.32007 21.9493 9.21999C21.819 9.11992 21.6702 9.0465 21.5115 9.00392C21.3528 8.96134 21.1873 8.95044 21.0244 8.97183C20.8614 8.99323 20.7043 9.0465 20.562 9.12862C20.4197 9.21073 20.2949 9.32007 20.1948 9.4504C20.0948 9.58073 20.0214 9.72949 19.9788 9.8882C19.9362 10.0469 19.9253 10.2124 19.9467 10.3754C19.9681 10.5383 20.0214 10.6954 20.1035 10.8377C20.3795 11.3161 20.2154 11.9276 19.737 12.2036C19.2586 12.4796 18.6471 12.3155 18.3711 11.8372C18.1577 11.4673 18.0193 11.0591 17.9637 10.6358C17.9081 10.2124 17.9365 9.78231 18.0471 9.36994C18.1577 8.95756 18.3485 8.57102 18.6085 8.23237C18.8686 7.89372 19.1927 7.60961 19.5626 7.39625C19.9324 7.18288 20.3406 7.04445 20.7639 6.98886Z" fill="#1100FF"/>
<path fill-rule="evenodd" clip-rule="evenodd" d="M12.4127 4.02125C13.1596 3.59035 14.0471 3.4738 14.8799 3.69724C15.7126 3.92065 16.4224 4.46562 16.8533 5.21231L20.3908 11.3373C20.6671 11.8156 20.5033 12.4272 20.025 12.7034C19.5468 12.9796 18.9352 12.8158 18.6589 12.3376L15.1214 6.21257C14.9556 5.92512 14.6821 5.71492 14.3616 5.62893C14.0411 5.54294 13.6996 5.58779 13.4121 5.75362C13.1247 5.91946 12.9149 6.19269 12.8289 6.51321C12.7429 6.83372 12.7877 7.17527 12.9536 7.46272C13.2296 7.9411 13.0655 8.55264 12.5871 8.82862C12.1087 9.10461 11.4972 8.94054 11.2212 8.46216C10.7903 7.71526 10.6738 6.82778 10.8972 5.99495C11.1206 5.16212 11.6658 4.45216 12.4127 4.02125Z" fill="#1100FF"/>
<path fill-rule="evenodd" clip-rule="evenodd" d="M22.3574 0.446262C22.8911 0.588349 23.2086 1.13618 23.0665 1.66987L22.554 3.59487C22.4119 4.12857 21.8641 4.44603 21.3304 4.30394C20.7967 4.16185 20.4792 3.61402 20.6213 3.08033L21.1338 1.15533C21.2759 0.621634 21.8237 0.304174 22.3574 0.446262Z" fill="#1100FF"/>
<path fill-rule="evenodd" clip-rule="evenodd" d="M26.4621 2.35654C26.9141 2.67395 27.0231 3.29765 26.7057 3.74961L25.5557 5.38711C25.2383 5.83907 24.6146 5.94815 24.1627 5.63074C23.7107 5.31333 23.6016 4.68963 23.919 4.23767L25.069 2.60017C25.3864 2.14821 26.0101 2.03913 26.4621 2.35654Z" fill="#1100FF"/>
<path fill-rule="evenodd" clip-rule="evenodd" d="M29.6434 5.53767C29.9608 5.98963 29.8518 6.61333 29.3998 6.93074L27.7623 8.08074C27.3103 8.39815 26.6866 8.28907 26.3692 7.83711C26.0518 7.38515 26.1609 6.76145 26.6129 6.44404L28.2504 5.29404C28.7023 4.97663 29.326 5.08571 29.6434 5.53767Z" fill="#1100FF"/>
</svg>
