<svg width="32" height="32" viewBox="0 0 32 32" fill="none" xmlns="http://www.w3.org/2000/svg">
<path fill-rule="evenodd" clip-rule="evenodd" d="M4.44995 12C4.44995 11.4477 4.89767 11 5.44995 11H28C28.5522 11 29 11.4477 29 12C29 12.5523 28.5522 13 28 13H5.44995C4.89767 13 4.44995 12.5523 4.44995 12Z" fill="#1100FF"/>
<path fill-rule="evenodd" clip-rule="evenodd" d="M22.1788 4.01612C22.7222 4.11492 23.0826 4.6355 22.9838 5.17888L18.9838 27.1789C18.885 27.7223 18.3644 28.0827 17.821 27.9839C17.2777 27.8851 16.9173 27.3645 17.0161 26.8211L21.0161 4.8211C21.1149 4.27773 21.6354 3.91732 22.1788 4.01612Z" fill="#1100FF"/>
<path fill-rule="evenodd" clip-rule="evenodd" d="M14.1788 4.01612C14.7222 4.11492 15.0826 4.6355 14.9838 5.17888L10.9838 27.1789C10.885 27.7223 10.3644 28.0827 9.82104 27.9839C9.27767 27.8851 8.91726 27.3645 9.01606 26.8211L13.0161 4.8211C13.1149 4.27773 13.6354 3.91732 14.1788 4.01612Z" fill="#1100FF"/>
<path fill-rule="evenodd" clip-rule="evenodd" d="M3 20C3 19.4477 3.44772 19 4 19H26.55C27.1023 19 27.55 19.4477 27.55 20C27.55 20.5523 27.1023 21 26.55 21H4C3.44772 21 3 20.5523 3 20Z" fill="#1100FF"/>
</svg>
