<svg width="32" height="32" viewBox="0 0 32 32" fill="none" xmlns="http://www.w3.org/2000/svg">
<path d="M21 11H30C30.5525 11 31 10.5525 31 10C31 9.4475 30.5525 9 30 9H21C20.4475 9 20 9.4475 20 10C20 10.5525 20.4475 11 21 11Z" fill="#1100FF"/>
<path d="M30 21H21C20.4475 21 20 21.4475 20 22C20 22.5525 20.4475 23 21 23H30C30.5525 23 31 22.5525 31 22C31 21.4475 30.5525 21 30 21Z" fill="#1100FF"/>
<path d="M30 13H21C20.4475 13 20 13.4475 20 14C20 14.5525 20.4475 15 21 15H30C30.5525 15 31 14.5525 31 14C31 13.4475 30.5525 13 30 13Z" fill="#1100FF"/>
<path d="M30 17H21C20.4475 17 20 17.4475 20 18C20 18.5525 20.4475 19 21 19H30C30.5525 19 31 18.5525 31 18C31 17.4475 30.5525 17 30 17Z" fill="#1100FF"/>
<path d="M16 6H11.1125C5.5775 6 1.04125 10.455 1 15.9312V16C1 21.5138 5.48625 26 11 26H16C17.1025 26 18 25.1025 18 24V8C18 6.8975 17.1025 6 16 6ZM16 24H11C6.58875 24 3 20.4113 3 16V15.945C3.03375 11.5637 6.6725 8 11.1125 8H16V24Z" fill="#1100FF"/>
</svg>
