<svg width="32" height="32" viewBox="0 0 32 32" fill="none" xmlns="http://www.w3.org/2000/svg">
<path fill-rule="evenodd" clip-rule="evenodd" d="M19.7224 4.52896C20.6698 4.1521 21.684 3.97235 22.7032 4.0007C23.7224 4.02905 24.7251 4.2649 25.65 4.69384C26.5746 5.12261 27.4021 5.73532 28.0819 6.49455C30.8337 9.55466 30.3558 14.2444 27.5465 17.0678L27.5448 17.0695L17.4198 27.1945L16.7127 26.4874L17.4164 27.1979C17.0395 27.5712 16.5306 27.7806 16.0002 27.7806C15.4698 27.7806 14.9608 27.5712 14.584 27.1979L14.5806 27.1945L4.19307 16.807C3.47239 16.0858 2.90607 15.225 2.52921 14.2777C2.15235 13.3303 1.9726 12.3161 2.00095 11.2969C2.02929 10.2777 2.26514 9.27503 2.69408 8.35009C3.12285 7.42552 3.73556 6.59803 4.4948 5.91815C7.5549 3.16644 12.2447 3.64434 15.068 6.45355L15.0725 6.458L16.0005 7.39318L17.1908 6.19514L17.1933 6.19256C17.9145 5.47189 18.7751 4.90583 19.7224 4.52896ZM16.009 25.7769L26.1288 15.6571L26.1295 15.6564C28.2944 13.4799 28.5414 9.99587 26.5942 7.8312L26.5926 7.82941C26.0939 7.27233 25.4869 6.82278 24.8086 6.50823C24.1303 6.19367 23.395 6.02072 22.6476 5.99993C21.9002 5.97914 21.1564 6.11096 20.4617 6.38732C19.7675 6.66348 19.1368 7.07818 18.6082 7.60611L18.607 7.60729L16.7096 9.51721C16.5218 9.70623 16.2664 9.8125 15.9999 9.81243C15.7335 9.81236 15.4781 9.70596 15.2904 9.51684L13.6552 7.86921C11.4787 5.70563 7.99566 5.45914 5.83144 7.4059L5.82965 7.40751C5.27258 7.90619 4.82303 8.51322 4.50847 9.19151C4.19392 9.8698 4.02096 10.6051 4.00017 11.3525C3.97939 12.0999 4.1112 12.8437 4.38757 13.5384C4.66393 14.2331 5.07904 14.8642 5.60754 15.3931L15.9914 25.7769C15.9937 25.779 15.997 25.7806 16.0002 25.7806C16.0033 25.7806 16.0067 25.779 16.009 25.7769Z" fill="#1100FF"/>
<path fill-rule="evenodd" clip-rule="evenodd" d="M16.6748 8.07442C17.0824 8.44708 17.1107 9.07961 16.738 9.48721L15.3833 10.969L18.7071 14.2928C19.0976 14.6834 19.0976 15.3165 18.7071 15.7071L16.7071 17.7071C16.3166 18.0976 15.6834 18.0976 15.2929 17.7071C14.9024 17.3165 14.9024 16.6834 15.2929 16.2928L16.5858 14.9999L13.2929 11.7071C12.9147 11.3288 12.901 10.7199 13.262 10.3252L15.262 8.13768C15.6346 7.73007 16.2672 7.70175 16.6748 8.07442Z" fill="#1100FF"/>
</svg>
