<svg width="32" height="32" viewBox="0 0 32 32" fill="none" xmlns="http://www.w3.org/2000/svg">
<path d="M16 28C15.8313 28 15.6638 27.9575 15.5113 27.8726C14.98 27.5753 2.50003 20.4873 2.50003 11.5104C2.49253 8.67598 4.05877 6.1126 6.58627 4.82092C9.86002 3.14822 13.8013 4.11886 15.9588 6.94083L16.6938 6.20629C18.0888 4.80967 20.0238 4.00768 22 4.00768H22.0088C26.1437 4.01268 29.505 7.3793 29.5 11.5117C29.5 20.4873 17.02 27.5753 16.4888 27.8726C16.3375 27.9575 16.1688 28 16 28ZM9.99377 5.99517C9.13502 5.99517 8.28252 6.19879 7.49627 6.59979C5.64252 7.54669 4.49502 9.42675 4.50002 11.5079C4.50002 18.4011 13.7475 24.4647 16 25.8389C18.2513 24.466 27.5 18.4011 27.5 11.5104C27.5037 8.4786 25.0387 6.01016 22.0063 6.00642H22C20.55 6.00642 19.1325 6.59354 18.1075 7.61915L16.5825 9.14318C16.5288 9.21314 16.465 9.27685 16.3925 9.33306L14.8125 10.9121L18.105 14.2025C18.495 14.5922 18.495 15.2256 18.105 15.6153L16.105 17.6141C15.715 18.0038 15.0813 18.0038 14.6913 17.6141C14.3013 17.2243 14.3013 16.591 14.6913 16.2012L15.9838 14.9095L12.6913 11.6191C12.3013 11.2294 12.3013 10.596 12.6913 10.2063L14.525 8.37367C13.8425 7.38055 12.8563 6.64351 11.69 6.26625C11.1325 6.08637 10.5613 5.99642 9.99127 5.99642L9.99377 5.99517Z" fill="#1100FF"/>
</svg>
