<svg width="32" height="32" viewBox="0 0 32 32" fill="none" xmlns="http://www.w3.org/2000/svg">
<path fill-rule="evenodd" clip-rule="evenodd" d="M15.017 2.4064C15.3162 2.23475 15.6551 2.14441 16 2.14441C16.3449 2.14441 16.6838 2.23475 16.983 2.4064L27.4813 8.34296C27.789 8.51771 28.0452 8.7705 28.2241 9.07585C28.4029 9.38119 28.4981 9.7283 28.5 10.0822L28.5 10.0875L28.5 21.9179C28.4981 22.2718 28.4029 22.6189 28.2241 22.9242C28.0452 23.2296 27.789 23.4824 27.4813 23.6571L16.983 29.5936C16.6839 29.7653 16.345 29.8557 16 29.8557C15.655 29.8557 15.3161 29.7653 15.017 29.5936L4.52027 23.658L4.51869 23.6571C4.21097 23.4824 3.95478 23.2296 3.77593 22.9242C3.59709 22.6189 3.50191 22.2718 3.50001 21.9179L3.5 21.9125V10.0822C3.5019 9.7283 3.59709 9.3812 3.77593 9.07585C3.95478 8.7705 4.21097 8.51771 4.51869 8.34297L4.52027 8.34207L15.017 2.4064ZM16 4.14817L5.50631 10.0821C5.50447 10.0832 5.50278 10.0848 5.5017 10.0867C5.50068 10.0884 5.5001 10.0904 5.5 10.0924V21.9077C5.5001 21.9097 5.50068 21.9117 5.5017 21.9134C5.50278 21.9153 5.50431 21.9168 5.50614 21.9179L16 27.8519L26.4937 21.918C26.4955 21.9169 26.4972 21.9153 26.4983 21.9134C26.4993 21.9117 26.4999 21.9097 26.5 21.9077V10.0924C26.4999 10.0904 26.4993 10.0884 26.4983 10.0867L26.4959 10.0837L26.4938 10.0822L16 4.14817Z" fill="#1100FF"/>
</svg>
