<svg width="32" height="32" viewBox="0 0 32 32" fill="none" xmlns="http://www.w3.org/2000/svg">
<path fill-rule="evenodd" clip-rule="evenodd" d="M7.58581 3.58579C7.96088 3.21071 8.46959 3 9.00002 3H23C23.5305 3 24.0392 3.21071 24.4142 3.58579C24.7893 3.96086 25 4.46957 25 5V9.45616C24.9981 9.7644 24.9254 10.0681 24.7876 10.3438C24.6497 10.6195 24.4504 10.8598 24.2049 11.0463L16.6034 16.7975C16.2477 17.0666 15.7568 17.0676 15.4 16.8L7.79509 11.0963C7.54964 10.9098 7.35031 10.6695 7.21247 10.3938C7.07462 10.1181 7.00194 9.8144 7.00004 9.50616L7 9.5L7.00002 5C7.00002 4.46957 7.21073 3.96086 7.58581 3.58579ZM23 5H9.00002V9.49445L9.00132 9.49935L9.00445 9.50333L15.9974 14.748L22.9951 9.45371L22.9987 9.44935L23 9.44446V5Z" fill="#1100FF"/>
<path fill-rule="evenodd" clip-rule="evenodd" d="M15.4 15.2C15.7568 14.9324 16.2477 14.9334 16.6034 15.2025L24.2049 20.9537C24.4504 21.1402 24.6497 21.3805 24.7876 21.6562C24.9254 21.9319 24.9981 22.2356 25 22.5438L25 22.55L25 27C25 27.5304 24.7893 28.0391 24.4142 28.4142C24.0391 28.7893 23.5304 29 23 29H9C8.46957 29 7.96086 28.7893 7.58579 28.4142C7.21071 28.0391 7 27.5304 7 27V22.4938C7.0019 22.1856 7.0746 21.8819 7.21245 21.6062C7.3503 21.3305 7.54963 21.0902 7.79508 20.9037L7.79999 20.9L15.4 15.2ZM9 22.5055L9.0013 22.5007L9.00443 22.4967L15.9974 17.252L22.9951 22.5463L22.9987 22.5507L22.9994 22.5523L23 22.5555V27H9V22.5055Z" fill="#1100FF"/>
<path fill-rule="evenodd" clip-rule="evenodd" d="M8.3374 11C8.3374 10.4477 8.78512 10 9.3374 10H22.6124C23.1647 10 23.6124 10.4477 23.6124 11C23.6124 11.5523 23.1647 12 22.6124 12H9.3374C8.78512 12 8.3374 11.5523 8.3374 11Z" fill="#1100FF"/>
<path fill-rule="evenodd" clip-rule="evenodd" d="M16 15C16.5523 15 17 15.4477 17 16V21C17 21.5523 16.5523 22 16 22C15.4477 22 15 21.5523 15 21V16C15 15.4477 15.4477 15 16 15Z" fill="#1100FF"/>
</svg>
