<svg width="32" height="32" viewBox="0 0 32 32" fill="none" xmlns="http://www.w3.org/2000/svg">
<path fill-rule="evenodd" clip-rule="evenodd" d="M8.97733 11.1077C8.01008 10.9159 7.00771 11.0152 6.09687 11.3929C5.18603 11.7707 4.40761 12.41 3.85996 13.23C3.31231 14.05 3.02002 15.0139 3.02002 16C3.02002 16.986 3.31231 17.95 3.85996 18.77C4.40761 19.59 5.18603 20.2292 6.09687 20.607C7.00771 20.9847 8.01008 21.084 8.97733 20.8923C9.93516 20.7024 10.816 20.2356 11.5107 19.55L12.5773 18.3486C12.9439 17.9355 13.576 17.898 13.989 18.2646C14.402 18.6313 14.4396 19.2633 14.0729 19.6763L12.9854 20.9013C12.9721 20.9164 12.9583 20.931 12.9441 20.9452C11.9664 21.9212 10.7213 22.5855 9.36622 22.8541C8.01111 23.1227 6.60678 22.9836 5.3307 22.4544C4.05461 21.9252 2.96403 21.0296 2.19678 19.8807C1.42952 18.7319 1.02002 17.3814 1.02002 16C1.02002 14.6185 1.42952 13.268 2.19678 12.1192C2.96403 10.9704 4.05461 10.0747 5.3307 9.54552C6.60678 9.01629 8.01111 8.8772 9.36622 9.14583C10.7213 9.41445 11.9664 10.0787 12.9441 11.0547C12.9583 11.0689 12.9721 11.0835 12.9854 11.0985L20.4895 19.55C21.1842 20.2356 22.0651 20.7024 23.0229 20.8923C23.9902 21.084 24.9925 20.9847 25.9034 20.607C26.8142 20.2292 27.5926 19.59 28.1403 18.77C28.6879 17.95 28.9802 16.986 28.9802 16C28.9802 15.0139 28.6879 14.05 28.1403 13.23C27.5926 12.41 26.8142 11.7707 25.9034 11.3929C24.9925 11.0152 23.9902 10.9159 23.0229 11.1077C22.0651 11.2975 21.1843 11.7643 20.4895 12.4499L19.4229 13.6513C19.0563 14.0644 18.4242 14.1019 18.0112 13.7353C17.5982 13.3686 17.5606 12.7366 17.9273 12.3236L19.0148 11.0986C19.0281 11.0835 19.0419 11.0689 19.0561 11.0547C20.0338 10.0787 21.2789 9.41445 22.634 9.14583C23.9891 8.8772 25.3935 9.01629 26.6695 9.54552C27.9456 10.0747 29.0362 10.9704 29.8035 12.1192C30.5707 13.268 30.9802 14.6185 30.9802 16C30.9802 17.3814 30.5707 18.7319 29.8035 19.8807C29.0362 21.0296 27.9456 21.9252 26.6695 22.4544C25.3935 22.9836 23.9891 23.1227 22.634 22.8541C21.2789 22.5855 20.0338 21.9212 19.0561 20.9452C19.0419 20.931 19.0282 20.9164 19.0148 20.9014L11.5107 12.4499C10.816 11.7644 9.93517 11.2975 8.97733 11.1077Z" fill="#1100FF"/>
</svg>
