<svg width="32" height="32" viewBox="0 0 32 32" fill="none" xmlns="http://www.w3.org/2000/svg">
<path fill-rule="evenodd" clip-rule="evenodd" d="M4.0607 8.06258C4.0607 8.06279 4.0607 8.06229 4.0607 8.06258V23.9376C4.0607 23.9374 4.0607 23.9379 4.0607 23.9376C4.06084 23.9377 4.06103 23.9387 4.06125 23.9389C4.06108 23.9388 4.06147 23.9391 4.06125 23.9389C4.06146 23.9389 4.06229 23.9395 4.06258 23.9395H27.9376C27.9374 23.9395 27.9379 23.9395 27.9376 23.9395C27.9377 23.9393 27.9387 23.9391 27.9389 23.9389C27.9388 23.9391 27.9391 23.9387 27.9389 23.9389C27.9389 23.9387 27.9395 23.9379 27.9395 23.9376V8.06258C27.9395 8.06229 27.9395 8.06279 27.9395 8.06258C27.9393 8.06241 27.9391 8.06147 27.9389 8.06125C27.9387 8.06103 27.9391 8.06139 27.9389 8.06125C27.9387 8.06124 27.9379 8.0607 27.9376 8.0607H4.06258C4.06229 8.0607 4.06279 8.0607 4.06258 8.0607C4.06241 8.06084 4.06147 8.06103 4.06125 8.06125C4.06103 8.06148 4.06084 8.06241 4.0607 8.06258ZM1.93945 8.06258C1.93945 6.89001 2.89001 5.93945 4.06258 5.93945H27.9376C29.1101 5.93945 30.0607 6.89001 30.0607 8.06258V23.9376C30.0607 25.1101 29.1101 26.0607 27.9376 26.0607H4.06258C2.89001 26.0607 1.93945 25.1101 1.93945 23.9376V8.06258Z" fill="#1100FF"/>
<path fill-rule="evenodd" clip-rule="evenodd" d="M6 16.0001C6 15.4478 6.44772 15.0001 7 15.0001H25C25.5523 15.0001 26 15.4478 26 16.0001C26 16.5524 25.5523 17.0001 25 17.0001H7C6.44772 17.0001 6 16.5524 6 16.0001Z" fill="#1100FF"/>
<path fill-rule="evenodd" clip-rule="evenodd" d="M6 12.0001C6 11.4478 6.44772 11.0001 7 11.0001H25C25.5523 11.0001 26 11.4478 26 12.0001C26 12.5524 25.5523 13.0001 25 13.0001H7C6.44772 13.0001 6 12.5524 6 12.0001Z" fill="#1100FF"/>
<path fill-rule="evenodd" clip-rule="evenodd" d="M6 20.0001C6 19.4478 6.44772 19.0001 7 19.0001H8C8.55228 19.0001 9 19.4478 9 20.0001C9 20.5524 8.55228 21.0001 8 21.0001H7C6.44772 21.0001 6 20.5524 6 20.0001Z" fill="#1100FF"/>
<path fill-rule="evenodd" clip-rule="evenodd" d="M11 20.0001C11 19.4478 11.4477 19.0001 12 19.0001H20C20.5523 19.0001 21 19.4478 21 20.0001C21 20.5524 20.5523 21.0001 20 21.0001H12C11.4477 21.0001 11 20.5524 11 20.0001Z" fill="#1100FF"/>
<path fill-rule="evenodd" clip-rule="evenodd" d="M23 20.0001C23 19.4478 23.4477 19.0001 24 19.0001H25C25.5523 19.0001 26 19.4478 26 20.0001C26 20.5524 25.5523 21.0001 25 21.0001H24C23.4477 21.0001 23 20.5524 23 20.0001Z" fill="#1100FF"/>
</svg>
