<svg width="32" height="32" viewBox="0 0 32 32" fill="none" xmlns="http://www.w3.org/2000/svg">
<path fill-rule="evenodd" clip-rule="evenodd" d="M25.4483 5.4411L19.7209 11.3068L21.9515 13.5374L27.5327 7.57899C27.5401 7.57104 27.5477 7.56322 27.5554 7.55551C27.8353 7.27561 27.9926 6.89597 27.9926 6.50012C27.9926 6.10427 27.8353 5.72463 27.5554 5.44473C27.2755 5.16482 26.8959 5.00757 26.5 5.00757C26.1059 5.00757 25.7278 5.16346 25.4483 5.4411ZM21.2707 15.685C21.2685 15.6829 21.2664 15.6808 21.2643 15.6786L18.3236 12.7379L5.03492 26.3475C10.3863 27.0155 14.9477 25.0777 18.3142 22.7972C20.1818 21.532 21.6612 20.1738 22.6732 19.1316C23.0768 18.716 23.4047 18.352 23.6519 18.0662L21.2707 15.685ZM25 18.0001L25.8 18.6001C26.0986 18.202 26.059 17.6449 25.7071 17.293L23.3665 14.9524L28.9821 8.95718C29.6293 8.30343 29.9926 7.4205 29.9926 6.50012C29.9926 5.57384 29.6246 4.68549 28.9696 4.03051C28.3146 3.37553 27.4263 3.00757 26.5 3.00757C25.5737 3.00757 24.6854 3.37553 24.0304 4.03051L17.6593 10.5554C17.6409 10.5713 17.6229 10.588 17.6054 10.6055C17.5821 10.6288 17.5602 10.653 17.5397 10.6779L2.28453 26.3015C2.03206 26.5601 1.93874 26.9347 2.04044 27.2815C2.14214 27.6283 2.42303 27.8932 2.77516 27.9745C9.64077 29.5589 15.4259 27.1695 19.4359 24.453C21.4432 23.0932 23.0263 21.6389 24.1081 20.5249C24.6497 19.967 25.0678 19.4923 25.3527 19.1542C25.4952 18.985 25.6045 18.8499 25.6794 18.7554C25.7169 18.7081 25.7458 18.671 25.7659 18.6448L25.7896 18.6139L25.7965 18.6049L25.7987 18.6019L25.8 18.6001C25.8 18.6001 25.8 18.6001 25 18.0001Z" fill="#1100FF"/>
</svg>
