<svg width="32" height="32" viewBox="0 0 32 32" fill="none" xmlns="http://www.w3.org/2000/svg">
<path fill-rule="evenodd" clip-rule="evenodd" d="M8.66226 6C8.65984 6 8.65748 6.0007 8.65545 6.00201L8.65153 6.00607L3.51663 18L28.4836 18L28.4808 17.9936L23.3486 6.00606L23.3447 6.00201C23.3427 6.0007 23.3403 6 23.3379 6H8.66226ZM8.66292 4H23.3373C23.7261 3.99993 24.1069 4.1125 24.4331 4.32409C24.7594 4.53574 25.0174 4.83741 25.1758 5.19259L25.1819 5.20643L30.3166 17.2L30.3183 17.2039C30.4496 17.5066 30.5041 17.8371 30.4767 18.1659C30.4492 18.4962 30.3401 18.8144 30.1591 19.0921C29.9781 19.3697 29.731 19.598 29.44 19.7565C29.1489 19.915 28.823 19.9987 28.4916 20L28.4876 20H3.50858C3.17717 19.9987 2.85129 19.915 2.56023 19.7565C2.26917 19.598 2.02205 19.3697 1.84108 19.0921C1.66012 18.8144 1.55099 18.4962 1.5235 18.1659C1.49612 17.837 1.55056 17.5065 1.68194 17.2038L6.8183 5.20643L6.82434 5.19259C6.9828 4.83741 7.24077 4.53574 7.56707 4.32409C7.89327 4.1125 8.27411 3.99993 8.66292 4Z" fill="#1100FF"/>
<path fill-rule="evenodd" clip-rule="evenodd" d="M16 18C16.5523 18 17 18.4477 17 19V27C17 27.5523 16.5523 28 16 28C15.4477 28 15 27.5523 15 27V19C15 18.4477 15.4477 18 16 18Z" fill="#1100FF"/>
<path fill-rule="evenodd" clip-rule="evenodd" d="M11 27C11 26.4477 11.4477 26 12 26H20C20.5523 26 21 26.4477 21 27C21 27.5523 20.5523 28 20 28H12C11.4477 28 11 27.5523 11 27Z" fill="#1100FF"/>
<path fill-rule="evenodd" clip-rule="evenodd" d="M25 18C25.5523 18 26 18.4477 26 19V24C26 24.5523 25.5523 25 25 25C24.4477 25 24 24.5523 24 24V19C24 18.4477 24.4477 18 25 18Z" fill="#1100FF"/>
</svg>
