<svg width="32" height="32" viewBox="0 0 32 32" fill="none" xmlns="http://www.w3.org/2000/svg">
<path fill-rule="evenodd" clip-rule="evenodd" d="M16 5C9.92487 5 5 9.92487 5 16C5 22.0751 9.92487 27 16 27C22.0751 27 27 22.0751 27 16C27 9.92487 22.0751 5 16 5ZM3 16C3 8.8203 8.8203 3 16 3C23.1797 3 29 8.8203 29 16C29 23.1797 23.1797 29 16 29C8.8203 29 3 23.1797 3 16Z" fill="#1100FF"/>
<path fill-rule="evenodd" clip-rule="evenodd" d="M16 12C13.7909 12 12 13.7909 12 16C12 18.2091 13.7909 20 16 20C18.2091 20 20 18.2091 20 16C20 13.7909 18.2091 12 16 12ZM10 16C10 12.6863 12.6863 10 16 10C19.3137 10 22 12.6863 22 16C22 19.3137 19.3137 22 16 22C12.6863 22 10 19.3137 10 16Z" fill="#1100FF"/>
<path fill-rule="evenodd" clip-rule="evenodd" d="M6.80559 6.80534C7.19611 6.41482 7.82928 6.41482 8.2198 6.80534L13.1698 11.7553C13.5603 12.1459 13.5603 12.779 13.1698 13.1696C12.7793 13.5601 12.1461 13.5601 11.7556 13.1696L6.80559 8.21956C6.41506 7.82903 6.41506 7.19587 6.80559 6.80534Z" fill="#1100FF"/>
<path fill-rule="evenodd" clip-rule="evenodd" d="M25.1947 6.80534C25.5852 7.19587 25.5852 7.82903 25.1947 8.21956L20.2447 13.1696C19.8542 13.5601 19.221 13.5601 18.8305 13.1696C18.44 12.779 18.44 12.1459 18.8305 11.7553L23.7805 6.80534C24.171 6.41482 24.8042 6.41482 25.1947 6.80534Z" fill="#1100FF"/>
<path fill-rule="evenodd" clip-rule="evenodd" d="M18.8305 18.8304C19.221 18.4398 19.8542 18.4398 20.2447 18.8304L25.1947 23.7804C25.5852 24.1709 25.5852 24.8041 25.1947 25.1946C24.8042 25.5851 24.171 25.5851 23.7805 25.1946L18.8305 20.2446C18.44 19.8541 18.44 19.2209 18.8305 18.8304Z" fill="#1100FF"/>
<path fill-rule="evenodd" clip-rule="evenodd" d="M13.1698 18.8304C13.5603 19.2209 13.5603 19.8541 13.1698 20.2446L8.2198 25.1946C7.82928 25.5851 7.19611 25.5851 6.80559 25.1946C6.41506 24.8041 6.41506 24.1709 6.80559 23.7804L11.7556 18.8304C12.1461 18.4398 12.7793 18.4398 13.1698 18.8304Z" fill="#1100FF"/>
</svg>
