<svg width="32" height="32" viewBox="0 0 32 32" fill="none" xmlns="http://www.w3.org/2000/svg">
<path fill-rule="evenodd" clip-rule="evenodd" d="M5.32733 4.26007C5.73599 3.88856 6.36844 3.91868 6.73995 4.32733L26.7399 26.3273C27.1115 26.736 27.0813 27.3684 26.6727 27.7399C26.264 28.1115 25.6316 28.0813 25.2601 27.6727L5.26007 5.67268C4.88856 5.26402 4.91868 4.63157 5.32733 4.26007Z" fill="#1100FF"/>
<path fill-rule="evenodd" clip-rule="evenodd" d="M12.207 10.3436C12.6109 10.7202 12.633 11.353 12.2564 11.7569L7.75095 16.5886L14.3511 19.0636C14.8102 19.2358 15.0767 19.7153 14.9806 20.1961L13.6706 26.7459L19.7442 20.2424C20.1211 19.8388 20.7539 19.8171 21.1575 20.1941C21.5612 20.5711 21.5828 21.2038 21.2059 21.6075L12.7309 30.6825C12.4258 31.0092 11.9409 31.0937 11.5433 30.8896C11.1456 30.6854 10.9318 30.2422 11.0194 29.8038L12.8527 20.6377L5.64889 17.9363C5.33634 17.8191 5.10288 17.5536 5.02653 17.2287C4.95017 16.9037 5.041 16.5621 5.26865 16.318L10.7937 10.393C11.1703 9.98905 11.8031 9.96694 12.207 10.3436Z" fill="#1100FF"/>
<path fill-rule="evenodd" clip-rule="evenodd" d="M20.4571 1.11054C20.8547 1.31475 21.0684 1.75793 20.9808 2.19615L19.1476 11.3623L26.3513 14.0637C26.6639 14.1809 26.8974 14.4464 26.9737 14.7715C27.05 15.0965 26.9591 15.4381 26.7314 15.6822L23.9439 18.6697C23.5671 19.0736 22.9343 19.0955 22.5305 18.7187C22.1267 18.3419 22.1048 17.7091 22.4815 17.3053L24.2488 15.4113L17.6491 12.9364C17.19 12.7642 16.9235 12.2847 17.0196 11.8039L18.3303 5.25075L14.9932 8.82044C14.6161 9.22389 13.9832 9.2452 13.5798 8.86805C13.1763 8.49089 13.155 7.85808 13.5322 7.45463L19.2697 1.31713C19.5749 0.990669 20.0596 0.906332 20.4571 1.11054Z" fill="#1100FF"/>
</svg>
