<svg width="32" height="32" viewBox="0 0 32 32" fill="none" xmlns="http://www.w3.org/2000/svg">
<path fill-rule="evenodd" clip-rule="evenodd" d="M10 28.9999C10 28.4476 10.4477 27.9999 11 27.9999H21C21.5523 27.9999 22 28.4476 22 28.9999C22 29.5522 21.5523 29.9999 21 29.9999H11C10.4477 29.9999 10 29.5522 10 28.9999Z" fill="#1100FF"/>
<path fill-rule="evenodd" clip-rule="evenodd" d="M16 16.9999C16.5523 16.9999 17 17.4476 17 17.9999V24.9999C17 25.5522 16.5523 25.9999 16 25.9999C15.4477 25.9999 15 25.5522 15 24.9999V17.9999C15 17.4476 15.4477 16.9999 16 16.9999Z" fill="#1100FF"/>
<path fill-rule="evenodd" clip-rule="evenodd" d="M11.2929 13.2928C11.6834 12.9022 12.3166 12.9022 12.7071 13.2928L16 16.5857L19.2929 13.2928C19.6834 12.9022 20.3166 12.9022 20.7071 13.2928C21.0976 13.6833 21.0976 14.3165 20.7071 14.707L16.7071 18.707C16.3166 19.0975 15.6834 19.0975 15.2929 18.707L11.2929 14.707C10.9024 14.3165 10.9024 13.6833 11.2929 13.2928Z" fill="#1100FF"/>
<path fill-rule="evenodd" clip-rule="evenodd" d="M21.0904 5.57523C19.5317 4.50607 17.6759 3.9548 15.7863 3.99959C10.9097 4.11196 6.97759 8.17439 7.0001 13.0578L7.0001 13.0591C7.00454 14.4154 7.3176 15.7529 7.91557 16.9702C8.51354 18.1876 9.38073 19.2529 10.4514 20.0854L9.8376 20.8749L10.4564 20.0893C10.9339 20.4655 11.3206 20.9443 11.5878 21.4902C11.855 22.0361 11.9959 22.6352 12.0001 23.243L12.0001 23.2499L12.0001 23.9999H20.0001L20.0001 23.2479C20.0013 22.6343 20.1428 22.029 20.4138 21.4784C20.6841 20.9291 21.0762 20.4487 21.5602 20.0738C23.0455 18.9067 24.126 17.3018 24.6485 15.4865C25.1713 13.6701 25.1089 11.7351 24.4703 9.95615C23.8317 8.17715 22.6491 6.64439 21.0904 5.57523ZM9.22099 21.6621C7.91196 20.6436 6.8517 19.3407 6.12044 17.852C5.38866 16.3622 5.00555 14.7254 5.00011 13.0656L6.00011 13.0624L5.00012 13.067L5.00011 13.0656C4.97334 7.0997 9.76646 2.13791 15.7393 2.00015C18.0486 1.94554 20.3168 2.61931 22.2217 3.92593C24.1268 5.23268 25.5721 7.10606 26.3527 9.28039C27.1332 11.4547 27.2094 13.8196 26.5704 16.0397C25.9314 18.2597 24.6097 20.2222 22.7927 21.6489L22.7867 21.6536C22.5424 21.8424 22.3445 22.0845 22.2082 22.3616C22.072 22.6383 22.0008 22.9425 22.0001 23.2509V23.9999C22.0001 24.5303 21.7894 25.039 21.4143 25.4141C21.0392 25.7892 20.5305 25.9999 20.0001 25.9999H12.0001C11.4697 25.9999 10.961 25.7892 10.5859 25.4141C10.2108 25.039 10.0001 24.5303 10.0001 23.9999V23.2536C9.99755 22.947 9.92625 22.6449 9.79144 22.3695C9.65659 22.094 9.46165 21.8523 9.22099 21.6621Z" fill="#1100FF"/>
</svg>
