<svg width="32" height="32" viewBox="0 0 32 32" fill="none" xmlns="http://www.w3.org/2000/svg">
<path fill-rule="evenodd" clip-rule="evenodd" d="M12 4.99988C12.5523 4.99988 13 5.44759 13 5.99988V8.99988C13 9.55216 12.5523 9.99988 12 9.99988C11.4477 9.99988 11 9.55216 11 8.99988V5.99988C11 5.44759 11.4477 4.99988 12 4.99988Z" fill="#1100FF"/>
<path fill-rule="evenodd" clip-rule="evenodd" d="M20 21.9999C20.5523 21.9999 21 22.4476 21 22.9999V25.9999C21 26.5522 20.5523 26.9999 20 26.9999C19.4477 26.9999 19 26.5522 19 25.9999V22.9999C19 22.4476 19.4477 21.9999 20 21.9999Z" fill="#1100FF"/>
<path fill-rule="evenodd" clip-rule="evenodd" d="M5 11.9999C5 11.4476 5.44772 10.9999 6 10.9999H9C9.55228 10.9999 10 11.4476 10 11.9999C10 12.5522 9.55228 12.9999 9 12.9999H6C5.44772 12.9999 5 12.5522 5 11.9999Z" fill="#1100FF"/>
<path fill-rule="evenodd" clip-rule="evenodd" d="M22 19.9999C22 19.4476 22.4477 18.9999 23 18.9999H26C26.5523 18.9999 27 19.4476 27 19.9999C27 20.5522 26.5523 20.9999 26 20.9999H23C22.4477 20.9999 22 20.5522 22 19.9999Z" fill="#1100FF"/>
<path fill-rule="evenodd" clip-rule="evenodd" d="M9.58196 15.3428C9.97248 15.7333 9.97248 16.3665 9.58196 16.757L8.16946 18.1695C7.41879 18.9202 6.99707 19.9383 6.99707 20.9999C6.99707 21.5256 7.10061 22.0461 7.30176 22.5317C7.50292 23.0174 7.79776 23.4586 8.16946 23.8303C8.54115 24.202 8.98241 24.4969 9.46805 24.698C9.95369 24.8992 10.4742 25.0027 10.9999 25.0027C12.0615 25.0027 13.0796 24.581 13.8302 23.8303L15.2427 22.4178C15.6333 22.0273 16.2664 22.0273 16.657 22.4178C17.0475 22.8083 17.0475 23.4415 16.657 23.832L15.2445 25.2445C14.1187 26.3703 12.5919 27.0027 10.9999 27.0027C10.2116 27.0027 9.43098 26.8474 8.70269 26.5458C7.97439 26.2441 7.31265 25.8019 6.75524 25.2445C6.19783 24.6871 5.75567 24.0254 5.454 23.2971C5.15234 22.5688 4.99707 21.7882 4.99707 20.9999C4.99707 19.4079 5.6295 17.8811 6.75524 16.7553L8.16774 15.3428C8.55827 14.9523 9.19143 14.9523 9.58196 15.3428Z" fill="#1100FF"/>
<path fill-rule="evenodd" clip-rule="evenodd" d="M16.7552 6.75524C17.8809 5.6295 19.4078 4.99707 20.9998 4.99707C22.5918 4.99707 24.1187 5.6295 25.2444 6.75524C26.3702 7.88098 27.0026 9.40781 27.0026 10.9999C27.0026 12.5919 26.3702 14.1187 25.2444 15.2445L23.8319 16.657C23.4414 17.0475 22.8082 17.0475 22.4177 16.657C22.0272 16.2664 22.0272 15.6333 22.4177 15.2427L23.8302 13.8302C24.5809 13.0796 25.0026 12.0615 25.0026 10.9999C25.0026 9.93825 24.5809 8.92012 23.8302 8.16946C23.0795 7.41879 22.0614 6.99707 20.9998 6.99707C19.9382 6.99707 18.9201 7.41879 18.1694 8.16946L16.7569 9.58196C16.3664 9.97248 15.7332 9.97248 15.3427 9.58196C14.9522 9.19143 14.9522 8.55827 15.3427 8.16774L16.7552 6.75524Z" fill="#1100FF"/>
</svg>
