<svg width="32" height="32" viewBox="0 0 32 32" fill="none" xmlns="http://www.w3.org/2000/svg">
<path fill-rule="evenodd" clip-rule="evenodd" d="M10.3447 13.168C10.7352 13.5585 10.7352 14.1917 10.3447 14.5822L6.80721 18.1197C5.86923 19.0577 5.34229 20.3299 5.34229 21.6564C5.34229 22.9829 5.86923 24.255 6.80721 25.193C7.74519 26.131 9.01736 26.6579 10.3439 26.6579C11.0007 26.6579 11.6511 26.5286 12.2579 26.2772C12.8647 26.0259 13.4161 25.6575 13.8805 25.193L17.418 21.6555C17.8085 21.265 18.4417 21.265 18.8322 21.6555C19.2227 22.046 19.2227 22.6792 18.8322 23.0697L15.2947 26.6072C14.6446 27.2574 13.8727 27.7731 13.0232 28.125C12.1738 28.4768 11.2633 28.6579 10.3439 28.6579C8.48692 28.6579 6.70605 27.9203 5.393 26.6072C4.07995 25.2942 3.34229 23.5133 3.34229 21.6564C3.34229 19.7994 4.07995 18.0186 5.393 16.7055L8.9305 13.168C9.32102 12.7775 9.95419 12.7775 10.3447 13.168Z" fill="#1100FF"/>
<path fill-rule="evenodd" clip-rule="evenodd" d="M16.7054 5.393C18.0184 4.07995 19.7993 3.34229 21.6562 3.34229C23.5132 3.34229 25.2941 4.07995 26.6071 5.393C27.9202 6.70605 28.6578 8.48692 28.6578 10.3439C28.6578 12.2008 27.9202 13.9817 26.6071 15.2947L23.0696 18.8322C22.6791 19.2227 22.0459 19.2227 21.6554 18.8322C21.2649 18.4417 21.2649 17.8085 21.6554 17.418L25.1929 13.8805C26.1309 12.9425 26.6578 11.6704 26.6578 10.3439C26.6578 9.01736 26.1309 7.74519 25.1929 6.80721C24.2549 5.86923 22.9827 5.34229 21.6562 5.34229C20.3298 5.34229 19.0576 5.86923 18.1196 6.80721L14.5821 10.3447C14.1916 10.7352 13.5584 10.7352 13.1679 10.3447C12.7774 9.95419 12.7774 9.32102 13.1679 8.9305L16.7054 5.393Z" fill="#1100FF"/>
<path fill-rule="evenodd" clip-rule="evenodd" d="M10.3447 13.168C10.7352 13.5585 10.7352 14.1917 10.3447 14.5822L6.80721 18.1197C5.86923 19.0577 5.34229 20.3299 5.34229 21.6564C5.34229 22.9829 5.86923 24.255 6.80721 25.193C7.74519 26.131 9.01736 26.6579 10.3439 26.6579C11.0007 26.6579 11.6511 26.5286 12.2579 26.2772C12.8647 26.0259 13.4161 25.6575 13.8805 25.193L17.418 21.6555C17.8085 21.265 18.4417 21.265 18.8322 21.6555C19.2227 22.046 19.2227 22.6792 18.8322 23.0697L15.2947 26.6072C14.6446 27.2574 13.8727 27.7731 13.0232 28.125C12.1738 28.4768 11.2633 28.6579 10.3439 28.6579C8.48692 28.6579 6.70605 27.9203 5.393 26.6072C4.07995 25.2942 3.34229 23.5133 3.34229 21.6564C3.34229 19.7994 4.07995 18.0186 5.393 16.7055L8.9305 13.168C9.32102 12.7775 9.95419 12.7775 10.3447 13.168Z" fill="#1100FF"/>
<path fill-rule="evenodd" clip-rule="evenodd" d="M16.7054 5.393C18.0184 4.07995 19.7993 3.34229 21.6562 3.34229C23.5132 3.34229 25.2941 4.07995 26.6071 5.393C27.9202 6.70605 28.6578 8.48692 28.6578 10.3439C28.6578 12.2008 27.9202 13.9817 26.6071 15.2947L23.0696 18.8322C22.6791 19.2227 22.0459 19.2227 21.6554 18.8322C21.2649 18.4417 21.2649 17.8085 21.6554 17.418L25.1929 13.8805C26.1309 12.9425 26.6578 11.6704 26.6578 10.3439C26.6578 9.01736 26.1309 7.74519 25.1929 6.80721C24.2549 5.86923 22.9827 5.34229 21.6562 5.34229C20.3298 5.34229 19.0576 5.86923 18.1196 6.80721L14.5821 10.3447C14.1916 10.7352 13.5584 10.7352 13.1679 10.3447C12.7774 9.95419 12.7774 9.32102 13.1679 8.9305L16.7054 5.393Z" fill="#1100FF"/>
</svg>
