<svg width="32" height="32" viewBox="0 0 32 32" fill="none" xmlns="http://www.w3.org/2000/svg">
<path d="M28.8688 27.505C28.8301 27.4375 25.0001 20.6262 25.0001 13C25.0001 8.0375 20.9626 4 16.0001 4C11.0376 4 7.00008 8.0375 7.00008 13C7.00008 20.61 3.18758 27.4062 3.13133 27.5037C2.85758 27.9837 3.02383 28.5938 3.50383 28.8687C3.66008 28.9575 3.83133 29 3.99883 29C4.34633 29 4.68383 28.8188 4.86758 28.4963C5.03633 28.2013 8.99883 21.1712 8.99883 13C8.99883 9.14 12.1388 6 15.9988 6C19.8588 6 22.9988 9.14 22.9988 13C22.9988 21.1712 26.9613 28.2013 27.1301 28.4963C27.4038 28.975 28.0138 29.1425 28.4938 28.8687C28.9726 28.595 29.1401 27.985 28.8663 27.505H28.8688Z" fill="#1100FF"/>
<path d="M12.5001 16C13.3285 16 14.0001 15.3284 14.0001 14.5C14.0001 13.6716 13.3285 13 12.5001 13C11.6717 13 11.0001 13.6716 11.0001 14.5C11.0001 15.3284 11.6717 16 12.5001 16Z" fill="#1100FF"/>
<path d="M19.5001 16C20.3285 16 21.0001 15.3284 21.0001 14.5C21.0001 13.6716 20.3285 13 19.5001 13C18.6717 13 18.0001 13.6716 18.0001 14.5C18.0001 15.3284 18.6717 16 19.5001 16Z" fill="#1100FF"/>
<path d="M12.4476 18.105C11.9538 17.8575 11.3526 18.0588 11.1063 18.5525C10.8588 19.0463 11.0601 19.6475 11.5538 19.8938L15.5538 21.8938C15.6951 21.9638 15.8476 21.9988 16.0013 21.9988C16.1551 21.9988 16.3076 21.9638 16.4488 21.8938L20.4488 19.8938C20.9426 19.6463 21.1426 19.0463 20.8963 18.5525C20.6488 18.0588 20.0488 17.8588 19.5551 18.105L16.0026 19.8813L12.4501 18.105H12.4476Z" fill="#1100FF"/>
<path d="M19.5201 24.9538C16.1763 23.0125 11.8763 24.1538 9.93508 27.4988C9.65758 27.9763 9.82008 28.5887 10.2976 28.8662C10.7751 29.1437 11.3876 28.9813 11.6651 28.5037C13.0526 26.1138 16.1263 25.2975 18.5163 26.685C19.2688 27.1225 19.8976 27.7512 20.3351 28.5037C20.5201 28.8237 20.8563 29.0025 21.2013 29.0025C21.3713 29.0025 21.5438 28.9587 21.7026 28.8675C22.1801 28.59 22.3426 27.9788 22.0651 27.5012C21.4538 26.4475 20.5738 25.5675 19.5201 24.9562V24.9538Z" fill="#1100FF"/>
</svg>
