<svg width="32" height="32" viewBox="0 0 32 32" fill="none" xmlns="http://www.w3.org/2000/svg">
<path fill-rule="evenodd" clip-rule="evenodd" d="M13.8458 3.82552C15.1888 3.27296 16.6278 2.99176 18.0799 2.99815C19.5321 3.00454 20.9685 3.2984 22.3065 3.86276C23.6444 4.42706 24.8573 5.25064 25.8753 6.28601C30.1344 10.6141 29.9962 17.5929 25.7196 21.8695L25.7132 21.876L17.4037 30.0352C17.0248 30.3976 16.5192 30.5978 15.9949 30.5931C15.4705 30.5885 14.9686 30.3794 14.5961 30.0102L14.5929 30.007L10.9958 26.41C10.6259 26.0298 10.421 25.519 10.4256 24.9886C10.4303 24.4582 10.6442 23.951 11.0207 23.5775L11.0292 23.5691L19.398 15.4627C20.2186 14.6366 20.2043 13.3117 19.4213 12.5601C19.0424 12.1985 18.5375 11.9988 18.0138 12.0035C17.4924 12.0081 16.9933 12.215 16.6215 12.5802L8.42246 20.9792C8.04889 21.3558 7.54175 21.5696 7.01134 21.5743C6.48094 21.5789 5.97014 21.374 5.59002 21.004L5.58033 20.9946L1.99203 17.4062C1.61801 17.0312 1.40796 16.5233 1.40796 15.9937C1.40796 15.465 1.61727 14.9579 1.99006 14.5831L1.99203 14.5812L10.2556 6.21759C11.2827 5.19107 12.5029 4.37809 13.8458 3.82552ZM18.0711 4.99813C16.883 4.9929 15.7056 5.22297 14.6069 5.67507C13.5091 6.12677 12.5115 6.79118 11.6716 7.63002L3.40797 15.9937L6.98599 19.5717C6.9882 19.5734 6.99095 19.5744 6.9938 19.5743C6.99682 19.5743 6.99972 19.5732 7.00198 19.5712L15.1969 11.1764L15.209 11.1642C15.9515 10.4293 16.9513 10.0129 17.996 10.0036C19.0406 9.99423 20.0477 10.3927 20.8032 11.1143L20.8046 11.1156C22.4441 12.6875 22.3811 15.308 20.8071 16.882L20.7958 16.8932L12.4285 24.9982C12.4266 25.0004 12.4256 25.0032 12.4256 25.0061C12.4255 25.009 12.4265 25.0117 12.4282 25.0139L16.0039 28.5896C16.0061 28.5917 16.0095 28.5932 16.0126 28.5932C16.0154 28.5932 16.0181 28.5923 16.0203 28.5906L24.3085 20.4522C27.8288 16.9285 27.9145 11.2097 24.4497 7.68883C23.6168 6.84158 22.624 6.16729 21.5293 5.70554C20.4345 5.24379 19.2592 5.00336 18.0711 4.99813Z" fill="#1100FF"/>
<path fill-rule="evenodd" clip-rule="evenodd" d="M15.143 19.5929C15.5335 19.2024 16.1667 19.2024 16.5572 19.5929L21.5322 24.5679C21.9227 24.9585 21.9227 25.5916 21.5322 25.9822C21.1417 26.3727 20.5085 26.3727 20.118 25.9822L15.143 21.0072C14.7525 20.6166 14.7525 19.9835 15.143 19.5929Z" fill="#1100FF"/>
<path fill-rule="evenodd" clip-rule="evenodd" d="M6.04378 10.492C6.4348 10.1019 7.06796 10.1027 7.458 10.4937L12.4205 15.4687C12.8105 15.8597 12.8097 16.4929 12.4187 16.8829C12.0277 17.273 11.3945 17.2722 11.0045 16.8812L6.042 11.9062C5.65197 11.5152 5.65277 10.882 6.04378 10.492Z" fill="#1100FF"/>
</svg>
