<svg width="32" height="32" viewBox="0 0 32 32" fill="none" xmlns="http://www.w3.org/2000/svg">
<path fill-rule="evenodd" clip-rule="evenodd" d="M12.9701 4.75746C13.1041 5.29325 12.7783 5.83619 12.2425 5.97013L5 7.78077V23.7192L11.7575 22.0299C12.2933 21.8959 12.8362 22.2217 12.9701 22.7575C13.1041 23.2933 12.7783 23.8362 12.2425 23.9701L4.24254 25.9701C3.94379 26.0448 3.6273 25.9777 3.38459 25.7882C3.14187 25.5987 3 25.3079 3 25V6.99999C3 6.54112 3.3123 6.14114 3.75746 6.02985L11.7575 4.02985C12.2933 3.8959 12.8362 4.22166 12.9701 4.75746Z" fill="#1100FF"/>
<path fill-rule="evenodd" clip-rule="evenodd" d="M11.4743 4.14935C11.7691 3.96714 12.1372 3.95058 12.4472 4.10557L20.4472 8.10557C20.786 8.27497 21 8.62123 21 9V27C21 27.3466 20.8205 27.6684 20.5257 27.8507C20.2309 28.0329 19.8628 28.0494 19.5528 27.8944L11.5528 23.8944C11.214 23.725 11 23.3788 11 23V5C11 4.65342 11.1795 4.33156 11.4743 4.14935ZM13 6.61804V22.382L19 25.382V9.61803L13 6.61804Z" fill="#1100FF"/>
<path fill-rule="evenodd" clip-rule="evenodd" d="M28.6156 6.2118C28.8584 6.40131 29.0002 6.69207 29.0002 7.00001V25C29.0002 25.4589 28.6879 25.8589 28.2428 25.9702L20.2428 27.9702C19.707 28.1041 19.164 27.7783 19.0301 27.2425C18.8961 26.7068 19.2219 26.1638 19.7577 26.0299L27.0002 24.2192V8.28079L20.2428 9.97015C19.707 10.1041 19.164 9.77834 19.0301 9.24254C18.8961 8.70675 19.2219 8.16382 19.7577 8.02987L27.7577 6.02987C28.0564 5.95518 28.3729 6.0223 28.6156 6.2118Z" fill="#1100FF"/>
</svg>
