<svg width="32" height="32" viewBox="0 0 32 32" fill="none" xmlns="http://www.w3.org/2000/svg">
<path fill-rule="evenodd" clip-rule="evenodd" d="M20.5002 15.9985C20.2186 15.9985 19.9401 16.058 19.6831 16.173C19.426 16.2881 19.1961 16.4562 19.0085 16.6662C18.6406 17.0781 18.0085 17.1138 17.5966 16.7459C17.1847 16.378 17.149 15.7459 17.5169 15.3339C17.8921 14.9138 18.3518 14.5777 18.8659 14.3476C19.38 14.1174 19.9369 13.9985 20.5002 13.9985C21.0635 13.9985 21.6204 14.1174 22.1345 14.3476C22.6486 14.5777 23.1083 14.9138 23.4835 15.3339C23.8514 15.7459 23.8157 16.378 23.4038 16.7459C22.9919 17.1138 22.3598 17.0781 21.9919 16.6662C21.8043 16.4562 21.5744 16.2881 21.3174 16.173C21.0603 16.058 20.7818 15.9985 20.5002 15.9985Z" fill="#1100FF"/>
<path fill-rule="evenodd" clip-rule="evenodd" d="M11.5002 15.9985C11.2186 15.9985 10.9401 16.058 10.6831 16.173C10.426 16.2881 10.1961 16.4562 10.0085 16.6662C9.64064 17.0781 9.00848 17.1138 8.59657 16.7459C8.18466 16.378 8.14898 15.7459 8.51687 15.3339C8.89208 14.9138 9.35179 14.5777 9.8659 14.3476C10.38 14.1174 10.9369 13.9985 11.5002 13.9985C12.0635 13.9985 12.6204 14.1174 13.1345 14.3476C13.6486 14.5777 14.1083 14.9138 14.4835 15.3339C14.8514 15.7459 14.8158 16.378 14.4038 16.7459C13.9919 17.1138 13.3598 17.0781 12.9919 16.6662C12.8043 16.4562 12.5744 16.2881 12.3174 16.173C12.0603 16.058 11.7818 15.9985 11.5002 15.9985Z" fill="#1100FF"/>
<path fill-rule="evenodd" clip-rule="evenodd" d="M11.8546 21.4468C12.1601 20.9867 12.7808 20.8615 13.2408 21.167C14.0586 21.7101 15.0184 21.9998 16.0001 21.9998C16.9818 21.9998 17.9416 21.7101 18.7594 21.167C19.2194 20.8615 19.8401 20.9867 20.1456 21.4468C20.4512 21.9069 20.3259 22.5275 19.8658 22.8331C18.7202 23.5939 17.3754 23.9998 16.0001 23.9998C14.6248 23.9998 13.28 23.5939 12.1344 22.8331C11.6743 22.5275 11.549 21.9069 11.8546 21.4468Z" fill="#1100FF"/>
<path fill-rule="evenodd" clip-rule="evenodd" d="M6.72987 4.18242C8.56522 4.88666 12.0674 6.00008 16.0001 6.00008C19.9328 6.00008 23.4349 4.88666 25.2703 4.18242C25.5705 4.06154 25.8958 4.01577 26.2178 4.04919C26.5443 4.08308 26.8574 4.19733 27.129 4.38172C27.4006 4.56611 27.6223 4.81491 27.7743 5.10589C27.9252 5.39482 28.0027 5.7164 28.0001 6.04229V13.0001C28.0001 17.595 26.7214 21.7984 24.6022 24.8807C22.4861 27.9586 19.4616 30.0001 16.0001 30.0001C12.5385 30.0001 9.51407 27.9586 7.39791 24.8807C5.27872 21.7984 4.00007 17.595 4.00007 13.0001V6.04239C3.99739 5.71647 4.07491 5.39485 4.22585 5.10589C4.37784 4.81491 4.59954 4.56611 4.87115 4.38172C5.14275 4.19732 5.4558 4.08308 5.78233 4.04919C6.10438 4.01577 6.42965 4.06154 6.72987 4.18242ZM6.00007 6.04452V13.0001C6.00007 17.2426 7.18391 21.0393 9.04597 23.7476C10.9111 26.4603 13.3866 28.0001 16.0001 28.0001C18.6135 28.0001 21.0891 26.4603 22.9542 23.7476C24.8162 21.0393 26.0001 17.2426 26.0001 13.0001V6.04452L25.9961 6.04608C24.0541 6.79203 20.2861 8.00008 16.0001 8.00008C11.714 8.00008 7.94603 6.79203 6.004 6.04608L6.00007 6.04452Z" fill="#1100FF"/>
</svg>
