<svg width="32" height="32" viewBox="0 0 32 32" fill="none" xmlns="http://www.w3.org/2000/svg">
<path fill-rule="evenodd" clip-rule="evenodd" d="M17.5966 14.2542C18.0085 13.8863 18.6406 13.922 19.0085 14.3339C19.1961 14.544 19.426 14.7121 19.6831 14.8271C19.9401 14.9422 20.2186 15.0017 20.5002 15.0017C20.7818 15.0017 21.0603 14.9422 21.3174 14.8271C21.5744 14.7121 21.8043 14.544 21.9919 14.3339C22.3598 13.922 22.9919 13.8863 23.4038 14.2542C23.8157 14.6221 23.8514 15.2543 23.4835 15.6662C23.1083 16.0863 22.6486 16.4224 22.1345 16.6526C21.6204 16.8827 21.0635 17.0017 20.5002 17.0017C19.9369 17.0017 19.38 16.8827 18.8659 16.6526C18.3518 16.4224 17.8921 16.0863 17.5169 15.6662C17.149 15.2543 17.1847 14.6221 17.5966 14.2542Z" fill="#1100FF"/>
<path fill-rule="evenodd" clip-rule="evenodd" d="M8.59657 14.2542C9.00848 13.8863 9.64064 13.922 10.0085 14.3339C10.1961 14.544 10.426 14.7121 10.6831 14.8271C10.9401 14.9422 11.2186 15.0017 11.5002 15.0017C11.7818 15.0017 12.0603 14.9422 12.3174 14.8271C12.5744 14.7121 12.8043 14.544 12.9919 14.3339C13.3598 13.922 13.9919 13.8863 14.4038 14.2542C14.8158 14.6221 14.8514 15.2543 14.4835 15.6662C14.1083 16.0863 13.6486 16.4224 13.1345 16.6526C12.6204 16.8827 12.0635 17.0017 11.5002 17.0017C10.9369 17.0017 10.38 16.8827 9.8659 16.6526C9.35179 16.4224 8.89208 16.0863 8.51687 15.6662C8.14898 15.2543 8.18466 14.6221 8.59657 14.2542Z" fill="#1100FF"/>
<path fill-rule="evenodd" clip-rule="evenodd" d="M12.1344 22.167C13.28 21.4062 14.6248 21.0003 16.0001 21.0003C17.3754 21.0003 18.7202 21.4062 19.8658 22.167C20.3259 22.4726 20.4512 23.0932 20.1456 23.5533C19.8401 24.0134 19.2194 24.1386 18.7594 23.8331C17.9416 23.29 16.9818 23.0003 16.0001 23.0003C15.0184 23.0003 14.0586 23.29 13.2408 23.8331C12.7808 24.1386 12.1601 24.0134 11.8546 23.5533C11.549 23.0932 11.6743 22.4726 12.1344 22.167Z" fill="#1100FF"/>
<path fill-rule="evenodd" clip-rule="evenodd" d="M6.72987 4.18242C8.56522 4.88666 12.0674 6.00008 16.0001 6.00008C19.9328 6.00008 23.4349 4.88666 25.2703 4.18242C25.5705 4.06154 25.8958 4.01577 26.2178 4.04919C26.5443 4.08308 26.8574 4.19733 27.129 4.38172C27.4006 4.56611 27.6223 4.81491 27.7743 5.10589C27.9252 5.39482 28.0027 5.7164 28.0001 6.04229V13.0001C28.0001 17.595 26.7214 21.7984 24.6022 24.8807C22.4861 27.9586 19.4616 30.0001 16.0001 30.0001C12.5385 30.0001 9.51407 27.9586 7.39791 24.8807C5.27872 21.7984 4.00007 17.595 4.00007 13.0001V6.04239C3.99739 5.71647 4.07491 5.39485 4.22585 5.10589C4.37784 4.81491 4.59954 4.56611 4.87115 4.38172C5.14275 4.19732 5.4558 4.08308 5.78233 4.04919C6.10438 4.01577 6.42965 4.06154 6.72987 4.18242ZM6.00007 6.04452V13.0001C6.00007 17.2426 7.18391 21.0393 9.04597 23.7476C10.9111 26.4603 13.3866 28.0001 16.0001 28.0001C18.6135 28.0001 21.0891 26.4603 22.9542 23.7476C24.8162 21.0393 26.0001 17.2426 26.0001 13.0001V6.04452L25.9961 6.04608C24.0541 6.79203 20.2861 8.00008 16.0001 8.00008C11.714 8.00008 7.94603 6.79203 6.004 6.04608L6.00007 6.04452Z" fill="#1100FF"/>
</svg>
