<svg width="32" height="32" viewBox="0 0 32 32" fill="none" xmlns="http://www.w3.org/2000/svg">
<path d="M27.555 11.4912L17.3675 8.5212C17.31 8.4987 17.25 8.4812 17.1888 8.4687L5.55 5.07745C4.49 4.7737 3.38 5.38995 3.0775 6.44995C3.02625 6.62995 3 6.81495 3 7.00245V24.3249C3 25.4274 3.895 26.3262 4.9975 26.3274H5C5.185 26.3274 5.37 26.3012 5.555 26.2487L16 23.2037V24.6637C16 25.7662 16.8975 26.6637 18 26.6637H22C23.1025 26.6637 24 25.7662 24 24.6637V20.8724L27.55 19.8374C28.405 19.5924 29.0012 18.8012 29 17.9137V13.4149C29 12.5262 28.405 11.7349 27.555 11.4912ZM5 7.0012L4.995 6.9987L16 10.2074V21.1212L5 24.3274V7.0012ZM22 24.6637H18V22.6212L22 21.4549V24.6637ZM26.995 17.9162L18 20.5374V10.7899L27 13.4137L26.995 17.9162Z" fill="#1100FF"/>
</svg>
