<svg width="32" height="32" viewBox="0 0 32 32" fill="none" xmlns="http://www.w3.org/2000/svg">
<path fill-rule="evenodd" clip-rule="evenodd" d="M4.15574 3.46983C4.4986 3.31018 4.87969 3.25101 5.2548 3.2992C5.62992 3.34738 5.98369 3.50094 6.27506 3.74205L6.27974 3.74592C9.42209 6.37853 12.6246 7.6928 15.0375 8.34911C16.2438 8.67723 17.2502 8.84011 17.9482 8.92088C18.2971 8.96125 18.5683 8.98104 18.7483 8.99073C18.8383 8.99557 18.9054 8.99789 18.948 8.999C18.9692 8.99955 18.9844 8.9998 18.9931 8.99991L19.0008 9L24 8.99997C25.5913 8.99997 27.1175 9.63212 28.2427 10.7573C29.3679 11.8826 30 13.4087 30 15C30 16.5913 29.3679 18.1174 28.2427 19.2426C27.3064 20.1788 26.0927 20.7738 24.7947 20.9472L23.3204 26.8667L23.3198 26.8692C23.2416 27.1798 23.0899 27.4671 22.8775 27.7069C22.6651 27.9467 22.3982 28.132 22.0993 28.2471C21.8004 28.3623 21.4782 28.404 21.1598 28.3686C20.8423 28.3334 20.5378 28.2226 20.2718 28.0455L20.2698 28.0442L18.9007 27.1356C18.6224 26.9538 18.3941 26.7051 18.2368 26.4123C18.0793 26.1192 17.9979 25.7913 18.0001 25.4587V21.0732C17.983 21.0751 17.9657 21.0771 17.9482 21.0791C17.2501 21.1599 16.2438 21.3227 15.0375 21.6509C12.6246 22.3072 9.42207 23.6214 6.27973 26.254L6.27507 26.2579C5.9837 26.499 5.62993 26.6526 5.2548 26.7008C4.87968 26.7489 4.49859 26.6898 4.15574 26.5301C3.81289 26.3705 3.52234 26.1169 3.31778 25.7988C3.11323 25.4807 3.00306 25.1111 3.00006 24.7329L3 24.725L3.00003 5.26705C3.00303 4.88886 3.11323 4.51928 3.31778 4.20117C3.52234 3.88306 3.81289 3.62948 4.15574 3.46983ZM18.0001 19.062C17.9114 19.0708 17.8174 19.0809 17.7183 19.0923C16.9343 19.1831 15.8281 19.3631 14.5126 19.721C11.883 20.4362 8.40618 21.8647 5.00003 24.717V5.28295C8.40618 8.13521 11.883 9.56374 14.5126 10.279C15.8281 10.6368 16.9343 10.8169 17.7183 10.9076C17.8174 10.9191 17.9114 10.9291 18.0001 10.9379V19.062ZM20.0001 11V19L24.0001 19C25.0609 19 26.0783 18.5786 26.8285 17.8284C27.5786 17.0783 28 16.0608 28 15C28 13.9391 27.5786 12.9217 26.8285 12.1715C26.0783 11.4214 25.0609 11 24 11L20.0001 11ZM20.0001 21L22.7205 21L21.3803 26.3808L21.378 26.3793L20.003 25.4668L20.0001 25.4648V21Z" fill="#1100FF"/>
</svg>
