<svg width="32" height="32" viewBox="0 0 32 32" fill="none" xmlns="http://www.w3.org/2000/svg">
<path fill-rule="evenodd" clip-rule="evenodd" d="M16.6745 5.04692C14.0033 4.87951 11.3628 5.69289 9.24874 7.33436C7.1347 8.97583 5.6925 11.3325 5.1929 13.9619C4.6933 16.5914 5.17065 19.3128 6.53534 21.6152C6.67509 21.851 6.71194 22.1338 6.63727 22.3975L5.46607 26.5341L9.60267 25.3629L9.8751 26.3251L10.385 25.4649C12.6874 26.8295 15.4088 27.3069 18.0382 26.8073C20.6677 26.3077 23.0244 24.8655 24.6658 22.7515C26.3073 20.6374 27.1207 17.9969 26.9533 15.3257C26.7859 12.6544 25.6492 10.1361 23.7566 8.24357C21.8641 6.35101 19.3458 5.21433 16.6745 5.04692ZM9.74421 27.4015C12.3827 28.8479 15.4466 29.3355 18.4116 28.7721C21.5196 28.1816 24.3053 26.4769 26.2455 23.978C28.1858 21.4792 29.1472 18.3581 28.9494 15.2006C28.7515 12.0431 27.4079 9.06641 25.1708 6.82936C22.9338 4.5923 19.9571 3.24871 16.7996 3.05084C13.6421 2.85296 10.521 3.81439 8.02216 5.75465C5.52331 7.69491 3.8186 10.4805 3.22806 13.5886C2.6647 16.5536 3.15225 19.6175 4.59873 22.256L3.53889 25.9993C3.44016 26.34 3.43445 26.7011 3.52239 27.0448C3.61075 27.3903 3.7904 27.7056 4.04251 27.9577C4.29463 28.2098 4.60993 28.3894 4.95535 28.4778C5.29915 28.5657 5.66019 28.56 6.00099 28.4613L9.74421 27.4015Z" fill="#1100FF"/>
<path fill-rule="evenodd" clip-rule="evenodd" d="M13.2929 13.2929C13.6834 12.9024 14.3166 12.9024 14.7071 13.2929L18 16.5858L21.2929 13.2929C21.6834 12.9024 22.3166 12.9024 22.7071 13.2929C23.0976 13.6834 23.0976 14.3166 22.7071 14.7071L18.7071 18.7071C18.3166 19.0976 17.6834 19.0976 17.2929 18.7071L14 15.4142L10.7071 18.7071C10.3166 19.0976 9.68342 19.0976 9.29289 18.7071C8.90237 18.3166 8.90237 17.6834 9.29289 17.2929L13.2929 13.2929Z" fill="#1100FF"/>
</svg>
