<svg width="32" height="32" viewBox="0 0 32 32" fill="none" xmlns="http://www.w3.org/2000/svg">
<path fill-rule="evenodd" clip-rule="evenodd" d="M6.93924 16.0061C7.48814 15.945 7.98264 16.3404 8.04375 16.8893C8.20691 18.3548 8.77194 19.7467 9.67644 20.9113C10.5809 22.0759 11.7897 22.9678 13.1692 23.4886C14.5488 24.0093 16.0454 24.1387 17.4939 23.8624C18.9423 23.586 20.2862 22.9147 21.3771 21.9226C21.7857 21.5511 22.4181 21.5811 22.7897 21.9897C23.1613 22.3983 23.1313 23.0307 22.7227 23.4023C21.3591 24.6424 19.6792 25.4815 17.8687 25.8269C16.0581 26.1724 14.1873 26.0107 12.4629 25.3597C10.7385 24.7087 9.22751 23.5938 8.09689 22.1381C6.96627 20.6824 6.25999 18.9425 6.05603 17.1106C5.99492 16.5617 6.39035 16.0672 6.93924 16.0061Z" fill="#1100FF"/>
<path fill-rule="evenodd" clip-rule="evenodd" d="M11 9.5C11.5523 9.5 12 9.94772 12 10.5V16C12 17.0609 12.4214 18.0783 13.1716 18.8284C13.9217 19.5786 14.9391 20 16 20V21L16.0038 20C16.9968 20.0038 17.9548 19.6334 18.687 18.9626C19.0942 18.5896 19.7268 18.6173 20.0999 19.0245C20.4729 19.4317 20.4452 20.0643 20.038 20.4374C18.9355 21.4473 17.4932 22.0052 15.9981 22C14.4075 21.9995 12.8821 21.3674 11.7574 20.2426C10.6321 19.1174 10 17.5913 10 16V10.5C10 9.94772 10.4477 9.5 11 9.5Z" fill="#1100FF"/>
<path fill-rule="evenodd" clip-rule="evenodd" d="M16 24C16.5523 24 17 24.4477 17 25V29C17 29.5523 16.5523 30 16 30C15.4477 30 15 29.5523 15 29V25C15 24.4477 15.4477 24 16 24Z" fill="#1100FF"/>
<path fill-rule="evenodd" clip-rule="evenodd" d="M5.32733 4.26007C5.73599 3.88856 6.36844 3.91868 6.73995 4.32733L26.7399 26.3273C27.1115 26.736 27.0813 27.3684 26.6727 27.7399C26.264 28.1115 25.6316 28.0813 25.2601 27.6727L5.26007 5.67268C4.88856 5.26402 4.91868 4.63157 5.32733 4.26007Z" fill="#1100FF"/>
<path fill-rule="evenodd" clip-rule="evenodd" d="M15.9984 4.00001C15.3173 3.99885 14.6472 4.17276 14.0526 4.50505C13.458 4.83734 12.9587 5.31687 12.6027 5.89762C12.3141 6.36848 11.6984 6.51621 11.2275 6.22758C10.7567 5.93895 10.6089 5.32326 10.8976 4.8524C11.4327 3.97944 12.1831 3.25865 13.0769 2.75916C13.9708 2.25968 14.9779 1.99827 16.0018 2.00001L16.0001 3.00001V2.00001L16.0018 2.00001C17.5925 2.00046 19.118 2.63255 20.2428 3.75737C21.368 4.88258 22.0001 6.40871 22.0001 8.00001V15.55C22.0001 16.1023 21.5524 16.55 21.0001 16.55C20.4479 16.55 20.0001 16.1023 20.0001 15.55V8.00001C20.0001 6.93914 19.5787 5.92173 18.8286 5.17158C18.0784 4.42143 17.061 4.00001 16.0001 4.00001V3.00001L15.9984 4.00001Z" fill="#1100FF"/>
<path fill-rule="evenodd" clip-rule="evenodd" d="M25.0623 16.0063C25.6111 16.0683 26.0057 16.5635 25.9436 17.1123C25.8458 17.9779 25.6358 18.8272 25.319 19.6387C25.1181 20.1531 24.5382 20.4073 24.0238 20.2065C23.5093 20.0056 23.2551 19.4257 23.456 18.9113C23.7097 18.2613 23.8779 17.581 23.9563 16.8877C24.0183 16.3389 24.5135 15.9443 25.0623 16.0063Z" fill="#1100FF"/>
</svg>
