<svg width="32" height="32" viewBox="0 0 32 32" fill="none" xmlns="http://www.w3.org/2000/svg">
<path fill-rule="evenodd" clip-rule="evenodd" d="M3 10C3 8.89543 3.89543 8 5 8H18C19.1046 8 20 8.89543 20 10V22C20 23.1046 19.1046 24 18 24H5C3.89543 24 3 23.1046 3 22V10ZM18 10H5V22H18V10Z" fill="#1100FF"/>
<path fill-rule="evenodd" clip-rule="evenodd" d="M18.0001 11C18.0001 10.4477 18.4478 10 19.0001 10H23.0001C23.5305 10 24.0393 10.2107 24.4143 10.5858C24.7894 10.9609 25.0001 11.4696 25.0001 12V21C25.0001 23.1217 24.1573 25.1566 22.657 26.6569C21.1567 28.1571 19.1218 29 17.0001 29C15.2774 28.9988 13.6003 28.4424 12.2187 27.4133C10.8372 26.3842 9.82408 24.9372 9.32968 23.287C9.17118 22.7579 9.47158 22.2006 10.0006 22.0421C10.5297 21.8836 11.0871 22.184 11.2456 22.713C11.6165 23.9513 12.3768 25.0371 13.4135 25.8093C14.4501 26.5815 15.7081 26.9991 17.0008 27M17.0008 27C18.5918 26.9998 20.1177 26.3677 21.2428 25.2426C22.368 24.1174 23.0001 22.5913 23.0001 21L23.0001 12H19.0001C18.4478 12 18.0001 11.5523 18.0001 11" fill="#1100FF"/>
<path fill-rule="evenodd" clip-rule="evenodd" d="M8.25 13C8.25 12.4477 8.69772 12 9.25 12H13.75C14.3023 12 14.75 12.4477 14.75 13C14.75 13.5523 14.3023 14 13.75 14H9.25C8.69772 14 8.25 13.5523 8.25 13Z" fill="#1100FF"/>
<path fill-rule="evenodd" clip-rule="evenodd" d="M11.5 12C12.0523 12 12.5 12.4477 12.5 13V19C12.5 19.5523 12.0523 20 11.5 20C10.9477 20 10.5 19.5523 10.5 19V13C10.5 12.4477 10.9477 12 11.5 12Z" fill="#1100FF"/>
<path fill-rule="evenodd" clip-rule="evenodd" d="M17.7764 4.10011C17.2031 3.94664 16.5972 3.96662 16.0354 4.15753C15.4735 4.34845 14.9808 4.70172 14.6197 5.17265C14.2587 5.64359 14.0454 6.21104 14.0068 6.80322C13.9683 7.3954 14.1062 7.9857 14.4032 8.49947C14.6796 8.97761 14.5161 9.58929 14.038 9.86569C13.5598 10.1421 12.9481 9.97856 12.6717 9.50041C12.1767 8.64414 11.9468 7.6603 12.011 6.67333C12.0753 5.68636 12.4308 4.74062 13.0326 3.95572C13.6344 3.17083 14.4555 2.58205 15.3919 2.26386C16.3284 1.94567 17.3382 1.91236 18.2936 2.16816C19.249 2.42395 20.1071 2.95735 20.7593 3.70089C21.4115 4.44443 21.8286 5.36469 21.9577 6.34528C22.0868 7.32587 21.9222 8.32273 21.4847 9.20976C21.0472 10.0968 20.3565 10.8341 19.4999 11.3285C19.0215 11.6046 18.41 11.4406 18.1339 10.9623C17.8578 10.484 18.0218 9.87241 18.5001 9.59634C19.0141 9.2997 19.4285 8.85729 19.691 8.32507C19.9535 7.79286 20.0523 7.19474 19.9748 6.60639C19.8973 6.01803 19.6471 5.46588 19.2558 5.01975C18.8645 4.57363 18.3496 4.25359 17.7764 4.10011Z" fill="#1100FF"/>
<path fill-rule="evenodd" clip-rule="evenodd" d="M24.1427 5.68437C23.6989 5.49129 23.2047 5.44645 22.7334 5.55652C22.2621 5.66658 21.8388 5.92568 21.5264 6.29535C21.17 6.7172 20.539 6.77021 20.1172 6.41375C19.6953 6.05729 19.6423 5.42635 19.9988 5.0045C20.5888 4.30623 21.3883 3.81682 22.2785 3.60892C23.1687 3.40102 24.1023 3.48571 24.9406 3.85042C25.7788 4.21512 26.4772 4.84041 26.9319 5.63346C27.3867 6.42651 27.5736 7.34506 27.4649 8.25276C27.3562 9.16045 26.9578 10.0089 26.3287 10.6722C25.6996 11.3355 24.8734 11.7783 23.9727 11.9348C23.072 12.0913 22.1449 11.9533 21.3289 11.5411C20.5129 11.1289 19.8516 10.4646 19.443 9.64681C19.1962 9.15274 19.3967 8.55214 19.8907 8.30534C20.3848 8.05853 20.9854 8.25898 21.2322 8.75305C21.4485 9.18601 21.7986 9.53769 22.2306 9.7559C22.6626 9.97411 23.1535 10.0472 23.6303 9.96434C24.1071 9.88147 24.5445 9.64707 24.8776 9.29591C25.2106 8.94475 25.4216 8.49556 25.4791 8.01502C25.5366 7.53447 25.4377 7.04818 25.1969 6.62833C24.9562 6.20848 24.5865 5.87745 24.1427 5.68437Z" fill="#1100FF"/>
<path fill-rule="evenodd" clip-rule="evenodd" d="M22.9999 11C22.9999 10.4477 23.4476 10 23.9999 10H27.4124C27.8334 10 28.2372 10.1673 28.5349 10.465C28.8326 10.7627 28.9999 11.1665 28.9999 11.5875V19C28.9999 20.3261 28.4731 21.5979 27.5354 22.5355C26.5978 23.4732 25.326 24 23.9999 24H23.7124C23.1601 24 22.7124 23.5523 22.7124 23C22.7124 22.4477 23.1601 22 23.7124 22H23.9999C24.7956 22 25.5586 21.6839 26.1212 21.1213C26.6838 20.5587 26.9999 19.7956 26.9999 19V12H23.9999C23.4476 12 22.9999 11.5523 22.9999 11Z" fill="#1100FF"/>
</svg>
