<svg width="32" height="32" viewBox="0 0 32 32" fill="none" xmlns="http://www.w3.org/2000/svg">
<path fill-rule="evenodd" clip-rule="evenodd" d="M13.6329 4.2062C13.888 4.46176 13.9855 4.83497 13.888 5.18262C13.3854 6.97505 13.3689 8.86896 13.8403 10.6699C14.3117 12.4708 15.2539 14.1137 16.5702 15.4301C17.8865 16.7464 19.5295 17.6886 21.3304 18.16C23.1313 18.6314 25.0252 18.6149 26.8176 18.1123L27.0877 19.0751L28.051 19.3433C27.4654 21.4473 26.3388 23.3611 24.7833 24.8942C23.2279 26.4272 21.2979 27.526 19.1856 28.081C17.0734 28.6361 14.8526 28.6281 12.7444 28.0577C10.6362 27.4874 8.71425 26.3746 7.16995 24.8303C5.62566 23.286 4.51292 21.3641 3.94257 19.2559C3.37222 17.1477 3.36417 14.9269 3.91922 12.8146C4.47427 10.7024 5.57305 8.7724 7.10612 7.21695C8.63918 5.6615 10.553 4.53486 12.657 3.94924C13.0049 3.85242 13.3779 3.95064 13.6329 4.2062ZM25.5361 20.4052C23.9655 20.6017 22.3661 20.4984 20.824 20.0948C18.6797 19.5335 16.7234 18.4116 15.156 16.8443C13.5887 15.2769 12.4667 13.3206 11.9055 11.1763C11.5018 9.63416 11.3986 8.03475 11.5951 6.4642C10.4567 6.99159 9.41771 7.72076 8.53054 8.62088C7.24277 9.92745 6.3198 11.5486 5.85355 13.3229C5.38731 15.0972 5.39407 16.9627 5.87316 18.7336C6.35226 20.5044 7.28696 22.1189 8.58417 23.4161C9.88138 24.7133 11.4958 25.648 13.2667 26.1271C15.0376 26.6062 16.903 26.613 18.6773 26.1467C20.4516 25.6805 22.0728 24.7575 23.3794 23.4697C24.2795 22.5826 25.0087 21.5436 25.5361 20.4052Z" fill="#1100FF"/>
</svg>
