<svg width="32" height="32" viewBox="0 0 32 32" fill="none" xmlns="http://www.w3.org/2000/svg">
<path fill-rule="evenodd" clip-rule="evenodd" d="M20.5 5C19.6716 5 19 5.67157 19 6.5C19 7.32843 19.6716 8 20.5 8C21.3284 8 22 7.32843 22 6.5C22 5.67157 21.3284 5 20.5 5ZM17 6.5C17 4.567 18.567 3 20.5 3C22.433 3 24 4.567 24 6.5C24 8.433 22.433 10 20.5 10C18.567 10 17 8.433 17 6.5Z" fill="#1100FF"/>
<path fill-rule="evenodd" clip-rule="evenodd" d="M11 9.98022C10.9979 9.98022 10.9958 9.98077 10.9939 9.98181C10.9926 9.98253 10.9915 9.98347 10.9905 9.98458L2.7482 23.9999H19.2518L11.0095 9.98458C11.0085 9.98347 11.0074 9.98253 11.0061 9.98181C11.0042 9.98077 11.0021 9.98022 11 9.98022ZM10.018 8.23609C10.3181 8.06831 10.6562 7.98022 11 7.98022C11.3438 7.98022 11.6819 8.06831 11.982 8.23609C12.2821 8.40386 12.5343 8.64572 12.7144 8.93861L12.7245 8.95546L21.862 24.493C22.0438 24.8022 22.0461 25.1851 21.868 25.4964C21.6899 25.8078 21.3587 25.9999 21 25.9999H1C0.641302 25.9999 0.310079 25.8078 0.131977 25.4964C-0.0461256 25.1851 -0.0438225 24.8022 0.138012 24.493L9.27551 8.95546L9.28565 8.93861C9.46574 8.64572 9.71786 8.40386 10.018 8.23609Z" fill="#1100FF"/>
<path fill-rule="evenodd" clip-rule="evenodd" d="M5.2998 16C5.2998 15.4477 5.74752 15 6.2998 15H15.6998C16.2521 15 16.6998 15.4477 16.6998 16C16.6998 16.5523 16.2521 17 15.6998 17H6.2998C5.74752 17 5.2998 16.5523 5.2998 16Z" fill="#1100FF"/>
<path fill-rule="evenodd" clip-rule="evenodd" d="M22.9999 13.4678C22.9977 13.4678 22.9956 13.4683 22.9938 13.4694C22.9924 13.4701 22.9912 13.4711 22.9902 13.4723L18.8731 20.434C18.592 20.9094 17.9787 21.0668 17.5033 20.7857C17.0279 20.5046 16.8705 19.8913 17.1516 19.4159L21.2766 12.4409L21.2855 12.4262C21.4656 12.1333 21.7177 11.8914 22.0178 11.7236C22.3179 11.5559 22.656 11.4678 22.9999 11.4678C23.3437 11.4678 23.6818 11.5559 23.9819 11.7236C24.282 11.8914 24.5341 12.1333 24.7142 12.4262L24.7228 12.4403L31.8603 24.4903C32.0433 24.7994 32.0466 25.183 31.8687 25.4951C31.6908 25.8072 31.3591 25.9999 30.9999 25.9999L21 25.9999C20.4477 25.9999 19.9999 25.5522 19.9999 24.9999C19.9999 24.4477 20.4476 23.9999 20.9999 23.9999H29.2453L23.0096 13.4724C23.0086 13.4712 23.0073 13.4701 23.006 13.4694C23.0041 13.4683 23.002 13.4678 22.9999 13.4678Z" fill="#1100FF"/>
</svg>
