<svg width="32" height="32" viewBox="0 0 32 32" fill="none" xmlns="http://www.w3.org/2000/svg">
<path fill-rule="evenodd" clip-rule="evenodd" d="M11 19C8.79086 19 7 20.7909 7 23C7 25.2091 8.79086 27 11 27C13.2091 27 15 25.2091 15 23C15 20.7909 13.2091 19 11 19ZM5 23C5 19.6863 7.68629 17 11 17C14.3137 17 17 19.6863 17 23C17 26.3137 14.3137 29 11 29C7.68629 29 5 26.3137 5 23Z" fill="#1100FF"/>
<path fill-rule="evenodd" clip-rule="evenodd" d="M15.4028 4.19772C15.6565 4.00902 15.9843 3.95135 16.2871 4.04218L26.2871 7.04218C26.7101 7.16908 26.9998 7.5584 26.9998 8.00001V14C26.9998 14.3161 26.8503 14.6136 26.5967 14.8023C26.3431 14.991 26.0152 15.0487 25.7124 14.9578L16.9998 12.344L17 23C17 23.5523 16.5521 24 15.9998 24C15.4475 24 15 23.5523 15 23L14.9998 11.0233C14.9994 11.0081 14.9994 10.9928 14.9998 10.9775V5.00001C14.9998 4.6839 15.1492 4.38641 15.4028 4.19772ZM16.9998 10.256L24.9998 12.656V8.74404L16.9998 6.34404V10.256Z" fill="#1100FF"/>
</svg>
