<svg width="32" height="32" viewBox="0 0 32 32" fill="none" xmlns="http://www.w3.org/2000/svg">
<path fill-rule="evenodd" clip-rule="evenodd" d="M6.27916 3.73063L6.28179 3.73155L27.4367 11.0539L27.4382 11.0544C29.2854 11.6885 29.1987 14.2872 27.372 14.8549L27.37 14.8555L17.8075 17.8055L17.8019 17.8072L14.8559 27.3694L14.8552 27.3718C14.2874 29.1985 11.6887 29.2852 11.0547 27.438L11.0542 27.4365L3.73179 6.28155L3.73087 6.27892C3.6067 5.92405 3.58507 5.54134 3.66849 5.1747C3.75212 4.80716 3.9379 4.47073 4.20444 4.20419C4.47097 3.93766 4.8074 3.75187 5.17494 3.66825C5.54158 3.58483 5.92429 3.60646 6.27916 3.73063ZM4.67522 5.94998L5.62021 5.62289L12.944 26.782L12.9451 26.7789L15.8919 17.2141C15.9848 16.8955 16.158 16.606 16.3951 16.3734C16.6293 16.1436 16.9181 15.9771 17.2341 15.8894L26.7784 12.945L26.7822 12.9438L5.61865 5.61842L4.67522 5.94998Z" fill="#1100FF"/>
</svg>
