<svg width="32" height="32" viewBox="0 0 32 32" fill="none" xmlns="http://www.w3.org/2000/svg">
<path fill-rule="evenodd" clip-rule="evenodd" d="M23.7071 8.29289C24.0976 8.68342 24.0976 9.31658 23.7071 9.70711L21.7071 11.7071C21.3166 12.0976 20.6834 12.0976 20.2929 11.7071C19.9024 11.3166 19.9024 10.6834 20.2929 10.2929L22.2929 8.29289C22.6834 7.90237 23.3166 7.90237 23.7071 8.29289Z" fill="#1100FF"/>
<path fill-rule="evenodd" clip-rule="evenodd" d="M19.5035 5.43392C20.4547 4.57212 21.7008 4.10909 22.9839 4.14068C24.267 4.17227 25.4888 4.69607 26.3963 5.60363C27.3039 6.51119 27.8277 7.733 27.8593 9.01609C27.8909 10.2992 27.4278 11.5453 26.566 12.4964C26.555 12.5086 26.5437 12.5205 26.5321 12.5321L23.5321 15.5321C23.386 15.6782 23.1983 15.7754 22.9947 15.8105C21.4713 16.0727 19.6307 16.9053 17.6756 18.0802C15.7374 19.2449 13.7613 20.7 11.9797 22.1324C10.2005 23.5629 8.62984 24.9589 7.50341 25.9979C6.94061 26.517 6.48973 26.9461 6.18034 27.2447C6.02567 27.3939 5.90642 27.5104 5.8263 27.5892C5.78624 27.6286 5.75597 27.6585 5.73595 27.6784L5.70982 27.7044L5.7084 27.7058L5.70741 27.7068C5.31689 28.0973 4.68342 28.0976 4.29289 27.7071C3.90237 27.3165 3.90237 26.6834 4.29289 26.2929L4.29561 26.2901L4.32158 26.264C4.34144 26.244 4.37137 26.2137 4.41076 26.1737C4.48954 26.0935 4.60608 25.9743 4.75532 25.8196C5.05384 25.5102 5.48293 25.0594 6.00206 24.4966C7.04111 23.3701 8.43709 21.7994 9.86752 20.0203C11.2999 18.2386 12.7551 16.2626 13.9198 14.3243C15.0947 12.3692 15.9272 10.5287 16.1895 9.0053C16.2246 8.8017 16.3218 8.61395 16.4679 8.46786L19.4679 5.46786C19.4795 5.45626 19.4914 5.44494 19.5035 5.43392ZM13.6596 18.3404C14.6382 17.6397 15.643 16.9683 16.6455 16.3659C18.5586 15.2162 20.5314 14.2758 22.3354 13.9004L25.0992 11.1365C25.6065 10.568 25.8787 9.82756 25.8599 9.06532C25.8409 8.29546 25.5267 7.56238 24.9821 7.01784C24.4376 6.47331 23.7045 6.15903 22.9346 6.14007C22.1724 6.1213 21.4319 6.39347 20.8634 6.90074L18.0996 9.66458C17.7242 11.4686 16.7838 13.4413 15.6341 15.3545C15.0317 16.357 14.3602 17.3618 13.6596 18.3404Z" fill="#1100FF"/>
</svg>
