<svg width="32" height="32" viewBox="0 0 32 32" fill="none" xmlns="http://www.w3.org/2000/svg">
<path d="M28 19.5875V6C28 4.8975 27.1025 4 26 4H6C4.8975 4 4 4.8975 4 6V26C4 27.1025 4.8975 28 6 28H19.5912C19.8637 28 20.1262 27.945 20.37 27.8412C20.41 27.825 20.4475 27.8075 20.485 27.7875C20.67 27.6937 20.8425 27.5712 20.995 27.42L27.4225 20.9925C27.5737 20.84 27.6962 20.6675 27.7887 20.4825C27.8087 20.4475 27.825 20.41 27.84 20.3725C27.945 20.1275 28.0012 19.8612 28 19.5875ZM6 6H26L26.005 19H20C19.4475 19 19 19.4475 19 20V26H6V6ZM24.5862 21L21 24.5862V21H24.5862Z" fill="#1100FF"/>
</svg>
