<svg width="32" height="32" viewBox="0 0 32 32" fill="none" xmlns="http://www.w3.org/2000/svg">
<path fill-rule="evenodd" clip-rule="evenodd" d="M18.5129 3.14137C18.9871 3.42454 19.1419 4.03849 18.8587 4.51265L10.7962 18.0126C10.513 18.4868 9.89907 18.6416 9.42491 18.3585C8.95075 18.0753 8.79593 17.4613 9.07911 16.9872L17.1416 3.48717C17.4248 3.01301 18.0387 2.85819 18.5129 3.14137Z" fill="#1100FF"/>
<path fill-rule="evenodd" clip-rule="evenodd" d="M16 15C12.6863 15 10 17.6863 10 21C10 24.3137 12.6863 27 16 27C19.3137 27 22 24.3137 22 21C22 17.6863 19.3137 15 16 15ZM8 21C8 16.5817 11.5817 13 16 13C20.4183 13 24 16.5817 24 21C24 25.4183 20.4183 29 16 29C11.5817 29 8 25.4183 8 21Z" fill="#1100FF"/>
</svg>
