<svg width="32" height="32" viewBox="0 0 32 32" fill="none" xmlns="http://www.w3.org/2000/svg">
<path fill-rule="evenodd" clip-rule="evenodd" d="M16 5C9.92487 5 5 9.92487 5 16C5 22.0751 9.92487 27 16 27C22.0751 27 27 22.0751 27 16C27 9.92487 22.0751 5 16 5ZM3 16C3 8.8203 8.8203 3 16 3C23.1797 3 29 8.8203 29 16C29 23.1797 23.1797 29 16 29C8.8203 29 3 23.1797 3 16Z" fill="#1100FF"/>
<path fill-rule="evenodd" clip-rule="evenodd" d="M17.5119 8.64102C17.9863 8.92387 18.1415 9.53771 17.8587 10.0121L13.8337 16.7621C13.5508 17.2364 12.937 17.3917 12.4626 17.1088C11.9883 16.8259 11.833 16.2121 12.1159 15.7378L16.1409 8.98775C16.4237 8.5134 17.0376 8.35816 17.5119 8.64102Z" fill="#1100FF"/>
<path fill-rule="evenodd" clip-rule="evenodd" d="M16 15.5C14.6193 15.5 13.5 16.6193 13.5 18C13.5 19.3807 14.6193 20.5 16 20.5C17.3807 20.5 18.5 19.3807 18.5 18C18.5 16.6193 17.3807 15.5 16 15.5ZM11.5 18C11.5 15.5147 13.5147 13.5 16 13.5C18.4853 13.5 20.5 15.5147 20.5 18C20.5 20.4853 18.4853 22.5 16 22.5C13.5147 22.5 11.5 20.4853 11.5 18Z" fill="#1100FF"/>
</svg>
