<svg width="32" height="32" viewBox="0 0 32 32" fill="none" xmlns="http://www.w3.org/2000/svg">
<path fill-rule="evenodd" clip-rule="evenodd" d="M22.5762 13.6421C23.0499 13.9259 23.2039 14.54 22.9201 15.0138L14.8326 28.5138C14.5488 28.9876 13.9346 29.1416 13.4608 28.8577C12.9871 28.5739 12.8331 27.9598 13.1169 27.486L21.2044 13.986C21.4882 13.5122 22.1024 13.3582 22.5762 13.6421Z" fill="#1100FF"/>
<path fill-rule="evenodd" clip-rule="evenodd" d="M16 5C12.6863 5 10 7.68629 10 11C10 14.3137 12.6863 17 16 17C19.3137 17 22 14.3137 22 11C22 7.68629 19.3137 5 16 5ZM8 11C8 6.58172 11.5817 3 16 3C20.4183 3 24 6.58172 24 11C24 15.4183 20.4183 19 16 19C11.5817 19 8 15.4183 8 11Z" fill="#1100FF"/>
</svg>
