<svg width="32" height="32" viewBox="0 0 32 32" fill="none" xmlns="http://www.w3.org/2000/svg">
<path d="M21.9754 16.2381C21.3555 15.6694 20.6656 15.1982 19.927 14.8308C20.3606 14.5696 20.7756 14.2634 21.1643 13.9097C22.5391 12.6411 23.3352 10.8401 23.3477 8.97032V8.95907C23.3402 7.08432 22.5429 5.28206 21.163 4.01598C19.752 2.71615 17.9185 2 16 2C14.0815 2 12.2467 2.71615 10.8394 4.01223C10.6869 4.15096 10.5407 4.29844 10.402 4.44967C9.19589 5.77199 8.57847 7.48427 8.66096 9.27278C8.74345 11.06 9.5171 12.7086 10.8407 13.9147C11.2281 14.2671 11.6406 14.5721 12.073 14.832C11.3356 15.1982 10.6469 15.6682 10.0283 16.2356C9.8508 16.3968 9.67958 16.5693 9.51835 16.7455C8.12478 18.2728 7.41238 20.2513 7.50862 22.316C7.60485 24.3808 8.49973 26.283 10.0245 27.6728C11.6593 29.1726 13.7815 30 16 30C18.2184 30 20.3406 29.1739 21.9754 27.6728C23.569 26.2093 24.4876 24.1295 24.4988 21.9673V21.9598C24.4926 19.7914 23.5727 17.7066 21.9754 16.2393V16.2381ZM12.1867 12.4361C11.2594 11.59 10.7157 10.4339 10.6582 9.18029C10.6007 7.92671 11.0344 6.72437 11.8793 5.79699C11.9768 5.69076 12.0793 5.58702 12.1905 5.48578C13.2578 4.50216 14.6289 4.01098 16 4.01098C17.371 4.01098 18.7421 4.50341 19.812 5.48703C20.7831 6.37816 21.343 7.64299 21.3505 8.96032C21.3393 10.2776 20.7781 11.545 19.8145 12.4349C18.7884 13.3697 17.516 13.8634 16.2312 13.9159C16.155 13.9134 16.0787 13.9109 16.0012 13.9109C15.9237 13.9109 15.8475 13.9147 15.7713 13.9159C14.4852 13.8634 13.2141 13.3697 12.188 12.4361H12.1867ZM20.6231 26.1993C19.3583 27.3604 17.7172 27.999 16 27.999C14.2827 27.999 12.6417 27.3591 11.3743 26.1968C10.242 25.1656 9.57834 23.7533 9.5071 22.2235C9.43586 20.6937 9.96454 19.2264 10.9956 18.0928C11.1156 17.9616 11.2431 17.8341 11.3768 17.7116C12.5704 16.6155 14.1002 15.9856 15.7113 15.9181C15.8075 15.9219 15.9025 15.9244 15.9987 15.9244C16.095 15.9244 16.1912 15.9219 16.2874 15.9181C17.8997 15.9856 19.4295 16.6155 20.6231 17.7116C21.8092 18.8015 22.4929 20.35 22.4991 21.9611C22.4904 23.5684 21.8067 25.1132 20.6231 26.1993Z" fill="#1100FF"/>
</svg>
