<svg width="32" height="32" viewBox="0 0 32 32" fill="none" xmlns="http://www.w3.org/2000/svg">
<path fill-rule="evenodd" clip-rule="evenodd" d="M16 5C9.92487 5 5 9.92487 5 16C5 22.0751 9.92487 27 16 27C22.0751 27 27 22.0751 27 16C27 9.92487 22.0751 5 16 5ZM3 16C3 8.8203 8.8203 3 16 3C23.1797 3 29 8.8203 29 16C29 23.1797 23.1797 29 16 29C8.8203 29 3 23.1797 3 16Z" fill="#1100FF"/>
<path fill-rule="evenodd" clip-rule="evenodd" d="M16.1853 11.005C15.7857 10.965 15.3846 11.0647 15.0502 11.2871C14.7158 11.5095 14.4688 11.8409 14.3511 12.2249C14.2335 12.6089 14.2525 13.0218 14.4049 13.3933C14.5574 13.7649 14.8338 14.0722 15.1872 14.2629C15.5407 14.4536 15.9492 14.516 16.3435 14.4395C16.7377 14.363 17.0933 14.1522 17.3497 13.8431C17.6053 13.535 17.7466 13.148 17.7498 12.7477C17.7481 12.2824 17.565 11.8362 17.2395 11.5037C16.9561 11.221 16.5837 11.0448 16.1853 11.005ZM13.9426 9.62178C14.662 9.14337 15.5248 8.92892 16.3844 9.0149C17.244 9.10089 18.0473 9.482 18.6576 10.0934L18.6629 10.0987C19.358 10.8056 19.7483 11.7569 19.7499 12.7483L19.7499 12.7557C19.7448 13.6196 19.4406 14.4551 18.8891 15.12C18.3375 15.7849 17.5727 16.2382 16.7246 16.4029C15.8765 16.5675 14.9976 16.4332 14.2374 16.0229C13.4771 15.6127 12.8825 14.9517 12.5546 14.1524C12.2267 13.3532 12.1858 12.465 12.4388 11.639C12.6919 10.813 13.2233 10.1002 13.9426 9.62178Z" fill="#1100FF"/>
<path fill-rule="evenodd" clip-rule="evenodd" d="M16.231 16.5141C15.7161 16.4636 15.1997 16.593 14.7695 16.8804C14.3394 17.1677 14.0221 17.5953 13.8716 18.0902C13.7212 18.5852 13.7469 19.117 13.9444 19.5951C14.1419 20.0732 14.4989 20.4682 14.9548 20.7127C15.4107 20.9572 15.9372 21.0362 16.4448 20.9363C16.9523 20.8363 17.4096 20.5635 17.7387 20.1644C18.0678 19.7653 18.2485 19.2644 18.2499 18.7471C18.2507 18.452 18.1931 18.1595 18.0804 17.8867C17.9678 17.6139 17.8022 17.3661 17.5933 17.1576C17.2272 16.792 16.7458 16.5647 16.231 16.5141ZM13.6586 15.2173C14.4732 14.6731 15.4513 14.428 16.4264 14.5237C17.4014 14.6194 18.3131 15.05 19.0065 15.7422C19.402 16.1372 19.7156 16.6066 19.929 17.1232C20.1424 17.6399 20.2514 18.1937 20.2499 18.7527C20.2472 19.7324 19.9051 20.6809 19.2818 21.4368C18.6585 22.1927 17.7925 22.7092 16.8313 22.8986C15.87 23.0879 14.8728 22.9383 14.0095 22.4752C13.1461 22.0121 12.4699 21.2642 12.0958 20.3586C11.7218 19.4531 11.6731 18.446 11.9581 17.5086C12.243 16.5712 12.8439 15.7615 13.6586 15.2173Z" fill="#1100FF"/>
</svg>
