<svg width="32" height="32" viewBox="0 0 32 32" fill="none" xmlns="http://www.w3.org/2000/svg">
<path fill-rule="evenodd" clip-rule="evenodd" d="M4 6C4 4.89543 4.89543 4 6 4H26C27.1046 4 28 4.89543 28 6V26C28 27.1046 27.1046 28 26 28H6C4.89543 28 4 27.1046 4 26V6ZM26 6H6V26H26V6Z" fill="#1100FF"/>
<path fill-rule="evenodd" clip-rule="evenodd" d="M17.5119 9.14102C17.9863 9.42387 18.1415 10.0377 17.8587 10.5121L13.8337 17.2621C13.5508 17.7364 12.937 17.8917 12.4626 17.6088C11.9883 17.3259 11.833 16.7121 12.1159 16.2378L16.1409 9.48775C16.4237 9.0134 17.0376 8.85816 17.5119 9.14102Z" fill="#1100FF"/>
<path fill-rule="evenodd" clip-rule="evenodd" d="M16 16C14.6193 16 13.5 17.1193 13.5 18.5C13.5 19.8807 14.6193 21 16 21C17.3807 21 18.5 19.8807 18.5 18.5C18.5 17.1193 17.3807 16 16 16ZM11.5 18.5C11.5 16.0147 13.5147 14 16 14C18.4853 14 20.5 16.0147 20.5 18.5C20.5 20.9853 18.4853 23 16 23C13.5147 23 11.5 20.9853 11.5 18.5Z" fill="#1100FF"/>
</svg>
