<svg width="32" height="32" viewBox="0 0 32 32" fill="none" xmlns="http://www.w3.org/2000/svg">
<path fill-rule="evenodd" clip-rule="evenodd" d="M15.017 2.40653C15.3162 2.23487 15.6551 2.14453 16 2.14453C16.3449 2.14453 16.6838 2.23487 16.983 2.40653L27.4813 8.34309C27.789 8.51783 28.0452 8.77062 28.2241 9.07597C28.4029 9.38131 28.4981 9.72842 28.5 10.0823L28.5 10.0877L28.5 21.9127H27.5L28.5 21.918C28.4981 22.2719 28.4029 22.619 28.2241 22.9243C28.0452 23.2297 27.789 23.4825 27.4813 23.6572L16.983 29.5937C16.6839 29.7654 16.345 29.8558 16 29.8558C15.655 29.8558 15.3161 29.7654 15.017 29.5937L4.52027 23.6581L4.51869 23.6572C4.21097 23.4825 3.95478 23.2297 3.77593 22.9243C3.59709 22.619 3.50191 22.2719 3.50001 21.918L3.5 21.9127V10.0823C3.5019 9.72842 3.59709 9.38132 3.77593 9.07597C3.95478 8.77062 4.21097 8.51783 4.51869 8.34309L4.52027 8.34219L15.017 2.40653ZM26.5 21.9078V10.0925C26.4999 10.0905 26.4993 10.0885 26.4983 10.0868L26.4959 10.0838L26.4938 10.0823L16 4.1483L5.50631 10.0822C5.50447 10.0833 5.50278 10.0849 5.5017 10.0868C5.50068 10.0885 5.5001 10.0905 5.5 10.0925V21.9078C5.5001 21.9098 5.50068 21.9118 5.5017 21.9135C5.50278 21.9154 5.50431 21.9169 5.50614 21.918L16 27.852L26.4937 21.9181C26.4955 21.917 26.4972 21.9154 26.4983 21.9135C26.4993 21.9118 26.4999 21.9098 26.5 21.9078Z" fill="#1100FF"/>
<path fill-rule="evenodd" clip-rule="evenodd" d="M16 12.5001C14.067 12.5001 12.5 14.0671 12.5 16.0001C12.5 17.9331 14.067 19.5001 16 19.5001C17.933 19.5001 19.5 17.9331 19.5 16.0001C19.5 14.0671 17.933 12.5001 16 12.5001ZM10.5 16.0001C10.5 12.9626 12.9624 10.5001 16 10.5001C19.0376 10.5001 21.5 12.9626 21.5 16.0001C21.5 19.0377 19.0376 21.5001 16 21.5001C12.9624 21.5001 10.5 19.0377 10.5 16.0001Z" fill="#1100FF"/>
</svg>
