<svg width="32" height="32" viewBox="0 0 32 32" fill="none" xmlns="http://www.w3.org/2000/svg">
<path d="M21.4875 20C22.316 20 22.9875 19.3284 22.9875 18.5C22.9875 17.6716 22.316 17 21.4875 17C20.6591 17 19.9875 17.6716 19.9875 18.5C19.9875 19.3284 20.6591 20 21.4875 20Z" fill="#1100FF"/>
<path fill-rule="evenodd" clip-rule="evenodd" d="M16.9876 7.9989C16.9882 8.55119 16.5409 8.99939 15.9887 9C14.3028 9.00185 12.6514 9.47717 11.2225 10.3718C9.79362 11.2664 8.64474 12.5444 7.90673 14.0601C7.16873 15.5758 6.87129 17.2684 7.04828 18.9449C7.22528 20.6214 7.86959 22.2145 8.90784 23.5427C9.94608 24.8709 11.3365 25.8808 12.9207 26.4573C14.5049 27.0339 16.2192 27.1539 17.8682 26.8036C19.5173 26.4534 21.0348 25.6471 22.248 24.4765C23.4611 23.3058 24.3211 21.818 24.7299 20.1825C24.8638 19.6467 25.4068 19.3209 25.9426 19.4548C26.4784 19.5888 26.8041 20.1317 26.6702 20.6675C26.1705 22.6665 25.1195 24.4849 23.6367 25.9157C22.154 27.3464 20.2992 28.332 18.2837 28.76C16.2682 29.1881 14.173 29.0414 12.2367 28.3368C10.3005 27.6321 8.60109 26.3978 7.33212 24.7744C6.06316 23.1511 5.27566 21.204 5.05933 19.1549C4.84301 17.1058 5.20655 15.0371 6.10855 13.1846C7.01056 11.332 8.41475 9.77007 10.1612 8.67664C11.9076 7.5832 13.926 7.00226 15.9865 7C16.5387 6.99939 16.9869 7.44662 16.9876 7.9989Z" fill="#1100FF"/>
<path fill-rule="evenodd" clip-rule="evenodd" d="M8.53055 5.50455C7.95461 5.54115 7.40664 5.77626 6.98202 6.17318C6.50798 6.6163 6.22481 7.22637 6.19234 7.87445C6.15988 8.52253 6.38068 9.15784 6.80806 9.6461C7.23545 10.1344 7.83593 10.4373 8.48261 10.491C9.033 10.5366 9.44218 11.0198 9.39654 11.5702C9.3509 12.1206 8.86772 12.5298 8.31732 12.4841C7.15331 12.3876 6.07243 11.8423 5.30314 10.9634C4.53385 10.0845 4.13642 8.94094 4.19485 7.77439C4.25328 6.60785 4.76299 5.50972 5.61626 4.71212C6.46953 3.91451 7.59949 3.47992 8.76732 3.50019C8.912 3.5027 9.0544 3.53658 9.18471 3.59949L23.4604 10.4912C24.0463 10.4417 24.5987 10.1868 25.0177 9.76781C25.4866 9.29897 25.75 8.66308 25.75 8.00004C25.75 7.337 25.4866 6.70111 25.0177 6.23227C24.5489 5.76343 23.913 5.50004 23.25 5.50004C22.6977 5.50004 22.25 5.05232 22.25 4.50004C22.25 3.94775 22.6977 3.50004 23.25 3.50004C24.4434 3.50004 25.588 3.97415 26.4319 4.81806C27.2759 5.66197 27.75 6.80657 27.75 8.00004C27.75 9.19351 27.2759 10.3381 26.4319 11.182C25.588 12.0259 24.4434 12.5 23.25 12.5C23.0994 12.5 22.9508 12.466 22.8152 12.4006L8.53055 5.50455Z" fill="#1100FF"/>
<path fill-rule="evenodd" clip-rule="evenodd" d="M16.5019 13.1425C16.8031 13.3232 16.9874 13.6487 16.9874 14V28C16.9874 28.5523 16.5397 29 15.9874 29C15.4351 29 14.9874 28.5523 14.9874 28V15.6668L6.54555 20.1698C6.05826 20.4298 5.45251 20.2454 5.19258 19.7581C4.93265 19.2709 5.11697 18.6651 5.60426 18.4052L15.5168 13.1177C15.8267 12.9524 16.2007 12.9618 16.5019 13.1425Z" fill="#1100FF"/>
<path fill-rule="evenodd" clip-rule="evenodd" d="M11.9875 15.1375C12.5398 15.1375 12.9875 15.5852 12.9875 16.1375V27.1625C12.9875 27.7147 12.5398 28.1625 11.9875 28.1625C11.4353 28.1625 10.9875 27.7147 10.9875 27.1625V16.1375C10.9875 15.5852 11.4353 15.1375 11.9875 15.1375Z" fill="#1100FF"/>
</svg>
