<svg width="32" height="32" viewBox="0 0 32 32" fill="none" xmlns="http://www.w3.org/2000/svg">
<path d="M11.43 29C10.905 29 10.4075 28.795 10.0325 28.4213L3.58 21.97C3.20875 21.5963 2.99876 21.0825 3.00001 20.5588V11.4376C2.99876 10.9101 3.20375 10.4088 3.57875 10.0326L10.03 3.58009C10.4087 3.20384 10.9087 2.99509 11.4412 3.00009H20.5662C21.0874 3.00009 21.5987 3.21134 21.9687 3.57884L28.4199 10.0301C28.7962 10.4088 29.0024 10.9088 28.9999 11.4413V20.5625C29.0024 21.0825 28.7912 21.5963 28.4212 21.9675L21.9699 28.4188C21.5962 28.79 21.0837 28.9963 20.5587 28.9988H11.43V29ZM11.4375 5.00008L4.995 11.4451L5 20.5625L11.445 27.005L20.5624 27L27.0049 20.555L26.9999 11.4376L20.5612 5.00008H11.4375ZM20.5537 4.99508L20.5587 4.99758L20.5562 4.99508H20.5537Z" fill="#1100FF"/>
</svg>
