<svg width="32" height="32" viewBox="0 0 32 32" fill="none" xmlns="http://www.w3.org/2000/svg">
<path d="M28 22H20.1175L13.6713 9.1075C13.3387 8.435 12.64 8 11.8912 8H4C3.4475 8 3 8.4475 3 9C3 9.5525 3.4475 10 4 10H11.8825L18.3287 22.8925C18.6625 23.5675 19.36 24 20.1112 24C20.1175 24 20.125 24 20.1313 24H28C28.5525 24 29 23.5525 29 23C29 22.4475 28.5525 22 28 22Z" fill="#1100FF"/>
<path d="M19 10H28C28.5525 10 29 9.5525 29 9C29 8.4475 28.5525 8 28 8H19C18.4475 8 18 8.4475 18 9C18 9.5525 18.4475 10 19 10Z" fill="#1100FF"/>
</svg>
