<svg width="32" height="32" viewBox="0 0 32 32" fill="none" xmlns="http://www.w3.org/2000/svg">
<path fill-rule="evenodd" clip-rule="evenodd" d="M15.0182 1.90561C15.317 1.7344 15.6555 1.64429 16 1.64429C16.3445 1.64429 16.683 1.7344 16.9818 1.90561L27.9813 8.09284C28.289 8.26759 28.5452 8.52038 28.7241 8.82573C28.9029 9.13107 28.9981 9.47817 29 9.83204L29 9.83741L29 22.1624H28L29 22.1678C28.9981 22.5216 28.9029 22.8688 28.7241 23.1741C28.5452 23.4794 28.289 23.7322 27.9813 23.907L27.9778 23.909L16.9818 30.0942C16.6829 30.2654 16.3445 30.3555 16 30.3555C15.6555 30.3555 15.3171 30.2654 15.0182 30.0942L4.02224 23.909L4.01869 23.907C3.71097 23.7322 3.45478 23.4794 3.27593 23.1741C3.09709 22.8688 3.00191 22.5216 3.00001 22.1678L3 22.1624V9.83204C3.0019 9.47818 3.09709 9.13107 3.27593 8.82573C3.45478 8.52038 3.71097 8.26759 4.01869 8.09284L4.02223 8.09083L15.0182 1.90561ZM27 22.1576V9.84224C26.9999 9.84023 26.9993 9.83827 26.9983 9.83653C26.9973 9.83475 26.9958 9.83326 26.994 9.83218L16 3.64804L5.00631 9.83198C5.00455 9.83305 5.00274 9.83475 5.0017 9.83653C5.00068 9.83827 5.0001 9.84023 5 9.84225V22.1576C5.0001 22.1596 5.00068 22.1616 5.0017 22.1633C5.00274 22.1651 5.00419 22.1666 5.00594 22.1676L16 28.3518L26.9937 22.1678C26.9954 22.1668 26.9973 22.1651 26.9983 22.1633C26.9993 22.1616 26.9999 22.1596 27 22.1576Z" fill="#1100FF"/>
<path fill-rule="evenodd" clip-rule="evenodd" d="M9.1243 5.39198C9.39103 4.90838 9.99929 4.73257 10.4829 4.9993L22.6079 11.6868C22.9269 11.8627 23.1249 12.1982 23.1249 12.5624V19.0624C23.1249 19.6147 22.6772 20.0624 22.1249 20.0624C21.5727 20.0624 21.1249 19.6147 21.1249 19.0624V13.1529L9.51698 6.75058C9.03338 6.48385 8.85757 5.87559 9.1243 5.39198Z" fill="#1100FF"/>
<path fill-rule="evenodd" clip-rule="evenodd" d="M3.26392 8.83801C3.53282 8.3556 4.14187 8.18252 4.62427 8.45142L16.1077 14.8524L27.3684 8.4554C27.8486 8.1826 28.4591 8.35073 28.7319 8.83094C29.0047 9.31115 28.8365 9.92158 28.3563 10.1944L16.6063 16.8694C16.3025 17.042 15.9307 17.0435 15.6255 16.8734L3.65051 10.1984C3.1681 9.92946 2.99502 9.32041 3.26392 8.83801Z" fill="#1100FF"/>
<path fill-rule="evenodd" clip-rule="evenodd" d="M16.1209 15C16.6732 15.0047 17.1171 15.4562 17.1125 16.0084L17 29.3584C16.9953 29.9107 16.5438 30.3546 15.9916 30.35C15.4393 30.3453 14.9954 29.8938 15 29.3416L15.1125 15.9916C15.1172 15.4393 15.5687 14.9954 16.1209 15Z" fill="#1100FF"/>
</svg>
