<svg width="32" height="32" viewBox="0 0 32 32" fill="none" xmlns="http://www.w3.org/2000/svg">
<path fill-rule="evenodd" clip-rule="evenodd" d="M8.29289 12.2929C8.68342 11.9024 9.31658 11.9024 9.70711 12.2929L19.7071 22.2929C20.0976 22.6834 20.0976 23.3166 19.7071 23.7071C19.3166 24.0976 18.6834 24.0976 18.2929 23.7071L8.29289 13.7071C7.90237 13.3166 7.90237 12.6834 8.29289 12.2929Z" fill="#1100FF"/>
<path fill-rule="evenodd" clip-rule="evenodd" d="M13.4321 22.2179C13.8226 22.6085 13.8226 23.2416 13.4321 23.6322L9.53206 27.5322C9.14153 27.9227 8.50837 27.9227 8.11784 27.5322C7.72732 27.1416 7.72732 26.5085 8.11784 26.1179L12.0178 22.2179C12.4084 21.8274 13.0415 21.8274 13.4321 22.2179Z" fill="#1100FF"/>
<path fill-rule="evenodd" clip-rule="evenodd" d="M9.93206 18.7179C10.3226 19.1085 10.3226 19.7416 9.93206 20.1322L6.03206 24.0322C5.64153 24.4227 5.00837 24.4227 4.61784 24.0322C4.22732 23.6416 4.22732 23.0085 4.61784 22.6179L8.51784 18.7179C8.90837 18.3274 9.54153 18.3274 9.93206 18.7179Z" fill="#1100FF"/>
<path fill-rule="evenodd" clip-rule="evenodd" d="M24.5994 4.56494L17.7569 12.1927L17.0124 11.5249L17.7553 12.1945C17.5736 12.3961 17.3528 12.5586 17.1063 12.6721C16.8597 12.7856 16.5927 12.8478 16.3214 12.8548C16.0501 12.8618 15.7802 12.8135 15.5282 12.7129C15.2762 12.6123 15.0473 12.4614 14.8554 12.2696L13.7084 11.1226C13.5192 10.9373 13.2649 10.8335 13 10.8335C12.7351 10.8335 12.4808 10.9373 12.2916 11.1226L12.2894 11.1248L3.41421 20L12 28.5857L20.8752 19.7106L20.8774 19.7083C21.0627 19.5191 21.1665 19.2648 21.1665 19C21.1665 18.7351 21.0627 18.4808 20.8774 18.2916L20.8752 18.2893L19.7305 17.1447C19.5386 16.9528 19.3877 16.7238 19.2871 16.4718C19.1864 16.2197 19.1382 15.9498 19.1452 15.6785C19.1522 15.4072 19.2144 15.1402 19.3279 14.8937C19.4414 14.6472 19.6039 14.4264 19.8055 14.2447L19.8072 14.2431L27.435 7.4005C27.8004 7.02619 28.0052 6.52363 28.0052 5.99995C28.0052 5.46814 27.7939 4.95811 27.4179 4.58206C27.0418 4.20601 26.5318 3.99475 26 3.99475C25.4763 3.99475 24.9737 4.1996 24.5994 4.56494ZM23.1679 3.16785C23.919 2.41673 24.9378 1.99475 26 1.99475C27.0622 1.99475 28.081 2.41673 28.8321 3.16785C29.5832 3.91897 30.0052 4.93771 30.0052 5.99995C30.0052 7.0622 29.5832 8.08094 28.8321 8.83206C28.8193 8.84484 28.8062 8.85727 28.7928 8.86934L21.1445 15.7303L22.2998 16.8856C22.8552 17.4492 23.1665 18.2087 23.1665 19C23.1665 19.7912 22.8552 20.5507 22.2998 21.1143L22.2946 21.1196L12.7071 30.7071C12.3166 31.0976 11.6834 31.0976 11.2929 30.7071L1.29289 20.7071C1.10536 20.5195 1 20.2652 1 20C1 19.7347 1.10536 19.4804 1.29289 19.2928L10.8856 9.70012C11.4492 9.14477 12.2087 8.83348 13 8.83348C13.7913 8.83348 14.5507 9.14479 15.1144 9.70014L15.1196 9.70533L16.2696 10.8553L23.1306 3.2072C23.1427 3.19375 23.1551 3.18063 23.1679 3.16785Z" fill="#1100FF"/>
</svg>
