<svg width="32" height="32" viewBox="0 0 32 32" fill="none" xmlns="http://www.w3.org/2000/svg">
<path d="M24.7568 7.10403C22.3614 4.74945 19.2087 3.46699 15.8686 3.50065C12.5308 3.5367 9.40458 4.86964 7.06923 7.25548C4.73268 9.64131 3.46584 12.794 3.5007 16.1329C3.55599 21.3601 6.90337 26.0429 11.8265 27.7844C12.2544 27.9383 12.6919 28.0116 13.1222 28.0116C14.6931 28.0116 16.1702 27.038 16.7328 25.4767C16.8854 25.0525 16.9623 24.6089 16.9599 24.1642V23.6919C16.9551 22.6378 17.8097 21.7772 18.859 21.7724H24.4383C26.24 21.7724 27.7809 20.5464 28.1859 18.7916V18.7892C28.4023 17.8421 28.5069 16.8697 28.4997 15.8998C28.4744 12.5764 27.1451 9.45381 24.7568 7.10524V7.10403ZM26.3121 18.3589C26.109 19.2363 25.3386 19.8481 24.4383 19.8481H18.8566C16.7424 19.8565 15.0296 21.5837 15.038 23.6943V24.1678C15.038 24.3926 15.0008 24.6138 14.925 24.8241C14.5681 25.8157 13.4707 26.3313 12.4743 25.9719C8.30482 24.4972 5.47187 20.5344 5.42499 16.1113C5.39494 13.2868 6.46706 10.6185 8.44424 8.60044C10.4214 6.5824 13.0657 5.45378 15.889 5.42373C15.9227 5.42373 15.9563 5.42373 15.9912 5.42373C18.7748 5.42373 21.4059 6.50547 23.4095 8.47544C25.4311 10.4622 26.5561 13.1041 26.5766 15.9142C26.5838 16.7351 26.4948 17.5584 26.3121 18.3589Z" fill="#1100FF"/>
<path d="M15.9996 11.1942C16.7961 11.1942 17.4419 10.5485 17.4419 9.75189C17.4419 8.95532 16.7961 8.30957 15.9996 8.30957C15.203 8.30957 14.5573 8.95532 14.5573 9.75189C14.5573 10.5485 15.203 11.1942 15.9996 11.1942Z" fill="#1100FF"/>
<path d="M10.5909 14.3192C11.3875 14.3192 12.0332 13.6735 12.0332 12.8769C12.0332 12.0803 11.3875 11.4346 10.5909 11.4346C9.79432 11.4346 9.14857 12.0803 9.14857 12.8769C9.14857 13.6735 9.79432 14.3192 10.5909 14.3192Z" fill="#1100FF"/>
<path d="M10.5909 20.5693C11.3875 20.5693 12.0332 19.9235 12.0332 19.1269C12.0332 18.3304 11.3875 17.6846 10.5909 17.6846C9.79432 17.6846 9.14857 18.3304 9.14857 19.1269C9.14857 19.9235 9.79432 20.5693 10.5909 20.5693Z" fill="#1100FF"/>
<path d="M21.4083 14.3192C22.2048 14.3192 22.8506 13.6735 22.8506 12.8769C22.8506 12.0803 22.2048 11.4346 21.4083 11.4346C20.6117 11.4346 19.9659 12.0803 19.9659 12.8769C19.9659 13.6735 20.6117 14.3192 21.4083 14.3192Z" fill="#1100FF"/>
</svg>
