<svg width="32" height="32" viewBox="0 0 32 32" fill="none" xmlns="http://www.w3.org/2000/svg">
<path fill-rule="evenodd" clip-rule="evenodd" d="M14.9718 3.32377C15.2795 3.14233 15.6303 3.04663 15.9875 3.04663C16.3448 3.04663 16.6955 3.14233 17.0033 3.32377C17.3102 3.5047 17.5631 3.76429 17.736 4.0757L17.7375 4.07839L29.5629 25.1914C29.7594 25.5471 29.8428 25.9542 29.8022 26.3585C29.7616 26.7628 29.5988 27.1452 29.3354 27.4546C29.0721 27.7641 28.7208 27.986 28.3282 28.0909C27.9358 28.1956 27.5208 28.1785 27.1384 28.0417L15.9892 24.0669L15.9875 24.0663L4.83723 28.0414C4.45477 28.1784 4.03936 28.1957 3.64688 28.0909C3.2543 27.986 2.90295 27.7641 2.63962 27.4546C2.3763 27.1452 2.21349 26.7628 2.17286 26.3585C2.13224 25.9542 2.21573 25.5471 2.41223 25.1914L2.41505 25.1863L14.2375 4.07839L14.239 4.0757C14.4119 3.76429 14.6649 3.5047 14.9718 3.32377ZM27.8122 26.1586L15.9875 5.04664L15.985 5.05118L4.16287 26.1586L15.2981 22.1888C15.7415 22.0162 16.2336 22.0162 16.677 22.1888L27.8122 26.1586Z" fill="#1100FF"/>
<path fill-rule="evenodd" clip-rule="evenodd" d="M15.9875 14C16.5398 14 16.9875 14.4477 16.9875 15V23C16.9875 23.5523 16.5398 24 15.9875 24C15.4353 24 14.9875 23.5523 14.9875 23V15C14.9875 14.4477 15.4353 14 15.9875 14Z" fill="#1100FF"/>
</svg>
