<svg width="32" height="32" viewBox="0 0 32 32" fill="none" xmlns="http://www.w3.org/2000/svg">
<path d="M26.5 10C24.57 10 23 11.57 23 13.5C23 15.43 24.57 17 26.5 17C28.43 17 30 15.43 30 13.5C30 11.57 28.43 10 26.5 10ZM26.5 15C25.6725 15 25 14.3275 25 13.5C25 12.6725 25.6725 12 26.5 12C27.3275 12 28 12.6725 28 13.5C28 14.3275 27.3275 15 26.5 15Z" fill="#1100FF"/>
<path d="M9 13.5C9 11.57 7.43 10 5.5 10C3.57 10 2 11.57 2 13.5C2 15.43 3.57 17 5.5 17C7.43 17 9 15.43 9 13.5ZM5.5 15C4.6725 15 4 14.3275 4 13.5C4 12.6725 4.6725 12 5.5 12C6.3275 12 7 12.6725 7 13.5C7 14.3275 6.3275 15 5.5 15Z" fill="#1100FF"/>
<path d="M11.5 11C13.43 11 15 9.43 15 7.5C15 5.57 13.43 4 11.5 4C9.57 4 8 5.57 8 7.5C8 9.43 9.57 11 11.5 11ZM11.5 6C12.3275 6 13 6.6725 13 7.5C13 8.3275 12.3275 9 11.5 9C10.6725 9 10 8.3275 10 7.5C10 6.6725 10.6725 6 11.5 6Z" fill="#1100FF"/>
<path d="M20.5 11C22.43 11 24 9.43 24 7.5C24 5.57 22.43 4 20.5 4C18.57 4 17 5.57 17 7.5C17 9.43 18.57 11 20.5 11ZM20.5 6C21.3275 6 22 6.6725 22 7.5C22 8.3275 21.3275 9 20.5 9C19.6725 9 19 8.3275 19 7.5C19 6.6725 19.6725 6 20.5 6Z" fill="#1100FF"/>
<path d="M23.3838 18.6125C22.3563 18.035 21.6112 17.0938 21.285 15.9613C20.8787 14.5487 19.9475 13.38 18.6625 12.6687C17.3775 11.9575 15.8912 11.7887 14.48 12.195C12.6475 12.7212 11.2387 14.13 10.7125 15.9625C10.3862 17.0975 9.64 18.04 8.62 18.61C6.19875 19.9288 5.3025 22.9713 6.62125 25.3925C7.49375 26.995 9.17 27.9937 10.9975 28H11.0013C11.6725 28 12.3263 27.8687 12.9438 27.6112C14.9138 26.795 17.0825 26.795 19.05 27.6112C19.67 27.87 20.3237 28.0012 20.9975 28.0012H21.0012C23.7587 27.9912 25.9937 25.7412 25.9837 22.9837C25.9775 21.1612 24.98 19.4875 23.3813 18.6138L23.3838 18.6125ZM20.9988 26H20.9963C20.5912 26 20.1962 25.9212 19.82 25.7638C17.3562 24.7425 14.6425 24.7425 12.1763 25.7638C11.8025 25.92 11.4075 25.9988 11.005 25.9988H11.0025C9.9075 25.995 8.9025 25.395 8.37875 24.4338C7.5875 22.9813 8.125 21.155 9.5875 20.3587C11.08 19.5225 12.1625 18.1562 12.635 16.5125C12.97 15.3462 13.8662 14.45 15.0325 14.115C15.3525 14.0225 15.68 13.9775 16.0037 13.9775C16.5887 13.9775 17.1675 14.1262 17.6938 14.4175C18.5112 14.87 19.1037 15.615 19.3625 16.5125C19.835 18.1575 20.9175 19.5225 22.41 20.3587C22.4137 20.3612 22.4163 20.3625 22.42 20.365C23.3813 20.8888 23.9813 21.8938 23.985 22.9888C23.99 24.6425 22.65 25.9938 20.9975 25.9988L20.9988 26Z" fill="#1100FF"/>
</svg>
