<svg width="32" height="32" viewBox="0 0 32 32" fill="none" xmlns="http://www.w3.org/2000/svg">
<path fill-rule="evenodd" clip-rule="evenodd" d="M16 5C9.92487 5 5 9.92487 5 16C5 22.0751 9.92487 27 16 27C22.0751 27 27 22.0751 27 16C27 9.92487 22.0751 5 16 5ZM3 16C3 8.8203 8.8203 3 16 3C23.1797 3 29 8.8203 29 16C29 23.1797 23.1797 29 16 29C8.8203 29 3 23.1797 3 16Z" fill="#1100FF"/>
<path fill-rule="evenodd" clip-rule="evenodd" d="M16 15C16.5523 15 17 15.4477 17 16V28C17 28.5523 16.5523 29 16 29C15.4477 29 15 28.5523 15 28V16C15 15.4477 15.4477 15 16 15Z" fill="#1100FF"/>
<path fill-rule="evenodd" clip-rule="evenodd" d="M15.1812 15.426C15.4983 14.9738 16.1219 14.8642 16.5741 15.1812L26.3991 22.0687C26.8513 22.3857 26.9609 23.0093 26.6439 23.4615C26.3269 23.9138 25.7033 24.0234 25.2511 23.7064L15.4261 16.8189C14.9738 16.5018 14.8642 15.8782 15.1812 15.426Z" fill="#1100FF"/>
<path fill-rule="evenodd" clip-rule="evenodd" d="M16.8187 15.426C17.1358 15.8782 17.0261 16.5018 16.5739 16.8189L6.74891 23.7064C6.29668 24.0234 5.67307 23.9138 5.35605 23.4615C5.03903 23.0093 5.14864 22.3857 5.60087 22.0687L15.4259 15.1812C15.8781 14.8642 16.5017 14.9738 16.8187 15.426Z" fill="#1100FF"/>
<path fill-rule="evenodd" clip-rule="evenodd" d="M16 3C16.5523 3 17 3.44772 17 4V16C17 16.5523 16.5523 17 16 17C15.4477 17 15 16.5523 15 16V4C15 3.44772 15.4477 3 16 3Z" fill="#1100FF"/>
</svg>
