<svg width="32" height="32" viewBox="0 0 32 32" fill="none" xmlns="http://www.w3.org/2000/svg">
<path d="M27.4227 10.0194L21.9636 4.56148C21.5926 4.19542 21.0984 3.99287 20.5799 4.00019C20.0588 4.00385 19.5696 4.21128 19.2084 4.57734L4.56495 19.222C4.3746 19.4136 4.23061 19.6369 4.13544 19.8797C4.12202 19.9114 4.11104 19.9431 4.10128 19.9748C4.03539 20.1713 4 20.3799 4 20.5935V26.0477C4 27.1239 4.87609 28 5.9523 28H11.4102C11.6127 28 11.8141 27.9658 12.0044 27.9036C12.052 27.8902 12.0996 27.8743 12.1447 27.8536C12.3802 27.7572 12.5974 27.6144 12.7792 27.4338L22.9934 17.2197L23.4168 18.9157L18.9265 23.406C18.5458 23.7867 18.5458 24.4053 18.9265 24.786C19.1169 24.9764 19.367 25.0716 19.6171 25.0716C19.8673 25.0716 20.1162 24.9764 20.3078 24.786L25.1885 19.9053C25.4313 19.6625 25.5289 19.3111 25.4447 18.978L24.6028 15.609L27.4373 12.7745C28.1926 12.007 28.1828 10.7686 27.4214 10.0194H27.4227ZM5.94863 22.5433L9.45178 26.0465H5.9523L5.94863 22.5433ZM11.8092 25.6426L6.35618 20.1896L16.6936 9.86074L22.1417 15.3089L11.808 25.6426H11.8092ZM23.523 13.9288L18.0748 8.48071L20.5994 5.95737L26.0414 11.4104L23.523 13.9288Z" fill="#1100FF"/>
</svg>
