<svg width="32" height="32" viewBox="0 0 32 32" fill="none" xmlns="http://www.w3.org/2000/svg">
<path d="M28.0084 9.66965L22.4128 4.07527C22.0326 3.70006 21.5261 3.49245 20.9945 3.49995C20.4605 3.5037 19.9589 3.71632 19.5887 4.09153L4.57908 19.1024C4.20387 19.4789 3.99875 19.9792 4.00001 20.5082V26.0988C4.00001 27.202 4.89801 28.1 6.00112 28.1H11.5955C12.117 28.1 12.6286 27.8886 13 27.5196L28.0247 12.4937C28.7989 11.707 28.7889 10.4376 28.0084 9.66965ZM11.5905 26.0988H6.00112L5.99612 20.5157L17.011 9.50706L22.5954 15.0914L11.5905 26.0988ZM24.0112 13.6781L18.4268 8.09377L21.0145 5.50732L26.5926 11.0967L24.0112 13.6781Z" fill="#1100FF"/>
</svg>
