<svg width="32" height="32" viewBox="0 0 32 32" fill="none" xmlns="http://www.w3.org/2000/svg">
<path d="M28.0247 12.494C28.7989 11.7073 28.7889 10.4378 28.0084 9.6699L22.4128 4.07552C22.0326 3.70031 21.5261 3.49269 20.9945 3.5002C20.4605 3.50395 19.9589 3.71657 19.5887 4.09178L4.57908 19.1027C4.20387 19.4791 3.99875 19.9794 4.00001 20.5085V26.0991C4.00001 27.2022 4.89801 28.1002 6.00112 28.1002H27.0129C27.5657 28.1002 28.0134 27.6524 28.0134 27.0996C28.0134 26.5468 27.5657 26.0991 27.0129 26.0991H14.4196L28.0247 12.494ZM21.0158 5.50632L26.5939 11.0957L24.0124 13.6771L18.4281 8.09276L21.0158 5.50632ZM5.99612 20.516L17.011 9.5073L22.5954 15.0917L11.5905 26.0991H6.00112L5.99612 20.516Z" fill="#1100FF"/>
</svg>
