<svg width="32" height="32" viewBox="0 0 32 32" fill="none" xmlns="http://www.w3.org/2000/svg">
<path d="M30 14.8022H28V6.00472C28 5.88597 27.99 5.76722 27.9688 5.64972C27.7763 4.56347 26.735 3.83847 25.6462 4.03097L5.65 7.66722C4.69125 7.83722 3.9975 8.66847 4 9.63972V14.8022H2C1.4475 14.8022 1 15.2497 1 15.8022C1 16.3547 1.4475 16.8022 2 16.8022H4V21.9622C3.9975 22.936 4.69125 23.7672 5.64625 23.936L25.6462 27.5735H25.65C25.765 27.5947 25.8838 27.6047 26.0025 27.6047H26.0063C27.1087 27.601 28.0037 26.701 28 25.6022V16.8022H30C30.5525 16.8022 31 16.3547 31 15.8022C31 15.2497 30.5525 14.8022 30 14.8022ZM6.00375 9.63597L26 6.00222V14.8022H6.0025V9.63597H6.00375ZM26.0012 25.6047L6.00125 21.9647V16.8022H26V25.6047H26.0012Z" fill="#1100FF"/>
</svg>
