<svg width="32" height="32" viewBox="0 0 32 32" fill="none" xmlns="http://www.w3.org/2000/svg">
<path d="M15.9874 10C18.1936 10 19.9874 8.20625 19.9874 6C19.9874 3.79375 18.1924 2 15.9874 2C13.7824 2 11.9874 3.79375 11.9874 6C11.9874 8.20625 13.7811 10 15.9874 10ZM15.9874 4C17.0899 4 17.9874 4.8975 17.9874 6C17.9874 7.1025 17.0899 8 15.9874 8C14.8849 8 13.9874 7.1025 13.9874 6C13.9874 4.8975 14.8849 4 15.9874 4Z" fill="#1100FF"/>
<path d="M28.5136 15.1425C28.2999 15.0138 23.1936 12 15.9986 12C8.80362 12 3.69862 15.0138 3.48487 15.1425C3.01237 15.4263 2.85862 16.04 3.14237 16.5125C3.42612 16.9863 4.03987 17.14 4.51362 16.8575C4.55862 16.83 8.90362 14.2838 14.9999 14.0225V18.6188L7.25237 27.335C6.88487 27.7475 6.92237 28.38 7.33487 28.7463C7.74737 29.1125 8.37987 29.0763 8.74612 28.6625L15.9986 20.5038L23.2511 28.6625C23.4486 28.885 23.7236 28.9988 23.9986 28.9988C24.2349 28.9988 24.4724 28.915 24.6624 28.7463C25.0749 28.3788 25.1124 27.7475 24.7461 27.335L16.9986 18.6188V14.0225C23.0949 14.2838 27.4399 16.83 27.4836 16.8563C27.6449 16.9525 27.8224 16.9988 27.9974 16.9988C28.3374 16.9988 28.6686 16.8263 28.8561 16.5138C29.1399 16.04 28.9861 15.4263 28.5136 15.1413V15.1425Z" fill="#1100FF"/>
</svg>
