<svg width="32" height="32" viewBox="0 0 32 32" fill="none" xmlns="http://www.w3.org/2000/svg">
<path fill-rule="evenodd" clip-rule="evenodd" d="M19 4C17.8954 4 17 4.89543 17 6C17 7.10457 17.8954 8 19 8C20.1046 8 21 7.10457 21 6C21 4.89543 20.1046 4 19 4ZM15 6C15 3.79086 16.7909 2 19 2C21.2091 2 23 3.79086 23 6C23 8.20914 21.2091 10 19 10C16.7909 10 15 8.20914 15 6Z" fill="#1100FF"/>
<path fill-rule="evenodd" clip-rule="evenodd" d="M6.70681 16.7074L6.7091 16.7051L6.72101 16.6933C6.7322 16.6823 6.74984 16.6651 6.77363 16.6422C6.8212 16.5963 6.89328 16.5277 6.98744 16.4407C7.17592 16.2664 7.45192 16.0191 7.79611 15.7325C8.48791 15.1565 9.43896 14.4356 10.4967 13.8304C11.5647 13.2193 12.678 12.763 13.7046 12.6485C14.6982 12.5377 15.5768 12.7457 16.321 13.4341L16.3222 13.4352C16.6964 13.7801 17.0769 14.1916 17.4846 14.6324C19.2495 16.5407 21.524 19 26 19C26.5523 19 27 18.5522 27 18C27 17.4477 26.5523 17 26 17C22.4738 17 20.8835 15.3049 19.1615 13.4694C18.691 12.968 18.2107 12.456 17.6784 11.9653C16.4227 10.8041 14.9266 10.4998 13.4829 10.6608C12.072 10.8182 10.6853 11.4182 9.50334 12.0945C8.31104 12.7768 7.26209 13.5747 6.51639 14.1955C6.14183 14.5074 5.83971 14.778 5.62975 14.9721C5.52468 15.0693 5.44247 15.1474 5.38555 15.2023C5.35709 15.2297 5.33493 15.2514 5.31939 15.2666L5.30107 15.2847L5.2957 15.29L5.29398 15.2918C5.29398 15.2918 5.2929 15.2928 5.98015 15.9801L5.29289 15.2928C4.90237 15.6834 4.90237 16.3165 5.29289 16.7071C5.68332 17.0975 6.31626 17.0976 6.70681 16.7074Z" fill="#1100FF"/>
<path fill-rule="evenodd" clip-rule="evenodd" d="M16.7109 11.2579C17.2174 11.4781 17.4495 12.0671 17.2294 12.5737L9.91689 29.3987C9.69675 29.9052 9.10768 30.1373 8.60116 29.9172C8.09465 29.697 7.8625 29.108 8.08264 28.6015L15.3951 11.7765C15.6153 11.2699 16.2044 11.0378 16.7109 11.2579Z" fill="#1100FF"/>
<path fill-rule="evenodd" clip-rule="evenodd" d="M12.8733 17.632C13.1939 17.1823 13.8184 17.0776 14.2681 17.3982L19.5806 21.1857C19.8438 21.3734 20.0001 21.6767 20.0001 22V29C20.0001 29.5523 19.5524 30 19.0001 30C18.4478 30 18.0001 29.5523 18.0001 29V22.5152L13.1071 19.0267C12.6574 18.7061 12.5527 18.0817 12.8733 17.632Z" fill="#1100FF"/>
</svg>
