<svg width="32" height="32" viewBox="0 0 32 32" fill="none" xmlns="http://www.w3.org/2000/svg">
<path d="M19.0008 11.0004C21.2059 11.0004 23.001 9.20654 23.001 7.00019C23.001 4.79383 21.2071 3 19.0008 3C16.7944 3 15.0006 4.79383 15.0006 7.00019C15.0006 9.20654 16.7957 11.0004 19.0008 11.0004ZM19.0008 5.00009C20.1033 5.00009 21.0009 5.89763 21.0009 7.00019C21.0009 8.10274 20.1033 9.00028 19.0008 9.00028C17.8982 9.00028 17.0007 8.10274 17.0007 7.00019C17.0007 5.89763 17.8982 5.00009 19.0008 5.00009Z" fill="#1100FF"/>
<path d="M27.7037 15.9856C27.3887 15.6693 26.9124 15.6143 26.5411 15.8181L26.5386 15.8131L26.5536 15.8056C26.5461 15.8093 25.7436 16.1856 24.276 16.0344C22.8797 15.8906 20.5921 15.2318 17.6182 12.913C17.6145 12.9105 17.6107 12.9067 17.607 12.9042C17.5395 12.8342 17.4607 12.7742 17.3732 12.7255C15.4944 11.3116 12.6855 9.85282 9.56161 10.4553C7.58777 10.8354 6.44521 11.8517 6.32146 11.9654C5.91644 12.3404 5.88894 12.9755 6.26396 13.3817C6.63897 13.7867 7.269 13.8142 7.67402 13.4392C7.80903 13.3192 10.9004 10.6416 15.7494 14.018C15.3706 15.3231 14.5068 17.5082 13.058 19.5108C13.0343 19.5395 13.013 19.5695 12.9918 19.5995C12.9005 19.7233 12.8093 19.8458 12.713 19.9683C10.3541 22.9847 7.45526 24.3422 4.10011 24.0047C3.55008 23.9497 3.06006 24.3497 3.00506 24.8998C2.95005 25.4498 3.35007 25.9398 3.9001 25.9948C4.29637 26.0348 4.68888 26.0548 5.07765 26.0548C8.59906 26.0548 11.7417 24.4172 14.2306 21.2733C16.6632 21.9121 21.0021 23.7835 21.0021 29C21.0021 29.5525 21.4497 30 22.0022 30C22.5547 30 23.0022 29.5525 23.0022 29C23.0022 25.9173 21.7422 23.3309 19.3583 21.5196C18.0458 20.5221 16.5969 19.912 15.4394 19.5445C16.3907 18.0057 17.047 16.4694 17.4507 15.2731C20.6759 17.5194 23.2385 18.0632 24.9648 18.0632C26.0386 18.0632 26.7887 17.8532 27.1724 17.7107C27.2262 17.6957 27.3274 17.6594 27.4387 17.5994C27.4512 17.5932 27.4599 17.5894 27.4649 17.5869C27.5562 17.5344 27.6524 17.4682 27.7325 17.3857C28.105 17.0006 28.0875 16.3706 27.7049 15.9856H27.7037Z" fill="#1100FF"/>
</svg>
