<svg width="32" height="32" viewBox="0 0 32 32" fill="none" xmlns="http://www.w3.org/2000/svg">
<path d="M19.692 5.92875C22.7946 6.76137 25.2386 9.20538 26.0713 12.308C26.1915 12.755 26.5959 13.0504 27.0378 13.0504C27.1242 13.0504 27.2106 13.0392 27.2983 13.0154C27.8329 12.8714 28.1497 12.323 28.0057 11.7884C26.989 7.9984 24.0016 5.01099 20.2116 3.99432C19.677 3.85033 19.1286 4.16836 18.9846 4.70173C18.8406 5.23511 19.1586 5.78601 19.692 5.92875Z" fill="#1100FF"/>
<path d="M18.6553 9.79885C20.3832 10.2584 21.7429 11.6168 22.2011 13.3447C22.3201 13.7929 22.7258 14.0897 23.169 14.0897C23.2541 14.0897 23.3405 14.0784 23.4269 14.0558C23.9615 13.9144 24.2796 13.3647 24.1381 12.8301C23.4945 10.4086 21.5914 8.50548 19.1699 7.86192C18.6353 7.72044 18.0869 8.03846 17.9442 8.57309C17.8027 9.10772 18.1207 9.65612 18.6553 9.79885Z" fill="#1100FF"/>
<path d="M27.7841 19.7915L21.9307 17.2774C21.3009 17.0019 20.5847 17.0683 20.0213 17.4502L16.8924 19.5461C14.9743 18.6233 13.408 17.0608 12.4789 15.1464L14.5724 11.9624C14.933 11.399 14.9893 10.6978 14.7239 10.0893L12.2122 4.22595C11.8679 3.39959 11.0078 2.90128 10.1201 3.01646C6.63182 3.46345 4 6.45211 4 9.97039C4 19.9117 12.0883 28 22.0296 28C25.5466 28 28.5353 25.3682 28.9823 21.8799C29.0962 20.9922 28.5992 20.1321 27.7828 19.7928L27.7841 19.7915ZM22.0296 25.9955C13.1926 25.9955 6.00329 18.8062 6.00329 9.96913C6.00329 7.46001 7.87887 5.32651 10.3655 5.00348L12.8909 10.8706L10.7962 14.0571C10.4205 14.6381 10.373 15.3868 10.671 16.0103L10.6735 16.0141C11.7978 18.3366 13.6984 20.2322 16.0298 21.3541C16.6658 21.6558 17.4245 21.5982 18.0043 21.2063L21.1344 19.1154L26.9953 21.632C26.6722 24.1199 24.5387 25.9942 22.0296 25.9942V25.9955Z" fill="#1100FF"/>
</svg>
