<svg width="32" height="32" viewBox="0 0 32 32" fill="none" xmlns="http://www.w3.org/2000/svg">
<path fill-rule="evenodd" clip-rule="evenodd" d="M5.32732 4.26007C5.73598 3.88856 6.36843 3.91868 6.73993 4.32733L15.1055 13.5294C15.1123 13.5367 15.119 13.5441 15.1256 13.5516L26.7399 26.3273C27.1114 26.736 27.0813 27.3684 26.6727 27.7399C26.264 28.1115 25.6316 28.0813 25.2601 27.6727L14.0095 15.2971C13.6231 15.3801 13.2421 15.4875 12.8688 15.6185L12.8659 15.6195L12.1413 19.305C12.0737 19.6281 11.928 19.9297 11.7171 20.1837C11.5062 20.4376 11.2364 20.6362 10.9312 20.762L10.9211 20.7662L5.01352 23.1266C4.6105 23.2919 4.16429 23.3202 3.74352 23.2071C3.3214 23.0936 2.94849 22.8442 2.68249 22.4974C1.64158 21.1513 1.1266 19.4721 1.23391 17.7738C1.34129 16.0747 2.06426 14.4729 3.26749 13.2683L3.2687 13.2671C4.85367 11.6858 6.71637 10.4169 8.75899 9.52151L5.26005 5.67268C4.88855 5.26402 4.91866 4.63157 5.32732 4.26007ZM10.1887 11.0942C8.12693 11.8957 6.25129 13.1167 4.6819 14.6823C3.8228 15.5426 3.30661 16.6865 3.22993 17.9C3.15332 19.1124 3.52076 20.3113 4.26353 21.2725L4.26641 21.2713L10.1701 18.9124C10.1734 18.9109 10.1762 18.9086 10.1785 18.9059C10.1807 18.9032 10.1824 18.9 10.1833 18.8966L10.9063 15.2196L10.9092 15.2054C10.9805 14.8684 11.1376 14.5556 11.3654 14.2972C11.5928 14.0391 11.8829 13.8441 12.2077 13.731M10.1887 11.0942L12.4973 13.6336L10.1887 11.0942ZM21.7146 11.0526C19.6124 10.2499 17.3646 9.89918 15.1177 10.0235C14.5663 10.054 14.0945 9.63168 14.064 9.08024C14.0335 8.5288 14.4558 8.05704 15.0073 8.02653C17.5347 7.88671 20.0633 8.28118 22.4281 9.18422C24.7929 10.0873 26.9407 11.4786 28.7317 13.2675L28.7325 13.2683C29.9357 14.4729 30.6587 16.0747 30.7661 17.7738C30.8734 19.4721 30.3584 21.1513 29.3175 22.4974C29.0515 22.8441 28.6786 23.0936 28.2565 23.2071C27.8356 23.3202 27.3893 23.2919 26.9863 23.1265L26.4911 22.9285C25.9783 22.7234 25.7289 22.1414 25.934 21.6286C26.1391 21.1158 26.7211 20.8664 27.2339 21.0715L27.7364 21.2725C28.4792 20.3113 28.8467 19.1124 28.7701 17.9C28.6934 16.6865 28.1771 15.5425 27.3179 14.6821C25.7259 13.092 23.8166 11.8553 21.7146 11.0526Z" fill="#1100FF"/>
</svg>
