<svg width="32" height="32" viewBox="0 0 32 32" fill="none" xmlns="http://www.w3.org/2000/svg">
<path d="M27.7841 19.7915L21.9307 17.2774C21.3009 17.0019 20.5847 17.0683 20.0213 17.4502L16.8924 19.5461C14.9743 18.6233 13.408 17.0608 12.4789 15.1464L14.5724 11.9624C14.933 11.399 14.9893 10.6978 14.7239 10.0893L12.2122 4.22595C11.8679 3.39959 11.0078 2.90128 10.1201 3.01646C6.63182 3.46345 4 6.45211 4 9.97039C4 19.9117 12.0883 28 22.0296 28C25.5466 28 28.5353 25.3682 28.9823 21.8799C29.0962 20.9922 28.5992 20.1321 27.7828 19.7928L27.7841 19.7915ZM22.0296 25.9955C13.1926 25.9955 6.00329 18.8062 6.00329 9.96913C6.00329 7.46001 7.87887 5.32651 10.3655 5.00348L12.8909 10.8706L10.7962 14.0571C10.4205 14.6381 10.373 15.3868 10.671 16.0103L10.6735 16.0141C11.7978 18.3366 13.6984 20.2322 16.0298 21.3541C16.6658 21.6558 17.4245 21.5982 18.0043 21.2063L21.1344 19.1154L26.9953 21.632C26.6722 24.1199 24.5387 25.9942 22.0296 25.9942V25.9955Z" fill="#1100FF"/>
<path d="M19.0297 12.0726C19.0309 12.0864 19.0334 12.0989 19.0359 12.1127C19.0385 12.1314 19.041 12.1502 19.0447 12.1702C19.0485 12.1865 19.0522 12.2016 19.056 12.2166C19.0597 12.2329 19.0635 12.2491 19.0685 12.2654C19.0735 12.2804 19.0785 12.2955 19.0848 12.3105C19.091 12.3268 19.096 12.3418 19.1023 12.3581C19.1086 12.3718 19.1148 12.3856 19.1211 12.3994C19.1286 12.4157 19.1361 12.4319 19.1436 12.447C19.1511 12.4595 19.1586 12.472 19.1662 12.4845C19.1749 12.4995 19.1837 12.5158 19.1937 12.5308C19.2025 12.5446 19.2137 12.5571 19.2225 12.5709C19.2325 12.5834 19.2413 12.5972 19.2513 12.6097C19.2701 12.6323 19.2901 12.6535 19.3101 12.6748C19.3127 12.6773 19.3152 12.6798 19.3177 12.6823C19.3202 12.6848 19.3214 12.6861 19.3239 12.6886C19.3452 12.7099 19.3677 12.7299 19.3915 12.7487C19.4028 12.7587 19.4153 12.7675 19.4278 12.7762C19.4416 12.7863 19.4554 12.7975 19.4704 12.8075C19.4842 12.8176 19.4992 12.8251 19.5142 12.8338C19.528 12.8414 19.5405 12.8501 19.5543 12.8576C19.5693 12.8651 19.5843 12.8727 19.6006 12.8802C19.6144 12.8864 19.6294 12.8939 19.6432 12.9002C19.6582 12.9065 19.6732 12.9115 19.6883 12.9165C19.7045 12.9227 19.7196 12.9277 19.7358 12.9328C19.7509 12.9378 19.7659 12.9403 19.7809 12.944C19.7972 12.9478 19.8135 12.9528 19.831 12.9565C19.8485 12.9603 19.8661 12.9615 19.8836 12.9641C19.8986 12.9666 19.9124 12.9691 19.9274 12.9703C19.96 12.9741 19.9938 12.9753 20.0263 12.9753H25.0345C25.588 12.9753 26.0362 12.5271 26.0362 11.9737C26.0362 11.4203 25.588 10.972 25.0345 10.972H22.444L26.7436 6.67247C27.1342 6.28183 27.1342 5.64704 26.7436 5.25639C26.353 4.86575 25.7182 4.86575 25.3275 5.25639L21.028 9.55596V6.96545C21.028 6.41204 20.5797 5.96381 20.0263 5.96381C19.4729 5.96381 19.0247 6.41204 19.0247 6.96545V11.9724C19.0247 12.0062 19.0259 12.0388 19.0297 12.0726Z" fill="#1100FF"/>
</svg>
