<svg width="32" height="32" viewBox="0 0 32 32" fill="none" xmlns="http://www.w3.org/2000/svg">
<path fill-rule="evenodd" clip-rule="evenodd" d="M6.71248 18.6958C4.891 20.5173 4.89055 23.4676 6.70851 25.2856C8.52647 27.1035 11.4768 27.1031 13.2983 25.2816L25.2926 13.2873C27.1141 11.4658 27.1145 8.51548 25.2966 6.69752C23.4786 4.87956 20.5283 4.88002 18.7068 6.7015L6.71248 18.6958ZM5.29429 26.6998C2.69396 24.0995 2.69706 19.8828 5.29827 17.2816L17.2926 5.28728C19.8938 2.68608 24.1105 2.68297 26.7108 5.28331C29.3111 7.88364 29.308 12.1003 26.7068 14.7015L14.7125 26.6958C12.1113 29.297 7.89463 29.3001 5.29429 26.6998Z" fill="#1100FF"/>
<path fill-rule="evenodd" clip-rule="evenodd" d="M11.2927 11.2929C11.6832 10.9024 12.3164 10.9024 12.7069 11.2929L20.7069 19.2929C21.0974 19.6834 21.0974 20.3166 20.7069 20.7071C20.3164 21.0976 19.6832 21.0976 19.2927 20.7071L11.2927 12.7071C10.9021 12.3166 10.9021 11.6834 11.2927 11.2929Z" fill="#1100FF"/>
<path fill-rule="evenodd" clip-rule="evenodd" d="M23.7813 10.3673C24.1652 10.7643 24.1547 11.3973 23.7577 11.7813L20.7077 14.7313C20.3107 15.1153 19.6776 15.1047 19.2937 14.7077C18.9097 14.3108 18.9203 13.6777 19.3172 13.2937L22.3672 10.3437C22.7642 9.95975 23.3973 9.9703 23.7813 10.3673Z" fill="#1100FF"/>
</svg>
