<svg width="32" height="32" viewBox="0 0 32 32" fill="none" xmlns="http://www.w3.org/2000/svg">
<path fill-rule="evenodd" clip-rule="evenodd" d="M15.229 10.0266C15.7666 10.1531 16.0999 10.6914 15.9734 11.229L11.9734 28.229C11.8469 28.7666 11.3085 29.0999 10.7709 28.9734C10.2333 28.8469 9.90007 28.3085 10.0266 27.7709L14.0266 10.7709C14.1531 10.2333 14.6914 9.90007 15.229 10.0266Z" fill="#1100FF"/>
<path fill-rule="evenodd" clip-rule="evenodd" d="M17.5285 5.14685C16.144 4.90826 14.7228 4.9971 13.3788 5.40626C12.0348 5.81543 10.8053 6.53355 9.78862 7.50315C8.77194 8.47275 7.99638 9.66689 7.524 10.99C7.05162 12.3131 6.89555 13.7284 7.06829 15.1227C7.24102 16.5169 7.73776 17.8514 8.51874 19.0192C8.82575 19.4783 8.70247 20.0993 8.24339 20.4063C7.7843 20.7133 7.16325 20.5901 6.85624 20.131C5.9017 18.7036 5.29458 17.0726 5.08346 15.3686C4.87234 13.6645 5.06309 11.9347 5.64044 10.3175C6.21779 8.7004 7.16571 7.24089 8.40831 6.05582C9.65092 4.87076 11.1537 3.99305 12.7964 3.49296C14.439 2.99287 16.176 2.88429 17.8681 3.17591C19.5603 3.46752 21.1607 4.15123 22.5412 5.17232C23.9217 6.1934 25.044 7.52349 25.8183 9.05613C26.5925 10.5888 26.9972 12.2814 27 13.9985L27 14.0001C27 20.0404 22.5885 24.0001 18 24.0001C15.7588 24.0001 14.2359 23.2541 13.264 22.453C12.7852 22.0584 12.4516 21.6602 12.2337 21.3524C12.1247 21.1983 12.044 21.066 11.9881 20.9667C11.9601 20.917 11.9382 20.8754 11.922 20.8434C11.9139 20.8273 11.9072 20.8136 11.9018 20.8025L11.8948 20.7876L11.892 20.7817L11.8908 20.7791L11.8903 20.7779C11.8903 20.7779 11.8898 20.7767 12.8 20.3626L11.8898 20.7767C11.6611 20.274 11.8832 19.6811 12.3859 19.4524C12.8853 19.2251 13.4737 19.4429 13.7057 19.9386L13.7069 19.941C13.7102 19.9476 13.718 19.9627 13.7306 19.9851C13.756 20.0301 13.8003 20.1038 13.8662 20.197C13.9984 20.3838 14.2148 20.6449 14.536 20.9097C15.1641 21.4273 16.2412 22.0001 18 22.0001C21.4114 22.0001 24.9998 19.0099 25 14.0005C24.9976 12.596 24.6664 11.2116 24.0331 9.95794C23.3997 8.70397 22.4814 7.61571 21.3519 6.78028C20.2224 5.94485 18.913 5.38545 17.5285 5.14685Z" fill="#1100FF"/>
</svg>
