<svg width="32" height="32" viewBox="0 0 32 32" fill="none" xmlns="http://www.w3.org/2000/svg">
<path fill-rule="evenodd" clip-rule="evenodd" d="M13.158 4.09098L16.8459 14.2119C17.7666 13.643 18.506 12.8104 18.9607 11.8116C19.5581 10.4992 19.6162 9.00477 19.1226 7.64998C18.6289 6.29519 17.6229 5.18845 16.3213 4.56806C15.3306 4.09587 14.2289 3.93417 13.158 4.09098ZM11.5116 2.4421C13.3706 1.80155 15.4068 1.91666 17.1818 2.76264C18.9568 3.60863 20.3285 5.11782 21.0017 6.96526C21.6749 8.8127 21.5956 10.8506 20.781 12.6402C19.9664 14.4298 18.4816 15.8279 16.6462 16.5334C16.3958 16.6297 16.1173 16.6213 15.8731 16.5102C15.6289 16.399 15.4397 16.1945 15.3478 15.9424L10.8978 3.72991C10.806 3.47785 10.8193 3.19947 10.9347 2.9573C11.0501 2.71513 11.258 2.52949 11.5116 2.4421Z" fill="#1100FF"/>
<path fill-rule="evenodd" clip-rule="evenodd" d="M11.8114 11.0393C10.499 10.4419 9.00452 10.3838 7.64973 10.8774C6.29495 11.3711 5.1882 12.377 4.56782 13.6787C4.09563 14.6694 3.93393 15.771 4.09073 16.8419L14.2117 13.1541C13.6428 12.2333 12.8102 11.4939 11.8114 11.0393ZM6.96501 8.99828C8.81245 8.32511 10.8504 8.40437 12.6399 9.21898C14.4295 10.0336 15.8276 11.5184 16.5332 13.3537C16.6295 13.6041 16.6211 13.8827 16.5099 14.1269C16.3988 14.371 16.1942 14.5603 15.9422 14.6521L3.72967 19.1021C3.47761 19.194 3.19922 19.1807 2.95705 19.0653C2.71489 18.9499 2.52925 18.742 2.44186 18.4883C1.8013 16.6293 1.91641 14.5931 2.7624 12.8182C3.60838 11.0432 5.11757 9.67145 6.96501 8.99828Z" fill="#1100FF"/>
<path fill-rule="evenodd" clip-rule="evenodd" d="M14.1267 13.4899C14.3709 13.6011 14.5602 13.8057 14.652 14.0577L19.102 26.2702C19.1939 26.5223 19.1806 26.8007 19.0652 27.0428C18.9497 27.285 18.7418 27.4706 18.4882 27.558C16.6292 28.1986 14.593 28.0835 12.818 27.2375C11.0431 26.3915 9.67133 24.8823 8.99816 23.0349C8.32499 21.1874 8.40424 19.1495 9.21886 17.3599C10.0335 15.5704 11.5183 14.1723 13.3536 13.4667C13.604 13.3704 13.8826 13.3788 14.1267 13.4899ZM13.1539 15.7882C12.2332 16.3571 11.4938 17.1897 11.0391 18.1885C10.4418 19.5009 10.3836 20.9954 10.8773 22.3502C11.371 23.7049 12.3769 24.8117 13.6785 25.4321C14.6692 25.9043 15.7709 26.066 16.8418 25.9092L13.1539 15.7882Z" fill="#1100FF"/>
<path fill-rule="evenodd" clip-rule="evenodd" d="M27.0427 10.9349C27.2848 11.0503 27.4705 11.2582 27.5578 11.5118C28.1984 13.3708 28.0833 15.407 27.2373 17.182C26.3913 18.9569 24.8821 20.3287 23.0347 21.0019C21.1873 21.675 19.1493 21.5958 17.3598 20.7812C15.5702 19.9666 14.1721 18.4817 13.4665 16.6464C13.3702 16.396 13.3786 16.1175 13.4898 15.8733C13.6009 15.6291 13.8055 15.4399 14.0575 15.348L26.27 10.898C26.5221 10.8062 26.8005 10.8195 27.0427 10.9349ZM15.7881 16.8461C16.357 17.7668 17.1895 18.5062 18.1884 18.9609C19.5007 19.5583 20.9952 19.6164 22.35 19.1227C23.7048 18.6291 24.8115 17.6231 25.4319 16.3215C25.9041 15.3308 26.0658 14.2291 25.909 13.1582L15.7881 16.8461Z" fill="#1100FF"/>
<path fill-rule="evenodd" clip-rule="evenodd" d="M19.8554 19.8555C20.2459 19.4649 20.8791 19.4649 21.2696 19.8555L28.7071 27.293C29.0976 27.6835 29.0976 28.3166 28.7071 28.7072C28.3166 29.0977 27.6834 29.0977 27.2929 28.7072L19.8554 21.2697C19.4649 20.8791 19.4649 20.246 19.8554 19.8555Z" fill="#1100FF"/>
</svg>
