<svg width="32" height="32" viewBox="0 0 32 32" fill="none" xmlns="http://www.w3.org/2000/svg">
<path fill-rule="evenodd" clip-rule="evenodd" d="M16 4.99976C11.6174 4.99976 7.34487 6.37255 3.78249 8.92533L3.7728 8.9321L16 28.1284L28.2272 8.9321L28.2175 8.92533C24.6551 6.37255 20.3826 4.99976 16 4.99976ZM2.62569 7.2938C6.52611 4.50135 11.2029 2.99976 16 2.99976C20.7972 2.99976 25.4739 4.50135 29.3743 7.2938C29.7962 7.58544 30.0893 8.02906 30.1917 8.532C30.2949 9.03885 30.1965 9.56595 29.9174 10.0014L29.9163 10.003L17.6829 29.2091C17.5045 29.4931 17.257 29.7274 16.9637 29.89C16.6688 30.0535 16.3372 30.1393 16 30.1393C15.6629 30.1393 15.3312 30.0535 15.0364 29.89C14.743 29.7274 14.4955 29.4931 14.3171 29.2091L2.08368 10.003L2.08246 10.0011C1.80345 9.56574 1.70509 9.03875 1.80831 8.532C1.91076 8.02907 2.20376 7.58544 2.62569 7.2938Z" fill="#1100FF"/>
<path fill-rule="evenodd" clip-rule="evenodd" d="M15.9999 8.99829C12.0701 8.99829 8.26143 10.3588 5.22102 12.8487C4.79373 13.1986 4.16368 13.1359 3.81376 12.7086C3.46384 12.2813 3.52656 11.6513 3.95384 11.3014C7.35168 8.51876 11.6081 6.99829 15.9999 6.99829C20.3918 6.99829 24.6482 8.51876 28.046 11.3014C28.4733 11.6513 28.536 12.2813 28.1861 12.7086C27.8362 13.1359 27.2061 13.1986 26.7788 12.8487C23.7384 10.3588 19.9298 8.99829 15.9999 8.99829Z" fill="#1100FF"/>
<path fill-rule="evenodd" clip-rule="evenodd" d="M22.4471 17.1843C22.0872 17.0362 21.6977 16.9743 21.3096 17.0033C20.9215 17.0323 20.5455 17.1516 20.2117 17.3515C19.8778 17.5515 19.5952 17.8266 19.3864 18.1551C19.1776 18.4835 19.0483 18.8561 19.0089 19.2433C18.9695 19.6305 19.0211 20.0215 19.1595 20.3853C19.2979 20.749 19.5193 21.0754 19.806 21.3385C20.0928 21.6016 20.4371 21.7941 20.8114 21.9007C21.3425 22.052 21.6505 22.6052 21.4992 23.1364C21.348 23.6676 20.7947 23.9755 20.2636 23.8243C19.5898 23.6324 18.9702 23.2859 18.454 22.8123C17.9378 22.3387 17.5393 21.7512 17.2902 21.0964C17.0411 20.4417 16.9483 19.7378 17.0192 19.0409C17.0901 18.3439 17.3227 17.6732 17.6986 17.082C18.0744 16.4909 18.5831 15.9956 19.1841 15.6357C19.7851 15.2758 20.4618 15.0611 21.1604 15.0089C21.859 14.9566 22.5601 15.0682 23.208 15.3347C23.8558 15.6012 24.4325 16.0152 24.8921 16.5439C25.2545 16.9607 25.2104 17.5923 24.7936 17.9547C24.3768 18.317 23.7451 18.2729 23.3828 17.8561C23.1274 17.5624 22.8071 17.3323 22.4471 17.1843Z" fill="#1100FF"/>
<path fill-rule="evenodd" clip-rule="evenodd" d="M11.5371 15.2266C11.1236 15.0374 10.6663 14.9646 10.2145 15.016C9.7627 15.0674 9.33346 15.2411 8.973 15.5183C8.61254 15.7955 8.33451 16.1658 8.16886 16.5893C7.96767 17.1036 7.38762 17.3575 6.87329 17.1563C6.35895 16.9551 6.1051 16.3751 6.30629 15.8607C6.60446 15.0984 7.1049 14.4319 7.75373 13.9329C8.40256 13.4339 9.1752 13.1213 9.98848 13.0288C10.8018 12.9363 11.6249 13.0674 12.3692 13.4079C13.1135 13.7484 13.7509 14.2855 14.2126 14.9614C14.6744 15.6372 14.9431 16.4262 14.9898 17.2434C15.0364 18.0606 14.8593 18.875 14.4775 19.599C14.0957 20.3231 13.5237 20.9292 12.823 21.3523C12.1223 21.7754 11.3195 21.9993 10.5009 22H10.2751C9.72279 22 9.27507 21.5523 9.27507 21C9.27507 20.4477 9.72279 20 10.2751 20H10.4992C10.9538 19.9995 11.4001 19.8751 11.7892 19.6402C12.1785 19.4051 12.4963 19.0684 12.7084 18.6661C12.9206 18.2639 13.0189 17.8114 12.993 17.3574C12.9671 16.9034 12.8178 16.4651 12.5613 16.0896C12.3047 15.7142 11.9507 15.4158 11.5371 15.2266Z" fill="#1100FF"/>
</svg>
