<svg width="32" height="32" viewBox="0 0 32 32" fill="none" xmlns="http://www.w3.org/2000/svg">
<path fill-rule="evenodd" clip-rule="evenodd" d="M4 6C4 4.89543 4.89543 4 6 4H26C27.1046 4 28 4.89543 28 6V26C28 27.1046 27.1046 28 26 28H6C4.89543 28 4 27.1046 4 26V6ZM26 6H6V26H26V6Z" fill="#1100FF"/>
<path fill-rule="evenodd" clip-rule="evenodd" d="M4.58049 4.58037C4.97102 4.18984 5.60418 4.18984 5.9947 4.58037L27.4197 26.0054C27.8102 26.3959 27.8102 27.0291 27.4197 27.4196C27.0292 27.8101 26.396 27.8101 26.0055 27.4196L4.58049 5.99458C4.18997 5.60406 4.18997 4.97089 4.58049 4.58037Z" fill="#1100FF"/>
</svg>
