<svg width="32" height="32" viewBox="0 0 32 32" fill="none" xmlns="http://www.w3.org/2000/svg">
<path fill-rule="evenodd" clip-rule="evenodd" d="M16 6C10.4772 6 6 10.4772 6 16C6 21.5228 10.4772 26 16 26C21.5228 26 26 21.5228 26 16C26 10.4772 21.5228 6 16 6ZM4 16C4 9.37258 9.37258 4 16 4C22.6274 4 28 9.37258 28 16C28 22.6274 22.6274 28 16 28C9.37258 28 4 22.6274 4 16Z" fill="#1100FF"/>
<path fill-rule="evenodd" clip-rule="evenodd" d="M27.3936 7.91387C26.3651 7.85393 24.9669 8.04168 23.2898 8.5018C22.7572 8.64793 22.207 8.33464 22.0609 7.80203C21.9147 7.26943 22.228 6.71921 22.7606 6.57308C24.5461 6.08321 26.1791 5.8397 27.51 5.91726C28.7967 5.99225 30.0803 6.39124 30.7259 7.49506L30.7293 7.50086C31.3061 8.50234 31.1147 9.67119 30.6595 10.7128C30.1944 11.7774 29.3679 12.9233 28.3012 14.0808C26.1594 16.4048 22.8878 18.9486 18.9999 21.1912C15.1124 23.4335 11.2738 24.9948 8.18987 25.6881C6.65396 26.0334 5.24793 26.1766 4.09268 26.0473C2.96185 25.9206 1.85397 25.5019 1.27313 24.5024L1.271 24.4987C0.632929 23.3899 0.931141 22.0768 1.50789 20.9267C2.1053 19.7354 3.13162 18.4415 4.44661 17.1394C4.83905 16.7508 5.47221 16.7539 5.86081 17.1463C6.2494 17.5388 6.24628 18.1719 5.85384 18.5605C4.61883 19.7834 3.75765 20.902 3.29569 21.8232C2.81442 22.7829 2.87965 23.2821 3.0034 23.4993C3.11732 23.6935 3.44606 23.9624 4.3152 24.0597C5.16268 24.1546 6.32618 24.0571 7.75121 23.7368C10.5891 23.0988 14.2381 21.6289 18.0006 19.4587C21.7626 17.2888 24.8598 14.8638 26.8305 12.7254C27.8201 11.6516 28.4857 10.6928 28.8268 9.91207C29.1762 9.11238 29.1076 8.69546 28.9978 8.50191C28.8666 8.28096 28.4616 7.97611 27.3936 7.91387Z" fill="#1100FF"/>
</svg>
