<svg width="32" height="32" viewBox="0 0 32 32" fill="none" xmlns="http://www.w3.org/2000/svg">
<path fill-rule="evenodd" clip-rule="evenodd" d="M10.7071 21.2929C11.0976 21.6834 11.0976 22.3166 10.7071 22.7071L3.70711 29.7071C3.31658 30.0976 2.68342 30.0976 2.29289 29.7071C1.90237 29.3166 1.90237 28.6834 2.29289 28.2929L9.29289 21.2929C9.68342 20.9024 10.3166 20.9024 10.7071 21.2929Z" fill="#1100FF"/>
<path fill-rule="evenodd" clip-rule="evenodd" d="M29.7071 2.29289C30.0976 2.68342 30.0976 3.31658 29.7071 3.70711L22.7071 10.7071C22.3166 11.0976 21.6834 11.0976 21.2929 10.7071C20.9024 10.3166 20.9024 9.68342 21.2929 9.29289L28.2929 2.29289C28.6834 1.90237 29.3166 1.90237 29.7071 2.29289Z" fill="#1100FF"/>
<path fill-rule="evenodd" clip-rule="evenodd" d="M9.32907 17.0871C8.54802 17.8682 8.54802 19.1345 9.32907 19.9156L12.0868 22.6733C12.8678 23.4543 14.1342 23.4543 14.9152 22.6733L22.6757 14.9128C23.4568 14.1317 23.4568 12.8654 22.6757 12.0844L19.918 9.32663C19.1369 8.54558 17.8706 8.54558 17.0896 9.32663L9.32907 17.0871ZM7.91485 21.3298C6.35276 19.7677 6.35276 17.235 7.91485 15.6729L15.6753 7.91242C17.2374 6.35032 19.7701 6.35032 21.3322 7.91242L24.0899 10.6701C25.652 12.2322 25.652 14.7649 24.0899 16.327L16.3294 24.0875C14.7673 25.6496 12.2347 25.6496 10.6726 24.0875L7.91485 21.3298Z" fill="#1100FF"/>
<path fill-rule="evenodd" clip-rule="evenodd" d="M10.7929 10.7929C11.1834 10.4024 11.8166 10.4024 12.2071 10.7929L21.2071 19.7929C21.5976 20.1834 21.5976 20.8166 21.2071 21.2071C20.8166 21.5976 20.1834 21.5976 19.7929 21.2071L10.7929 12.2071C10.4024 11.8166 10.4024 11.1834 10.7929 10.7929Z" fill="#1100FF"/>
<path fill-rule="evenodd" clip-rule="evenodd" d="M24.0511 18.6838C24.2257 18.1599 24.7921 17.8767 25.316 18.0513L28.316 19.0513C28.84 19.226 29.1231 19.7923 28.9485 20.3163C28.7738 20.8402 28.2075 21.1234 27.6836 20.9487L24.6836 19.9487C24.1596 19.7741 23.8765 19.2077 24.0511 18.6838Z" fill="#1100FF"/>
<path fill-rule="evenodd" clip-rule="evenodd" d="M3.0511 11.6838C3.22575 11.1599 3.79207 10.8767 4.31601 11.0513L7.31601 12.0513C7.83995 12.226 8.12311 12.7923 7.94847 13.3163C7.77382 13.8402 7.2075 14.1234 6.68356 13.9487L3.68356 12.9487C3.15961 12.7741 2.87645 12.2077 3.0511 11.6838Z" fill="#1100FF"/>
<path fill-rule="evenodd" clip-rule="evenodd" d="M11.6836 3.05134C12.2075 2.8767 12.7738 3.15986 12.9485 3.6838L13.9485 6.6838C14.1231 7.20774 13.84 7.77406 13.316 7.94871C12.7921 8.12336 12.2257 7.8402 12.0511 7.31625L11.0511 4.31626C10.8765 3.79231 11.1596 3.22599 11.6836 3.05134Z" fill="#1100FF"/>
<path fill-rule="evenodd" clip-rule="evenodd" d="M18.6836 24.0513C19.2075 23.8767 19.7738 24.1599 19.9485 24.6838L20.9485 27.6838C21.1231 28.2077 20.84 28.7741 20.316 28.9487C19.7921 29.1234 19.2257 28.8402 19.0511 28.3163L18.0511 25.3163C17.8765 24.7923 18.1596 24.226 18.6836 24.0513Z" fill="#1100FF"/>
</svg>
