<svg width="32" height="32" viewBox="0 0 32 32" fill="none" xmlns="http://www.w3.org/2000/svg">
<path fill-rule="evenodd" clip-rule="evenodd" d="M16.2073 4.79289C16.5978 5.18342 16.5978 5.81658 16.2073 6.20711L9.03094 13.3835C8.7523 13.661 8.53122 13.9909 8.38036 14.3541C8.22951 14.7173 8.15186 15.1067 8.15186 15.5C8.15186 15.8933 8.22951 16.2827 8.38036 16.6459C8.53122 17.0091 8.75231 17.339 9.03094 17.6165L9.0323 17.6179L14.3837 22.9693C14.6612 23.2479 14.9911 23.469 15.3543 23.6198C15.7175 23.7707 16.1069 23.8483 16.5002 23.8483C16.8935 23.8483 17.2829 23.7707 17.6461 23.6198C18.0093 23.469 18.3392 23.2479 18.6167 22.9693L18.6181 22.9679L25.7931 15.7929C26.1836 15.4024 26.8168 15.4024 27.2073 15.7929C27.5978 16.1834 27.5978 16.8166 27.2073 17.2071L20.0337 24.3807L20.0329 24.3815C19.5696 24.8463 19.0193 25.2151 18.4132 25.4668C17.8069 25.7187 17.1568 25.8483 16.5002 25.8483C15.8436 25.8483 15.1935 25.7187 14.5871 25.4668C13.9811 25.2151 13.4306 24.8463 12.9674 24.3814L7.61944 19.0335C7.15461 18.5702 6.78506 18.0191 6.53334 17.4131C6.2815 16.8067 6.15186 16.1566 6.15186 15.5C6.15186 14.8434 6.2815 14.1933 6.53334 13.5869C6.78508 12.9808 7.15396 12.4304 7.61883 11.9671L14.7931 4.79289C15.1836 4.40237 15.8168 4.40237 16.2073 4.79289Z" fill="#1100FF"/>
<path fill-rule="evenodd" clip-rule="evenodd" d="M11.7071 20.2929C12.0976 20.6834 12.0976 21.3166 11.7071 21.7071L4.70711 28.7071C4.31658 29.0976 3.68342 29.0976 3.29289 28.7071C2.90237 28.3166 2.90237 27.6834 3.29289 27.2929L10.2929 20.2929C10.6834 19.9024 11.3166 19.9024 11.7071 20.2929Z" fill="#1100FF"/>
<path fill-rule="evenodd" clip-rule="evenodd" d="M23.7071 2.29289C24.0976 2.68342 24.0976 3.31658 23.7071 3.70711L18.7071 8.70711C18.3166 9.09763 17.6834 9.09763 17.2929 8.70711C16.9024 8.31658 16.9024 7.68342 17.2929 7.29289L22.2929 2.29289C22.6834 1.90237 23.3166 1.90237 23.7071 2.29289Z" fill="#1100FF"/>
<path fill-rule="evenodd" clip-rule="evenodd" d="M29.7071 8.29289C30.0976 8.68342 30.0976 9.31658 29.7071 9.70711L24.7071 14.7071C24.3166 15.0976 23.6834 15.0976 23.2929 14.7071C22.9024 14.3166 22.9024 13.6834 23.2929 13.2929L28.2929 8.29289C28.6834 7.90237 29.3166 7.90237 29.7071 8.29289Z" fill="#1100FF"/>
<path fill-rule="evenodd" clip-rule="evenodd" d="M13.2929 3.29289C13.6834 2.90237 14.3166 2.90237 14.7071 3.29289L28.7071 17.2929C29.0976 17.6834 29.0976 18.3166 28.7071 18.7071C28.3166 19.0976 27.6834 19.0976 27.2929 18.7071L13.2929 4.70711C12.9024 4.31658 12.9024 3.68342 13.2929 3.29289Z" fill="#1100FF"/>
</svg>
