<svg width="32" height="32" viewBox="0 0 32 32" fill="none" xmlns="http://www.w3.org/2000/svg">
<path fill-rule="evenodd" clip-rule="evenodd" d="M16 5C9.92487 5 5 9.92487 5 16C5 22.0751 9.92487 27 16 27C22.0751 27 27 22.0751 27 16C27 9.92487 22.0751 5 16 5ZM3 16C3 8.8203 8.8203 3 16 3C23.1797 3 29 8.8203 29 16C29 23.1797 23.1797 29 16 29C8.8203 29 3 23.1797 3 16Z" fill="#1100FF"/>
<path fill-rule="evenodd" clip-rule="evenodd" d="M16 10C12.6863 10 10 12.6863 10 16C10 19.3137 12.6863 22 16 22C19.3137 22 22 19.3137 22 16C22 12.6863 19.3137 10 16 10ZM8 16C8 11.5817 11.5817 8 16 8C20.4183 8 24 11.5817 24 16C24 20.4183 20.4183 24 16 24C11.5817 24 8 20.4183 8 16Z" fill="#1100FF"/>
<path fill-rule="evenodd" clip-rule="evenodd" d="M16 3C16.5523 3 17 3.44772 17 4V9C17 9.55228 16.5523 10 16 10C15.4477 10 15 9.55228 15 9V4C15 3.44772 15.4477 3 16 3Z" fill="#1100FF"/>
<path fill-rule="evenodd" clip-rule="evenodd" d="M6.80559 6.80541C7.19611 6.41488 7.82928 6.41488 8.2198 6.80541L11.7573 10.3429C12.1478 10.7334 12.1478 11.3666 11.7573 11.7571C11.3668 12.1476 10.7336 12.1476 10.3431 11.7571L6.80559 8.21962C6.41506 7.82909 6.41506 7.19593 6.80559 6.80541Z" fill="#1100FF"/>
<path fill-rule="evenodd" clip-rule="evenodd" d="M3 16C3 15.4477 3.44772 15 4 15H9C9.55228 15 10 15.4477 10 16C10 16.5523 9.55228 17 9 17H4C3.44772 17 3 16.5523 3 16Z" fill="#1100FF"/>
<path fill-rule="evenodd" clip-rule="evenodd" d="M11.7573 20.2428C12.1478 20.6334 12.1478 21.2665 11.7573 21.6571L8.2198 25.1946C7.82928 25.5851 7.19611 25.5851 6.80559 25.1946C6.41506 24.804 6.41506 24.1709 6.80559 23.7803L10.3431 20.2428C10.7336 19.8523 11.3668 19.8523 11.7573 20.2428Z" fill="#1100FF"/>
<path fill-rule="evenodd" clip-rule="evenodd" d="M16 22C16.5523 22 17 22.4477 17 23V28C17 28.5523 16.5523 29 16 29C15.4477 29 15 28.5523 15 28V23C15 22.4477 15.4477 22 16 22Z" fill="#1100FF"/>
<path fill-rule="evenodd" clip-rule="evenodd" d="M20.2431 20.2428C20.6336 19.8523 21.2668 19.8523 21.6573 20.2428L25.1948 23.7803C25.5853 24.1709 25.5853 24.804 25.1948 25.1946C24.8043 25.5851 24.1711 25.5851 23.7806 25.1946L20.2431 21.6571C19.8526 21.2665 19.8526 20.6334 20.2431 20.2428Z" fill="#1100FF"/>
<path fill-rule="evenodd" clip-rule="evenodd" d="M22 16C22 15.4477 22.4477 15 23 15H28C28.5523 15 29 15.4477 29 16C29 16.5523 28.5523 17 28 17H23C22.4477 17 22 16.5523 22 16Z" fill="#1100FF"/>
<path fill-rule="evenodd" clip-rule="evenodd" d="M25.1948 6.80541C25.5853 7.19593 25.5853 7.82909 25.1948 8.21962L21.6573 11.7571C21.2668 12.1476 20.6336 12.1476 20.2431 11.7571C19.8526 11.3666 19.8526 10.7334 20.2431 10.3429L23.7806 6.80541C24.1711 6.41488 24.8043 6.41488 25.1948 6.80541Z" fill="#1100FF"/>
</svg>
