<svg width="32" height="32" viewBox="0 0 32 32" fill="none" xmlns="http://www.w3.org/2000/svg">
<path d="M30 14H28.58L25.1562 8.00625C24.8025 7.3825 24.1413 7 23.4237 7H8.57125C7.8575 7 7.195 7.385 6.84375 8.00375L3.41875 14H2C1.4475 14 1 14.4475 1 15C1 15.5525 1.4475 16 2 16H3V26C3 27.1025 3.8975 28 5 28H8C9.1025 28 10 27.1025 10 26V24H22V26C22 27.1025 22.8975 28 24 28H27C28.1025 28 29 27.1025 29 26V16H30C30.5525 16 31 15.5525 31 15C31 14.4475 30.5525 14 30 14ZM8.57875 9H23.4212L26.2775 14H5.7225L8.57875 9ZM8 26H5V24H8V26ZM24 26V24H27V26H24ZM27 22H5V16H27V22Z" fill="#1100FF"/>
<path d="M8 20H10C10.5525 20 11 19.5525 11 19C11 18.4475 10.5525 18 10 18H8C7.4475 18 7 18.4475 7 19C7 19.5525 7.4475 20 8 20Z" fill="#1100FF"/>
<path d="M22 20H24C24.5525 20 25 19.5525 25 19C25 18.4475 24.5525 18 24 18H22C21.4475 18 21 18.4475 21 19C21 19.5525 21.4475 20 22 20Z" fill="#1100FF"/>
<path d="M13 5H19C19.5525 5 20 4.5525 20 4C20 3.4475 19.5525 3 19 3H13C12.4475 3 12 3.4475 12 4C12 4.5525 12.4475 5 13 5Z" fill="#1100FF"/>
</svg>
