<svg width="32" height="32" viewBox="0 0 32 32" fill="none" xmlns="http://www.w3.org/2000/svg">
<path fill-rule="evenodd" clip-rule="evenodd" d="M15 4C13.8954 4 13 4.89543 13 6C13 7.10457 13.8954 8 15 8C16.1046 8 17 7.10457 17 6C17 4.89543 16.1046 4 15 4ZM11 6C11 3.79086 12.7909 2 15 2C17.2091 2 19 3.79086 19 6C19 8.20914 17.2091 10 15 10C12.7909 10 11 8.20914 11 6Z" fill="#1100FF"/>
<path fill-rule="evenodd" clip-rule="evenodd" d="M5 13C3.89543 13 3 13.8954 3 15C3 16.1046 3.89543 17 5 17C6.10457 17 7 16.1046 7 15C7 13.8954 6.10457 13 5 13ZM1 15C1 12.7909 2.79086 11 5 11C7.20914 11 9 12.7909 9 15C9 17.2091 7.20914 19 5 19C2.79086 19 1 17.2091 1 15Z" fill="#1100FF"/>
<path fill-rule="evenodd" clip-rule="evenodd" d="M20 24C18.8954 24 18 24.8954 18 26C18 27.1046 18.8954 28 20 28C21.1046 28 22 27.1046 22 26C22 24.8954 21.1046 24 20 24ZM16 26C16 23.7909 17.7909 22 20 22C22.2091 22 24 23.7909 24 26C24 28.2091 22.2091 30 20 30C17.7909 30 16 28.2091 16 26Z" fill="#1100FF"/>
<path fill-rule="evenodd" clip-rule="evenodd" d="M26 7C24.8954 7 24 7.89543 24 9C24 10.1046 24.8954 11 26 11C27.1046 11 28 10.1046 28 9C28 7.89543 27.1046 7 26 7ZM22 9C22 6.79086 23.7909 5 26 5C28.2091 5 30 6.79086 30 9C30 11.2091 28.2091 13 26 13C23.7909 13 22 11.2091 22 9Z" fill="#1100FF"/>
<path fill-rule="evenodd" clip-rule="evenodd" d="M16.9355 6.52319C17.0814 5.99054 17.6316 5.67708 18.1642 5.82304L23.3642 7.24804C23.8969 7.39401 24.2103 7.94413 24.0644 8.47678C23.9184 9.00942 23.3683 9.32289 22.8356 9.17692L17.6356 7.75193C17.103 7.60596 16.7895 7.05584 16.9355 6.52319Z" fill="#1100FF"/>
<path fill-rule="evenodd" clip-rule="evenodd" d="M13.5197 7.34498C13.8884 7.75623 13.8538 8.38845 13.4426 8.75709L7.89259 13.7321C7.48134 14.1007 6.84912 14.0662 6.48048 13.6549C6.11184 13.2437 6.14638 12.6115 6.55763 12.2428L12.1076 7.26783C12.5189 6.89919 13.1511 6.93373 13.5197 7.34498Z" fill="#1100FF"/>
<path fill-rule="evenodd" clip-rule="evenodd" d="M6.61896 16.1833C6.94575 15.738 7.5716 15.642 8.01682 15.9688L18.1668 23.4188C18.612 23.7456 18.7081 24.3715 18.3813 24.8167C18.0545 25.2619 17.4286 25.3579 16.9834 25.0311L6.83341 17.5811C6.38818 17.2543 6.29217 16.6285 6.61896 16.1833Z" fill="#1100FF"/>
<path fill-rule="evenodd" clip-rule="evenodd" d="M25.3324 10.8818C25.8533 11.0654 26.1267 11.6365 25.9432 12.1574L21.9432 23.5074C21.7596 24.0282 21.1885 24.3017 20.6676 24.1181C20.1468 23.9346 19.8733 23.3635 20.0569 22.8426L24.0569 11.4926C24.2405 10.9717 24.8115 10.6983 25.3324 10.8818Z" fill="#1100FF"/>
</svg>
