<svg width="32" height="32" viewBox="0 0 32 32" fill="none" xmlns="http://www.w3.org/2000/svg">
<path fill-rule="evenodd" clip-rule="evenodd" d="M15.2481 9.22366C15.4866 9.12548 15.742 9.07495 15.9999 9.07495C16.2579 9.07495 16.5133 9.12548 16.7518 9.22366L21.0534 10.9443L26.0868 9.50118L26.1035 9.49655C26.4381 9.40688 26.7901 9.40506 27.1255 9.49127C27.4609 9.57747 27.7685 9.74879 28.0183 9.98864C28.2681 10.2285 28.4519 10.5287 28.5517 10.8604C28.6515 11.192 28.664 11.5438 28.5881 11.8817L28.5859 11.8914L25.1609 26.4539L25.1595 26.4595C25.0544 26.8955 24.8065 27.2838 24.4554 27.5629C24.1043 27.842 23.6701 27.9958 23.2216 27.9999L23.2124 28L8.77829 28C8.3298 27.9958 7.89553 27.842 7.54443 27.5629C7.19333 27.2838 6.94551 26.8955 6.84033 26.4595L6.83898 26.4539L3.414 11.8914L4.38744 11.6625L3.41177 11.8817C3.33583 11.5438 3.34837 11.192 3.44819 10.8604C3.54801 10.5288 3.73173 10.2285 3.98157 9.98864C4.23142 9.74879 4.53893 9.57747 4.87437 9.49127C5.20981 9.40506 5.56181 9.40688 5.89634 9.49655L5.91304 9.50118L10.9464 10.9443L15.2481 9.22366ZM5.36292 11.4422L8.78469 25.991C8.78541 25.9935 8.78689 25.9957 8.78892 25.9973C8.79086 25.9988 8.79321 25.9997 8.79567 26H23.2042C23.2067 25.9997 23.209 25.9988 23.211 25.9973L23.2141 25.9935L23.2152 25.9909L26.6369 11.4422L26.6365 11.4368C26.6359 11.4348 26.6348 11.4329 26.6332 11.4314C26.6317 11.4299 26.6298 11.4289 26.6277 11.4283L26.623 11.428L21.2755 12.9612C21.0622 13.0224 20.8346 13.0108 20.6285 12.9284L16.0035 11.0784L15.9999 11.077L15.9963 11.0784L11.3713 12.9284C11.1653 13.0108 10.9377 13.0224 10.7243 12.9612L5.37683 11.428L5.37218 11.4283C5.3701 11.4289 5.36819 11.4299 5.36664 11.4314C5.36509 11.4329 5.36394 11.4348 5.36332 11.4368L5.36292 11.4422Z" fill="#1100FF"/>
<path fill-rule="evenodd" clip-rule="evenodd" d="M10.868 11.0089C11.4154 10.9359 11.9184 11.3205 11.9913 11.868L13.9913 26.868C14.0643 27.4154 13.6797 27.9184 13.1323 27.9913C12.5848 28.0643 12.0819 27.6797 12.0089 27.1323L10.0089 12.1323C9.9359 11.5848 10.3205 11.0819 10.868 11.0089Z" fill="#1100FF"/>
<path fill-rule="evenodd" clip-rule="evenodd" d="M21.1323 11.0089C21.6797 11.0819 22.0643 11.5848 21.9913 12.1323L19.9913 27.1323C19.9184 27.6797 19.4154 28.0643 18.868 27.9913C18.3205 27.9184 17.9359 27.4154 18.0089 26.868L20.0089 11.868C20.0819 11.3205 20.5848 10.9359 21.1323 11.0089Z" fill="#1100FF"/>
<path fill-rule="evenodd" clip-rule="evenodd" d="M12.551 3.19884C13.5274 2.40987 14.7447 1.97949 16 1.97949C17.2553 1.97949 18.4726 2.40987 19.449 3.19884C20.12 3.7411 20.6494 4.43022 21.0004 5.20665C21.5327 5.05577 22.087 4.98548 22.6446 5.00015C23.5936 5.02511 24.52 5.29529 25.3337 5.7844C26.1473 6.27351 26.8205 6.96489 27.2877 7.79129C27.755 8.61768 28.0004 9.55095 28 10.5003C27.9998 11.0526 27.5519 11.5001 26.9996 11.4999C26.4473 11.4997 25.9998 11.0518 26 10.4995C26.0002 9.89542 25.8441 9.30153 25.5467 8.77564C25.2494 8.24975 24.821 7.80978 24.3032 7.49853C23.7855 7.18727 23.1959 7.01534 22.592 6.99946C21.9881 6.98357 21.3904 7.12428 20.8569 7.40788C20.5801 7.55509 20.2501 7.5639 19.9658 7.43166C19.6815 7.29942 19.4756 7.04145 19.4098 6.73485C19.2423 5.95485 18.8125 5.25585 18.192 4.75443C17.5714 4.25301 16.7978 3.97949 16 3.97949C15.2022 3.97949 14.4286 4.25301 13.808 4.75443C13.1875 5.25585 12.7577 5.95485 12.5902 6.73485C12.5244 7.04145 12.3185 7.29942 12.0342 7.43166C11.7499 7.5639 11.4199 7.55509 11.1431 7.40788C10.6096 7.12428 10.0119 6.98357 9.40798 6.99946C8.80406 7.01534 8.21454 7.18727 7.69676 7.49853C7.17899 7.80978 6.7506 8.24975 6.45326 8.77564C6.15593 9.30153 5.99978 9.89542 6 10.4995C6.00021 11.0518 5.55266 11.4997 5.00037 11.4999C4.44809 11.5001 4.00021 11.0526 4 10.5003C3.99965 9.55095 4.24503 8.61769 4.71227 7.79129C5.17951 6.96489 5.8527 6.27351 6.66634 5.7844C7.47999 5.29529 8.40638 5.02511 9.35539 5.00015C9.913 4.98548 10.4673 5.05577 10.9996 5.20665C11.3506 4.43022 11.88 3.7411 12.551 3.19884Z" fill="#1100FF"/>
</svg>
