<svg width="32" height="32" viewBox="0 0 32 32" fill="none" xmlns="http://www.w3.org/2000/svg">
<path fill-rule="evenodd" clip-rule="evenodd" d="M16 5C9.92487 5 5 9.92487 5 16C5 22.0751 9.92487 27 16 27C22.0751 27 27 22.0751 27 16C27 9.92487 22.0751 5 16 5ZM3 16C3 8.8203 8.8203 3 16 3C23.1797 3 29 8.8203 29 16C29 23.1797 23.1797 29 16 29C8.8203 29 3 23.1797 3 16Z" fill="#1100FF"/>
<path fill-rule="evenodd" clip-rule="evenodd" d="M6.80559 6.80541C7.19611 6.41488 7.82928 6.41488 8.2198 6.80541L25.1948 23.7804C25.5853 24.1709 25.5853 24.8041 25.1948 25.1946C24.8043 25.5851 24.1711 25.5851 23.7806 25.1946L6.80559 8.21962C6.41506 7.82909 6.41506 7.19593 6.80559 6.80541Z" fill="#1100FF"/>
</svg>
