<svg width="32" height="32" viewBox="0 0 32 32" fill="none" xmlns="http://www.w3.org/2000/svg">
<path fill-rule="evenodd" clip-rule="evenodd" d="M16 5C9.92487 5 5 9.92487 5 16C5 22.0751 9.92487 27 16 27C22.0751 27 27 22.0751 27 16C27 9.92487 22.0751 5 16 5ZM3 16C3 8.8203 8.8203 3 16 3C23.1797 3 29 8.8203 29 16C29 23.1797 23.1797 29 16 29C8.8203 29 3 23.1797 3 16Z" fill="#1100FF"/>
<path fill-rule="evenodd" clip-rule="evenodd" d="M11.7553 11.7554C12.1458 11.3649 12.779 11.3649 13.1695 11.7554L20.2445 18.8304C20.635 19.2209 20.635 19.8541 20.2445 20.2446C19.854 20.6352 19.2208 20.6352 18.8303 20.2446L11.7553 13.1696C11.3648 12.7791 11.3648 12.1459 11.7553 11.7554Z" fill="#1100FF"/>
</svg>
