<svg width="32" height="32" viewBox="0 0 32 32" fill="none" xmlns="http://www.w3.org/2000/svg">
<path fill-rule="evenodd" clip-rule="evenodd" d="M11.7071 20.2929C12.0976 20.6834 12.0976 21.3166 11.7071 21.7071L6.70711 26.7071C6.31658 27.0976 5.68342 27.0976 5.29289 26.7071C4.90237 26.3166 4.90237 25.6834 5.29289 25.2929L10.2929 20.2929C10.6834 19.9024 11.3166 19.9024 11.7071 20.2929Z" fill="#1100FF"/>
<path fill-rule="evenodd" clip-rule="evenodd" d="M5.32733 4.26007C5.73599 3.88856 6.36844 3.91868 6.73995 4.32733L26.7399 26.3273C27.1115 26.736 27.0813 27.3684 26.6727 27.7399C26.264 28.1115 25.6316 28.0813 25.2601 27.6727L5.26007 5.67268C4.88856 5.26402 4.91868 4.63157 5.32733 4.26007Z" fill="#1100FF"/>
<path fill-rule="evenodd" clip-rule="evenodd" d="M11.3315 10.3626C11.2869 10.348 11.2401 10.3332 11.1912 10.3183C10.7442 10.1828 10.1122 10.0412 9.34934 10.0072C7.80604 9.93826 5.76492 10.3132 3.69652 11.9846C3.47804 12.1614 3.29873 12.3827 3.17134 12.6333C3.04395 12.8838 2.97079 13.1584 2.95664 13.4391C2.94249 13.7198 2.98766 14.0003 3.0892 14.2624C3.19044 14.5237 3.34545 14.7607 3.54417 14.9583L3.54598 14.9601L17.0154 28.4295C17.2165 28.633 17.4588 28.7911 17.7262 28.8929C17.9951 28.9954 18.283 29.0386 18.5702 29.0196C18.8574 29.0006 19.1371 28.9199 19.3902 28.7829C19.6432 28.646 19.8637 28.4561 20.0366 28.2262M11.3315 10.3626C11.6936 10.2136 12.1255 10.2862 12.4197 10.5803C12.8102 10.9708 12.8102 11.604 12.4197 11.9945L12.2072 12.207C11.904 12.5102 11.4414 12.5862 11.0574 12.3966L11.0449 12.3908C11.0303 12.3841 11.0037 12.3723 10.9658 12.3568C10.8898 12.3258 10.7695 12.2804 10.6108 12.2323C10.2926 12.1358 9.82696 12.0305 9.26012 12.0052C8.14417 11.9554 6.598 12.2116 4.9541 13.5398L4.95716 13.5428L18.4383 27.024C19.3605 25.7984 20.5151 23.6853 19.8701 21.6091C19.7062 21.0817 20.0009 20.5213 20.5284 20.3575C21.0558 20.1936 21.6162 20.4883 21.78 21.0157C22.7349 24.0893 21.0144 26.9266 20.0366 28.2262" fill="#1100FF"/>
<path fill-rule="evenodd" clip-rule="evenodd" d="M19.2274 2.56925C19.472 2.46681 19.7346 2.41406 19.9998 2.41406C20.265 2.41406 20.5276 2.46681 20.7722 2.56925C21.0155 2.67111 21.2362 2.82007 21.4217 3.00755L28.9921 10.578C29.1796 10.7634 29.3286 10.9842 29.4304 11.2275C29.5329 11.4721 29.5856 11.7347 29.5856 11.9999C29.5856 12.2651 29.5329 12.5277 29.4304 12.7723C29.3286 13.0156 29.1796 13.2363 28.9921 13.4218L23.8194 18.5945C23.4289 18.985 22.7957 18.985 22.4052 18.5945C22.0147 18.204 22.0147 17.5708 22.4052 17.1803L27.5856 11.9999L27.5802 11.9945L19.9998 4.41408L19.9944 4.41952L15.2569 9.157C14.8664 9.54752 14.2332 9.54752 13.8427 9.157C13.4522 8.76647 13.4522 8.13331 13.8427 7.74278L18.5779 3.00755C18.7634 2.82007 18.9841 2.67111 19.2274 2.56925Z" fill="#1100FF"/>
</svg>
