<svg width="32" height="32" viewBox="0 0 32 32" fill="none" xmlns="http://www.w3.org/2000/svg">
<path fill-rule="evenodd" clip-rule="evenodd" d="M10.3999 5C10.3999 4.44772 10.8476 4 11.3999 4H23.9999C24.5522 4 24.9999 4.44772 24.9999 5C24.9999 5.55228 24.5522 6 23.9999 6H11.3999C10.8476 6 10.3999 5.55228 10.3999 5Z" fill="#1100FF"/>
<path fill-rule="evenodd" clip-rule="evenodd" d="M16 21C16.5523 21 17 21.4477 17 22V30C17 30.5523 16.5523 31 16 31C15.4477 31 15 30.5523 15 30V22C15 21.4477 15.4477 21 16 21Z" fill="#1100FF"/>
<path fill-rule="evenodd" clip-rule="evenodd" d="M5.32733 4.26007C5.73599 3.88856 6.36844 3.91868 6.73995 4.32733L26.7399 26.3273C27.1115 26.736 27.0813 27.3684 26.6727 27.7399C26.264 28.1115 25.6316 28.0813 25.2601 27.6727L5.26007 5.67268C4.88856 5.26402 4.91868 4.63157 5.32733 4.26007Z" fill="#1100FF"/>
<path fill-rule="evenodd" clip-rule="evenodd" d="M21.8265 4.01511C22.3704 3.91922 22.8891 4.28239 22.985 4.82628L25.535 19.2888C25.6309 19.8327 25.2677 20.3513 24.7238 20.4472C24.1799 20.5431 23.6613 20.18 23.5654 19.6361L21.0154 5.17356C20.9195 4.62967 21.2826 4.11101 21.8265 4.01511Z" fill="#1100FF"/>
<path fill-rule="evenodd" clip-rule="evenodd" d="M4 22C4 21.4477 4.44772 21 5 21H21.45C22.0023 21 22.45 21.4477 22.45 22C22.45 22.5523 22.0023 23 21.45 23H5C4.44772 23 4 22.5523 4 22Z" fill="#1100FF"/>
<path fill-rule="evenodd" clip-rule="evenodd" d="M9.52401 7.70265C10.0679 7.79866 10.431 8.31739 10.3349 8.86126L7.98494 22.1738C7.88893 22.7176 7.3702 23.0807 6.82633 22.9847C6.28245 22.8887 5.91939 22.37 6.01539 21.8261L8.36539 8.51359C8.4614 7.96971 8.98013 7.60664 9.52401 7.70265Z" fill="#1100FF"/>
</svg>
