<svg width="32" height="32" viewBox="0 0 32 32" fill="none" xmlns="http://www.w3.org/2000/svg">
<path fill-rule="evenodd" clip-rule="evenodd" d="M11.7071 20.2929C12.0976 20.6834 12.0976 21.3166 11.7071 21.7071L6.70711 26.7071C6.31658 27.0976 5.68342 27.0976 5.29289 26.7071C4.90237 26.3166 4.90237 25.6834 5.29289 25.2929L10.2929 20.2929C10.6834 19.9024 11.3166 19.9024 11.7071 20.2929Z" fill="#1100FF"/>
<path fill-rule="evenodd" clip-rule="evenodd" d="M19.2276 2.56925C19.4723 2.46681 19.7348 2.41406 20 2.41406C20.2653 2.41406 20.5278 2.46681 20.7725 2.56925C21.0157 2.67108 21.2364 2.82 21.4218 3.00742L28.9925 10.5781C29.1799 10.7636 29.3288 10.9842 29.4307 11.2275C29.5331 11.4721 29.5859 11.7347 29.5859 11.9999C29.5859 12.2651 29.5331 12.5277 29.4307 12.7723C29.3289 13.0155 29.1799 13.2362 28.9925 13.4216L21.6869 20.7273C22.8547 23.9105 21.0364 26.9046 20.0359 28.2271C19.8631 28.4565 19.6429 28.6461 19.3902 28.7829C19.1371 28.9199 18.8574 29.0006 18.5702 29.0196C18.283 29.0386 17.9951 28.9954 17.7262 28.8929C17.4588 28.791 17.2165 28.633 17.0154 28.4295L3.54598 14.96L3.54424 14.9583C3.34548 14.7608 3.19045 14.5237 3.0892 14.2623C2.98766 14.0003 2.94249 13.7197 2.95664 13.439C2.97079 13.1583 3.04395 12.8838 3.17134 12.6332C3.29873 12.3827 3.4775 12.1618 3.69598 11.985C5.76439 10.3136 7.80604 9.93822 9.34934 10.0071C10.1122 10.0412 10.7442 10.1828 11.1912 10.3183C11.211 10.3243 11.2304 10.3303 11.2495 10.3363L18.5782 3.00751C18.7637 2.82005 18.9844 2.6711 19.2276 2.56925ZM27.5804 11.9945L20 4.41408L19.9947 4.41952L12.2072 12.207C11.904 12.5102 11.4414 12.5862 11.0574 12.3966L11.0449 12.3908C11.0303 12.3841 11.0037 12.3723 10.9658 12.3568C10.8898 12.3258 10.7695 12.2804 10.6108 12.2323C10.2926 12.1357 9.82696 12.0305 9.26012 12.0051C8.14417 11.9553 6.598 12.2116 4.9541 13.5397L4.95716 13.5428L18.4383 27.0239L18.4401 27.0214C19.4693 25.6615 20.7592 23.2442 19.6064 20.9487C19.4129 20.5634 19.4881 20.0976 19.7929 19.7928L27.5859 11.9999L27.5804 11.9945Z" fill="#1100FF"/>
</svg>
