<svg width="32" height="32" viewBox="0 0 32 32" fill="none" xmlns="http://www.w3.org/2000/svg">
<path fill-rule="evenodd" clip-rule="evenodd" d="M17.6437 4.07733C17.2886 3.9832 16.917 3.96851 16.5556 4.03431C16.1941 4.10011 15.8515 4.24478 15.5523 4.45802C15.2531 4.67126 15.0046 4.94783 14.8244 5.26806C14.6443 5.58828 14.5369 5.94427 14.51 6.31071L14.5095 6.31775C14.4748 6.74801 14.5544 7.17978 14.7402 7.56938C14.888 7.87921 14.8666 8.2432 14.6834 8.53352C14.5002 8.82385 14.181 8.99993 13.8377 8.99993H8.00017V14.3374C8.00017 14.6807 7.82415 14.9999 7.53389 15.1831C7.24363 15.3663 6.87971 15.3878 6.56988 15.2401C6.23821 15.082 5.87577 14.999 5.50836 14.9969C5.14094 14.9948 4.77758 15.0737 4.44413 15.228C4.11069 15.3823 3.81536 15.6083 3.57916 15.8897C3.34297 16.1712 3.17171 16.5012 3.07758 16.8564C2.98345 17.2115 2.96876 17.5831 3.03456 17.9445C3.10035 18.306 3.24502 18.6486 3.45826 18.9478C3.67151 19.247 3.94808 19.4955 4.2683 19.6757C4.58852 19.8558 4.94451 19.9632 5.31095 19.9901L5.31799 19.9906C5.74825 20.0253 6.18003 19.9457 6.56962 19.7599C6.87946 19.6121 7.24344 19.6335 7.53377 19.8167C7.82409 19.9999 8.00017 20.3191 8.00017 20.6624V25.9999H26.0002V21.9745C25.841 21.9925 25.6806 22.002 25.5197 22.0029C24.8584 22.0067 24.2043 21.8646 23.6041 21.5869C23.0039 21.3091 22.4723 20.9024 22.0472 20.3958C21.622 19.8893 21.3138 19.2952 21.1443 18.6559C20.9749 18.0166 20.9485 17.3478 21.0669 16.6972C21.1853 16.0465 21.4457 15.4299 21.8296 14.8913C22.2134 14.3528 22.7112 13.9054 23.2876 13.5811C23.863 13.2574 24.5026 13.0643 25.1609 13.0154C25.4416 12.993 25.7225 12.9974 26.0002 13.0278V8.99993H20.1627C19.8194 8.99993 19.5002 8.8239 19.317 8.53364C19.1338 8.24339 19.1123 7.87946 19.26 7.56963C19.4181 7.23797 19.5011 6.87553 19.5032 6.50811C19.5053 6.1407 19.4264 5.77734 19.2721 5.44389C19.1178 5.11045 18.8918 4.81512 18.6104 4.57892C18.3289 4.34272 17.9989 4.17146 17.6437 4.07733ZM16.1974 2.06664C16.8481 1.94821 17.5168 1.97465 18.1561 2.14408C18.7954 2.31352 19.3895 2.62178 19.8961 3.04694C20.4027 3.47209 20.8093 4.00369 21.0871 4.60389C21.3649 5.20408 21.507 5.85813 21.5032 6.51948C21.5023 6.68038 21.4927 6.84076 21.4747 6.99993H26.0002C26.5306 6.99993 27.0393 7.21064 27.4144 7.58572C27.7895 7.96079 28.0002 8.4695 28.0002 8.99993V14.3374C28.0002 14.6807 27.8241 15 27.5338 15.1832C27.2434 15.3663 26.8795 15.3878 26.5696 15.24C26.18 15.0541 25.7482 14.9745 25.318 15.0092L25.3109 15.0097C24.9445 15.0367 24.5885 15.144 24.2683 15.3242C23.9481 15.5043 23.6715 15.7529 23.4583 16.0521C23.245 16.3513 23.1004 16.6938 23.0346 17.0553C22.9688 17.4168 22.9834 17.7883 23.0776 18.1435C23.1717 18.4987 23.343 18.8287 23.5792 19.1101C23.8154 19.3916 24.1107 19.6175 24.4441 19.7718C24.7776 19.9261 25.1409 20.0051 25.5084 20.003C25.8758 20.0009 26.2382 19.9178 26.5699 19.7597C26.8797 19.6121 27.2436 19.6336 27.5339 19.8168C27.8241 20 28.0002 20.3192 28.0002 20.6624V25.9999C28.0002 26.5304 27.7895 27.0391 27.4144 27.4141C27.0393 27.7892 26.5306 27.9999 26.0002 27.9999H8.00017C7.46974 27.9999 6.96103 27.7892 6.58596 27.4141C6.21089 27.0391 6.00017 26.5304 6.00017 25.9999V21.972C5.72259 22.0025 5.44167 22.0069 5.16109 21.9845C4.50267 21.9356 3.86306 21.7425 3.28763 21.4187C2.71123 21.0944 2.2134 20.6471 1.82956 20.1085C1.44573 19.5699 1.18532 18.9534 1.06689 18.3027C0.948449 17.652 0.974889 16.9833 1.14432 16.344C1.31376 15.7047 1.62202 15.1106 2.04718 14.604C2.47234 14.0974 3.00393 13.6908 3.60413 13.413C4.20433 13.1352 4.85838 12.9931 5.51973 12.9969C5.68063 12.9978 5.841 13.0074 6.00017 13.0254V8.99993C6.00017 8.4695 6.21089 7.96079 6.58596 7.58572C6.96103 7.21064 7.46974 6.99993 8.00017 6.99993H12.5281C12.4976 6.72229 12.4932 6.44131 12.5156 6.16067C12.5645 5.50232 12.7576 4.86277 13.0814 4.28738C13.4057 3.71098 13.853 3.21315 14.3916 2.82932C14.9302 2.44548 15.5467 2.18508 16.1974 2.06664Z" fill="#1100FF"/>
</svg>
