<svg width="32" height="32" viewBox="0 0 32 32" fill="none" xmlns="http://www.w3.org/2000/svg">
<path fill-rule="evenodd" clip-rule="evenodd" d="M2.64866 8.0637C3.16578 7.86978 3.74219 8.13178 3.93611 8.6489L8.99978 22.152L14.0635 8.6489C14.2098 8.2586 14.5829 8.00003 14.9998 8.00003H28.9998C29.5521 8.00003 29.9998 8.44774 29.9998 9.00003V12C29.9998 12.5523 29.5521 13 28.9998 13C28.4475 13 27.9998 12.5523 27.9998 12V10H15.6928L9.93611 25.3512C9.78975 25.7415 9.41663 26 8.99978 26C8.58294 26 8.20982 25.7415 8.06345 25.3512L2.06345 9.35115C1.86953 8.83403 2.13154 8.25762 2.64866 8.0637Z" fill="#1100FF"/>
</svg>
