<svg width="32" height="32" viewBox="0 0 32 32" fill="none" xmlns="http://www.w3.org/2000/svg">
<path d="M26.1994 14.1152C23.3056 13.5252 20.4655 15.1327 19.418 17.7903C19.2792 17.7753 19.1404 17.7678 19.0004 17.769C16.7954 17.769 15.0003 19.6141 15.0003 21.8816C15.0003 24.1492 16.7954 25.9942 19.0004 25.9942H25.0006C27.8382 25.9942 30.3107 23.9754 30.8782 21.1941C31.5395 17.9528 29.4407 14.7764 26.1994 14.1152ZM28.9182 20.7941C28.5394 22.6479 26.8919 23.9942 24.9993 23.9942H18.9992C17.8967 23.9942 16.9991 23.0466 16.9991 21.8816C16.9991 20.7166 17.9017 19.7653 19.0204 19.7691C19.2555 19.7691 19.4842 19.8166 19.6992 19.9103C19.9755 20.0316 20.2917 20.0203 20.5605 19.8816C20.828 19.7428 21.0192 19.4903 21.0792 19.1941C21.5205 17.0327 23.6393 15.634 25.7981 16.0752C27.9594 16.5165 29.3582 18.6328 28.9169 20.7941H28.9182Z" fill="#1100FF"/>
<path d="M14.0003 9.00005H14.0066C16.8829 9.0013 19.6042 10.1063 21.6668 12.1114C22.063 12.4964 22.6955 12.4864 23.0805 12.0914C23.4656 11.6951 23.4568 11.0626 23.0605 10.6776C20.6217 8.30753 17.4067 7.00125 14.0066 7H13.9991C10.5302 7 7.26766 8.35003 4.81259 10.8026C2.35628 13.2577 1.00125 16.5215 1 19.9941V21.9941C1 22.5466 1.44751 22.9941 2.00002 22.9941C2.55254 22.9941 3.00005 22.5466 3.00005 21.9941V19.9941C3.0013 17.0552 4.14758 14.2939 6.22638 12.2176C8.30393 10.1426 11.064 9.00005 14.0003 9.00005Z" fill="#1100FF"/>
<path d="M13.9978 12.9901H14.0016C15.5029 12.9901 16.9366 13.4602 18.1467 14.3502C18.5917 14.6777 19.218 14.5814 19.5442 14.1364C19.8717 13.6914 19.7755 13.0652 19.3305 12.7389C17.7742 11.5951 15.9316 10.9913 14.0003 10.9913H13.9966C11.5928 10.9913 9.33271 11.9301 7.63391 13.6302C5.93512 15.3302 5.0001 17.5915 5.0001 19.9953V21.9954C5.0001 22.5479 5.44761 22.9954 6.00012 22.9954C6.55264 22.9954 7.00015 22.5479 7.00015 21.9954V19.9953C7.00015 18.1253 7.72642 16.3677 9.0477 15.0452C10.369 13.7227 12.1265 12.9939 13.9966 12.9926L13.9978 12.9901Z" fill="#1100FF"/>
<path d="M15.8954 16.349C16.0291 15.8127 15.7041 15.2702 15.1691 15.1365C14.7866 15.0402 14.3941 14.9952 14.0003 14.9939C11.2428 14.9939 9.0002 17.2365 9.0002 19.9941V21.9941C9.0002 22.5466 9.44771 22.9941 10.0002 22.9941C10.5527 22.9941 11.0002 22.5466 11.0002 21.9941V19.9941C11.0002 18.3403 12.3465 16.994 14.0041 16.994C14.2328 16.994 14.4603 17.0215 14.6828 17.0765C15.2191 17.2103 15.7616 16.8852 15.8966 16.349H15.8954Z" fill="#1100FF"/>
</svg>
