<svg width="32" height="32" viewBox="0 0 32 32" fill="none" xmlns="http://www.w3.org/2000/svg">
<path fill-rule="evenodd" clip-rule="evenodd" d="M19.7071 22.2929C20.0976 22.6834 20.0976 23.3166 19.7071 23.7071L17.4142 26L19.7071 28.2929C20.0976 28.6834 20.0976 29.3166 19.7071 29.7071C19.3166 30.0976 18.6834 30.0976 18.2929 29.7071L15.2929 26.7071C14.9024 26.3166 14.9024 25.6834 15.2929 25.2929L18.2929 22.2929C18.6834 21.9024 19.3166 21.9024 19.7071 22.2929Z" fill="#1100FF"/>
<path fill-rule="evenodd" clip-rule="evenodd" d="M24.5841 8.43419C25.1175 8.5773 25.4339 9.12574 25.2908 9.65916L24.1908 13.7592C24.122 14.0154 23.9542 14.2339 23.7243 14.3664C23.4945 14.4989 23.2213 14.5346 22.9651 14.4657L18.8776 13.3657C18.3443 13.2222 18.0283 12.6735 18.1718 12.1402C18.3153 11.6069 18.864 11.2909 19.3973 11.4344L22.5184 12.2743L23.3591 9.1409C23.5022 8.60748 24.0507 8.29107 24.5841 8.43419Z" fill="#1100FF"/>
<path fill-rule="evenodd" clip-rule="evenodd" d="M9.27478 12.6338C9.5045 12.7664 9.67217 12.9847 9.7409 13.2409L10.8409 17.3409C10.984 17.8743 10.6676 18.4227 10.1342 18.5658C9.60076 18.709 9.05232 18.3926 8.90921 17.8591L8.06834 14.725L4.93418 15.5658C4.40076 15.709 3.85232 15.3926 3.70921 14.8591C3.5661 14.3257 3.8825 13.7773 4.41592 13.6342L8.51592 12.5342C8.77208 12.4654 9.04505 12.5013 9.27478 12.6338Z" fill="#1100FF"/>
<path fill-rule="evenodd" clip-rule="evenodd" d="M25.2375 16.959C25.7158 16.6828 26.3274 16.8467 26.6035 17.325L29.591 22.5C29.8539 22.9553 29.9925 23.4716 29.993 23.9974C29.9934 24.5231 29.8557 25.0397 29.5937 25.4954C29.3316 25.9512 28.9544 26.33 28.4998 26.5941C28.0452 26.8582 27.5292 26.9981 27.0035 27L27 27H16C15.4477 27 15 26.5523 15 26C15 25.4477 15.4477 25 16 25H26.9979C27.1727 24.9991 27.3441 24.9525 27.4952 24.8647C27.6468 24.7767 27.7725 24.6504 27.8599 24.4985C27.9472 24.3466 27.9931 24.1744 27.993 23.9991C27.9928 23.8239 27.9466 23.6518 27.859 23.5L24.8715 18.325C24.5953 17.8467 24.7592 17.2351 25.2375 16.959Z" fill="#1100FF"/>
<path fill-rule="evenodd" clip-rule="evenodd" d="M9.27607 12.6346C9.75403 12.9113 9.91718 13.5231 9.64046 14.0011L4.14106 23.5C4.14094 23.5003 4.14118 23.4998 4.14106 23.5C4.05367 23.6517 4.00724 23.8242 4.00708 23.9992C4.00693 24.1744 4.05282 24.3466 4.14017 24.4985C4.22753 24.6504 4.35326 24.7767 4.50479 24.8648C4.65587 24.9525 4.82731 24.9992 5.00201 25H11C11.5523 25 12 25.4478 12 26C12 26.5523 11.5523 27 11 27H5.00004L4.99651 27C4.4708 26.9982 3.95481 26.8582 3.50022 26.5942C3.04563 26.3301 2.66842 25.9512 2.40636 25.4955C2.14431 25.0397 2.00662 24.5231 2.00708 23.9974C2.00755 23.4717 2.14615 22.9553 2.40901 22.5L7.90961 12.999C8.18632 12.521 8.79811 12.3579 9.27607 12.6346Z" fill="#1100FF"/>
<path fill-rule="evenodd" clip-rule="evenodd" d="M14.5014 2.40273C14.9567 2.13869 15.4737 1.99963 16.0001 1.99963C16.5264 1.99963 17.0434 2.13869 17.4987 2.40273C17.9533 2.66633 18.3303 3.04514 18.5917 3.50093C18.5921 3.50171 18.5926 3.50248 18.593 3.50325L24.0905 12.9989C24.3672 13.4769 24.2041 14.0887 23.7261 14.3654C23.2481 14.6421 22.6364 14.4789 22.3596 14.001L16.8571 4.49665C16.7707 4.34565 16.646 4.22015 16.4954 4.13288C16.3449 4.0456 16.174 3.99963 16.0001 3.99963C15.8261 3.99963 15.6552 4.0456 15.5047 4.13288C15.3542 4.22015 15.2294 4.34565 15.143 4.49665L15.1402 4.50149L12.1402 9.67648C11.8632 10.1543 11.2513 10.3171 10.7735 10.0401C10.2957 9.7631 10.1329 9.15122 10.4099 8.67342L13.4087 3.50059C13.67 3.04495 14.047 2.66626 14.5014 2.40273Z" fill="#1100FF"/>
</svg>
