<svg width="32" height="32" viewBox="0 0 32 32" fill="none" xmlns="http://www.w3.org/2000/svg">
<path d="M19.6699 21.11C17.3699 22.3 14.6299 22.3 12.3399 21.11C11.8499 20.86 11.2499 21.05 10.9899 21.54C10.7399 22.03 10.9299 22.63 11.4199 22.89C12.8599 23.63 14.4299 24 15.9999 24C17.5699 24 19.1499 23.63 20.5799 22.89C21.0699 22.64 21.2599 22.03 21.0099 21.54C20.7599 21.05 20.1499 20.86 19.6599 21.11H19.6699Z" fill="#1100FF"/>
<path d="M30.2299 15.36C30.8599 14.5 31.1099 13.44 30.9499 12.38C30.7799 11.32 30.2199 10.4 29.3499 9.77C27.8199 8.65 25.7499 8.79 24.3799 9.98C22.2899 8.87 19.7899 8.19 17.1699 8.04L17.8199 4.14L20.5499 4.56C20.8099 5.95 22.0299 7 23.4999 7C25.1499 7 26.4999 5.65 26.4999 4C26.4999 2.35 25.1499 1 23.4999 1C22.3599 1 21.3599 1.64 20.8599 2.58L17.1599 2.01C16.6199 1.93 16.1099 2.29 16.0199 2.83L15.1599 8.01C12.4199 8.13 9.79992 8.81 7.62992 9.97C7.44992 9.81 7.25992 9.68 7.04992 9.55C6.12992 9.01 5.04992 8.85 4.01992 9.12C2.98992 9.39 2.11992 10.04 1.56992 10.96C0.589925 12.61 0.949925 14.69 2.29992 15.94C2.10992 16.61 2.00992 17.29 2.00992 17.99C2.00992 20.73 3.51992 23.29 6.24992 25.18C8.86992 26.99 12.3399 27.99 16.0099 27.99C19.6799 27.99 23.1499 26.99 25.7699 25.18C28.4999 23.29 30.0099 20.74 30.0099 17.99C30.0099 17.29 29.9099 16.6 29.7199 15.94C29.9099 15.76 30.0899 15.57 30.2399 15.35L30.2299 15.36ZM23.4999 3C24.0499 3 24.4999 3.45 24.4999 4C24.4999 4.55 24.0499 5 23.4999 5C22.9499 5 22.4999 4.55 22.4999 4C22.4999 3.96 22.4999 3.92 22.4999 3.88V3.83C22.5899 3.36 22.9999 3 23.4899 3H23.4999ZM28.6199 14.18C28.4599 14.4 28.2599 14.58 28.0199 14.72C27.5899 14.97 27.4099 15.5 27.5999 15.96C27.8699 16.61 27.9999 17.29 27.9999 17.99C27.9999 20.06 26.7999 22.03 24.6199 23.53C22.3299 25.11 19.2699 25.99 15.9999 25.99C12.7299 25.99 9.66992 25.12 7.37992 23.53C5.19992 22.02 3.99992 20.05 3.99992 17.99C3.99992 17.29 4.12993 16.61 4.39992 15.96C4.58993 15.5 4.40992 14.97 3.97992 14.72C3.02992 14.16 2.70992 12.93 3.26992 11.98C3.53992 11.52 3.97992 11.19 4.48992 11.06C4.65992 11.02 4.81992 11 4.98992 11C5.33992 11 5.68992 11.09 5.99992 11.28C6.23992 11.42 6.43992 11.6 6.59992 11.82C6.90992 12.24 7.48992 12.36 7.92992 12.08C10.1299 10.73 12.9899 9.99 15.9799 9.99C18.9699 9.99 21.8299 10.73 24.0299 12.08C24.4699 12.35 25.0499 12.24 25.3599 11.82C26.0099 10.93 27.2599 10.73 28.1499 11.38C28.5799 11.69 28.8699 12.16 28.9499 12.69C29.0299 13.22 28.9099 13.75 28.5899 14.18H28.6199Z" fill="#1100FF"/>
<path d="M10.9999 18.5C12.1045 18.5 12.9999 17.6046 12.9999 16.5C12.9999 15.3954 12.1045 14.5 10.9999 14.5C9.89536 14.5 8.99992 15.3954 8.99992 16.5C8.99992 17.6046 9.89536 18.5 10.9999 18.5Z" fill="#1100FF"/>
<path d="M20.9999 18.5C22.1045 18.5 22.9999 17.6046 22.9999 16.5C22.9999 15.3954 22.1045 14.5 20.9999 14.5C19.8954 14.5 18.9999 15.3954 18.9999 16.5C18.9999 17.6046 19.8954 18.5 20.9999 18.5Z" fill="#1100FF"/>
</svg>
