<svg width="32" height="32" viewBox="0 0 32 32" fill="none" xmlns="http://www.w3.org/2000/svg">
<path d="M1.26247 14.3126L12.4125 7.15013C12.7151 6.95408 13.065 6.84347 13.4253 6.83001C13.7856 6.81654 14.1428 6.90072 14.4592 7.07364C14.7756 7.24655 15.0393 7.50178 15.2225 7.8123C15.4057 8.12282 15.5016 8.47709 15.5 8.83763V14.1626L26.4125 7.15013C26.7151 6.95408 27.065 6.84347 27.4253 6.83001C27.7856 6.81654 28.1428 6.90072 28.4592 7.07364C28.7756 7.24655 29.0393 7.50178 29.2225 7.8123C29.4057 8.12282 29.5016 8.47709 29.5 8.83763V23.1626C29.5003 23.5223 29.4043 23.8755 29.2218 24.1855C29.0393 24.4955 28.7771 24.7509 28.4625 24.9251C28.1439 25.0926 27.7871 25.1737 27.4275 25.1606C27.0679 25.1474 26.7179 25.0404 26.4125 24.8501L15.5 17.8376V23.1626C15.5003 23.5223 15.4043 23.8755 15.2218 24.1855C15.0393 24.4955 14.7771 24.7509 14.4625 24.9251C14.1439 25.0926 13.7871 25.1737 13.4275 25.1606C13.0679 25.1474 12.7179 25.0404 12.4125 24.8501L1.26247 17.6876C0.981307 17.5049 0.750251 17.2549 0.590296 16.9602C0.430341 16.6654 0.346558 16.3354 0.346558 16.0001C0.346558 15.6648 0.430341 15.3348 0.590296 15.0401C0.750251 14.7454 0.981307 14.4953 1.26247 14.3126Z" fill="#1100FF"/>
</svg>
