<svg width="32" height="32" viewBox="0 0 32 32" fill="none" xmlns="http://www.w3.org/2000/svg">
<path d="M29.1891 7.91871C28.5996 6.99354 27.3673 6.72121 26.4384 7.31312L15.5739 14.3041V9.0018C15.5764 8.61756 15.4682 8.24326 15.2618 7.91871C14.6723 6.99354 13.44 6.72121 12.5111 7.31312L1.424 14.4471C1.17406 14.6051 0.958931 14.8214 0.801005 15.0726C0.521216 15.5203 0.432927 16.05 0.55106 16.5648C0.669193 17.0772 0.978827 17.5124 1.42276 17.7922L12.5136 24.9287C12.8344 25.1326 13.2038 25.2408 13.583 25.2408H13.5967C14.1277 25.2371 14.6263 25.0269 14.9994 24.6489C15.3724 24.2709 15.5764 23.7697 15.5726 23.245V17.9352L26.4409 24.9287C26.7617 25.1326 27.1311 25.2408 27.5103 25.2408H27.524C28.055 25.2371 28.5536 25.0269 28.9267 24.6489C29.2997 24.2709 29.5037 23.7697 29.4999 23.245V9.0018C29.5024 8.61756 29.3942 8.24326 29.1878 7.91871H29.1891ZM2.50088 16.1196L13.5843 8.99434L13.588 23.2537L2.50088 16.1196ZM16.4282 16.1196L27.5116 8.99434L27.5153 23.2537L16.4282 16.1196Z" fill="#1100FF"/>
</svg>
