<svg width="32" height="32" viewBox="0 0 32 32" fill="none" xmlns="http://www.w3.org/2000/svg">
<path fill-rule="evenodd" clip-rule="evenodd" d="M9.87284 19.9187C10.0489 20.4422 9.76722 21.0093 9.24374 21.1853C7.54867 21.7553 6.64783 23.1783 6.16596 24.6253C5.97462 25.1999 5.85902 25.753 5.78956 26.2104C6.24694 26.1409 6.80009 26.0253 7.37468 25.834C8.82168 25.3521 10.2446 24.4513 10.8147 22.7562C10.9907 22.2327 11.5578 21.9511 12.0812 22.1271C12.6047 22.3032 12.8864 22.8702 12.7103 23.3937C11.8554 25.9361 9.74082 27.154 8.00657 27.7315C7.13049 28.0233 6.31032 28.1673 5.71168 28.2391C5.41091 28.2752 5.16226 28.2935 4.98561 28.3028C4.89719 28.3074 4.82652 28.3099 4.77608 28.3111C4.75085 28.3117 4.73066 28.3121 4.7158 28.3123L4.69754 28.3124L4.69148 28.3124L4.68923 28.3125C4.68882 28.3125 4.6875 28.3125 4.6875 27.3125C3.6875 27.3125 3.6875 27.3121 3.6875 27.3117L3.68751 27.3085L3.68753 27.3024L3.6877 27.2842C3.68788 27.2693 3.68822 27.2491 3.68884 27.2239C3.69009 27.1734 3.69251 27.1028 3.69716 27.0143C3.70645 26.8377 3.72475 26.589 3.76083 26.2883C3.83264 25.6896 3.97667 24.8695 4.26841 23.9934C4.84592 22.2591 6.06383 20.1446 8.60626 19.2896C9.12974 19.1136 9.6968 19.3952 9.87284 19.9187ZM4.6875 27.3125L3.6875 27.3117C3.6875 27.8639 4.13522 28.3125 4.6875 28.3125V27.3125Z" fill="#1100FF"/>
<path fill-rule="evenodd" clip-rule="evenodd" d="M26.4738 5.52603C25.3131 5.35863 22.456 5.29557 19.532 8.21959L11.7516 16L15.9999 20.2483L23.7803 12.4679C26.7043 9.54385 26.6412 6.68676 26.4738 5.52603ZM26.7638 3.54717C25.1675 3.31605 21.6091 3.31405 18.1178 6.80537L9.6303 15.2929C9.44276 15.4804 9.3374 15.7348 9.3374 16C9.3374 16.2652 9.44276 16.5196 9.6303 16.7071L15.2928 22.3696C15.6833 22.7601 16.3165 22.7601 16.707 22.3696L25.1945 13.8821C28.6858 10.3908 28.6838 6.83237 28.4527 5.23605C28.3942 4.80881 28.1975 4.41239 27.8925 4.10738C27.5875 3.80238 27.1911 3.60565 26.7638 3.54717Z" fill="#1100FF"/>
<path fill-rule="evenodd" clip-rule="evenodd" d="M23.0752 13.5875C23.6275 13.5875 24.0752 14.0352 24.0752 14.5875V22.6625L24.0751 22.6768C24.0676 23.202 23.8538 23.7032 23.48 24.072L19.4444 28.12C19.1882 28.3759 18.8674 28.5575 18.5161 28.6453C18.1648 28.7331 17.7963 28.7239 17.4498 28.6187C17.1033 28.5135 16.7919 28.3162 16.5488 28.0478C16.3059 27.7797 16.1403 27.4507 16.0696 27.0959C16.0695 27.0956 16.0696 27.0961 16.0696 27.0959L15.0197 21.8591C14.9111 21.3176 15.2621 20.7906 15.8036 20.682C16.3451 20.5735 16.8721 20.9244 16.9807 21.466L18.031 26.705L22.0752 22.6483V14.5875C22.0752 14.0352 22.5229 13.5875 23.0752 13.5875Z" fill="#1100FF"/>
<path fill-rule="evenodd" clip-rule="evenodd" d="M9.32317 7.92515L9.33741 7.92505H17.4124C17.9647 7.92505 18.4124 8.37276 18.4124 8.92505C18.4124 9.47733 17.9647 9.92505 17.4124 9.92505H9.35155L9.34347 9.9333L5.29492 13.9692L5.29647 13.9696L10.534 15.0196C11.0755 15.1281 11.4265 15.6551 11.3179 16.1966C11.2093 16.7381 10.6824 17.0891 10.1408 16.9805L4.90489 15.9308C4.90459 15.9308 4.90519 15.9309 4.90489 15.9308C4.5501 15.8601 4.22022 15.6943 3.9521 15.4514C3.68376 15.2083 3.48645 14.8969 3.38123 14.5504C3.27601 14.204 3.26682 13.8354 3.35464 13.4842C3.44246 13.1329 3.624 12.812 3.87989 12.5558L3.88139 12.5543L7.92796 8.52027C8.29678 8.14646 8.79791 7.93263 9.32317 7.92515Z" fill="#1100FF"/>
</svg>
