<svg width="32" height="32" viewBox="0 0 32 32" fill="none" xmlns="http://www.w3.org/2000/svg">
<path fill-rule="evenodd" clip-rule="evenodd" d="M13 28C13 27.4477 13.4477 27 14 27H18C18.5523 27 19 27.4477 19 28C19 28.5523 18.5523 29 18 29H14C13.4477 29 13 28.5523 13 28Z" fill="#1100FF"/>
<path fill-rule="evenodd" clip-rule="evenodd" d="M14.7433 1.69964C15.097 1.40795 15.5412 1.24829 15.9999 1.24829C16.4602 1.24829 16.906 1.40906 17.2603 1.70271C18.5019 2.7139 21.1899 5.22078 22.677 9.08621C24.1857 13.0077 24.4156 18.2229 20.8704 24.4922C20.693 24.806 20.3604 25 19.9999 25H11.9999C11.6426 25 11.3123 24.8092 11.1338 24.4997C7.51604 18.229 7.73758 13.0061 9.26309 9.07852C10.7647 5.21238 13.4867 2.7061 14.7433 1.69964ZM15.9996 3.25583C14.8781 4.15306 12.4511 6.39467 11.1274 9.80264C9.86277 13.0586 9.56344 17.4794 12.5849 23H19.4091C22.3667 17.4814 22.0635 13.0616 20.8104 9.80433C19.5015 6.40223 17.1125 4.16261 15.9996 3.25583Z" fill="#1100FF"/>
<path fill-rule="evenodd" clip-rule="evenodd" d="M9.87867 13.1574C10.3026 13.5114 10.3592 14.142 10.0052 14.5659L6.08845 19.2561L6.08916 19.2593L7.62597 26.2187L11.3755 23.2191C11.8068 22.8741 12.436 22.944 12.7811 23.3753C13.1261 23.8065 13.0561 24.4358 12.6249 24.7808L8.87488 27.7808C8.60987 27.9926 8.29489 28.1338 7.96045 28.1905C7.62602 28.2473 7.28265 28.218 6.96264 28.1055C6.64263 27.993 6.35649 27.8009 6.13113 27.5474C5.90578 27.2939 5.74861 26.9872 5.67441 26.6562L5.67371 26.6531L4.13879 19.7023C4.06675 19.4049 4.0657 19.0946 4.13582 18.7966C4.20667 18.4954 4.34815 18.2155 4.54851 17.9799L8.47013 13.284C8.82414 12.8601 9.45477 12.8034 9.87867 13.1574Z" fill="#1100FF"/>
<path fill-rule="evenodd" clip-rule="evenodd" d="M22.0474 13.0568C22.4716 12.7032 23.1022 12.7605 23.4558 13.1848L27.4521 17.9804C27.6523 18.2159 27.7936 18.4957 27.8644 18.7966C27.9345 19.0946 27.9335 19.4049 27.8614 19.7023L26.3265 26.6531L26.3258 26.6562C26.2516 26.9872 26.0944 27.2939 25.8691 27.5474C25.6437 27.801 25.3576 27.993 25.0376 28.1055C24.7176 28.218 24.3742 28.2473 24.0398 28.1906C23.7053 28.1338 23.3908 27.993 23.1258 27.7812L19.3753 24.7808C18.9441 24.4358 18.8742 23.8065 19.2192 23.3753C19.5642 22.944 20.1935 22.8741 20.6247 23.2191L24.3743 26.2187L25.9111 19.2593L25.9118 19.2561L21.9193 14.4652C21.5658 14.0409 21.6231 13.4103 22.0474 13.0568Z" fill="#1100FF"/>
<path d="M16 13.5C16.8284 13.5 17.5 12.8284 17.5 12C17.5 11.1716 16.8284 10.5 16 10.5C15.1716 10.5 14.5 11.1716 14.5 12C14.5 12.8284 15.1716 13.5 16 13.5Z" fill="#1100FF"/>
</svg>
