<svg width="32" height="32" viewBox="0 0 32 32" fill="none" xmlns="http://www.w3.org/2000/svg">
<path fill-rule="evenodd" clip-rule="evenodd" d="M19.5822 2.99802C20.3633 2.21697 21.6296 2.21697 22.4107 2.99802L28.9965 9.58383C29.7775 10.3649 29.7775 11.6312 28.9965 12.4123L12.4148 28.9939C11.6338 29.775 10.3674 29.775 9.5864 28.9939L3.00058 22.4081C2.21953 21.6271 2.21953 20.3607 3.00058 19.5797L19.5822 2.99802ZM27.5823 10.998L20.9965 4.41223L17.9115 7.49718L21.2072 10.7929C21.5977 11.1834 21.5977 11.8166 21.2072 12.2071C20.8167 12.5976 20.1835 12.5976 19.793 12.2071L16.4973 8.9114L13.4115 11.9972L16.7072 15.2929C17.0977 15.6834 17.0977 16.3166 16.7072 16.7071C16.3167 17.0976 15.6835 17.0976 15.293 16.7071L11.9973 13.4114L8.9115 16.4972L12.2072 19.7929C12.5977 20.1834 12.5977 20.8166 12.2072 21.2071C11.8167 21.5976 11.1835 21.5976 10.793 21.2071L7.49729 17.9114L4.41479 20.9939L11.0006 27.5797L27.5823 10.998Z" fill="#1100FF"/>
</svg>
