<svg width="32" height="32" viewBox="0 0 32 32" fill="none" xmlns="http://www.w3.org/2000/svg">
<path fill-rule="evenodd" clip-rule="evenodd" d="M7.5 7C6.11929 7 5 8.11929 5 9.5C5 10.8807 6.11929 12 7.5 12C8.33808 12 9.07984 11.5876 9.53343 10.9547C9.54258 10.9397 9.55217 10.9249 9.5622 10.9102C9.57238 10.8953 9.58289 10.8808 9.59372 10.8667C9.85063 10.4739 10 10.0044 10 9.5C10 8.11929 8.88071 7 7.5 7ZM11.6869 11.1525C11.889 10.6409 12 10.0834 12 9.5C12 7.01472 9.98528 5 7.5 5C5.01472 5 3 7.01472 3 9.5C3 11.9853 5.01472 14 7.5 14C8.6801 14 9.75411 13.5457 10.5567 12.8025L15.2291 16.0001L10.5567 19.1975C9.75411 18.4543 8.6801 18 7.5 18C5.01472 18 3 20.0147 3 22.5C3 24.9853 5.01472 27 7.5 27C9.98528 27 12 24.9853 12 22.5C12 21.9166 11.889 21.3591 11.6869 20.8475L16.9997 17.2119L28.4352 25.0377C28.891 25.3496 29.5133 25.233 29.8252 24.7772C30.1371 24.3215 30.0205 23.6991 29.5647 23.3872L17.5902 15.1924C17.5736 15.1803 17.5566 15.1687 17.5394 15.1577L11.6869 11.1525ZM9.53353 21.0455C9.54264 21.0604 9.55219 21.0751 9.56218 21.0897C9.57233 21.1046 9.58282 21.1191 9.59361 21.1332C9.85059 21.526 10 21.9955 10 22.5C10 23.8807 8.88071 25 7.5 25C6.11929 25 5 23.8807 5 22.5C5 21.1193 6.11929 20 7.5 20C8.33814 20 9.07995 20.4124 9.53353 21.0455ZM29.8255 7.22297C30.1373 7.67884 30.0205 8.30113 29.5646 8.6129L21.1021 14.4004C20.6462 14.7122 20.0239 14.5954 19.7122 14.1395C19.4004 13.6836 19.5172 13.0613 19.9731 12.7495L28.4356 6.96205C28.8915 6.65028 29.5138 6.7671 29.8255 7.22297Z" fill="#1100FF"/>
</svg>
