<svg width="32" height="32" viewBox="0 0 32 32" fill="none" xmlns="http://www.w3.org/2000/svg">
<path fill-rule="evenodd" clip-rule="evenodd" d="M4.71491 4.4675C5.07359 4.16671 5.5282 4 6 4H26C26.5304 4 27.0391 4.21071 27.4142 4.58579C27.7893 4.96086 28 5.46957 28 6V26C28 26.4714 27.8336 26.9257 27.5332 27.2842C27.5 27.3318 27.4622 27.3771 27.4197 27.4196C27.3773 27.462 27.332 27.4998 27.2845 27.533C26.9259 27.8335 26.4715 28 26 28H23C22.4477 28 22 27.5523 22 27C22 26.4477 22.4477 26 23 26H24.5859L6 7.41409V9C6 9.55228 5.55228 10 5 10C4.44772 10 4 9.55228 4 9V6C4 5.52808 4.16679 5.07336 4.46772 4.71465C4.50076 4.66747 4.53835 4.62251 4.58049 4.58037C4.62267 4.53819 4.66768 4.50056 4.71491 4.4675ZM7.41434 6L26 24.5857V6H7.41434ZM5 13C5.55228 13 6 13.4477 6 14V18C6 18.5523 5.55228 19 5 19C4.44772 19 4 18.5523 4 18V14C4 13.4477 4.44772 13 5 13ZM5 22C5.55228 22 6 22.4477 6 23V26H9C9.55228 26 10 26.4477 10 27C10 27.5523 9.55228 28 9 28H6C5.46957 28 4.96086 27.7893 4.58579 27.4142C4.21071 27.0391 4 26.5304 4 26V23C4 22.4477 4.44772 22 5 22ZM13 27C13 26.4477 13.4477 26 14 26H18C18.5523 26 19 26.4477 19 27C19 27.5523 18.5523 28 18 28H14C13.4477 28 13 27.5523 13 27Z" fill="#1100FF"/>
</svg>
