<svg width="32" height="32" viewBox="0 0 32 32" fill="none" xmlns="http://www.w3.org/2000/svg">
<path d="M23.5187 19C24.9675 19 26.2038 17.9662 26.4587 16.5425L27.9837 8.18C28.0375 7.88875 27.9575 7.5875 27.7675 7.36C27.5775 7.1325 27.2962 7 27 7H6.83125L6.2225 3.65C6.05375 2.7025 5.23375 2.00875 4.2625 2H2C1.4475 2 1 2.4475 1 3C1 3.5525 1.4475 4 2 4L4.25375 4.00375L6.8175 18.1012C6.8225 18.1488 6.83125 18.195 6.8425 18.2412L7.68625 22.8775C6.96 23.5188 6.5 24.4575 6.5 25.5C6.5 27.43 8.07 29 10 29C11.93 29 13.5 27.43 13.5 25.5C13.5 24.9638 13.3787 24.455 13.1613 24H19.8375C19.6213 24.455 19.4988 24.9638 19.4988 25.5C19.4988 27.43 21.0688 29 22.9988 29C24.9288 29 26.4988 27.43 26.4988 25.5C26.4988 23.57 24.9288 22 22.9988 22H9.56L9.01375 19H23.5187ZM11.5 25.5C11.5 26.3275 10.8275 27 10 27C9.1725 27 8.5 26.3275 8.5 25.5C8.5 24.6725 9.1725 24 10 24C10.8275 24 11.5 24.6725 11.5 25.5ZM24.5 25.5C24.5 26.3275 23.8275 27 23 27C22.1725 27 21.5 26.3275 21.5 25.5C21.5 24.6725 22.1725 24 23 24C23.8275 24 24.5 24.6725 24.5 25.5ZM7.195 9H25.8013L24.4912 16.1862C24.4062 16.6587 23.9988 17 23.5163 17H8.65L7.195 9Z" fill="#1100FF"/>
</svg>
