<svg width="32" height="32" viewBox="0 0 32 32" fill="none" xmlns="http://www.w3.org/2000/svg">
<path d="M7.5 30C8.32843 30 9 29.3284 9 28.5C9 27.6716 8.32843 27 7.5 27C6.67157 27 6 27.6716 6 28.5C6 29.3284 6.67157 30 7.5 30Z" fill="#1100FF"/>
<path d="M11 26.5C11.8284 26.5 12.5 25.8284 12.5 25C12.5 24.1716 11.8284 23.5 11 23.5C10.1716 23.5 9.5 24.1716 9.5 25C9.5 25.8284 10.1716 26.5 11 26.5Z" fill="#1100FF"/>
<path d="M3.5 26C4.32843 26 5 25.3284 5 24.5C5 23.6716 4.32843 23 3.5 23C2.67157 23 2 23.6716 2 24.5C2 25.3284 2.67157 26 3.5 26Z" fill="#1100FF"/>
<path d="M7 22.5C7.82843 22.5 8.5 21.8284 8.5 21C8.5 20.1716 7.82843 19.5 7 19.5C6.17157 19.5 5.5 20.1716 5.5 21C5.5 21.8284 6.17157 22.5 7 22.5Z" fill="#1100FF"/>
<path d="M31 4H27.4088C26.88 4 26.3825 4.205 26.005 4.58L22.5187 8.06625L6.74875 10.6887C5.66125 10.8687 4.9225 11.9 5.1025 12.9888C5.1725 13.41 5.37 13.79 5.6675 14.0825L17.9113 26.3263C18.2863 26.7075 18.7862 26.92 19.32 26.925C19.3263 26.925 19.3325 26.925 19.3388 26.925C19.8663 26.925 20.3625 26.7225 20.74 26.3512C21.045 26.0525 21.2425 25.6712 21.3113 25.2512L23.9338 9.48L27.4125 6H31C31.5525 6 32 5.5525 32 5C32 4.4475 31.5525 4 31 4ZM19.3325 24.9175L7.07625 12.6613L21.7838 10.2162L19.3325 24.9175Z" fill="#1100FF"/>
</svg>
