<svg width="32" height="32" viewBox="0 0 32 32" fill="none" xmlns="http://www.w3.org/2000/svg">
<path d="M29.805 23.5913C29.8137 23.5788 29.8225 23.5675 29.8312 23.555C29.8412 23.5388 29.8512 23.5225 29.8612 23.5063C29.8687 23.495 29.8762 23.4825 29.8825 23.4713C29.8912 23.455 29.8987 23.4388 29.9062 23.4225C29.9125 23.4088 29.9187 23.3963 29.925 23.3825C29.9312 23.3663 29.9375 23.35 29.9425 23.335C29.9475 23.32 29.9537 23.3063 29.9575 23.29C29.9625 23.2738 29.9662 23.2575 29.97 23.2413C29.9737 23.2263 29.9787 23.2113 29.9812 23.195C29.985 23.1763 29.9875 23.1575 29.99 23.1375C29.9912 23.1238 29.995 23.1113 29.9962 23.0975C30.0025 23.0313 30.0025 22.965 29.9962 22.9C29.995 22.8863 29.9925 22.8738 29.99 22.86C29.9875 22.8413 29.985 22.8213 29.9812 22.8025C29.9787 22.7863 29.9737 22.7713 29.97 22.7563C29.9662 22.74 29.9625 22.7238 29.9575 22.7075C29.9525 22.6925 29.9475 22.6775 29.9425 22.6625C29.9362 22.6463 29.9312 22.63 29.925 22.615C29.92 22.6013 29.9125 22.5888 29.9062 22.575C29.8987 22.5588 29.8912 22.5425 29.8825 22.5263C29.8762 22.5138 29.8687 22.5025 29.8612 22.4913C29.8512 22.475 29.8425 22.4588 29.8312 22.4425C29.8225 22.43 29.8137 22.4188 29.805 22.4063C29.795 22.3925 29.785 22.3775 29.7725 22.3638C29.7575 22.3463 29.7425 22.33 29.7262 22.3125C29.72 22.305 29.7137 22.2975 29.7062 22.29L26.7062 19.29C26.3162 18.9 25.6825 18.9 25.2925 19.29C24.9025 19.68 24.9025 20.3138 25.2925 20.7038L26.585 21.9963H21.5175L21.5125 21.99L12.1187 8.85C11.7462 8.3125 11.1362 7.99 10.4875 8H4C3.4475 8 3 8.4475 3 9C3 9.5525 3.4475 10 4 10H10.4812L10.4862 10.0063L19.8812 23.1488C20.2512 23.6825 20.8562 24 21.4975 23.9988H26.585L25.2925 25.2913C24.9025 25.6813 24.9025 26.315 25.2925 26.705C25.4875 26.9 25.7437 26.9975 26 26.9975C26.2562 26.9975 26.5112 26.9 26.7075 26.705L29.7075 23.705C29.715 23.6975 29.72 23.69 29.7275 23.6825C29.7437 23.6663 29.7587 23.6488 29.7737 23.6313C29.785 23.6175 29.795 23.6025 29.8062 23.5888L29.805 23.5913Z" fill="#1100FF"/>
<path d="M17.8825 13.3763C18.0587 13.5013 18.2612 13.5625 18.4625 13.5625C18.775 13.5625 19.0825 13.4163 19.2775 13.1425L21.515 10.005L21.5187 10H26.5862L25.2937 11.2925C24.9037 11.6825 24.9037 12.3163 25.2937 12.7063C25.4887 12.9013 25.745 12.9988 26.0012 12.9988C26.2575 12.9988 26.5125 12.9013 26.7087 12.7063L29.7087 9.70625C29.7087 9.70625 29.7137 9.70125 29.7162 9.69875C29.7362 9.6775 29.7562 9.65625 29.775 9.63375C29.785 9.62125 29.7937 9.6075 29.8037 9.595C29.8137 9.58125 29.8237 9.56875 29.8325 9.555C29.8425 9.54 29.8512 9.52375 29.86 9.50875C29.8675 9.49625 29.875 9.48375 29.8825 9.47125C29.8912 9.455 29.8975 9.43875 29.905 9.42375C29.9112 9.41 29.9187 9.3975 29.9237 9.3825C29.93 9.3675 29.935 9.35125 29.9412 9.335C29.9462 9.32 29.9525 9.305 29.9575 9.29C29.9625 9.27375 29.9662 9.2575 29.97 9.24125C29.9737 9.22625 29.9787 9.21 29.9812 9.195C29.985 9.17625 29.9875 9.1575 29.99 9.1375C29.9912 9.12375 29.995 9.11125 29.9962 9.0975C30.0025 9.03125 30.0025 8.965 29.9962 8.9C29.995 8.88625 29.9925 8.87375 29.99 8.86C29.9875 8.84125 29.985 8.8225 29.9812 8.8025C29.9775 8.78625 29.9737 8.77125 29.97 8.75625C29.9662 8.74 29.9625 8.72375 29.9575 8.7075C29.9525 8.6925 29.9475 8.6775 29.9412 8.6625C29.935 8.64625 29.93 8.63125 29.9237 8.615C29.9175 8.60125 29.9112 8.5875 29.905 8.57375C29.8975 8.5575 29.89 8.54125 29.8825 8.52625C29.875 8.51375 29.8675 8.50125 29.86 8.48875C29.8512 8.47375 29.8425 8.4575 29.8325 8.4425C29.8237 8.42875 29.8125 8.41625 29.8037 8.4025C29.7937 8.39 29.785 8.37625 29.775 8.36375C29.7562 8.34125 29.7362 8.32 29.7162 8.29875C29.7137 8.29625 29.7112 8.29375 29.7087 8.29125L26.7075 5.2925C26.3175 4.9025 25.6837 4.9025 25.2937 5.2925C24.9037 5.6825 24.9037 6.31625 25.2937 6.70625L26.5862 7.99875H21.505C20.8562 7.99875 20.25 8.31625 19.8813 8.85L17.6487 11.9812C17.3275 12.4312 17.4325 13.055 17.8825 13.3763Z" fill="#1100FF"/>
<path d="M14.1175 18.6237C13.6675 18.3038 13.0437 18.4075 12.7225 18.8575L10.485 21.995L10.4812 22.0012H4C3.4475 22.0012 3 22.4487 3 23.0012C3 23.5537 3.4475 24.0012 4 24.0012H10.495C11.1438 24.0012 11.75 23.6838 12.1187 23.15L14.3512 20.02C14.6725 19.57 14.5675 18.9462 14.1175 18.625V18.6237Z" fill="#1100FF"/>
</svg>
