<svg width="32" height="32" viewBox="0 0 32 32" fill="none" xmlns="http://www.w3.org/2000/svg">
<path d="M26 5V27C26 27.2652 25.8946 27.5196 25.7071 27.7071C25.5195 27.8946 25.2652 28 25 28C24.7348 28 24.4804 27.8946 24.2929 27.7071C24.1053 27.5196 24 27.2652 24 27V17.7875L9.03747 26.925C8.72391 27.1127 8.36541 27.212 7.99997 27.2125C7.65855 27.2171 7.32205 27.1308 7.02497 26.9625C6.71275 26.7897 6.45281 26.536 6.27246 26.2281C6.0921 25.9202 5.99798 25.5693 5.99997 25.2125V6.7875C5.9995 6.43251 6.09352 6.08379 6.27239 5.77715C6.45125 5.47051 6.70851 5.217 7.01774 5.04266C7.32698 4.86832 7.67704 4.77942 8.03199 4.78511C8.38694 4.79079 8.73398 4.89085 9.03747 5.075L24 14.2125V5C24 4.73478 24.1053 4.48043 24.2929 4.29289C24.4804 4.10536 24.7348 4 25 4C25.2652 4 25.5195 4.10536 25.7071 4.29289C25.8946 4.48043 26 4.73478 26 5Z" fill="#1100FF"/>
</svg>
