<svg width="32" height="32" viewBox="0 0 32 32" fill="none" xmlns="http://www.w3.org/2000/svg">
<path d="M29 13V12.97C29 10.78 27.2 9 25.02 9H24.97C24.27 9 23.59 9.19 23 9.53V7C23 4.79 21.21 3 19 3C17.81 3 16.74 3.52 16 4.35C15.27 3.52 14.2 3 13.02 3H12.97C10.77 3 8.99 4.81 9 6.99V7.03C9 7.75 9.2 8.42 9.53 9H7C4.79 9 3 10.79 3 13C3 14.19 3.52 15.26 4.35 16C4.28 16.06 4.22 16.12 4.15 16.18C3.41 16.94 3 17.94 3 18.99V19.03C3 20.1 3.42 21.09 4.18 21.84C4.93 22.59 5.93 23 6.98 23H7.03C7.75 23 8.42 22.8 9 22.47V25C9 27.21 10.79 29 13 29C14.19 29 15.26 28.48 16 27.65C16.06 27.72 16.12 27.78 16.18 27.85C16.93 28.6 17.93 29.01 18.98 29.01H19.03C20.1 29.01 21.09 28.59 21.84 27.83C22.59 27.07 23 26.07 23 25.01V24.98C23 24.28 22.81 23.6 22.47 23.01H25C27.21 23.01 29 21.22 29 19.01C29 17.82 28.48 16.75 27.65 16.01C27.72 15.95 27.78 15.89 27.85 15.83C28.6 15.07 29.01 14.07 29.01 13.01L29 13ZM19 5C20.1 5 21 5.9 21 7V13C21 14.1 20.1 15 19 15H17V7C17 5.9 17.9 5 19 5ZM11 7.02V6.99C11 5.89 11.88 5 12.98 4.99H13.01C14.1 4.99 14.99 5.88 15 6.97V8.99H13C11.9 8.99 11.01 8.11 11 7.01V7.02ZM7 11H13C14.1 11 15 11.9 15 13V15H7C5.9 15 5 14.1 5 13C5 11.9 5.9 11 7 11ZM7.03 21H7C6.47 21 5.97 20.8 5.59 20.42C5.21 20.05 5 19.55 5 19.02V18.99C5 18.46 5.2 17.96 5.58 17.58C5.96 17.2 6.45 16.99 6.98 16.99H9V18.99C9 20.09 8.12 20.99 7.03 20.99V21ZM13 27C11.9 27 11 26.1 11 25V19C11 17.9 11.9 17 13 17H15V25C15 26.1 14.1 27 13 27ZM20.41 23.58C20.79 23.95 21 24.45 21 24.98V25.01C21 25.54 20.8 26.04 20.42 26.42C20.04 26.8 19.55 27.01 19.02 27.01H18.98C18.45 27.01 17.96 26.81 17.58 26.43C17.2 26.06 16.99 25.56 16.99 25.03V23.01H19C19.53 23.01 20.02 23.21 20.4 23.59L20.41 23.58ZM25 21H19C17.9 21 17 20.1 17 19V17H25C26.1 17 27 17.9 27 19C27 20.1 26.1 21 25 21ZM23 15V13C23 12.46 23.2 11.96 23.58 11.59C23.96 11.22 24.45 11 24.98 11H25C26.09 11 26.98 11.89 26.99 12.97V13C26.99 13.53 26.79 14.03 26.41 14.41C26.03 14.79 25.54 15 25.01 15H22.99H23Z" fill="#1100FF"/>
</svg>
