<svg width="32" height="32" viewBox="0 0 32 32" fill="none" xmlns="http://www.w3.org/2000/svg">
<path fill-rule="evenodd" clip-rule="evenodd" d="M16 7C16.5523 7 17 7.44772 17 8V24C17 24.5523 16.5523 25 16 25C15.4477 25 15 24.5523 15 24V8C15 7.44772 15.4477 7 16 7Z" fill="#1100FF"/>
<path fill-rule="evenodd" clip-rule="evenodd" d="M12.2929 4.29289C12.6834 3.90237 13.3166 3.90237 13.7071 4.29289L16 6.58579L18.2929 4.29289C18.6834 3.90237 19.3166 3.90237 19.7071 4.29289C20.0976 4.68342 20.0976 5.31658 19.7071 5.70711L16.7071 8.70711C16.3166 9.09763 15.6834 9.09763 15.2929 8.70711L12.2929 5.70711C11.9024 5.31658 11.9024 4.68342 12.2929 4.29289Z" fill="#1100FF"/>
<path fill-rule="evenodd" clip-rule="evenodd" d="M15.2929 23.2929C15.6834 22.9024 16.3166 22.9024 16.7071 23.2929L19.7071 26.2929C20.0976 26.6834 20.0976 27.3166 19.7071 27.7071C19.3166 28.0976 18.6834 28.0976 18.2929 27.7071L16 25.4142L13.7071 27.7071C13.3166 28.0976 12.6834 28.0976 12.2929 27.7071C11.9024 27.3166 11.9024 26.6834 12.2929 26.2929L15.2929 23.2929Z" fill="#1100FF"/>
<path fill-rule="evenodd" clip-rule="evenodd" d="M8.20895 11.4997C8.48519 11.0215 9.09681 10.8578 9.57505 11.134L23.425 19.134C23.9033 19.4102 24.067 20.0219 23.7908 20.5001C23.5146 20.9783 22.9029 21.1421 22.4247 20.8658L8.5747 12.8658C8.09646 12.5896 7.93271 11.978 8.20895 11.4997Z" fill="#1100FF"/>
<path fill-rule="evenodd" clip-rule="evenodd" d="M7.71573 6.93406C8.24915 6.79095 8.79759 7.10736 8.9407 7.64078L10.0407 11.7408C10.1838 12.2742 9.86741 12.8226 9.33399 12.9657L5.23399 14.0658C4.70057 14.2089 4.15213 13.8925 4.00901 13.359C3.8659 12.8256 4.18231 12.2772 4.71573 12.1341L7.84989 11.2932L7.00902 8.15904C6.8659 7.62561 7.18231 7.07718 7.71573 6.93406Z" fill="#1100FF"/>
<path fill-rule="evenodd" clip-rule="evenodd" d="M27.9909 18.6408C28.134 19.1742 27.8176 19.7226 27.2842 19.8657L24.15 20.7066L24.9909 23.8408C25.134 24.3742 24.8176 24.9226 24.2842 25.0658C23.7508 25.2089 23.2023 24.8925 23.0592 24.359L21.9592 20.259C21.8161 19.7256 22.1325 19.1772 22.6659 19.0341L26.7659 17.9341C27.2993 17.791 27.8478 18.1074 27.9909 18.6408Z" fill="#1100FF"/>
<path fill-rule="evenodd" clip-rule="evenodd" d="M23.7908 11.4997C24.067 11.978 23.9033 12.5896 23.425 12.8658L9.57505 20.8658C9.09681 21.1421 8.48519 20.9783 8.20895 20.5001C7.93271 20.0219 8.09646 19.4102 8.5747 19.134L22.4247 11.134C22.9029 10.8578 23.5146 11.0215 23.7908 11.4997Z" fill="#1100FF"/>
<path fill-rule="evenodd" clip-rule="evenodd" d="M4.00901 18.6408C4.15213 18.1074 4.70057 17.791 5.23399 17.9341L9.33399 19.0341C9.86741 19.1772 10.1838 19.7256 10.0407 20.259L8.9407 24.359C8.79759 24.8925 8.24915 25.2089 7.71573 25.0658C7.18231 24.9226 6.8659 24.3742 7.00901 23.8408L7.84989 20.7066L4.71573 19.8657C4.18231 19.7226 3.8659 19.1742 4.00901 18.6408Z" fill="#1100FF"/>
<path fill-rule="evenodd" clip-rule="evenodd" d="M24.2839 6.93406C24.8174 7.07718 25.1338 7.62561 24.9907 8.15904L24.1498 11.2932L27.2839 12.1341C27.8174 12.2772 28.1338 12.8256 27.9907 13.359C27.8475 13.8925 27.2991 14.2089 26.7657 14.0658L22.6657 12.9657C22.4095 12.897 22.1912 12.7294 22.0586 12.4996C21.9261 12.2699 21.8902 11.9969 21.959 11.7408L23.059 7.64078C23.2021 7.10736 23.7505 6.79095 24.2839 6.93406Z" fill="#1100FF"/>
</svg>
