<svg width="32" height="32" viewBox="0 0 32 32" fill="none" xmlns="http://www.w3.org/2000/svg">
<path fill-rule="evenodd" clip-rule="evenodd" d="M16 5C9.92487 5 5 9.92487 5 16C5 22.0751 9.92487 27 16 27C22.0751 27 27 22.0751 27 16C27 9.92487 22.0751 5 16 5ZM3 16C3 8.8203 8.8203 3 16 3C23.1797 3 29 8.8203 29 16C29 23.1797 23.1797 29 16 29C8.8203 29 3 23.1797 3 16Z" fill="#1100FF"/>
<path fill-rule="evenodd" clip-rule="evenodd" d="M15.4118 9.94109C15.7624 9.6863 16.2372 9.6863 16.5877 9.94109L21.5752 13.5661C21.9252 13.8205 22.0719 14.2711 21.9388 14.6827L20.0388 20.5577C19.9053 20.9704 19.521 21.25 19.0873 21.25H12.9123C12.4785 21.25 12.0943 20.9704 11.9608 20.5577L10.0608 14.6827C9.92766 14.2711 10.0744 13.8205 10.4243 13.5661L15.4118 9.94109ZM12.187 14.7575L13.6399 19.25H18.3597L19.8126 14.7575L15.9998 11.9862L12.187 14.7575Z" fill="#1100FF"/>
<path fill-rule="evenodd" clip-rule="evenodd" d="M16 7C16.5523 7 17 7.44772 17 8V10.75C17 11.3023 16.5523 11.75 16 11.75C15.4477 11.75 15 11.3023 15 10.75V8C15 7.44772 15.4477 7 16 7Z" fill="#1100FF"/>
<path fill-rule="evenodd" clip-rule="evenodd" d="M10.8157 4.23768C11.1401 3.79069 11.7654 3.6913 12.2124 4.01569L16.0001 6.76444L19.7877 4.01569C20.2347 3.6913 20.86 3.79069 21.1844 4.23768C21.5088 4.68466 21.4094 5.30998 20.9624 5.63436L16.5874 8.80936C16.2371 9.06358 15.763 9.06358 15.4127 8.80936L11.0377 5.63436C10.5907 5.30998 10.4914 4.68466 10.8157 4.23768Z" fill="#1100FF"/>
<path fill-rule="evenodd" clip-rule="evenodd" d="M7.43611 13.217C7.60625 12.6916 8.17011 12.4035 8.69554 12.5737L11.3205 13.4237C11.846 13.5938 12.134 14.1577 11.9638 14.6831C11.7937 15.2085 11.2298 15.4966 10.7044 15.3264L8.07942 14.4764C7.55399 14.3063 7.26597 13.7424 7.43611 13.217Z" fill="#1100FF"/>
<path fill-rule="evenodd" clip-rule="evenodd" d="M6.4169 7.43605C6.94235 7.26601 7.50616 7.55414 7.6762 8.07959L9.3387 13.2171C9.4718 13.6284 9.32553 14.0787 8.97614 14.3332L4.60113 17.5207C4.15476 17.8459 3.52926 17.7477 3.20404 17.3013C2.87882 16.855 2.97704 16.2295 3.42342 15.9042L7.21276 13.1434L5.77335 8.69536C5.60331 8.1699 5.89144 7.60609 6.4169 7.43605Z" fill="#1100FF"/>
<path fill-rule="evenodd" clip-rule="evenodd" d="M13.4992 19.4402C13.9464 19.7643 14.0462 20.3896 13.7221 20.8368L12.1096 23.0618C11.7855 23.509 11.1603 23.6088 10.7131 23.2847C10.2659 22.9606 10.1661 22.3353 10.4902 21.8881L12.1027 19.6631C12.4267 19.2159 13.052 19.1161 13.4992 19.4402Z" fill="#1100FF"/>
<path fill-rule="evenodd" clip-rule="evenodd" d="M4.8877 22.475C4.8877 21.9227 5.33541 21.475 5.8877 21.475H11.3002C11.7331 21.475 12.1168 21.7535 12.2509 22.165L13.9259 27.3025C14.0971 27.8276 13.8103 28.392 13.2852 28.5632C12.7601 28.7344 12.1956 28.4475 12.0245 27.9224L10.5744 23.475H5.8877C5.33541 23.475 4.8877 23.0273 4.8877 22.475Z" fill="#1100FF"/>
<path fill-rule="evenodd" clip-rule="evenodd" d="M18.5007 19.4402C18.9479 19.1161 19.5731 19.2159 19.8972 19.6631L21.5097 21.8881C21.8338 22.3353 21.734 22.9606 21.2868 23.2847C20.8396 23.6088 20.2143 23.509 19.8903 23.0618L18.2778 20.8368C17.9537 20.3896 18.0535 19.7643 18.5007 19.4402Z" fill="#1100FF"/>
<path fill-rule="evenodd" clip-rule="evenodd" d="M19.7494 22.165C19.8836 21.7535 20.2673 21.475 20.7002 21.475H26.1127C26.665 21.475 27.1127 21.9227 27.1127 22.475C27.1127 23.0273 26.665 23.475 26.1127 23.475H21.4259L19.9759 27.9225C19.8047 28.4475 19.2403 28.7344 18.7152 28.5632C18.1901 28.392 17.9032 27.8276 18.0744 27.3025L19.7494 22.165Z" fill="#1100FF"/>
<path fill-rule="evenodd" clip-rule="evenodd" d="M24.5639 13.217C24.7341 13.7424 24.4461 14.3063 23.9206 14.4764L21.2956 15.3264C20.7702 15.4966 20.2063 15.2085 20.0362 14.6831C19.8661 14.1577 20.1541 13.5938 20.6795 13.4237L23.3045 12.5737C23.8299 12.4035 24.3938 12.6916 24.5639 13.217Z" fill="#1100FF"/>
<path fill-rule="evenodd" clip-rule="evenodd" d="M25.5828 7.43605C26.1082 7.60609 26.3963 8.1699 26.2263 8.69536L24.7869 13.1434L28.5762 15.9042C29.0226 16.2295 29.1208 16.855 28.7956 17.3013C28.4704 17.7477 27.8449 17.8459 27.3985 17.5207L23.0235 14.3332C22.6741 14.0787 22.5279 13.6284 22.6609 13.2171L24.3234 8.07959C24.4935 7.55414 25.0573 7.26601 25.5828 7.43605Z" fill="#1100FF"/>
</svg>
