<svg width="32" height="32" viewBox="0 0 32 32" fill="none" xmlns="http://www.w3.org/2000/svg">
<path d="M20 30H12C11.6788 30 11.3763 29.845 11.1888 29.585C11.0013 29.325 10.95 28.9888 11.0513 28.6838L12.4125 24.6075C9.5675 25.57 6.29375 24.76 4.25125 22.3237C3.12 20.9737 2.49875 19.26 2.5 17.4987C2.5 14.5087 4.71375 11 9.08125 7.06875C12.2313 4.235 15.33 2.24125 15.4613 2.1575C15.79 1.9475 16.2113 1.9475 16.5388 2.1575C16.6688 2.24125 19.7688 4.23375 22.9188 7.06875C27.285 10.9987 29.5 14.5087 29.5 17.5C29.5038 21.635 26.1425 25.0025 22.0063 25.005H22C21.1738 25.005 20.3588 24.8675 19.5863 24.605L20.9475 28.6825C21.05 28.9875 20.9988 29.3225 20.81 29.5837C20.6225 29.845 20.32 29.9988 19.9988 29.9988L20 30ZM13.3888 28H18.6125L16.8775 22.8037C16.7363 22.3787 16.8938 21.9125 17.2625 21.66C17.6325 21.4075 18.125 21.4325 18.4675 21.72C19.4563 22.5487 20.7113 23.005 22 23.005H22.005C25.0375 23.0025 27.5025 20.5325 27.5 17.5C27.5 12.86 19.655 6.64125 16 4.195C12.345 6.645 4.5 12.865 4.5 17.5C4.5 18.7925 4.955 20.0487 5.785 21.0387C7.7325 23.3625 11.2088 23.67 13.5338 21.7213C13.8763 21.4338 14.3688 21.4087 14.7388 21.6612C15.1088 21.9125 15.2663 22.38 15.125 22.805L13.39 28.0012L13.3888 28Z" fill="#1100FF"/>
</svg>
