<svg width="32" height="32" viewBox="0 0 32 32" fill="none" xmlns="http://www.w3.org/2000/svg">
<path d="M19.4375 3.10007C19.2694 3.01898 19.082 2.98654 18.8964 3.00642C18.7109 3.02631 18.5346 3.09771 18.3875 3.21257L9.65 10.0001H4C3.46957 10.0001 2.96086 10.2108 2.58579 10.5859C2.21071 10.9609 2 11.4696 2 12.0001V20.0001C2 20.5305 2.21071 21.0392 2.58579 21.4143C2.96086 21.7894 3.46957 22.0001 4 22.0001H9.65L18.3875 28.7876C18.5619 28.9253 18.7777 29.0002 19 29.0001C19.1513 28.9983 19.3004 28.9642 19.4375 28.9001C19.6063 28.818 19.7485 28.69 19.848 28.5309C19.9475 28.3717 20.0001 28.1878 20 28.0001V4.00007C20.0001 3.81239 19.9475 3.62845 19.848 3.46929C19.7485 3.31014 19.6063 3.18219 19.4375 3.10007Z" fill="#1100FF"/>
<path d="M24 12.0001C23.7348 12.0001 23.4804 12.1054 23.2929 12.293C23.1054 12.4805 23 12.7349 23 13.0001V19.0001C23 19.2653 23.1054 19.5196 23.2929 19.7072C23.4804 19.8947 23.7348 20.0001 24 20.0001C24.2652 20.0001 24.5196 19.8947 24.7071 19.7072C24.8946 19.5196 25 19.2653 25 19.0001V13.0001C25 12.7349 24.8946 12.4805 24.7071 12.293C24.5196 12.1054 24.2652 12.0001 24 12.0001Z" fill="#1100FF"/>
</svg>
