<svg width="32" height="32" viewBox="0 0 32 32" fill="none" xmlns="http://www.w3.org/2000/svg">
<path fill-rule="evenodd" clip-rule="evenodd" d="M26.6544 8.93117C27.0444 8.54019 27.6776 8.53945 28.0686 8.92952C28.9985 9.85725 29.7362 10.9593 30.2396 12.1725C30.743 13.3858 31.0021 14.6864 31.0021 16C31.0021 17.3135 30.743 18.6141 30.2396 19.8274C29.7362 21.0406 28.9985 22.1427 28.0686 23.0704C27.6776 23.4604 27.0444 23.4597 26.6544 23.0687C26.2643 22.6778 26.265 22.0446 26.656 21.6545C27.3997 20.9126 27.9897 20.0312 28.3923 19.0609C28.7949 18.0906 29.0021 17.0504 29.0021 16C29.0021 14.9495 28.7949 13.9093 28.3923 12.939C27.9897 11.9687 27.3997 11.0873 26.656 10.3454C26.265 9.95531 26.2643 9.32214 26.6544 8.93117Z" fill="#1100FF"/>
<path fill-rule="evenodd" clip-rule="evenodd" d="M10 10C10.5523 10 11 10.4477 11 11V21C11 21.5523 10.5523 22 10 22C9.44772 22 9 21.5523 9 21V11C9 10.4477 9.44772 10 10 10Z" fill="#1100FF"/>
<path fill-rule="evenodd" clip-rule="evenodd" d="M23.1167 12.4693C23.5065 12.078 24.1397 12.0768 24.5309 12.4666C24.9961 12.93 25.3652 13.4806 25.617 14.087C25.8689 14.6934 25.9985 15.3435 25.9985 16C25.9985 16.6566 25.8689 17.3067 25.617 17.9131C25.3652 18.5195 24.9961 19.0701 24.5309 19.5335C24.1397 19.9233 23.5065 19.9221 23.1167 19.5308C22.727 19.1395 22.7282 18.5064 23.1194 18.1166C23.3981 17.839 23.6192 17.5092 23.77 17.146C23.9209 16.7828 23.9985 16.3933 23.9985 16C23.9985 15.6068 23.9209 15.2173 23.77 14.8541C23.6192 14.4909 23.3981 14.1611 23.1194 13.8835C22.7282 13.4937 22.727 12.8606 23.1167 12.4693Z" fill="#1100FF"/>
<path fill-rule="evenodd" clip-rule="evenodd" d="M5.32733 4.26007C5.73599 3.88856 6.36844 3.91868 6.73995 4.32733L26.7399 26.3273C27.1115 26.736 27.0813 27.3684 26.6727 27.7399C26.264 28.1115 25.6316 28.0813 25.2601 27.6727L5.26007 5.67268C4.88856 5.26402 4.91868 4.63157 5.32733 4.26007Z" fill="#1100FF"/>
<path fill-rule="evenodd" clip-rule="evenodd" d="M11.6387 9.7227C11.9782 10.1583 11.9003 10.7867 11.4647 11.1262L10.6147 11.7887C10.4391 11.9256 10.2227 11.9999 10 11.9999H4V19.9999H10C10.2224 19.9999 10.4384 20.0741 10.6139 20.2106L18 25.9553V19.2999C18 18.7477 18.4477 18.2999 19 18.2999C19.5523 18.2999 20 18.7477 20 19.2999V27.9999C20 28.3819 19.7824 28.7305 19.4394 28.8983C19.0963 29.0661 18.6875 29.0238 18.3861 28.7893L9.65689 21.9999H4C3.46957 21.9999 2.96086 21.7892 2.58579 21.4142C2.21071 21.0391 2 20.5304 2 19.9999V11.9999C2 11.4695 2.21071 10.9608 2.58579 10.5857C2.96086 10.2107 3.46957 9.99995 4 9.99995H9.65632L10.2353 9.54872C10.6709 9.20921 11.2992 9.2871 11.6387 9.7227Z" fill="#1100FF"/>
<path fill-rule="evenodd" clip-rule="evenodd" d="M19.439 3.10154C19.7823 3.26928 19.9999 3.61795 19.9999 4.00001V13.35C19.9999 13.9023 19.5522 14.35 18.9999 14.35C18.4477 14.35 17.9999 13.9023 17.9999 13.35V6.04645L14.6394 8.66393C14.2037 9.00331 13.5754 8.92521 13.236 8.4895C12.8967 8.05379 12.9747 7.42546 13.4105 7.08608L18.3855 3.21108C18.6869 2.97631 19.0957 2.9338 19.439 3.10154Z" fill="#1100FF"/>
</svg>
