<svg width="32" height="32" viewBox="0 0 32 32" fill="none" xmlns="http://www.w3.org/2000/svg">
<path d="M19.4375 3.10007C19.2694 3.01898 19.082 2.98654 18.8964 3.00642C18.7109 3.02631 18.5346 3.09771 18.3875 3.21257L9.65 10.0001H4C3.46957 10.0001 2.96086 10.2108 2.58579 10.5859C2.21071 10.9609 2 11.4696 2 12.0001V20.0001C2 20.5305 2.21071 21.0392 2.58579 21.4143C2.96086 21.7894 3.46957 22.0001 4 22.0001H9.65L18.3875 28.7876C18.5619 28.9253 18.7777 29.0002 19 29.0001C19.1513 28.9983 19.3004 28.9642 19.4375 28.9001C19.6063 28.818 19.7485 28.69 19.848 28.5309C19.9475 28.3717 20.0001 28.1878 20 28.0001V4.00007C20.0001 3.81239 19.9475 3.62845 19.848 3.46929C19.7485 3.31014 19.6063 3.18219 19.4375 3.10007Z" fill="#1100FF"/>
<path d="M28.4125 16.0001L30.7125 13.7126C30.872 13.5183 30.9535 13.2716 30.9411 13.0206C30.9288 12.7695 30.8235 12.532 30.6458 12.3543C30.4681 12.1766 30.2306 12.0713 29.9795 12.0589C29.7285 12.0466 29.4818 12.1281 29.2875 12.2876L27 14.5876L24.7125 12.2876C24.5182 12.1281 24.2715 12.0466 24.0205 12.0589C23.7694 12.0713 23.5319 12.1766 23.3542 12.3543C23.1765 12.532 23.0712 12.7695 23.0589 13.0206C23.0465 13.2716 23.128 13.5183 23.2875 13.7126L25.5875 16.0001L23.2875 18.2876C23.0997 18.4772 22.9944 18.7332 22.9944 19.0001C22.9944 19.2669 23.0997 19.523 23.2875 19.7126C23.4795 19.8961 23.7345 19.999 24 20.0001C24.265 19.9965 24.5192 19.8939 24.7125 19.7126L27 17.4126L29.2875 19.7126C29.4795 19.8961 29.7345 19.999 30 20.0001C30.265 19.9965 30.5192 19.8939 30.7125 19.7126C30.9003 19.523 31.0056 19.2669 31.0056 19.0001C31.0056 18.7332 30.9003 18.4772 30.7125 18.2876L28.4125 16.0001Z" fill="#1100FF"/>
</svg>
