<svg width="32" height="32" viewBox="0 0 32 32" fill="none" xmlns="http://www.w3.org/2000/svg">
<path fill-rule="evenodd" clip-rule="evenodd" d="M6 18C6.55228 18 7 18.4477 7 19V26H25V19C25 18.4477 25.4477 18 26 18C26.5523 18 27 18.4477 27 19V27C27 27.5523 26.5523 28 26 28H6C5.44772 28 5 27.5523 5 27V19C5 18.4477 5.44772 18 6 18Z" fill="#1100FF"/>
<path fill-rule="evenodd" clip-rule="evenodd" d="M10 22C10 21.4477 10.4477 21 11 21H21C21.5523 21 22 21.4477 22 22C22 22.5523 21.5523 23 21 23H11C10.4477 23 10 22.5523 10 22Z" fill="#1100FF"/>
<path fill-rule="evenodd" clip-rule="evenodd" d="M10.9091 15.1409C11.0522 14.6075 11.6005 14.291 12.134 14.434L21.784 17.0215C22.3174 17.1646 22.6339 17.713 22.4909 18.2464C22.3479 18.7798 21.7995 19.0963 21.266 18.9533L11.616 16.3658C11.0826 16.2228 10.7661 15.6744 10.9091 15.1409Z" fill="#1100FF"/>
<path fill-rule="evenodd" clip-rule="evenodd" d="M13.5464 8.75002C13.8225 8.2717 14.4341 8.10775 14.9124 8.38384L23.5749 13.3838C24.0532 13.6599 24.2172 14.2715 23.9411 14.7498C23.665 15.2281 23.0534 15.3921 22.5751 15.116L13.9126 10.116C13.4343 9.83992 13.2704 9.22834 13.5464 8.75002Z" fill="#1100FF"/>
<path fill-rule="evenodd" clip-rule="evenodd" d="M17.768 3.26799C18.1585 2.87747 18.7917 2.87747 19.1822 3.26799L26.2447 10.3305C26.6352 10.721 26.6352 11.3542 26.2447 11.7447C25.8542 12.1352 25.221 12.1352 24.8305 11.7447L17.768 4.6822C17.3775 4.29168 17.3775 3.65852 17.768 3.26799Z" fill="#1100FF"/>
</svg>
