<svg width="32" height="32" viewBox="0 0 32 32" fill="none" xmlns="http://www.w3.org/2000/svg">
<path d="M27 27H5C4.4475 27 4 27.4475 4 28C4 28.5525 4.4475 29 5 29H27C27.5525 29 28 28.5525 28 28C28 27.4475 27.5525 27 27 27Z" fill="#1100FF"/>
<path d="M26 16H19.2375L21.2037 6.83375C21.2625 6.55875 21.2925 6.2775 21.2912 5.995C21.2887 3.79125 19.495 2 17.2925 2H14.71C14.4312 2 14.15 2.03 13.8762 2.0875C11.7187 2.5475 10.3375 4.67625 10.7975 6.835L12.7625 16H6C4.8975 16 4 16.8975 4 18V23C4 24.1025 4.8975 25 6 25H26C27.1025 25 28 24.1025 28 23V18C28 16.8975 27.1025 16 26 16ZM12.7525 6.41625C12.5225 5.3375 13.2137 4.27375 14.2912 4.04375C14.4287 4.015 14.5687 4 14.7087 4H17.2887C18.39 4 19.2875 4.89625 19.2887 5.9975C19.2887 6.13875 19.2737 6.27875 19.245 6.415L17.19 16H14.8062L12.7512 6.41625H12.7525ZM26 23H6V18H17.9962C17.9962 18 17.9987 18 18.0012 18C18.0037 18 18.0062 18 18.0062 18H26V23Z" fill="#1100FF"/>
</svg>
