<svg width="32" height="32" viewBox="0 0 32 32" fill="none" xmlns="http://www.w3.org/2000/svg">
<path fill-rule="evenodd" clip-rule="evenodd" d="M16 2.00006C16.5523 2.00006 17 2.44778 17 3.00006V23.6751C17 24.2273 16.5523 24.6751 16 24.6751C15.4477 24.6751 15 24.2273 15 23.6751V3.00006C15 2.44778 15.4477 2.00006 16 2.00006Z" fill="#1100FF"/>
<path fill-rule="evenodd" clip-rule="evenodd" d="M25.5768 11.6018C25.6104 11.0505 26.0845 10.6309 26.6357 10.6644L28.0773 10.7522C29.9911 10.8764 30.645 13.2713 29.2536 14.43L28.1678 15.3411C27.7447 15.6961 27.1139 15.6409 26.7589 15.2178C26.4039 14.7948 26.4591 14.164 26.8822 13.809L27.9736 12.8933C27.9853 12.8836 27.9902 12.8766 27.9923 12.8733C27.9947 12.8696 27.9967 12.8653 27.9982 12.8594C28.0018 12.8459 28.003 12.8226 27.9947 12.7958C27.9864 12.769 27.9741 12.7559 27.9705 12.7529L27.9684 12.7515C27.9684 12.7515 27.9625 12.749 27.9488 12.748L26.5142 12.6607C25.963 12.6272 25.5433 12.1531 25.5768 11.6018Z" fill="#1100FF"/>
<path fill-rule="evenodd" clip-rule="evenodd" d="M24.9781 16.6818C25.3333 17.1047 25.2785 17.7355 24.8556 18.0907L23.5996 19.1457C23.5869 19.1562 23.5774 19.1701 23.5723 19.1858C23.5672 19.2012 23.5665 19.2177 23.5703 19.2334L23.9821 20.8683C24.117 21.4038 23.7922 21.9473 23.2567 22.0822C22.7211 22.2171 22.1776 21.8924 22.0427 21.3568L21.6293 19.7159C21.5346 19.3341 21.5496 18.9333 21.6728 18.5598C21.7954 18.1876 22.0203 17.8575 22.3217 17.6072L23.5692 16.5593C23.9921 16.2041 24.6229 16.259 24.9781 16.6818Z" fill="#1100FF"/>
<path fill-rule="evenodd" clip-rule="evenodd" d="M14.8311 2.36078C15.1736 2.12087 15.5817 1.99219 15.9999 1.99219C16.4181 1.99219 16.8262 2.12088 17.1687 2.36078C17.5067 2.59747 17.7647 2.93111 17.9089 3.31744L20.0164 8.62989L20.6539 10.2299L20.6625 10.2523C20.665 10.2592 20.6695 10.2651 20.6754 10.2694C20.6812 10.2738 20.6882 10.2763 20.6955 10.2767L20.6984 10.2769L22.3359 10.3769C22.8871 10.4106 23.3067 10.8847 23.273 11.436C23.2394 11.9872 22.7652 12.4068 22.2139 12.3732L20.5793 12.2733L20.5779 12.2733C20.1832 12.25 19.8038 12.1125 19.486 11.8773C19.1715 11.6447 18.9307 11.3265 18.7922 10.9609L16.0454 4.04379C16.0418 4.03486 16.0384 4.02589 16.0351 4.01687C16.0325 4.00964 16.0277 4.00339 16.0214 3.99897C16.0151 3.99456 16.0076 3.99219 15.9999 3.99219C15.9922 3.99219 15.9847 3.99456 15.9784 3.99897C15.9721 4.00339 15.9673 4.00964 15.9647 4.01687C15.9613 4.026 15.9579 4.03508 15.9543 4.04411L13.2078 10.9603C13.0694 11.3262 12.8285 11.6446 12.5138 11.8773C12.1966 12.112 11.818 12.2495 11.4241 12.2731L4.0522 12.7479C4.03764 12.7489 4.03152 12.7515 4.03152 12.7515L4.02941 12.7528C4.02578 12.7559 4.01348 12.7689 4.00519 12.7957C3.99687 12.8226 3.99812 12.8458 4.00167 12.8593C4.00323 12.8653 4.00523 12.8695 4.00755 12.8732C4.00966 12.8766 4.01461 12.8835 4.02631 12.8932L4.02792 12.8946L9.67464 17.6044L9.6766 17.606C9.97875 17.8564 10.2042 18.187 10.327 18.5598C10.4501 18.9333 10.4652 19.3341 10.3705 19.7159L10.3692 19.721L8.68127 26.3726C8.64514 26.514 8.69498 26.6236 8.78632 26.693C8.83307 26.7285 8.88029 26.7438 8.9176 26.7464C8.94847 26.7486 8.9912 26.7441 9.05053 26.7064L14.9133 22.9937L14.9149 22.9927C15.2393 22.7868 15.6156 22.6775 15.9999 22.6775C16.3848 22.6775 16.7616 22.7871 17.0864 22.9936L18.5233 23.9058C18.9896 24.2017 19.1277 24.8197 18.8317 25.286C18.5357 25.7522 17.9178 25.8903 17.4515 25.5943L16.014 24.6818C16.01 24.6792 16.0047 24.6775 15.9999 24.6775C15.9951 24.6775 15.9905 24.6788 15.9865 24.6814L15.9849 24.6824L10.1243 28.3937L10.1234 28.3943C8.32737 29.5361 6.25301 27.8001 6.7433 25.8784L8.42934 19.2342L8.42961 19.2331C8.43327 19.2174 8.43255 19.201 8.42751 19.1857C8.42235 19.1701 8.41287 19.1562 8.40017 19.1457L8.39689 19.143L2.7485 14.4318L2.7477 14.4312C1.35441 13.2729 2.00816 10.8764 3.92261 10.7521L11.3043 10.2767C11.3116 10.2763 11.3186 10.2738 11.3244 10.2694C11.3303 10.2651 11.3348 10.2592 11.3373 10.2523L11.3455 10.231L14.091 3.31724C14.2352 2.931 14.4932 2.59743 14.8311 2.36078Z" fill="#1100FF"/>
<path fill-rule="evenodd" clip-rule="evenodd" d="M23.8261 24.319C24.361 24.1816 24.906 24.5038 25.0434 25.0387L25.3943 26.4045C25.8358 28.1474 23.9536 29.716 22.3164 28.6833L21.0902 27.9076C20.6235 27.6123 20.4845 26.9946 20.7798 26.5279C21.0751 26.0612 21.6928 25.9222 22.1595 26.2175L23.3834 26.9917C23.3951 26.9991 23.4022 27.0016 23.4043 27.0022C23.4069 27.0017 23.4155 26.9993 23.4274 26.9903C23.4426 26.9788 23.4522 26.9645 23.4566 26.9529C23.4586 26.9476 23.4599 26.9418 23.4603 26.9347C23.4607 26.9281 23.4605 26.9157 23.4557 26.8966L23.1063 25.5363C22.9689 25.0014 23.2912 24.4564 23.8261 24.319Z" fill="#1100FF"/>
</svg>
