<svg width="32" height="32" viewBox="0 0 32 32" fill="none" xmlns="http://www.w3.org/2000/svg">
<path fill-rule="evenodd" clip-rule="evenodd" d="M4 7C4.55228 7 5 7.44772 5 8V18C5 18.5523 4.55228 19 4 19C3.44772 19 3 18.5523 3 18V8C3 7.44772 3.44772 7 4 7Z" fill="#1100FF"/>
<path fill-rule="evenodd" clip-rule="evenodd" d="M16 23.002C14.3343 23.002 12.695 23.4175 11.2304 24.211C9.76588 25.0044 8.52242 26.1508 7.6127 27.5461C7.31107 28.0087 6.6915 28.1392 6.22886 27.8376C5.76622 27.536 5.6357 26.9164 5.93733 26.4538C7.02877 24.7797 8.5206 23.4045 10.2777 22.4525C12.0348 21.5005 14.0016 21.002 16 21.002C17.9984 21.002 19.9653 21.5005 21.7223 22.4525C23.4794 23.4045 24.9713 24.7797 26.0627 26.4538C26.3643 26.9164 26.2338 27.536 25.7712 27.8376C25.3085 28.1392 24.689 28.0087 24.3873 27.5461C23.4776 26.1508 22.2342 25.0044 20.7696 24.211C19.3051 23.4175 17.6657 23.002 16 23.002Z" fill="#1100FF"/>
<path fill-rule="evenodd" clip-rule="evenodd" d="M15.6838 3.05132C15.889 2.98289 16.111 2.98289 16.3162 3.05132L28.3162 7.05132C28.7246 7.18743 29 7.56957 29 8C29 8.43043 28.7246 8.81257 28.3162 8.94868L16.3162 12.9487C16.111 13.0171 15.889 13.0171 15.6838 12.9487L3.68377 8.94868C3.27543 8.81257 3 8.43043 3 8C3 7.56957 3.27543 7.18743 3.68377 7.05132L15.6838 3.05132ZM7.16228 8L16 10.9459L24.8377 8L16 5.05409L7.16228 8Z" fill="#1100FF"/>
<path fill-rule="evenodd" clip-rule="evenodd" d="M11.5129 9.53741C11.9202 9.91039 11.948 10.5429 11.575 10.9503C10.7887 11.8089 10.2693 12.8777 10.0799 14.0264C9.89054 15.1752 10.0395 16.3542 10.5085 17.4197C10.9776 18.4853 11.7465 19.3914 12.7216 20.0275C13.6967 20.6636 14.8358 21.002 16 21.002C17.1643 21.002 18.3033 20.6636 19.2784 20.0275C20.2535 19.3914 21.0224 18.4853 21.4915 17.4197C21.9605 16.3542 22.1095 15.1752 21.9201 14.0264C21.7307 12.8777 21.2113 11.8089 20.425 10.9503C20.052 10.5429 20.0798 9.91039 20.4872 9.53741C20.8945 9.16442 21.527 9.19225 21.9 9.59956C22.9484 10.7444 23.641 12.1695 23.8935 13.7011C24.146 15.2328 23.9474 16.8048 23.322 18.2255C22.6965 19.6463 21.6713 20.8544 20.3712 21.7025C19.0711 22.5507 17.5523 23.002 16 23.002C14.4477 23.002 12.9289 22.5507 11.6288 21.7025C10.3287 20.8544 9.30346 19.6463 8.67804 18.2255C8.05262 16.8048 7.85405 15.2328 8.10654 13.7011C8.35902 12.1695 9.05166 10.7444 10.1 9.59956C10.473 9.19225 11.1055 9.16442 11.5129 9.53741Z" fill="#1100FF"/>
</svg>
