<svg width="32" height="32" viewBox="0 0 32 32" fill="none" xmlns="http://www.w3.org/2000/svg">
<path fill-rule="evenodd" clip-rule="evenodd" d="M16 9.5C12.4101 9.5 9.5 12.4101 9.5 16C9.5 19.5899 12.4101 22.5 16 22.5C19.5899 22.5 22.5 19.5899 22.5 16C22.5 12.4101 19.5899 9.5 16 9.5ZM7.5 16C7.5 11.3056 11.3056 7.5 16 7.5C20.6944 7.5 24.5 11.3056 24.5 16C24.5 20.6944 20.6944 24.5 16 24.5C11.3056 24.5 7.5 20.6944 7.5 16Z" fill="#1100FF"/>
<path fill-rule="evenodd" clip-rule="evenodd" d="M16 2.5C16.5523 2.5 17 2.94772 17 3.5V4.5C17 5.05228 16.5523 5.5 16 5.5C15.4477 5.5 15 5.05228 15 4.5V3.5C15 2.94772 15.4477 2.5 16 2.5Z" fill="#1100FF"/>
<path fill-rule="evenodd" clip-rule="evenodd" d="M6.45549 6.45549C6.84601 6.06497 7.47918 6.06497 7.8697 6.45549L8.56971 7.15549C8.96023 7.54602 8.96023 8.17918 8.56971 8.56971C8.17918 8.96023 7.54602 8.96023 7.15549 8.56971L6.45549 7.8697C6.06497 7.47918 6.06497 6.84601 6.45549 6.45549Z" fill="#1100FF"/>
<path fill-rule="evenodd" clip-rule="evenodd" d="M2.5 16C2.5 15.4477 2.94772 15 3.5 15H4.5C5.05228 15 5.5 15.4477 5.5 16C5.5 16.5523 5.05228 17 4.5 17H3.5C2.94772 17 2.5 16.5523 2.5 16Z" fill="#1100FF"/>
<path fill-rule="evenodd" clip-rule="evenodd" d="M8.56971 23.4303C8.96023 23.8209 8.96023 24.454 8.5697 24.8446L7.8697 25.5446C7.47918 25.9351 6.84601 25.9351 6.45549 25.5446C6.06497 25.154 6.06497 24.5209 6.45549 24.1303L7.15549 23.4303C7.54602 23.0398 8.17918 23.0398 8.56971 23.4303Z" fill="#1100FF"/>
<path fill-rule="evenodd" clip-rule="evenodd" d="M16 26.5C16.5523 26.5 17 26.9477 17 27.5V28.5C17 29.0523 16.5523 29.5 16 29.5C15.4477 29.5 15 29.0523 15 28.5V27.5C15 26.9477 15.4477 26.5 16 26.5Z" fill="#1100FF"/>
<path fill-rule="evenodd" clip-rule="evenodd" d="M23.4306 23.4303C23.8211 23.0398 24.4543 23.0398 24.8448 23.4303L25.5448 24.1303C25.9353 24.5209 25.9353 25.154 25.5448 25.5446C25.1543 25.9351 24.5211 25.9351 24.1306 25.5446L23.4306 24.8446C23.0401 24.454 23.0401 23.8209 23.4306 23.4303Z" fill="#1100FF"/>
<path fill-rule="evenodd" clip-rule="evenodd" d="M26.5 16C26.5 15.4477 26.9477 15 27.5 15H28.5C29.0523 15 29.5 15.4477 29.5 16C29.5 16.5523 29.0523 17 28.5 17H27.5C26.9477 17 26.5 16.5523 26.5 16Z" fill="#1100FF"/>
<path fill-rule="evenodd" clip-rule="evenodd" d="M25.5448 6.45549C25.9353 6.84601 25.9353 7.47918 25.5448 7.8697L24.8448 8.5697C24.4543 8.96023 23.8211 8.96023 23.4306 8.56971C23.0401 8.17918 23.0401 7.54602 23.4306 7.15549L24.1306 6.45549C24.5211 6.06497 25.1543 6.06497 25.5448 6.45549Z" fill="#1100FF"/>
</svg>
