<svg width="32" height="32" viewBox="0 0 32 32" fill="none" xmlns="http://www.w3.org/2000/svg">
<path d="M25.0125 5H24.995C24.4425 5.0025 23.9963 5.4525 23.9988 6.00375C24.0013 6.555 24.4488 7 24.9988 7C25.0038 7 25.0075 7 25.0113 7C26.1038 7 26.9938 7.88625 26.9988 8.975V16.5H5.00005V8.99625C4.99755 8.465 5.20255 7.965 5.5763 7.58875C5.95005 7.21125 6.4488 7.0025 6.9788 7.00125H7.00005C7.5488 7.00125 7.9963 6.55875 8.00005 6.00875C8.0038 5.45625 7.56005 5.005 7.00755 5.00125H6.9713C5.9063 5.005 4.9063 5.42375 4.1563 6.18C3.4063 6.93625 2.99505 7.93875 3.00005 9V20.5C3.00005 23.5325 5.46755 26 8.50005 26C10.1275 26 11.5913 25.2887 12.5988 24.1625C12.61 24.1525 12.6213 24.1437 12.6313 24.1325C12.6813 24.0825 12.725 24.0275 12.7625 23.97C13.535 23.0225 13.9988 21.815 13.9988 20.5V18.5H17.9988V20.5C17.9988 23.5325 20.4663 26 23.4988 26C25.1263 26 26.59 25.2887 27.5975 24.1625C27.6088 24.1525 27.62 24.1425 27.6313 24.1325C27.6813 24.0825 27.725 24.0275 27.7625 23.97C28.535 23.0225 28.9988 21.815 28.9988 20.5013V8.97125C28.99 6.77875 27.2025 5 25.0113 5H25.0125ZM27 20.5C27 20.9688 26.9063 21.4163 26.7388 21.825L23.4138 18.5H27V20.5ZM5.00005 20.5V18.5H5.5863L10.475 23.3888C9.91255 23.7738 9.23254 24 8.5013 24C6.5713 24 5.0013 22.43 5.0013 20.5H5.00005ZM12 20.5C12 20.9688 11.9063 21.4163 11.7388 21.825L8.4138 18.5H12V20.5ZM20 20.5V18.5H20.5863L25.475 23.3888C24.9125 23.7738 24.2325 24 23.5013 24C21.5713 24 20.0013 22.43 20.0013 20.5H20Z" fill="#1100FF"/>
</svg>
