<svg width="32" height="32" viewBox="0 0 32 32" fill="none" xmlns="http://www.w3.org/2000/svg">
<path fill-rule="evenodd" clip-rule="evenodd" d="M8.59727 4.66123L5.57229 21.7981C5.22728 23.7597 6.54532 25.6536 8.45646 25.9622C9.3626 26.103 10.2879 25.8838 11.0346 25.3515C11.7817 24.8189 12.2907 24.0152 12.4529 23.1123L12.4531 23.111L15.4888 5.88386C15.489 5.8809 15.4883 5.87793 15.4866 5.87548C15.4849 5.87309 15.4825 5.87138 15.4797 5.8706L8.59727 4.66123ZM8.93736 2.69031C8.67863 2.64397 8.41328 2.64941 8.15665 2.70632C7.89913 2.76344 7.65556 2.87124 7.44013 3.02345C7.2247 3.17565 7.04172 3.36922 6.90186 3.59286C6.76331 3.81441 6.66982 4.06108 6.62672 4.31875L3.60263 21.4511C3.07278 24.4637 5.07848 27.4447 8.14115 27.9372L8.14572 27.9379C9.569 28.16 11.0227 27.8162 12.1956 26.98C13.3686 26.1438 14.1676 24.8817 14.4217 23.4638L14.4222 23.4609L17.4597 6.22343L17.4612 6.21507C17.5483 5.69515 17.4279 5.16182 17.1259 4.72974C16.8239 4.29765 16.3644 4.00131 15.8462 3.90442L8.94006 2.69079L8.93736 2.69031Z" fill="#1100FF"/>
<path fill-rule="evenodd" clip-rule="evenodd" d="M23.5563 11.3483C23.8032 11.2575 24.0657 11.2163 24.3286 11.2272C24.5925 11.238 24.8517 11.3011 25.0911 11.4126C25.3305 11.5242 25.5454 11.6821 25.7235 11.8772C25.9009 12.0715 26.0382 12.299 26.1275 12.5465L26.1285 12.5493L28.5295 19.127C28.7065 19.6244 28.6797 20.1716 28.4549 20.6493C28.2301 21.127 27.8256 21.4964 27.3295 21.677L10.8794 27.6646C10.3604 27.8535 9.78659 27.5859 9.59769 27.0669C9.40879 26.5479 9.67638 25.9741 10.1954 25.7852L26.6453 19.7977L24.2463 13.2255L24.2415 13.2272L15.129 16.5397C14.61 16.7284 14.0362 16.4606 13.8476 15.9415C13.6589 15.4225 13.9267 14.8487 14.4457 14.66L23.5535 11.3493L23.5563 11.3483Z" fill="#1100FF"/>
<path fill-rule="evenodd" clip-rule="evenodd" d="M27.5 19.3124C28.0523 19.3124 28.5 19.7601 28.5 20.3124V25.9999C28.5 26.5303 28.2893 27.039 27.9142 27.4141C27.5391 27.7892 27.0304 27.9999 26.5 27.9999H9C8.44772 27.9999 8 27.5522 8 26.9999C8 26.4476 8.44772 25.9999 9 25.9999H26.5V20.3124C26.5 19.7601 26.9477 19.3124 27.5 19.3124Z" fill="#1100FF"/>
<path d="M9 23.9999C9.82843 23.9999 10.5 23.3283 10.5 22.4999C10.5 21.6715 9.82843 20.9999 9 20.9999C8.17157 20.9999 7.5 21.6715 7.5 22.4999C7.5 23.3283 8.17157 23.9999 9 23.9999Z" fill="#1100FF"/>
</svg>
