<svg width="32" height="32" viewBox="0 0 32 32" fill="none" xmlns="http://www.w3.org/2000/svg">
<path fill-rule="evenodd" clip-rule="evenodd" d="M27.707 4.29289C27.8953 4.4812 28.0008 4.73683 27.9999 5.00313L27.9749 12.9781C27.974 13.2753 27.8409 13.5567 27.6118 13.746L16.1118 23.246C15.686 23.5977 15.0557 23.5377 14.704 23.1119C14.3522 22.6861 14.4123 22.0558 14.838 21.704L25.9764 12.5028L25.9968 6.00315L19.4971 6.02352L10.2959 17.1619C9.94415 17.5877 9.31384 17.6477 8.88805 17.296C8.46226 16.9442 8.40223 16.3139 8.75397 15.8881L18.254 4.38812C18.4432 4.159 18.7246 4.02594 19.0218 4.02501L26.9968 4C27.2631 3.99917 27.5187 4.10459 27.707 4.29289Z" fill="#1100FF"/>
<path fill-rule="evenodd" clip-rule="evenodd" d="M20.7071 11.2929C21.0976 11.6834 21.0976 12.3166 20.7071 12.7071L13.2071 20.2071C12.8166 20.5976 12.1834 20.5976 11.7929 20.2071C11.4024 19.8166 11.4024 19.1834 11.7929 18.7929L19.2929 11.2929C19.6834 10.9024 20.3166 10.9024 20.7071 11.2929Z" fill="#1100FF"/>
<path fill-rule="evenodd" clip-rule="evenodd" d="M6.22781 13.5694C6.47245 13.4669 6.73502 13.4142 7.00024 13.4142C7.26546 13.4142 7.52803 13.4669 7.77268 13.5694C8.01595 13.6712 8.23666 13.8202 8.42212 14.0077L17.9926 23.5781C18.1801 23.7636 18.329 23.9843 18.4309 24.2276C18.5333 24.4722 18.5861 24.7348 18.5861 25C18.5861 25.2652 18.5333 25.5278 18.4309 25.7724C18.329 26.0157 18.1801 26.2364 17.9926 26.4219L16.4221 27.9923C16.2367 28.1798 16.016 28.3288 15.7727 28.4307C15.528 28.5331 15.2655 28.5858 15.0002 28.5858C14.735 28.5858 14.4724 28.5331 14.2278 28.4307C13.9845 28.3288 13.7638 28.1798 13.5784 27.9923L10.9752 25.3892L10.9699 25.3946L7.23149 29.133C6.85656 29.507 6.34859 29.717 5.81899 29.717C5.2894 29.717 4.78142 29.507 4.40649 29.133L2.86728 27.5938C2.49325 27.2188 2.2832 26.7109 2.2832 26.1813C2.2832 25.6517 2.49325 25.1437 2.86728 24.7688L6.61105 21.025L6.60561 21.0196L4.0079 18.4219C3.82042 18.2364 3.67146 18.0157 3.5696 17.7724C3.46716 17.5278 3.41441 17.2652 3.41441 17C3.41441 16.7348 3.46716 16.4722 3.5696 16.2276C3.67145 15.9843 3.82041 15.7636 4.00787 15.5782L5.57839 14.0077C5.76384 13.8202 5.98454 13.6712 6.22781 13.5694ZM16.5806 24.9946L7.00022 15.4142L6.99487 15.4196L5.41443 17L5.41987 17.0054L8.01761 19.6032C8.20507 19.7886 8.35403 20.0093 8.45588 20.2526C8.55832 20.4972 8.61107 20.7598 8.61107 21.025C8.61107 21.2902 8.55832 21.5528 8.45588 21.7974C8.35404 22.0407 8.2051 22.2614 8.01765 22.4468L4.2832 26.1813L5.81899 27.7171L9.55331 23.9827C9.73877 23.7952 9.95951 23.6462 10.2028 23.5444C10.4474 23.4419 10.71 23.3892 10.9752 23.3892C11.2405 23.3892 11.503 23.4419 11.7477 23.5444C11.991 23.6462 12.2117 23.7952 12.3971 23.9827L15.0003 26.5858L15.0056 26.5804L16.586 25L16.5806 24.9946Z" fill="#1100FF"/>
</svg>
