<svg width="32" height="32" viewBox="0 0 32 32" fill="none" xmlns="http://www.w3.org/2000/svg">
<path d="M29.7087 8.29278L23.7085 2.29251C23.3185 1.9025 22.6847 1.9025 22.2947 2.29251C21.9046 2.68253 21.9046 3.31631 22.2947 3.70633L24.5873 5.99893L21.0008 9.58534L16.7082 5.29265C16.3181 4.90263 15.6844 4.90263 15.2943 5.29265C14.9043 5.68266 14.9043 6.31644 15.2943 6.70646L16.0869 7.499L5.57891 18.0082C5.20389 18.3845 4.99888 18.8858 5.00013 19.4133V25.5873L2.29251 28.2937C1.9025 28.6837 1.9025 29.3175 2.29251 29.7075C2.48752 29.9025 2.74378 30 3.00004 30C3.25631 30 3.51132 29.9025 3.70758 29.7075L6.4152 26.9999H12.5917C13.113 26.9999 13.6243 26.7886 13.9955 26.4198L24.501 15.9144L25.2935 16.7069C25.4885 16.9019 25.7448 16.9994 26.0011 16.9994C26.2573 16.9994 26.5123 16.9019 26.7086 16.7069C27.0986 16.3169 27.0986 15.6831 26.7086 15.2931L22.4159 11.0004L26.0023 7.41399L28.2949 9.70659C28.4899 9.9016 28.7462 9.99911 29.0025 9.99911C29.2587 9.99911 29.5137 9.9016 29.71 9.70659C30.1 9.31658 30.1 8.6828 29.71 8.29278H29.7087ZM12.588 25.001H6.99897L6.99397 19.4208L9.24907 17.1657L11.7917 19.7083C11.9867 19.9033 12.243 20.0008 12.4992 20.0008C12.7555 20.0008 13.0105 19.9033 13.2067 19.7083C13.5968 19.3183 13.5968 18.6845 13.2067 18.2945L10.6641 15.7519L12.7505 13.6655L15.2931 16.2081C15.4881 16.4031 15.7444 16.5006 16.0006 16.5006C16.2569 16.5006 16.5119 16.4031 16.7082 16.2081C17.0982 15.8181 17.0982 15.1843 16.7082 14.7943L14.1655 12.2517L17.5019 8.91531L23.0872 14.5006L12.588 25.001Z" fill="#1100FF"/>
</svg>
