<svg width="32" height="32" viewBox="0 0 32 32" fill="none" xmlns="http://www.w3.org/2000/svg">
<path fill-rule="evenodd" clip-rule="evenodd" d="M4.75223 10C4.32151 9.99857 3.90181 10.1362 3.55559 10.3925C3.20863 10.6494 2.95408 11.0116 2.82998 11.425L0.0424725 20.7125C-0.116291 21.2415 0.183824 21.799 0.712797 21.9578C1.24177 22.1166 1.79929 21.8165 1.95805 21.2875L4.74555 12H15.2503L15.255 12L18.0425 21.2875C18.2012 21.8165 18.7588 22.1166 19.2877 21.9578C19.8167 21.799 20.1168 21.2415 19.9581 20.7125L17.1706 11.425C17.0464 11.0116 16.7919 10.6494 16.4449 10.3925C16.0987 10.1362 15.679 9.99857 15.2483 10H15.2503V11L15.2455 10C15.2465 10 15.2474 10 15.2483 10" fill="#1100FF"/>
<path fill-rule="evenodd" clip-rule="evenodd" d="M21.2485 10C21.6792 9.99857 22.0989 10.1362 22.4452 10.3925C22.7921 10.6494 23.0467 11.0116 23.1708 11.425L25.9583 20.7125C26.117 21.2415 25.8169 21.799 25.288 21.9578C24.759 22.1166 24.2015 21.8165 24.0427 21.2875L21.2552 12L21.2505 12L20.0005 12C19.4482 12 19.0005 11.5523 19.0005 11C19.0005 10.4477 19.4482 10 20.0005 10H21.2485Z" fill="#1100FF"/>
<path fill-rule="evenodd" clip-rule="evenodd" d="M27.2485 10C27.6792 9.99857 28.0989 10.1362 28.4452 10.3925C28.7921 10.6494 29.0467 11.0116 29.1708 11.425L31.9583 20.7125C32.117 21.2415 31.8169 21.799 31.288 21.9578C30.759 22.1166 30.2015 21.8165 30.0427 21.2875L27.2552 12L27.2505 12L26.0005 12C25.4482 12 25.0005 11.5523 25.0005 11C25.0005 10.4477 25.4482 10 26.0005 10H27.2485Z" fill="#1100FF"/>
<path fill-rule="evenodd" clip-rule="evenodd" d="M0.000488277 21C0.000488277 20.4477 0.448204 20 1.00049 20H31.0005C31.5528 20 32.0005 20.4477 32.0005 21C32.0005 21.5523 31.5528 22 31.0005 22H1.00049C0.448204 22 0.000488277 21.5523 0.000488277 21Z" fill="#1100FF"/>
</svg>
