<svg width="32" height="32" viewBox="0 0 32 32" fill="none" xmlns="http://www.w3.org/2000/svg">
<path fill-rule="evenodd" clip-rule="evenodd" d="M28.7071 3.29289C29.0976 3.68342 29.0976 4.31658 28.7071 4.70711L16.7071 16.7071C16.3166 17.0976 15.6834 17.0976 15.2929 16.7071C14.9024 16.3166 14.9024 15.6834 15.2929 15.2929L27.2929 3.29289C27.6834 2.90237 28.3166 2.90237 28.7071 3.29289Z" fill="#1100FF"/>
<path fill-rule="evenodd" clip-rule="evenodd" d="M7.58879 6.03394C10.0867 3.93338 13.2822 2.84713 16.5427 2.99019C19.8033 3.13325 22.8914 4.49518 25.1957 6.80644C25.5856 7.19755 25.5847 7.83071 25.1936 8.22065C24.8025 8.61059 24.1693 8.60964 23.7794 8.21853C21.8289 6.26217 19.215 5.10936 16.4551 4.98827C13.6952 4.86718 10.9904 5.78663 8.87601 7.56465C6.76167 9.34267 5.39188 11.8497 5.03777 14.5894C4.68365 17.3292 5.37101 20.1021 6.9638 22.3593C8.55659 24.6164 10.9387 26.1934 13.6387 26.778C16.3387 27.3626 19.1598 26.9123 21.5436 25.5161C23.9275 24.12 25.7002 21.8797 26.5112 19.2389C27.3221 16.598 27.112 13.7489 25.9225 11.2556C25.6847 10.7571 25.896 10.1602 26.3944 9.92243C26.8929 9.68463 27.4898 9.89594 27.7276 10.3944C29.1329 13.3401 29.3811 16.706 28.4231 19.8259C27.465 22.9459 25.3706 25.5925 22.5544 27.2419C19.7382 28.8913 16.4053 29.4233 13.2155 28.7327C10.0257 28.042 7.21143 26.179 5.3297 23.5124C3.44796 20.8458 2.63591 17.5699 3.05427 14.3331C3.47262 11.0963 5.0909 8.1345 7.58879 6.03394Z" fill="#1100FF"/>
<path fill-rule="evenodd" clip-rule="evenodd" d="M12.0393 10.2522C13.3833 9.32429 15.0098 8.89642 16.6365 9.04297C18.2631 9.18951 19.787 9.90121 20.9434 11.0544C21.3345 11.4444 21.3354 12.0776 20.9454 12.4687C20.5555 12.8597 19.9223 12.8606 19.5312 12.4706C18.7058 11.6475 17.618 11.1395 16.457 11.0349C15.296 10.9303 14.135 11.2357 13.1757 11.8981C12.2164 12.5604 11.5194 13.5379 11.2058 14.6606C10.8922 15.7834 10.9818 16.9805 11.4591 18.0441C11.9363 19.1077 12.7711 19.9705 13.8183 20.4827C14.8655 20.9948 16.059 21.124 17.1915 20.8477C18.3241 20.5714 19.324 19.9071 20.0177 18.9703C20.7115 18.0334 21.0551 16.8831 20.9889 15.7193C20.9576 15.1679 21.3792 14.6955 21.9306 14.6642C22.482 14.6328 22.9544 15.0544 22.9857 15.6058C23.0784 17.2364 22.597 18.8479 21.6251 20.1604C20.6532 21.473 19.2522 22.4036 17.6655 22.7907C16.0789 23.1778 14.4067 22.9968 12.9396 22.2793C11.4724 21.5618 10.303 20.353 9.63437 18.8629C8.96575 17.3728 8.8402 15.6956 9.27954 14.1226C9.71888 12.5496 10.6953 11.1802 12.0393 10.2522Z" fill="#1100FF"/>
</svg>
