<svg width="32" height="32" viewBox="0 0 32 32" fill="none" xmlns="http://www.w3.org/2000/svg">
<path d="M30 14.0001H28.58L25.1562 8.00631C24.8025 7.38256 24.1413 7.00006 23.4237 7.00006H20.6763L19.18 3.25756C18.8813 2.50006 18.13 1.99381 17.325 2.00006H14.6687C13.8587 2.00006 13.1175 2.50381 12.8212 3.25381L11.3225 7.00006H8.57125C7.8575 7.00006 7.195 7.38506 6.84375 8.00381L3.41875 14.0001H2C1.4475 14.0001 1 14.4476 1 15.0001C1 15.5526 1.4475 16.0001 2 16.0001H3V26.0001C3 27.1026 3.8975 28.0001 5 28.0001H8C9.1025 28.0001 10 27.1026 10 26.0001V24.0001H22V26.0001C22 27.1026 22.8975 28.0001 24 28.0001H27C28.1025 28.0001 29 27.1026 29 26.0001V16.0001H30C30.5525 16.0001 31 15.5526 31 15.0001C31 14.4476 30.5525 14.0001 30 14.0001ZM14.6775 4.00006H17.3237L18.5238 7.00006H13.4775L14.6775 4.00006ZM8.57875 9.00006H23.4212L26.2775 14.0001H5.7225L8.57875 9.00006ZM8 26.0001H5V24.0001H8V26.0001ZM24 26.0001V24.0001H27V26.0001H24ZM27 22.0001H5V16.0001H27V22.0001Z" fill="#1100FF"/>
<path d="M8 20.0001H10C10.5525 20.0001 11 19.5526 11 19.0001C11 18.4476 10.5525 18.0001 10 18.0001H8C7.4475 18.0001 7 18.4476 7 19.0001C7 19.5526 7.4475 20.0001 8 20.0001Z" fill="#1100FF"/>
<path d="M22 20.0001H24C24.5525 20.0001 25 19.5526 25 19.0001C25 18.4476 24.5525 18.0001 24 18.0001H22C21.4475 18.0001 21 18.4476 21 19.0001C21 19.5526 21.4475 20.0001 22 20.0001Z" fill="#1100FF"/>
</svg>
