<svg width="32" height="32" viewBox="0 0 32 32" fill="none" xmlns="http://www.w3.org/2000/svg">
<path fill-rule="evenodd" clip-rule="evenodd" d="M26.876 3.61765C27.2137 3.48673 27.5806 3.44997 27.9376 3.51131C28.2945 3.57264 28.6282 3.72977 28.9028 3.96591C29.1774 4.20205 29.3828 4.50835 29.497 4.85209C29.6111 5.19583 29.6298 5.56413 29.551 5.91765L29.5497 5.92325L24.8497 26.4482C24.7721 26.7864 24.6077 27.099 24.373 27.3544C24.1383 27.6099 23.8412 27.7999 23.5109 27.9058C23.1805 28.0117 22.8283 28.0299 22.4889 27.9585C22.1501 27.8873 21.8356 27.7294 21.5761 27.5002L21.5746 27.4988L10.5405 17.7903L4.1406 16.5055L4.13648 16.5046C2.21419 16.1103 1.91879 13.4177 3.79755 12.6815L26.8719 3.61925L26.876 3.61765ZM4.53357 14.5411L4.53418 14.5445L4.53728 14.5452L4.53837 14.5454L11.1967 15.8821C11.3688 15.9166 11.5287 15.9958 11.6605 16.1118L22.898 25.9993L22.9003 26.0013L27.5989 5.48242L4.53357 14.5411Z" fill="#1100FF"/>
<path fill-rule="evenodd" clip-rule="evenodd" d="M28.8232 3.98951C29.1466 4.43723 29.0458 5.06232 28.5981 5.38569L11.5856 17.6732C11.1379 17.9966 10.5128 17.8958 10.1894 17.448C9.86604 17.0003 9.96684 16.3752 10.4146 16.0519L27.4271 3.76436C27.8748 3.44099 28.4999 3.5418 28.8232 3.98951Z" fill="#1100FF"/>
<path fill-rule="evenodd" clip-rule="evenodd" d="M11 15.8625C11.5523 15.8625 12 16.3103 12 16.8625L12 24.9984L12.0054 24.9929L15.9054 21.0929C16.2959 20.7024 16.9291 20.7024 17.3196 21.0929C17.7101 21.4835 17.7101 22.1166 17.3196 22.5072L13.4218 26.4049C13.144 26.6857 12.7893 26.878 12.4023 26.9575C12.0138 27.0373 11.6104 26.9997 11.2433 26.8497C10.8762 26.6996 10.562 26.4438 10.3406 26.1148C10.1192 25.7857 10.0007 25.3983 10 25.0017L10 16.8625C10 16.3103 10.4477 15.8625 11 15.8625Z" fill="#1100FF"/>
</svg>
