<svg width="32" height="32" viewBox="0 0 32 32" fill="none" xmlns="http://www.w3.org/2000/svg">
<path fill-rule="evenodd" clip-rule="evenodd" d="M9.21917 11.3753C9.56418 10.9441 10.1935 10.8742 10.6247 11.2192L15.6247 15.2192C15.8619 15.4089 16 15.6963 16 16C16 16.3038 15.8619 16.5911 15.6247 16.7809L10.6247 20.7809C10.1935 21.1259 9.56418 21.056 9.21917 20.6247C8.87416 20.1935 8.94408 19.5642 9.37534 19.2192L13.3993 16L9.37534 12.7809C8.94408 12.4359 8.87416 11.8066 9.21917 11.3753Z" fill="#1100FF"/>
<path fill-rule="evenodd" clip-rule="evenodd" d="M16 20C16 19.4477 16.4477 19 17 19H22C22.5523 19 23 19.4477 23 20C23 20.5523 22.5523 21 22 21H17C16.4477 21 16 20.5523 16 20Z" fill="#1100FF"/>
<path fill-rule="evenodd" clip-rule="evenodd" d="M5.0607 7.06258C5.0607 7.06279 5.0607 7.06229 5.0607 7.06258V24.9376C5.0607 24.9374 5.0607 24.9379 5.0607 24.9376C5.06084 24.9377 5.06103 24.9387 5.06125 24.9389C5.06108 24.9388 5.06147 24.9391 5.06125 24.9389C5.06146 24.9389 5.06229 24.9395 5.06258 24.9395H26.9376C26.9374 24.9395 26.9379 24.9395 26.9376 24.9395C26.9377 24.9393 26.9387 24.9391 26.9389 24.9389C26.9388 24.9391 26.9391 24.9387 26.9389 24.9389C26.9389 24.9387 26.9395 24.9379 26.9395 24.9376V7.06258C26.9395 7.06229 26.9395 7.06279 26.9395 7.06258C26.9393 7.06241 26.9391 7.06147 26.9389 7.06125C26.9387 7.06103 26.9391 7.06139 26.9389 7.06125C26.9387 7.06124 26.9379 7.0607 26.9376 7.0607H5.06258C5.06229 7.0607 5.06279 7.0607 5.06258 7.0607C5.06241 7.06084 5.06147 7.06103 5.06125 7.06125C5.06103 7.06148 5.06084 7.06241 5.0607 7.06258ZM2.93945 7.06258C2.93945 5.89001 3.89001 4.93945 5.06258 4.93945H26.9376C28.1101 4.93945 29.0607 5.89001 29.0607 7.06258V24.9376C29.0607 26.1101 28.1101 27.0607 26.9376 27.0607H5.06258C3.89001 27.0607 2.93945 26.1101 2.93945 24.9376V7.06258Z" fill="#1100FF"/>
</svg>
