<svg width="32" height="32" viewBox="0 0 32 32" fill="none" xmlns="http://www.w3.org/2000/svg">
<path fill-rule="evenodd" clip-rule="evenodd" d="M20.7931 3.29289C21.1836 2.90237 21.8168 2.90237 22.2073 3.29289L29.7073 10.7929C29.9524 11.038 30.0531 11.3924 29.9734 11.7298C29.8938 12.0671 29.6452 12.3391 29.3164 12.4487L26.5404 13.374L12.4586 27.4558C12.4584 27.456 12.4581 27.4563 12.4578 27.4566C11.9389 27.9773 11.3223 28.3905 10.6433 28.6725C9.96405 28.9546 9.23574 29.0998 8.5002 29.0998C7.76465 29.0998 7.03635 28.9546 6.35706 28.6725C5.67836 28.3906 5.06193 27.9776 4.54309 27.4571C4.02263 26.9383 3.60963 26.3218 3.32774 25.6431C3.04562 24.9639 2.90039 24.2355 2.90039 23.5C2.90039 22.7645 3.04562 22.0361 3.32774 21.3569C3.60973 20.6779 4.02294 20.0613 4.54369 19.5423C4.54394 19.542 4.54419 19.5418 4.54443 19.5416L20.7931 3.29289ZM5.2502 26.75L5.95864 26.0442C6.29195 26.3788 6.68804 26.6443 7.12418 26.8254C7.56032 27.0066 8.02794 27.0998 8.5002 27.0998C8.97246 27.0998 9.44007 27.0066 9.87622 26.8254C10.3124 26.6443 10.7084 26.3788 11.0417 26.0442L25.2931 11.7929C25.4029 11.6831 25.5367 11.6004 25.684 11.5513L27.149 11.063L21.5002 5.41421L5.9573 20.9571L5.95596 20.9584C5.62139 21.2918 5.35592 21.6878 5.17478 22.124C4.99364 22.5601 4.90039 23.0277 4.90039 23.5C4.90039 23.9723 4.99364 24.4399 5.17478 24.876C5.35592 25.3122 5.62139 25.7082 5.95596 26.0416L5.2502 26.75Z" fill="#1100FF"/>
<path fill-rule="evenodd" clip-rule="evenodd" d="M9.11697 17.787C8.68595 18.125 8.06211 18.0533 7.71917 17.6246C7.37416 17.1934 7.44408 16.5641 7.87534 16.2191L8.50004 16.9999C7.87534 16.2191 7.87584 16.2187 7.87634 16.2183L7.8774 16.2174L7.8797 16.2156L7.88502 16.2114L7.89858 16.2009C7.90891 16.193 7.92182 16.1832 7.93728 16.1719C7.96819 16.1492 8.00937 16.12 8.06057 16.0859C8.16289 16.0177 8.30581 15.9294 8.48742 15.8338C8.85026 15.6428 9.37116 15.4209 10.0331 15.2738C11.3748 14.9756 13.2351 14.9994 15.4473 16.1055C17.2351 16.9994 18.6248 16.9756 19.5331 16.7738C19.9962 16.6709 20.3503 16.5178 20.5812 16.3963C20.6964 16.3356 20.7801 16.2833 20.8301 16.2499C20.8551 16.2333 20.8715 16.2215 20.8792 16.2158C20.881 16.2145 20.8823 16.2135 20.8831 16.2129C20.8831 16.2129 20.8831 16.2129 20.8831 16.2129C21.3141 15.8749 21.938 15.9466 22.2809 16.3752C22.6259 16.8065 22.556 17.4358 22.1247 17.7808L21.5 16.9999C22.1247 17.7808 22.1242 17.7812 22.1237 17.7816L22.1227 17.7825L22.1204 17.7843L22.1151 17.7885L22.1015 17.799C22.0912 17.8069 22.0783 17.8166 22.0628 17.828C22.0319 17.8507 21.9907 17.8799 21.9395 17.914C21.8372 17.9822 21.6943 18.0705 21.5127 18.1661C21.1498 18.3571 20.6289 18.579 19.967 18.7261C18.6253 19.0243 16.765 19.0005 14.5528 17.8944C12.765 17.0005 11.3753 17.0243 10.467 17.2261C10.0039 17.329 9.64981 17.4821 9.41891 17.6036C9.30363 17.6643 9.22 17.7166 9.16997 17.75C9.145 17.7666 9.12856 17.7784 9.1209 17.7841C9.1191 17.7854 9.11779 17.7863 9.11697 17.787Z" fill="#1100FF"/>
</svg>
