<svg width="32" height="32" viewBox="0 0 32 32" fill="none" xmlns="http://www.w3.org/2000/svg">
<path fill-rule="evenodd" clip-rule="evenodd" d="M10.0002 6C10.3706 6 10.7107 6.20475 10.884 6.53211L19.884 23.5321C20.1424 24.0202 19.9562 24.6254 19.4681 24.8838C18.98 25.1422 18.3748 24.956 18.1164 24.4679L10.0002 9.13727L1.88399 24.4679C1.62558 24.956 1.02041 25.1422 0.532312 24.8838C0.0442097 24.6254 -0.141995 24.0202 0.116412 23.5321L9.11641 6.53211C9.28972 6.20475 9.62979 6 10.0002 6Z" fill="#1100FF"/>
<path fill-rule="evenodd" clip-rule="evenodd" d="M26 18.3625C24.2135 18.3625 23 19.6031 23 20.8625C23 22.122 24.2135 23.3625 26 23.3625C27.7865 23.3625 29 22.122 29 20.8625C29 19.6031 27.7865 18.3625 26 18.3625ZM21 20.8625C21 18.256 23.3682 16.3625 26 16.3625C28.6318 16.3625 31 18.256 31 20.8625C31 23.4691 28.6318 25.3625 26 25.3625C23.3682 25.3625 21 23.4691 21 20.8625Z" fill="#1100FF"/>
<path fill-rule="evenodd" clip-rule="evenodd" d="M25.9888 13.8625C25.1338 13.8529 24.3093 14.1793 23.6926 14.7714C23.2942 15.1539 22.6612 15.141 22.2787 14.7427C21.8962 14.3443 21.909 13.7112 22.3074 13.3287C23.3009 12.3749 24.6286 11.8486 26.0056 11.8626C28.6382 11.8653 31 13.7531 31 16.3626V24.0001C31 24.5524 30.5523 25.0001 30 25.0001C29.4477 25.0001 29 24.5524 29 24.0001V16.3626C29 15.0989 27.7901 13.8626 26 13.8626L25.9888 13.8625Z" fill="#1100FF"/>
<path fill-rule="evenodd" clip-rule="evenodd" d="M2.6499 19C2.6499 18.4477 3.09762 18 3.6499 18H16.3499C16.9022 18 17.3499 18.4477 17.3499 19C17.3499 19.5523 16.9022 20 16.3499 20H3.6499C3.09762 20 2.6499 19.5523 2.6499 19Z" fill="#1100FF"/>
</svg>
