<svg width="32" height="32" viewBox="0 0 32 32" fill="none" xmlns="http://www.w3.org/2000/svg">
<path fill-rule="evenodd" clip-rule="evenodd" d="M19.316 6.05134C19.84 6.22599 20.1231 6.79231 19.9485 7.31625L13.9485 25.3163C13.7738 25.8402 13.2075 26.1234 12.6836 25.9487C12.1596 25.7741 11.8765 25.2077 12.0511 24.6838L18.0511 6.6838C18.2257 6.15986 18.7921 5.8767 19.316 6.05134Z" fill="#1100FF"/>
<path fill-rule="evenodd" clip-rule="evenodd" d="M7 25C7 24.4477 7.44772 24 8 24H18C18.5523 24 19 24.4477 19 25C19 25.5523 18.5523 26 18 26H8C7.44772 26 7 25.5523 7 25Z" fill="#1100FF"/>
<path fill-rule="evenodd" clip-rule="evenodd" d="M13 7C13 6.44772 13.4477 6 14 6H24C24.5523 6 25 6.44772 25 7C25 7.55228 24.5523 8 24 8H14C13.4477 8 13 7.55228 13 7Z" fill="#1100FF"/>
</svg>
