<svg width="32" height="32" viewBox="0 0 32 32" fill="none" xmlns="http://www.w3.org/2000/svg">
<path d="M17.9987 6C17.4463 6 16.9988 6.44746 16.9988 6.99991V13.4993H5.99981V6.99991C5.99981 6.44746 5.55236 6 4.99991 6C4.44746 6 4 6.44746 4 6.99991V21.9985C4 22.551 4.44746 22.9984 4.99991 22.9984C5.55236 22.9984 5.99981 22.551 5.99981 21.9985V15.4991H16.9988V21.9985C16.9988 22.551 17.4463 22.9984 17.9987 22.9984C18.5512 22.9984 18.9986 22.551 18.9986 21.9985V6.99991C18.9986 6.44746 18.5512 6 17.9987 6Z" fill="#1100FF"/>
<path d="M29.9976 23.9983H25.9967L30.2851 18.2739C30.2938 18.2614 30.3026 18.2501 30.3113 18.2376C30.7638 17.5739 31.0012 16.799 30.9975 15.9978C30.9937 14.393 30.0363 12.9506 28.5577 12.3244C27.5741 11.9082 26.4867 11.8995 25.4968 12.3007C24.5069 12.7019 23.7319 13.4643 23.3157 14.448C23.1007 14.9567 23.3382 15.5429 23.8469 15.7591C24.3556 15.9741 24.9418 15.7366 25.158 15.2279C25.3668 14.7354 25.753 14.3542 26.2492 14.1542C26.7441 13.9543 27.2878 13.958 27.7803 14.1667C28.519 14.4792 28.9989 15.2004 29.0002 16.0053C29.0014 16.3953 28.8889 16.7715 28.6727 17.0965L23.2007 24.4008C22.9732 24.7033 22.937 25.1095 23.107 25.4482C23.277 25.7869 23.6219 26.0006 24.0006 26.0006H30.0001C30.5525 26.0006 31 25.5532 31 25.0007C31 24.4483 30.5525 24.0008 30.0001 24.0008L29.9976 23.9983Z" fill="#1100FF"/>
</svg>
