<svg width="32" height="32" viewBox="0 0 32 32" fill="none" xmlns="http://www.w3.org/2000/svg">
<path fill-rule="evenodd" clip-rule="evenodd" d="M15 22C14.1716 22 13.5 22.6716 13.5 23.5C13.5 24.3284 14.1716 25 15 25C15.8284 25 16.5 24.3284 16.5 23.5C16.5 22.6716 15.8284 22 15 22ZM11.5 23.5C11.5 21.567 13.067 20 15 20C16.933 20 18.5 21.567 18.5 23.5C18.5 25.433 16.933 27 15 27C13.067 27 11.5 25.433 11.5 23.5Z" fill="#1100FF"/>
<path fill-rule="evenodd" clip-rule="evenodd" d="M15 5C15.5523 5 16 5.44772 16 6V21C16 21.5523 15.5523 22 15 22C14.4477 22 14 21.5523 14 21V6C14 5.44772 14.4477 5 15 5Z" fill="#1100FF"/>
<path fill-rule="evenodd" clip-rule="evenodd" d="M23.3909 8.53364C23.8158 8.3575 24.2712 8.26685 24.7312 8.26685C25.1911 8.26685 25.6465 8.3575 26.0714 8.53364C26.4963 8.70977 26.8823 8.96793 27.2074 9.29335C27.3467 9.43281 27.5121 9.54345 27.6942 9.61894C27.8763 9.69442 28.0715 9.73328 28.2687 9.73328C28.4658 9.73328 28.661 9.69442 28.8431 9.61894C29.0252 9.54345 29.1906 9.43281 29.3299 9.29335C29.7202 8.90261 30.3534 8.90226 30.7441 9.29256C31.1349 9.68287 31.1352 10.316 30.7449 10.7068C30.4198 11.0322 30.0338 11.2903 29.6089 11.4665C29.184 11.6426 28.7286 11.7333 28.2687 11.7333C27.8087 11.7333 27.3533 11.6426 26.9284 11.4665C26.5035 11.2903 26.1175 11.0322 25.7924 10.7068C25.6531 10.5673 25.4877 10.4567 25.3056 10.3812C25.1235 10.3057 24.9283 10.2668 24.7312 10.2668C24.534 10.2668 24.3388 10.3057 24.1567 10.3812C23.9746 10.4567 23.8092 10.5673 23.6699 10.7068C23.2796 11.0975 22.6464 11.0979 22.2557 10.7076C21.8649 10.3173 21.8646 9.68409 22.2549 9.29335C22.58 8.96793 22.966 8.70977 23.3909 8.53364Z" fill="#1100FF"/>
<path fill-rule="evenodd" clip-rule="evenodd" d="M23.3909 13.5336C23.8158 13.3575 24.2712 13.2668 24.7312 13.2668C25.1911 13.2668 25.6465 13.3575 26.0714 13.5336C26.4963 13.7098 26.8823 13.9679 27.2074 14.2933C27.3467 14.4328 27.5121 14.5435 27.6942 14.6189C27.8763 14.6944 28.0715 14.7333 28.2687 14.7333C28.4658 14.7333 28.661 14.6944 28.8431 14.6189C29.0252 14.5435 29.1906 14.4328 29.3299 14.2933C29.7202 13.9026 30.3534 13.9023 30.7441 14.2926C31.1349 14.6829 31.1352 15.316 30.7449 15.7068C30.4198 16.0322 30.0338 16.2903 29.6089 16.4665C29.184 16.6426 28.7286 16.7333 28.2687 16.7333C27.8087 16.7333 27.3533 16.6426 26.9284 16.4665C26.5035 16.2903 26.1175 16.0322 25.7924 15.7068C25.6531 15.5673 25.4877 15.4567 25.3056 15.3812C25.1235 15.3057 24.9283 15.2668 24.7312 15.2668C24.534 15.2668 24.3388 15.3057 24.1567 15.3812C23.9746 15.4567 23.8092 15.5673 23.6699 15.7068C23.2796 16.0975 22.6464 16.0979 22.2557 15.7076C21.8649 15.3173 21.8646 14.6841 22.2549 14.2933C22.58 13.9679 22.966 13.7098 23.3909 13.5336Z" fill="#1100FF"/>
<path fill-rule="evenodd" clip-rule="evenodd" d="M15 3C14.2044 3 13.4413 3.31607 12.8787 3.87868C12.3161 4.44129 12 5.20435 12 6V18.375H11L11.6154 19.1632C10.7127 19.868 10.0525 20.837 9.7269 21.935C9.40134 23.033 9.42667 24.2053 9.79933 25.2882C10.172 26.3711 10.8734 27.3107 11.8057 27.9758C12.7381 28.641 13.8547 28.9985 15 28.9985C16.1453 28.9985 17.2619 28.641 18.1943 27.9758C19.1266 27.3107 19.828 26.3711 20.2007 25.2882C20.5733 24.2053 20.5987 23.033 20.2731 21.935C19.9475 20.837 19.2873 19.868 18.3846 19.1632C18.1419 18.9737 18 18.6829 18 18.375V6C18 5.20435 17.6839 4.44129 17.1213 3.87868C16.5587 3.31607 15.7956 3 15 3ZM10 17.9083V6C10 4.67392 10.5268 3.40215 11.4645 2.46447C12.4021 1.52678 13.6739 1 15 1C16.3261 1 17.5979 1.52678 18.5355 2.46447C19.4732 3.40215 20 4.67392 20 6V17.9083C21.0343 18.8334 21.7943 20.0298 22.1906 21.3665C22.6345 22.8638 22.6 24.4623 22.0918 25.939C21.5836 27.4157 20.6271 28.697 19.3558 29.604C18.0845 30.511 16.5617 30.9985 15 30.9985C13.4383 30.9985 11.9155 30.511 10.6442 29.604C9.37286 28.697 8.41637 27.4157 7.90818 25.939C7.4 24.4623 7.36547 22.8638 7.80941 21.3665C8.20573 20.0298 8.96572 18.8334 10 17.9083Z" fill="#1100FF"/>
</svg>
