<svg width="32" height="32" viewBox="0 0 32 32" fill="none" xmlns="http://www.w3.org/2000/svg">
<path d="M28.4013 13.055C29.3338 12.8687 30.0063 12.0462 30 11.1V8C30 6.8975 29.1025 6 28 6H4.00003C2.89753 6 2.00003 6.8975 2.00003 8V11.095C1.99503 12.0475 2.66628 12.87 3.59878 13.055C4.75878 13.3038 5.66628 14.2137 5.91253 15.375C6.25753 16.9975 5.21878 18.5975 3.59878 18.9462C2.66753 19.1313 1.99628 19.9513 2.00003 20.9012V24C2.00003 25.1025 2.89753 26 4.00003 26H28C29.1025 26 30 25.1025 30 24V20.9062C30.005 19.9537 29.3338 19.1313 28.4013 18.9462C27.2413 18.6975 26.3338 17.7875 26.0875 16.6263C25.92 15.8387 26.07 15.0338 26.5088 14.3588C26.9463 13.6863 27.6175 13.2237 28.4025 13.055H28.4013ZM3.99878 20.9H3.00003L4.00003 20.895C4.00003 20.895 4.00003 20.8987 3.99878 20.9ZM4.00003 20.905C4.00003 20.905 4.00503 20.905 4.00753 20.9038C6.71128 20.33 8.44378 17.6625 7.87003 14.96C7.45878 13.025 5.94253 11.5087 4.00753 11.0975H4.00003V8H11V24H4.00003V20.905ZM24.13 17.0413C24.5413 18.9762 26.0563 20.4925 27.9925 20.9038C27.9938 20.9038 27.9975 20.9037 28 20.905V24H13V8H28V11.095C28 11.095 27.995 11.095 27.9925 11.0963C26.6825 11.3738 25.56 12.1463 24.83 13.2688C24.1013 14.3913 23.8525 15.7313 24.13 17.0413Z" fill="#1100FF"/>
</svg>
