<svg width="32" height="32" viewBox="0 0 32 32" fill="none" xmlns="http://www.w3.org/2000/svg">
<path d="M14 7H12C11.4475 7 11 7.4475 11 8C11 8.5525 11.4475 9 12 9H14C14.5525 9 15 8.5525 15 8C15 7.4475 14.5525 7 14 7Z" fill="#1100FF"/>
<path d="M28 14C28 13.4475 27.5525 13 27 13H25V5C25 3.8975 24.1025 3 23 3H9C7.8975 3 7 3.8975 7 5V13H5C4.4475 13 4 13.4475 4 14C4 18.6775 6.69 22.7375 10.605 24.7162L10.1725 27.725C10.0988 28.2537 10.2363 28.78 10.5588 29.2062C10.8813 29.6325 11.35 29.9075 11.8775 29.9813C11.9663 29.9938 12.0575 30 12.15 30H19.8525C20.955 29.9963 21.85 29.0962 21.8463 27.9912C21.8463 27.9025 21.84 27.8137 21.8263 27.72L21.3938 24.7162C25.3075 22.7375 27.9988 18.6775 27.9988 14H28ZM9 5H23V13H9V5ZM19.85 28L12.1525 28.005L12.515 25.4837C13.6188 25.8187 14.7888 26 16 26C17.2113 26 18.3825 25.8188 19.4863 25.4825L19.85 28ZM16 24C10.8238 24 6.5525 20.0462 6.05 15H25.95C25.4463 20.0462 21.1763 24 16 24Z" fill="#1100FF"/>
</svg>
