<svg width="32" height="32" viewBox="0 0 32 32" fill="none" xmlns="http://www.w3.org/2000/svg">
<path fill-rule="evenodd" clip-rule="evenodd" d="M16 5C14.9391 5 13.9217 5.42143 13.1716 6.17157C12.662 6.68111 12.3042 7.31397 12.127 8H19.873C19.6958 7.31397 19.338 6.68111 18.8284 6.17157C18.0783 5.42143 17.0609 5 16 5ZM21.9161 8C21.7098 6.77969 21.1293 5.64405 20.2426 4.75736C19.1174 3.63214 17.5913 3 16 3C14.4087 3 12.8826 3.63214 11.7574 4.75736C10.8707 5.64405 10.2902 6.77969 10.0839 8H4.1125L4.10635 8.00002C3.82576 8.00174 3.54868 8.06249 3.2931 8.17832C3.03752 8.29414 2.80918 8.46245 2.62291 8.6723C2.43663 8.88215 2.29661 9.12885 2.21192 9.39636C2.12736 9.66344 2.09987 9.94531 2.1312 10.2237L2.13135 10.225L3.9061 26.2228L3.90765 26.2359C3.96803 26.7213 4.20309 27.1681 4.56889 27.4927C4.9347 27.8174 5.40622 27.9977 5.89531 28L5.9 28H26.1L26.1047 28C26.5938 27.9977 27.0653 27.8174 27.4311 27.4927C27.7969 27.1681 28.032 26.7213 28.0924 26.2359L29.8687 10.225C29.9001 9.9464 29.8727 9.66367 29.7881 9.39636C29.7034 9.12885 29.5634 8.88215 29.3771 8.6723C29.1908 8.46245 28.9625 8.29414 28.7069 8.17832C28.4513 8.06249 28.1742 8.00174 27.8937 8.00002L21.9161 8ZM4.11865 10L4.11891 10.0022L5.89259 25.9904C5.89317 25.9929 5.89452 25.9951 5.89646 25.9969C5.89861 25.9988 5.90136 25.9999 5.90422 26H26.0958L26.0994 25.9993L26.1035 25.9969C26.1055 25.9951 26.1068 25.9929 26.1074 25.9904L27.8813 10H4.11865Z" fill="#1100FF"/>
</svg>
