<svg width="32" height="32" viewBox="0 0 32 32" fill="none" xmlns="http://www.w3.org/2000/svg">
<path d="M18.5671 14.0085H13.9774C12.9182 14.0134 11.9237 14.4299 11.1778 15.182C10.4319 15.9341 10.0241 16.9311 10.0278 17.9866V18.9811C10.0278 19.5306 10.4729 19.9756 11.0224 19.9756C11.5719 19.9756 12.0169 19.5306 12.0169 18.9811V17.9828C12.0144 17.4545 12.2183 16.9572 12.59 16.583C12.9617 16.2089 13.4577 16 13.9848 15.9988H18.5659L17.2805 17.2842C16.8926 17.6721 16.8926 18.3023 17.2805 18.6902C17.4744 18.8841 17.7292 18.9811 17.9841 18.9811C18.2389 18.9811 18.4925 18.8841 18.6877 18.6902L21.6713 15.7066C21.6713 15.7066 21.6763 15.7016 21.6788 15.6992C21.6987 15.678 21.7185 15.6569 21.7372 15.6345C21.7471 15.6221 21.7558 15.6084 21.7658 15.596C21.7757 15.5823 21.7857 15.5699 21.7944 15.5562C21.8043 15.5413 21.813 15.5251 21.8217 15.5102C21.8292 15.4978 21.8366 15.4853 21.8441 15.4729C21.8528 15.4567 21.859 15.4406 21.8665 15.4257C21.8727 15.412 21.8802 15.3996 21.8851 15.3846C21.8913 15.3697 21.8963 15.3536 21.9025 15.3374C21.9075 15.3225 21.9137 15.3076 21.9187 15.2926C21.9237 15.2765 21.9274 15.2603 21.9311 15.2442C21.9349 15.2292 21.9398 15.2131 21.9423 15.1982C21.946 15.1795 21.9485 15.1609 21.951 15.141C21.9523 15.1273 21.956 15.1149 21.9572 15.1012C21.9635 15.0353 21.9635 14.9694 21.9572 14.9048C21.956 14.8911 21.9535 14.8787 21.951 14.865C21.9485 14.8463 21.946 14.8277 21.9423 14.8078C21.9386 14.7916 21.9349 14.7767 21.9311 14.7618C21.9274 14.7456 21.9237 14.7295 21.9187 14.7133C21.9137 14.6984 21.9088 14.6835 21.9025 14.6686C21.8963 14.6524 21.8913 14.6375 21.8851 14.6213C21.8789 14.6077 21.8727 14.594 21.8665 14.5803C21.859 14.5641 21.8516 14.548 21.8441 14.5331C21.8366 14.5206 21.8292 14.5082 21.8217 14.4958C21.813 14.4809 21.8043 14.4647 21.7944 14.4498C21.7857 14.4361 21.7745 14.4237 21.7658 14.41C21.7558 14.3976 21.7471 14.3839 21.7372 14.3715C21.7185 14.3491 21.6987 14.3279 21.6788 14.3068C21.6763 14.3043 21.6738 14.3018 21.6713 14.2994L18.6877 11.3158C18.2999 10.9279 17.6696 10.9279 17.2817 11.3158C16.8938 11.7036 16.8938 12.3339 17.2817 12.7218L18.5671 14.0072V14.0085Z" fill="#1100FF"/>
<path d="M30.4194 14.5965L17.4048 1.5818C16.629 0.806067 15.3672 0.806067 14.5915 1.5818L1.5818 14.5915C0.806067 15.3672 0.806067 16.629 1.5818 17.4048L14.5965 30.4194C14.9843 30.8073 15.494 31.0012 16.0025 31.0012C16.5109 31.0012 17.0206 30.8073 17.4085 30.4194L30.4182 17.4097C31.1939 16.634 31.1939 15.3722 30.4182 14.5965H30.4194ZM16.0025 29.0122L2.98657 15.9988L15.9975 2.98782L29.0122 16.0025L16.0025 29.0122Z" fill="#1100FF"/>
</svg>
