<svg width="32" height="32" viewBox="0 0 32 32" fill="none" xmlns="http://www.w3.org/2000/svg">
<path fill-rule="evenodd" clip-rule="evenodd" d="M14.7123 3H17.3004C17.7116 3.00539 18.1115 3.13595 18.4468 3.37417C18.782 3.61239 19.0368 3.94705 19.1772 4.33362L19.1819 4.34655L26.9443 26.6716C27.1257 27.1932 26.8499 27.7632 26.3282 27.9445C25.8066 28.1259 25.2366 27.8501 25.0553 27.3284L17.2967 5.01465C17.2948 5.01061 17.292 5.00711 17.2883 5.00453C17.2847 5.00193 17.2804 5.00037 17.276 5H14.7236C14.7192 5.00037 14.7149 5.00193 14.7112 5.00453C14.7076 5.00711 14.7047 5.01061 14.7029 5.01466L6.94432 27.3284C6.76294 27.8501 6.19302 28.1259 5.67137 27.9445C5.14972 27.7632 4.87387 27.1932 5.05525 26.6716L12.8223 4.33359C12.9627 3.94701 13.2175 3.61239 13.5528 3.37417C13.8881 3.13595 14.2879 3.00547 14.6992 3.00009L14.7123 3Z" fill="#1100FF"/>
<path fill-rule="evenodd" clip-rule="evenodd" d="M2 27C2 26.4477 2.44772 26 3 26H29C29.5523 26 30 26.4477 30 27C30 27.5523 29.5523 28 29 28H3C2.44772 28 2 27.5523 2 27Z" fill="#1100FF"/>
<path fill-rule="evenodd" clip-rule="evenodd" d="M10.2124 12C10.2124 11.4477 10.6601 11 11.2124 11H20.7874C21.3397 11 21.7874 11.4477 21.7874 12C21.7874 12.5523 21.3397 13 20.7874 13H11.2124C10.6601 13 10.2124 12.5523 10.2124 12Z" fill="#1100FF"/>
<path fill-rule="evenodd" clip-rule="evenodd" d="M7.4375 20C7.4375 19.4477 7.88522 19 8.4375 19H23.5625C24.1148 19 24.5625 19.4477 24.5625 20C24.5625 20.5523 24.1148 21 23.5625 21H8.4375C7.88522 21 7.4375 20.5523 7.4375 20Z" fill="#1100FF"/>
</svg>
