<svg width="32" height="32" viewBox="0 0 32 32" fill="none" xmlns="http://www.w3.org/2000/svg">
<path d="M27.9911 15.1318C27.9961 15.0905 27.9986 15.0493 27.9998 15.008C27.9998 14.9993 27.9998 14.9918 27.9998 14.983C27.9998 14.9518 27.9973 14.9193 27.9936 14.888C27.9923 14.8755 27.9911 14.863 27.9886 14.8518C27.9873 14.8418 27.9861 14.8318 27.9848 14.823C27.9811 14.8005 27.9748 14.7793 27.9698 14.758C27.9686 14.7518 27.9673 14.7455 27.9661 14.7393L25.1672 4.48507C24.9384 3.60878 24.1484 3 23.2521 3C23.2471 3 23.2421 3 23.2371 3H8.75396C7.85017 3 7.06014 3.60878 6.83388 4.47382L4.03375 14.7368C4.0325 14.743 4.03125 14.7493 4.03 14.7555C4.025 14.7768 4.01875 14.798 4.015 14.8205C4.01375 14.8305 4.0125 14.8393 4.01125 14.8493C4.00875 14.8618 4.0075 14.8743 4.00625 14.8868C4.0025 14.918 4.00125 14.9493 4 14.9805C4 14.9893 4 14.998 4 15.0068C4 15.048 4.0025 15.0893 4.00875 15.1293C4.00875 15.1318 4.00875 15.1355 4.01 15.138C4.015 15.1755 4.0225 15.2118 4.0325 15.248C4.0325 15.253 4.03375 15.2568 4.035 15.2618L6.83263 25.5148C7.06139 26.391 7.85142 26.9998 8.74771 26.9998H10.0003L8.20019 29.3999C7.86892 29.8412 7.95893 30.4687 8.4002 30.8C8.5802 30.935 8.79021 31 8.99897 31C9.30274 31 9.60275 30.8625 9.80026 30.6L12.5004 26.9998H19.5007L22.2008 30.6C22.3971 30.8625 22.6971 31 23.0021 31C23.2109 31 23.4221 30.935 23.6009 30.8C24.0434 30.4687 24.1321 29.8412 23.8009 29.3999L22.0008 26.9998H23.2459C24.1496 26.9998 24.9397 26.391 25.1659 25.526L27.9661 15.263C27.9661 15.263 27.9673 15.2543 27.9686 15.2493C27.9786 15.213 27.9861 15.1755 27.9911 15.138C27.9911 15.1355 27.9911 15.133 27.9923 15.1305L27.9911 15.1318ZM8.76271 5.00009H23.2334L25.746 14.2118L15.9968 15.9843L6.2476 14.2118L8.76271 5.00009ZM8.76271 24.9997L6.38136 16.2681L14.9992 17.8344V24.9997H8.76271ZM23.2334 24.9997H16.9981V17.8344L25.616 16.2681L23.2334 25.001V24.9997Z" fill="#1100FF"/>
<path d="M11.9991 12.0004H19.9995C20.552 12.0004 20.9995 11.5529 20.9995 11.0004C20.9995 10.4478 20.552 10.0003 19.9995 10.0003H11.9991C11.4466 10.0003 10.9991 10.4478 10.9991 11.0004C10.9991 11.5529 11.4466 12.0004 11.9991 12.0004Z" fill="#1100FF"/>
</svg>
