<svg width="32" height="32" viewBox="0 0 32 32" fill="none" xmlns="http://www.w3.org/2000/svg">
<path d="M26 4H6C4.8975 4 4 4.8975 4 6V26C4 27.1025 4.8975 28 6 28H26C27.1025 28 28 27.1025 28 26V6C28 4.8975 27.1025 4 26 4ZM6 6H26V19H22.4088C21.88 19 21.3825 19.205 21.005 19.58L18.5875 22L13.42 22.005L10.9938 19.5787C10.6238 19.2112 10.1137 19 9.595 19H6V6ZM6 26V20.9988L9.58 20.995L12.0063 23.4212C12.3763 23.7887 12.8862 24 13.405 24H18.5913C19.12 24 19.6175 23.795 19.995 23.42L22.4125 21H26V26H6Z" fill="#1100FF"/>
</svg>
