<svg width="32" height="32" viewBox="0 0 32 32" fill="none" xmlns="http://www.w3.org/2000/svg">
<path d="M21 14H27C28.1025 14 29 13.1025 29 12V6C29 4.8975 28.1025 4 27 4H21C19.8975 4 19 4.8975 19 6V8H17.9712C16.9062 8.005 15.9062 8.42375 15.1562 9.18C14.4062 9.93625 13.9963 10.94 14 12V15H11V13.5C11 12.3975 10.1025 11.5 9 11.5H4C2.8975 11.5 2 12.3975 2 13.5V18.5C2 19.6025 2.8975 20.5 4 20.5H9C10.1025 20.5 11 19.6025 11 18.5V17H14V20.0287C14.005 21.0938 14.4237 22.0938 15.18 22.8438C15.9325 23.59 16.9288 24 17.9825 24H19V26C19 27.1025 19.8975 28 21 28H27C28.1025 28 29 27.1025 29 26V20C29 18.8975 28.1025 18 27 18H21C19.8975 18 19 18.8975 19 20V22H17.9875C17.46 22 16.9637 21.795 16.5887 21.4237C16.2113 21.05 16.0025 20.5513 16.0013 20.0212V11.9963C15.9988 11.465 16.2038 10.965 16.5775 10.5887C16.9513 10.2112 17.45 10.0025 17.98 10.0012H19V12.0013C19 13.1038 19.8975 14.0013 21 14.0013V14ZM9 18.5H4V13.5H9V18.5ZM21 20H27V26H21V23.0125C21 23.0125 21 23.005 21 23C21 22.995 21 22.9925 21 22.9875V20ZM21 6H27V12H21V9.0125C21 9.0125 21 9.005 21 9C21 8.995 21 8.9925 21 8.9875V6Z" fill="#1100FF"/>
</svg>
