<svg width="32" height="32" viewBox="0 0 32 32" fill="none" xmlns="http://www.w3.org/2000/svg">
<path fill-rule="evenodd" clip-rule="evenodd" d="M14.5014 3.40261C14.9567 3.13857 15.4737 2.99951 16 2.99951C16.5264 2.99951 17.0434 3.13857 17.4987 3.40261C17.9533 3.66621 18.3302 4.04502 18.5916 4.50081L18.593 4.50313L29.5911 23.4998C29.8539 23.9551 29.9925 24.4715 29.993 24.9972C29.9935 25.5229 29.8558 26.0395 29.5937 26.4953C29.3317 26.951 28.9544 27.3299 28.4999 27.5939C28.0453 27.858 27.5293 27.998 27.0036 27.9998L27 27.9998H5.00004L4.99651 27.9998C4.4708 27.998 3.95481 27.858 3.50022 27.5939C3.04563 27.3299 2.66842 26.951 2.40636 26.4953C2.14431 26.0395 2.00662 25.5229 2.00708 24.9972C2.00755 24.4715 2.14615 23.9551 2.40901 23.4998L13.4071 4.50313L13.4084 4.50081C13.6698 4.04502 14.0468 3.66621 14.5014 3.40261ZM14.275 4.99983L15.1405 5.50086L4.14106 24.4998C4.05358 24.6515 4.00724 24.8239 4.00708 24.999C4.00693 25.1742 4.05282 25.3464 4.14017 25.4983C4.22753 25.6502 4.35326 25.7765 4.50479 25.8645C4.65593 25.9523 4.82743 25.999 5.0022 25.9998H26.9979C27.1726 25.999 27.3441 25.9523 27.4953 25.8645C27.6468 25.7765 27.7725 25.6502 27.8599 25.4983C27.9473 25.3464 27.9931 25.1742 27.993 24.999C27.9928 24.8239 27.9468 24.652 27.8594 24.5004L16.8571 5.49653C16.7707 5.34553 16.6459 5.22003 16.4954 5.13275C16.3449 5.04548 16.174 4.99951 16 4.99951C15.8261 4.99951 15.6552 5.04548 15.5047 5.13275C15.3542 5.22003 15.2294 5.34552 15.143 5.49652L14.275 4.99983Z" fill="#1100FF"/>
</svg>
