<svg width="32" height="32" viewBox="0 0 32 32" fill="none" xmlns="http://www.w3.org/2000/svg">
<path d="M30.9988 15.0159V14.9984C30.9988 14.9897 30.9988 14.9822 30.9975 14.9734C30.9975 14.9509 30.9963 14.9284 30.9938 14.9059C30.9925 14.8922 30.99 14.8784 30.9888 14.8634C30.9862 14.8459 30.9838 14.8272 30.98 14.8097C30.9763 14.7909 30.9713 14.7722 30.9675 14.7547C30.9638 14.7422 30.9613 14.7284 30.9575 14.7159C30.9513 14.6934 30.9425 14.6722 30.935 14.6497C30.9325 14.6422 30.93 14.6347 30.9275 14.6272L30.9213 14.6122V14.6084L29.1788 10.2574C28.8813 9.50365 28.1401 8.99992 27.3364 8.99992H22.9991V7.99996C22.9991 7.44748 22.5516 7 21.9991 7H2.99992C1.89746 6.99875 1 7.89621 1 8.99867V22.9981C1 24.1005 1.89746 24.998 2.99992 24.998H4.6261C5.07108 26.7217 6.63852 27.9979 8.49969 27.9979C10.3609 27.9979 11.9283 26.7217 12.3733 24.998H19.6267C20.0717 26.7217 21.6391 27.9979 23.5003 27.9979C25.3615 27.9979 26.9289 26.7217 27.3739 24.998H29.0001C30.1025 24.998 31 24.1005 31 22.9981V15.0159H30.9988ZM27.3214 10.9986L28.5214 13.9985H22.9991V10.9986H27.3214ZM20.9992 8.99867V16.9983H2.99992V8.99867H20.9992ZM20.9992 18.9983V20.8794C20.3354 21.4119 19.8442 22.1506 19.6255 22.9981H12.372C11.927 21.2744 10.3596 19.9982 8.49844 19.9982C6.63727 19.9982 5.06983 21.2744 4.62485 22.9981H2.99867V18.9983H20.9992ZM8.49969 25.998C7.39723 25.998 6.49977 25.1005 6.49977 23.998C6.49977 22.8956 7.39723 21.9981 8.49969 21.9981C9.60214 21.9981 10.4996 22.8956 10.4996 23.998C10.4996 25.1005 9.60214 25.998 8.49969 25.998ZM23.4991 25.998C22.3966 25.998 21.4991 25.1005 21.4991 23.998C21.4991 22.8956 22.3966 21.9981 23.4991 21.9981C24.6015 21.9981 25.499 22.8956 25.499 23.998C25.499 25.1005 24.6015 25.998 23.4991 25.998ZM28.9988 22.9981H27.3727C26.9277 21.2744 25.3602 19.9982 23.4991 19.9982C23.3291 19.9982 23.1628 20.0095 22.9991 20.0307V15.9984H28.9988V22.9981Z" fill="#1100FF"/>
</svg>
