<svg width="32" height="32" viewBox="0 0 32 32" fill="none" xmlns="http://www.w3.org/2000/svg">
<path d="M30.9703 7.65606L24.6688 4.13124C24.6688 4.13124 24.6637 4.12874 24.6612 4.12749C24.6408 4.11624 24.6204 4.10624 24.5999 4.09749C24.5897 4.0925 24.5795 4.0875 24.5693 4.08375C24.5502 4.07625 24.5311 4.06875 24.5119 4.0625C24.4992 4.0575 24.4864 4.0525 24.4737 4.04875C24.4584 4.04375 24.443 4.04 24.4265 4.03625C24.4086 4.03125 24.3907 4.02625 24.3742 4.0225C24.3627 4.02 24.3512 4.01875 24.3397 4.01625C24.3168 4.0125 24.2951 4.00875 24.2721 4.00625C24.2632 4.00625 24.253 4.00625 24.2441 4.00375C24.2198 4.00125 24.1956 4 24.1713 4C24.1688 4 24.1662 4 24.1637 4H20.0818C19.518 4 19.0613 4.44748 19.0613 4.99995C19.0613 6.65361 17.6875 7.99979 15.9999 7.99979C14.3122 7.99979 12.9384 6.65361 12.9384 4.99995C12.9384 4.44748 12.4817 4 11.9179 4H7.83601C7.83601 4 7.82964 4 7.82709 4C7.8054 4 7.78371 4.00125 7.76203 4.00375C7.74927 4.00375 7.73779 4.00375 7.72504 4.00625C7.7059 4.00875 7.68677 4.01125 7.66636 4.015C7.65233 4.0175 7.63702 4.01875 7.62299 4.0225C7.60768 4.025 7.59365 4.03 7.57834 4.03375C7.56048 4.03875 7.54135 4.0425 7.52349 4.04875C7.51201 4.0525 7.50181 4.05625 7.4916 4.06C7.46992 4.0675 7.44951 4.075 7.42782 4.08375C7.41889 4.0875 7.40869 4.0925 7.39976 4.09749C7.37807 4.10749 7.35766 4.11749 7.33598 4.12874C7.33343 4.12999 7.33088 4.13124 7.32833 4.13249L1.02304 7.65981C0.0892993 8.18853 -0.266593 9.34597 0.213032 10.2972L2.55758 14.8932C2.89689 15.5656 3.60995 16.0006 4.37404 16.0006H6.81554V26.0001C6.81554 27.1025 7.73142 28 8.85649 28H23.1432C24.2683 28 25.1842 27.1025 25.1842 26.0001V15.9994H27.6231C28.4 15.9994 29.0964 15.5756 29.4396 14.8969L31.7879 10.2934C32.2663 9.34597 31.9104 8.18978 30.9716 7.65606H30.9703ZM4.38424 13.9995L2.04097 9.40597V9.39347L6.81554 6.72236V13.9995H4.38424ZM23.1432 25.9989H8.85649V5.9999H10.9995C11.474 8.27853 13.5354 9.99969 15.9999 9.99969C18.4643 9.99969 20.5257 8.27853 21.0002 5.9999H23.1432V25.9989ZM27.6155 13.9995H25.1842V6.72236L29.9536 9.38972C29.9536 9.38972 29.9613 9.39972 29.96 9.40222L27.6142 13.9995H27.6155Z" fill="#1100FF"/>
</svg>
