<svg width="32" height="32" viewBox="0 0 32 32" fill="none" xmlns="http://www.w3.org/2000/svg">
<path d="M29.9915 15.8597C29.3908 9.06659 24.0248 3.70305 17.2304 3.10487C16.9294 3.07854 16.6284 3.06223 16.3312 3.05596C16.118 2.98197 15.8848 2.98072 15.6716 3.05596C8.61633 3.21523 2.64458 8.67282 2.01003 15.8597C2.00376 15.9275 2 15.9964 2 16.0629C2.00251 16.5959 2.21319 17.095 2.59065 17.4699C2.96687 17.8424 3.46472 18.0468 3.99267 18.0468H14.9969V25.0694C14.9969 27.2816 16.7977 29.0824 19.0098 29.0824C21.222 29.0824 23.0228 27.2816 23.0228 25.0694C23.0228 24.5152 22.5738 24.0662 22.0195 24.0662C21.4653 24.0662 21.0163 24.5152 21.0163 25.0694C21.0163 26.1755 20.1159 27.0759 19.0098 27.0759C17.9038 27.0759 17.0034 26.1755 17.0034 25.0694V18.0468H27.9976C28.0728 18.0468 28.1393 18.043 28.2083 18.0368C29.2993 17.9252 30.0981 16.9495 29.9902 15.8585L29.9915 15.8597ZM12.0123 16.0416C12.2756 10.1689 14.8038 6.72028 16.0039 5.40479C16.4491 5.8901 17.0761 6.66385 17.6969 7.7348C18.6713 9.41772 19.8187 12.1829 19.9918 16.0416H12.0123ZM13.4745 5.32453C12.0123 7.33852 10.2115 10.8411 10.0033 16.0416H4.00772C4.48175 10.6592 8.44829 6.40677 13.4732 5.32453H13.4745ZM22.0007 16.0416C21.7926 10.8436 19.993 7.34103 18.5308 5.32704C23.6423 6.41931 27.5261 10.7169 27.9938 16.0416H21.9995H22.0007Z" fill="#1100FF"/>
</svg>
