<svg width="32" height="32" viewBox="0 0 32 32" fill="none" xmlns="http://www.w3.org/2000/svg">
<path d="M29.9915 15.8084C29.3908 9.01527 24.0248 3.65173 17.2304 3.0548C9.51674 2.37511 2.69098 8.09731 2.01003 15.8097C2.00376 15.8774 2 15.9464 2 16.0128C2.00251 16.5458 2.21319 17.0449 2.59065 17.4199C2.96687 17.7923 3.46472 17.9967 3.99267 17.9967H14.9969V25.0194C14.9969 27.2315 16.7977 29.0323 19.0098 29.0323C21.222 29.0323 23.0228 27.2315 23.0228 25.0194C23.0228 24.4651 22.5738 24.0161 22.0195 24.0161C21.4653 24.0161 21.0163 24.4651 21.0163 25.0194C21.0163 26.1254 20.1159 27.0258 19.0098 27.0258C17.9038 27.0258 17.0034 26.1254 17.0034 25.0194V17.9967H27.9976C28.0728 17.9967 28.1393 17.993 28.2083 17.9867C29.2993 17.8751 30.0981 16.8994 29.9902 15.8084H29.9915ZM4.00772 15.9903C4.5896 9.37894 10.4435 4.47062 17.0548 5.05249C22.8798 5.5654 27.4797 10.1652 27.9926 15.9903H4.00772Z" fill="#1100FF"/>
</svg>
