<svg width="32" height="32" viewBox="0 0 32 32" fill="none" xmlns="http://www.w3.org/2000/svg">
<path fill-rule="evenodd" clip-rule="evenodd" d="M25 2.5C25.5523 2.5 26 2.94772 26 3.5V4.17071C26.351 4.29475 26.6719 4.48224 26.9492 4.71941L27.5217 4.38592C27.9989 4.10792 28.6111 4.26943 28.8891 4.74665C29.1671 5.22387 29.0056 5.83609 28.5284 6.11408L27.9499 6.45105C27.9828 6.62902 28 6.8125 28 7C28 7.1875 27.9828 7.37098 27.9499 7.54895L28.5284 7.88592C29.0056 8.16391 29.1671 8.77613 28.8891 9.25335C28.6111 9.73057 27.9989 9.89208 27.5217 9.61408L26.9492 9.28059C26.6719 9.51776 26.351 9.70525 26 9.82929V10.5C26 11.0523 25.5523 11.5 25 11.5C24.4477 11.5 24 11.0523 24 10.5V9.82929C23.6491 9.70525 23.3281 9.51776 23.0508 9.28059L22.4784 9.61408C22.0011 9.89208 21.3889 9.73057 21.1109 9.25335C20.8329 8.77613 20.9944 8.16391 21.4717 7.88592L22.0501 7.54895C22.0172 7.37098 22 7.1875 22 7C22 6.8125 22.0172 6.62902 22.0501 6.45105L21.4717 6.11408C20.9944 5.83609 20.8329 5.22387 21.1109 4.74665C21.3889 4.26943 22.0011 4.10792 22.4784 4.38592L23.0508 4.71941C23.3281 4.48224 23.6491 4.29475 24 4.17071V3.5C24 2.94772 24.4477 2.5 25 2.5ZM17.0165 5.04538C16.6808 5.01301 16.3436 4.99785 16.0063 4.99998L16 5.00002C13.8244 5.00002 11.6977 5.64514 9.88873 6.85383C8.07979 8.06253 6.66989 9.7805 5.83733 11.7905C5.00477 13.8005 4.78693 16.0122 5.21137 18.146C5.59363 20.0678 6.48141 21.8486 7.77792 23.3074C8.56491 22.1705 9.58208 21.2051 10.7688 20.4766C11.2546 20.1785 11.7628 19.9237 12.2877 19.714C10.8944 18.6153 10 16.9121 10 15C10 11.6863 12.6863 9 16 9C19.3137 9 22 11.6863 22 15C22 16.9121 21.1056 18.6153 19.7123 19.714C20.2372 19.9237 20.7455 20.1785 21.2312 20.4766C22.4179 21.2051 23.4351 22.1705 24.2221 23.3074C24.5559 22.9318 24.8648 22.5323 25.1462 22.1113C26.3549 20.3023 27 18.1756 27 16L27 15.9951C27.0022 15.5583 26.9756 15.1219 26.9205 14.6887C26.8508 14.1408 27.2384 13.6402 27.7863 13.5705C28.3342 13.5008 28.8348 13.8884 28.9045 14.4363C28.9706 14.9558 29.0025 15.479 29 16.0026C28.9995 18.5729 28.2371 21.0853 26.8091 23.2224C26.2188 24.1059 25.5256 24.9089 24.7478 25.6164C24.7137 25.6521 24.6768 25.6854 24.637 25.7161C23.5585 26.6748 22.3222 27.4523 20.9749 28.0104C18.5995 28.9944 15.9856 29.2518 13.4638 28.7502C11.1922 28.2984 9.08719 27.2488 7.36298 25.7161C7.32323 25.6854 7.28627 25.6521 7.25221 25.6165C7.10094 25.4788 6.95269 25.3375 6.80762 25.1924C4.98953 23.3743 3.75141 21.0579 3.2498 18.5362C2.74819 16.0144 3.00563 13.4006 3.98957 11.0251C4.97351 8.64968 6.63975 6.61935 8.77759 5.1909C10.9146 3.76302 13.4268 3.00062 15.9969 3C16.4014 2.99756 16.8058 3.01579 17.2085 3.05462C17.7582 3.10763 18.1609 3.59625 18.1079 4.14599C18.0549 4.69572 17.5663 5.0984 17.0165 5.04538ZM9.25847 24.6921C10.602 25.7341 12.1741 26.4545 13.854 26.7886C15.9878 27.2131 18.1995 26.9952 20.2095 26.1627C21.1202 25.7855 21.971 25.2897 22.7415 24.6921C22.092 23.6754 21.2189 22.8158 20.185 22.1812C18.9261 21.4085 17.4777 21 16 21C14.5223 21 13.0739 21.4085 11.8151 22.1812C10.7811 22.8158 9.908 23.6754 9.25847 24.6921ZM25 6C24.4477 6 24 6.44772 24 7C24 7.55228 24.4477 8 25 8C25.5523 8 26 7.55228 26 7C26 6.44772 25.5523 6 25 6ZM16 11C13.7909 11 12 12.7909 12 15C12 17.2091 13.7909 19 16 19C18.2091 19 20 17.2091 20 15C20 12.7909 18.2091 11 16 11Z" fill="#1100FF"/>
</svg>
