<svg width="32" height="32" viewBox="0 0 32 32" fill="none" xmlns="http://www.w3.org/2000/svg">
<path fill-rule="evenodd" clip-rule="evenodd" d="M16 11C13.7909 11 12 12.7909 12 15C12 17.2091 13.7909 19 16 19C18.2091 19 20 17.2091 20 15C20 12.7909 18.2091 11 16 11ZM10 15C10 11.6863 12.6863 9 16 9C19.3137 9 22 11.6863 22 15C22 18.3137 19.3137 21 16 21C12.6863 21 10 18.3137 10 15Z" fill="#1100FF"/>
<path fill-rule="evenodd" clip-rule="evenodd" d="M3 7C3 5.89543 3.89543 5 5 5H27C28.1046 5 29 5.89543 29 7V25C29 26.1046 28.1046 27 27 27H5C3.89543 27 3 26.1046 3 25V7ZM27 7H5V25H27V7Z" fill="#1100FF"/>
<path fill-rule="evenodd" clip-rule="evenodd" d="M16 20.9937C14.3446 20.9937 12.73 21.5072 11.3788 22.4634C10.0275 23.4196 9.00617 24.7715 8.45553 26.3326C8.27183 26.8534 7.70068 27.1267 7.17984 26.943C6.65901 26.7593 6.38571 26.1881 6.56942 25.6673C7.25772 23.7159 8.5344 22.0261 10.2235 20.8308C11.9125 19.6355 13.9308 18.9937 16 18.9937C18.0692 18.9937 20.0874 19.6355 21.7765 20.8308C23.4656 22.0261 24.7422 23.7159 25.4305 25.6673C25.6142 26.1881 25.3409 26.7593 24.8201 26.943C24.2993 27.1267 23.7281 26.8534 23.5444 26.3326C22.9938 24.7715 21.9724 23.4196 20.6212 22.4634C19.27 21.5072 17.6553 20.9937 16 20.9937Z" fill="#1100FF"/>
</svg>
