<svg width="32" height="32" viewBox="0 0 32 32" fill="none" xmlns="http://www.w3.org/2000/svg">
<path d="M22 7.99999H28C28.5525 7.99999 29 7.55249 29 6.99999C29 6.44749 28.5525 6 28 6H22C21.4475 6 21 6.44749 21 6.99999C21 7.55249 21.4475 7.99999 22 7.99999Z" fill="#1100FF"/>
<path d="M26.9762 11.0587C26.4562 11.245 26.185 11.8162 26.3712 12.3362C26.7925 13.5137 27.0037 14.7462 27 16C27 18.8 25.9475 21.3587 24.2187 23.3025C23.2787 21.9425 22.0237 20.8412 20.5275 20.0825C20.2575 19.945 19.9825 19.8237 19.7062 19.7137C21.1012 18.6137 22 16.9112 22 15C22 11.6912 19.3087 8.99999 16 8.99999C12.6912 8.99999 9.99999 11.6912 9.99999 15C9.99999 16.9125 10.9 18.6175 12.2987 19.7175C10.5137 20.4275 8.92749 21.65 7.78249 23.305C6.0525 21.3612 5 18.8012 5 16.0012C5 9.93624 9.93499 5.00125 16.0025 5.00125C16.5787 5.00375 17.16 5.04625 17.7275 5.13875C18.2725 5.22625 18.7862 4.85625 18.875 4.31125C18.9637 3.76625 18.5925 3.2525 18.0475 3.16375C17.3712 3.05375 16.68 3 16 3C8.83124 3 3 8.83124 3 16C3 19.7812 4.6225 23.19 7.20874 25.5675C7.26624 25.6362 7.33499 25.6975 7.41249 25.75C9.70499 27.7712 12.7112 28.9987 16 28.9987C19.2887 28.9987 22.2975 27.77 24.59 25.7475C24.6662 25.695 24.7337 25.635 24.7912 25.5662C27.3775 23.1887 29 19.78 29 16C29.0037 14.5175 28.7525 13.0575 28.2537 11.6612C28.0675 11.1412 27.4962 10.87 26.975 11.0562L26.9762 11.0587ZM16 11C18.205 11 20 12.7937 20 15C20 17.2062 18.205 19 16 19C13.795 19 12 17.205 12 15C12 12.795 13.7937 11 16 11ZM9.26124 24.6875C11.4462 21.2662 15.9262 19.99 19.6212 21.865C20.9075 22.5175 21.9712 23.485 22.7375 24.6875C20.875 26.135 18.5362 26.9987 15.9987 26.9987C13.4612 26.9987 11.1225 26.135 9.25999 24.6862L9.26124 24.6875Z" fill="#1100FF"/>
</svg>
