<svg width="32" height="32" viewBox="0 0 32 32" fill="none" xmlns="http://www.w3.org/2000/svg">
<path fill-rule="evenodd" clip-rule="evenodd" d="M30.5019 9.13509C30.8102 9.31401 31 9.64353 31 10V22C31 22.3565 30.8102 22.686 30.5019 22.8649C30.1936 23.0438 29.8134 23.0451 29.5039 22.8682L22.5039 18.8682C22.1923 18.6902 22 18.3589 22 18V14C22 13.6411 22.1923 13.3098 22.5039 13.1318L29.5039 9.13176C29.8134 8.9549 30.1936 8.95617 30.5019 9.13509ZM24 14.5803V17.4197L29 20.2768V11.7232L24 14.5803Z" fill="#1100FF"/>
<path fill-rule="evenodd" clip-rule="evenodd" d="M3.68962 2.26008C4.09827 1.88857 4.73072 1.91867 5.10224 2.32732L28.7397 28.3273C29.1113 28.736 29.0812 29.3684 28.6725 29.7399C28.2639 30.1114 27.6314 30.0813 27.2599 29.6727L3.62239 3.6727C3.25087 3.26405 3.28097 2.6316 3.68962 2.26008Z" fill="#1100FF"/>
<path fill-rule="evenodd" clip-rule="evenodd" d="M12.8623 7.5C12.8623 6.94772 13.31 6.5 13.8623 6.5H21.9998C22.5302 6.5 23.0389 6.71071 23.414 7.08579C23.7891 7.46086 23.9998 7.96957 23.9998 8.5V18C23.9998 18.5523 23.5521 19 22.9998 19C22.4475 19 22 18.5523 22 18L21.9998 8.5L13.8623 8.5C13.31 8.5 12.8623 8.05228 12.8623 7.5Z" fill="#1100FF"/>
<path fill-rule="evenodd" clip-rule="evenodd" d="M1.58579 7.08579C1.96086 6.71071 2.46957 6.5 3 6.5H8.45C9.00229 6.5 9.45 6.94772 9.45 7.5C9.45 8.05228 9.00229 8.5 8.45 8.5L3 8.5V23.5H22C22 22.9477 22.4477 22.5 23 22.5C23.5523 22.5 24 22.9477 24 23.5C24 24.0304 23.7893 24.5391 23.4142 24.9142C23.0391 25.2893 22.5304 25.5 22 25.5H3C2.46957 25.5 1.96086 25.2893 1.58579 24.9142C1.21071 24.5391 1 24.0304 1 23.5V8.5C1 7.96957 1.21071 7.46086 1.58579 7.08579Z" fill="#1100FF"/>
</svg>
