<svg width="32" height="32" viewBox="0 0 32 32" fill="none" xmlns="http://www.w3.org/2000/svg">
<path fill-rule="evenodd" clip-rule="evenodd" d="M16 5C9.92487 5 5 9.92487 5 16C5 22.0751 9.92487 27 16 27C22.0751 27 27 22.0751 27 16C27 9.92487 22.0751 5 16 5ZM3 16C3 8.8203 8.8203 3 16 3C23.1797 3 29 8.8203 29 16C29 23.1797 23.1797 29 16 29C8.8203 29 3 23.1797 3 16Z" fill="#1100FF"/>
<path fill-rule="evenodd" clip-rule="evenodd" d="M9.49999 4.74655C9.97823 4.47031 10.5899 4.63406 10.8661 5.1123L16.8661 15.4998C17.1423 15.978 16.9786 16.5897 16.5003 16.8659C16.0221 17.1421 15.4105 16.9784 15.1342 16.5001L9.13424 6.11264C8.858 5.63441 9.02176 5.02278 9.49999 4.74655Z" fill="#1100FF"/>
<path fill-rule="evenodd" clip-rule="evenodd" d="M16.5003 15.1341C16.9786 15.4104 17.1423 16.022 16.8661 16.5002L10.8661 26.8877C10.5899 27.366 9.97823 27.5297 9.49999 27.2535C9.02176 26.9772 8.858 26.3656 9.13424 25.8874L15.1342 15.4999C15.4105 15.0216 16.0221 14.8579 16.5003 15.1341Z" fill="#1100FF"/>
<path fill-rule="evenodd" clip-rule="evenodd" d="M15 16C15 15.4477 15.4477 15 16 15H28C28.5523 15 29 15.4477 29 16C29 16.5523 28.5523 17 28 17H16C15.4477 17 15 16.5523 15 16Z" fill="#1100FF"/>
<path fill-rule="evenodd" clip-rule="evenodd" d="M13.6624 3.67859C13.8882 3.1746 14.4799 2.94912 14.9839 3.17497C17.4349 4.27333 19.4861 6.10325 20.8558 8.41363C22.2256 10.724 22.8468 13.4017 22.6343 16.0791C22.5906 16.6297 22.1089 17.0406 21.5583 16.9969C21.0078 16.9532 20.5969 16.4715 20.6406 15.9209C20.8204 13.655 20.2947 11.3889 19.1354 9.43358C17.9762 7.4783 16.2404 5.92964 14.166 5.00009C13.662 4.77424 13.4365 4.18259 13.6624 3.67859Z" fill="#1100FF"/>
<path fill-rule="evenodd" clip-rule="evenodd" d="M14.0912 10.6969C14.3276 11.196 14.1146 11.7923 13.6155 12.0287C11.5594 13.0026 9.8559 14.59 8.73955 16.5724C7.62321 18.5547 7.14897 20.8344 7.38217 23.0975C7.43878 23.6469 7.03932 24.1381 6.48994 24.1947C5.94056 24.2513 5.44932 23.8519 5.3927 23.3025C5.11711 20.628 5.67756 17.9338 6.99688 15.591C8.3162 13.2482 10.3295 11.3722 12.7594 10.2212C13.2585 9.98483 13.8548 10.1978 14.0912 10.6969Z" fill="#1100FF"/>
<path fill-rule="evenodd" clip-rule="evenodd" d="M27.848 20.1391C28.1716 20.5867 28.0711 21.2118 27.6235 21.5354C25.446 23.1098 22.8342 23.9708 20.1472 23.9999C17.4603 24.029 14.8304 23.2248 12.6194 21.6979C12.1649 21.3841 12.0509 20.7613 12.3647 20.3068C12.6786 19.8524 13.3014 19.7384 13.7558 20.0522C15.6267 21.3442 17.8521 22.0247 20.1256 22C22.3991 21.9754 24.6092 21.2469 26.4517 19.9147C26.8992 19.5911 27.5244 19.6916 27.848 20.1391Z" fill="#1100FF"/>
</svg>
