<svg width="32" height="32" viewBox="0 0 32 32" fill="none" xmlns="http://www.w3.org/2000/svg">
<path d="M15.9993 17.9993C16.5518 17.9993 16.9993 17.5518 16.9993 16.9994V9.99973C16.9993 9.44726 16.5518 8.99978 15.9993 8.99978C15.4469 8.99978 14.9994 9.44726 14.9994 9.99973V16.9994C14.9994 17.5518 15.4469 17.9993 15.9993 17.9993Z" fill="#1100FF"/>
<path d="M28.4187 10.0297L21.9665 3.57881C21.5978 3.21133 21.0866 3.00009 20.5654 3.00009H11.4408C10.9083 2.99509 10.4084 3.20383 10.0309 3.58006L3.57873 10.0322C3.20375 10.4085 2.99876 10.9097 3.00001 11.4372V20.5579C2.99876 21.0817 3.20874 21.5954 3.57998 21.9691L10.0309 28.4213C10.4059 28.795 10.9033 29 11.4283 29H20.5566C21.0803 28.9975 21.594 28.7913 21.9678 28.42L28.4187 21.9691C28.7887 21.5979 28.9999 21.0842 28.9974 20.5642V11.4409C28.9999 10.9097 28.7937 10.4085 28.4174 10.0297H28.4187ZM20.5541 4.99499L20.5566 4.99748L20.5516 4.99499H20.5541ZM20.5616 26.9989L11.4446 27.0039L4.9999 20.5617L4.9949 11.4447L11.4371 4.99998H20.5604L26.9988 11.4372L27.0038 20.5542L20.5616 26.9989Z" fill="#1100FF"/>
<path d="M15.9993 22.9991C16.8277 22.9991 17.4993 22.3275 17.4993 21.4991C17.4993 20.6708 16.8277 19.9992 15.9993 19.9992C15.171 19.9992 14.4994 20.6708 14.4994 21.4991C14.4994 22.3275 15.171 22.9991 15.9993 22.9991Z" fill="#1100FF"/>
</svg>
