<svg width="32" height="32" viewBox="0 0 32 32" fill="none" xmlns="http://www.w3.org/2000/svg">
<path d="M26 16C26 12.6962 24.3888 9.76375 21.9125 7.9425L21.1337 3.65C20.9637 2.6925 20.1362 2 19.1675 2H12.835C11.8637 2 11.0363 2.6925 10.8663 3.64625L10.0875 7.94125C7.61125 9.76375 6 12.6962 6 16C6 19.3037 7.61125 22.2363 10.0875 24.0575L10.8663 28.3487C11.0363 29.3062 11.8637 29.9988 12.8325 29.9988H19.1663C20.1375 29.9988 20.965 29.3063 21.135 28.3525L21.9137 24.0575C24.39 22.235 26.0012 19.3025 26.0012 16H26ZM12.8375 4L19.1663 4.00375L19.6538 6.695C18.5213 6.24875 17.2887 6.00125 16 6.00125C14.7113 6.00125 13.48 6.24875 12.3475 6.695L12.8375 4.00125V4ZM8 16C8 11.5887 11.5887 8 16 8C20.4113 8 24 11.5887 24 16C24 20.4113 20.4113 24 16 24C11.5887 24 8 20.4113 8 16ZM19.1625 28L12.8337 27.9963L12.3463 25.305C13.4788 25.7513 14.7113 25.9988 16 25.9988C17.2887 25.9988 18.52 25.7513 19.6525 25.305L19.1625 27.9988V28Z" fill="#1100FF"/>
<path d="M16 17H21C21.5525 17 22 16.5525 22 16C22 15.4475 21.5525 15 21 15H17V11C17 10.4475 16.5525 10 16 10C15.4475 10 15 10.4475 15 11V16C15 16.5525 15.4475 17 16 17Z" fill="#1100FF"/>
</svg>
