<svg width="32" height="32" viewBox="0 0 32 32" fill="none" xmlns="http://www.w3.org/2000/svg">
<path fill-rule="evenodd" clip-rule="evenodd" d="M11.9873 3.5C11.1589 3.5 10.4873 4.17157 10.4873 5C10.4873 5.82843 11.1589 6.5 11.9873 6.5C12.8157 6.5 13.4873 5.82843 13.4873 5C13.4873 4.17157 12.8157 3.5 11.9873 3.5ZM8.4873 5C8.4873 3.067 10.0543 1.5 11.9873 1.5C13.9203 1.5 15.4873 3.067 15.4873 5C15.4873 6.933 13.9203 8.5 11.9873 8.5C10.0543 8.5 8.4873 6.933 8.4873 5Z" fill="#1100FF"/>
<path fill-rule="evenodd" clip-rule="evenodd" d="M11.9873 6.5C12.5396 6.5 12.9873 6.94772 12.9873 7.5V15.5H22.9873C23.3661 15.5 23.7123 15.714 23.8817 16.0528L27.4939 23.2771L29.6711 22.5513C30.195 22.3767 30.7613 22.6598 30.936 23.1838C31.1106 23.7077 30.8275 24.274 30.3035 24.4487L27.3035 25.4487C26.8314 25.6061 26.3154 25.3923 26.0929 24.9472L22.3693 17.5H11.9873C11.435 17.5 10.9873 17.0523 10.9873 16.5V7.5C10.9873 6.94772 11.435 6.5 11.9873 6.5Z" fill="#1100FF"/>
<path fill-rule="evenodd" clip-rule="evenodd" d="M12.9876 11H19.9876C20.5399 11 20.9876 11.4477 20.9876 12C20.9876 12.5523 20.5399 13 19.9876 13H12.988C12.9878 13 12.9881 13 12.988 13C11.6224 13.0006 10.2864 13.4006 9.14535 14.1508C8.00416 14.9011 7.10736 15.9687 6.56542 17.2223C6.02349 18.4759 5.86011 19.8607 6.09539 21.2059C6.33067 22.5512 6.95435 23.7983 7.88958 24.7936C8.82482 25.7888 10.0308 26.4887 11.3588 26.8071C12.6869 27.1255 14.0791 27.0484 15.364 26.5854C16.6488 26.1224 17.7701 25.2936 18.5898 24.2012C19.4095 23.1089 19.8917 21.8005 19.977 20.4375C20.0116 19.8863 20.4864 19.4674 21.0376 19.502C21.5888 19.5365 22.0077 20.0113 21.9731 20.5625C21.8634 22.315 21.2434 23.9971 20.1895 25.4016C19.1357 26.8061 17.694 27.8716 16.042 28.467C14.3901 29.0623 12.6001 29.1614 10.8926 28.752C9.18506 28.3427 7.63456 27.4428 6.43212 26.1632C5.22967 24.8836 4.4278 23.2802 4.12529 21.5505C3.82279 19.8208 4.03286 18.0405 4.72962 16.4287C5.42639 14.8169 6.57942 13.4442 8.04667 12.4796C9.51391 11.515 11.2317 11.0007 12.9876 11Z" fill="#1100FF"/>
</svg>
