<svg width="32" height="32" viewBox="0 0 32 32" fill="none" xmlns="http://www.w3.org/2000/svg">
<path d="M10.8269 20.1126C10.4262 20.4971 10.4136 21.1328 10.798 21.5335C10.9953 21.7396 11.2591 21.8426 11.523 21.8426C11.773 21.8426 12.0242 21.7496 12.219 21.5624C14.302 19.5648 17.5647 19.5648 19.6465 21.5624C20.0473 21.9469 20.683 21.9331 21.0674 21.5335C21.4519 21.1328 21.438 20.4971 21.0385 20.1126C18.1753 17.3662 13.6902 17.3662 10.8269 20.1126Z" fill="#1100FF"/>
<path d="M26.3994 10.0204L28.7035 7.71624C29.0955 7.32426 29.0955 6.68729 28.7035 6.29531C28.3115 5.90333 27.6746 5.90333 27.2826 6.29531L24.9784 8.59945L22.6743 6.29406C22.2823 5.90208 21.6453 5.90208 21.2534 6.29406C20.8614 6.68604 20.8614 7.323 21.2534 7.71499L23.5575 10.0191L21.2534 12.3233C20.8614 12.7152 20.8614 13.3522 21.2534 13.7442C21.4494 13.9402 21.7069 14.0382 21.9645 14.0382C22.222 14.0382 22.4783 13.9402 22.6756 13.7442L24.9797 11.4401L27.2838 13.7442C27.4798 13.9402 27.7374 14.0382 27.9949 14.0382C28.2525 14.0382 28.5088 13.9402 28.706 13.7442C29.098 13.3522 29.098 12.7152 28.706 12.3233L26.4019 10.0191L26.3994 10.0204Z" fill="#1100FF"/>
<path d="M15.939 8.01023C16.5684 8.01023 17.2042 8.04666 17.8298 8.11702C18.3826 8.17858 18.8789 7.78283 18.9417 7.23129C19.0045 6.67976 18.6075 6.18224 18.056 6.11942C17.3537 6.04027 16.6338 6.00133 15.9352 6.00007C10.7968 5.98625 5.94981 7.97254 2.29761 11.5933C1.90311 11.9841 1.9006 12.621 2.29132 13.0143C2.48731 13.2128 2.74612 13.312 3.00493 13.312C3.26374 13.312 3.51626 13.2153 3.71225 13.0205C6.97247 9.78796 11.293 8.01023 15.885 8.01023C15.9026 8.01023 15.9214 8.01023 15.939 8.01023Z" fill="#1100FF"/>
<path d="M15.9378 14.0407C16.5509 14.0357 17.1702 14.0884 17.7758 14.1902C18.3223 14.2819 18.8412 13.9138 18.9341 13.366C19.0259 12.8183 18.6578 12.3007 18.11 12.2077C17.4115 12.0896 16.6991 12.0305 15.9993 12.0305C15.9604 12.0305 15.9214 12.0305 15.8825 12.0305C12.3722 12.0305 9.06303 13.3861 6.55913 15.8498C6.16339 16.2393 6.15836 16.875 6.54783 17.2708C6.74507 17.4705 7.00388 17.571 7.26395 17.571C7.52401 17.571 7.77277 17.4755 7.96876 17.2821C10.0932 15.1903 12.9024 14.0407 15.8913 14.0407C15.9064 14.0407 15.9227 14.0407 15.9378 14.0407Z" fill="#1100FF"/>
<path d="M15.9327 26.6042C16.7654 26.6042 17.4404 25.9292 17.4404 25.0965C17.4404 24.2639 16.7654 23.5889 15.9327 23.5889C15.1001 23.5889 14.4251 24.2639 14.4251 25.0965C14.4251 25.9292 15.1001 26.6042 15.9327 26.6042Z" fill="#1100FF"/>
</svg>
