<svg width="32" height="32" viewBox="0 0 32 32" fill="none" xmlns="http://www.w3.org/2000/svg">
<path fill-rule="evenodd" clip-rule="evenodd" d="M5.32733 4.26007C5.73599 3.88856 6.36844 3.91868 6.73995 4.32733L26.7399 26.3273C27.1115 26.736 27.0813 27.3684 26.6727 27.7399C26.264 28.1115 25.6316 28.0813 25.2601 27.6727L5.26007 5.67268C4.88856 5.26402 4.91868 4.63157 5.32733 4.26007Z" fill="#1100FF"/>
<path fill-rule="evenodd" clip-rule="evenodd" d="M28.1583 12.9852C24.9257 9.78047 20.5545 7.98781 16.0025 8.00006L15.9986 8.00007C15.173 7.99901 14.3484 8.05819 13.5314 8.17713C12.9849 8.2567 12.4773 7.87816 12.3978 7.33163C12.3182 6.78511 12.6967 6.27756 13.2433 6.198C14.1559 6.06514 15.0769 5.99899 15.9991 6.00006C21.0797 5.98691 25.9583 7.98796 29.5664 11.5649C29.9586 11.9537 29.9613 12.5869 29.5725 12.9791C29.1837 13.3713 28.5505 13.3741 28.1583 12.9852Z" fill="#1100FF"/>
<path fill-rule="evenodd" clip-rule="evenodd" d="M9.9756 7.98359C10.1849 8.49468 9.94026 9.07867 9.42917 9.28797C7.34231 10.1426 5.44372 11.3989 3.84131 12.9857C3.44887 13.3742 2.81571 13.3711 2.42711 12.9787C2.03852 12.5862 2.04164 11.9531 2.43408 11.5645C4.22269 9.79342 6.34188 8.39108 8.67122 7.43716C9.18231 7.22786 9.7663 7.47251 9.9756 7.98359Z" fill="#1100FF"/>
<path fill-rule="evenodd" clip-rule="evenodd" d="M18.0418 13.1346C18.1745 12.5985 18.7168 12.2715 19.2529 12.4043C21.5446 12.9719 23.6419 14.1444 25.3259 15.7993C25.7198 16.1864 25.7253 16.8195 25.3382 17.2134C24.9511 17.6073 24.3179 17.6128 23.924 17.2257C22.4955 15.8218 20.7162 14.8272 18.772 14.3457C18.2359 14.2129 17.909 13.6707 18.0418 13.1346Z" fill="#1100FF"/>
<path fill-rule="evenodd" clip-rule="evenodd" d="M14.4792 13.047C14.5913 13.5878 14.2437 14.1171 13.7029 14.2292C11.5785 14.6694 9.62506 15.7099 8.07437 17.2272C7.67962 17.6135 7.04649 17.6066 6.66024 17.2118C6.27399 16.8171 6.28088 16.184 6.67563 15.7977C8.49986 14.0127 10.7979 12.7887 13.2971 12.2708C13.8379 12.1587 14.3671 12.5062 14.4792 13.047Z" fill="#1100FF"/>
<path fill-rule="evenodd" clip-rule="evenodd" d="M19.4248 21.2328C18.4127 20.3953 17.1285 19.9585 15.8157 20.0051C14.503 20.0517 13.253 20.5785 12.3029 21.4857C11.9034 21.8671 11.2704 21.8524 10.889 21.453C10.5076 21.0535 10.5223 20.4205 10.9217 20.0391C12.2262 18.7937 13.9424 18.0703 15.7448 18.0063C17.5472 17.9424 19.3104 18.5422 20.6998 19.692C21.1253 20.0441 21.1848 20.6744 20.8327 21.0999C20.4806 21.5254 19.8503 21.5849 19.4248 21.2328Z" fill="#1100FF"/>
<path d="M16 26.5C16.8284 26.5 17.5 25.8284 17.5 25C17.5 24.1716 16.8284 23.5 16 23.5C15.1716 23.5 14.5 24.1716 14.5 25C14.5 25.8284 15.1716 26.5 16 26.5Z" fill="#1100FF"/>
</svg>
