<svg width="32" height="32" viewBox="0 0 32 32" fill="none" xmlns="http://www.w3.org/2000/svg">
<path fill-rule="evenodd" clip-rule="evenodd" d="M15.9998 19.9978C14.6225 19.9978 13.2985 20.5302 12.3046 21.4838C11.9061 21.8661 11.2731 21.853 10.8907 21.4545C10.5084 21.0559 10.5215 20.4229 10.92 20.0405C12.2863 18.7297 14.1064 17.9978 15.9998 17.9978C17.8932 17.9978 19.7133 18.7297 21.0796 20.0405C21.4781 20.4229 21.4913 21.0559 21.1089 21.4545C20.7266 21.853 20.0935 21.8661 19.695 21.4838C18.7011 20.5302 17.3771 19.9978 15.9998 19.9978Z" fill="#1100FF"/>
<path fill-rule="evenodd" clip-rule="evenodd" d="M16 14.0015C13.038 14.0015 10.1934 15.1594 8.07338 17.228C7.6781 17.6137 7.04498 17.6059 6.65927 17.2106C6.27357 16.8153 6.28133 16.1822 6.67662 15.7965C9.17016 13.3634 12.5161 12.0015 16 12.0015C19.4839 12.0015 22.8298 13.3634 25.3234 15.7965C25.7187 16.1822 25.7264 16.8153 25.3407 17.2106C24.955 17.6059 24.3219 17.6137 23.9266 17.228C21.8066 15.1594 18.962 14.0015 16 14.0015Z" fill="#1100FF"/>
<path fill-rule="evenodd" clip-rule="evenodd" d="M16.0002 8.00195C11.4493 8.00195 7.08108 9.79261 3.83961 12.9869C3.44623 13.3746 2.81308 13.37 2.42543 12.9766C2.03778 12.5832 2.04241 11.9501 2.43579 11.5624C6.05145 7.99932 10.9239 6.00195 16.0002 6.00195C21.0765 6.00195 25.9489 7.99932 29.5646 11.5624C29.958 11.9501 29.9626 12.5832 29.575 12.9766C29.1873 13.37 28.5542 13.3746 28.1608 12.9869C24.9193 9.79261 20.5511 8.00195 16.0002 8.00195Z" fill="#1100FF"/>
<path d="M16 26.4998C16.8284 26.4998 17.5 25.8282 17.5 24.9998C17.5 24.1713 16.8284 23.4998 16 23.4998C15.1716 23.4998 14.5 24.1713 14.5 24.9998C14.5 25.8282 15.1716 26.4998 16 26.4998Z" fill="#1100FF"/>
</svg>
