<svg width="32" height="32" viewBox="0 0 32 32" fill="none" xmlns="http://www.w3.org/2000/svg">
<path fill-rule="evenodd" clip-rule="evenodd" d="M15.9998 19.998C14.6225 19.998 13.2985 20.5305 12.3046 21.484C11.9061 21.8663 11.2731 21.8532 10.8907 21.4547C10.5084 21.0562 10.5215 20.4231 10.92 20.0408C12.2863 18.73 14.1064 17.998 15.9998 17.998C17.8932 17.998 19.7133 18.73 21.0796 20.0408C21.4781 20.4231 21.4913 21.0562 21.1089 21.4547C20.7266 21.8532 20.0935 21.8663 19.695 21.484C18.7011 20.5305 17.3771 19.998 15.9998 19.998Z" fill="#1100FF"/>
<path d="M16 26.5C16.8284 26.5 17.5 25.8284 17.5 25C17.5 24.1716 16.8284 23.5 16 23.5C15.1716 23.5 14.5 24.1716 14.5 25C14.5 25.8284 15.1716 26.5 16 26.5Z" fill="#1100FF"/>
</svg>
