<svg width="32" height="32" viewBox="0 0 32 32" fill="none" xmlns="http://www.w3.org/2000/svg">
<path fill-rule="evenodd" clip-rule="evenodd" d="M15.9998 19.9983C14.6225 19.9983 13.2985 20.5307 12.3046 21.4842C11.9061 21.8666 11.2731 21.8535 10.8907 21.4549C10.5084 21.0564 10.5215 20.4234 10.92 20.041C12.2863 18.7302 14.1064 17.9983 15.9998 17.9983C17.8932 17.9983 19.7133 18.7302 21.0796 20.041C21.4781 20.4234 21.4913 21.0564 21.1089 21.4549C20.7266 21.8535 20.0935 21.8666 19.695 21.4842C18.7011 20.5307 17.3771 19.9983 15.9998 19.9983Z" fill="#1100FF"/>
<path fill-rule="evenodd" clip-rule="evenodd" d="M16 14.002C13.038 14.002 10.1934 15.1599 8.07338 17.2285C7.6781 17.6142 7.04498 17.6064 6.65927 17.2111C6.27357 16.8158 6.28133 16.1827 6.67662 15.797C9.17016 13.3639 12.5161 12.002 16 12.002C19.4839 12.002 22.8298 13.3639 25.3234 15.797C25.7187 16.1827 25.7264 16.8158 25.3407 17.2111C24.955 17.6064 24.3219 17.6142 23.9266 17.2285C21.8066 15.1599 18.962 14.002 16 14.002Z" fill="#1100FF"/>
<path d="M16 26.5002C16.8284 26.5002 17.5 25.8287 17.5 25.0002C17.5 24.1718 16.8284 23.5002 16 23.5002C15.1716 23.5002 14.5 24.1718 14.5 25.0002C14.5 25.8287 15.1716 26.5002 16 26.5002Z" fill="#1100FF"/>
</svg>
