<svg width="32" height="32" viewBox="0 0 32 32" fill="none" xmlns="http://www.w3.org/2000/svg">
<path fill-rule="evenodd" clip-rule="evenodd" d="M16 18C16 17.4477 16.4477 17 17 17H27C27.5523 17 28 17.4477 28 18V27C28 27.2964 27.8685 27.5776 27.641 27.7676C27.4134 27.9576 27.1133 28.0368 26.8217 27.984L16.8217 26.1715C16.3459 26.0852 16 25.671 16 25.1875V18ZM18 19V24.3525L26 25.8025V19H18Z" fill="#1100FF"/>
<path fill-rule="evenodd" clip-rule="evenodd" d="M4 18C4 17.4477 4.44772 17 5 17H13C13.5523 17 14 17.4477 14 18V24.45C14 24.7464 13.8685 25.0276 13.641 25.2176C13.4134 25.4076 13.1133 25.4868 12.8217 25.434L4.82166 23.984C4.34591 23.8977 4 23.4835 4 23V18ZM6 19V22.165L12 23.2525V19H6Z" fill="#1100FF"/>
<path fill-rule="evenodd" clip-rule="evenodd" d="M27.641 4.23243C27.8685 4.42243 28 4.70358 28 5.00001V14C28 14.5523 27.5523 15 27 15H17C16.4477 15 16 14.5523 16 14V6.81251C16 6.32901 16.3459 5.91477 16.8217 5.82854L26.8217 4.01604C27.1133 3.96317 27.4134 4.04244 27.641 4.23243ZM18 7.64755V13H26V6.19755L18 7.64755Z" fill="#1100FF"/>
<path fill-rule="evenodd" clip-rule="evenodd" d="M13.641 6.78248C13.8685 6.97248 14 7.25363 14 7.55006V14.0001C14 14.5523 13.5523 15.0001 13 15.0001H5C4.44772 15.0001 4 14.5523 4 14.0001V9.00006C4 8.51656 4.34591 8.10232 4.82166 8.01609L12.8217 6.56609C13.1133 6.51322 13.4134 6.59248 13.641 6.78248ZM6 9.8351V13.0001H12V8.7476L6 9.8351Z" fill="#1100FF"/>
</svg>
