<svg width="32" height="32" viewBox="0 0 32 32" fill="none" xmlns="http://www.w3.org/2000/svg">
<path fill-rule="evenodd" clip-rule="evenodd" d="M21.2386 5.10643C20.3306 4.94021 19.3935 4.95459 18.4818 5.15474C17.0582 5.4673 15.7679 6.21723 14.7916 7.29956C13.8154 8.38188 13.202 9.74241 13.0374 11.1907C12.8728 12.6389 13.1653 14.1024 13.8737 15.3762C14.1042 15.7904 14.0121 16.3095 13.6532 16.6193L5.5588 23.6054C5.19723 23.979 4.99463 24.4789 4.99463 24.9997C4.99463 25.5315 5.20589 26.0416 5.58194 26.4176C5.95799 26.7937 6.46802 27.0049 6.99983 27.0049C7.52064 27.0049 8.02055 26.8023 8.3942 26.4408L15.3803 18.3464L16.1373 18.9997L16.6234 18.1258C17.8972 18.8343 19.3607 19.1267 20.8089 18.9621C22.2572 18.7976 23.6177 18.1842 24.7 17.2079C25.7823 16.2317 26.5323 14.9414 26.8448 13.5177C27.045 12.6061 27.0594 11.6689 26.8931 10.761L22.8328 14.831C22.596 15.0683 22.256 15.1712 21.9274 15.1051L18.3899 14.3926C17.9951 14.313 17.6865 14.0045 17.607 13.6097L16.8945 10.0722C16.8283 9.74353 16.9312 9.40357 17.1686 9.16679L21.2386 5.10643ZM16.3877 20.2402L9.88187 27.7781C9.86589 27.7966 9.84923 27.8146 9.83194 27.8318C9.08082 28.583 8.06208 29.0049 6.99983 29.0049C5.93759 29.0049 4.91885 28.583 4.16773 27.8318C3.4166 27.0807 2.99463 26.062 2.99463 24.9997C2.99463 23.9375 3.4166 22.9188 4.16773 22.1676C4.18502 22.1503 4.20294 22.1337 4.22146 22.1177L11.7594 15.6119C11.1169 14.1577 10.8696 12.5542 11.0502 10.9648C11.2619 9.10204 12.0508 7.3521 13.3065 5.95998C14.5622 4.56787 16.2218 3.60328 18.053 3.20126C19.8841 2.79924 21.7952 2.97992 23.5185 3.71799C23.8238 3.84873 24.0442 4.12247 24.1069 4.44859C24.1695 4.77471 24.0662 5.11065 23.8311 5.34519L18.9611 10.2035L19.4364 12.5632L21.796 13.0384L26.6544 8.16847C26.8889 7.93338 27.2249 7.83005 27.551 7.89269C27.8771 7.95534 28.1508 8.17579 28.2816 8.48105C29.0196 10.2044 29.2003 12.1154 28.7983 13.9466C28.3963 15.7777 27.4317 17.4373 26.0396 18.693C24.6475 19.9487 22.8975 20.7376 21.0348 20.9493C19.4454 21.13 17.8418 20.8827 16.3877 20.2402Z" fill="#1100FF"/>
</svg>
