<svg width="48" height="48" viewBox="0 0 48 48" fill="none" xmlns="http://www.w3.org/2000/svg">
<ellipse cx="24" cy="38.5" rx="24" ry="9.5" fill="#F6FAFE"/>
<path d="M33.6307 9H14.3693C13.5359 9 12.7401 9.34665 12.1725 9.95689L5.25 17.4V24H42.75V17.4L35.8275 9.95689C35.2599 9.34665 34.4641 9 33.6307 9Z" fill="#F6FAFE" stroke="#0086EA"/>
<path d="M42 17.75C43.1046 17.75 44 18.6454 44 19.75V38.25C44 39.3546 43.1046 40.25 42 40.25H6C4.89543 40.25 4 39.3546 4 38.25V19.75C4 18.6454 4.89543 17.75 6 17.75H15.3333C16.4379 17.75 17.3022 18.6682 17.6509 19.7162C18.5124 22.3049 21.0293 24.1786 24 24.1786C26.9707 24.1786 29.4876 22.3049 30.3491 19.7162C30.6978 18.6682 31.5621 17.75 32.6667 17.75H42Z" fill="#C0D5FF" stroke="#0086EA"/>
<path d="M21.4114 3C21.4114 2.44772 21.8591 2 22.4114 2H26.5886C27.1409 2 27.5886 2.44772 27.5886 3V10.6053L29.9221 10.6053C30.7601 10.6053 31.2265 11.5742 30.7036 12.2292L25.2815 19.0211C24.8812 19.5225 24.1188 19.5225 23.7185 19.0211L18.2964 12.2292C17.7735 11.5742 18.2399 10.6053 19.0779 10.6053L21.4114 10.6053V3Z" fill="#E8F2FE" stroke="#0086EA"/>
</svg>
