<svg width="24" height="16" viewBox="0 0 24 16" fill="none" xmlns="http://www.w3.org/2000/svg">
  <path d="M1.3098 0.41334C1.12347 0.414054 0.939416 0.454366 0.769842 0.531602C0.600268 0.608838 0.449047 0.721234 0.326202 0.861341C0.203357 1.00145 0.111695 1.16607 0.0572909 1.34428C0.00288678 1.5225 -0.0130165 1.71024 0.0106351 1.89507C0.819771 8.16587 0.819771 7.83211 0.0106351 14.1029C-0.0186387 14.3317 0.0127764 14.5641 0.101728 14.7769C0.190679 14.9897 0.334037 15.1754 0.517412 15.3152C0.700788 15.4551 0.91773 15.5443 1.14646 15.5738C1.3752 15.6034 1.60768 15.5722 1.82057 15.4835L8.83376 12.5656C8.77307 13.046 8.71239 13.5213 8.63653 14.1029C8.5101 15.1042 9.51141 15.8729 10.447 15.4835L23.1909 9.21269C23.6814 9.01041 24 8.52999 24 7.99899C24 7.46799 23.6814 6.98757 23.1909 6.78529L10.447 0.514482C10.2851 0.448739 10.1132 0.41334 9.9362 0.41334C9.1473 0.418397 8.53539 1.11122 8.63653 1.89507C8.71239 2.47664 8.77307 2.952 8.83376 3.43243L1.82057 0.514482C1.65876 0.447057 1.4851 0.412669 1.3098 0.41334Z" fill="url(#brisk-gradient)"/>
  <defs>
    <linearGradient id="brisk-gradient" x1="24" y1="8" x2="0" y2="8" gradientUnits="userSpaceOnUse">
      <stop stop-color="#5FAEE7"/>
      <stop offset="1" stop-color="#000000"/>
    </linearGradient>
  </defs>
</svg>
