<svg width="32" height="32" viewBox="0 0 122.8 122.8" fill="none" xmlns="http://www.w3.org/2000/svg">
  <path d="M25.4 77.2C25.4 84.2 19.7 89.9 12.7 89.9C5.7 89.9 0 84.2 0 77.2C0 70.2 5.7 64.5 12.7 64.5H25.4V77.2ZM31.8 77.2C31.8 70.2 37.5 64.5 44.5 64.5C51.5 64.5 57.2 70.2 57.2 77.2V109C57.2 116 51.5 121.7 44.5 121.7C37.5 121.7 31.8 116 31.8 109V77.2Z" fill="#E01E5A"/>
  <path d="M44.5 25.4C37.5 25.4 31.8 19.7 31.8 12.7C31.8 5.7 37.5 0 44.5 0C51.5 0 57.2 5.7 57.2 12.7V25.4H44.5ZM44.5 31.8C51.5 31.8 57.2 37.5 57.2 44.5C57.2 51.5 51.5 57.2 44.5 57.2H12.7C5.7 57.2 0 51.5 0 44.5C0 37.5 5.7 31.8 12.7 31.8H44.5Z" fill="#36C5F0"/>
  <path d="M96.3 44.5C96.3 37.5 102 31.8 109 31.8C116 31.8 121.7 37.5 121.7 44.5C121.7 51.5 116 57.2 109 57.2H96.3V44.5ZM89.9 44.5C89.9 51.5 84.2 57.2 77.2 57.2C70.2 57.2 64.5 51.5 64.5 44.5V12.7C64.5 5.7 70.2 0 77.2 0C84.2 0 89.9 5.7 89.9 12.7V44.5Z" fill="#2EB67D"/>
  <path d="M77.2 96.3C84.2 96.3 89.9 102 89.9 109C89.9 116 84.2 121.7 77.2 121.7C70.2 121.7 64.5 116 64.5 109V96.3H77.2ZM77.2 89.9C70.2 89.9 64.5 84.2 64.5 77.2C64.5 70.2 70.2 64.5 77.2 64.5H109C116 64.5 121.7 70.2 121.7 77.2C121.7 84.2 116 89.9 109 89.9H77.2Z" fill="#ECB22E"/>
</svg>
