<svg width="32" height="32" viewBox="0 0 32 32" fill="none" xmlns="http://www.w3.org/2000/svg">
  <path d="M16 3C8.82 3 3 8.67 3 15.66C3 17.95 3.63 20.1 4.74 21.95L3.12 28.78L10.13 27.18C11.9 28.13 13.92 28.67 16 28.67C23.18 28.67 29 23 29 16.01C29 9.02 23.18 3 16 3Z" fill="#25D366"/>
  <path d="M22.58 18.11L20.3 16.81C19.74 16.5 19.06 16.51 18.51 16.84L17.18 17.63C16.5 17.24 15.94 16.68 15.55 16L16.35 14.67C16.68 14.12 16.68 13.44 16.37 12.88L15.06 10.61C14.77 10.08 14.21 9.76 13.61 9.77C11.4 9.77 9.6 11.56 9.59 13.77V13.82C9.6 16.44 10.62 18.9 12.48 20.75C14.33 22.59 16.78 23.6 19.39 23.6H19.42C21.62 23.58 23.41 21.78 23.42 19.59C23.42 18.99 23.1 18.43 22.58 18.11Z" fill="#FFFFFF"/>
</svg>
