<svg width="52" height="52" viewBox="0 0 52 52" fill="none" xmlns="http://www.w3.org/2000/svg">
<g filter="url(#filter0_d_4439_341)">
<rect width="48" height="48" fill="#A6E74D" shape-rendering="crispEdges"/>
<rect x="1" y="1" width="46" height="46" stroke="#0E1114" stroke-width="2" shape-rendering="crispEdges"/>
<path fill-rule="evenodd" clip-rule="evenodd" d="M21.5722 24.3966C20.4504 24.3966 19.541 25.306 19.541 26.4278C19.541 26.9422 19.7323 27.412 20.0476 27.7699C20.1045 27.8345 20.1654 27.8954 20.23 27.9523C20.5879 28.2676 21.0577 28.4589 21.5722 28.4589C22.694 28.4589 23.6033 27.5495 23.6033 26.4278C23.6033 25.306 22.694 24.3966 21.5722 24.3966ZM16.8328 26.4278C16.8328 23.8103 18.9547 21.6884 21.5722 21.6884C24.1897 21.6884 26.3116 23.8103 26.3116 26.4278C26.3116 29.0452 24.1897 31.1671 21.5722 31.1671C20.756 31.1671 19.988 30.9608 19.3174 30.5974C18.5082 30.1589 17.841 29.4917 17.4025 28.6824C17.0391 28.0119 16.8328 27.2439 16.8328 26.4278Z" fill="#A6E74D"/>
<path fill-rule="evenodd" clip-rule="evenodd" d="M20.1431 27.8568C20.1738 27.8876 20.2028 27.9194 20.23 27.9523C20.6701 28.4842 20.6411 29.2737 20.1431 29.7718L19.3174 30.5974L11.2975 38.6174L8.3116 41.6033C7.78279 42.1321 6.92542 42.1321 6.39661 41.6033C5.8678 41.0745 5.8678 40.2171 6.39661 39.6883L9.38329 36.7016L17.4025 28.6824L18.2281 27.8568C18.7261 27.3587 19.5157 27.3298 20.0476 27.7699C20.0805 27.7971 20.1123 27.826 20.1431 27.8568Z" fill="#A6E74D"/>
<path fill-rule="evenodd" clip-rule="evenodd" d="M21.7736 10.9419C22.2708 10.7553 22.8312 10.8767 23.2068 11.2522L24.1642 12.2097L35.7903 23.8357L36.7478 24.7932C37.1233 25.1688 37.2447 25.7292 37.0581 26.2264L33.2689 36.3252C33.1066 36.7691 32.8303 37.1624 32.4676 37.4656C32.1026 37.7708 31.6631 37.9738 31.1941 38.0538L31.1884 38.0547L7.57627 41.9816C7.14502 42.0534 6.70572 41.9124 6.39661 41.6033C6.0875 41.2941 5.94662 40.8548 6.01839 40.4236L9.94639 16.8217C10.0265 16.3549 10.2268 15.917 10.5277 15.5512C10.8286 15.1854 11.2196 14.9044 11.6622 14.7358L11.6686 14.7334L21.7736 10.9419ZM12.6257 17.2669L12.6192 17.2717L12.6158 17.2789L9.38329 36.7016L9.00088 38.9993L11.2975 38.6174L30.7288 35.3858L30.7309 35.38L34.2161 26.0916L21.9084 13.7839L12.6257 17.2669Z" fill="#A6E74D"/>
<path fill-rule="evenodd" clip-rule="evenodd" d="M26.6197 6.21014C26.951 6.07143 27.3065 6 27.6657 6C28.0248 6 28.3803 6.07143 28.7116 6.21014C29.041 6.34807 29.3399 6.54978 29.591 6.80364L41.1963 18.4089C41.4502 18.6601 41.6519 18.9589 41.7898 19.2884C41.9285 19.6196 42 19.9752 42 20.3343C42 20.6934 41.9285 21.049 41.7898 21.3803C41.6519 21.7097 41.4502 22.0086 41.1963 22.2597L36.7478 26.7082C36.219 27.237 35.3616 27.237 34.8328 26.7082C34.304 26.1794 34.304 25.322 34.8328 24.7932L35.7903 23.8357L39.2917 20.3343L39.2844 20.327L27.6656 8.70823L27.6584 8.71559L24.1642 12.2097L23.2067 13.1672C22.6779 13.696 21.8206 13.696 21.2917 13.1672C20.7629 12.6384 20.7629 11.781 21.2917 11.2522L25.7403 6.80361C25.9914 6.54976 26.2903 6.34806 26.6197 6.21014Z" fill="#A6E74D"/>
<path d="M16.8328 26.4278C16.8328 23.8103 18.9547 21.6884 21.5722 21.6884C24.1897 21.6884 26.3116 23.8103 26.3116 26.4278C26.3116 29.0452 24.1897 31.1671 21.5722 31.1671C20.756 31.1671 19.988 30.9608 19.3174 30.5974L11.2975 38.6174L30.7288 35.3858L30.7309 35.38L34.2161 26.0916L21.9084 13.7839L12.6257 17.2669L12.6192 17.2717L12.6158 17.2789L9.38329 36.7016L17.4025 28.6824C17.0391 28.0119 16.8328 27.2439 16.8328 26.4278Z" fill="#0E1114"/>
<path d="M21.5722 24.3966C20.4504 24.3966 19.541 25.306 19.541 26.4278C19.541 26.9422 19.7323 27.412 20.0476 27.7699C20.0805 27.7971 20.1123 27.826 20.1431 27.8568C20.1738 27.8876 20.2028 27.9194 20.23 27.9523C20.5879 28.2676 21.0577 28.4589 21.5722 28.4589C22.694 28.4589 23.6033 27.5495 23.6033 26.4278C23.6033 25.306 22.694 24.3966 21.5722 24.3966Z" fill="#0E1114"/>
<path d="M24.1642 12.2097L35.7903 23.8357L39.2917 20.3343L39.2844 20.327L27.6656 8.70823L27.6584 8.71559L24.1642 12.2097Z" fill="#0E1114"/>
</g>
<defs>
<filter id="filter0_d_4439_341" x="0" y="0" width="52" height="52" filterUnits="userSpaceOnUse" color-interpolation-filters="sRGB">
<feFlood flood-opacity="0" result="BackgroundImageFix"/>
<feColorMatrix in="SourceAlpha" type="matrix" values="0 0 0 0 0 0 0 0 0 0 0 0 0 0 0 0 0 0 127 0" result="hardAlpha"/>
<feOffset dx="4" dy="4"/>
<feComposite in2="hardAlpha" operator="out"/>
<feColorMatrix type="matrix" values="0 0 0 0 0.054902 0 0 0 0 0.0666667 0 0 0 0 0.0784314 0 0 0 1 0"/>
<feBlend mode="normal" in2="BackgroundImageFix" result="effect1_dropShadow_4439_341"/>
<feBlend mode="normal" in="SourceGraphic" in2="effect1_dropShadow_4439_341" result="shape"/>
</filter>
</defs>
</svg>
