<svg width="62" height="62" viewBox="0 0 62 62" fill="none" xmlns="http://www.w3.org/2000/svg">
<g filter="url(#filter0_d_4472_9116)">
<rect y="10.0001" width="48" height="48" fill="#FD9AC8" shape-rendering="crispEdges"/>
<rect x="1" y="11.0001" width="46" height="46" stroke="#0E1114" stroke-width="2" shape-rendering="crispEdges"/>
<path fill-rule="evenodd" clip-rule="evenodd" d="M28.8818 23.1299C29.29 23.3822 29.5385 23.8279 29.5385 24.3078V36.7693C29.5385 37.534 28.9185 38.1539 28.1538 38.1539C27.3891 38.1539 26.7692 37.534 26.7692 36.7693V35.3847V26.5481L21.2308 29.3173V35.3847V36.7693C21.2308 37.5333 20.612 38.1527 19.8483 38.1539L19.8462 38.1539L19.844 38.1539C19.0803 38.1527 18.4615 37.5333 18.4615 36.7693V28.4616C18.4615 27.9371 18.7579 27.4577 19.2269 27.2232L27.5346 23.0693C27.9638 22.8547 28.4736 22.8776 28.8818 23.1299Z" fill="#FD9AC8"/>
<path d="M26.7692 35.3847V26.5481L21.2308 29.3173V35.3847H26.7692Z" fill="#0E1114"/>
<path d="M18.4615 48.1925C20.1781 48.8629 22.0461 49.2308 24 49.2308C25.9539 49.2308 27.8219 48.8629 29.5385 48.1925V38.1539H28.1538L19.8483 38.1539L19.8462 38.1539L19.844 38.1539H18.4615V48.1925Z" fill="#0E1114"/>
<path d="M24 18.7693C15.5883 18.7693 8.76923 25.5883 8.76923 34.0001C8.76923 39.3468 11.5243 44.0501 15.6923 46.7677V38.1539C15.6923 37.4195 15.9841 36.7151 16.5034 36.1958C17.0227 35.6764 17.7271 35.3847 18.4615 35.3847V28.4616C18.4615 27.9371 18.7579 27.4577 19.2269 27.2232L27.5346 23.0693C27.9638 22.8547 28.4736 22.8776 28.8818 23.1299C29.29 23.3822 29.5385 23.8279 29.5385 24.3078V35.3847C30.2729 35.3847 30.9773 35.6764 31.4966 36.1958C32.0159 36.7151 32.3077 37.4195 32.3077 38.1539V46.7677C36.4757 44.0501 39.2308 39.3468 39.2308 34.0001C39.2308 25.5883 32.4117 18.7693 24 18.7693Z" fill="#0E1114"/>
<path fill-rule="evenodd" clip-rule="evenodd" d="M8.76923 34.0001C8.76923 25.5883 15.5883 18.7693 24 18.7693C32.4117 18.7693 39.2308 25.5883 39.2308 34.0001C39.2308 39.3468 36.4757 44.0501 32.3077 46.7677V38.1539C32.3077 37.4195 32.0159 36.7151 31.4966 36.1958C30.9773 35.6764 30.2729 35.3847 29.5385 35.3847H26.7692H21.2308H18.4615C17.7271 35.3847 17.0227 35.6764 16.5034 36.1958C15.9841 36.7151 15.6923 37.4195 15.6923 38.1539V46.7677C11.5243 44.0501 8.76923 39.3468 8.76923 34.0001ZM18.4615 48.1925C17.4855 47.8114 16.5584 47.3324 15.6923 46.7677V49.1097C15.6923 49.6518 16.0039 50.1212 16.4577 50.3485C10.2839 47.4954 6 41.248 6 34.0001C6 24.0589 14.0589 16.0001 24 16.0001C33.9411 16.0001 42 24.0589 42 34.0001C42 41.248 37.7161 47.4954 31.5423 50.3485C31.5144 50.3624 31.486 50.3755 31.4571 50.3876C29.185 51.4231 26.6599 52.0001 24 52.0001C21.3401 52.0001 18.815 51.4231 16.543 50.3876C16.7073 50.4563 16.8877 50.4943 17.0769 50.4943C17.8416 50.4943 18.4615 49.8744 18.4615 49.1097V48.1925ZM18.4615 48.1925V38.1539H19.844H19.8483L29.5385 38.1539V48.1925C27.8219 48.8629 25.9539 49.2308 24 49.2308C22.0461 49.2308 20.1781 48.8629 18.4615 48.1925ZM16.4577 50.3485L16.543 50.3876C16.514 50.3755 16.4856 50.3624 16.4577 50.3485Z" fill="#FD9AC8"/>
<path d="M17.0769 50.4943C17.8416 50.4943 18.4615 49.8744 18.4615 49.1097V48.1925C17.4855 47.8114 16.5584 47.3324 15.6923 46.7677V49.1097C15.6923 49.6518 16.0039 50.1212 16.4577 50.3485L16.543 50.3876C16.7073 50.4563 16.8877 50.4943 17.0769 50.4943Z" fill="#FD9AC8"/>
<path d="M44 1C51.1797 1 57 6.8203 57 14C57 21.1797 51.1797 27 44 27C36.8203 27 31 21.1797 31 14C31 6.8203 36.8203 1 44 1Z" fill="#1D9745"/>
<path d="M44 1C51.1797 1 57 6.8203 57 14C57 21.1797 51.1797 27 44 27C36.8203 27 31 21.1797 31 14C31 6.8203 36.8203 1 44 1Z" stroke="#0E1114" stroke-width="2" stroke-linecap="round" stroke-linejoin="round"/>
<path fill-rule="evenodd" clip-rule="evenodd" d="M47.8897 11.6932C48.128 11.9429 48.1187 12.3386 47.8689 12.5768L43.283 16.9518C43.0414 17.1823 42.6612 17.1822 42.4198 16.9515L40.1307 14.764C39.8811 14.5255 39.8722 14.1299 40.1106 13.8803C40.3491 13.6307 40.7448 13.6218 40.9943 13.8603L42.8519 15.6355L47.0061 11.6724C47.2558 11.4341 47.6515 11.4434 47.8897 11.6932Z" fill="white"/>
<path fill-rule="evenodd" clip-rule="evenodd" d="M44 7.1246C40.203 7.1246 37.125 10.2026 37.125 13.9996C37.125 17.7966 40.203 20.8746 44 20.8746C47.797 20.8746 50.875 17.7966 50.875 13.9996C50.875 10.2026 47.797 7.1246 44 7.1246ZM35.875 13.9996C35.875 9.51229 39.5127 5.8746 44 5.8746C48.4873 5.8746 52.125 9.51229 52.125 13.9996C52.125 18.4869 48.4873 22.1246 44 22.1246C39.5127 22.1246 35.875 18.4869 35.875 13.9996Z" fill="white"/>
</g>
<defs>
<filter id="filter0_d_4472_9116" x="0" y="0" width="62" height="62.0001" filterUnits="userSpaceOnUse" color-interpolation-filters="sRGB">
<feFlood flood-opacity="0" result="BackgroundImageFix"/>
<feColorMatrix in="SourceAlpha" type="matrix" values="0 0 0 0 0 0 0 0 0 0 0 0 0 0 0 0 0 0 127 0" result="hardAlpha"/>
<feOffset dx="4" dy="4"/>
<feComposite in2="hardAlpha" operator="out"/>
<feColorMatrix type="matrix" values="0 0 0 0 0.054902 0 0 0 0 0.0666667 0 0 0 0 0.0784314 0 0 0 1 0"/>
<feBlend mode="normal" in2="BackgroundImageFix" result="effect1_dropShadow_4472_9116"/>
<feBlend mode="normal" in="SourceGraphic" in2="effect1_dropShadow_4472_9116" result="shape"/>
</filter>
</defs>
</svg>
