<svg width="62" height="62" viewBox="0 0 62 62" fill="none" xmlns="http://www.w3.org/2000/svg">
<g filter="url(#filter0_d_4472_9206)">
<rect y="10.0001" width="48" height="48" fill="#FDCE5D" shape-rendering="crispEdges"/>
<rect x="1" y="11.0001" width="46" height="46" stroke="#0E1114" stroke-width="2" shape-rendering="crispEdges"/>
<path fill-rule="evenodd" clip-rule="evenodd" d="M17.333 38.6667C17.333 37.9303 17.93 37.3334 18.6663 37.3334H29.333C30.0694 37.3334 30.6663 37.9303 30.6663 38.6667C30.6663 39.4031 30.0694 40.0001 29.333 40.0001H18.6663C17.93 40.0001 17.333 39.4031 17.333 38.6667Z" fill="#FDCE5D"/>
<path fill-rule="evenodd" clip-rule="evenodd" d="M17.333 33.3334C17.333 32.597 17.93 32.0001 18.6663 32.0001H29.333C30.0694 32.0001 30.6663 32.597 30.6663 33.3334C30.6663 34.0698 30.0694 34.6667 29.333 34.6667H18.6663C17.93 34.6667 17.333 34.0698 17.333 33.3334Z" fill="#FDCE5D"/>
<path d="M19.7423 20.7877C19.7365 20.7955 19.7307 20.8033 19.7248 20.811C19.0416 21.7268 18.6663 22.8441 18.6663 24.0001H29.333C29.333 22.8441 28.9577 21.7268 28.2746 20.811C28.2687 20.8033 28.2628 20.7955 28.2571 20.7877C28.109 20.5915 27.9467 20.4046 27.7709 20.2288C26.7707 19.2286 25.4142 18.6667 23.9997 18.6667C22.5852 18.6667 21.2286 19.2286 20.2284 20.2288C20.0526 20.4046 19.8903 20.5915 19.7423 20.7877Z" fill="#0E1114"/>
<path fill-rule="evenodd" clip-rule="evenodd" d="M20.2284 20.2288C21.2286 19.2286 22.5852 18.6667 23.9997 18.6667C25.4142 18.6667 26.7707 19.2286 27.7709 20.2288C27.9467 20.4046 28.109 20.5915 28.2571 20.7877C28.0952 20.567 27.9997 20.2947 27.9997 20.0001C27.9997 19.2637 28.5966 18.6667 29.333 18.6667H29.9625C30.6627 19.4494 31.1968 20.3567 31.5421 21.3334H29.333C28.9017 21.3334 28.5183 21.1286 28.2746 20.811C28.9577 21.7268 29.333 22.8441 29.333 24.0001H18.6663C18.6663 22.8441 19.0416 21.7268 19.7248 20.811L19.7423 20.7877C19.8903 20.5915 20.0526 20.4046 20.2284 20.2288ZM31.5421 21.3334H35.9997V49.3334H11.9997L11.9997 21.3334H16.4572C16.1572 22.1819 15.9997 23.0829 15.9997 24.0001V25.3334C15.9997 26.0698 16.5966 26.6667 17.333 26.6667H30.6663C31.4027 26.6667 31.9997 26.0698 31.9997 25.3334V24.0001C31.9997 23.0829 31.8422 22.1819 31.5421 21.3334ZM29.9625 18.6667H35.9997C36.7069 18.6667 37.3852 18.9477 37.8853 19.4478C38.3854 19.9479 38.6663 20.6262 38.6663 21.3334V49.3334C38.6663 50.0406 38.3854 50.7189 37.8853 51.219C37.3852 51.7191 36.7069 52.0001 35.9997 52.0001H11.9997C11.2924 52.0001 10.6142 51.7191 10.1141 51.219C9.61396 50.7189 9.33301 50.0406 9.33301 49.3334V21.3334C9.33301 20.6261 9.61396 19.9479 10.1141 19.4478C10.6142 18.9477 11.2924 18.6667 11.9997 18.6667H18.0368C18.1355 18.5564 18.2376 18.4485 18.3428 18.3432C19.8431 16.8429 21.8779 16.0001 23.9997 16.0001C26.1214 16.0001 28.1562 16.8429 29.6565 18.3432C29.7618 18.4485 29.8638 18.5564 29.9625 18.6667Z" fill="#FDCE5D"/>
<path d="M29.333 18.6667C28.5966 18.6667 27.9997 19.2637 27.9997 20.0001C27.9997 20.2947 28.0952 20.567 28.2571 20.7877L28.2746 20.811C28.5183 21.1286 28.9017 21.3334 29.333 21.3334H31.5421C31.1968 20.3567 30.6627 19.4494 29.9625 18.6667H29.333Z" fill="#FDCE5D"/>
<path fill-rule="evenodd" clip-rule="evenodd" d="M11.9997 21.3334L11.9997 49.3334H35.9997V21.3334H31.5421C31.8422 22.1819 31.9997 23.0829 31.9997 24.0001V25.3334C31.9997 26.0698 31.4027 26.6667 30.6663 26.6667H17.333C16.5966 26.6667 15.9997 26.0698 15.9997 25.3334V24.0001C15.9997 23.0829 16.1572 22.1819 16.4572 21.3334H11.9997ZM17.333 38.6667C17.333 37.9303 17.93 37.3334 18.6663 37.3334H29.333C30.0694 37.3334 30.6663 37.9303 30.6663 38.6667C30.6663 39.4031 30.0694 40.0001 29.333 40.0001H18.6663C17.93 40.0001 17.333 39.4031 17.333 38.6667ZM17.333 33.3334C17.333 32.597 17.93 32.0001 18.6663 32.0001H29.333C30.0694 32.0001 30.6663 32.597 30.6663 33.3334C30.6663 34.0698 30.0694 34.6667 29.333 34.6667H18.6663C17.93 34.6667 17.333 34.0698 17.333 33.3334Z" fill="#0E1114"/>
<path d="M44 1C51.1797 1 57 6.8203 57 14C57 21.1797 51.1797 27 44 27C36.8203 27 31 21.1797 31 14C31 6.8203 36.8203 1 44 1Z" fill="#8B2CFF"/>
<path d="M44 1C51.1797 1 57 6.8203 57 14C57 21.1797 51.1797 27 44 27C36.8203 27 31 21.1797 31 14C31 6.8203 36.8203 1 44 1Z" stroke="#0E1114" stroke-width="2" stroke-linecap="round" stroke-linejoin="round"/>
<path d="M51.5154 11.8087C51.9993 11.317 51.993 10.5236 51.5053 10.0437L48.008 6.54717C47.7704 6.31266 47.4538 6.1829 47.1216 6.18759C46.7878 6.18994 46.4743 6.32282 46.2429 6.55733L36.8619 15.9391C36.6274 16.1744 36.4992 16.4871 36.5 16.8178V20.3119C36.5 21.0013 37.0613 21.5626 37.7507 21.5626H50.883C51.2285 21.5626 51.5084 21.2827 51.5084 20.9372C51.5084 20.5917 51.2285 20.3119 50.883 20.3119H43.0122L51.5154 11.8087ZM47.1349 7.44142L50.6212 10.9348L49.0078 12.5482L45.5175 9.05795L47.1349 7.44142ZM37.7476 16.8224L44.6319 9.94203L48.1221 13.4323L41.2441 20.3119H37.7507L37.7476 16.8224Z" fill="white"/>
</g>
<defs>
<filter id="filter0_d_4472_9206" x="0" y="0" width="62" height="62.0001" filterUnits="userSpaceOnUse" color-interpolation-filters="sRGB">
<feFlood flood-opacity="0" result="BackgroundImageFix"/>
<feColorMatrix in="SourceAlpha" type="matrix" values="0 0 0 0 0 0 0 0 0 0 0 0 0 0 0 0 0 0 127 0" result="hardAlpha"/>
<feOffset dx="4" dy="4"/>
<feComposite in2="hardAlpha" operator="out"/>
<feColorMatrix type="matrix" values="0 0 0 0 0.054902 0 0 0 0 0.0666667 0 0 0 0 0.0784314 0 0 0 1 0"/>
<feBlend mode="normal" in2="BackgroundImageFix" result="effect1_dropShadow_4472_9206"/>
<feBlend mode="normal" in="SourceGraphic" in2="effect1_dropShadow_4472_9206" result="shape"/>
</filter>
</defs>
</svg>
