<svg width="62" height="62" viewBox="0 0 62 62" fill="none" xmlns="http://www.w3.org/2000/svg">
<g filter="url(#filter0_d_4472_9209)">
<rect y="10.0001" width="48" height="48" fill="#FFC6C8" shape-rendering="crispEdges"/>
<rect x="1" y="11.0001" width="46" height="46" stroke="#0E1114" stroke-width="2" shape-rendering="crispEdges"/>
<path fill-rule="evenodd" clip-rule="evenodd" d="M4 15.8182C4 14.814 4.81403 14 5.81818 14H20.3636C21.3678 14 22.1818 14.814 22.1818 15.8182V30.3636C22.1818 31.3678 21.3678 32.1818 20.3636 32.1818H5.81818C4.81403 32.1818 4 31.3678 4 30.3636V15.8182ZM11.3094 21.1729V32.082H22.2185V21.1729H11.3094Z" fill="#FFC6C8"/>
<path fill-rule="evenodd" clip-rule="evenodd" d="M25.8182 15.8182C25.8182 14.814 26.6322 14 27.6364 14H42.1818C43.186 14 44 14.814 44 15.8182V30.3636C44 31.3678 43.186 32.1818 42.1818 32.1818H27.6364C26.6322 32.1818 25.8182 31.3678 25.8182 30.3636V15.8182ZM25.8234 21.1729V32.082H36.7325V21.1729H25.8234Z" fill="#FFC6C8"/>
<path fill-rule="evenodd" clip-rule="evenodd" d="M4 37.6364C4 36.6322 4.81403 35.8182 5.81818 35.8182H20.3636C21.3678 35.8182 22.1818 36.6322 22.1818 37.6364V52.1818C22.1818 53.186 21.3678 54 20.3636 54H5.81818C4.81403 54 4 53.186 4 52.1818V37.6364ZM11.3072 35.8537V46.7628H22.2163V35.8537H11.3072Z" fill="#FFC6C8"/>
<path fill-rule="evenodd" clip-rule="evenodd" d="M25.8182 37.6364C25.8182 36.6322 26.6322 35.8182 27.6364 35.8182H42.1818C43.186 35.8182 44 36.6322 44 37.6364V52.1818C44 53.186 43.186 54 42.1818 54H27.6364C26.6322 54 25.8182 53.186 25.8182 52.1818V37.6364ZM25.9125 35.8537V46.7628H36.8216V35.8537H25.9125Z" fill="#FFC6C8"/>
<path d="M11.3094 21.1729V32.082H22.2185V21.1729H11.3094Z" fill="#0E1114"/>
<path d="M25.8234 21.1729V32.082H36.7325V21.1729H25.8234Z" fill="#0E1114"/>
<path d="M25.9125 35.8537V46.7628H36.8216V35.8537H25.9125Z" fill="#0E1114"/>
<path d="M11.3072 35.8537V46.7628H22.2163V35.8537H11.3072Z" fill="#0E1114"/>
<path d="M44 1C51.1797 1 57 6.8203 57 14C57 21.1797 51.1797 27 44 27C36.8203 27 31 21.1797 31 14C31 6.8203 36.8203 1 44 1Z" fill="#8B2CFF"/>
<path d="M44 1C51.1797 1 57 6.8203 57 14C57 21.1797 51.1797 27 44 27C36.8203 27 31 21.1797 31 14C31 6.8203 36.8203 1 44 1Z" stroke="#0E1114" stroke-width="2" stroke-linecap="round" stroke-linejoin="round"/>
<path d="M51.5154 11.8087C51.9993 11.317 51.993 10.5236 51.5053 10.0437L48.008 6.54717C47.7704 6.31266 47.4538 6.1829 47.1216 6.18759C46.7878 6.18994 46.4743 6.32282 46.2429 6.55733L36.8619 15.9391C36.6274 16.1744 36.4992 16.4871 36.5 16.8178V20.3119C36.5 21.0013 37.0613 21.5626 37.7507 21.5626H50.883C51.2285 21.5626 51.5084 21.2827 51.5084 20.9372C51.5084 20.5917 51.2285 20.3119 50.883 20.3119H43.0122L51.5154 11.8087ZM47.1349 7.44142L50.6212 10.9348L49.0078 12.5482L45.5175 9.05795L47.1349 7.44142ZM37.7476 16.8224L44.6319 9.94203L48.1221 13.4323L41.2441 20.3119H37.7507L37.7476 16.8224Z" fill="white"/>
</g>
<defs>
<filter id="filter0_d_4472_9209" x="0" y="0" width="62" height="62.0001" filterUnits="userSpaceOnUse" color-interpolation-filters="sRGB">
<feFlood flood-opacity="0" result="BackgroundImageFix"/>
<feColorMatrix in="SourceAlpha" type="matrix" values="0 0 0 0 0 0 0 0 0 0 0 0 0 0 0 0 0 0 127 0" result="hardAlpha"/>
<feOffset dx="4" dy="4"/>
<feComposite in2="hardAlpha" operator="out"/>
<feColorMatrix type="matrix" values="0 0 0 0 0.054902 0 0 0 0 0.0666667 0 0 0 0 0.0784314 0 0 0 1 0"/>
<feBlend mode="normal" in2="BackgroundImageFix" result="effect1_dropShadow_4472_9209"/>
<feBlend mode="normal" in="SourceGraphic" in2="effect1_dropShadow_4472_9209" result="shape"/>
</filter>
</defs>
</svg>
