<svg width="52" height="52" viewBox="0 0 52 52" fill="none" xmlns="http://www.w3.org/2000/svg">
<g filter="url(#filter0_d_4439_347)">
<rect width="48" height="48" fill="#6DE5FA" shape-rendering="crispEdges"/>
<rect x="1" y="1" width="46" height="46" stroke="#0E1114" stroke-width="2" shape-rendering="crispEdges"/>
<path fill-rule="evenodd" clip-rule="evenodd" d="M6 9C6 7.34315 7.34315 6 9 6H39C40.6569 6 42 7.34315 42 9V39C42 40.6569 40.6569 42 39 42H9C7.34315 42 6 40.6569 6 39V9ZM39 9H9V29.3787V33.6213V39H39V30.6213V26.3787V9Z" fill="#6DE5FA"/>
<path fill-rule="evenodd" clip-rule="evenodd" d="M30.3413 20.3541C30.7083 20.2004 31.1022 20.1213 31.5 20.1213C31.8978 20.1213 32.2917 20.2004 32.6587 20.3541C33.0235 20.5068 33.3545 20.7302 33.6326 21.0113L39 26.3787L41.5607 28.9394C42.1464 29.5251 42.1464 30.4749 41.5607 31.0607C40.9749 31.6465 40.0251 31.6465 39.4393 31.0607L39 30.6213L31.5 23.1213L31.4919 23.1295L23.1328 31.4886C22.8546 31.7698 22.5235 31.9932 22.1587 32.146C21.7917 32.2996 21.3978 32.3788 21 32.3788C20.6022 32.3788 20.2083 32.2996 19.8413 32.146C19.4764 31.9932 19.1454 31.7697 18.8672 31.4885L15 27.6213L14.9919 27.6295L9 33.6213L8.56066 34.0607C7.97487 34.6465 7.02513 34.6465 6.43934 34.0607C5.85355 33.4749 5.85355 32.5251 6.43934 31.9394L9 29.3787L12.8672 25.5115C13.1454 25.2303 13.4765 25.0068 13.8413 24.8541C14.2083 24.7004 14.6022 24.6213 15 24.6213C15.3978 24.6213 15.7917 24.7004 16.1587 24.8541C16.5236 25.0068 16.8546 25.2303 17.1328 25.5115L21 29.3787L21.0081 29.3706L25.1877 25.191L29.3673 21.0114C29.6454 20.7303 29.9765 20.5068 30.3413 20.3541Z" fill="#6DE5FA"/>
<path d="M18.75 19.5C19.9926 19.5 21 18.4926 21 17.25C21 16.0074 19.9926 15 18.75 15C17.5074 15 16.5 16.0074 16.5 17.25C16.5 18.4926 17.5074 19.5 18.75 19.5Z" fill="#6DE5FA"/>
<path fill-rule="evenodd" clip-rule="evenodd" d="M39 9H9V29.3787L12.8672 25.5115C13.1454 25.2303 13.4765 25.0068 13.8413 24.8541C14.2083 24.7004 14.6022 24.6213 15 24.6213C15.3978 24.6213 15.7917 24.7004 16.1587 24.8541C16.5236 25.0068 16.8546 25.2303 17.1328 25.5115L21 29.3787L21.0081 29.3706L25.1877 25.191L29.3673 21.0114C29.6454 20.7303 29.9765 20.5068 30.3413 20.3541C30.7083 20.2004 31.1022 20.1213 31.5 20.1213C31.8978 20.1213 32.2917 20.2004 32.6587 20.3541C33.0235 20.5068 33.3545 20.7302 33.6326 21.0113L39 26.3787V9ZM21 17.25C21 18.4926 19.9926 19.5 18.75 19.5C17.5074 19.5 16.5 18.4926 16.5 17.25C16.5 16.0074 17.5074 15 18.75 15C19.9926 15 21 16.0074 21 17.25Z" fill="#0E1114"/>
<path d="M9 39H39V30.6213L31.5 23.1213L31.4919 23.1295L23.1328 31.4886C22.8546 31.7698 22.5235 31.9932 22.1587 32.146C21.7917 32.2996 21.3978 32.3788 21 32.3788C20.6022 32.3788 20.2083 32.2996 19.8413 32.146C19.4764 31.9932 19.1454 31.7697 18.8672 31.4885L15 27.6213L14.9919 27.6295L9 33.6213V39Z" fill="#0E1114"/>
</g>
<defs>
<filter id="filter0_d_4439_347" x="0" y="0" width="52" height="52" filterUnits="userSpaceOnUse" color-interpolation-filters="sRGB">
<feFlood flood-opacity="0" result="BackgroundImageFix"/>
<feColorMatrix in="SourceAlpha" type="matrix" values="0 0 0 0 0 0 0 0 0 0 0 0 0 0 0 0 0 0 127 0" result="hardAlpha"/>
<feOffset dx="4" dy="4"/>
<feComposite in2="hardAlpha" operator="out"/>
<feColorMatrix type="matrix" values="0 0 0 0 0.054902 0 0 0 0 0.0666667 0 0 0 0 0.0784314 0 0 0 1 0"/>
<feBlend mode="normal" in2="BackgroundImageFix" result="effect1_dropShadow_4439_347"/>
<feBlend mode="normal" in="SourceGraphic" in2="effect1_dropShadow_4439_347" result="shape"/>
</filter>
</defs>
</svg>
