<svg width="52" height="52" viewBox="0 0 52 52" fill="none" xmlns="http://www.w3.org/2000/svg">
<g filter="url(#filter0_d_4439_348)">
<rect width="48" height="48" fill="#FD9AC8" shape-rendering="crispEdges"/>
<rect x="1" y="1" width="46" height="46" stroke="#0E1114" stroke-width="2" shape-rendering="crispEdges"/>
<path fill-rule="evenodd" clip-rule="evenodd" d="M28.8818 13.1299C29.29 13.3822 29.5385 13.8278 29.5385 14.3077V26.7692C29.5385 27.5339 28.9185 28.1538 28.1538 28.1538C27.3891 28.1538 26.7692 27.5339 26.7692 26.7692V25.3846V16.548L21.2308 19.3173V25.3846V26.7692C21.2308 27.5332 20.612 28.1527 19.8483 28.1538L19.8462 28.1538L19.844 28.1538C19.0803 28.1527 18.4615 27.5332 18.4615 26.7692V18.4615C18.4615 17.9371 18.7579 17.4576 19.2269 17.2231L27.5346 13.0693C27.9638 12.8546 28.4736 12.8776 28.8818 13.1299Z" fill="#FD9AC8"/>
<path d="M26.7692 25.3846V16.548L21.2308 19.3173V25.3846H26.7692Z" fill="#0E1114"/>
<path d="M18.4615 38.1925C20.1781 38.8628 22.0461 39.2308 24 39.2308C25.9539 39.2308 27.8219 38.8628 29.5385 38.1925V28.1538H28.1538L19.8483 28.1538L19.8462 28.1538L19.844 28.1538H18.4615V38.1925Z" fill="#0E1114"/>
<path d="M24 8.76923C15.5883 8.76923 8.76923 15.5883 8.76923 24C8.76923 29.3468 11.5243 34.05 15.6923 36.7676V28.1538C15.6923 27.4194 15.9841 26.715 16.5034 26.1957C17.0227 25.6764 17.7271 25.3846 18.4615 25.3846V18.4615C18.4615 17.9371 18.7579 17.4576 19.2269 17.2231L27.5346 13.0693C27.9638 12.8546 28.4736 12.8776 28.8818 13.1299C29.29 13.3822 29.5385 13.8278 29.5385 14.3077V25.3846C30.2729 25.3846 30.9773 25.6764 31.4966 26.1957C32.0159 26.715 32.3077 27.4194 32.3077 28.1538V36.7676C36.4757 34.05 39.2308 29.3468 39.2308 24C39.2308 15.5883 32.4117 8.76923 24 8.76923Z" fill="#0E1114"/>
<path fill-rule="evenodd" clip-rule="evenodd" d="M8.76923 24C8.76923 15.5883 15.5883 8.76923 24 8.76923C32.4117 8.76923 39.2308 15.5883 39.2308 24C39.2308 29.3468 36.4757 34.05 32.3077 36.7676V28.1538C32.3077 27.4194 32.0159 26.715 31.4966 26.1957C30.9773 25.6764 30.2729 25.3846 29.5385 25.3846H26.7692H21.2308H18.4615C17.7271 25.3846 17.0227 25.6764 16.5034 26.1957C15.9841 26.715 15.6923 27.4194 15.6923 28.1538V36.7676C11.5243 34.05 8.76923 29.3468 8.76923 24ZM18.4615 38.1925C17.4855 37.8113 16.5584 37.3323 15.6923 36.7676V39.1096C15.6923 39.6518 16.0039 40.1211 16.4577 40.3484C10.2839 37.4954 6 31.248 6 24C6 14.0589 14.0589 6 24 6C33.9411 6 42 14.0589 42 24C42 31.248 37.7161 37.4954 31.5423 40.3484C31.5144 40.3624 31.486 40.3754 31.4571 40.3875C29.185 41.4231 26.6599 42 24 42C21.3401 42 18.815 41.4231 16.543 40.3875C16.7073 40.4563 16.8877 40.4942 17.0769 40.4942C17.8416 40.4942 18.4615 39.8743 18.4615 39.1096V38.1925ZM18.4615 38.1925V28.1538H19.844H19.8483L29.5385 28.1538V38.1925C27.8219 38.8628 25.9539 39.2308 24 39.2308C22.0461 39.2308 20.1781 38.8628 18.4615 38.1925ZM16.4577 40.3484L16.543 40.3875C16.514 40.3754 16.4856 40.3624 16.4577 40.3484Z" fill="#FD9AC8"/>
<path d="M17.0769 40.4942C17.8416 40.4942 18.4615 39.8743 18.4615 39.1096V38.1925C17.4855 37.8113 16.5584 37.3323 15.6923 36.7676V39.1096C15.6923 39.6518 16.0039 40.1211 16.4577 40.3484L16.543 40.3875C16.7073 40.4563 16.8877 40.4942 17.0769 40.4942Z" fill="#FD9AC8"/>
</g>
<defs>
<filter id="filter0_d_4439_348" x="0" y="0" width="52" height="52" filterUnits="userSpaceOnUse" color-interpolation-filters="sRGB">
<feFlood flood-opacity="0" result="BackgroundImageFix"/>
<feColorMatrix in="SourceAlpha" type="matrix" values="0 0 0 0 0 0 0 0 0 0 0 0 0 0 0 0 0 0 127 0" result="hardAlpha"/>
<feOffset dx="4" dy="4"/>
<feComposite in2="hardAlpha" operator="out"/>
<feColorMatrix type="matrix" values="0 0 0 0 0.054902 0 0 0 0 0.0666667 0 0 0 0 0.0784314 0 0 0 1 0"/>
<feBlend mode="normal" in2="BackgroundImageFix" result="effect1_dropShadow_4439_348"/>
<feBlend mode="normal" in="SourceGraphic" in2="effect1_dropShadow_4439_348" result="shape"/>
</filter>
</defs>
</svg>
