<svg width="52" height="52" viewBox="0 0 52 52" fill="none" xmlns="http://www.w3.org/2000/svg">
<g filter="url(#filter0_d_4439_342)">
<rect width="48" height="48" fill="#FDCE5D" shape-rendering="crispEdges"/>
<rect x="1" y="1" width="46" height="46" stroke="#0E1114" stroke-width="2" shape-rendering="crispEdges"/>
<path fill-rule="evenodd" clip-rule="evenodd" d="M17.333 28.6667C17.333 27.9303 17.93 27.3333 18.6663 27.3333H29.333C30.0694 27.3333 30.6663 27.9303 30.6663 28.6667C30.6663 29.403 30.0694 30 29.333 30H18.6663C17.93 30 17.333 29.403 17.333 28.6667Z" fill="#FDCE5D"/>
<path fill-rule="evenodd" clip-rule="evenodd" d="M17.333 23.3333C17.333 22.597 17.93 22 18.6663 22H29.333C30.0694 22 30.6663 22.597 30.6663 23.3333C30.6663 24.0697 30.0694 24.6667 29.333 24.6667H18.6663C17.93 24.6667 17.333 24.0697 17.333 23.3333Z" fill="#FDCE5D"/>
<path d="M19.7423 10.7876C19.7365 10.7955 19.7307 10.8033 19.7248 10.811C19.0416 11.7267 18.6663 12.844 18.6663 14H29.333C29.333 12.844 28.9577 11.7267 28.2746 10.811C28.2687 10.8033 28.2628 10.7955 28.2571 10.7876C28.109 10.5914 27.9467 10.4046 27.7709 10.2288C26.7707 9.22857 25.4142 8.66667 23.9997 8.66667C22.5852 8.66667 21.2286 9.22857 20.2284 10.2288C20.0526 10.4046 19.8903 10.5914 19.7423 10.7876Z" fill="#0E1114"/>
<path fill-rule="evenodd" clip-rule="evenodd" d="M20.2284 10.2288C21.2286 9.22857 22.5852 8.66667 23.9997 8.66667C25.4142 8.66667 26.7707 9.22857 27.7709 10.2288C27.9467 10.4046 28.109 10.5914 28.2571 10.7876C28.0952 10.567 27.9997 10.2946 27.9997 10C27.9997 9.26362 28.5966 8.66667 29.333 8.66667H29.9625C30.6627 9.44938 31.1968 10.3566 31.5421 11.3333H29.333C28.9017 11.3333 28.5183 11.1286 28.2746 10.811C28.9577 11.7267 29.333 12.844 29.333 14H18.6663C18.6663 12.844 19.0416 11.7267 19.7248 10.811L19.7423 10.7876C19.8903 10.5914 20.0526 10.4046 20.2284 10.2288ZM31.5421 11.3333H35.9997V39.3333H11.9997L11.9997 11.3333H16.4572C16.1572 12.1819 15.9997 13.0828 15.9997 14V15.3333C15.9997 16.0697 16.5966 16.6667 17.333 16.6667H30.6663C31.4027 16.6667 31.9997 16.0697 31.9997 15.3333V14C31.9997 13.0828 31.8422 12.1819 31.5421 11.3333ZM29.9625 8.66667H35.9997C36.7069 8.66667 37.3852 8.94762 37.8853 9.44772C38.3854 9.94781 38.6663 10.6261 38.6663 11.3333V39.3333C38.6663 40.0406 38.3854 40.7189 37.8853 41.219C37.3852 41.7191 36.7069 42 35.9997 42H11.9997C11.2924 42 10.6142 41.7191 10.1141 41.219C9.61396 40.7189 9.33301 40.0406 9.33301 39.3333V11.3333C9.33301 10.6261 9.61396 9.94781 10.1141 9.44772C10.6142 8.94762 11.2924 8.66667 11.9997 8.66667H18.0368C18.1355 8.5563 18.2376 8.44841 18.3428 8.34315C19.8431 6.84285 21.8779 6 23.9997 6C26.1214 6 28.1562 6.84285 29.6565 8.34315C29.7618 8.44841 29.8638 8.5563 29.9625 8.66667Z" fill="#FDCE5D"/>
<path d="M29.333 8.66667C28.5966 8.66667 27.9997 9.26362 27.9997 10C27.9997 10.2946 28.0952 10.567 28.2571 10.7876L28.2746 10.811C28.5183 11.1286 28.9017 11.3333 29.333 11.3333H31.5421C31.1968 10.3566 30.6627 9.44938 29.9625 8.66667H29.333Z" fill="#FDCE5D"/>
<path fill-rule="evenodd" clip-rule="evenodd" d="M11.9997 11.3333L11.9997 39.3333H35.9997V11.3333H31.5421C31.8422 12.1819 31.9997 13.0828 31.9997 14V15.3333C31.9997 16.0697 31.4027 16.6667 30.6663 16.6667H17.333C16.5966 16.6667 15.9997 16.0697 15.9997 15.3333V14C15.9997 13.0828 16.1572 12.1819 16.4572 11.3333H11.9997ZM17.333 28.6667C17.333 27.9303 17.93 27.3333 18.6663 27.3333H29.333C30.0694 27.3333 30.6663 27.9303 30.6663 28.6667C30.6663 29.403 30.0694 30 29.333 30H18.6663C17.93 30 17.333 29.403 17.333 28.6667ZM17.333 23.3333C17.333 22.597 17.93 22 18.6663 22H29.333C30.0694 22 30.6663 22.597 30.6663 23.3333C30.6663 24.0697 30.0694 24.6667 29.333 24.6667H18.6663C17.93 24.6667 17.333 24.0697 17.333 23.3333Z" fill="#0E1114"/>
</g>
<defs>
<filter id="filter0_d_4439_342" x="0" y="0" width="52" height="52" filterUnits="userSpaceOnUse" color-interpolation-filters="sRGB">
<feFlood flood-opacity="0" result="BackgroundImageFix"/>
<feColorMatrix in="SourceAlpha" type="matrix" values="0 0 0 0 0 0 0 0 0 0 0 0 0 0 0 0 0 0 127 0" result="hardAlpha"/>
<feOffset dx="4" dy="4"/>
<feComposite in2="hardAlpha" operator="out"/>
<feColorMatrix type="matrix" values="0 0 0 0 0.054902 0 0 0 0 0.0666667 0 0 0 0 0.0784314 0 0 0 1 0"/>
<feBlend mode="normal" in2="BackgroundImageFix" result="effect1_dropShadow_4439_342"/>
<feBlend mode="normal" in="SourceGraphic" in2="effect1_dropShadow_4439_342" result="shape"/>
</filter>
</defs>
</svg>
