<svg width="62" height="62" viewBox="0 0 62 62" fill="none" xmlns="http://www.w3.org/2000/svg">
<g filter="url(#filter0_d_4472_9111)">
<rect y="10.0001" width="48" height="48" fill="#C6ABFF" shape-rendering="crispEdges"/>
<rect x="1" y="11.0001" width="46" height="46" stroke="#0E1114" stroke-width="2" shape-rendering="crispEdges"/>
<path fill-rule="evenodd" clip-rule="evenodd" d="M6 21.5386C6 20.0092 7.23983 18.7693 8.76923 18.7693H39.2308C40.7602 18.7693 42 20.0092 42 21.5386V46.4617C42 47.9911 40.7602 49.2309 39.2308 49.2309H8.76923C7.23983 49.2309 6 47.9911 6 46.4617V21.5386ZM39.2308 21.5386H33.6923H30.9231H25.3846H22.6154H17.0769H14.3077H8.76923V24.3078V27.077V40.9232V43.6924V46.4617H14.3077H17.0769H22.6154H25.3846H30.9231H33.6923H39.2308V43.6924V40.9232V27.077V24.3078V21.5386Z" fill="#C6ABFF"/>
<path fill-rule="evenodd" clip-rule="evenodd" d="M24 18.7693C24.7647 18.7693 25.3846 19.3893 25.3846 20.154V21.5386V24.3078V27.077V40.9232V43.6924V46.4617V47.8463C25.3846 48.611 24.7647 49.2309 24 49.2309C23.2353 49.2309 22.6154 48.611 22.6154 47.8463V46.4617V43.6924V40.9232V27.077V24.3078V21.5386V20.154C22.6154 19.3893 23.2353 18.7693 24 18.7693Z" fill="#C6ABFF"/>
<path fill-rule="evenodd" clip-rule="evenodd" d="M6 25.6924C6 24.9277 6.61991 24.3078 7.38462 24.3078H8.76923H14.3077H17.0769H22.6154H25.3846H30.9231H33.6923H39.2308H40.6154C41.3801 24.3078 42 24.9277 42 25.6924C42 26.4571 41.3801 27.077 40.6154 27.077H39.2308H25.3846H22.6154H8.76923H7.38462C6.61991 27.077 6 26.4571 6 25.6924Z" fill="#C6ABFF"/>
<path fill-rule="evenodd" clip-rule="evenodd" d="M6 42.3078C6 41.5431 6.61991 40.9232 7.38462 40.9232H8.76923H22.6154H25.3846H39.2308H40.6154C41.3801 40.9232 42 41.5431 42 42.3078C42 43.0725 41.3801 43.6924 40.6154 43.6924H39.2308H33.6923H30.9231H25.3846H22.6154H17.0769H14.3077H8.76923H7.38462C6.61991 43.6924 6 43.0725 6 42.3078Z" fill="#C6ABFF"/>
<path fill-rule="evenodd" clip-rule="evenodd" d="M15.6923 18.7693C16.457 18.7693 17.0769 19.3893 17.0769 20.154V21.5386V24.3078V25.6924C17.0769 26.4571 16.457 27.077 15.6923 27.077C14.9276 27.077 14.3077 26.4571 14.3077 25.6924V24.3078V21.5386V20.154C14.3077 19.3893 14.9276 18.7693 15.6923 18.7693Z" fill="#C6ABFF"/>
<path fill-rule="evenodd" clip-rule="evenodd" d="M32.3077 18.7693C33.0724 18.7693 33.6923 19.3893 33.6923 20.154V21.5386V24.3078V25.6924C33.6923 26.4571 33.0724 27.077 32.3077 27.077C31.543 27.077 30.9231 26.4571 30.9231 25.6924V24.3078V21.5386V20.154C30.9231 19.3893 31.543 18.7693 32.3077 18.7693Z" fill="#C6ABFF"/>
<path fill-rule="evenodd" clip-rule="evenodd" d="M15.6923 40.9232C16.457 40.9232 17.0769 41.5431 17.0769 42.3078V43.6924V46.4617V47.8463C17.0769 48.611 16.457 49.2309 15.6923 49.2309C14.9276 49.2309 14.3077 48.611 14.3077 47.8463V46.4617V43.6924V42.3078C14.3077 41.5431 14.9276 40.9232 15.6923 40.9232Z" fill="#C6ABFF"/>
<path fill-rule="evenodd" clip-rule="evenodd" d="M32.3077 40.9232C33.0724 40.9232 33.6923 41.5431 33.6923 42.3078V43.6924V46.4617V47.8463C33.6923 48.611 33.0724 49.2309 32.3077 49.2309C31.543 49.2309 30.9231 48.611 30.9231 47.8463V46.4617V43.6924V42.3078C30.9231 41.5431 31.543 40.9232 32.3077 40.9232Z" fill="#C6ABFF"/>
<path d="M8.76923 27.077V40.9232H15.6923H22.6154V27.077H15.6923H8.76923Z" fill="#0E1114"/>
<path d="M39.2308 40.9232V27.077H32.3077H25.3846V40.9232H32.3077H39.2308Z" fill="#0E1114"/>
<path d="M39.2308 21.5386H33.6923V24.3078H39.2308V21.5386Z" fill="#0E1114"/>
<path d="M30.9231 24.3078V21.5386H25.3846V24.3078H30.9231Z" fill="#0E1114"/>
<path d="M17.0769 21.5386V24.3078H22.6154V21.5386H17.0769Z" fill="#0E1114"/>
<path d="M14.3077 24.3078V21.5386H8.76923V24.3078H14.3077Z" fill="#0E1114"/>
<path d="M8.76923 46.4617H14.3077V43.6924H8.76923V46.4617Z" fill="#0E1114"/>
<path d="M17.0769 43.6924V46.4617H22.6154V43.6924H17.0769Z" fill="#0E1114"/>
<path d="M30.9231 46.4617V43.6924H25.3846V46.4617H30.9231Z" fill="#0E1114"/>
<path d="M33.6923 43.6924V46.4617H39.2308V43.6924H33.6923Z" fill="#0E1114"/>
<path d="M44 1C51.1797 1 57 6.8203 57 14C57 21.1797 51.1797 27 44 27C36.8203 27 31 21.1797 31 14C31 6.8203 36.8203 1 44 1Z" fill="#1D9745"/>
<path d="M44 1C51.1797 1 57 6.8203 57 14C57 21.1797 51.1797 27 44 27C36.8203 27 31 21.1797 31 14C31 6.8203 36.8203 1 44 1Z" stroke="#0E1114" stroke-width="2" stroke-linecap="round" stroke-linejoin="round"/>
<path fill-rule="evenodd" clip-rule="evenodd" d="M47.8897 11.6932C48.128 11.9429 48.1187 12.3386 47.8689 12.5768L43.283 16.9518C43.0414 17.1823 42.6612 17.1822 42.4198 16.9515L40.1307 14.764C39.8811 14.5255 39.8722 14.1299 40.1106 13.8803C40.3491 13.6307 40.7448 13.6218 40.9943 13.8603L42.8519 15.6355L47.0061 11.6724C47.2558 11.4341 47.6515 11.4434 47.8897 11.6932Z" fill="white"/>
<path fill-rule="evenodd" clip-rule="evenodd" d="M44 7.1246C40.203 7.1246 37.125 10.2026 37.125 13.9996C37.125 17.7966 40.203 20.8746 44 20.8746C47.797 20.8746 50.875 17.7966 50.875 13.9996C50.875 10.2026 47.797 7.1246 44 7.1246ZM35.875 13.9996C35.875 9.51229 39.5127 5.8746 44 5.8746C48.4873 5.8746 52.125 9.51229 52.125 13.9996C52.125 18.4869 48.4873 22.1246 44 22.1246C39.5127 22.1246 35.875 18.4869 35.875 13.9996Z" fill="white"/>
</g>
<defs>
<filter id="filter0_d_4472_9111" x="0" y="0" width="62" height="62.0001" filterUnits="userSpaceOnUse" color-interpolation-filters="sRGB">
<feFlood flood-opacity="0" result="BackgroundImageFix"/>
<feColorMatrix in="SourceAlpha" type="matrix" values="0 0 0 0 0 0 0 0 0 0 0 0 0 0 0 0 0 0 127 0" result="hardAlpha"/>
<feOffset dx="4" dy="4"/>
<feComposite in2="hardAlpha" operator="out"/>
<feColorMatrix type="matrix" values="0 0 0 0 0.054902 0 0 0 0 0.0666667 0 0 0 0 0.0784314 0 0 0 1 0"/>
<feBlend mode="normal" in2="BackgroundImageFix" result="effect1_dropShadow_4472_9111"/>
<feBlend mode="normal" in="SourceGraphic" in2="effect1_dropShadow_4472_9111" result="shape"/>
</filter>
</defs>
</svg>
