<svg width="62" height="62" viewBox="0 0 62 62" fill="none" xmlns="http://www.w3.org/2000/svg">
<g filter="url(#filter0_d_4472_9113)">
<rect y="10.0001" width="48" height="48" fill="#FFC6C8" shape-rendering="crispEdges"/>
<rect x="1" y="11.0001" width="46" height="46" stroke="#0E1114" stroke-width="2" shape-rendering="crispEdges"/>
<path fill-rule="evenodd" clip-rule="evenodd" d="M4 15.8182C4 14.814 4.81403 14 5.81818 14H20.3636C21.3678 14 22.1818 14.814 22.1818 15.8182V30.3636C22.1818 31.3678 21.3678 32.1818 20.3636 32.1818H5.81818C4.81403 32.1818 4 31.3678 4 30.3636V15.8182ZM11.3094 21.1729V32.082H22.2185V21.1729H11.3094Z" fill="#FFC6C8"/>
<path fill-rule="evenodd" clip-rule="evenodd" d="M25.8182 15.8182C25.8182 14.814 26.6322 14 27.6364 14H42.1818C43.186 14 44 14.814 44 15.8182V30.3636C44 31.3678 43.186 32.1818 42.1818 32.1818H27.6364C26.6322 32.1818 25.8182 31.3678 25.8182 30.3636V15.8182ZM25.8234 21.1729V32.082H36.7325V21.1729H25.8234Z" fill="#FFC6C8"/>
<path fill-rule="evenodd" clip-rule="evenodd" d="M4 37.6364C4 36.6322 4.81403 35.8182 5.81818 35.8182H20.3636C21.3678 35.8182 22.1818 36.6322 22.1818 37.6364V52.1818C22.1818 53.186 21.3678 54 20.3636 54H5.81818C4.81403 54 4 53.186 4 52.1818V37.6364ZM11.3072 35.8537V46.7628H22.2163V35.8537H11.3072Z" fill="#FFC6C8"/>
<path fill-rule="evenodd" clip-rule="evenodd" d="M25.8182 37.6364C25.8182 36.6322 26.6322 35.8182 27.6364 35.8182H42.1818C43.186 35.8182 44 36.6322 44 37.6364V52.1818C44 53.186 43.186 54 42.1818 54H27.6364C26.6322 54 25.8182 53.186 25.8182 52.1818V37.6364ZM25.9125 35.8537V46.7628H36.8216V35.8537H25.9125Z" fill="#FFC6C8"/>
<path d="M11.3094 21.1729V32.082H22.2185V21.1729H11.3094Z" fill="#0E1114"/>
<path d="M25.8234 21.1729V32.082H36.7325V21.1729H25.8234Z" fill="#0E1114"/>
<path d="M25.9125 35.8537V46.7628H36.8216V35.8537H25.9125Z" fill="#0E1114"/>
<path d="M11.3072 35.8537V46.7628H22.2163V35.8537H11.3072Z" fill="#0E1114"/>
<path d="M44 1C51.1797 1 57 6.8203 57 14C57 21.1797 51.1797 27 44 27C36.8203 27 31 21.1797 31 14C31 6.8203 36.8203 1 44 1Z" fill="#1D9745"/>
<path d="M44 1C51.1797 1 57 6.8203 57 14C57 21.1797 51.1797 27 44 27C36.8203 27 31 21.1797 31 14C31 6.8203 36.8203 1 44 1Z" stroke="#0E1114" stroke-width="2" stroke-linecap="round" stroke-linejoin="round"/>
<path fill-rule="evenodd" clip-rule="evenodd" d="M47.8897 11.6932C48.128 11.9429 48.1187 12.3386 47.8689 12.5768L43.283 16.9518C43.0414 17.1823 42.6612 17.1822 42.4198 16.9515L40.1307 14.764C39.8811 14.5255 39.8722 14.1299 40.1106 13.8803C40.3491 13.6307 40.7448 13.6218 40.9943 13.8603L42.8519 15.6355L47.0061 11.6724C47.2558 11.4341 47.6515 11.4434 47.8897 11.6932Z" fill="white"/>
<path fill-rule="evenodd" clip-rule="evenodd" d="M44 7.1246C40.203 7.1246 37.125 10.2026 37.125 13.9996C37.125 17.7966 40.203 20.8746 44 20.8746C47.797 20.8746 50.875 17.7966 50.875 13.9996C50.875 10.2026 47.797 7.1246 44 7.1246ZM35.875 13.9996C35.875 9.51229 39.5127 5.8746 44 5.8746C48.4873 5.8746 52.125 9.51229 52.125 13.9996C52.125 18.4869 48.4873 22.1246 44 22.1246C39.5127 22.1246 35.875 18.4869 35.875 13.9996Z" fill="white"/>
</g>
<defs>
<filter id="filter0_d_4472_9113" x="0" y="0" width="62" height="62.0001" filterUnits="userSpaceOnUse" color-interpolation-filters="sRGB">
<feFlood flood-opacity="0" result="BackgroundImageFix"/>
<feColorMatrix in="SourceAlpha" type="matrix" values="0 0 0 0 0 0 0 0 0 0 0 0 0 0 0 0 0 0 127 0" result="hardAlpha"/>
<feOffset dx="4" dy="4"/>
<feComposite in2="hardAlpha" operator="out"/>
<feColorMatrix type="matrix" values="0 0 0 0 0.054902 0 0 0 0 0.0666667 0 0 0 0 0.0784314 0 0 0 1 0"/>
<feBlend mode="normal" in2="BackgroundImageFix" result="effect1_dropShadow_4472_9113"/>
<feBlend mode="normal" in="SourceGraphic" in2="effect1_dropShadow_4472_9113" result="shape"/>
</filter>
</defs>
</svg>
