<svg width="62" height="62" viewBox="0 0 62 62" fill="none" xmlns="http://www.w3.org/2000/svg">
<g filter="url(#filter0_d_4472_9205)">
<rect y="10" width="48" height="48" fill="#A6E74D" shape-rendering="crispEdges"/>
<rect x="1" y="11" width="46" height="46" stroke="#0E1114" stroke-width="2" shape-rendering="crispEdges"/>
<path fill-rule="evenodd" clip-rule="evenodd" d="M21.5722 34.3966C20.4504 34.3966 19.541 35.306 19.541 36.4278C19.541 36.9422 19.7323 37.412 20.0476 37.7699C20.1045 37.8345 20.1654 37.8954 20.23 37.9523C20.5879 38.2676 21.0577 38.4589 21.5722 38.4589C22.694 38.4589 23.6033 37.5495 23.6033 36.4278C23.6033 35.306 22.694 34.3966 21.5722 34.3966ZM16.8328 36.4278C16.8328 33.8103 18.9547 31.6884 21.5722 31.6884C24.1897 31.6884 26.3116 33.8103 26.3116 36.4278C26.3116 39.0452 24.1897 41.1671 21.5722 41.1671C20.756 41.1671 19.988 40.9608 19.3174 40.5974C18.5082 40.1589 17.841 39.4917 17.4025 38.6824C17.0391 38.0119 16.8328 37.2439 16.8328 36.4278Z" fill="#A6E74D"/>
<path fill-rule="evenodd" clip-rule="evenodd" d="M20.1431 37.8568C20.1738 37.8876 20.2028 37.9194 20.23 37.9523C20.6701 38.4842 20.6411 39.2737 20.1431 39.7718L19.3174 40.5974L11.2975 48.6174L8.3116 51.6033C7.78279 52.1321 6.92542 52.1321 6.39661 51.6033C5.8678 51.0745 5.8678 50.2171 6.39661 49.6883L9.38329 46.7016L17.4025 38.6824L18.2281 37.8568C18.7261 37.3587 19.5157 37.3298 20.0476 37.7699C20.0805 37.7971 20.1123 37.826 20.1431 37.8568Z" fill="#A6E74D"/>
<path fill-rule="evenodd" clip-rule="evenodd" d="M21.7736 20.9419C22.2708 20.7553 22.8312 20.8767 23.2068 21.2522L24.1642 22.2097L35.7903 33.8357L36.7478 34.7932C37.1233 35.1688 37.2447 35.7292 37.0581 36.2264L33.2689 46.3252C33.1066 46.7691 32.8303 47.1624 32.4676 47.4656C32.1026 47.7708 31.6631 47.9738 31.1941 48.0538L31.1884 48.0547L7.57627 51.9816C7.14502 52.0534 6.70572 51.9124 6.39661 51.6033C6.0875 51.2941 5.94662 50.8548 6.01839 50.4236L9.94639 26.8217C10.0265 26.3549 10.2268 25.917 10.5277 25.5512C10.8286 25.1854 11.2196 24.9044 11.6622 24.7358L11.6686 24.7334L21.7736 20.9419ZM12.6257 27.2669L12.6192 27.2717L12.6158 27.2789L9.38329 46.7016L9.00088 48.9993L11.2975 48.6174L30.7288 45.3858L30.7309 45.38L34.2161 36.0916L21.9084 23.7839L12.6257 27.2669Z" fill="#A6E74D"/>
<path fill-rule="evenodd" clip-rule="evenodd" d="M26.6197 16.2101C26.951 16.0714 27.3065 16 27.6657 16C28.0248 16 28.3803 16.0714 28.7116 16.2101C29.041 16.3481 29.3399 16.5498 29.591 16.8036L41.1963 28.4089C41.4502 28.6601 41.6519 28.9589 41.7898 29.2884C41.9285 29.6196 42 29.9752 42 30.3343C42 30.6934 41.9285 31.049 41.7898 31.3803C41.6519 31.7097 41.4502 32.0086 41.1963 32.2597L36.7478 36.7082C36.219 37.237 35.3616 37.237 34.8328 36.7082C34.304 36.1794 34.304 35.322 34.8328 34.7932L35.7903 33.8357L39.2917 30.3343L39.2844 30.327L27.6656 18.7082L27.6584 18.7156L24.1642 22.2097L23.2067 23.1672C22.6779 23.696 21.8206 23.696 21.2917 23.1672C20.7629 22.6384 20.7629 21.781 21.2917 21.2522L25.7403 16.8036C25.9914 16.5498 26.2903 16.3481 26.6197 16.2101Z" fill="#A6E74D"/>
<path d="M16.8328 36.4278C16.8328 33.8103 18.9547 31.6884 21.5722 31.6884C24.1897 31.6884 26.3116 33.8103 26.3116 36.4278C26.3116 39.0452 24.1897 41.1671 21.5722 41.1671C20.756 41.1671 19.988 40.9608 19.3174 40.5974L11.2975 48.6174L30.7288 45.3858L30.7309 45.38L34.2161 36.0916L21.9084 23.7839L12.6257 27.2669L12.6192 27.2717L12.6158 27.2789L9.38329 46.7016L17.4025 38.6824C17.0391 38.0119 16.8328 37.2439 16.8328 36.4278Z" fill="#0E1114"/>
<path d="M21.5722 34.3966C20.4504 34.3966 19.541 35.306 19.541 36.4278C19.541 36.9422 19.7323 37.412 20.0476 37.7699C20.0805 37.7971 20.1123 37.826 20.1431 37.8568C20.1738 37.8876 20.2028 37.9194 20.23 37.9523C20.5879 38.2676 21.0577 38.4589 21.5722 38.4589C22.694 38.4589 23.6033 37.5495 23.6033 36.4278C23.6033 35.306 22.694 34.3966 21.5722 34.3966Z" fill="#0E1114"/>
<path d="M24.1642 22.2097L35.7903 33.8357L39.2917 30.3343L39.2844 30.327L27.6656 18.7082L27.6584 18.7156L24.1642 22.2097Z" fill="#0E1114"/>
<path d="M44 1C51.1797 1 57 6.8203 57 14C57 21.1797 51.1797 27 44 27C36.8203 27 31 21.1797 31 14C31 6.8203 36.8203 1 44 1Z" fill="#8B2CFF"/>
<path d="M44 1C51.1797 1 57 6.8203 57 14C57 21.1797 51.1797 27 44 27C36.8203 27 31 21.1797 31 14C31 6.8203 36.8203 1 44 1Z" stroke="#0E1114" stroke-width="2" stroke-linecap="round" stroke-linejoin="round"/>
<path d="M51.5154 11.8087C51.9993 11.317 51.993 10.5236 51.5053 10.0437L48.008 6.54717C47.7704 6.31266 47.4538 6.1829 47.1216 6.18759C46.7878 6.18994 46.4743 6.32282 46.2429 6.55733L36.8619 15.9391C36.6274 16.1744 36.4992 16.4871 36.5 16.8178V20.3119C36.5 21.0013 37.0613 21.5626 37.7507 21.5626H50.883C51.2285 21.5626 51.5084 21.2827 51.5084 20.9372C51.5084 20.5917 51.2285 20.3119 50.883 20.3119H43.0122L51.5154 11.8087ZM47.1349 7.44142L50.6212 10.9348L49.0078 12.5482L45.5175 9.05795L47.1349 7.44142ZM37.7476 16.8224L44.6319 9.94203L48.1221 13.4323L41.2441 20.3119H37.7507L37.7476 16.8224Z" fill="white"/>
</g>
<defs>
<filter id="filter0_d_4472_9205" x="0" y="0" width="62" height="62" filterUnits="userSpaceOnUse" color-interpolation-filters="sRGB">
<feFlood flood-opacity="0" result="BackgroundImageFix"/>
<feColorMatrix in="SourceAlpha" type="matrix" values="0 0 0 0 0 0 0 0 0 0 0 0 0 0 0 0 0 0 127 0" result="hardAlpha"/>
<feOffset dx="4" dy="4"/>
<feComposite in2="hardAlpha" operator="out"/>
<feColorMatrix type="matrix" values="0 0 0 0 0.054902 0 0 0 0 0.0666667 0 0 0 0 0.0784314 0 0 0 1 0"/>
<feBlend mode="normal" in2="BackgroundImageFix" result="effect1_dropShadow_4472_9205"/>
<feBlend mode="normal" in="SourceGraphic" in2="effect1_dropShadow_4472_9205" result="shape"/>
</filter>
</defs>
</svg>
