<svg width="62" height="62" viewBox="0 0 62 62" fill="none" xmlns="http://www.w3.org/2000/svg">
<g filter="url(#filter0_d_4472_9152)">
<rect y="10.0001" width="48" height="48" fill="#91BAFF" shape-rendering="crispEdges"/>
<rect x="1" y="11.0001" width="46" height="46" stroke="#0E1114" stroke-width="2" shape-rendering="crispEdges"/>
<path fill-rule="evenodd" clip-rule="evenodd" d="M8 30.6667C8 29.9303 8.59695 29.3334 9.33333 29.3334H10.6667H37.3333H38.6667C39.403 29.3334 40 29.9303 40 30.6667C40 31.4031 39.403 32.0001 38.6667 32.0001H37.3333H10.6667H9.33333C8.59695 32.0001 8 31.4031 8 30.6667Z" fill="#91BAFF"/>
<path fill-rule="evenodd" clip-rule="evenodd" d="M14.6667 18.6667C13.6058 18.6667 12.5884 19.0882 11.8382 19.8383C11.0881 20.5884 10.6667 21.6059 10.6667 22.6667V29.3334V32.0001V34.6667C10.6667 35.0204 10.8071 35.3595 11.0572 35.6095C11.3072 35.8596 11.6464 36.0001 12 36.0001H19.8V37.3334L19.804 36.0001C20.1845 36.0012 20.5603 36.0838 20.9063 36.2422C21.2522 36.4006 21.5603 36.6312 21.8097 36.9186C22.0592 37.2059 22.2442 37.5433 22.3525 37.908C22.4607 38.2728 22.4897 38.6565 22.4373 39.0334L22.4366 39.0386L21.3347 46.752C21.3563 47.4283 21.6344 48.0724 22.1144 48.5523C22.6145 49.0524 23.2928 49.3334 24 49.3334C24.7072 49.3334 25.3855 49.0524 25.8856 48.5523C26.3656 48.0724 26.6437 47.4283 26.6653 46.752L25.5634 39.0386L25.5627 39.0334C25.5103 38.6565 25.5393 38.2728 25.6475 37.908C25.7558 37.5433 25.9409 37.2059 26.1903 36.9186C26.4397 36.6312 26.7478 36.4006 27.0937 36.2422C27.4397 36.0838 27.8155 36.0012 28.196 36.0001L28.2 36.0001L36 36.0001C36.3536 36.0001 36.6928 35.8596 36.9428 35.6095C37.1929 35.3595 37.3333 35.0204 37.3333 34.6667V32.0001V29.3334V18.6667H34.6667H32H14.6667ZM19.796 38.6667L12 38.6667C10.9391 38.6667 9.92172 38.2453 9.17157 37.4952C8.42143 36.745 8 35.7276 8 34.6667V22.6667C8 20.8986 8.70238 19.2029 9.95262 17.9527C11.2029 16.7024 12.8986 16.0001 14.6667 16.0001H38.6667C39.403 16.0001 40 16.597 40 17.3334V34.6667C40 35.7276 39.5786 36.745 38.8284 37.4952C38.0783 38.2453 37.0609 38.6667 36 38.6667L28.204 38.6667L29.3199 46.4782C29.3289 46.5406 29.3333 46.6036 29.3333 46.6667C29.3333 48.0812 28.7714 49.4378 27.7712 50.438C26.771 51.4382 25.4145 52.0001 24 52.0001C22.5855 52.0001 21.229 51.4382 20.2288 50.438C19.2286 49.4378 18.6667 48.0812 18.6667 46.6667C18.6667 46.6036 18.6711 46.5406 18.6801 46.4782L19.796 38.6667Z" fill="#91BAFF"/>
<path fill-rule="evenodd" clip-rule="evenodd" d="M33.3333 16.0001C34.0697 16.0001 34.6667 16.597 34.6667 17.3334V18.6667V25.3334C34.6667 26.0698 34.0697 26.6667 33.3333 26.6667C32.597 26.6667 32 26.0698 32 25.3334V18.6667V17.3334C32 16.597 32.597 16.0001 33.3333 16.0001Z" fill="#91BAFF"/>
<path d="M10.6667 29.3334H37.3333V18.6667H34.6667V25.3334C34.6667 26.0698 34.0697 26.6667 33.3333 26.6667C32.597 26.6667 32 26.0698 32 25.3334V18.6667H14.6667C13.6058 18.6667 12.5884 19.0882 11.8382 19.8383C11.0881 20.5884 10.6667 21.6059 10.6667 22.6667V29.3334Z" fill="#0E1114"/>
<path d="M37.3333 32.0001H10.6667V34.6667C10.6667 35.0204 10.8071 35.3595 11.0572 35.6095C11.3072 35.8596 11.6464 36.0001 12 36.0001H19.8V37.3334L19.804 36.0001C20.1845 36.0012 20.5603 36.0838 20.9063 36.2422C21.2522 36.4006 21.5603 36.6312 21.8097 36.9186C22.0592 37.2059 22.2442 37.5433 22.3525 37.908C22.4607 38.2728 22.4897 38.6565 22.4373 39.0334L22.4366 39.0386L21.3347 46.752C21.3563 47.4283 21.6344 48.0724 22.1144 48.5523C22.6145 49.0524 23.2928 49.3334 24 49.3334C24.7072 49.3334 25.3855 49.0524 25.8856 48.5523C26.3656 48.0724 26.6437 47.4283 26.6653 46.752L25.5634 39.0386L25.5627 39.0334C25.5103 38.6565 25.5393 38.2728 25.6475 37.908C25.7558 37.5433 25.9409 37.2059 26.1903 36.9186C26.4397 36.6312 26.7478 36.4006 27.0937 36.2422C27.4397 36.0838 27.8155 36.0012 28.196 36.0001L28.2 36.0001L36 36.0001C36.3536 36.0001 36.6928 35.8596 36.9428 35.6095C37.1929 35.3595 37.3333 35.0204 37.3333 34.6667V32.0001Z" fill="#0E1114"/>
<path d="M44 1C51.1797 1 57 6.8203 57 14C57 21.1797 51.1797 27 44 27C36.8203 27 31 21.1797 31 14C31 6.8203 36.8203 1 44 1Z" fill="#C89600"/>
<path d="M44 1C51.1797 1 57 6.8203 57 14C57 21.1797 51.1797 27 44 27C36.8203 27 31 21.1797 31 14C31 6.8203 36.8203 1 44 1Z" stroke="#0E1114" stroke-width="2" stroke-linecap="round" stroke-linejoin="round"/>
<path d="M51.5154 11.8087C51.9993 11.317 51.993 10.5236 51.5053 10.0437L48.008 6.54717C47.7704 6.31266 47.4538 6.1829 47.1216 6.18759C46.7878 6.18994 46.4743 6.32282 46.2429 6.55733L36.8619 15.9391C36.6274 16.1744 36.4992 16.4871 36.5 16.8178V20.3119C36.5 21.0013 37.0613 21.5626 37.7507 21.5626H50.883C51.2285 21.5626 51.5084 21.2827 51.5084 20.9372C51.5084 20.5917 51.2285 20.3119 50.883 20.3119H43.0122L51.5154 11.8087ZM47.1349 7.44142L50.6212 10.9348L49.0078 12.5482L45.5175 9.05795L47.1349 7.44142ZM37.7476 16.8224L44.6319 9.94203L48.1221 13.4323L41.2441 20.3119H37.7507L37.7476 16.8224Z" fill="white"/>
</g>
<defs>
<filter id="filter0_d_4472_9152" x="0" y="0" width="62" height="62.0001" filterUnits="userSpaceOnUse" color-interpolation-filters="sRGB">
<feFlood flood-opacity="0" result="BackgroundImageFix"/>
<feColorMatrix in="SourceAlpha" type="matrix" values="0 0 0 0 0 0 0 0 0 0 0 0 0 0 0 0 0 0 127 0" result="hardAlpha"/>
<feOffset dx="4" dy="4"/>
<feComposite in2="hardAlpha" operator="out"/>
<feColorMatrix type="matrix" values="0 0 0 0 0.054902 0 0 0 0 0.0666667 0 0 0 0 0.0784314 0 0 0 1 0"/>
<feBlend mode="normal" in2="BackgroundImageFix" result="effect1_dropShadow_4472_9152"/>
<feBlend mode="normal" in="SourceGraphic" in2="effect1_dropShadow_4472_9152" result="shape"/>
</filter>
</defs>
</svg>
