<svg width="52" height="52" viewBox="0 0 52 52" fill="none" xmlns="http://www.w3.org/2000/svg">
<g filter="url(#filter0_d_4439_346)">
<rect width="48" height="48" fill="#CDD5DE" shape-rendering="crispEdges"/>
<rect x="1" y="1" width="46" height="46" stroke="#0E1114" stroke-width="2" shape-rendering="crispEdges"/>
<path fill-rule="evenodd" clip-rule="evenodd" d="M8.39999 12.6C7.76347 12.6 7.15302 12.8529 6.70294 13.303C6.25286 13.7531 6 14.3635 6 15V29.3999C6 30.9912 6.63214 32.5173 7.75735 33.6426C8.88256 34.7678 10.4087 35.3999 12 35.3999H31.1999C31.8364 35.3999 32.4468 35.1471 32.8969 34.697C33.347 34.2469 33.5998 33.6364 33.5998 32.9999V28.4676L40.2046 32.2418C40.576 32.454 41.0323 32.4525 41.4023 32.2378C41.7723 32.0231 42 31.6277 42 31.1999V16.8C42 16.3723 41.7723 15.9768 41.4023 15.7621C41.0323 15.5474 40.576 15.5459 40.2046 15.7581L33.5998 19.5323V18.6C33.5998 17.0087 32.9677 15.4826 31.8425 14.3574C30.7173 13.2322 29.1912 12.6 27.5999 12.6H8.39999ZM8.39999 15V29.3999C8.39999 30.3547 8.77927 31.2704 9.4544 31.9455C10.1295 32.6206 11.0452 32.9999 12 32.9999H31.1999V18.6C31.1999 17.6452 30.8206 16.7296 30.1454 16.0544C29.4703 15.3793 28.5546 15 27.5999 15L8.39999 15ZM39.6 29.1321V18.8678L33.5998 22.2965V25.7035L39.6 29.1321Z" fill="#CDD5DE"/>
<path d="M8.39999 29.3999V15L27.5999 15C28.5546 15 29.4703 15.3793 30.1454 16.0544C30.8206 16.7296 31.1999 17.6452 31.1999 18.6V32.9999H12C11.0452 32.9999 10.1295 32.6206 9.4544 31.9455C8.77927 31.2704 8.39999 30.3547 8.39999 29.3999Z" fill="#0E1114"/>
<path d="M39.6 18.8678V29.1321L33.5998 25.7035V22.2965L39.6 18.8678Z" fill="#0E1114"/>
</g>
<defs>
<filter id="filter0_d_4439_346" x="0" y="0" width="52" height="52" filterUnits="userSpaceOnUse" color-interpolation-filters="sRGB">
<feFlood flood-opacity="0" result="BackgroundImageFix"/>
<feColorMatrix in="SourceAlpha" type="matrix" values="0 0 0 0 0 0 0 0 0 0 0 0 0 0 0 0 0 0 127 0" result="hardAlpha"/>
<feOffset dx="4" dy="4"/>
<feComposite in2="hardAlpha" operator="out"/>
<feColorMatrix type="matrix" values="0 0 0 0 0.054902 0 0 0 0 0.0666667 0 0 0 0 0.0784314 0 0 0 1 0"/>
<feBlend mode="normal" in2="BackgroundImageFix" result="effect1_dropShadow_4439_346"/>
<feBlend mode="normal" in="SourceGraphic" in2="effect1_dropShadow_4439_346" result="shape"/>
</filter>
</defs>
</svg>
