<svg width="180" height="56" viewBox="0 0 180 56" fill="none" xmlns="http://www.w3.org/2000/svg">
<path d="M35.745 25.2825C37.9956 26.376 37.9972 29.5821 35.7476 30.6779L9.18846 43.6148C7.06364 44.6498 4.63208 42.9355 4.89308 40.5864L6.09524 29.767C6.22572 28.5926 6.22572 27.4075 6.09524 26.2332L4.89238 15.4073C4.63152 13.0596 7.06044 11.3454 9.18509 12.3777L35.745 25.2825Z" fill="url(#paint0_linear_4424_67782)"/>
<path d="M52.745 25.2825C54.9956 26.376 54.9972 29.5821 52.7476 30.6779L26.1885 43.6148C24.0636 44.6498 21.6321 42.9355 21.8931 40.5864L23.0952 29.767C23.2257 28.5926 23.2257 27.4075 23.0952 26.2332L21.8924 15.4073C21.6315 13.0596 24.0604 11.3454 26.1851 12.3777L52.745 25.2825Z" fill="url(#paint1_linear_4424_67782)"/>
<path d="M68.0708 43.224V38.1168H76.2692C77.7625 38.1168 78.8975 37.7136 79.674 36.9072C80.4505 36.0709 80.8388 34.936 80.8388 33.5024C80.8388 32.0688 80.4505 30.9637 79.674 30.1872C78.8975 29.3808 77.7625 28.9776 76.2692 28.9776H68.0708V25.08H75.8212C78.0015 25.08 79.9428 25.3488 81.6452 25.8864C83.3775 26.3941 84.7215 27.2603 85.6772 28.4848C86.6628 29.7093 87.1556 31.352 87.1556 33.4128V34.04C87.1556 35.9813 86.7225 37.6389 85.8564 39.0128C85.0201 40.3568 83.7508 41.4021 82.0484 42.1488C80.3759 42.8656 78.3001 43.224 75.8212 43.224H68.0708ZM62.7396 43.224V10.072H68.9668V43.224H62.7396ZM68.0708 27.9472V24.0496H75.0596C76.5828 24.0496 77.7028 23.6464 78.4196 22.84C79.1364 22.0336 79.4948 20.9584 79.4948 19.6144C79.4948 18.2704 79.1364 17.1952 78.4196 16.3888C77.7028 15.5824 76.5828 15.1792 75.0596 15.1792H68.0708V10.072H74.4772C78.1807 10.072 80.9881 10.8485 82.8996 12.4016C84.8409 13.9547 85.8116 16.1797 85.8116 19.0768V19.704C85.8116 21.7349 85.3188 23.3627 84.3332 24.5872C83.3775 25.7819 82.0484 26.648 80.346 27.1856C78.6436 27.6933 76.6873 27.9472 74.4772 27.9472H68.0708Z" fill="black"/>
<path d="M93.0905 43V18.6736H98.0185V28.9776H97.8841C97.8841 25.4832 98.6308 22.84 100.124 21.048C101.617 19.256 103.813 18.36 106.71 18.36H107.606V23.7808H105.903C103.813 23.7808 102.185 24.3483 101.02 25.4832C99.8852 26.5883 99.3177 28.2011 99.3177 30.3216V43H93.0905Z" fill="black"/>
<path d="M112.937 43V18.6736H119.164V43H112.937ZM109.532 23.3328V18.6736H119.164V23.3328H109.532Z" fill="black"/>
<path d="M135.166 43.7616C131.821 43.7616 129.193 43.0597 127.281 41.656C125.4 40.2224 124.414 38.2512 124.325 35.7424H129.925C130.014 36.5787 130.477 37.3403 131.313 38.0272C132.15 38.7141 133.464 39.0576 135.256 39.0576C136.749 39.0576 137.929 38.7888 138.795 38.2512C139.691 37.7136 140.139 36.9819 140.139 36.056C140.139 35.2496 139.795 34.6075 139.109 34.1296C138.451 33.6517 137.317 33.3381 135.704 33.1888L133.553 32.9648C130.835 32.6661 128.745 31.8896 127.281 30.6352C125.818 29.3808 125.086 27.7083 125.086 25.6176C125.086 23.9451 125.504 22.5413 126.341 21.4064C127.177 20.2715 128.327 19.4203 129.79 18.8528C131.283 18.2555 132.986 17.9568 134.897 17.9568C137.884 17.9568 140.303 18.6139 142.155 19.928C144.007 21.2421 144.977 23.1685 145.067 25.7072H139.467C139.407 24.8709 138.989 24.1541 138.213 23.5568C137.436 22.9595 136.316 22.6608 134.853 22.6608C133.538 22.6608 132.523 22.9147 131.806 23.4224C131.089 23.9301 130.731 24.5872 130.731 25.3936C130.731 26.1701 131.015 26.7675 131.582 27.1856C132.179 27.6037 133.135 27.8875 134.449 28.0368L136.6 28.2608C139.467 28.5595 141.707 29.3509 143.32 30.6352C144.962 31.9195 145.784 33.6517 145.784 35.832C145.784 37.4448 145.336 38.8485 144.44 40.0432C143.574 41.208 142.349 42.1189 140.766 42.776C139.183 43.4331 137.317 43.7616 135.166 43.7616Z" fill="black"/>
<path d="M167.952 43L159.798 31.6208H156.17L166.518 18.6736H173.014L163.472 30.6352L163.606 27.4992L174.986 43H167.952ZM150.928 43V10.296H157.155V43H150.928Z" fill="black"/>
<path d="M112.765 9.77893C112.777 9.67933 112.812 9.5839 112.868 9.5002C112.923 9.41649 112.997 9.34681 113.084 9.29668C113.171 9.24655 113.268 9.21733 113.368 9.21135C113.468 9.20537 113.568 9.22279 113.661 9.26223L113.974 9.39953L114.222 9.51257L114.512 9.64988L114.84 9.81046L115.077 9.93127L115.462 10.1321L115.736 10.2796L116.021 10.4378L116.318 10.6071L116.626 10.7866L116.916 10.9618L117.19 11.1311L117.567 11.3717L117.904 11.5939L118.198 11.7948L118.449 11.9709L118.712 12.162L118.812 12.2368C119.156 12.4963 119.156 13.0101 118.812 13.2701L118.604 13.4249L118.471 13.521L118.149 13.7466L117.86 13.9426L117.645 14.0842L117.291 14.3123L116.898 14.5549L116.616 14.7247L116.318 14.8993L116.017 15.0701L115.729 15.2302L115.455 15.3782L115.194 15.5155L114.831 15.7003L114.504 15.8609L114.129 16.0375L113.768 16.1986L113.66 16.2452C113.568 16.2844 113.467 16.3017 113.367 16.2956C113.267 16.2895 113.17 16.2603 113.083 16.2102C112.997 16.16 112.923 16.0904 112.867 16.0068C112.812 15.9232 112.777 15.8279 112.765 15.7285L112.726 15.3898L112.692 15.0177L112.666 14.6834L112.642 14.305L112.628 14.0285L112.617 13.7349L112.607 13.4244L112.6 12.9267V12.5798L112.607 12.083L112.622 11.623L112.635 11.3382L112.649 11.0714L112.674 10.7075L112.701 10.3888L112.735 10.0385L112.765 9.77893Z" fill="#5FAEE7"/>
<defs>
<linearGradient id="paint0_linear_4424_67782" x1="54.4339" y1="27.9969" x2="4.87305" y2="27.9969" gradientUnits="userSpaceOnUse">
<stop stop-color="#5FAEE7"/>
<stop offset="1"/>
</linearGradient>
<linearGradient id="paint1_linear_4424_67782" x1="54.4339" y1="27.9969" x2="4.87305" y2="27.9969" gradientUnits="userSpaceOnUse">
<stop stop-color="#5FAEE7"/>
<stop offset="1"/>
</linearGradient>
</defs>
</svg>
