<svg width="52" height="52" viewBox="0 0 52 52" fill="none" xmlns="http://www.w3.org/2000/svg">
<g filter="url(#filter0_d_4439_344)">
<rect width="48" height="48" fill="#91BAFF" shape-rendering="crispEdges"/>
<rect x="1" y="1" width="46" height="46" stroke="#0E1114" stroke-width="2" shape-rendering="crispEdges"/>
<path fill-rule="evenodd" clip-rule="evenodd" d="M8 20.6667C8 19.9303 8.59695 19.3333 9.33333 19.3333H10.6667H37.3333H38.6667C39.403 19.3333 40 19.9303 40 20.6667C40 21.403 39.403 22 38.6667 22H37.3333H10.6667H9.33333C8.59695 22 8 21.403 8 20.6667Z" fill="#91BAFF"/>
<path fill-rule="evenodd" clip-rule="evenodd" d="M14.6667 8.66667C13.6058 8.66667 12.5884 9.08809 11.8382 9.83824C11.0881 10.5884 10.6667 11.6058 10.6667 12.6667V19.3333V22V24.6667C10.6667 25.0203 10.8071 25.3594 11.0572 25.6095C11.3072 25.8595 11.6464 26 12 26H19.8V27.3333L19.804 26C20.1845 26.0012 20.5603 26.0837 20.9063 26.2421C21.2522 26.4005 21.5603 26.6312 21.8097 26.9185C22.0592 27.2058 22.2442 27.5432 22.3525 27.908C22.4607 28.2727 22.4897 28.6565 22.4373 29.0333L22.4366 29.0386L21.3347 36.7519C21.3563 37.4282 21.6344 38.0723 22.1144 38.5523C22.6145 39.0524 23.2928 39.3333 24 39.3333C24.7072 39.3333 25.3855 39.0524 25.8856 38.5523C26.3656 38.0723 26.6437 37.4282 26.6653 36.7519L25.5634 29.0386L25.5627 29.0333C25.5103 28.6565 25.5393 28.2728 25.6475 27.908C25.7558 27.5432 25.9409 27.2058 26.1903 26.9185C26.4397 26.6312 26.7478 26.4005 27.0937 26.2421C27.4397 26.0837 27.8155 26.0012 28.196 26L28.2 26L36 26C36.3536 26 36.6928 25.8595 36.9428 25.6095C37.1929 25.3594 37.3333 25.0203 37.3333 24.6667V22V19.3333V8.66667H34.6667H32H14.6667ZM19.796 28.6667L12 28.6667C10.9391 28.6667 9.92172 28.2452 9.17157 27.4951C8.42143 26.7449 8 25.7275 8 24.6667V12.6667C8 10.8986 8.70238 9.20286 9.95262 7.95262C11.2029 6.70238 12.8986 6 14.6667 6H38.6667C39.403 6 40 6.59695 40 7.33333V24.6667C40 25.7275 39.5786 26.7449 38.8284 27.4951C38.0783 28.2452 37.0609 28.6667 36 28.6667L28.204 28.6667L29.3199 36.4781C29.3289 36.5406 29.3333 36.6036 29.3333 36.6667C29.3333 38.0812 28.7714 39.4377 27.7712 40.4379C26.771 41.4381 25.4145 42 24 42C22.5855 42 21.229 41.4381 20.2288 40.4379C19.2286 39.4377 18.6667 38.0812 18.6667 36.6667C18.6667 36.6036 18.6711 36.5406 18.6801 36.4781L19.796 28.6667Z" fill="#91BAFF"/>
<path fill-rule="evenodd" clip-rule="evenodd" d="M33.3333 6C34.0697 6 34.6667 6.59695 34.6667 7.33333V8.66667V15.3333C34.6667 16.0697 34.0697 16.6667 33.3333 16.6667C32.597 16.6667 32 16.0697 32 15.3333V8.66667V7.33333C32 6.59695 32.597 6 33.3333 6Z" fill="#91BAFF"/>
<path d="M10.6667 19.3333H37.3333V8.66667H34.6667V15.3333C34.6667 16.0697 34.0697 16.6667 33.3333 16.6667C32.597 16.6667 32 16.0697 32 15.3333V8.66667H14.6667C13.6058 8.66667 12.5884 9.08809 11.8382 9.83824C11.0881 10.5884 10.6667 11.6058 10.6667 12.6667V19.3333Z" fill="#0E1114"/>
<path d="M37.3333 22H10.6667V24.6667C10.6667 25.0203 10.8071 25.3594 11.0572 25.6095C11.3072 25.8595 11.6464 26 12 26H19.8V27.3333L19.804 26C20.1845 26.0012 20.5603 26.0837 20.9063 26.2421C21.2522 26.4005 21.5603 26.6312 21.8097 26.9185C22.0592 27.2058 22.2442 27.5432 22.3525 27.908C22.4607 28.2727 22.4897 28.6565 22.4373 29.0333L22.4366 29.0386L21.3347 36.7519C21.3563 37.4282 21.6344 38.0723 22.1144 38.5523C22.6145 39.0524 23.2928 39.3333 24 39.3333C24.7072 39.3333 25.3855 39.0524 25.8856 38.5523C26.3656 38.0723 26.6437 37.4282 26.6653 36.7519L25.5634 29.0386L25.5627 29.0333C25.5103 28.6565 25.5393 28.2728 25.6475 27.908C25.7558 27.5432 25.9409 27.2058 26.1903 26.9185C26.4397 26.6312 26.7478 26.4005 27.0937 26.2421C27.4397 26.0837 27.8155 26.0012 28.196 26L28.2 26L36 26C36.3536 26 36.6928 25.8595 36.9428 25.6095C37.1929 25.3594 37.3333 25.0203 37.3333 24.6667V22Z" fill="#0E1114"/>
</g>
<defs>
<filter id="filter0_d_4439_344" x="0" y="0" width="52" height="52" filterUnits="userSpaceOnUse" color-interpolation-filters="sRGB">
<feFlood flood-opacity="0" result="BackgroundImageFix"/>
<feColorMatrix in="SourceAlpha" type="matrix" values="0 0 0 0 0 0 0 0 0 0 0 0 0 0 0 0 0 0 127 0" result="hardAlpha"/>
<feOffset dx="4" dy="4"/>
<feComposite in2="hardAlpha" operator="out"/>
<feColorMatrix type="matrix" values="0 0 0 0 0.054902 0 0 0 0 0.0666667 0 0 0 0 0.0784314 0 0 0 1 0"/>
<feBlend mode="normal" in2="BackgroundImageFix" result="effect1_dropShadow_4439_344"/>
<feBlend mode="normal" in="SourceGraphic" in2="effect1_dropShadow_4439_344" result="shape"/>
</filter>
</defs>
</svg>
