<svg width="32" height="32" viewBox="0 0 32 32" fill="none" xmlns="http://www.w3.org/2000/svg">
<path fill-rule="evenodd" clip-rule="evenodd" d="M16 11.9999C16.5523 11.9999 17 12.4476 17 12.9999V17.9999C17 18.5522 16.5523 18.9999 16 18.9999C15.4477 18.9999 15 18.5522 15 17.9999V12.9999C15 12.4476 15.4477 11.9999 16 11.9999Z" fill="#1100FF"/>
<path fill-rule="evenodd" clip-rule="evenodd" d="M14.5011 3.40261C14.9564 3.13857 15.4734 2.99951 15.9998 2.99951C16.5261 2.99951 17.0431 3.13857 17.4985 3.40261C17.953 3.66621 18.33 4.04502 18.5914 4.50081L18.5927 4.50313L29.5908 23.4998C29.8537 23.9551 29.9923 24.4715 29.9927 24.9972C29.9932 25.5229 29.8555 26.0395 29.5935 26.4953C29.3314 26.951 28.9542 27.3299 28.4996 27.5939C28.045 27.858 27.529 27.998 27.0033 27.9998L26.9998 27.9998H4.99979L4.99627 27.9998C4.47056 27.998 3.95456 27.858 3.49997 27.5939C3.04539 27.3299 2.66817 26.951 2.40612 26.4953C2.14406 26.0395 2.00637 25.5229 2.00684 24.9972C2.0073 24.4715 2.14591 23.9551 2.40877 23.4998L13.4069 4.50313L13.4082 4.50081C13.6696 4.04502 14.0466 3.66621 14.5011 3.40261ZM14.2748 4.99983L15.1402 5.50086L4.14081 24.4998C4.05334 24.6515 4.00699 24.8239 4.00684 24.999C4.00668 25.1742 4.05258 25.3464 4.13993 25.4983C4.22728 25.6502 4.35302 25.7765 4.50455 25.8645C4.65568 25.9523 4.82718 25.999 5.00195 25.9998H26.9976C27.1724 25.999 27.3439 25.9523 27.495 25.8645C27.6466 25.7765 27.7723 25.6502 27.8597 25.4983C27.947 25.3464 27.9929 25.1742 27.9927 24.999C27.9926 24.8239 27.9465 24.652 27.8591 24.5004L16.8569 5.49653C16.7704 5.34553 16.6457 5.22003 16.4952 5.13275C16.3447 5.04548 16.1738 4.99951 15.9998 4.99951C15.8258 4.99951 15.6549 5.04548 15.5044 5.13275C15.3539 5.22003 15.2291 5.34552 15.1427 5.49652L14.2748 4.99983Z" fill="#1100FF"/>
<path d="M16 23.9999C16.8284 23.9999 17.5 23.3283 17.5 22.4999C17.5 21.6715 16.8284 20.9999 16 20.9999C15.1716 20.9999 14.5 21.6715 14.5 22.4999C14.5 23.3283 15.1716 23.9999 16 23.9999Z" fill="#1100FF"/>
</svg>
