<svg width="32" height="32" viewBox="0 0 32 32" fill="none" xmlns="http://www.w3.org/2000/svg">
<path fill-rule="evenodd" clip-rule="evenodd" d="M28.0249 5.46252C28.5772 5.46252 29.0249 5.91024 29.0249 6.46252V12.4625C29.0249 13.0148 28.5772 13.4625 28.0249 13.4625H22.0249C21.4726 13.4625 21.0249 13.0148 21.0249 12.4625C21.0249 11.9102 21.4726 11.4625 22.0249 11.4625H27.0249V6.46252C27.0249 5.91024 27.4726 5.46252 28.0249 5.46252Z" fill="#1100FF"/>
<path fill-rule="evenodd" clip-rule="evenodd" d="M16.0001 6.00122C14.6873 6.00122 13.3874 6.26004 12.1747 6.76287C10.962 7.2657 9.86033 8.00268 8.93272 8.93164C8.54248 9.32245 7.90932 9.32292 7.51851 8.93268C7.1277 8.54244 7.12724 7.90927 7.51748 7.51846C8.63084 6.40347 9.95311 5.51891 11.4086 4.91539C12.8642 4.31187 14.4244 4.00122 16.0001 4.00122C17.5758 4.00122 19.136 4.31187 20.5916 4.91539C22.0468 5.51879 23.3688 6.40311 24.482 7.51779L28.7312 11.7544C29.1223 12.1444 29.1232 12.7775 28.7332 13.1686C28.3433 13.5597 27.7101 13.5606 27.319 13.1707L23.0675 8.93164C22.1399 8.00268 21.0382 7.2657 19.8255 6.76287C18.6128 6.26004 17.3129 6.00122 16.0001 6.00122Z" fill="#1100FF"/>
<path fill-rule="evenodd" clip-rule="evenodd" d="M2.9751 19.5375C2.9751 18.9852 3.42281 18.5375 3.9751 18.5375H9.9751C10.5274 18.5375 10.9751 18.9852 10.9751 19.5375C10.9751 20.0898 10.5274 20.5375 9.9751 20.5375H4.9751V25.5375C4.9751 26.0898 4.52738 26.5375 3.9751 26.5375C3.42281 26.5375 2.9751 26.0898 2.9751 25.5375V19.5375Z" fill="#1100FF"/>
<path fill-rule="evenodd" clip-rule="evenodd" d="M3.26695 18.8314C3.6569 18.4403 4.29006 18.4394 4.68116 18.8293L8.93272 23.0684C9.86034 23.9974 10.962 24.7343 12.1747 25.2372C13.3874 25.74 14.6873 25.9988 16.0001 25.9988C17.3129 25.9988 18.6128 25.74 19.8255 25.2372C21.0382 24.7343 22.1399 23.9974 23.0675 23.0684C23.4577 22.6776 24.0909 22.6771 24.4817 23.0674C24.8725 23.4576 24.873 24.0908 24.4827 24.4816C23.3693 25.5966 22.0471 26.4811 20.5916 27.0846C19.136 27.6882 17.5758 27.9988 16.0001 27.9988C14.4244 27.9988 12.8642 27.6882 11.4086 27.0846C9.95348 26.4813 8.63151 25.597 7.51832 24.4824L7.51748 24.4816L3.26903 20.2456C2.87793 19.8557 2.877 19.2225 3.26695 18.8314Z" fill="#1100FF"/>
</svg>
