<svg width="32" height="32" viewBox="0 0 32 32" fill="none" xmlns="http://www.w3.org/2000/svg">
<path fill-rule="evenodd" clip-rule="evenodd" d="M19 3C19.5523 3 20 3.44772 20 4V10H26C26.5523 10 27 10.4477 27 11C27 11.5523 26.5523 12 26 12H19C18.4477 12 18 11.5523 18 11V4C18 3.44772 18.4477 3 19 3Z" fill="#1100FF"/>
<path fill-rule="evenodd" clip-rule="evenodd" d="M5.58579 3.58579C5.96086 3.21071 6.46957 3 7 3H19C19.2652 3 19.5196 3.10536 19.7071 3.29289L26.7071 10.2929C26.8946 10.4804 27 10.7348 27 11V27C27 27.5304 26.7893 28.0391 26.4142 28.4142C26.0391 28.7893 25.5304 29 25 29H22C21.4477 29 21 28.5523 21 28C21 27.4477 21.4477 27 22 27H25V11.4142L18.5858 5L7 5L7 16C7 16.5523 6.55228 17 6 17C5.44772 17 5 16.5523 5 16V5C5 4.46957 5.21071 3.96086 5.58579 3.58579Z" fill="#1100FF"/>
<path fill-rule="evenodd" clip-rule="evenodd" d="M4 21C4 19.8954 4.89543 19 6 19H13C14.1046 19 15 19.8954 15 21V26C15 27.1046 14.1046 28 13 28H6C4.89543 28 4 27.1046 4 26V21ZM13 21H6V26H13V21Z" fill="#1100FF"/>
<path fill-rule="evenodd" clip-rule="evenodd" d="M18.5259 19.6494C18.8208 19.8316 19.0002 20.1534 19.0002 20.5V26.65C19.0002 27.0018 18.8153 27.3278 18.5133 27.5083C18.2113 27.6889 17.8367 27.6974 17.5268 27.5308L13.5268 25.3808C13.0403 25.1194 12.8579 24.513 13.1194 24.0266C13.2965 23.6971 13.6317 23.5071 13.9807 23.5C13.6212 23.4927 13.2778 23.2912 13.1058 22.9472C12.8588 22.4532 13.059 21.8526 13.553 21.6056L17.553 19.6056C17.863 19.4506 18.2311 19.4671 18.5259 19.6494ZM14.0213 23.5C14.1746 23.5031 14.3294 23.5416 14.4737 23.6192L17.0002 24.9772V22.118L14.4474 23.3944C14.3103 23.463 14.165 23.4971 14.0213 23.5Z" fill="#1100FF"/>
</svg>
