<svg width="32" height="32" viewBox="0 0 32 32" fill="none" xmlns="http://www.w3.org/2000/svg">
<path fill-rule="evenodd" clip-rule="evenodd" d="M16 5C9.92487 5 5 9.92487 5 16C5 22.0751 9.92487 27 16 27C22.0751 27 27 22.0751 27 16C27 9.92487 22.0751 5 16 5ZM3 16C3 8.8203 8.8203 3 16 3C23.1797 3 29 8.8203 29 16C29 23.1797 23.1797 29 16 29C8.8203 29 3 23.1797 3 16Z" fill="#1100FF"/>
<path fill-rule="evenodd" clip-rule="evenodd" d="M8.51599 6.02948C9.02436 6.2453 9.26152 6.83237 9.0457 7.34074L7.92335 9.9845L9.36596 13.8235L12.0304 14.3962C12.3286 14.4577 12.6085 14.5872 12.8484 14.7747C13.0893 14.9631 13.2832 15.2048 13.4148 15.4808L13.8815 16.4512C13.8835 16.4542 13.8861 16.4568 13.8892 16.4588C13.8926 16.4608 13.8963 16.4621 13.9002 16.4625H15.5752C16.1275 16.4625 16.5752 16.9102 16.5752 17.4625C16.5752 18.0148 16.1275 18.4625 15.5752 18.4625H13.8877C13.5037 18.457 13.1427 18.3507 12.8292 18.1548C12.5158 17.9589 12.262 17.6809 12.0953 17.3511L11.6147 16.3526L8.94124 15.7779C8.60875 15.7067 8.29951 15.5513 8.04416 15.3268C7.79171 15.1048 7.59974 14.8225 7.48613 14.5062L6.05209 10.6905C5.87245 10.2138 5.88121 9.68575 6.07709 9.21546L7.20473 6.55919C7.42055 6.05082 8.00762 5.81366 8.51599 6.02948Z" fill="#1100FF"/>
<path fill-rule="evenodd" clip-rule="evenodd" d="M18.5782 3.51262C19.0613 3.24514 19.6699 3.42001 19.9374 3.9032L21.1036 6.00987C21.3169 6.4023 21.3936 6.85456 21.3216 7.29539C21.2496 7.73621 21.0331 8.14057 20.706 8.44477L17.3412 11.4845C17.2256 11.593 17.0969 11.6865 16.9581 11.763L15.4213 12.6127C15.1233 12.771 14.8094 12.8536 14.4893 12.8622H11.792L10.7465 15.3258C10.5321 15.8347 9.94566 16.0735 9.4367 15.8591C8.92774 15.6446 8.68899 15.0582 8.90342 14.5492L9.94378 12.08C10.0985 11.7201 10.3549 11.4133 10.6815 11.197C11.0081 10.9808 11.3907 10.8645 11.7824 10.8625H14.4412L15.9816 10.0176L19.3449 6.97921L18.1876 4.87183C17.9201 4.38864 18.095 3.7801 18.5782 3.51262Z" fill="#1100FF"/>
</svg>
