<svg width="32" height="32" viewBox="0 0 32 32" fill="none" xmlns="http://www.w3.org/2000/svg">
<path fill-rule="evenodd" clip-rule="evenodd" d="M13.4998 5C13.102 5 12.7204 5.15804 12.4391 5.43934C12.1578 5.72064 11.9998 6.10218 11.9998 6.5V19.6625C11.9998 20.1152 11.6956 20.5115 11.2582 20.6285C10.8209 20.7455 10.3594 20.5541 10.1334 20.1618L7.39589 15.4119C7.39588 15.4119 7.3959 15.4119 7.39589 15.4119C7.19681 15.0665 6.86866 14.8143 6.48366 14.7108C6.09865 14.6073 5.6883 14.6611 5.3429 14.8601C4.99749 15.0592 4.74532 15.3874 4.64185 15.7724C4.53838 16.1574 4.5921 16.5677 4.79118 16.9131C4.80446 16.9362 4.81682 16.9598 4.82823 16.9838C6.86907 21.2846 8.44379 24.0333 10.1266 25.7204C11.7341 27.332 13.4675 28 15.9998 28C17.1817 28 18.352 27.7672 19.4439 27.3149C20.5359 26.8626 21.528 26.1997 22.3637 25.364C23.1995 24.5282 23.8624 23.5361 24.3147 22.4442C24.767 21.3522 24.9998 20.1819 24.9998 19V8.5C24.9998 8.10218 24.8417 7.72064 24.5604 7.43934C24.2791 7.15804 23.8976 7 23.4998 7C23.102 7 22.7204 7.15804 22.4391 7.43934C22.1578 7.72064 21.9998 8.10218 21.9998 8.5V15C21.9998 15.5523 21.5521 16 20.9998 16C20.4475 16 19.9998 15.5523 19.9998 15V8.5C19.9998 7.57174 20.3685 6.6815 21.0249 6.02513C21.6813 5.36875 22.5715 5 23.4998 5C24.428 5 25.3183 5.36875 25.9747 6.02513C26.631 6.6815 26.9998 7.57174 26.9998 8.5V19C26.9998 20.4445 26.7153 21.8749 26.1625 23.2095C25.6097 24.5441 24.7994 25.7567 23.778 26.7782C22.7565 27.7996 21.5439 28.6099 20.2093 29.1627C18.8747 29.7155 17.4443 30 15.9998 30C13.007 30 10.7405 29.168 8.71052 27.1328C6.76081 25.178 5.06426 22.1436 3.03705 17.8743C2.59064 17.0773 2.47299 16.1367 2.71038 15.2533C2.95151 14.356 3.5392 13.5913 4.34417 13.1274C5.14914 12.6634 6.10545 12.5382 7.00272 12.7793C7.89999 13.0205 8.66472 13.6082 9.12868 14.4131L9.99978 15.9246V6.5C9.99978 5.57174 10.3685 4.6815 11.0249 4.02513C11.6813 3.36875 12.5715 3 13.4998 3C14.428 3 15.3183 3.36875 15.9747 4.02513C16.631 4.6815 16.9998 5.57174 16.9998 6.5V15C16.9998 15.5523 16.5521 16 15.9998 16C15.4475 16 14.9998 15.5523 14.9998 15V6.5C14.9998 6.10218 14.8417 5.72064 14.5604 5.43934C14.2791 5.15804 13.8976 5 13.4998 5Z" fill="#1100FF"/>
<path fill-rule="evenodd" clip-rule="evenodd" d="M16.0251 2.02513C16.6815 1.36875 17.5717 1 18.5 1C19.4283 1 20.3185 1.36875 20.9749 2.02513C21.6313 2.6815 22 3.57174 22 4.5L21.9998 8.5C21.9998 9.05228 21.5523 9.5 21 9.5C20.4477 9.5 19.9998 9.05228 19.9998 8.5L20 4.5C20 4.10218 19.842 3.72064 19.5607 3.43934C19.2794 3.15804 18.8978 3 18.5 3C18.1022 3 17.7206 3.15804 17.4393 3.43934C17.158 3.72064 17 4.10218 17 4.5L16.9998 6.5C16.9998 7.05228 16.5523 7.5 16 7.5C15.4477 7.5 14.9998 7.05228 14.9998 6.5L15 4.5C15 3.57174 15.3687 2.6815 16.0251 2.02513Z" fill="#1100FF"/>
</svg>
