<svg width="32" height="32" viewBox="0 0 32 32" fill="none" xmlns="http://www.w3.org/2000/svg">
<path fill-rule="evenodd" clip-rule="evenodd" d="M18.4522 7.17438L15.9944 9.63219C15.6039 10.0227 14.9707 10.0227 14.5802 9.63219C14.1897 9.24167 14.1897 8.6085 14.5802 8.21798L17.0552 5.74298C17.0661 5.73207 17.0773 5.72141 17.0887 5.71101C18.3267 4.58266 19.9518 3.9747 21.6264 4.01347C23.301 4.05223 24.8963 4.73475 26.0807 5.91919C27.2651 7.10362 27.9477 8.69889 27.9864 10.3735C28.0252 12.0481 27.4172 13.6732 26.2889 14.9112C26.2781 14.9231 26.267 14.9346 26.2557 14.9459L22.7207 18.4684C22.7203 18.4688 22.7199 18.4692 22.7194 18.4697C22.117 19.0741 21.4012 19.5536 20.6131 19.8809C19.8244 20.2085 18.9788 20.3771 18.1248 20.3771C17.2708 20.3771 16.4252 20.2085 15.6365 19.8809C14.8479 19.5534 14.1316 19.0734 13.5289 18.4684C13.1391 18.0771 13.1403 17.444 13.5315 17.0542C13.9228 16.6644 14.5559 16.6655 14.9457 17.0568C15.3627 17.4753 15.8581 17.8073 16.4036 18.0339C16.9492 18.2605 17.5341 18.3771 18.1248 18.3771C18.7155 18.3771 19.3004 18.2605 19.846 18.0339C20.3915 17.8073 20.887 17.4753 21.3039 17.0568L21.3065 17.0542L24.8261 13.547C25.5981 12.6914 26.0136 11.5725 25.987 10.4198C25.9601 9.25945 25.4872 8.15409 24.6665 7.3334C23.8458 6.51271 22.7404 6.03979 21.5801 6.01293C20.4271 5.98624 19.308 6.40202 18.4522 7.17438Z" fill="#1100FF"/>
<path fill-rule="evenodd" clip-rule="evenodd" d="M13.8751 13.623C13.2844 13.623 12.6995 13.7397 12.1539 13.9662C11.6084 14.1928 11.1129 14.5249 10.696 14.9433L10.6934 14.9459L7.17381 18.4531C6.40181 19.3088 5.98624 20.4277 6.01293 21.5804C6.03979 22.7407 6.51271 23.8461 7.3334 24.6667C8.15409 25.4874 9.25945 25.9604 10.4198 25.9872C11.5728 26.0139 12.6919 25.5981 13.5477 24.8258L16.0055 22.368C16.396 21.9774 17.0292 21.9774 17.4197 22.368C17.8102 22.7585 17.8102 23.3916 17.4197 23.7822L14.9447 26.2572C14.9338 26.2681 14.9226 26.2787 14.9112 26.2891C13.6732 27.4175 12.0481 28.0255 10.3735 27.9867C8.69889 27.9479 7.10362 27.2654 5.91919 26.081C4.73475 24.8965 4.05223 23.3013 4.01347 21.6267C3.9747 19.9521 4.58266 18.3269 5.71101 17.0889C5.72181 17.0771 5.73288 17.0655 5.74423 17.0542L9.27916 13.5318C9.27961 13.5313 9.28006 13.5309 9.28051 13.5304C9.88296 12.9261 10.5987 12.4465 11.3868 12.1192C12.1755 11.7917 13.0211 11.623 13.8751 11.623C14.7291 11.623 15.5747 11.7917 16.3633 12.1192C17.152 12.4468 17.8683 12.9268 18.471 13.5318C18.8608 13.923 18.8596 14.5562 18.4684 14.946C18.0771 15.3358 17.444 15.3346 17.0542 14.9433C16.6372 14.5249 16.1418 14.1928 15.5963 13.9662C15.0507 13.7397 14.4658 13.623 13.8751 13.623Z" fill="#1100FF"/>
</svg>
