<svg width="32" height="32" viewBox="0 0 32 32" fill="none" xmlns="http://www.w3.org/2000/svg">
<path fill-rule="evenodd" clip-rule="evenodd" d="M14.5 16C13.6716 16 13 16.6716 13 17.5C13 18.3284 13.6716 19 14.5 19C15.3284 19 16 18.3284 16 17.5C16 16.6716 15.3284 16 14.5 16ZM11 17.5C11 15.567 12.567 14 14.5 14C16.433 14 18 15.567 18 17.5C18 19.433 16.433 21 14.5 21C12.567 21 11 19.433 11 17.5Z" fill="#1100FF"/>
<path fill-rule="evenodd" clip-rule="evenodd" d="M13.4446 18.5553C13.8351 18.9459 13.8351 19.579 13.4446 19.9696L4.70711 28.7071C4.31658 29.0976 3.68342 29.0976 3.29289 28.7071C2.90237 28.3165 2.90237 27.6834 3.29289 27.2928L12.0304 18.5553C12.4209 18.1648 13.0541 18.1648 13.4446 18.5553Z" fill="#1100FF"/>
<path fill-rule="evenodd" clip-rule="evenodd" d="M14.6487 6.06376C15.0159 5.92598 15.4298 6.01559 15.7071 6.29292L25.7071 16.2929C25.9845 16.5703 26.0741 16.9841 25.9363 17.3513L23.138 24.8093C23.0181 25.137 22.814 25.4275 22.5462 25.6514C22.2766 25.8768 21.9521 26.0267 21.6057 26.0858L21.6016 26.0865L4.16407 28.9865C3.84559 29.0394 3.52117 28.9354 3.29289 28.7071C3.06462 28.4788 2.96058 28.1543 3.01358 27.8359L5.9144 10.406C5.97353 10.0612 6.1215 9.73785 6.3437 9.46772C6.56591 9.1976 6.85467 8.99005 7.18154 8.86553L7.18621 8.86375L14.6487 6.06376ZM7.89302 10.7347C7.89287 10.7348 7.89318 10.7346 7.89302 10.7347C7.89119 10.7355 7.88956 10.7367 7.88828 10.7383C7.88701 10.7398 7.88613 10.7416 7.88571 10.7436C7.88568 10.7438 7.88574 10.7434 7.88571 10.7436L5.21614 26.784L21.2621 24.1155L21.2637 24.1112L23.8375 17.2517L14.7483 8.16254L7.89302 10.7347Z" fill="#1100FF"/>
<path fill-rule="evenodd" clip-rule="evenodd" d="M18.2276 2.56937C18.4722 2.46694 18.7348 2.41418 19 2.41418C19.2652 2.41418 19.5278 2.46694 19.7724 2.56937C20.0157 2.67123 20.2364 2.82019 20.4219 3.00767L28.9923 11.5781C29.1798 11.7636 29.3288 11.9843 29.4306 12.2276C29.5331 12.4722 29.5858 12.7348 29.5858 13C29.5858 13.2652 29.5331 13.5278 29.4306 13.7724C29.3288 14.0157 29.1798 14.2364 28.9923 14.4219L25.7071 17.7071C25.3166 18.0976 24.6834 18.0976 24.2929 17.7071C23.9024 17.3166 23.9024 16.6834 24.2929 16.2929L27.5858 13L27.5804 12.9946L19 4.41421L18.9946 4.41964L15.7071 7.70712C15.3166 8.09764 14.6834 8.09764 14.2929 7.70712C13.9024 7.3166 13.9024 6.68343 14.2929 6.29291L17.5782 3.00765C17.7636 2.82018 17.9843 2.67122 18.2276 2.56937Z" fill="#1100FF"/>
</svg>
