<svg width="32" height="32" viewBox="0 0 32 32" fill="none" xmlns="http://www.w3.org/2000/svg">
<path fill-rule="evenodd" clip-rule="evenodd" d="M16 21C16.5523 21 17 21.4477 17 22V30C17 30.5523 16.5523 31 16 31C15.4477 31 15 30.5523 15 30V22C15 21.4477 15.4477 21 16 21Z" fill="#1100FF"/>
<path fill-rule="evenodd" clip-rule="evenodd" d="M7 5C7 4.44772 7.44772 4 8 4H24C24.5523 4 25 4.44772 25 5C25 5.55228 24.5523 6 24 6H8C7.44772 6 7 5.55228 7 5Z" fill="#1100FF"/>
<path fill-rule="evenodd" clip-rule="evenodd" d="M4 22C4 21.4477 4.44772 21 5 21H27C27.5523 21 28 21.4477 28 22C28 22.5523 27.5523 23 27 23H5C4.44772 23 4 22.5523 4 22Z" fill="#1100FF"/>
<path fill-rule="evenodd" clip-rule="evenodd" d="M10.174 4.01514C10.7178 4.11112 11.0809 4.62983 10.985 5.17371L7.98495 22.1737C7.88897 22.7176 7.37026 23.0807 6.82638 22.9847C6.2825 22.8887 5.9194 22.37 6.01538 21.8261L9.01538 4.82614C9.11136 4.28226 9.63007 3.91916 10.174 4.01514Z" fill="#1100FF"/>
<path fill-rule="evenodd" clip-rule="evenodd" d="M21.8264 4.01514C22.3703 3.91916 22.889 4.28226 22.985 4.82614L25.985 21.8261C26.0809 22.37 25.7178 22.8887 25.174 22.9847C24.6301 23.0807 24.1114 22.7176 24.0154 22.1737L21.0154 5.17371C20.9194 4.62983 21.2825 4.11112 21.8264 4.01514Z" fill="#1100FF"/>
</svg>
