<svg width="32" height="32" viewBox="0 0 32 32" fill="none" xmlns="http://www.w3.org/2000/svg">
<path fill-rule="evenodd" clip-rule="evenodd" d="M3 6.5C2.46957 6.5 1.96086 6.71071 1.58579 7.08579C1.21071 7.46086 1 7.96957 1 8.5V20.5C1 21.8261 1.52678 23.0979 2.46447 24.0355C3.40215 24.9732 4.67392 25.5 6 25.5H22C22.5304 25.5 23.0391 25.2893 23.4142 24.9142C23.7893 24.5391 24 24.0304 24 23.5V19.7231L29.504 22.8682C29.8135 23.0451 30.1938 23.0438 30.5021 22.8649C30.8104 22.686 31.0002 22.3565 31.0002 22V10C31.0002 9.64353 30.8104 9.31401 30.5021 9.13509C30.1938 8.95617 29.8135 8.9549 29.504 9.13176L24 12.2769V11.5C24 10.1739 23.4732 8.90215 22.5355 7.96447C21.5979 7.02678 20.3261 6.5 19 6.5H3ZM3 8.5V20.5C3 21.2956 3.31607 22.0587 3.87868 22.6213C4.44129 23.1839 5.20435 23.5 6 23.5H22V11.5C22 10.7044 21.6839 9.94129 21.1213 9.37868C20.5587 8.81607 19.7956 8.5 19 8.5L3 8.5ZM29.0002 20.2768V11.7232L24 14.5804V17.4196L29.0002 20.2768Z" fill="#1100FF"/>
</svg>
