<svg width="240" height="240" viewBox="0 0 240 240" fill="none" xmlns="http://www.w3.org/2000/svg">
<ellipse cx="120" cy="199.983" rx="82" ry="8.01735" fill="#F6FAFE"/>
<rect x="86.6436" y="103.702" width="3.28571" height="24.7701" fill="#C0D5FF" stroke="#0086EA"/>
<path d="M58.0879 96.5773C57.8026 95.5102 58.4361 94.4129 59.5029 94.1265L74.13 90.1986L78.5669 106.793L63.9398 110.721C62.873 111.008 61.7769 110.375 61.4916 109.308L58.0879 96.5773Z" fill="#E8F2FE" stroke="#0086EA"/>
<path d="M74.1299 90.1986L98.4163 83.677C99.4831 83.3905 100.579 84.0233 100.864 85.0904L104.268 97.8208C104.553 98.8879 103.92 99.9852 102.853 100.272L78.5668 106.793L74.1299 90.1986Z" fill="#C0D5FF" stroke="#0086EA"/>
<ellipse cx="4.28634" cy="4.29439" rx="4.28634" ry="4.29439" transform="matrix(0.965785 -0.259343 0.258296 0.966066 62.8193 97.6823)" fill="#91BAFF" stroke="#0086EA"/>
<ellipse cx="2.14317" cy="2.14719" rx="2.14317" ry="2.14719" transform="matrix(0.965785 -0.259343 0.258296 0.966066 94.1396 87.4062)" fill="#0086EA"/>
<rect x="138.071" y="92.2484" width="3.28571" height="36.2234" fill="#C0D5FF" stroke="#0086EA"/>
<path d="M169.982 89.4189C170.268 88.3519 169.634 87.2546 168.567 86.9681L153.94 83.0403L149.503 99.6349L164.131 103.563C165.197 103.849 166.293 103.216 166.579 102.149L169.982 89.4189Z" fill="#C0D5FF" stroke="#0086EA"/>
<path d="M153.941 83.0403L129.655 76.5186C128.588 76.2322 127.492 76.865 127.207 77.9321L123.803 90.6625C123.518 91.7296 124.151 92.8268 125.218 93.1133L149.505 99.6349L153.941 83.0403Z" fill="#E8F2FE" stroke="#0086EA"/>
<ellipse cx="4.28634" cy="4.29439" rx="4.28634" ry="4.29439" transform="matrix(-0.965785 -0.259343 -0.258296 0.966066 165.251 90.5239)" fill="#91BAFF" stroke="#0086EA"/>
<ellipse cx="2.14317" cy="2.14719" rx="2.14317" ry="2.14719" transform="matrix(-0.965785 -0.259343 -0.258296 0.966066 133.932 80.2479)" fill="#91BAFF"/>
<path d="M52.5713 128.108C52.5713 127.004 53.4667 126.108 54.5713 126.108H134V199.124H54.5713C53.4667 199.124 52.5713 198.228 52.5713 197.124V128.108Z" fill="white" stroke="#0086EA"/>
<path d="M134 126.108H184.857C185.962 126.108 186.857 127.004 186.857 128.108V197.124C186.857 198.228 185.962 199.124 184.857 199.124H134V126.108Z" fill="#E8F2FE" stroke="#0086EA"/>
<rect x="149.714" y="143.288" width="24.2857" height="5.72668" rx="2" fill="white" stroke="#0086EA"/>
<ellipse cx="122.571" cy="138.278" rx="3.57143" ry="3.57918" fill="#C0D5FF" stroke="#0086EA"/>
<path fill-rule="evenodd" clip-rule="evenodd" d="M92.5713 177.649C100.856 177.649 107.571 170.918 107.571 162.616C107.571 154.314 100.856 147.583 92.5713 147.583C84.287 147.583 77.5713 154.314 77.5713 162.616C77.5713 170.918 84.287 177.649 92.5713 177.649ZM92.5713 174.785C99.2776 174.785 104.714 169.337 104.714 162.616C104.714 155.895 99.2776 150.447 92.5713 150.447C85.865 150.447 80.4284 155.895 80.4284 162.616C80.4284 169.337 85.865 174.785 92.5713 174.785Z" fill="#F6FAFE" stroke="#0086EA"/>
<path d="M97.5711 162.616C97.5711 165.383 95.3326 167.627 92.5711 167.627C89.8097 167.627 87.5711 165.383 87.5711 162.616C87.5711 159.849 89.8097 157.605 92.5711 157.605C95.3326 157.605 97.5711 159.849 97.5711 162.616Z" fill="#C0D5FF"/>
<path d="M90.4283 148.299C90.4283 147.113 91.3877 146.152 92.5711 146.152C93.7546 146.152 94.714 147.113 94.714 148.299V157.605H90.4283V148.299Z" fill="#C0D5FF"/>
<path d="M90.4283 167.627H94.714V176.933C94.714 178.119 93.7546 179.08 92.5711 179.08C91.3877 179.08 90.4283 178.119 90.4283 176.933V167.627Z" fill="#C0D5FF"/>
<path d="M87.5711 160.468V164.763H78.2854C77.102 164.763 76.1426 163.802 76.1426 162.616C76.1426 161.43 77.102 160.468 78.2854 160.468H87.5711Z" fill="#C0D5FF"/>
<path d="M106.857 160.468C108.04 160.468 109 161.43 109 162.616C109 163.802 108.04 164.763 106.857 164.763H97.5711V160.468H106.857Z" fill="#C0D5FF"/>
<path d="M97.5711 162.616C97.5711 165.383 95.3326 167.627 92.5711 167.627C89.8097 167.627 87.5711 165.383 87.5711 162.616C87.5711 159.849 89.8097 157.605 92.5711 157.605C95.3326 157.605 97.5711 159.849 97.5711 162.616Z" stroke="#0086EA"/>
<path d="M90.4283 148.299C90.4283 147.113 91.3877 146.152 92.5711 146.152C93.7546 146.152 94.714 147.113 94.714 148.299V157.605H90.4283V148.299Z" stroke="#0086EA"/>
<path d="M90.4283 167.627H94.714V176.933C94.714 178.119 93.7546 179.08 92.5711 179.08C91.3877 179.08 90.4283 178.119 90.4283 176.933V167.627Z" stroke="#0086EA"/>
<path d="M87.5711 160.468V164.763H78.2854C77.102 164.763 76.1426 163.802 76.1426 162.616C76.1426 161.43 77.102 160.468 78.2854 160.468H87.5711Z" stroke="#0086EA"/>
<path d="M106.857 160.468C108.04 160.468 109 161.43 109 162.616C109 163.802 108.04 164.763 106.857 164.763H97.5711V160.468H106.857Z" stroke="#0086EA"/>
</svg>
