<svg width="240" height="240" viewBox="0 0 240 240" fill="none" xmlns="http://www.w3.org/2000/svg">
<ellipse cx="120.641" cy="200" rx="81.7888" ry="8" fill="#F6FAFE"/>
<path d="M88.4815 116.48C88.3099 116.354 88.1025 116.286 87.8896 116.286H43.6135C42.6474 116.286 42.2429 117.52 43.0216 118.092L54.1783 126.286H101.833L88.4815 116.48Z" fill="#C0D5FF" stroke="#0086EA"/>
<path d="M139.877 189.571V93C139.877 92.4477 139.429 92 138.877 92H79.0214C78.7557 92 78.501 92.1057 78.3134 92.2938L63.2246 107.422C63.0376 107.609 62.9326 107.863 62.9326 108.128V189.571C62.9326 190.124 63.3803 190.571 63.9326 190.571H138.877C139.429 190.571 139.877 190.124 139.877 189.571Z" fill="white" stroke="#0086EA"/>
<path d="M80.0312 117.714H125.628M125.628 128.882H80.0312M80.0312 140.571H125.628" stroke="#0086EA" stroke-linecap="round"/>
<path d="M78.6064 106.714V92L62.9326 107.714H77.6064C78.1587 107.714 78.6064 107.267 78.6064 106.714Z" fill="#C0D5FF"/>
<path d="M78.6064 92V106.714C78.6064 107.267 78.1587 107.714 77.6064 107.714H62.9326M80.0313 92H78.6064L62.9326 107.714V109.143" stroke="#0086EA"/>
<path d="M158.828 159.571V63C158.828 62.4477 158.38 62 157.828 62H97.9726C97.7069 62 97.4522 62.1057 97.2646 62.2938L82.1758 77.4215C81.9888 77.609 81.8838 77.863 81.8838 78.1277V159.571C81.8838 160.124 82.3315 160.571 82.8838 160.571H157.828C158.38 160.571 158.828 160.124 158.828 159.571Z" fill="white" stroke="#0086EA"/>
<path d="M98.9824 87.7143H144.579M144.579 98.8816H98.9824M98.9824 110.571H144.579" stroke="#0086EA" stroke-linecap="round"/>
<path d="M97.5576 76.7143V62L81.8838 77.7143H96.5576C97.1099 77.7143 97.5576 77.2666 97.5576 76.7143Z" fill="#C0D5FF"/>
<path d="M97.5576 62V76.7143C97.5576 77.2666 97.1099 77.7143 96.5576 77.7143H81.8838M98.9825 62H97.5576L81.8838 77.7143V79.1429" stroke="#0086EA"/>
<path d="M173.078 189.571V93C173.078 92.4477 172.63 92 172.078 92H112.223C111.957 92 111.702 92.1057 111.515 92.2938L96.4258 107.422C96.2388 107.609 96.1338 107.863 96.1338 108.128V189.571C96.1338 190.124 96.5815 190.571 97.1338 190.571H172.078C172.63 190.571 173.078 190.124 173.078 189.571Z" fill="white" stroke="#0086EA"/>
<path d="M113.231 117.714H158.828M158.828 128.882H113.231M113.231 140.571H158.828" stroke="#0086EA" stroke-linecap="round"/>
<path d="M111.808 106.714V92L96.1338 107.714H110.808C111.36 107.714 111.808 107.267 111.808 106.714Z" fill="#C0D5FF"/>
<path d="M111.808 92V106.714C111.808 107.267 111.36 107.714 110.808 107.714H96.1338M113.233 92H111.808L96.1338 107.714V109.143" stroke="#0086EA"/>
<path d="M53.3867 126.286H134.606V199.143H55.3867C54.2821 199.143 53.3867 198.247 53.3867 197.143V126.286Z" fill="white" stroke="#0086EA"/>
<path d="M53.7634 126.286H134.606L118.701 154.749C118.171 155.698 117.169 156.286 116.082 156.286H38.7043C37.9407 156.286 37.4589 155.464 37.8314 154.798L53.7634 126.286Z" fill="#C0D5FF" stroke="#0086EA"/>
<path d="M134.605 126.286H187.326V197.143C187.326 198.247 186.431 199.143 185.326 199.143H134.605V126.286Z" fill="#E8F2FE" stroke="#0086EA"/>
<rect x="150.279" y="143.429" width="24.2232" height="5.71429" rx="2" fill="white" stroke="#0086EA"/>
<path d="M148.673 116.798C149.169 116.464 149.753 116.286 150.351 116.286H199.695C200.685 116.286 201.073 117.569 200.249 118.118L187.987 126.286H134.605L148.673 116.798Z" fill="#C0D5FF" stroke="#0086EA"/>
</svg>
