<svg width="240" height="240" viewBox="0 0 240 240" fill="none" xmlns="http://www.w3.org/2000/svg">
<ellipse cx="120.641" cy="200.02" rx="81.7888" ry="7.97952" fill="#F6FAFE"/>
<path d="M53.3867 126.495H134.606V199.166H55.3867C54.2821 199.166 53.3867 198.27 53.3867 197.166V126.495Z" fill="white" stroke="#0086EA"/>
<path d="M53.7634 126.495H134.606L118.701 154.884C118.171 155.832 117.17 156.418 116.084 156.418H38.7064C37.9424 156.418 37.4606 155.596 37.834 154.929L53.7634 126.495Z" fill="#C0D5FF" stroke="#0086EA"/>
<path d="M134.605 126.495H187.326V197.166C187.326 198.27 186.431 199.166 185.326 199.166H134.605V126.495Z" fill="#E8F2FE" stroke="#0086EA"/>
<rect x="150.279" y="143.594" width="24.2232" height="5.69966" rx="2" fill="white" stroke="#0086EA"/>
<path d="M148.674 117.031C149.169 116.698 149.752 116.521 150.349 116.521H199.688C200.678 116.521 201.066 117.805 200.241 118.353L187.987 126.495H134.605L148.674 117.031Z" fill="#C0D5FF" stroke="#0086EA"/>
<path d="M89.009 117.1C88.4946 116.724 87.8737 116.521 87.2361 116.521H43.6198C42.6531 116.521 42.249 117.756 43.0289 118.327L54.1783 126.495H101.833L89.009 117.1Z" fill="#C0D5FF" stroke="#0086EA"/>
<path d="M112.017 118.446C113.908 106.607 115.61 95.074 121.173 84.2652C124.244 78.2972 128.68 71.9711 135.292 69.535C140.927 67.4592 148.228 70.0386 153.237 72.6682C156.232 74.2408 158.665 75.9057 159.381 79.3823C160.011 82.4366 159.095 85.0175 156.452 86.7474C153.734 88.526 150.588 89.8168 147.5 90.7555C138.945 93.3562 129.913 95.0053 121.051 96.0657C103.696 98.1423 86.8522 96.8515 72.8729 85.3639C62.238 76.6245 57.085 64.9217 57.085 51.4274" stroke="#0086EA" stroke-linecap="round" stroke-linejoin="round" stroke-dasharray="4 4"/>
<ellipse cx="56.9484" cy="43.8498" rx="2.84979" ry="2.84983" fill="#E8F2FE" stroke="#0086EA"/>
</svg>
