<svg width="240" height="240" viewBox="0 0 240 240" fill="none" xmlns="http://www.w3.org/2000/svg">
<ellipse cx="120.429" cy="185.143" rx="81.4286" ry="7.14286" fill="#F6FAFE"/>
<path d="M97.232 93.3553L136.599 106.961C137.065 107.122 137.041 107.789 136.565 107.917L68.4149 126.178C67.9354 126.306 67.582 125.733 67.912 125.362L96.1585 93.6355C96.427 93.334 96.8504 93.2234 97.232 93.3553Z" fill="white" stroke="#0086EA"/>
<path d="M67.0469 127.526C66.904 126.992 67.2205 126.444 67.754 126.301L137.163 107.703C137.696 107.56 138.245 107.877 138.387 108.41L150.355 153.073C150.641 154.14 150.007 155.236 148.941 155.522L81.4637 173.603C80.3968 173.889 79.3001 173.255 79.0142 172.189L67.0469 127.526Z" fill="white" stroke="#0086EA"/>
<path d="M108.328 140.917L68.3306 127.093C67.8646 126.932 67.8883 126.265 68.3645 126.138L136.515 107.877C136.994 107.748 137.348 108.321 137.018 108.692L108.328 140.917Z" fill="#E8F2FE" stroke="#0086EA"/>
<path d="M108.28 140.294L96.2275 136.128L116.926 130.582L108.28 140.294Z" fill="#0086EA" stroke="#0086EA"/>
<path d="M151.766 104.052C173.198 104.052 190.571 91.5043 190.571 76.026C190.571 60.5477 173.198 48 151.766 48C130.335 48 112.961 60.5477 112.961 76.026C112.961 80.6585 114.517 85.0284 117.273 88.8781L107.571 107.286L129.13 98.7922C135.501 102.102 143.318 104.052 151.766 104.052Z" fill="white" stroke="#0086EA"/>
<circle cx="133.442" cy="76.026" r="4.31169" fill="#C0D5FF"/>
<circle cx="152.845" cy="76.026" r="4.31169" fill="#C0D5FF"/>
<circle cx="172.247" cy="76.026" r="4.31169" fill="#C0D5FF"/>
</svg>
