<svg width="240" height="240" viewBox="0 0 240 240" fill="none" xmlns="http://www.w3.org/2000/svg">
<ellipse cx="120.429" cy="174.675" rx="81.4286" ry="7.14286" fill="#F6FAFE"/>
<path d="M178.026 157.265V59C178.026 58.4477 177.578 58 177.026 58H115.956C115.691 58 115.437 58.1054 115.249 58.2929L99.8505 73.6914C99.663 73.8789 99.5576 74.1333 99.5576 74.3985V157.265C99.5576 157.817 100.005 158.265 100.558 158.265H177.026C177.578 158.265 178.026 157.817 178.026 157.265Z" fill="white" stroke="#0086EA"/>
<path d="M116.995 84.1565H163.495M163.495 95.5157H116.995M116.995 107.406H163.495" stroke="#0086EA" stroke-linecap="round"/>
<path d="M115.542 72.9843V58L99.5576 73.9843H114.542C115.094 73.9843 115.542 73.5366 115.542 72.9843Z" fill="#C0D5FF"/>
<path d="M115.542 58V72.9843C115.542 73.5366 115.094 73.9843 114.542 73.9843H99.5576M116.995 58H115.542L99.5576 73.9843V75.4374" stroke="#0086EA"/>
<path d="M103.678 86.5004C91.1406 89.8599 83.6753 102.655 87.0043 115.079L89.7864 125.462L94.1105 124.303L91.3285 113.921C88.6336 103.863 94.6769 93.505 104.827 90.7853C114.976 88.0657 125.389 94.0144 128.084 104.072L130.866 114.455L135.19 113.296L132.408 102.913C129.079 90.4892 116.216 83.1409 103.678 86.5004Z" fill="#E8F2FE" stroke="#0086EA"/>
<path d="M84.7458 123.974L133.998 110.777L147.583 161.478L98.3311 174.675C97.5309 174.889 96.7084 174.414 96.4939 173.614L83.6852 125.811C83.4708 125.011 83.9456 124.189 84.7458 123.974Z" fill="white" stroke="#0086EA"/>
<path d="M137.986 109.708C138.786 109.494 139.609 109.969 139.823 110.769L152.632 158.572C152.846 159.372 152.371 160.195 151.571 160.409L145.828 161.948L132.243 111.247L137.986 109.708Z" fill="#C0D5FF" stroke="#0086EA"/>
<path d="M111.432 127.964C106.175 129.372 103.056 134.775 104.464 140.032C105.482 143.828 108.583 146.51 112.208 147.176L114.85 157.037C115.136 158.104 116.232 158.737 117.299 158.451L121.594 157.301C122.661 157.015 123.294 155.918 123.008 154.851L120.365 144.99C123.172 142.601 124.517 138.728 123.499 134.931C122.091 129.675 116.688 126.556 111.432 127.964Z" fill="#91BAFF" stroke="#0086EA"/>
</svg>
