<svg width="240" height="240" viewBox="0 0 240 240" fill="none" xmlns="http://www.w3.org/2000/svg">
<path d="M175 177.412C175 208.544 149.752 233.781 118.608 233.781C87.4641 233.781 62.2168 208.544 62.2168 177.412C75.9194 142.642 118.608 36.7513 118.608 36.7513C118.608 36.7513 164.986 147.383 175 177.412Z" fill="#F6FAFE"/>
<path d="M78.001 135.768L99.9741 148.454L88.6233 168.114L68.3822 156.428C67.4257 155.876 67.0979 154.653 67.6502 153.696L78.001 135.768Z" fill="white" stroke="#0086EA"/>
<path d="M78.1026 135.827L99.9737 148.455L92.2757 153.033C91.3426 153.588 90.1824 153.595 89.2422 153.053L70.3714 142.157C69.7097 141.775 69.7035 140.823 70.3602 140.432L78.1026 135.827Z" fill="#C0D5FF" stroke="#0086EA"/>
<path d="M99.9736 148.455L114.237 156.69L103.886 174.618C103.334 175.574 102.111 175.902 101.154 175.35L88.6229 168.115L99.9736 148.455Z" fill="#E8F2FE" stroke="#0086EA"/>
<rect width="7.56719" height="1.78052" rx="0.890259" transform="matrix(0.866025 0.500001 -0.499999 0.866026 101.542 155.528)" fill="white" stroke="#0086EA"/>
<path d="M104.629 148.135C105.224 148.094 105.818 148.232 106.334 148.53L117.165 154.783C118.023 155.278 117.716 156.585 116.728 156.647L114.414 156.793L99.9723 148.455L104.629 148.135Z" fill="#C0D5FF" stroke="#0086EA"/>
<path d="M89.3761 139.408C89.119 138.825 88.6828 138.339 88.1307 138.02L78.7355 132.596C77.8983 132.112 76.9307 132.98 77.3204 133.865L78.2135 135.892L91.1061 143.336L89.3761 139.408Z" fill="#C0D5FF" stroke="#0086EA"/>
<path d="M119.2 109.728L105.026 85.1763C104.75 84.698 104.138 84.5342 103.66 84.8103L88.5049 93.5599C88.2752 93.6925 88.1076 93.9109 88.039 94.1671L86.4824 99.9762C86.4138 100.232 86.4497 100.505 86.5823 100.735L98.6308 121.603C98.9069 122.082 99.5185 122.246 99.9968 121.97L118.834 111.094C119.313 110.818 119.477 110.206 119.2 109.728Z" fill="white" stroke="#0086EA"/>
<path d="M92.4863 100.404L104.676 93.3661M106.395 96.3438L94.2055 103.381M96.0051 106.498L108.194 99.4608" stroke="#0086EA" stroke-linecap="round"/>
<path d="M90.0653 97.0911L88.1462 93.767L86.3752 100.376L89.6993 98.4571C90.1776 98.181 90.3414 97.5694 90.0653 97.0911Z" fill="#C0D5FF"/>
<path d="M88.1462 93.767L90.0653 97.0911C90.3414 97.5694 90.1776 98.181 89.6993 98.4571L86.3752 100.376M88.5271 93.5471L88.1462 93.767L86.3752 100.376L86.5951 100.757" stroke="#0086EA"/>
<path d="M128.438 170.955C127.886 169.999 128.214 168.776 129.171 168.223L156.681 152.34L171.787 178.504L144.277 194.388C143.32 194.94 142.097 194.612 141.544 193.656L128.438 170.955Z" fill="white" stroke="#0086EA"/>
<path d="M156.681 152.34L173.931 142.381C174.887 141.829 176.11 142.157 176.663 143.113L189.769 165.813C190.321 166.77 189.993 167.993 189.037 168.545L171.787 178.505L156.681 152.34Z" fill="#E8F2FE" stroke="#0086EA"/>
<rect width="10.0707" height="2.36957" rx="1.18479" transform="matrix(0.866025 -0.500001 0.499999 0.866026 165.88 155.238)" fill="white" stroke="#0086EA"/>
<ellipse cx="1.48098" cy="1.48098" rx="1.48098" ry="1.48098" transform="matrix(0.866026 -0.499999 0.500001 0.866025 153.069 158.529)" fill="#C0D5FF" stroke="#0086EA"/>
<path d="M151.151 172.976C151.724 173.967 151.384 175.235 150.393 175.808C149.401 176.38 148.133 176.041 147.56 175.049C146.988 174.057 147.328 172.789 148.319 172.217C149.311 171.644 150.579 171.984 151.151 172.976Z" fill="#C0D5FF"/>
<path d="M145.624 169.326C145.379 168.901 145.525 168.358 145.95 168.112C146.375 167.867 146.918 168.013 147.163 168.438L149.089 171.772L147.55 172.661L145.624 169.326Z" fill="#C0D5FF"/>
<path d="M149.623 176.252L151.162 175.364L153.087 178.698C153.333 179.123 153.187 179.667 152.762 179.912C152.337 180.157 151.794 180.012 151.548 179.587L149.623 176.252Z" fill="#C0D5FF"/>
<path d="M147.116 174.279L148.005 175.818L144.67 177.744C144.245 177.989 143.701 177.843 143.456 177.418C143.211 176.993 143.356 176.45 143.781 176.205L147.116 174.279Z" fill="#C0D5FF"/>
<path d="M154.042 170.281C154.467 170.035 155.01 170.181 155.256 170.606C155.501 171.031 155.355 171.574 154.93 171.82L151.596 173.745L150.707 172.206L154.042 170.281Z" fill="#C0D5FF"/>
<path d="M151.151 172.976C151.724 173.967 151.384 175.235 150.393 175.808C149.401 176.38 148.133 176.041 147.56 175.049C146.988 174.057 147.328 172.789 148.319 172.217C149.311 171.644 150.579 171.984 151.151 172.976Z" stroke="#0086EA"/>
<path d="M145.624 169.326C145.379 168.901 145.525 168.358 145.95 168.112C146.375 167.867 146.918 168.013 147.163 168.438L149.089 171.772L147.55 172.661L145.624 169.326Z" stroke="#0086EA"/>
<path d="M149.623 176.252L151.162 175.364L153.087 178.698C153.333 179.123 153.187 179.667 152.762 179.912C152.337 180.157 151.794 180.012 151.548 179.587L149.623 176.252Z" stroke="#0086EA"/>
<path d="M147.116 174.279L148.005 175.818L144.67 177.744C144.245 177.989 143.701 177.843 143.456 177.418C143.211 176.993 143.356 176.45 143.781 176.205L147.116 174.279Z" stroke="#0086EA"/>
<path d="M154.042 170.281C154.467 170.035 155.01 170.181 155.256 170.606C155.501 171.031 155.355 171.574 154.93 171.82L151.596 173.745L150.707 172.206L154.042 170.281Z" stroke="#0086EA"/>
<path d="M107.535 196.696L119.502 210.494C119.825 210.867 119.471 211.433 118.995 211.305L88.8069 203.216C88.3275 203.088 88.308 202.415 88.7792 202.259L106.466 196.402C106.849 196.275 107.271 196.391 107.535 196.696Z" fill="white" stroke="#0086EA"/>
<path d="M86.9414 203.726C87.0843 203.193 87.6327 202.876 88.1661 203.019L119.612 211.445C120.146 211.588 120.462 212.136 120.32 212.67L115.134 232.024C114.848 233.091 113.751 233.724 112.684 233.438L83.1696 225.53C82.1027 225.244 81.4695 224.147 81.7554 223.081L86.9414 203.726Z" fill="white" stroke="#0086EA"/>
<path d="M100.673 218.295L88.2695 203.993C87.9465 203.621 88.3004 203.055 88.7766 203.183L118.965 211.271C119.444 211.4 119.464 212.073 118.992 212.229L100.673 218.295Z" fill="#E8F2FE" stroke="#0086EA"/>
<path d="M100.801 218.031L96.8916 213.524L106.576 216.119L100.801 218.031Z" fill="#0086EA" stroke="#0086EA"/>
<path d="M151.269 101.925C147.915 99.8882 143.56 100.931 141.541 104.255L139.854 107.032L141.011 107.735L142.698 104.957C144.332 102.267 147.858 101.423 150.573 103.072C153.289 104.721 154.165 108.239 152.531 110.93L150.844 113.707L152 114.41L153.687 111.632C155.706 108.308 154.624 103.963 151.269 101.925Z" fill="#F6FAFE" stroke="#0086EA"/>
<path d="M140.136 106.643L151.822 113.74L143.946 126.707L132.26 119.61C131.552 119.18 131.327 118.257 131.757 117.549L138.076 107.146C138.506 106.438 139.428 106.213 140.136 106.643Z" fill="white" stroke="#0086EA"/>
<path d="M151.995 113.845C152.703 114.275 152.928 115.198 152.498 115.906L146.18 126.309C145.75 127.017 144.827 127.242 144.119 126.812L144.073 126.784L151.949 113.817L151.995 113.845Z" fill="#C0D5FF" stroke="#0086EA"/>
<path d="M143.831 112.284C142.425 111.43 140.593 111.878 139.739 113.284C139.122 114.3 139.184 115.538 139.796 116.469L138.543 118.532C138.177 119.135 138.368 119.92 138.971 120.286C139.574 120.652 140.359 120.461 140.725 119.858L141.978 117.794C143.087 117.908 144.214 117.393 144.831 116.377C145.685 114.971 145.237 113.138 143.831 112.284Z" fill="#91BAFF" stroke="#0086EA"/>
<path d="M179.075 44.2249C179.075 54.3561 152.611 62.569 119.966 62.569C87.3214 62.569 60.8574 54.3561 60.8574 44.2249C60.8574 34.0936 87.3214 25.8807 119.966 25.8807C152.611 25.8807 179.075 34.0936 179.075 44.2249Z" fill="#E8F2FE" stroke="#0086EA"/>
<path d="M118.607 6.85712C101.721 6.85712 88.0332 19.7063 88.0332 35.5565C88.0332 37.0035 88.1473 38.4255 88.3675 39.8149C98.6982 40.4687 109.951 40.8278 121.727 40.8278C131.149 40.8278 140.238 40.5979 148.787 40.171C149.046 38.6687 149.18 37.1273 149.18 35.5565C149.18 19.7063 135.492 6.85712 118.607 6.85712Z" fill="white" stroke="#0086EA"/>
<path d="M123.364 26.1525C123.364 30.28 120.931 33.626 117.929 33.626C114.927 33.626 112.494 30.28 112.494 26.1525C112.494 22.0249 114.927 18.6789 117.929 18.6789C120.931 18.6789 123.364 22.0249 123.364 26.1525Z" fill="#E8F2FE"/>
<path d="M108.417 39.0613C108.417 36.0595 110.851 34.9848 113.852 34.9848H123.364C126.366 34.9848 128.8 36.0595 128.8 39.0613V40.4201H108.417L108.417 39.0613Z" fill="#E8F2FE"/>
<path d="M119.288 34.3054C119.288 36.1816 118.679 37.7025 117.929 37.7025C117.178 37.7025 116.57 36.1816 116.57 34.3054C116.57 32.4293 117.178 30.9083 117.929 30.9083C118.679 30.9083 119.288 32.4293 119.288 34.3054Z" fill="#E8F2FE"/>
</svg>
